<svg id="svg" version="1.1" xmlns="http://www.w3.org/2000/svg" xmlns:xlink="http://www.w3.org/1999/xlink" width="400" height="400" viewBox="0, 0, 400,400"><g id="svgg"><path id="path0" d="M0.000 200.000 L 0.000 400.000 200.000 400.000 L 400.000 400.000 400.000 200.000 L 400.000 0.000 200.000 0.000 L 0.000 0.000 0.000 200.000 M173.128 170.300 C 173.292 171.455,173.640 171.434,174.800 170.200 L 175.739 169.200 186.256 169.200 C 196.362 169.200,196.789 169.231,197.200 170.000 C 197.457 170.480,198.038 170.800,198.651 170.800 C 199.214 170.800,200.131 171.160,200.691 171.600 C 201.250 172.040,202.225 172.400,202.858 172.400 C 203.513 172.400,204.303 172.744,204.693 173.200 C 205.070 173.640,205.850 174.000,206.427 174.000 C 207.004 174.000,207.802 174.360,208.200 174.800 C 208.598 175.240,209.391 175.602,209.962 175.604 C 210.668 175.607,211.448 176.117,212.400 177.200 L 213.800 178.792 217.000 178.793 C 219.392 178.794,220.471 178.616,221.273 178.087 C 222.773 177.098,234.230 177.155,235.663 178.159 C 236.264 178.580,237.431 178.800,239.060 178.800 C 240.892 178.800,241.726 178.984,242.242 179.500 C 243.410 180.670,255.135 180.776,256.176 179.626 C 256.814 178.922,257.398 178.800,260.136 178.800 C 263.328 178.800,265.200 178.012,265.200 176.669 C 265.200 176.453,265.909 175.670,266.775 174.928 C 267.898 173.967,268.387 173.209,268.475 172.290 C 268.570 171.312,268.813 170.970,269.484 170.874 C 270.560 170.721,271.839 173.243,271.234 174.324 C 270.043 176.453,272.061 182.000,274.025 182.000 C 274.762 182.000,275.325 182.286,275.600 182.800 C 275.940 183.436,276.438 183.600,278.024 183.600 C 279.767 183.600,280.066 183.722,280.388 184.568 C 280.790 185.625,282.205 185.593,283.010 184.510 C 283.638 183.664,306.728 183.620,307.360 184.463 C 307.602 184.786,308.115 185.168,308.500 185.312 C 309.060 185.522,309.200 186.057,309.200 187.987 C 309.200 191.175,309.928 191.103,310.081 187.900 L 310.200 185.400 316.800 185.400 L 323.400 185.400 323.400 188.800 L 323.400 192.200 317.054 192.310 C 312.997 192.381,310.522 192.267,310.195 191.995 C 309.814 191.680,309.340 191.883,308.352 192.785 L 307.022 194.000 294.711 194.000 C 282.981 194.000,282.363 193.963,281.609 193.209 C 280.832 192.432,280.811 192.432,280.408 193.185 C 280.140 193.686,279.478 193.995,278.499 194.076 C 277.151 194.187,277.000 194.314,277.000 195.326 C 277.000 196.551,274.509 198.800,273.152 198.800 C 272.765 198.800,272.336 198.980,272.200 199.200 C 272.064 199.420,272.206 199.600,272.514 199.600 C 272.823 199.600,273.378 199.934,273.748 200.342 C 274.709 201.405,285.372 201.160,288.200 200.010 C 291.821 198.538,296.400 200.232,296.400 203.043 C 296.400 205.502,290.699 207.739,288.933 205.973 C 288.073 205.113,282.484 205.000,281.573 205.824 C 280.919 206.416,280.608 206.473,280.024 206.108 C 279.621 205.856,278.935 205.744,278.498 205.859 C 278.061 205.973,277.033 205.881,276.214 205.655 C 274.792 205.262,274.649 205.315,273.081 206.822 L 271.439 208.400 266.332 208.400 C 261.930 208.400,261.003 208.515,259.621 209.236 C 257.455 210.365,228.487 210.217,225.036 209.059 C 223.956 208.696,222.482 208.400,221.760 208.400 C 221.038 208.400,220.326 208.204,220.178 207.965 C 219.985 207.652,219.788 207.652,219.475 207.965 C 219.236 208.204,218.041 208.403,216.820 208.406 C 213.215 208.416,213.427 207.745,213.200 219.885 L 213.000 230.600 209.561 230.715 C 205.461 230.851,205.113 230.612,205.617 228.000 C 206.075 225.633,206.102 211.600,205.649 211.600 C 205.456 211.600,205.058 211.889,204.765 212.242 C 204.473 212.595,203.775 213.076,203.216 213.311 C 202.200 213.739,202.200 213.739,203.600 213.969 L 205.000 214.200 205.000 220.000 L 205.000 225.800 204.000 225.938 C 201.994 226.216,201.427 227.504,202.695 228.905 C 203.975 230.320,202.501 230.844,197.606 230.713 L 193.400 230.600 193.281 228.544 C 193.198 227.124,192.920 226.271,192.381 225.782 C 191.223 224.735,191.300 222.185,192.500 221.820 C 193.078 221.644,193.214 221.470,192.879 221.333 C 192.593 221.216,191.657 221.606,190.798 222.201 L 189.237 223.283 190.040 224.368 C 190.687 225.243,190.819 225.952,190.721 228.027 L 190.600 230.600 187.562 230.716 C 185.321 230.801,184.401 230.683,184.055 230.266 C 183.564 229.674,183.828 228.400,184.443 228.400 C 184.639 228.400,184.800 228.147,184.800 227.837 C 184.800 227.045,183.279 227.505,182.773 228.450 C 182.552 228.862,182.151 229.200,181.882 229.200 C 181.613 229.200,181.168 229.560,180.893 230.000 C 180.618 230.440,179.990 230.802,179.497 230.804 C 178.956 230.806,178.045 231.439,177.200 232.400 C 175.621 234.196,174.575 234.423,173.973 233.100 C 173.612 232.307,173.322 232.217,171.536 232.342 C 169.952 232.452,169.260 232.299,168.371 231.642 C 167.570 231.050,166.638 230.800,165.230 230.800 C 163.638 230.800,163.141 230.636,162.800 230.000 C 162.440 229.327,161.962 229.200,159.789 229.200 C 157.640 229.200,157.123 229.066,156.707 228.400 C 156.312 227.767,155.774 227.600,154.132 227.600 C 152.812 227.600,151.837 227.380,151.451 226.994 C 151.118 226.661,149.902 226.209,148.750 225.991 C 147.598 225.772,146.370 225.335,146.021 225.019 C 145.662 224.694,144.351 224.392,142.994 224.323 C 140.315 224.185,139.249 222.800,141.252 222.059 C 142.054 221.762,142.147 221.488,142.052 219.691 C 141.961 217.981,142.075 217.588,142.772 217.215 C 143.437 216.859,143.600 216.385,143.600 214.800 C 143.600 213.238,143.766 212.739,144.400 212.400 C 144.845 212.162,145.200 211.562,145.200 211.048 C 145.200 210.460,146.070 209.233,147.600 207.665 C 148.920 206.312,150.000 204.845,150.000 204.406 C 150.000 203.966,150.360 203.382,150.800 203.107 C 152.212 202.226,151.900 199.640,150.221 198.300 C 148.852 197.207,148.803 197.200,142.670 197.200 C 134.882 197.200,135.522 198.008,135.553 188.216 C 135.567 183.672,135.422 180.400,135.207 180.400 C 134.553 180.400,134.351 182.857,134.511 188.864 L 134.667 194.728 133.538 195.794 L 132.408 196.860 124.353 196.930 C 116.480 196.998,116.284 197.020,115.700 197.900 C 115.371 198.395,114.898 198.800,114.647 198.800 C 114.397 198.800,113.968 199.160,113.693 199.600 C 113.413 200.047,112.760 200.400,112.211 200.400 C 111.638 200.400,111.050 200.733,110.800 201.200 C 110.521 201.721,109.962 202.000,109.200 202.000 C 108.438 202.000,107.879 202.279,107.600 202.800 C 107.344 203.278,106.762 203.600,106.155 203.600 C 104.833 203.600,102.904 205.537,102.733 207.037 C 102.620 208.023,102.403 208.219,101.301 208.325 C 100.505 208.402,99.837 208.758,99.577 209.244 C 99.212 209.926,98.805 210.020,96.676 209.918 L 94.200 209.800 94.082 207.117 C 93.993 205.080,94.161 204.003,94.782 202.639 C 95.990 199.988,96.002 186.003,94.800 181.800 C 93.785 178.249,93.749 176.071,94.700 175.707 C 95.085 175.560,95.706 175.070,96.079 174.619 L 96.759 173.800 98.359 174.700 C 99.239 175.195,100.494 175.600,101.148 175.600 C 102.044 175.600,102.681 176.001,103.729 177.226 C 105.206 178.952,107.252 179.183,108.435 177.758 C 109.105 176.951,110.304 177.073,110.800 178.000 C 111.213 178.772,111.638 178.800,122.794 178.800 C 132.867 178.800,134.405 178.881,134.710 179.425 C 135.027 179.992,135.108 179.992,135.579 179.425 C 136.019 178.895,137.358 178.800,144.387 178.800 C 152.168 178.800,152.720 178.751,153.400 178.000 C 153.798 177.560,154.489 177.200,154.936 177.200 C 155.383 177.200,156.165 176.809,156.674 176.330 L 157.600 175.461 158.526 176.330 C 160.180 177.885,163.624 177.487,164.298 175.664 C 165.809 171.580,172.714 167.385,173.128 170.300 M170.875 173.616 C 169.950 174.478,169.733 175.200,170.400 175.200 C 170.620 175.200,170.800 174.951,170.800 174.647 C 170.800 174.342,171.160 173.999,171.600 173.884 C 172.040 173.769,172.400 173.478,172.400 173.237 C 172.400 172.574,171.847 172.711,170.875 173.616 M196.196 178.406 C 195.599 179.372,197.271 180.443,199.179 180.319 C 200.823 180.212,201.000 180.103,201.000 179.200 C 201.000 178.096,196.815 177.405,196.196 178.406 M267.901 183.124 C 264.519 183.404,265.123 185.200,268.600 185.200 C 271.344 185.200,271.743 185.015,271.199 183.997 C 270.757 183.172,269.938 182.955,267.901 183.124 M125.364 184.549 C 124.920 185.707,125.373 186.600,126.405 186.600 C 127.244 186.600,127.400 186.412,127.400 185.400 C 127.400 184.058,125.808 183.392,125.364 184.549 M194.677 187.480 C 193.618 187.755,193.917 189.760,195.041 189.920 C 196.341 190.106,197.494 188.186,196.426 187.614 C 196.001 187.386,195.596 187.221,195.526 187.246 C 195.457 187.272,195.075 187.377,194.677 187.480 M107.600 188.000 C 107.600 188.220,107.960 188.400,108.400 188.400 C 108.840 188.400,109.200 188.220,109.200 188.000 C 109.200 187.780,108.840 187.600,108.400 187.600 C 107.960 187.600,107.600 187.780,107.600 188.000 M113.200 188.000 C 113.200 188.220,113.470 188.400,113.800 188.400 C 114.130 188.400,114.400 188.220,114.400 188.000 C 114.400 187.780,114.130 187.600,113.800 187.600 C 113.470 187.600,113.200 187.780,113.200 188.000 M138.492 188.068 C 137.548 189.012,137.892 190.066,139.100 189.927 C 139.971 189.826,140.200 189.593,140.200 188.805 C 140.200 187.699,139.264 187.296,138.492 188.068 M162.450 187.961 C 162.147 188.153,161.877 189.005,161.850 189.855 L 161.800 191.400 163.800 191.400 C 165.578 191.400,165.814 191.299,165.930 190.487 C 166.174 188.765,163.847 187.076,162.450 187.961 M204.000 187.953 C 204.000 188.491,205.129 188.635,208.100 188.476 C 211.971 188.269,211.437 187.600,207.400 187.600 C 205.530 187.600,204.000 187.759,204.000 187.953 M247.004 187.929 C 245.473 189.460,246.781 190.000,252.027 190.000 L 257.253 190.000 257.127 188.900 L 257.000 187.800 252.104 187.762 C 249.412 187.742,247.117 187.817,247.004 187.929 M144.554 189.375 C 144.230 190.219,144.648 191.200,145.332 191.200 C 145.711 191.200,145.828 190.879,145.697 190.194 C 145.460 188.955,144.876 188.536,144.554 189.375 M265.200 199.200 C 265.200 199.420,265.740 199.600,266.400 199.600 C 267.060 199.600,267.600 199.420,267.600 199.200 C 267.600 198.980,267.060 198.800,266.400 198.800 C 265.740 198.800,265.200 198.980,265.200 199.200 M162.646 202.611 C 161.686 203.572,161.789 206.485,162.818 207.416 C 163.988 208.475,163.690 209.767,162.237 209.933 C 160.300 210.154,158.800 212.008,158.800 214.182 C 158.800 215.359,158.605 216.100,158.261 216.232 C 155.263 217.383,154.482 223.600,157.336 223.600 C 158.086 223.600,159.146 223.957,159.709 224.400 C 160.422 224.960,161.332 225.200,162.749 225.200 C 164.362 225.200,164.859 225.362,165.200 226.000 C 166.353 228.155,171.677 226.507,172.562 223.721 C 172.710 223.254,173.094 222.654,173.415 222.387 C 173.737 222.120,174.000 221.300,174.000 220.565 C 174.000 219.638,174.245 219.097,174.800 218.800 C 175.434 218.461,175.600 217.962,175.600 216.400 C 175.600 214.838,175.766 214.339,176.400 214.000 C 176.954 213.703,177.200 213.162,177.200 212.240 C 177.200 211.507,177.560 210.450,178.000 209.891 C 178.440 209.331,178.800 208.300,178.800 207.599 C 178.800 206.662,179.011 206.270,179.600 206.116 C 180.755 205.814,180.590 204.528,179.219 203.158 L 178.039 201.977 172.538 202.089 L 167.037 202.200 166.599 204.000 C 166.031 206.336,165.172 206.349,164.607 204.029 C 164.123 202.042,163.596 201.661,162.646 202.611 M221.000 202.400 C 220.838 202.662,223.701 202.800,229.292 202.800 C 235.784 202.800,238.404 202.951,240.216 203.429 C 241.919 203.879,244.085 204.032,247.800 203.964 C 255.748 203.820,260.443 204.300,261.273 205.343 C 262.113 206.398,262.678 205.929,262.099 204.657 C 261.722 203.831,261.292 203.674,258.734 203.429 C 257.120 203.274,255.029 202.889,254.086 202.574 C 251.994 201.873,221.425 201.713,221.000 202.400 M289.867 202.267 C 289.193 202.940,289.630 204.392,290.577 204.630 C 291.907 204.964,292.400 204.571,292.400 203.176 C 292.400 202.023,290.715 201.418,289.867 202.267 M219.600 204.800 C 219.600 205.680,219.780 206.400,220.000 206.400 C 220.220 206.400,220.400 205.680,220.400 204.800 C 220.400 203.920,220.220 203.200,220.000 203.200 C 219.780 203.200,219.600 203.920,219.600 204.800 M151.400 213.600 C 151.536 213.820,151.896 214.000,152.200 214.000 C 152.504 214.000,152.864 213.820,153.000 213.600 C 153.141 213.372,152.796 213.200,152.200 213.200 C 151.604 213.200,151.259 213.372,151.400 213.600 " stroke="none" fill="#fbfbfb" fill-rule="evenodd"></path><path id="path1" d="M169.928 170.700 C 169.570 171.085,168.720 171.892,168.039 172.494 C 167.358 173.095,166.800 173.764,166.800 173.979 C 166.800 174.195,166.440 174.565,166.000 174.800 C 165.560 175.035,165.200 175.636,165.200 176.134 C 165.200 177.897,159.556 178.996,158.080 177.520 C 157.707 177.147,157.493 177.147,157.120 177.520 C 156.856 177.784,156.340 178.000,155.974 178.000 C 155.608 178.000,154.831 178.375,154.248 178.834 C 153.246 179.622,152.730 179.665,144.794 179.626 L 136.400 179.584 136.400 184.192 C 136.400 188.754,136.640 189.641,137.405 187.902 C 138.117 186.284,140.933 186.483,141.360 188.182 C 141.635 189.280,142.392 189.216,143.800 187.977 C 144.510 187.351,145.758 187.257,154.935 187.136 L 165.271 187.000 166.035 187.944 C 166.893 189.004,167.050 191.190,166.320 191.920 C 165.971 192.269,162.928 192.400,155.134 192.400 L 144.428 192.400 143.010 191.155 C 141.835 190.123,141.488 189.995,140.988 190.410 C 140.588 190.742,139.716 190.830,138.393 190.674 L 136.400 190.438 136.400 193.195 L 136.400 195.951 137.900 195.876 C 146.412 195.446,152.382 197.094,152.396 199.876 C 152.402 201.131,152.951 201.306,154.529 200.553 C 157.619 199.080,159.811 202.647,158.000 206.200 C 157.560 207.063,157.200 208.184,157.200 208.692 C 157.200 211.189,154.710 214.410,152.504 214.769 C 151.293 214.966,150.995 215.214,150.726 216.252 C 150.549 216.938,150.132 217.724,149.802 217.999 C 149.471 218.273,149.200 218.900,149.200 219.391 C 149.200 219.882,148.750 220.769,148.200 221.362 C 146.571 223.119,147.792 225.200,150.451 225.200 C 151.160 225.200,151.783 225.503,152.093 226.000 C 152.484 226.626,153.027 226.801,154.596 226.803 C 155.923 226.804,157.006 227.074,157.800 227.600 C 158.573 228.112,159.677 228.396,160.904 228.397 C 162.311 228.399,162.987 228.609,163.493 229.200 C 164.013 229.808,164.673 230.000,166.235 230.000 C 167.686 230.000,168.592 230.236,169.309 230.800 C 171.217 232.301,172.333 231.901,172.637 229.607 C 172.782 228.511,173.148 227.409,173.451 227.158 C 173.966 226.730,174.251 224.400,173.788 224.400 C 173.671 224.400,172.913 225.120,172.104 226.000 C 170.316 227.944,165.732 228.440,164.707 226.800 C 164.304 226.154,163.774 226.000,161.958 226.000 C 160.314 226.000,159.434 225.785,158.691 225.200 C 158.131 224.760,157.130 224.400,156.466 224.400 C 154.470 224.400,152.889 221.888,154.200 220.800 C 154.530 220.526,154.800 219.822,154.800 219.235 C 154.800 218.501,155.301 217.707,156.400 216.696 C 157.776 215.431,158.000 214.991,158.000 213.555 C 158.000 211.480,159.930 209.211,161.700 209.204 C 162.999 209.199,163.110 208.786,162.000 208.093 C 161.060 207.506,160.813 202.547,161.680 201.680 C 162.476 200.884,164.291 201.110,164.977 202.089 L 165.600 202.978 166.223 202.089 C 166.818 201.239,167.102 201.200,172.751 201.200 L 178.656 201.200 180.328 203.061 L 182.000 204.921 182.000 203.014 C 182.000 201.331,182.183 200.923,183.553 199.553 L 185.106 198.000 189.476 198.000 C 194.428 198.000,196.166 198.608,194.624 199.800 C 194.196 200.130,193.528 200.400,193.138 200.400 C 192.747 200.400,192.235 200.760,192.000 201.200 C 191.466 202.199,190.877 202.199,189.600 201.200 C 187.646 199.672,184.402 200.993,184.399 203.318 C 184.398 203.803,184.045 204.778,183.614 205.483 C 183.184 206.189,182.712 207.671,182.565 208.776 C 182.419 209.882,182.052 210.991,181.749 211.242 C 181.447 211.493,181.200 212.192,181.200 212.795 C 181.200 213.398,180.865 214.321,180.456 214.846 C 180.041 215.378,179.625 216.730,179.515 217.904 C 179.406 219.061,179.042 220.321,178.707 220.704 C 178.372 221.087,177.977 222.240,177.829 223.267 C 177.682 224.294,177.300 225.351,176.980 225.616 C 176.661 225.881,176.400 226.682,176.400 227.395 C 176.400 228.108,176.040 229.150,175.600 229.709 C 175.160 230.269,174.800 231.193,174.800 231.763 C 174.800 233.225,174.840 233.211,177.504 230.800 C 178.111 230.250,179.300 229.440,180.146 229.000 C 180.991 228.560,182.752 227.165,184.059 225.900 C 185.366 224.635,186.727 223.600,187.084 223.600 C 187.719 223.600,188.358 223.110,190.086 221.300 C 190.558 220.805,191.154 220.400,191.410 220.400 C 191.666 220.400,192.202 220.040,192.600 219.600 C 192.998 219.160,193.506 218.800,193.728 218.800 C 193.951 218.800,194.418 218.538,194.766 218.219 C 196.445 216.678,197.161 216.111,198.813 215.012 C 199.796 214.359,201.435 213.144,202.456 212.312 C 203.476 211.481,204.428 210.800,204.572 210.800 C 204.939 210.800,207.037 209.235,208.722 207.703 C 209.507 206.990,210.521 206.293,210.975 206.154 C 211.429 206.015,212.113 205.608,212.495 205.250 C 212.877 204.893,213.530 204.277,213.946 203.882 C 215.082 202.802,217.637 201.600,218.796 201.600 C 219.360 201.600,220.221 201.321,220.708 200.979 C 221.445 200.463,222.552 200.394,227.297 200.567 C 230.434 200.682,238.670 200.921,245.600 201.099 C 256.348 201.374,258.388 201.523,259.480 202.111 C 260.184 202.490,260.995 202.800,261.281 202.800 C 262.175 202.800,264.200 205.278,264.200 206.372 C 264.200 207.821,270.144 208.188,271.386 206.815 C 271.792 206.367,272.323 206.000,272.566 206.000 C 272.809 206.000,273.228 205.647,273.498 205.215 C 273.953 204.487,274.462 204.431,280.603 204.433 C 287.829 204.436,288.000 204.403,288.000 202.976 L 288.000 202.000 280.862 202.000 C 274.232 202.000,273.672 201.943,273.000 201.200 C 272.371 200.505,271.768 200.400,268.414 200.400 C 263.977 200.400,262.293 199.746,263.776 198.600 C 264.351 198.156,265.649 197.997,268.776 197.987 C 273.626 197.973,275.200 197.207,275.200 194.862 C 275.200 193.526,275.748 193.200,277.992 193.200 L 279.518 193.200 279.685 189.700 C 279.898 185.220,279.592 184.250,278.067 184.585 C 276.663 184.894,274.800 184.224,274.800 183.410 C 274.800 182.999,274.409 182.800,273.600 182.800 C 272.552 182.800,272.400 182.942,272.400 183.920 C 272.400 185.649,271.740 186.000,268.494 186.000 C 264.064 186.000,263.045 185.147,264.981 183.058 C 265.863 182.107,266.246 182.000,268.781 182.000 C 270.394 182.000,271.600 181.829,271.600 181.600 C 271.600 181.380,271.368 181.200,271.085 181.200 C 270.801 181.200,269.912 180.865,269.109 180.456 C 268.079 179.930,267.524 179.836,267.224 180.136 C 266.925 180.435,266.408 180.419,265.471 180.080 C 263.288 179.291,258.807 179.468,257.400 180.400 C 255.578 181.607,242.339 181.619,241.495 180.415 C 240.866 179.516,224.045 178.559,222.000 179.306 C 218.745 180.494,212.400 180.185,212.400 178.839 C 212.400 177.970,210.338 176.400,209.196 176.400 C 208.438 176.400,207.878 176.120,207.600 175.600 C 207.334 175.103,206.761 174.799,206.086 174.797 C 205.489 174.796,204.460 174.437,203.800 174.000 C 203.140 173.563,202.107 173.204,201.503 173.203 C 200.842 173.201,200.208 172.882,199.907 172.400 C 199.615 171.933,198.974 171.600,198.366 171.600 C 197.793 171.600,196.998 171.240,196.600 170.800 C 195.914 170.042,195.368 170.000,186.254 170.000 L 176.633 170.000 173.511 173.294 C 170.852 176.099,170.285 176.522,169.694 176.140 C 168.633 175.455,169.053 173.614,170.630 172.036 C 171.384 171.283,172.000 170.517,172.000 170.333 C 172.000 169.734,170.593 169.983,169.928 170.700 M269.200 172.878 C 269.200 174.183,267.546 176.400,266.572 176.400 C 266.309 176.400,266.001 176.884,265.888 177.475 C 265.488 179.566,266.514 180.404,267.215 178.559 C 267.506 177.794,267.795 177.590,268.306 177.789 C 269.714 178.337,269.801 178.181,269.916 174.900 C 269.990 172.807,269.880 171.600,269.616 171.600 C 269.387 171.600,269.200 172.175,269.200 172.878 M177.614 174.426 C 178.384 175.865,176.888 176.869,175.033 176.157 C 174.095 175.797,174.265 174.428,175.300 174.012 C 176.692 173.453,177.136 173.532,177.614 174.426 M95.870 176.157 C 94.637 176.613,94.629 176.883,95.750 179.800 C 96.664 182.177,96.650 201.878,95.733 204.200 C 95.386 205.080,95.016 206.565,94.910 207.500 L 94.719 209.200 96.471 209.200 C 97.727 209.200,98.416 208.974,98.907 208.400 C 99.311 207.929,100.087 207.600,100.796 207.600 C 101.842 207.600,102.001 207.455,102.004 206.500 C 102.010 205.116,104.289 202.800,105.646 202.800 C 106.175 202.800,106.832 202.440,107.107 202.000 C 107.387 201.553,108.040 201.200,108.589 201.200 C 109.162 201.200,109.750 200.867,110.000 200.400 C 110.235 199.960,110.708 199.600,111.051 199.600 C 111.394 199.600,112.131 199.240,112.691 198.800 C 113.250 198.360,113.910 198.000,114.158 198.000 C 114.405 198.000,114.832 197.640,115.107 197.200 C 115.382 196.760,116.021 196.400,116.527 196.400 C 117.033 196.400,117.796 196.136,118.224 195.813 C 119.200 195.075,130.766 194.926,131.483 195.643 C 132.366 196.526,132.682 194.583,132.706 188.140 C 132.720 184.295,132.906 181.350,133.165 180.866 C 133.404 180.419,133.600 179.951,133.600 179.826 C 133.600 179.702,128.480 179.600,122.223 179.600 C 110.919 179.600,110.841 179.594,110.223 178.711 L 109.600 177.822 108.977 178.711 C 107.623 180.644,102.016 179.028,102.002 176.700 C 102.001 176.535,101.292 176.400,100.426 176.400 C 99.560 176.400,98.435 176.251,97.926 176.069 C 97.387 175.877,96.528 175.913,95.870 176.157 M188.720 177.680 C 189.925 178.885,188.759 181.324,187.176 180.910 C 185.810 180.552,185.359 178.763,186.418 177.905 C 187.439 177.078,188.058 177.018,188.720 177.680 M202.143 178.079 C 203.538 180.298,198.911 182.358,196.014 180.807 C 194.990 180.260,194.550 178.584,195.217 177.779 C 195.963 176.881,201.541 177.122,202.143 178.079 M128.156 183.516 C 129.125 185.389,128.485 187.370,126.860 187.527 C 125.148 187.693,124.400 187.024,124.400 185.325 C 124.400 182.344,126.922 181.129,128.156 183.516 M283.094 185.920 C 282.041 186.424,282.028 186.471,282.664 187.442 C 283.208 188.272,283.244 188.695,282.871 189.909 C 282.507 191.095,282.535 191.547,283.020 192.287 L 283.618 193.200 294.991 193.200 C 308.579 193.200,308.200 193.329,308.200 188.700 C 308.200 186.193,308.141 186.022,307.200 185.784 C 305.103 185.256,284.236 185.373,283.094 185.920 M197.427 186.647 C 199.073 187.903,199.084 188.001,197.764 189.569 C 195.960 191.714,193.200 191.133,193.200 188.609 C 193.200 185.753,195.099 184.872,197.427 186.647 M310.800 188.800 L 310.800 191.600 316.800 191.600 L 322.800 191.600 322.800 188.800 L 322.800 186.000 316.800 186.000 L 310.800 186.000 310.800 188.800 M208.824 186.795 C 211.773 186.802,212.926 187.556,211.833 188.764 C 211.247 189.411,210.598 189.600,208.962 189.600 C 207.799 189.600,206.736 189.780,206.600 190.000 C 205.841 191.227,202.595 189.557,202.879 188.085 C 203.045 187.221,204.777 186.334,205.800 186.590 C 206.240 186.699,207.601 186.792,208.824 186.795 M115.808 187.357 C 117.475 188.575,115.923 189.200,111.227 189.200 C 106.373 189.200,104.644 188.584,106.176 187.400 C 107.236 186.581,114.702 186.547,115.808 187.357 M258.258 188.278 C 259.204 190.542,258.573 190.800,252.097 190.800 C 246.029 190.800,244.988 190.500,245.397 188.869 C 245.898 186.872,246.131 186.800,252.069 186.800 L 257.641 186.800 258.258 188.278 M103.980 188.976 C 104.838 190.010,104.344 191.800,103.200 191.800 C 102.401 191.800,102.174 191.574,102.071 190.676 C 101.949 189.608,102.548 188.400,103.200 188.400 C 103.366 188.400,103.717 188.659,103.980 188.976 M290.000 200.800 C 290.000 201.020,290.270 201.200,290.600 201.200 C 290.930 201.200,291.200 201.020,291.200 200.800 C 291.200 200.580,290.930 200.400,290.600 200.400 C 290.270 200.400,290.000 200.580,290.000 200.800 M293.467 202.267 C 292.652 203.081,293.229 204.400,294.400 204.400 C 295.467 204.400,295.600 204.267,295.600 203.200 C 295.600 202.029,294.281 201.452,293.467 202.267 M151.670 204.126 C 151.191 204.635,150.800 205.227,150.800 205.442 C 150.800 205.657,150.125 206.469,149.300 207.247 C 147.624 208.827,147.060 209.598,146.179 211.517 C 145.847 212.242,145.310 212.936,144.987 213.060 C 144.583 213.215,144.400 213.888,144.400 215.220 C 144.400 216.725,144.216 217.284,143.569 217.736 C 142.194 218.700,142.643 220.641,144.200 220.463 C 145.511 220.313,146.800 219.372,146.800 218.564 C 146.800 216.620,149.260 213.079,151.275 212.122 C 153.227 211.195,154.333 209.481,155.005 206.342 C 155.163 205.604,155.467 204.783,155.681 204.518 C 156.900 203.002,153.076 202.628,151.670 204.126 M221.200 205.524 L 221.200 207.448 227.700 207.992 C 238.497 208.894,255.256 209.001,258.182 208.186 C 261.267 207.326,261.207 207.373,260.668 206.232 L 260.211 205.264 249.206 205.111 C 239.929 204.982,237.966 204.851,236.713 204.279 C 235.494 203.723,233.958 203.600,228.213 203.600 L 221.200 203.600 221.200 205.524 M216.093 206.000 C 215.774 206.510,215.160 206.800,214.397 206.800 C 213.738 206.800,213.200 206.980,213.200 207.200 C 213.200 207.683,218.263 207.745,218.560 207.265 C 218.838 206.814,217.677 205.200,217.074 205.200 C 216.809 205.200,216.368 205.560,216.093 206.000 M179.600 208.200 C 179.600 208.970,179.780 209.600,180.000 209.600 C 180.220 209.600,180.400 208.970,180.400 208.200 C 180.400 207.430,180.220 206.800,180.000 206.800 C 179.780 206.800,179.600 207.430,179.600 208.200 M210.200 210.016 C 209.320 210.854,208.201 211.901,207.712 212.343 C 206.844 213.129,206.827 213.323,206.912 221.573 L 207.000 230.000 209.700 230.000 L 212.400 230.000 212.400 219.200 C 212.400 213.260,212.265 208.421,212.100 208.447 C 211.935 208.472,211.080 209.179,210.200 210.016 M178.000 212.800 C 178.000 213.460,178.180 214.000,178.400 214.000 C 178.620 214.000,178.800 213.460,178.800 212.800 C 178.800 212.140,178.620 211.600,178.400 211.600 C 178.180 211.600,178.000 212.140,178.000 212.800 M203.213 215.385 C 202.946 215.706,202.339 216.089,201.864 216.235 C 201.389 216.382,200.730 216.740,200.400 217.032 C 200.070 217.324,199.434 217.886,198.987 218.281 C 197.896 219.245,195.022 221.200,194.697 221.200 C 193.132 221.200,191.897 224.502,193.200 225.200 C 193.851 225.549,194.000 226.038,194.000 227.829 L 194.000 230.030 197.693 229.915 L 201.386 229.800 201.261 228.080 C 201.112 226.032,201.686 225.200,203.249 225.200 L 204.400 225.200 204.400 220.000 C 204.400 214.929,204.208 214.185,203.213 215.385 M176.400 217.000 C 176.400 217.990,176.580 218.800,176.800 218.800 C 177.020 218.800,177.200 217.990,177.200 217.000 C 177.200 216.010,177.020 215.200,176.800 215.200 C 176.580 215.200,176.400 216.010,176.400 217.000 M174.800 221.567 C 174.800 222.685,174.980 223.600,175.200 223.600 C 175.420 223.600,175.600 222.880,175.600 222.000 C 175.600 221.120,175.614 220.270,175.630 220.110 C 175.647 219.950,175.466 219.755,175.230 219.677 C 174.961 219.587,174.800 220.294,174.800 221.567 M142.100 222.715 C 140.587 222.951,141.100 223.600,142.800 223.600 C 143.680 223.600,144.400 223.441,144.400 223.247 C 144.400 222.796,143.263 222.534,142.100 222.715 M188.686 225.902 C 187.375 226.199,184.901 229.167,185.481 229.747 C 185.620 229.886,186.693 230.000,187.867 230.000 L 190.000 230.000 190.000 228.024 C 190.000 225.927,189.825 225.645,188.686 225.902 " stroke="none" fill="#080808" fill-rule="evenodd"></path><path id="path2" d="M167.600 172.401 C 166.170 173.929,164.936 175.499,164.857 175.890 C 164.490 177.712,159.987 178.436,158.331 176.938 C 157.651 176.322,157.549 176.322,156.869 176.938 C 156.466 177.302,155.860 177.600,155.522 177.600 C 155.184 177.600,154.455 177.956,153.901 178.392 C 152.983 179.114,152.166 179.193,144.547 179.292 L 136.200 179.400 136.114 187.685 C 136.067 192.242,136.176 196.062,136.357 196.173 C 136.538 196.285,139.513 196.474,142.970 196.593 C 149.962 196.833,151.991 197.598,152.006 200.000 C 152.009 200.550,152.177 201.260,152.378 201.579 C 152.639 201.991,152.407 202.542,151.572 203.493 C 150.928 204.227,150.400 205.005,150.400 205.222 C 150.400 205.440,149.399 206.634,148.176 207.877 C 146.922 209.151,145.853 210.636,145.724 211.282 C 145.597 211.913,145.158 212.608,144.747 212.828 C 144.173 213.136,144.000 213.684,144.000 215.200 C 144.000 216.762,143.834 217.261,143.200 217.600 C 142.356 218.052,142.123 219.744,142.766 220.758 C 143.420 221.792,147.200 220.397,147.200 219.121 C 147.200 217.383,149.781 213.475,151.403 212.758 C 153.526 211.818,154.627 210.370,155.201 207.759 C 155.438 206.682,155.916 205.584,156.264 205.320 C 157.125 204.668,156.647 202.874,155.488 202.408 C 155.000 202.212,154.825 202.039,155.100 202.025 C 155.375 202.011,155.600 201.728,155.600 201.397 C 155.600 200.946,155.777 200.888,156.300 201.167 C 156.685 201.373,157.315 201.639,157.700 201.758 C 158.664 202.056,158.608 204.028,157.600 205.309 C 157.160 205.869,156.800 206.894,156.800 207.588 C 156.800 210.604,154.457 213.987,152.104 214.369 C 150.873 214.569,150.597 214.808,150.308 215.922 C 150.121 216.645,149.705 217.338,149.384 217.462 C 149.050 217.590,148.800 218.204,148.800 218.897 C 148.800 219.656,148.448 220.435,147.857 220.982 C 147.339 221.462,146.840 222.081,146.748 222.356 C 146.617 222.749,146.191 222.759,144.781 222.404 C 143.489 222.079,142.665 222.071,141.858 222.378 C 139.950 223.103,140.813 223.799,143.637 223.811 C 145.584 223.819,146.537 224.035,147.600 224.710 C 148.370 225.198,149.467 225.598,150.038 225.599 C 150.609 225.599,151.402 225.960,151.800 226.400 C 152.323 226.978,153.034 227.201,154.362 227.203 C 155.523 227.204,156.642 227.498,157.400 228.000 C 158.201 228.531,159.277 228.796,160.638 228.797 C 162.166 228.799,162.857 229.000,163.400 229.600 C 163.923 230.178,164.634 230.401,165.962 230.403 C 167.123 230.404,168.242 230.698,169.000 231.200 C 171.256 232.694,172.893 232.163,173.312 229.800 C 173.676 227.745,174.969 224.623,175.674 224.095 C 176.166 223.727,176.289 223.226,176.129 222.240 C 175.958 221.184,176.108 220.692,176.820 219.980 C 177.432 219.368,177.791 218.437,177.916 217.135 C 178.018 216.071,178.259 215.200,178.451 215.200 C 179.038 215.200,178.859 219.453,178.251 219.958 C 177.948 220.209,177.586 221.279,177.446 222.337 C 177.306 223.394,176.929 224.606,176.608 225.030 C 176.288 225.453,176.020 226.387,176.013 227.104 C 176.005 227.901,175.689 228.674,175.200 229.093 C 174.631 229.580,174.400 230.273,174.400 231.489 C 174.400 233.577,174.912 233.669,176.811 231.922 C 177.575 231.219,179.004 230.213,179.986 229.687 C 180.969 229.161,182.150 228.341,182.611 227.865 C 184.259 226.165,186.439 224.441,187.278 224.175 C 187.746 224.027,188.857 223.206,189.746 222.352 C 190.634 221.499,191.597 220.800,191.884 220.800 C 192.172 220.800,192.716 220.440,193.093 220.000 C 193.470 219.560,194.001 219.200,194.275 219.200 C 194.548 219.200,194.965 218.840,195.200 218.400 C 195.435 217.960,195.897 217.600,196.227 217.600 C 196.556 217.600,196.922 217.346,197.041 217.037 C 197.160 216.727,197.772 216.260,198.400 216.000 C 199.028 215.740,199.640 215.273,199.759 214.963 C 199.878 214.654,200.244 214.400,200.573 214.400 C 200.903 214.400,201.365 214.040,201.600 213.600 C 201.835 213.160,202.264 212.800,202.552 212.800 C 202.840 212.800,203.402 212.440,203.800 212.000 C 204.198 211.560,204.696 211.200,204.906 211.200 C 205.117 211.200,206.149 210.480,207.200 209.600 C 208.251 208.720,209.283 208.000,209.494 208.000 C 209.704 208.000,210.202 207.640,210.600 207.200 C 210.998 206.760,211.483 206.400,211.677 206.400 C 211.872 206.400,212.780 205.680,213.696 204.800 C 214.612 203.920,215.650 203.200,216.004 203.200 C 216.358 203.200,216.996 202.936,217.424 202.613 C 217.851 202.290,218.597 202.020,219.081 202.013 C 219.566 202.006,220.384 201.808,220.898 201.573 C 222.600 200.798,255.993 201.767,259.278 202.687 C 262.075 203.470,263.909 205.019,263.451 206.212 C 263.098 207.132,261.742 206.903,260.928 205.787 L 260.190 204.773 249.995 204.658 C 241.647 204.564,239.438 204.420,237.800 203.860 C 236.141 203.294,234.538 203.196,228.400 203.289 L 221.000 203.400 221.000 205.600 L 221.000 207.800 225.000 208.333 C 232.445 209.326,257.323 209.417,259.551 208.460 C 261.163 207.767,262.015 207.691,266.200 207.866 L 271.000 208.066 272.600 206.561 L 274.200 205.056 280.996 204.941 C 288.315 204.818,288.800 204.670,288.800 202.566 C 288.800 201.823,289.069 201.656,290.500 201.504 C 292.690 201.273,292.800 201.353,292.800 203.181 C 292.800 204.847,293.240 205.206,294.798 204.815 C 296.691 204.340,296.359 201.200,294.416 201.200 C 293.773 201.200,293.145 201.034,293.019 200.831 C 292.521 200.024,290.482 199.954,289.098 200.696 C 286.725 201.968,274.674 201.997,273.330 200.734 C 272.434 199.893,271.975 199.808,268.272 199.804 C 264.921 199.801,264.200 199.694,264.200 199.200 C 264.200 198.605,264.439 198.581,272.021 198.422 C 273.751 198.385,276.485 196.106,275.964 195.133 C 275.408 194.094,275.595 193.947,277.789 193.700 C 280.062 193.444,280.021 193.517,280.196 189.345 C 280.396 184.587,280.131 184.019,277.733 184.067 C 276.214 184.097,275.721 183.934,275.268 183.252 C 274.912 182.715,274.282 182.400,273.565 182.400 C 272.829 182.400,272.274 182.111,271.990 181.581 C 271.749 181.130,271.105 180.592,270.560 180.385 C 269.741 180.073,269.639 179.875,269.973 179.251 C 270.539 178.194,270.643 172.083,270.104 171.544 C 269.449 170.889,268.800 171.506,268.800 172.782 C 268.800 173.590,268.374 174.291,267.322 175.215 C 266.508 175.929,265.563 177.073,265.222 177.757 C 264.613 178.973,264.527 179.004,261.173 179.206 C 258.883 179.344,257.395 179.642,256.687 180.106 C 254.983 181.223,242.828 181.136,241.800 180.000 C 241.214 179.353,240.568 179.200,238.414 179.200 C 236.916 179.200,235.455 178.982,235.070 178.700 C 234.578 178.340,233.244 178.262,230.294 178.423 C 228.036 178.546,225.613 178.470,224.891 178.253 C 223.868 177.946,223.263 178.012,222.120 178.558 C 221.243 178.976,219.321 179.327,217.321 179.435 L 213.985 179.616 212.228 177.808 C 211.094 176.640,210.126 176.000,209.498 176.000 C 208.962 176.000,208.198 175.640,207.800 175.200 C 207.402 174.760,206.699 174.399,206.238 174.397 C 205.777 174.396,204.860 174.037,204.200 173.600 C 203.540 173.163,202.533 172.804,201.962 172.803 C 201.391 172.801,200.598 172.440,200.200 172.000 C 199.802 171.560,198.970 171.200,198.352 171.200 C 197.638 171.200,197.072 170.909,196.800 170.400 C 196.390 169.633,195.962 169.600,186.451 169.600 L 176.530 169.600 174.894 171.300 C 173.995 172.235,172.624 173.691,171.849 174.536 C 171.073 175.380,170.250 175.954,170.019 175.812 C 169.139 175.268,169.641 173.722,171.190 172.210 C 172.409 171.019,172.677 170.534,172.341 170.129 C 171.430 169.031,170.204 169.619,167.600 172.401 M172.000 170.333 C 172.000 170.517,171.384 171.283,170.630 172.036 C 169.053 173.614,168.633 175.455,169.694 176.140 C 170.285 176.522,170.852 176.099,173.511 173.294 L 176.633 170.000 186.254 170.000 C 195.368 170.000,195.914 170.042,196.600 170.800 C 196.998 171.240,197.793 171.600,198.366 171.600 C 198.974 171.600,199.615 171.933,199.907 172.400 C 200.208 172.882,200.842 173.201,201.503 173.203 C 202.107 173.204,203.140 173.563,203.800 174.000 C 204.460 174.437,205.489 174.796,206.086 174.797 C 206.761 174.799,207.334 175.103,207.600 175.600 C 207.878 176.120,208.438 176.400,209.196 176.400 C 210.338 176.400,212.400 177.970,212.400 178.839 C 212.400 180.185,218.745 180.494,222.000 179.306 C 224.045 178.559,240.866 179.516,241.495 180.415 C 242.339 181.619,255.578 181.607,257.400 180.400 C 258.807 179.468,263.288 179.291,265.471 180.080 C 266.408 180.419,266.925 180.435,267.224 180.136 C 267.524 179.836,268.079 179.930,269.109 180.456 C 269.912 180.865,270.801 181.200,271.085 181.200 C 271.368 181.200,271.600 181.380,271.600 181.600 C 271.600 181.829,270.394 182.000,268.781 182.000 C 266.246 182.000,265.863 182.107,264.981 183.058 C 263.045 185.147,264.064 186.000,268.494 186.000 C 271.740 186.000,272.400 185.649,272.400 183.920 C 272.400 182.942,272.552 182.800,273.600 182.800 C 274.409 182.800,274.800 182.999,274.800 183.410 C 274.800 184.224,276.663 184.894,278.067 184.585 C 279.592 184.250,279.898 185.220,279.685 189.700 L 279.518 193.200 277.992 193.200 C 275.748 193.200,275.200 193.526,275.200 194.862 C 275.200 197.207,273.626 197.973,268.776 197.987 C 265.649 197.997,264.351 198.156,263.776 198.600 C 262.293 199.746,263.977 200.400,268.414 200.400 C 271.768 200.400,272.371 200.505,273.000 201.200 C 273.672 201.943,274.232 202.000,280.862 202.000 L 288.000 202.000 288.000 202.976 C 288.000 204.403,287.829 204.436,280.603 204.433 C 274.462 204.431,273.953 204.487,273.498 205.215 C 273.228 205.647,272.809 206.000,272.566 206.000 C 272.323 206.000,271.792 206.367,271.386 206.815 C 270.144 208.188,264.200 207.821,264.200 206.372 C 264.200 205.278,262.175 202.800,261.281 202.800 C 260.995 202.800,260.184 202.490,259.480 202.111 C 258.388 201.523,256.348 201.374,245.600 201.099 C 238.670 200.921,230.434 200.682,227.297 200.567 C 222.552 200.394,221.445 200.463,220.708 200.979 C 220.221 201.321,219.360 201.600,218.796 201.600 C 217.637 201.600,215.082 202.802,213.946 203.882 C 213.530 204.277,212.877 204.893,212.495 205.250 C 212.113 205.608,211.429 206.015,210.975 206.154 C 210.521 206.293,209.507 206.990,208.722 207.703 C 207.037 209.235,204.939 210.800,204.572 210.800 C 204.428 210.800,203.476 211.481,202.456 212.312 C 201.435 213.144,199.796 214.359,198.813 215.012 C 197.161 216.111,196.445 216.678,194.766 218.219 C 194.418 218.538,193.951 218.800,193.728 218.800 C 193.506 218.800,192.998 219.160,192.600 219.600 C 192.202 220.040,191.666 220.400,191.410 220.400 C 191.154 220.400,190.558 220.805,190.086 221.300 C 188.358 223.110,187.719 223.600,187.084 223.600 C 186.727 223.600,185.366 224.635,184.059 225.900 C 182.752 227.165,180.991 228.560,180.146 229.000 C 179.300 229.440,178.111 230.250,177.504 230.800 C 174.840 233.211,174.800 233.225,174.800 231.763 C 174.800 231.193,175.160 230.269,175.600 229.709 C 176.040 229.150,176.400 228.108,176.400 227.395 C 176.400 226.682,176.661 225.881,176.980 225.616 C 177.300 225.351,177.682 224.294,177.829 223.267 C 177.977 222.240,178.372 221.087,178.707 220.704 C 179.042 220.321,179.406 219.061,179.515 217.904 C 179.625 216.730,180.041 215.378,180.456 214.846 C 180.865 214.321,181.200 213.398,181.200 212.795 C 181.200 212.192,181.447 211.493,181.749 211.242 C 182.052 210.991,182.419 209.882,182.565 208.776 C 182.712 207.671,183.184 206.189,183.614 205.483 C 184.045 204.778,184.398 203.803,184.399 203.318 C 184.402 200.993,187.646 199.672,189.600 201.200 C 190.877 202.199,191.466 202.199,192.000 201.200 C 192.235 200.760,192.747 200.400,193.138 200.400 C 193.528 200.400,194.196 200.130,194.624 199.800 C 196.166 198.608,194.428 198.000,189.476 198.000 L 185.106 198.000 183.553 199.553 C 182.183 200.923,182.000 201.331,182.000 203.014 L 182.000 204.921 180.328 203.061 L 178.656 201.200 172.751 201.200 C 167.102 201.200,166.818 201.239,166.223 202.089 L 165.600 202.978 164.977 202.089 C 164.291 201.110,162.476 200.884,161.680 201.680 C 160.813 202.547,161.060 207.506,162.000 208.093 C 163.110 208.786,162.999 209.199,161.700 209.204 C 159.930 209.211,158.000 211.480,158.000 213.555 C 158.000 214.991,157.776 215.431,156.400 216.696 C 155.301 217.707,154.800 218.501,154.800 219.235 C 154.800 219.822,154.530 220.526,154.200 220.800 C 152.889 221.888,154.470 224.400,156.466 224.400 C 157.130 224.400,158.131 224.760,158.691 225.200 C 159.434 225.785,160.314 226.000,161.958 226.000 C 163.774 226.000,164.304 226.154,164.707 226.800 C 165.732 228.440,170.316 227.944,172.104 226.000 C 172.913 225.120,173.671 224.400,173.788 224.400 C 174.251 224.400,173.966 226.730,173.451 227.158 C 173.148 227.409,172.782 228.511,172.637 229.607 C 172.333 231.901,171.217 232.301,169.309 230.800 C 168.592 230.236,167.686 230.000,166.235 230.000 C 164.673 230.000,164.013 229.808,163.493 229.200 C 162.987 228.609,162.311 228.399,160.904 228.397 C 159.677 228.396,158.573 228.112,157.800 227.600 C 157.006 227.074,155.923 226.804,154.596 226.803 C 153.027 226.801,152.484 226.626,152.093 226.000 C 151.783 225.503,151.160 225.200,150.451 225.200 C 147.792 225.200,146.571 223.119,148.200 221.362 C 148.750 220.769,149.200 219.882,149.200 219.391 C 149.200 218.900,149.471 218.273,149.802 217.999 C 150.132 217.724,150.549 216.938,150.726 216.252 C 150.995 215.214,151.293 214.966,152.504 214.769 C 154.710 214.410,157.200 211.189,157.200 208.692 C 157.200 208.184,157.560 207.063,158.000 206.200 C 159.811 202.647,157.619 199.080,154.529 200.553 C 152.951 201.306,152.402 201.131,152.396 199.876 C 152.382 197.094,146.412 195.446,137.900 195.876 L 136.400 195.951 136.400 193.195 L 136.400 190.438 138.393 190.674 C 139.716 190.830,140.588 190.742,140.988 190.410 C 141.488 189.995,141.835 190.123,143.010 191.155 L 144.428 192.400 155.134 192.400 C 162.928 192.400,165.971 192.269,166.320 191.920 C 167.050 191.190,166.893 189.004,166.035 187.944 L 165.271 187.000 154.935 187.136 C 145.758 187.257,144.510 187.351,143.800 187.977 C 142.392 189.216,141.635 189.280,141.360 188.182 C 140.933 186.483,138.117 186.284,137.405 187.902 C 136.640 189.641,136.400 188.754,136.400 184.192 L 136.400 179.584 144.794 179.626 C 152.730 179.665,153.246 179.622,154.248 178.834 C 154.831 178.375,155.608 178.000,155.974 178.000 C 156.340 178.000,156.856 177.784,157.120 177.520 C 157.493 177.147,157.707 177.147,158.080 177.520 C 159.556 178.996,165.200 177.897,165.200 176.134 C 165.200 175.636,165.560 175.035,166.000 174.800 C 166.440 174.565,166.800 174.195,166.800 173.979 C 166.800 173.764,167.358 173.095,168.039 172.494 C 168.720 171.892,169.570 171.085,169.928 170.700 C 170.593 169.983,172.000 169.734,172.000 170.333 M269.916 174.900 C 269.801 178.181,269.714 178.337,268.306 177.789 C 267.795 177.590,267.506 177.794,267.215 178.559 C 266.514 180.404,265.488 179.566,265.888 177.475 C 266.001 176.884,266.309 176.400,266.572 176.400 C 267.546 176.400,269.200 174.183,269.200 172.878 C 269.200 172.175,269.387 171.600,269.616 171.600 C 269.880 171.600,269.990 172.807,269.916 174.900 M175.300 174.012 C 174.265 174.428,174.095 175.797,175.033 176.157 C 176.888 176.869,178.384 175.865,177.614 174.426 C 177.136 173.532,176.692 173.453,175.300 174.012 M177.372 174.755 C 177.733 175.339,176.622 175.983,175.679 175.737 C 175.196 175.610,174.800 175.363,174.800 175.187 C 174.800 174.509,176.992 174.140,177.372 174.755 M95.700 175.706 C 94.221 176.579,94.094 177.354,95.077 179.513 C 96.259 182.111,96.359 200.900,95.208 203.979 C 93.812 207.710,94.153 209.368,96.347 209.525 C 97.657 209.619,98.308 209.452,98.947 208.857 C 99.416 208.421,100.340 208.005,101.000 207.932 C 101.990 207.823,102.223 207.596,102.333 206.637 C 102.504 205.137,104.433 203.200,105.755 203.200 C 106.362 203.200,106.944 202.878,107.200 202.400 C 107.438 201.954,108.038 201.600,108.552 201.600 C 109.060 201.600,109.787 201.256,110.167 200.836 C 110.548 200.416,111.311 199.958,111.864 199.820 C 112.896 199.561,113.442 199.199,114.938 197.784 C 116.660 196.155,121.829 195.420,127.800 195.956 L 132.200 196.350 133.061 195.276 C 133.693 194.489,133.822 194.016,133.548 193.503 C 133.037 192.547,133.339 182.009,133.907 180.961 C 134.808 179.302,134.126 179.200,122.169 179.200 C 110.926 179.200,110.896 179.198,110.292 178.300 L 109.687 177.400 108.718 178.300 C 107.057 179.842,104.820 179.556,103.248 177.600 C 102.266 176.378,101.680 176.000,100.768 176.000 C 100.112 176.000,98.995 175.761,98.287 175.469 C 97.149 175.000,96.850 175.027,95.700 175.706 M100.426 176.400 C 101.292 176.400,102.001 176.535,102.002 176.700 C 102.016 179.028,107.623 180.644,108.977 178.711 L 109.600 177.822 110.223 178.711 C 110.841 179.594,110.919 179.600,122.223 179.600 C 128.480 179.600,133.600 179.702,133.600 179.826 C 133.600 179.951,133.404 180.419,133.165 180.866 C 132.906 181.350,132.720 184.295,132.706 188.140 C 132.682 194.583,132.366 196.526,131.483 195.643 C 130.766 194.926,119.200 195.075,118.224 195.813 C 117.796 196.136,117.033 196.400,116.527 196.400 C 116.021 196.400,115.382 196.760,115.107 197.200 C 114.832 197.640,114.405 198.000,114.158 198.000 C 113.910 198.000,113.250 198.360,112.691 198.800 C 112.131 199.240,111.394 199.600,111.051 199.600 C 110.708 199.600,110.235 199.960,110.000 200.400 C 109.750 200.867,109.162 201.200,108.589 201.200 C 108.040 201.200,107.387 201.553,107.107 202.000 C 106.832 202.440,106.175 202.800,105.646 202.800 C 104.289 202.800,102.010 205.116,102.004 206.500 C 102.001 207.455,101.842 207.600,100.796 207.600 C 100.087 207.600,99.311 207.929,98.907 208.400 C 98.416 208.974,97.727 209.200,96.471 209.200 L 94.719 209.200 94.910 207.500 C 95.016 206.565,95.386 205.080,95.733 204.200 C 96.650 201.878,96.664 182.177,95.750 179.800 C 94.629 176.883,94.637 176.613,95.870 176.157 C 96.528 175.913,97.387 175.877,97.926 176.069 C 98.435 176.251,99.560 176.400,100.426 176.400 M186.418 177.905 C 185.692 178.492,185.613 178.783,185.943 179.650 C 186.701 181.645,189.200 181.186,189.200 179.051 C 189.200 177.278,187.870 176.729,186.418 177.905 M195.217 177.779 C 194.550 178.584,194.990 180.260,196.014 180.807 C 198.911 182.358,203.538 180.298,202.143 178.079 C 201.541 177.122,195.963 176.881,195.217 177.779 M188.702 178.631 C 188.847 179.717,188.197 180.561,187.440 180.271 C 186.685 179.981,186.578 178.155,187.300 177.867 C 188.107 177.544,188.593 177.809,188.702 178.631 M201.488 178.100 C 202.847 179.863,200.049 181.401,196.915 180.614 C 193.998 179.882,195.274 177.600,198.600 177.600 C 200.129 177.600,201.252 177.794,201.488 178.100 M124.814 183.174 C 123.578 185.484,124.639 187.743,126.860 187.527 C 129.480 187.273,129.046 182.400,126.404 182.400 C 125.651 182.400,125.079 182.678,124.814 183.174 M271.634 183.228 C 272.612 184.737,271.918 185.394,269.212 185.521 C 264.850 185.726,263.902 185.115,265.657 183.231 C 266.662 182.153,270.936 182.150,271.634 183.228 M127.578 183.774 C 128.644 185.057,127.934 187.000,126.400 187.000 C 125.107 187.000,124.990 186.899,124.873 185.674 C 124.730 184.191,125.343 183.200,126.400 183.200 C 126.786 183.200,127.316 183.458,127.578 183.774 M283.177 185.300 C 282.701 185.685,282.042 186.000,281.713 186.000 C 281.284 186.000,281.208 186.199,281.443 186.700 C 281.624 187.085,281.778 188.539,281.786 189.932 C 281.807 193.748,281.275 193.600,295.007 193.600 L 306.661 193.600 307.630 192.568 C 309.245 190.849,309.124 186.188,307.441 185.318 C 305.504 184.316,284.413 184.301,283.177 185.300 M307.200 185.784 C 308.141 186.022,308.200 186.193,308.200 188.700 C 308.200 193.329,308.579 193.200,294.991 193.200 L 283.618 193.200 283.020 192.287 C 282.535 191.547,282.507 191.095,282.871 189.909 C 283.244 188.695,283.208 188.272,282.664 187.442 C 281.456 185.597,282.762 185.391,295.190 185.466 C 301.246 185.503,306.650 185.646,307.200 185.784 M193.823 186.489 C 191.566 189.711,195.234 192.577,197.764 189.569 C 199.084 188.001,199.073 187.903,197.427 186.647 C 195.747 185.366,194.643 185.318,193.823 186.489 M310.571 186.132 C 310.454 186.436,310.413 187.835,310.479 189.242 L 310.600 191.800 316.800 191.800 L 323.000 191.800 323.000 188.800 L 323.000 185.800 316.891 185.690 C 311.988 185.601,310.741 185.688,310.571 186.132 M322.800 188.800 L 322.800 191.600 316.800 191.600 L 310.800 191.600 310.800 188.800 L 310.800 186.000 316.800 186.000 L 322.800 186.000 322.800 188.800 M197.014 187.046 C 198.250 187.856,198.256 188.420,197.042 189.561 C 195.596 190.919,193.839 190.600,193.678 188.950 C 193.464 186.747,195.118 185.803,197.014 187.046 M204.004 186.905 C 202.705 187.576,202.549 188.549,203.575 189.575 C 204.440 190.440,206.177 190.684,206.600 190.000 C 206.736 189.780,207.799 189.600,208.962 189.600 C 210.598 189.600,211.247 189.411,211.833 188.764 C 212.926 187.556,211.773 186.802,208.824 186.795 C 207.601 186.792,206.240 186.699,205.800 186.590 C 205.360 186.480,204.552 186.622,204.004 186.905 M106.176 187.400 C 104.644 188.584,106.373 189.200,111.227 189.200 C 115.923 189.200,117.475 188.575,115.808 187.357 C 114.702 186.547,107.236 186.581,106.176 187.400 M208.533 187.206 C 211.095 187.214,211.979 187.661,211.225 188.570 C 210.878 188.988,210.037 189.200,208.725 189.200 C 207.637 189.200,206.418 189.376,206.016 189.591 C 205.191 190.033,203.045 188.666,203.311 187.867 C 203.486 187.343,205.169 186.812,205.933 187.041 C 206.226 187.128,207.396 187.203,208.533 187.206 M246.081 187.302 C 243.870 189.967,245.303 190.800,252.097 190.800 C 258.573 190.800,259.204 190.542,258.258 188.278 L 257.641 186.800 252.069 186.800 C 248.087 186.800,246.379 186.943,246.081 187.302 M115.151 187.561 C 116.424 188.368,115.045 188.800,111.200 188.800 C 107.442 188.800,106.436 188.513,107.000 187.600 C 107.303 187.109,114.385 187.076,115.151 187.561 M140.818 188.249 C 141.305 189.527,140.722 190.400,139.384 190.400 C 137.226 190.400,136.724 189.657,137.823 188.089 C 138.707 186.827,140.310 186.912,140.818 188.249 M165.443 188.207 C 166.187 188.951,166.417 189.551,166.325 190.507 L 166.200 191.800 155.200 191.708 C 145.348 191.625,144.149 191.544,143.700 190.931 C 142.219 188.906,144.132 187.575,147.800 188.079 C 149.340 188.291,150.870 188.422,151.200 188.371 C 151.530 188.321,153.780 188.257,156.200 188.231 C 158.824 188.203,160.923 187.990,161.400 187.704 C 162.723 186.911,164.350 187.113,165.443 188.207 M257.776 188.524 C 258.355 190.171,257.703 190.387,252.133 190.394 C 246.616 190.401,246.000 190.265,246.000 189.037 C 246.000 187.358,246.659 187.171,252.182 187.289 L 257.382 187.400 257.776 188.524 M102.420 188.976 C 101.562 190.010,102.056 191.800,103.200 191.800 C 103.999 191.800,104.226 191.574,104.329 190.676 C 104.451 189.608,103.852 188.400,103.200 188.400 C 103.034 188.400,102.683 188.659,102.420 188.976 M103.778 189.564 C 104.052 190.008,103.634 191.200,103.204 191.200 C 102.816 191.200,102.407 189.726,102.710 189.423 C 103.043 189.090,103.524 189.153,103.778 189.564 M194.100 198.761 C 194.878 198.862,194.270 199.565,193.202 199.799 C 192.544 199.944,191.847 200.345,191.654 200.690 C 191.336 201.257,191.212 201.254,190.362 200.659 C 189.134 199.799,185.600 199.745,185.600 200.586 C 185.600 200.908,185.248 201.360,184.817 201.591 C 184.381 201.824,183.919 202.627,183.773 203.405 C 183.451 205.118,182.980 205.200,182.660 203.600 C 181.847 199.536,186.135 197.722,194.100 198.761 M291.200 200.800 C 291.200 201.020,290.930 201.200,290.600 201.200 C 290.270 201.200,290.000 201.020,290.000 200.800 C 290.000 200.580,290.270 200.400,290.600 200.400 C 290.930 200.400,291.200 200.580,291.200 200.800 M164.860 202.800 C 165.090 203.460,165.423 204.000,165.600 204.000 C 165.777 204.000,166.110 203.460,166.340 202.800 L 166.758 201.600 172.633 201.600 L 178.508 201.600 179.540 202.700 C 181.692 204.995,182.647 208.379,181.600 210.000 C 181.314 210.443,181.209 210.182,181.200 209.000 C 181.185 207.071,180.705 206.198,179.840 206.529 C 179.416 206.692,179.200 207.264,179.200 208.224 C 179.200 209.068,178.866 210.099,178.400 210.691 C 177.960 211.250,177.600 212.270,177.600 212.958 C 177.600 213.774,177.323 214.381,176.800 214.707 C 176.194 215.085,176.000 215.640,176.000 216.989 C 176.000 218.362,175.816 218.870,175.200 219.200 C 174.664 219.487,174.400 220.038,174.400 220.867 C 174.400 225.316,166.620 229.800,164.800 226.400 C 164.456 225.758,163.961 225.599,162.286 225.597 C 160.877 225.596,159.810 225.337,159.000 224.800 C 158.340 224.363,157.309 224.004,156.709 224.003 C 155.174 223.999,154.110 222.354,154.743 220.965 C 154.994 220.413,155.200 219.647,155.200 219.262 C 155.200 218.876,155.920 217.812,156.800 216.896 C 158.138 215.504,158.400 214.961,158.400 213.585 C 158.400 211.622,160.098 209.600,161.746 209.600 C 163.155 209.600,163.433 208.899,162.442 207.845 C 161.480 206.821,161.235 202.925,162.080 202.080 C 163.010 201.150,164.411 201.513,164.860 202.800 M295.600 203.200 C 295.600 204.267,295.467 204.400,294.400 204.400 C 293.229 204.400,292.652 203.081,293.467 202.267 C 294.281 201.452,295.600 202.029,295.600 203.200 M155.811 203.618 C 155.953 203.847,155.894 204.252,155.681 204.518 C 155.467 204.783,155.163 205.604,155.005 206.342 C 154.333 209.481,153.227 211.195,151.275 212.122 C 149.260 213.079,146.800 216.620,146.800 218.564 C 146.800 219.372,145.511 220.313,144.200 220.463 C 142.643 220.641,142.194 218.700,143.569 217.736 C 144.216 217.284,144.400 216.725,144.400 215.220 C 144.400 213.888,144.583 213.215,144.987 213.060 C 145.310 212.936,145.847 212.242,146.179 211.517 C 147.060 209.598,147.624 208.827,149.300 207.247 C 150.125 206.469,150.800 205.657,150.800 205.442 C 150.800 203.856,155.011 202.323,155.811 203.618 M236.713 204.279 C 237.966 204.851,239.929 204.982,249.206 205.111 L 260.211 205.264 260.668 206.232 C 261.207 207.373,261.267 207.326,258.182 208.186 C 255.256 209.001,238.497 208.894,227.700 207.992 L 221.200 207.448 221.200 205.524 L 221.200 203.600 228.213 203.600 C 233.958 203.600,235.494 203.723,236.713 204.279 M217.303 204.575 C 216.809 204.848,216.075 205.370,215.671 205.736 C 215.267 206.101,214.456 206.400,213.869 206.400 C 213.067 206.400,212.800 206.600,212.800 207.200 C 212.800 207.640,212.545 208.000,212.233 208.000 C 211.921 208.000,210.938 208.675,210.049 209.500 C 209.160 210.325,208.020 211.294,207.516 211.653 C 206.621 212.291,206.595 212.504,206.400 220.988 C 206.170 230.980,205.987 230.488,209.864 230.319 L 212.600 230.200 212.800 219.200 L 213.000 208.200 215.868 208.000 C 219.288 207.762,219.207 207.822,218.922 205.692 C 218.676 203.861,218.639 203.836,217.303 204.575 M218.161 206.065 C 218.494 206.541,218.674 207.081,218.560 207.265 C 218.263 207.745,213.200 207.683,213.200 207.200 C 213.200 206.980,213.738 206.800,214.397 206.800 C 215.160 206.800,215.774 206.510,216.093 206.000 C 216.739 204.965,217.405 204.986,218.161 206.065 M180.400 208.200 C 180.400 208.970,180.220 209.600,180.000 209.600 C 179.780 209.600,179.600 208.970,179.600 208.200 C 179.600 207.430,179.780 206.800,180.000 206.800 C 180.220 206.800,180.400 207.430,180.400 208.200 M212.400 219.200 L 212.400 230.000 209.700 230.000 L 207.000 230.000 206.912 221.573 C 206.827 213.323,206.844 213.129,207.712 212.343 C 208.201 211.901,209.320 210.854,210.200 210.016 C 211.080 209.179,211.935 208.472,212.100 208.447 C 212.265 208.421,212.400 213.260,212.400 219.200 M180.600 212.833 C 180.600 213.781,180.416 214.200,180.000 214.200 C 179.360 214.200,178.985 212.738,179.369 211.738 C 179.774 210.680,180.600 211.415,180.600 212.833 M178.800 212.800 C 178.800 213.460,178.620 214.000,178.400 214.000 C 178.180 214.000,178.000 213.460,178.000 212.800 C 178.000 212.140,178.180 211.600,178.400 211.600 C 178.620 211.600,178.800 212.140,178.800 212.800 M201.800 215.493 C 200.920 216.102,200.056 216.825,199.880 217.100 C 199.704 217.375,199.308 217.600,199.000 217.600 C 198.692 217.600,198.296 217.826,198.120 218.101 C 197.944 218.377,196.990 219.142,196.000 219.801 C 192.129 222.380,191.214 223.965,192.781 225.382 C 193.320 225.871,193.598 226.724,193.681 228.144 L 193.800 230.200 196.999 230.319 C 201.725 230.494,202.034 230.361,201.749 228.279 C 201.490 226.390,201.907 225.773,203.600 225.538 L 204.600 225.400 204.600 220.005 C 204.600 213.850,204.472 213.643,201.800 215.493 M204.400 220.000 L 204.400 225.200 203.249 225.200 C 201.686 225.200,201.112 226.032,201.261 228.080 L 201.386 229.800 197.693 229.915 L 194.000 230.030 194.000 227.829 C 194.000 226.038,193.851 225.549,193.200 225.200 C 191.897 224.502,193.132 221.200,194.697 221.200 C 195.022 221.200,197.896 219.245,198.987 218.281 C 199.434 217.886,200.070 217.324,200.400 217.032 C 200.730 216.740,201.389 216.382,201.864 216.235 C 202.339 216.089,202.946 215.706,203.213 215.385 C 204.208 214.185,204.400 214.929,204.400 220.000 M177.200 217.000 C 177.200 217.990,177.020 218.800,176.800 218.800 C 176.580 218.800,176.400 217.990,176.400 217.000 C 176.400 216.010,176.580 215.200,176.800 215.200 C 177.020 215.200,177.200 216.010,177.200 217.000 M175.630 220.110 C 175.614 220.270,175.600 221.120,175.600 222.000 C 175.600 222.880,175.420 223.600,175.200 223.600 C 174.980 223.600,174.800 222.685,174.800 221.567 C 174.800 220.294,174.961 219.587,175.230 219.677 C 175.466 219.755,175.647 219.950,175.630 220.110 M144.400 223.247 C 144.400 223.441,143.680 223.600,142.800 223.600 C 141.100 223.600,140.587 222.951,142.100 222.715 C 143.263 222.534,144.400 222.796,144.400 223.247 M188.154 225.593 C 187.688 225.781,186.620 226.773,185.780 227.798 C 183.928 230.058,184.249 230.456,187.800 230.303 L 190.200 230.200 190.328 228.638 C 190.578 225.576,190.045 224.829,188.154 225.593 M190.000 228.024 L 190.000 230.000 187.867 230.000 C 186.693 230.000,185.620 229.886,185.481 229.747 C 184.901 229.167,187.375 226.199,188.686 225.902 C 189.825 225.645,190.000 225.927,190.000 228.024 " stroke="none" fill="#747474" fill-rule="evenodd"></path><path id="path3" d="M167.218 171.975 C 165.798 173.501,164.484 175.162,164.298 175.664 C 163.624 177.487,160.180 177.885,158.526 176.330 L 157.600 175.461 156.674 176.330 C 156.165 176.809,155.383 177.200,154.936 177.200 C 154.489 177.200,153.798 177.560,153.400 178.000 C 152.720 178.751,152.168 178.800,144.387 178.800 C 137.358 178.800,136.019 178.895,135.579 179.425 C 135.108 179.992,135.027 179.992,134.710 179.425 C 134.405 178.881,132.867 178.800,122.794 178.800 C 111.638 178.800,111.213 178.772,110.800 178.000 C 110.304 177.073,109.105 176.951,108.435 177.758 C 107.252 179.183,105.206 178.952,103.729 177.226 C 102.681 176.001,102.044 175.600,101.148 175.600 C 100.494 175.600,99.239 175.195,98.359 174.700 L 96.759 173.800 96.079 174.619 C 95.706 175.070,95.085 175.560,94.700 175.707 C 93.749 176.071,93.785 178.249,94.800 181.800 C 96.002 186.003,95.990 199.988,94.782 202.639 C 94.161 204.003,93.993 205.080,94.082 207.117 L 94.200 209.800 96.676 209.918 C 98.805 210.020,99.212 209.926,99.577 209.244 C 99.837 208.758,100.505 208.402,101.301 208.325 C 102.403 208.219,102.620 208.023,102.733 207.037 C 102.904 205.537,104.833 203.600,106.155 203.600 C 106.762 203.600,107.344 203.278,107.600 202.800 C 107.879 202.279,108.438 202.000,109.200 202.000 C 109.962 202.000,110.521 201.721,110.800 201.200 C 111.050 200.733,111.638 200.400,112.211 200.400 C 112.760 200.400,113.413 200.047,113.693 199.600 C 113.968 199.160,114.397 198.800,114.647 198.800 C 114.898 198.800,115.371 198.395,115.700 197.900 C 116.284 197.020,116.480 196.998,124.353 196.930 L 132.408 196.860 133.538 195.794 L 134.667 194.728 134.511 188.864 C 134.351 182.857,134.553 180.400,135.207 180.400 C 135.422 180.400,135.567 183.672,135.553 188.216 C 135.522 198.008,134.882 197.200,142.670 197.200 C 148.803 197.200,148.852 197.207,150.221 198.300 C 151.900 199.640,152.212 202.226,150.800 203.107 C 150.360 203.382,150.000 203.966,150.000 204.406 C 150.000 204.845,148.920 206.312,147.600 207.665 C 146.070 209.233,145.200 210.460,145.200 211.048 C 145.200 211.562,144.845 212.162,144.400 212.400 C 143.766 212.739,143.600 213.238,143.600 214.800 C 143.600 216.385,143.437 216.859,142.772 217.215 C 142.075 217.588,141.961 217.981,142.052 219.691 C 142.147 221.488,142.054 221.762,141.252 222.059 C 139.249 222.800,140.315 224.185,142.994 224.323 C 144.351 224.392,145.662 224.694,146.021 225.019 C 146.370 225.335,147.598 225.772,148.750 225.991 C 149.902 226.209,151.118 226.661,151.451 226.994 C 151.837 227.380,152.812 227.600,154.132 227.600 C 155.774 227.600,156.312 227.767,156.707 228.400 C 157.123 229.066,157.640 229.200,159.789 229.200 C 161.962 229.200,162.440 229.327,162.800 230.000 C 163.141 230.636,163.638 230.800,165.230 230.800 C 166.638 230.800,167.570 231.050,168.371 231.642 C 169.260 232.299,169.952 232.452,171.536 232.342 C 173.322 232.217,173.612 232.307,173.973 233.100 C 174.575 234.423,175.621 234.196,177.200 232.400 C 178.045 231.439,178.956 230.806,179.497 230.804 C 179.990 230.802,180.618 230.440,180.893 230.000 C 181.168 229.560,181.613 229.200,181.882 229.200 C 182.151 229.200,182.552 228.862,182.773 228.450 C 183.279 227.505,184.800 227.045,184.800 227.837 C 184.800 228.147,184.639 228.400,184.443 228.400 C 183.828 228.400,183.564 229.674,184.055 230.266 C 184.401 230.683,185.321 230.801,187.562 230.716 L 190.600 230.600 190.721 228.027 C 190.819 225.952,190.687 225.243,190.040 224.368 L 189.237 223.283 190.798 222.201 C 191.657 221.606,192.593 221.216,192.879 221.333 C 193.214 221.470,193.078 221.644,192.500 221.820 C 191.300 222.185,191.223 224.735,192.381 225.782 C 192.920 226.271,193.198 227.124,193.281 228.544 L 193.400 230.600 197.606 230.713 C 202.501 230.844,203.975 230.320,202.695 228.905 C 201.427 227.504,201.994 226.216,204.000 225.938 L 205.000 225.800 205.000 220.000 L 205.000 214.200 203.600 213.969 C 202.200 213.739,202.200 213.739,203.216 213.311 C 203.775 213.076,204.473 212.595,204.765 212.242 C 205.058 211.889,205.456 211.600,205.649 211.600 C 206.102 211.600,206.075 225.633,205.617 228.000 C 205.113 230.612,205.461 230.851,209.561 230.715 L 213.000 230.600 213.200 219.885 C 213.427 207.745,213.215 208.416,216.820 208.406 C 218.041 208.403,219.236 208.204,219.475 207.965 C 219.788 207.652,219.985 207.652,220.178 207.965 C 220.326 208.204,221.038 208.400,221.760 208.400 C 222.482 208.400,223.956 208.696,225.036 209.059 C 228.487 210.217,257.455 210.365,259.621 209.236 C 261.003 208.515,261.930 208.400,266.332 208.400 L 271.439 208.400 273.081 206.822 C 274.649 205.315,274.792 205.262,276.214 205.655 C 277.033 205.881,278.061 205.973,278.498 205.859 C 278.935 205.744,279.621 205.856,280.024 206.108 C 280.608 206.473,280.919 206.416,281.573 205.824 C 282.484 205.000,288.073 205.113,288.933 205.973 C 290.699 207.739,296.400 205.502,296.400 203.043 C 296.400 200.232,291.821 198.538,288.200 200.010 C 285.372 201.160,274.709 201.405,273.748 200.342 C 273.378 199.934,272.823 199.600,272.514 199.600 C 272.206 199.600,272.064 199.420,272.200 199.200 C 272.336 198.980,272.765 198.800,273.152 198.800 C 274.509 198.800,277.000 196.551,277.000 195.326 C 277.000 194.314,277.151 194.187,278.499 194.076 C 279.478 193.995,280.140 193.686,280.408 193.185 C 280.811 192.432,280.832 192.432,281.609 193.209 C 282.363 193.963,282.981 194.000,294.711 194.000 L 307.022 194.000 308.352 192.785 C 309.340 191.883,309.814 191.680,310.195 191.995 C 310.522 192.267,312.997 192.381,317.054 192.310 L 323.400 192.200 323.400 188.800 L 323.400 185.400 316.800 185.400 L 310.200 185.400 310.081 187.900 C 309.928 191.103,309.200 191.175,309.200 187.987 C 309.200 186.057,309.060 185.522,308.500 185.312 C 308.115 185.168,307.602 184.786,307.360 184.463 C 306.728 183.620,283.638 183.664,283.010 184.510 C 282.205 185.593,280.790 185.625,280.388 184.568 C 280.066 183.722,279.767 183.600,278.024 183.600 C 276.438 183.600,275.940 183.436,275.600 182.800 C 275.325 182.286,274.762 182.000,274.025 182.000 C 272.061 182.000,270.043 176.453,271.234 174.324 C 271.839 173.243,270.560 170.721,269.484 170.874 C 268.813 170.970,268.570 171.312,268.475 172.290 C 268.387 173.209,267.898 173.967,266.775 174.928 C 265.909 175.670,265.200 176.453,265.200 176.669 C 265.200 178.012,263.328 178.800,260.136 178.800 C 257.398 178.800,256.814 178.922,256.176 179.626 C 255.135 180.776,243.410 180.670,242.242 179.500 C 241.726 178.984,240.892 178.800,239.060 178.800 C 237.431 178.800,236.264 178.580,235.663 178.159 C 234.230 177.155,222.773 177.098,221.273 178.087 C 220.471 178.616,219.392 178.794,217.000 178.793 L 213.800 178.792 212.400 177.200 C 211.448 176.117,210.668 175.607,209.962 175.604 C 209.391 175.602,208.598 175.240,208.200 174.800 C 207.802 174.360,207.004 174.000,206.427 174.000 C 205.850 174.000,205.070 173.640,204.693 173.200 C 204.303 172.744,203.513 172.400,202.858 172.400 C 202.225 172.400,201.250 172.040,200.691 171.600 C 200.131 171.160,199.214 170.800,198.651 170.800 C 198.038 170.800,197.457 170.480,197.200 170.000 C 196.789 169.231,196.362 169.200,186.256 169.200 L 175.739 169.200 174.800 170.200 C 173.640 171.434,173.292 171.455,173.128 170.300 C 172.816 168.106,170.100 168.876,167.218 171.975 M172.661 170.215 C 172.811 170.606,172.298 171.417,171.248 172.446 C 169.633 174.029,169.077 175.600,170.133 175.600 C 170.425 175.600,171.878 174.250,173.361 172.600 L 176.056 169.600 186.166 169.600 C 195.768 169.600,196.312 169.640,197.000 170.400 C 197.404 170.847,198.232 171.200,198.875 171.200 C 199.519 171.200,200.125 171.459,200.251 171.789 C 200.376 172.113,201.135 172.490,201.939 172.627 C 202.742 172.763,203.888 173.218,204.484 173.637 C 205.080 174.057,205.985 174.400,206.495 174.400 C 207.005 174.400,207.730 174.760,208.107 175.200 C 208.484 175.640,209.223 176.000,209.750 176.000 C 210.365 176.000,211.244 176.595,212.212 177.666 L 213.718 179.332 217.103 179.253 C 218.966 179.210,220.964 178.938,221.545 178.648 C 223.090 177.878,234.045 177.862,235.513 178.628 C 236.111 178.940,237.716 179.196,239.080 179.198 C 241.025 179.199,241.645 179.351,241.952 179.900 C 242.610 181.079,254.674 181.191,256.543 180.035 C 257.584 179.392,258.552 179.200,260.762 179.200 C 263.311 179.200,263.727 179.090,264.514 178.206 C 265.001 177.659,266.165 176.415,267.100 175.442 C 268.186 174.311,268.800 173.306,268.800 172.659 C 268.800 171.337,269.579 170.883,270.257 171.811 C 270.815 172.574,270.793 178.641,270.229 179.554 C 270.067 179.815,270.356 180.155,270.921 180.370 C 271.454 180.573,271.988 181.112,272.108 181.569 C 272.269 182.184,272.646 182.400,273.559 182.400 C 274.360 182.400,274.969 182.681,275.293 183.200 C 275.679 183.819,276.226 184.000,277.705 184.000 C 279.369 184.000,279.678 184.133,280.084 185.024 C 280.577 186.106,281.885 186.125,283.159 185.068 C 284.321 184.103,306.470 184.370,307.697 185.364 C 309.259 186.629,309.441 191.015,307.994 192.539 L 307.000 193.586 295.000 193.587 C 288.400 193.587,282.802 193.456,282.560 193.294 C 281.743 192.749,281.295 191.408,281.493 190.105 C 281.735 188.506,281.292 186.548,280.798 187.042 C 280.602 187.239,280.387 188.641,280.320 190.158 C 280.188 193.186,280.027 193.392,277.473 193.802 C 276.050 194.030,275.963 194.121,276.191 195.157 C 276.667 197.328,273.962 198.600,268.866 198.600 C 265.864 198.600,264.621 198.742,264.501 199.100 C 264.300 199.699,264.405 199.714,269.075 199.762 C 272.357 199.796,272.841 199.897,273.601 200.711 C 274.669 201.854,286.517 201.781,288.767 200.617 C 292.369 198.754,298.385 202.467,295.355 204.682 C 293.838 205.792,292.857 205.351,292.723 203.500 C 292.554 201.158,289.711 200.839,288.986 203.081 C 288.758 203.785,288.454 204.480,288.309 204.624 C 287.900 205.033,276.404 205.351,275.193 204.988 C 274.851 204.885,273.859 205.512,272.917 206.426 L 271.247 208.047 266.123 207.948 C 261.687 207.863,260.812 207.954,259.600 208.625 C 256.111 210.556,220.533 209.152,220.633 207.087 C 220.652 206.709,220.697 205.680,220.733 204.800 L 220.800 203.200 228.729 203.200 C 234.486 203.200,237.143 203.356,238.429 203.769 C 239.683 204.171,243.119 204.394,250.192 204.531 C 259.782 204.716,260.207 204.758,260.741 205.562 C 261.302 206.406,262.963 206.708,263.375 206.040 C 263.724 205.475,261.514 203.200,260.611 203.196 C 260.165 203.193,258.900 202.906,257.800 202.557 C 254.687 201.569,222.554 200.893,220.839 201.780 C 220.180 202.121,219.365 202.400,219.030 202.400 C 218.394 202.400,218.455 203.679,219.205 206.075 C 219.659 207.527,219.130 207.869,216.108 208.078 C 212.790 208.307,213.026 207.492,212.800 219.533 L 212.600 230.200 209.400 230.200 L 206.200 230.200 206.225 229.100 C 206.239 228.495,206.284 224.490,206.325 220.200 C 206.408 211.564,206.223 212.186,209.349 210.000 C 210.135 209.450,210.783 208.788,210.789 208.528 C 210.795 208.268,211.205 207.998,211.700 207.928 C 212.195 207.858,212.600 207.545,212.600 207.233 C 212.600 206.314,211.694 206.282,210.930 207.173 C 210.541 207.628,210.025 208.000,209.784 208.000 C 209.543 208.000,208.638 208.640,207.773 209.422 C 206.908 210.204,205.660 211.077,205.000 211.363 C 204.340 211.648,203.234 212.404,202.541 213.041 C 201.235 214.244,200.686 214.652,198.500 216.049 C 197.785 216.505,197.200 217.041,197.200 217.240 C 197.200 217.438,196.932 217.600,196.603 217.600 C 196.275 217.600,195.782 217.960,195.507 218.400 C 195.232 218.840,194.809 219.200,194.566 219.200 C 194.323 219.200,193.798 219.560,193.400 220.000 C 193.002 220.440,192.460 220.800,192.196 220.800 C 191.933 220.800,191.231 221.250,190.638 221.800 C 190.044 222.350,189.388 222.800,189.179 222.800 C 188.971 222.800,188.800 223.050,188.800 223.357 C 188.800 223.663,188.305 224.037,187.700 224.189 C 187.095 224.341,186.294 224.765,185.919 225.132 C 183.938 227.075,179.601 230.400,179.048 230.400 C 178.797 230.400,177.810 231.159,176.854 232.087 C 175.195 233.697,175.091 233.739,174.558 233.010 C 173.676 231.804,173.828 229.338,174.800 229.084 C 175.391 228.929,175.600 228.538,175.600 227.585 C 175.600 226.875,175.941 225.733,176.358 225.047 C 177.275 223.538,177.823 220.585,177.253 220.233 C 176.589 219.822,176.080 221.228,176.300 222.866 C 176.482 224.229,176.410 224.400,175.653 224.400 C 175.038 224.400,174.797 224.651,174.790 225.300 C 174.732 230.294,171.763 233.155,168.640 231.225 C 167.812 230.713,166.625 230.400,165.515 230.400 C 164.232 230.400,163.519 230.173,163.000 229.600 C 162.452 228.995,161.768 228.800,160.192 228.800 C 158.714 228.800,157.812 228.568,157.091 228.000 C 156.374 227.436,155.468 227.200,154.024 227.200 C 152.635 227.200,151.906 227.019,151.760 226.639 C 151.641 226.331,150.888 225.956,150.086 225.805 C 149.284 225.655,148.081 225.232,147.414 224.866 C 146.746 224.500,145.044 224.110,143.631 224.000 C 140.722 223.773,139.998 223.033,141.960 222.293 C 143.242 221.809,143.490 221.427,142.800 221.000 C 142.086 220.559,142.352 218.168,143.200 217.400 C 143.758 216.895,144.000 216.168,144.000 215.000 C 144.000 213.832,144.242 213.105,144.800 212.600 C 145.240 212.202,145.600 211.586,145.600 211.232 C 145.600 210.878,146.680 209.392,148.000 207.930 C 149.320 206.467,150.400 205.066,150.400 204.816 C 150.400 204.566,150.838 203.956,151.373 203.460 C 152.794 202.143,152.409 199.642,150.533 197.995 C 149.186 196.812,149.122 196.799,144.086 196.735 C 141.289 196.699,138.370 196.654,137.600 196.635 L 136.200 196.600 136.000 188.279 C 135.880 183.270,135.951 179.807,136.180 179.579 C 136.394 179.365,140.081 179.200,144.626 179.200 C 152.086 179.200,152.768 179.140,153.709 178.400 C 154.269 177.960,154.973 177.600,155.274 177.600 C 155.575 177.600,156.222 177.320,156.711 176.977 C 157.516 176.414,157.684 176.414,158.489 176.977 C 160.307 178.251,164.276 177.656,164.661 176.052 C 165.385 173.038,171.916 168.273,172.661 170.215 M172.400 173.237 C 172.400 173.478,172.040 173.769,171.600 173.884 C 171.160 173.999,170.800 174.342,170.800 174.647 C 170.800 174.951,170.620 175.200,170.400 175.200 C 169.733 175.200,169.950 174.478,170.875 173.616 C 171.847 172.711,172.400 172.574,172.400 173.237 M175.700 174.667 C 174.827 175.016,175.161 175.600,176.233 175.600 C 176.853 175.600,177.203 175.410,177.108 175.125 C 176.921 174.562,176.392 174.390,175.700 174.667 M98.538 175.400 C 99.328 175.730,100.458 176.000,101.049 176.000 C 101.810 176.000,102.529 176.474,103.515 177.626 C 104.985 179.344,107.667 179.626,108.520 178.153 C 108.971 177.373,109.755 177.466,110.600 178.400 C 111.292 179.164,111.832 179.200,122.675 179.200 C 134.806 179.200,135.048 179.241,134.030 181.145 C 133.442 182.242,133.167 191.027,133.660 192.948 C 134.184 194.994,132.582 197.001,130.926 196.372 C 127.295 194.992,116.985 196.297,114.344 198.472 C 113.324 199.312,112.197 200.000,111.841 200.000 C 111.484 200.000,110.884 200.360,110.507 200.800 C 110.130 201.240,109.440 201.600,108.973 201.600 C 108.506 201.600,107.798 201.960,107.400 202.400 C 107.002 202.840,106.289 203.200,105.816 203.200 C 104.723 203.200,102.508 205.489,102.333 206.800 C 102.238 207.517,101.917 207.838,101.200 207.935 C 100.650 208.009,99.817 208.425,99.349 208.859 C 98.693 209.467,98.051 209.619,96.549 209.524 L 94.600 209.400 94.475 207.421 C 94.393 206.133,94.603 204.880,95.075 203.832 C 96.125 201.499,96.129 182.751,95.080 180.050 C 93.642 176.348,95.341 174.064,98.538 175.400 M196.046 177.963 C 193.835 179.363,198.150 181.638,200.967 180.557 C 203.170 179.712,201.378 177.597,198.467 177.606 C 197.440 177.609,196.351 177.770,196.046 177.963 M187.019 178.370 C 186.673 178.929,187.588 180.576,188.004 180.143 C 188.650 179.470,188.610 178.231,187.937 178.092 C 187.573 178.017,187.159 178.142,187.019 178.370 M201.000 179.200 C 201.000 180.579,197.782 180.907,196.640 179.644 C 195.542 178.431,196.191 177.948,198.735 178.081 C 200.853 178.192,201.000 178.265,201.000 179.200 M267.732 182.721 C 265.632 182.874,264.235 184.469,265.574 185.186 C 266.673 185.774,271.012 185.711,271.505 185.100 C 272.695 183.623,270.900 182.491,267.732 182.721 M271.199 183.997 C 271.743 185.015,271.344 185.200,268.600 185.200 C 265.841 185.200,265.456 185.017,266.015 183.971 C 266.693 182.706,270.518 182.725,271.199 183.997 M124.949 184.662 C 124.607 186.022,125.205 186.967,126.506 187.123 C 127.680 187.264,128.235 186.193,127.828 184.571 C 127.462 183.112,125.321 183.179,124.949 184.662 M127.400 185.400 C 127.400 186.412,127.244 186.600,126.405 186.600 C 125.373 186.600,124.920 185.707,125.364 184.549 C 125.808 183.392,127.400 184.058,127.400 185.400 M323.000 188.800 L 323.000 191.800 316.700 191.910 C 311.821 191.995,310.389 191.905,310.352 191.510 C 310.251 190.426,310.491 186.184,310.671 185.890 C 310.775 185.719,313.591 185.629,316.930 185.690 L 323.000 185.800 323.000 188.800 M194.742 186.952 C 193.047 187.794,193.445 190.400,195.268 190.400 C 195.962 190.400,198.004 188.636,197.997 188.042 C 197.990 187.290,195.642 186.505,194.742 186.952 M107.081 187.688 C 106.085 188.334,107.701 188.690,111.310 188.620 C 113.709 188.574,115.004 188.388,115.108 188.075 C 115.293 187.520,115.558 187.561,111.081 187.458 C 109.145 187.413,107.345 187.517,107.081 187.688 M138.300 187.632 C 137.443 188.131,137.375 189.939,138.201 190.256 C 139.358 190.700,140.800 190.043,140.800 189.072 C 140.800 187.466,139.687 186.824,138.300 187.632 M162.400 187.484 C 162.070 187.605,161.414 188.174,160.942 188.748 C 160.133 189.730,160.001 189.761,158.672 189.281 C 157.856 188.985,155.521 188.778,153.131 188.788 C 148.160 188.810,146.564 188.698,146.167 188.300 C 145.037 187.170,143.151 189.213,143.948 190.702 C 144.429 191.602,164.796 192.328,165.900 191.484 C 167.715 190.098,164.691 186.641,162.400 187.484 M196.426 187.614 C 197.494 188.186,196.341 190.106,195.041 189.920 C 193.917 189.760,193.618 187.755,194.677 187.480 C 195.075 187.377,195.457 187.272,195.526 187.246 C 195.596 187.221,196.001 187.386,196.426 187.614 M203.740 187.811 C 203.417 188.655,204.087 189.288,205.260 189.246 C 211.552 189.018,213.307 187.476,207.493 187.284 C 204.572 187.188,203.946 187.276,203.740 187.811 M246.873 187.575 C 246.236 188.007,245.990 189.306,246.442 189.851 C 247.065 190.602,256.998 190.646,257.466 189.900 C 257.875 189.249,257.643 187.883,257.059 187.496 C 256.543 187.154,247.389 187.225,246.873 187.575 M109.200 188.000 C 109.200 188.220,108.840 188.400,108.400 188.400 C 107.960 188.400,107.600 188.220,107.600 188.000 C 107.600 187.780,107.960 187.600,108.400 187.600 C 108.840 187.600,109.200 187.780,109.200 188.000 M114.400 188.000 C 114.400 188.220,114.130 188.400,113.800 188.400 C 113.470 188.400,113.200 188.220,113.200 188.000 C 113.200 187.780,113.470 187.600,113.800 187.600 C 114.130 187.600,114.400 187.780,114.400 188.000 M140.200 188.805 C 140.200 189.593,139.971 189.826,139.100 189.927 C 137.892 190.066,137.548 189.012,138.492 188.068 C 139.264 187.296,140.200 187.699,140.200 188.805 M165.130 188.594 C 166.731 190.283,166.202 191.400,163.800 191.400 L 161.800 191.400 161.850 189.855 C 161.926 187.475,163.496 186.872,165.130 188.594 M210.800 187.966 C 210.800 188.344,205.938 188.741,204.700 188.463 C 202.896 188.059,204.333 187.600,207.400 187.600 C 209.270 187.600,210.800 187.765,210.800 187.966 M257.127 188.900 L 257.253 190.000 252.027 190.000 C 246.818 190.000,246.800 189.997,246.800 189.067 C 246.800 187.712,246.764 187.721,252.104 187.762 L 257.000 187.800 257.127 188.900 M145.697 190.194 C 145.828 190.879,145.711 191.200,145.332 191.200 C 144.648 191.200,144.230 190.219,144.554 189.375 C 144.876 188.536,145.460 188.955,145.697 190.194 M102.800 190.200 C 102.800 190.750,102.980 191.200,103.200 191.200 C 103.420 191.200,103.600 190.750,103.600 190.200 C 103.600 189.650,103.420 189.200,103.200 189.200 C 102.980 189.200,102.800 189.650,102.800 190.200 M184.072 199.936 C 182.799 201.072,182.149 204.400,183.200 204.400 C 183.420 204.400,183.600 203.944,183.600 203.387 C 183.600 200.686,189.300 198.297,190.626 200.442 C 190.751 200.645,191.238 200.538,191.715 200.204 C 192.190 199.872,192.898 199.600,193.289 199.600 C 193.680 199.600,194.000 199.420,194.000 199.200 C 194.000 198.110,185.403 198.747,184.072 199.936 M267.600 199.200 C 267.600 199.420,267.060 199.600,266.400 199.600 C 265.740 199.600,265.200 199.420,265.200 199.200 C 265.200 198.980,265.740 198.800,266.400 198.800 C 267.060 198.800,267.600 198.980,267.600 199.200 M156.882 201.949 C 156.498 202.187,156.513 202.595,156.952 203.826 C 157.509 205.387,157.685 205.309,158.123 203.315 C 158.345 202.303,157.613 201.498,156.882 201.949 M162.741 201.870 C 161.382 202.226,161.171 206.147,162.426 207.742 C 163.366 208.938,163.163 209.600,161.855 209.600 C 160.342 209.600,158.400 211.970,158.398 213.819 C 158.397 215.074,158.101 215.721,156.965 216.959 C 154.161 220.012,154.152 223.997,156.949 224.003 C 157.637 224.004,158.740 224.363,159.400 224.800 C 160.158 225.302,161.277 225.596,162.438 225.597 C 163.766 225.599,164.477 225.822,165.000 226.400 C 167.665 229.345,174.400 225.180,174.400 220.588 C 174.400 220.038,174.741 219.446,175.200 219.200 C 175.834 218.861,176.000 218.362,176.000 216.800 C 176.000 215.238,176.166 214.739,176.800 214.400 C 177.354 214.103,177.600 213.562,177.600 212.640 C 177.600 211.907,177.946 210.868,178.369 210.330 C 178.792 209.793,179.197 208.733,179.269 207.976 C 179.439 206.192,181.200 205.641,181.200 207.372 C 181.200 207.937,181.380 208.400,181.600 208.400 C 182.735 208.400,181.127 204.446,179.267 202.664 L 178.132 201.577 172.566 201.688 L 167.000 201.800 166.428 203.100 C 165.715 204.720,165.489 204.723,164.772 203.124 C 164.175 201.791,163.838 201.583,162.741 201.870 M164.607 204.029 C 165.172 206.349,166.031 206.336,166.599 204.000 L 167.037 202.200 172.538 202.089 L 178.039 201.977 179.219 203.158 C 180.590 204.528,180.755 205.814,179.600 206.116 C 179.011 206.270,178.800 206.662,178.800 207.599 C 178.800 208.300,178.440 209.331,178.000 209.891 C 177.560 210.450,177.200 211.507,177.200 212.240 C 177.200 213.162,176.954 213.703,176.400 214.000 C 175.766 214.339,175.600 214.838,175.600 216.400 C 175.600 217.962,175.434 218.461,174.800 218.800 C 174.245 219.097,174.000 219.638,174.000 220.565 C 174.000 221.300,173.737 222.120,173.415 222.387 C 173.094 222.654,172.710 223.254,172.562 223.721 C 171.677 226.507,166.353 228.155,165.200 226.000 C 164.859 225.362,164.362 225.200,162.749 225.200 C 161.332 225.200,160.422 224.960,159.709 224.400 C 159.146 223.957,158.086 223.600,157.336 223.600 C 154.482 223.600,155.263 217.383,158.261 216.232 C 158.605 216.100,158.800 215.359,158.800 214.182 C 158.800 212.008,160.300 210.154,162.237 209.933 C 163.690 209.767,163.988 208.475,162.818 207.416 C 161.305 206.047,162.081 201.560,163.734 202.111 C 163.977 202.192,164.370 203.055,164.607 204.029 M254.086 202.574 C 255.029 202.889,257.120 203.274,258.734 203.429 C 261.292 203.674,261.722 203.831,262.099 204.657 C 262.678 205.929,262.113 206.398,261.273 205.343 C 260.443 204.300,255.748 203.820,247.800 203.964 C 244.085 204.032,241.919 203.879,240.216 203.429 C 238.404 202.951,235.784 202.800,229.292 202.800 C 223.701 202.800,220.838 202.662,221.000 202.400 C 221.425 201.713,251.994 201.873,254.086 202.574 M292.400 203.176 C 292.400 204.571,291.907 204.964,290.577 204.630 C 288.738 204.168,289.306 202.000,291.267 202.000 C 292.254 202.000,292.400 202.151,292.400 203.176 M215.650 203.482 C 215.347 203.602,214.785 204.015,214.400 204.400 C 214.015 204.785,213.453 205.190,213.150 205.300 C 212.745 205.447,212.717 205.625,213.042 205.972 C 213.522 206.484,215.600 206.155,215.600 205.567 C 215.600 205.376,216.146 204.938,216.813 204.593 C 218.572 203.684,217.565 202.721,215.650 203.482 M220.400 204.800 C 220.400 205.680,220.220 206.400,220.000 206.400 C 219.780 206.400,219.600 205.680,219.600 204.800 C 219.600 203.920,219.780 203.200,220.000 203.200 C 220.220 203.200,220.400 203.920,220.400 204.800 M155.880 205.871 C 155.204 206.965,155.073 210.000,155.702 210.000 C 156.096 210.000,156.368 209.528,156.468 208.672 C 156.659 207.028,156.280 205.223,155.880 205.871 M153.523 211.527 C 153.235 211.927,152.283 212.602,151.406 213.027 C 150.474 213.478,149.574 214.299,149.241 215.000 C 148.927 215.660,148.519 216.470,148.334 216.800 C 148.149 217.130,147.819 217.850,147.599 218.400 C 146.856 220.263,146.524 220.599,145.061 220.971 C 144.257 221.174,143.600 221.481,143.600 221.652 C 143.600 222.207,146.543 222.570,146.721 222.037 C 146.809 221.772,147.266 221.197,147.735 220.760 C 148.308 220.226,148.548 219.587,148.467 218.811 C 148.380 217.988,148.574 217.535,149.140 217.232 C 149.577 216.998,150.054 216.265,150.199 215.603 C 150.418 214.610,150.662 214.400,151.601 214.400 C 152.967 214.400,155.200 212.641,155.200 211.564 C 155.200 210.596,154.208 210.574,153.523 211.527 M179.600 212.824 C 179.600 213.804,179.758 214.349,180.000 214.200 C 180.220 214.064,180.400 213.333,180.400 212.576 C 180.400 211.819,180.220 211.200,180.000 211.200 C 179.780 211.200,179.600 211.931,179.600 212.824 M153.000 213.600 C 152.864 213.820,152.504 214.000,152.200 214.000 C 151.896 214.000,151.536 213.820,151.400 213.600 C 151.259 213.372,151.604 213.200,152.200 213.200 C 152.796 213.200,153.141 213.372,153.000 213.600 M204.600 219.975 L 204.600 225.349 203.305 225.685 C 201.937 226.039,201.600 226.749,201.730 229.000 L 201.800 230.200 197.800 230.200 L 193.800 230.200 193.585 228.064 C 193.441 226.625,193.147 225.802,192.685 225.544 C 191.720 225.003,191.850 223.191,192.941 222.000 C 193.847 221.011,194.162 220.772,196.700 219.151 C 197.415 218.695,198.000 218.159,198.000 217.960 C 198.000 217.762,198.268 217.600,198.597 217.600 C 198.925 217.600,199.418 217.240,199.693 216.800 C 199.968 216.360,200.392 216.000,200.635 216.000 C 200.878 216.000,201.502 215.632,202.020 215.183 C 204.203 213.290,204.600 214.028,204.600 219.975 M178.000 218.224 C 178.000 219.071,178.162 219.547,178.400 219.400 C 178.620 219.264,178.800 218.623,178.800 217.976 C 178.800 217.329,178.620 216.800,178.400 216.800 C 178.180 216.800,178.000 217.441,178.000 218.224 M190.219 225.732 C 190.347 226.245,190.396 227.460,190.326 228.432 L 190.200 230.200 187.495 230.318 C 184.680 230.442,183.779 229.916,184.756 228.721 C 186.529 226.552,187.537 225.591,188.400 225.248 C 189.847 224.673,189.960 224.703,190.219 225.732 " stroke="none" fill="#9d9d9d" fill-rule="evenodd"></path><path id="path4" d="M228.700 178.282 C 229.195 178.378,230.005 178.378,230.500 178.282 C 230.995 178.187,230.590 178.109,229.600 178.109 C 228.610 178.109,228.205 178.187,228.700 178.282 M232.100 178.276 C 232.485 178.376,233.115 178.376,233.500 178.276 C 233.885 178.175,233.570 178.093,232.800 178.093 C 232.030 178.093,231.715 178.175,232.100 178.276 M267.105 182.683 C 267.602 182.779,268.322 182.775,268.705 182.675 C 269.087 182.575,268.680 182.496,267.800 182.501 C 266.920 182.505,266.607 182.587,267.105 182.683 M286.500 184.676 C 286.885 184.776,287.515 184.776,287.900 184.676 C 288.285 184.575,287.970 184.493,287.200 184.493 C 286.430 184.493,286.115 184.575,286.500 184.676 M295.100 184.689 C 295.815 184.778,296.985 184.778,297.700 184.689 C 298.415 184.601,297.830 184.528,296.400 184.528 C 294.970 184.528,294.385 184.601,295.100 184.689 M280.400 186.624 C 280.400 186.967,280.575 187.139,280.788 187.007 C 281.159 186.778,281.388 187.404,281.734 189.600 C 281.863 190.420,281.901 190.370,281.946 189.319 C 282.004 187.952,281.292 186.000,280.736 186.000 C 280.551 186.000,280.400 186.281,280.400 186.624 M110.100 187.487 C 110.705 187.578,111.695 187.578,112.300 187.487 C 112.905 187.395,112.410 187.320,111.200 187.320 C 109.990 187.320,109.495 187.395,110.100 187.487 M161.033 187.900 C 160.868 188.065,158.723 188.218,156.266 188.239 C 153.810 188.261,151.530 188.317,151.200 188.364 C 150.870 188.410,149.520 188.323,148.200 188.169 C 146.870 188.014,145.943 188.042,146.121 188.233 C 146.506 188.643,147.977 188.784,153.800 188.966 C 156.220 189.042,158.715 189.171,159.344 189.252 C 160.187 189.361,160.647 189.164,161.093 188.500 C 161.679 187.628,161.645 187.289,161.033 187.900 M211.070 188.161 C 210.919 188.556,210.126 188.807,208.721 188.904 L 206.600 189.052 208.651 189.126 C 210.543 189.194,212.161 188.428,211.506 187.773 C 211.392 187.659,211.196 187.834,211.070 188.161 M280.093 189.200 C 280.093 189.970,280.175 190.285,280.276 189.900 C 280.376 189.515,280.376 188.885,280.276 188.500 C 280.175 188.115,280.093 188.430,280.093 189.200 M110.700 188.682 C 111.195 188.778,112.005 188.778,112.500 188.682 C 112.995 188.587,112.590 188.509,111.600 188.509 C 110.610 188.509,110.205 188.587,110.700 188.682 M143.680 188.880 C 143.041 189.519,143.075 190.087,143.807 191.024 C 144.370 191.745,144.380 191.723,143.948 190.712 C 143.586 189.865,143.595 189.488,143.990 189.012 C 144.592 188.287,144.368 188.192,143.680 188.880 M122.500 195.887 C 123.105 195.978,124.095 195.978,124.700 195.887 C 125.305 195.795,124.810 195.720,123.600 195.720 C 122.390 195.720,121.895 195.795,122.500 195.887 M140.300 196.689 C 141.015 196.778,142.185 196.778,142.900 196.689 C 143.615 196.601,143.030 196.528,141.600 196.528 C 140.170 196.528,139.585 196.601,140.300 196.689 M187.100 198.682 C 187.595 198.778,188.405 198.778,188.900 198.682 C 189.395 198.587,188.990 198.509,188.000 198.509 C 187.010 198.509,186.605 198.587,187.100 198.682 M268.705 198.683 C 269.202 198.779,269.922 198.775,270.305 198.675 C 270.687 198.575,270.280 198.496,269.400 198.501 C 268.520 198.505,268.207 198.587,268.705 198.683 M186.500 199.876 C 186.885 199.976,187.515 199.976,187.900 199.876 C 188.285 199.775,187.970 199.693,187.200 199.693 C 186.430 199.693,186.115 199.775,186.500 199.876 M190.224 200.587 C 191.228 201.347,191.461 201.340,191.766 200.543 C 191.971 200.011,191.910 199.977,191.445 200.363 C 191.054 200.687,190.789 200.705,190.612 200.419 C 190.469 200.189,190.149 200.000,189.900 200.000 C 189.651 200.000,189.796 200.264,190.224 200.587 M155.600 201.363 C 155.600 201.677,155.375 202.024,155.100 202.135 C 154.794 202.259,154.863 202.349,155.280 202.368 C 155.654 202.386,156.163 202.715,156.410 203.100 C 156.822 203.741,156.840 203.735,156.617 203.032 C 156.483 202.610,156.552 202.153,156.770 202.018 C 156.994 201.880,156.824 201.558,156.384 201.283 C 155.743 200.883,155.600 200.897,155.600 201.363 M279.700 201.476 C 280.085 201.576,280.715 201.576,281.100 201.476 C 281.485 201.375,281.170 201.293,280.400 201.293 C 279.630 201.293,279.315 201.375,279.700 201.476 M217.488 202.565 C 216.806 203.083,216.806 203.117,217.488 203.381 C 218.158 203.641,218.155 203.690,217.424 204.229 C 216.996 204.543,216.816 204.794,217.024 204.787 C 217.819 204.760,218.805 203.678,218.576 203.083 C 218.412 202.655,218.627 202.409,219.269 202.286 C 220.179 202.113,220.177 202.108,219.200 202.067 C 218.650 202.044,217.880 202.268,217.488 202.565 M156.846 204.356 C 156.821 204.662,156.485 205.170,156.100 205.486 C 155.715 205.801,155.625 205.945,155.900 205.806 C 156.226 205.641,156.411 205.875,156.432 206.476 C 156.452 207.071,156.542 207.186,156.684 206.800 C 156.805 206.470,157.196 205.854,157.552 205.431 C 157.908 205.008,157.989 204.786,157.730 204.936 C 157.460 205.093,157.182 204.910,157.077 204.505 C 156.969 204.093,156.873 204.031,156.846 204.356 M243.513 204.695 C 244.676 204.776,246.476 204.776,247.513 204.693 C 248.551 204.611,247.600 204.545,245.400 204.546 C 243.200 204.547,242.351 204.614,243.513 204.695 M253.300 204.676 C 253.685 204.776,254.315 204.776,254.700 204.676 C 255.085 204.575,254.770 204.493,254.000 204.493 C 253.230 204.493,252.915 204.575,253.300 204.676 M212.938 208.617 C 212.808 208.957,212.813 209.347,212.951 209.484 C 213.088 209.621,213.200 209.447,213.200 209.096 C 213.200 208.745,213.515 208.376,213.900 208.276 C 214.556 208.104,214.555 208.090,213.887 208.046 C 213.496 208.021,213.068 208.278,212.938 208.617 M181.206 209.500 C 181.211 210.357,181.298 210.468,181.600 210.000 C 182.106 209.217,182.106 208.400,181.600 208.400 C 181.380 208.400,181.203 208.895,181.206 209.500 M154.538 209.805 C 154.170 210.597,154.183 210.800,154.604 210.800 C 154.895 210.800,155.194 210.982,155.268 211.204 C 155.342 211.426,155.629 211.246,155.905 210.804 C 156.320 210.139,156.308 210.000,155.833 210.000 C 155.517 210.000,155.200 209.732,155.129 209.405 C 155.042 209.002,154.851 209.130,154.538 209.805 M240.724 209.499 C 243.873 209.567,248.913 209.567,251.924 209.499 C 254.936 209.431,252.360 209.376,246.200 209.376 C 240.040 209.376,237.576 209.432,240.724 209.499 M179.293 212.800 C 179.293 213.570,179.375 213.885,179.476 213.500 C 179.576 213.115,179.576 212.485,179.476 212.100 C 179.375 211.715,179.293 212.030,179.293 212.800 M180.368 212.900 C 180.249 213.760,180.310 214.250,180.512 214.048 C 180.705 213.855,180.798 213.181,180.719 212.549 C 180.587 211.491,180.559 211.519,180.368 212.900 M178.000 216.000 C 178.000 216.440,178.180 216.800,178.400 216.800 C 178.620 216.800,178.800 216.440,178.800 216.000 C 178.800 215.560,178.620 215.200,178.400 215.200 C 178.180 215.200,178.000 215.560,178.000 216.000 M149.100 217.232 C 148.678 217.478,148.422 218.069,148.454 218.720 C 148.508 219.779,148.513 219.781,148.693 218.816 C 148.795 218.274,149.175 217.605,149.539 217.328 C 150.335 216.723,150.073 216.665,149.100 217.232 M177.646 218.756 C 177.621 219.062,177.319 219.517,176.975 219.769 C 176.427 220.169,176.449 220.233,177.148 220.286 C 177.587 220.319,178.184 220.054,178.473 219.696 C 178.795 219.299,178.817 219.156,178.530 219.328 C 178.256 219.492,177.984 219.316,177.877 218.905 C 177.769 218.493,177.673 218.431,177.646 218.756 M175.693 227.200 C 175.693 227.970,175.775 228.285,175.876 227.900 C 175.976 227.515,175.976 226.885,175.876 226.500 C 175.775 226.115,175.693 226.430,175.693 227.200 M173.473 228.553 C 173.067 229.612,173.150 230.297,173.600 229.600 C 173.885 229.159,174.004 229.477,174.051 230.800 L 174.114 232.600 174.359 231.000 C 174.494 230.120,174.496 229.310,174.362 229.200 C 174.229 229.090,174.036 228.739,173.933 228.420 C 173.786 227.962,173.690 227.989,173.473 228.553 " stroke="none" fill="#848484" fill-rule="evenodd"></path></g></svg>