<?xml version="1.0" encoding="UTF-8" standalone="no"?>
<svg
   xmlns:dc="http://purl.org/dc/elements/1.1/"
   xmlns:cc="http://creativecommons.org/ns#"
   xmlns:rdf="http://www.w3.org/1999/02/22-rdf-syntax-ns#"
   xmlns:svg="http://www.w3.org/2000/svg"
   xmlns="http://www.w3.org/2000/svg"
   xmlns:sodipodi="http://sodipodi.sourceforge.net/DTD/sodipodi-0.dtd"
   xmlns:inkscape="http://www.inkscape.org/namespaces/inkscape"
   id="svg"
   version="1.1"
   width="400"
   height="400"
   viewBox="0, 0, 400,400"
   sodipodi:docname="AutoRifle.svg"
   inkscape:version="0.92.4 (5da689c313, 2019-01-14)">
  <metadata
     id="metadata42">
    <rdf:RDF>
      <cc:Work
         rdf:about="">
        <dc:format>image/svg+xml</dc:format>
        <dc:type
           rdf:resource="http://purl.org/dc/dcmitype/StillImage" />
      </cc:Work>
    </rdf:RDF>
  </metadata>
  <defs
     id="defs40" />
  <sodipodi:namedview
     pagecolor="#ffffff"
     bordercolor="#666666"
     borderopacity="1"
     objecttolerance="10"
     gridtolerance="10"
     guidetolerance="10"
     inkscape:pageopacity="0"
     inkscape:pageshadow="2"
     inkscape:window-width="1024"
     inkscape:window-height="664"
     id="namedview38"
     showgrid="false"
     inkscape:zoom="1.1675"
     inkscape:cx="-61.24197"
     inkscape:cy="200"
     inkscape:window-x="-8"
     inkscape:window-y="-8"
     inkscape:window-maximized="1"
     inkscape:current-layer="svg" />
  <g
     inkscape:groupmode="layer"
     id="layer1"
     inkscape:label="Layer 1" />
  <g
     id="svgg"
     transform="translate(-5.1391867,164.45396)">
    <path
       id="path1"
       d="m 169.928,170.7 c -0.358,0.385 -1.208,1.192 -1.889,1.794 -0.681,0.601 -1.239,1.27 -1.239,1.485 0,0.216 -0.36,0.586 -0.8,0.821 -0.44,0.235 -0.8,0.836 -0.8,1.334 0,1.763 -5.644,2.862 -7.12,1.386 -0.373,-0.373 -0.587,-0.373 -0.96,0 -0.264,0.264 -0.78,0.48 -1.146,0.48 -0.366,0 -1.143,0.375 -1.726,0.834 -1.002,0.788 -1.518,0.831 -9.454,0.792 l -8.394,-0.042 v 4.608 c 0,4.562 0.24,5.449 1.005,3.71 0.712,-1.618 3.528,-1.419 3.955,0.28 0.275,1.098 1.032,1.034 2.44,-0.205 0.71,-0.626 1.958,-0.72 11.135,-0.841 l 10.336,-0.136 0.764,0.944 c 0.858,1.06 1.015,3.246 0.285,3.976 -0.349,0.349 -3.392,0.48 -11.186,0.48 h -10.706 l -1.418,-1.245 c -1.175,-1.032 -1.522,-1.16 -2.022,-0.745 -0.4,0.332 -1.272,0.42 -2.595,0.264 l -1.993,-0.236 v 2.757 2.756 l 1.5,-0.075 c 8.512,-0.43 14.482,1.218 14.496,4 0.006,1.255 0.555,1.43 2.133,0.677 3.09,-1.473 5.282,2.094 3.471,5.647 -0.44,0.863 -0.8,1.984 -0.8,2.492 0,2.497 -2.49,5.718 -4.696,6.077 -1.211,0.197 -1.509,0.445 -1.778,1.483 -0.177,0.686 -0.594,1.472 -0.924,1.747 -0.331,0.274 -0.602,0.901 -0.602,1.392 0,0.491 -0.45,1.378 -1,1.971 -1.629,1.757 -0.408,3.838 2.251,3.838 0.709,0 1.332,0.303 1.642,0.8 0.391,0.626 0.934,0.801 2.503,0.803 1.327,0.001 2.41,0.271 3.204,0.797 0.773,0.512 1.877,0.796 3.104,0.797 1.407,0.002 2.083,0.212 2.589,0.803 0.52,0.608 1.18,0.8 2.742,0.8 1.451,0 2.357,0.236 3.074,0.8 1.908,1.501 3.024,1.101 3.328,-1.193 0.145,-1.096 0.511,-2.198 0.814,-2.449 0.515,-0.428 0.8,-2.758 0.337,-2.758 -0.117,0 -0.875,0.72 -1.684,1.6 -1.788,1.944 -6.372,2.44 -7.397,0.8 -0.403,-0.646 -0.933,-0.8 -2.749,-0.8 -1.644,0 -2.524,-0.215 -3.267,-0.8 -0.56,-0.44 -1.561,-0.8 -2.225,-0.8 -1.996,0 -3.577,-2.512 -2.266,-3.6 0.33,-0.274 0.6,-0.978 0.6,-1.565 0,-0.734 0.501,-1.528 1.6,-2.539 1.376,-1.265 1.6,-1.705 1.6,-3.141 0,-2.075 1.93,-4.344 3.7,-4.351 1.299,-0.005 1.41,-0.418 0.3,-1.111 -0.94,-0.587 -1.187,-5.546 -0.32,-6.413 0.796,-0.796 2.611,-0.57 3.297,0.409 l 0.623,0.889 0.623,-0.889 c 0.595,-0.85 0.879,-0.889 6.528,-0.889 h 5.905 l 1.672,1.861 1.672,1.86 v -1.907 c 0,-1.683 0.183,-2.091 1.553,-3.461 L 185.106,198 h 4.37 c 4.952,0 6.69,0.608 5.148,1.8 -0.428,0.33 -1.096,0.6 -1.486,0.6 -0.391,0 -0.903,0.36 -1.138,0.8 -0.534,0.999 -1.123,0.999 -2.4,0 -1.954,-1.528 -5.198,-0.207 -5.201,2.118 -0.001,0.485 -0.354,1.46 -0.785,2.165 -0.43,0.706 -0.902,2.188 -1.049,3.293 -0.146,1.106 -0.513,2.215 -0.816,2.466 -0.302,0.251 -0.549,0.95 -0.549,1.553 0,0.603 -0.335,1.526 -0.744,2.051 -0.415,0.532 -0.831,1.884 -0.941,3.058 -0.109,1.157 -0.473,2.417 -0.808,2.8 -0.335,0.383 -0.73,1.536 -0.878,2.563 -0.147,1.027 -0.529,2.084 -0.849,2.349 -0.319,0.265 -0.58,1.066 -0.58,1.779 0,0.713 -0.36,1.755 -0.8,2.314 -0.44,0.56 -0.8,1.484 -0.8,2.054 0,1.462 0.04,1.448 2.704,-0.963 0.607,-0.55 1.796,-1.36 2.642,-1.8 0.845,-0.44 2.606,-1.835 3.913,-3.1 1.307,-1.265 2.668,-2.3 3.025,-2.3 0.635,0 1.274,-0.49 3.002,-2.3 0.472,-0.495 1.068,-0.9 1.324,-0.9 0.256,0 0.792,-0.36 1.19,-0.8 0.398,-0.44 0.906,-0.8 1.128,-0.8 0.223,0 0.69,-0.262 1.038,-0.581 1.679,-1.541 2.395,-2.108 4.047,-3.207 0.983,-0.653 2.622,-1.868 3.643,-2.7 1.02,-0.831 1.972,-1.512 2.116,-1.512 0.367,0 2.465,-1.565 4.15,-3.097 0.785,-0.713 1.799,-1.41 2.253,-1.549 0.454,-0.139 1.138,-0.546 1.52,-0.904 0.382,-0.357 1.035,-0.973 1.451,-1.368 1.136,-1.08 3.691,-2.282 4.85,-2.282 0.564,0 1.425,-0.279 1.912,-0.621 0.737,-0.516 1.844,-0.585 6.589,-0.412 3.137,0.115 11.373,0.354 18.303,0.532 10.748,0.275 12.788,0.424 13.88,1.012 0.704,0.379 1.515,0.689 1.801,0.689 0.894,0 2.919,2.478 2.919,3.572 0,1.449 5.944,1.816 7.186,0.443 0.406,-0.448 0.937,-0.815 1.18,-0.815 0.243,0 0.662,-0.353 0.932,-0.785 0.455,-0.728 0.964,-0.784 7.105,-0.782 7.226,0.003 7.397,-0.03 7.397,-1.457 V 202 h -7.138 c -6.63,0 -7.19,-0.057 -7.862,-0.8 -0.629,-0.695 -1.232,-0.8 -4.586,-0.8 -4.437,0 -6.121,-0.654 -4.638,-1.8 0.575,-0.444 1.873,-0.603 5,-0.613 4.85,-0.014 6.424,-0.78 6.424,-3.125 0,-1.336 0.548,-1.662 2.792,-1.662 h 1.526 l 0.167,-3.5 c 0.213,-4.48 -0.093,-5.45 -1.618,-5.115 -1.404,0.309 -3.267,-0.361 -3.267,-1.175 0,-0.411 -0.391,-0.61 -1.2,-0.61 -1.048,0 -1.2,0.142 -1.2,1.12 0,1.729 -0.66,2.08 -3.906,2.08 -4.43,0 -5.449,-0.853 -3.513,-2.942 0.882,-0.951 1.265,-1.058 3.8,-1.058 1.613,0 2.819,-0.171 2.819,-0.4 0,-0.22 -0.232,-0.4 -0.515,-0.4 -0.284,0 -1.173,-0.335 -1.976,-0.744 -1.03,-0.526 -1.585,-0.62 -1.885,-0.32 -0.299,0.299 -0.816,0.283 -1.753,-0.056 -2.183,-0.789 -6.664,-0.612 -8.071,0.32 -1.822,1.207 -15.061,1.219 -15.905,0.015 -0.629,-0.899 -17.45,-1.856 -19.495,-1.109 -3.255,1.188 -9.6,0.879 -9.6,-0.467 0,-0.869 -2.062,-2.439 -3.204,-2.439 -0.758,0 -1.318,-0.28 -1.596,-0.8 -0.266,-0.497 -0.839,-0.801 -1.514,-0.803 -0.597,-0.001 -1.626,-0.36 -2.286,-0.797 -0.66,-0.437 -1.693,-0.796 -2.297,-0.797 -0.661,-0.002 -1.295,-0.321 -1.596,-0.803 -0.292,-0.467 -0.933,-0.8 -1.541,-0.8 -0.573,0 -1.368,-0.36 -1.766,-0.8 -0.686,-0.758 -1.232,-0.8 -10.346,-0.8 h -9.621 l -3.122,3.294 c -2.659,2.805 -3.226,3.228 -3.817,2.846 -1.061,-0.685 -0.641,-2.526 0.936,-4.104 0.754,-0.753 1.37,-1.519 1.37,-1.703 0,-0.599 -1.407,-0.35 -2.072,0.367 m 99.272,2.178 c 0,1.305 -1.654,3.522 -2.628,3.522 -0.263,0 -0.571,0.484 -0.684,1.075 -0.4,2.091 0.626,2.929 1.327,1.084 0.291,-0.765 0.58,-0.969 1.091,-0.77 1.408,0.548 1.495,0.392 1.61,-2.889 0.074,-2.093 -0.036,-3.3 -0.3,-3.3 -0.229,0 -0.416,0.575 -0.416,1.278 m -91.586,1.548 c 0.77,1.439 -0.726,2.443 -2.581,1.731 -0.938,-0.36 -0.768,-1.729 0.267,-2.145 1.392,-0.559 1.836,-0.48 2.314,0.414 m -81.744,1.731 c -1.233,0.456 -1.241,0.726 -0.12,3.643 0.914,2.377 0.9,22.078 -0.017,24.4 -0.347,0.88 -0.717,2.365 -0.823,3.3 l -0.191,1.7 h 1.752 c 1.256,0 1.945,-0.226 2.436,-0.8 0.404,-0.471 1.18,-0.8 1.889,-0.8 1.046,0 1.205,-0.145 1.208,-1.1 0.006,-1.384 2.285,-3.7 3.642,-3.7 0.529,0 1.186,-0.36 1.461,-0.8 0.28,-0.447 0.933,-0.8 1.482,-0.8 0.573,0 1.161,-0.333 1.411,-0.8 0.235,-0.44 0.708,-0.8 1.051,-0.8 0.343,0 1.08,-0.36 1.64,-0.8 0.559,-0.44 1.219,-0.8 1.467,-0.8 0.247,0 0.674,-0.36 0.949,-0.8 0.275,-0.44 0.914,-0.8 1.42,-0.8 0.506,0 1.269,-0.264 1.697,-0.587 0.976,-0.738 12.542,-0.887 13.259,-0.17 0.883,0.883 1.199,-1.06 1.223,-7.503 0.014,-3.845 0.2,-6.79 0.459,-7.274 0.239,-0.447 0.435,-0.915 0.435,-1.04 0,-0.124 -5.12,-0.226 -11.377,-0.226 -11.304,0 -11.382,-0.006 -12,-0.889 l -0.623,-0.889 -0.623,0.889 c -1.354,1.933 -6.961,0.317 -6.975,-2.011 -10e-4,-0.165 -0.71,-0.3 -1.576,-0.3 -0.866,0 -1.991,-0.149 -2.5,-0.331 -0.539,-0.192 -1.398,-0.156 -2.056,0.088 m 92.85,1.523 c 1.205,1.205 0.039,3.644 -1.544,3.23 -1.366,-0.358 -1.817,-2.147 -0.758,-3.005 1.021,-0.827 1.64,-0.887 2.302,-0.225 m 13.423,0.399 c 1.395,2.219 -3.232,4.279 -6.129,2.728 -1.024,-0.547 -1.464,-2.223 -0.797,-3.028 0.746,-0.898 6.324,-0.657 6.926,0.3 m -73.987,5.437 c 0.969,1.873 0.329,3.854 -1.296,4.011 -1.712,0.166 -2.46,-0.503 -2.46,-2.202 0,-2.981 2.522,-4.196 3.756,-1.809 m 154.938,2.404 c -1.053,0.504 -1.066,0.551 -0.43,1.522 0.544,0.83 0.58,1.253 0.207,2.467 -0.364,1.186 -0.336,1.638 0.149,2.378 l 0.598,0.913 h 11.373 c 13.588,0 13.209,0.129 13.209,-4.5 0,-2.507 -0.059,-2.678 -1,-2.916 -2.097,-0.528 -22.964,-0.411 -24.106,0.136 m -85.667,0.727 c 1.646,1.256 1.657,1.354 0.337,2.922 -1.804,2.145 -4.564,1.564 -4.564,-0.96 0,-2.856 1.899,-3.737 4.227,-1.962 M 310.8,188.8 v 2.8 h 6 6 v -2.8 -2.8 h -6 -6 v 2.8 m -101.976,-2.005 c 2.949,0.007 4.102,0.761 3.009,1.969 -0.586,0.647 -1.235,0.836 -2.871,0.836 -1.163,0 -2.226,0.18 -2.362,0.4 -0.759,1.227 -4.005,-0.443 -3.721,-1.915 0.166,-0.864 1.898,-1.751 2.921,-1.495 0.44,0.109 1.801,0.202 3.024,0.205 m -93.016,0.562 c 1.667,1.218 0.115,1.843 -4.581,1.843 -4.854,0 -6.583,-0.616 -5.051,-1.8 1.06,-0.819 8.526,-0.853 9.632,-0.043 m 142.45,0.921 c 0.946,2.264 0.315,2.522 -6.161,2.522 -6.068,0 -7.109,-0.3 -6.7,-1.931 0.501,-1.997 0.734,-2.069 6.672,-2.069 h 5.572 l 0.617,1.478 m -154.278,0.698 c 0.858,1.034 0.364,2.824 -0.78,2.824 -0.799,0 -1.026,-0.226 -1.129,-1.124 -0.122,-1.068 0.477,-2.276 1.129,-2.276 0.166,0 0.517,0.259 0.78,0.576 M 290,200.8 c 0,0.22 0.27,0.4 0.6,0.4 0.33,0 0.6,-0.18 0.6,-0.4 0,-0.22 -0.27,-0.4 -0.6,-0.4 -0.33,0 -0.6,0.18 -0.6,0.4 m 3.467,1.467 c -0.815,0.814 -0.238,2.133 0.933,2.133 1.067,0 1.2,-0.133 1.2,-1.2 0,-1.171 -1.319,-1.748 -2.133,-0.933 m -141.797,1.859 c -0.479,0.509 -0.87,1.101 -0.87,1.316 0,0.215 -0.675,1.027 -1.5,1.805 -1.676,1.58 -2.24,2.351 -3.121,4.27 -0.332,0.725 -0.869,1.419 -1.192,1.543 -0.404,0.155 -0.587,0.828 -0.587,2.16 0,1.505 -0.184,2.064 -0.831,2.516 -1.375,0.964 -0.926,2.905 0.631,2.727 1.311,-0.15 2.6,-1.091 2.6,-1.899 0,-1.944 2.46,-5.485 4.475,-6.442 1.952,-0.927 3.058,-2.641 3.73,-5.78 0.158,-0.738 0.462,-1.559 0.676,-1.824 1.219,-1.516 -2.605,-1.89 -4.011,-0.392 m 69.53,1.398 v 1.924 l 6.5,0.544 c 10.797,0.902 27.556,1.009 30.482,0.194 3.085,-0.86 3.025,-0.813 2.486,-1.954 l -0.457,-0.968 -11.005,-0.153 c -9.277,-0.129 -11.24,-0.26 -12.493,-0.832 -1.219,-0.556 -2.755,-0.679 -8.5,-0.679 H 221.2 v 1.924 M 216.093,206 c -0.319,0.51 -0.933,0.8 -1.696,0.8 -0.659,0 -1.197,0.18 -1.197,0.4 0,0.483 5.063,0.545 5.36,0.065 0.278,-0.451 -0.883,-2.065 -1.486,-2.065 -0.265,0 -0.706,0.36 -0.981,0.8 m -36.493,2.2 c 0,0.77 0.18,1.4 0.4,1.4 0.22,0 0.4,-0.63 0.4,-1.4 0,-0.77 -0.18,-1.4 -0.4,-1.4 -0.22,0 -0.4,0.63 -0.4,1.4 m 30.6,1.816 c -0.88,0.838 -1.999,1.885 -2.488,2.327 -0.868,0.786 -0.885,0.98 -0.8,9.23 L 207,230 h 2.7 2.7 v -10.8 c 0,-5.94 -0.135,-10.779 -0.3,-10.753 -0.165,0.025 -1.02,0.732 -1.9,1.569 M 178,212.8 c 0,0.66 0.18,1.2 0.4,1.2 0.22,0 0.4,-0.54 0.4,-1.2 0,-0.66 -0.18,-1.2 -0.4,-1.2 -0.22,0 -0.4,0.54 -0.4,1.2 m 25.213,2.585 c -0.267,0.321 -0.874,0.704 -1.349,0.85 -0.475,0.147 -1.134,0.505 -1.464,0.797 -0.33,0.292 -0.966,0.854 -1.413,1.249 -1.091,0.964 -3.965,2.919 -4.29,2.919 -1.565,0 -2.8,3.302 -1.497,4 0.651,0.349 0.8,0.838 0.8,2.629 v 2.201 l 3.693,-0.115 3.693,-0.115 -0.125,-1.72 c -0.149,-2.048 0.425,-2.88 1.988,-2.88 H 204.4 V 220 c 0,-5.071 -0.192,-5.815 -1.187,-4.615 M 176.4,217 c 0,0.99 0.18,1.8 0.4,1.8 0.22,0 0.4,-0.81 0.4,-1.8 0,-0.99 -0.18,-1.8 -0.4,-1.8 -0.22,0 -0.4,0.81 -0.4,1.8 m -1.6,4.567 c 0,1.118 0.18,2.033 0.4,2.033 0.22,0 0.4,-0.72 0.4,-1.6 0,-0.88 0.014,-1.73 0.03,-1.89 0.017,-0.16 -0.164,-0.355 -0.4,-0.433 -0.269,-0.09 -0.43,0.617 -0.43,1.89 m -32.7,1.148 c -1.513,0.236 -1,0.885 0.7,0.885 0.88,0 1.6,-0.159 1.6,-0.353 0,-0.451 -1.137,-0.713 -2.3,-0.532 m 46.586,3.187 c -1.311,0.297 -3.785,3.265 -3.205,3.845 0.139,0.139 1.212,0.253 2.386,0.253 H 190 v -1.976 c 0,-2.097 -0.175,-2.379 -1.314,-2.122"
       inkscape:connector-curvature="0"
       style="fill:#080808;fill-rule:evenodd;stroke:none" />
    <path
       id="path2"
       d="m 167.6,172.401 c -1.43,1.528 -2.664,3.098 -2.743,3.489 -0.367,1.822 -4.87,2.546 -6.526,1.048 -0.68,-0.616 -0.782,-0.616 -1.462,0 -0.403,0.364 -1.009,0.662 -1.347,0.662 -0.338,0 -1.067,0.356 -1.621,0.792 -0.918,0.722 -1.735,0.801 -9.354,0.9 l -8.347,0.108 -0.086,8.285 c -0.047,4.557 0.062,8.377 0.243,8.488 0.181,0.112 3.156,0.301 6.613,0.42 6.992,0.24 9.021,1.005 9.036,3.407 0.003,0.55 0.171,1.26 0.372,1.579 0.261,0.412 0.029,0.963 -0.806,1.914 -0.644,0.734 -1.172,1.512 -1.172,1.729 0,0.218 -1.001,1.412 -2.224,2.655 -1.254,1.274 -2.323,2.759 -2.452,3.405 -0.127,0.631 -0.566,1.326 -0.977,1.546 -0.574,0.308 -0.747,0.856 -0.747,2.372 0,1.562 -0.166,2.061 -0.8,2.4 -0.844,0.452 -1.077,2.144 -0.434,3.158 0.654,1.034 4.434,-0.361 4.434,-1.637 0,-1.738 2.581,-5.646 4.203,-6.363 2.123,-0.94 3.224,-2.388 3.798,-4.999 0.237,-1.077 0.715,-2.175 1.063,-2.439 0.861,-0.652 0.383,-2.446 -0.776,-2.912 -0.488,-0.196 -0.663,-0.369 -0.388,-0.383 0.275,-0.014 0.5,-0.297 0.5,-0.628 0,-0.451 0.177,-0.509 0.7,-0.23 0.385,0.206 1.015,0.472 1.4,0.591 0.964,0.298 0.908,2.27 -0.1,3.551 -0.44,0.56 -0.8,1.585 -0.8,2.279 0,3.016 -2.343,6.399 -4.696,6.781 -1.231,0.2 -1.507,0.439 -1.796,1.553 -0.187,0.723 -0.603,1.416 -0.924,1.54 -0.334,0.128 -0.584,0.742 -0.584,1.435 0,0.759 -0.352,1.538 -0.943,2.085 -0.518,0.48 -1.017,1.099 -1.109,1.374 -0.131,0.393 -0.557,0.403 -1.967,0.048 -1.292,-0.325 -2.116,-0.333 -2.923,-0.026 -1.908,0.725 -1.045,1.421 1.779,1.433 1.947,0.008 2.9,0.224 3.963,0.899 0.77,0.488 1.867,0.888 2.438,0.889 0.571,0 1.364,0.361 1.762,0.801 0.523,0.578 1.234,0.801 2.562,0.803 1.161,0.001 2.28,0.295 3.038,0.797 0.801,0.531 1.877,0.796 3.238,0.797 1.528,0.002 2.219,0.203 2.762,0.803 0.523,0.578 1.234,0.801 2.562,0.803 1.161,0.001 2.28,0.295 3.038,0.797 2.256,1.494 3.893,0.963 4.312,-1.4 0.364,-2.055 1.657,-5.177 2.362,-5.705 0.492,-0.368 0.615,-0.869 0.455,-1.855 -0.171,-1.056 -0.021,-1.548 0.691,-2.26 0.612,-0.612 0.971,-1.543 1.096,-2.845 0.102,-1.064 0.343,-1.935 0.535,-1.935 0.587,0 0.408,4.253 -0.2,4.758 -0.303,0.251 -0.665,1.321 -0.805,2.379 -0.14,1.057 -0.517,2.269 -0.838,2.693 -0.32,0.423 -0.588,1.357 -0.595,2.074 -0.008,0.797 -0.324,1.57 -0.813,1.989 -0.569,0.487 -0.8,1.18 -0.8,2.396 0,2.088 0.512,2.18 2.411,0.433 0.764,-0.703 2.193,-1.709 3.175,-2.235 0.983,-0.526 2.164,-1.346 2.625,-1.822 1.648,-1.7 3.828,-3.424 4.667,-3.69 0.468,-0.148 1.579,-0.969 2.468,-1.823 0.888,-0.853 1.851,-1.552 2.138,-1.552 0.288,0 0.832,-0.36 1.209,-0.8 0.377,-0.44 0.908,-0.8 1.182,-0.8 0.273,0 0.69,-0.36 0.925,-0.8 0.235,-0.44 0.697,-0.8 1.027,-0.8 0.329,0 0.695,-0.254 0.814,-0.563 0.119,-0.31 0.731,-0.777 1.359,-1.037 0.628,-0.26 1.24,-0.727 1.359,-1.037 0.119,-0.309 0.485,-0.563 0.814,-0.563 0.33,0 0.792,-0.36 1.027,-0.8 0.235,-0.44 0.664,-0.8 0.952,-0.8 0.288,0 0.85,-0.36 1.248,-0.8 0.398,-0.44 0.896,-0.8 1.106,-0.8 0.211,0 1.243,-0.72 2.294,-1.6 1.051,-0.88 2.083,-1.6 2.294,-1.6 0.21,0 0.708,-0.36 1.106,-0.8 0.398,-0.44 0.883,-0.8 1.077,-0.8 0.195,0 1.103,-0.72 2.019,-1.6 0.916,-0.88 1.954,-1.6 2.308,-1.6 0.354,0 0.992,-0.264 1.42,-0.587 0.427,-0.323 1.173,-0.593 1.657,-0.6 0.485,-0.007 1.303,-0.205 1.817,-0.44 1.702,-0.775 35.095,0.194 38.38,1.114 2.797,0.783 4.631,2.332 4.173,3.525 -0.353,0.92 -1.709,0.691 -2.523,-0.425 l -0.738,-1.014 -10.195,-0.115 c -8.348,-0.094 -10.557,-0.238 -12.195,-0.798 -1.659,-0.566 -3.262,-0.664 -9.4,-0.571 L 221,203.4 v 2.2 2.2 l 4,0.533 c 7.445,0.993 32.323,1.084 34.551,0.127 1.612,-0.693 2.464,-0.769 6.649,-0.594 l 4.8,0.2 1.6,-1.505 1.6,-1.505 6.796,-0.115 c 7.319,-0.123 7.804,-0.271 7.804,-2.375 0,-0.743 0.269,-0.91 1.7,-1.062 2.19,-0.231 2.3,-0.151 2.3,1.677 0,1.666 0.44,2.025 1.998,1.634 1.893,-0.475 1.561,-3.615 -0.382,-3.615 -0.643,0 -1.271,-0.166 -1.397,-0.369 -0.498,-0.807 -2.537,-0.877 -3.921,-0.135 -2.373,1.272 -14.424,1.301 -15.768,0.038 -0.896,-0.841 -1.355,-0.926 -5.058,-0.93 -3.351,-0.003 -4.072,-0.11 -4.072,-0.604 0,-0.595 0.239,-0.619 7.821,-0.778 1.73,-0.037 4.464,-2.316 3.943,-3.289 -0.556,-1.039 -0.369,-1.186 1.825,-1.433 2.273,-0.256 2.232,-0.183 2.407,-4.355 0.2,-4.758 -0.065,-5.326 -2.463,-5.278 -1.519,0.03 -2.012,-0.133 -2.465,-0.815 -0.356,-0.537 -0.986,-0.852 -1.703,-0.852 -0.736,0 -1.291,-0.289 -1.575,-0.819 -0.241,-0.451 -0.885,-0.989 -1.43,-1.196 -0.819,-0.312 -0.921,-0.51 -0.587,-1.134 0.566,-1.057 0.67,-7.168 0.131,-7.707 -0.655,-0.655 -1.304,-0.038 -1.304,1.238 0,0.808 -0.426,1.509 -1.478,2.433 -0.814,0.714 -1.759,1.858 -2.1,2.542 -0.609,1.216 -0.695,1.247 -4.049,1.449 -2.29,0.138 -3.778,0.436 -4.486,0.9 -1.704,1.117 -13.859,1.03 -14.887,-0.106 -0.586,-0.647 -1.232,-0.8 -3.386,-0.8 -1.498,0 -2.959,-0.218 -3.344,-0.5 -0.492,-0.36 -1.826,-0.438 -4.776,-0.277 -2.258,0.123 -4.681,0.047 -5.403,-0.17 -1.023,-0.307 -1.628,-0.241 -2.771,0.305 -0.877,0.418 -2.799,0.769 -4.799,0.877 l -3.336,0.181 -1.757,-1.808 c -1.134,-1.168 -2.102,-1.808 -2.73,-1.808 -0.536,0 -1.3,-0.36 -1.698,-0.8 -0.398,-0.44 -1.101,-0.801 -1.562,-0.803 -0.461,-0.001 -1.378,-0.36 -2.038,-0.797 -0.66,-0.437 -1.667,-0.796 -2.238,-0.797 -0.571,-0.002 -1.364,-0.363 -1.762,-0.803 -0.398,-0.44 -1.23,-0.8 -1.848,-0.8 -0.714,0 -1.28,-0.291 -1.552,-0.8 -0.41,-0.767 -0.838,-0.8 -10.349,-0.8 h -9.921 l -1.636,1.7 c -0.899,0.935 -2.27,2.391 -3.045,3.236 -0.776,0.844 -1.599,1.418 -1.83,1.276 -0.88,-0.544 -0.378,-2.09 1.171,-3.602 1.219,-1.191 1.487,-1.676 1.151,-2.081 -0.911,-1.098 -2.137,-0.51 -4.741,2.272 m 4.4,-2.068 c 0,0.184 -0.616,0.95 -1.37,1.703 -1.577,1.578 -1.997,3.419 -0.936,4.104 0.591,0.382 1.158,-0.041 3.817,-2.846 L 176.633,170 h 9.621 c 9.114,0 9.66,0.042 10.346,0.8 0.398,0.44 1.193,0.8 1.766,0.8 0.608,0 1.249,0.333 1.541,0.8 0.301,0.482 0.935,0.801 1.596,0.803 0.604,0.001 1.637,0.36 2.297,0.797 0.66,0.437 1.689,0.796 2.286,0.797 0.675,0.002 1.248,0.306 1.514,0.803 0.278,0.52 0.838,0.8 1.596,0.8 1.142,0 3.204,1.57 3.204,2.439 0,1.346 6.345,1.655 9.6,0.467 2.045,-0.747 18.866,0.21 19.495,1.109 0.844,1.204 14.083,1.192 15.905,-0.015 1.407,-0.932 5.888,-1.109 8.071,-0.32 0.937,0.339 1.454,0.355 1.753,0.056 0.3,-0.3 0.855,-0.206 1.885,0.32 0.803,0.409 1.692,0.744 1.976,0.744 0.283,0 0.515,0.18 0.515,0.4 0,0.229 -1.206,0.4 -2.819,0.4 -2.535,0 -2.918,0.107 -3.8,1.058 -1.936,2.089 -0.917,2.942 3.513,2.942 3.246,0 3.906,-0.351 3.906,-2.08 0,-0.978 0.152,-1.12 1.2,-1.12 0.809,0 1.2,0.199 1.2,0.61 0,0.814 1.863,1.484 3.267,1.175 1.525,-0.335 1.831,0.635 1.618,5.115 l -0.167,3.5 h -1.526 c -2.244,0 -2.792,0.326 -2.792,1.662 0,2.345 -1.574,3.111 -6.424,3.125 -3.127,0.01 -4.425,0.169 -5,0.613 -1.483,1.146 0.201,1.8 4.638,1.8 3.354,0 3.957,0.105 4.586,0.8 0.672,0.743 1.232,0.8 7.862,0.8 H 288 v 0.976 c 0,1.427 -0.171,1.46 -7.397,1.457 -6.141,-0.002 -6.65,0.054 -7.105,0.782 -0.27,0.432 -0.689,0.785 -0.932,0.785 -0.243,0 -0.774,0.367 -1.18,0.815 -1.242,1.373 -7.186,1.006 -7.186,-0.443 0,-1.094 -2.025,-3.572 -2.919,-3.572 -0.286,0 -1.097,-0.31 -1.801,-0.689 -1.092,-0.588 -3.132,-0.737 -13.88,-1.012 -6.93,-0.178 -15.166,-0.417 -18.303,-0.532 -4.745,-0.173 -5.852,-0.104 -6.589,0.412 -0.487,0.342 -1.348,0.621 -1.912,0.621 -1.159,0 -3.714,1.202 -4.85,2.282 -0.416,0.395 -1.069,1.011 -1.451,1.368 -0.382,0.358 -1.066,0.765 -1.52,0.904 -0.454,0.139 -1.468,0.836 -2.253,1.549 -1.685,1.532 -3.783,3.097 -4.15,3.097 -0.144,0 -1.096,0.681 -2.116,1.512 -1.021,0.832 -2.66,2.047 -3.643,2.7 -1.652,1.099 -2.368,1.666 -4.047,3.207 -0.348,0.319 -0.815,0.581 -1.038,0.581 -0.222,0 -0.73,0.36 -1.128,0.8 -0.398,0.44 -0.934,0.8 -1.19,0.8 -0.256,0 -0.852,0.405 -1.324,0.9 -1.728,1.81 -2.367,2.3 -3.002,2.3 -0.357,0 -1.718,1.035 -3.025,2.3 -1.307,1.265 -3.068,2.66 -3.913,3.1 -0.846,0.44 -2.035,1.25 -2.642,1.8 -2.664,2.411 -2.704,2.425 -2.704,0.963 0,-0.57 0.36,-1.494 0.8,-2.054 0.44,-0.559 0.8,-1.601 0.8,-2.314 0,-0.713 0.261,-1.514 0.58,-1.779 0.32,-0.265 0.702,-1.322 0.849,-2.349 0.148,-1.027 0.543,-2.18 0.878,-2.563 0.335,-0.383 0.699,-1.643 0.808,-2.8 0.11,-1.174 0.526,-2.526 0.941,-3.058 0.409,-0.525 0.744,-1.448 0.744,-2.051 0,-0.603 0.247,-1.302 0.549,-1.553 0.303,-0.251 0.67,-1.36 0.816,-2.466 0.147,-1.105 0.619,-2.587 1.049,-3.293 0.431,-0.705 0.784,-1.68 0.785,-2.165 0.003,-2.325 3.247,-3.646 5.201,-2.118 1.277,0.999 1.866,0.999 2.4,0 0.235,-0.44 0.747,-0.8 1.138,-0.8 0.39,0 1.058,-0.27 1.486,-0.6 1.542,-1.192 -0.196,-1.8 -5.148,-1.8 h -4.37 l -1.553,1.553 c -1.37,1.37 -1.553,1.778 -1.553,3.461 v 1.907 l -1.672,-1.86 -1.672,-1.861 h -5.905 c -5.649,0 -5.933,0.039 -6.528,0.889 l -0.623,0.889 -0.623,-0.889 c -0.686,-0.979 -2.501,-1.205 -3.297,-0.409 -0.867,0.867 -0.62,5.826 0.32,6.413 1.11,0.693 0.999,1.106 -0.3,1.111 -1.77,0.007 -3.7,2.276 -3.7,4.351 0,1.436 -0.224,1.876 -1.6,3.141 -1.099,1.011 -1.6,1.805 -1.6,2.539 0,0.587 -0.27,1.291 -0.6,1.565 -1.311,1.088 0.27,3.6 2.266,3.6 0.664,0 1.665,0.36 2.225,0.8 0.743,0.585 1.623,0.8 3.267,0.8 1.816,0 2.346,0.154 2.749,0.8 1.025,1.64 5.609,1.144 7.397,-0.8 0.809,-0.88 1.567,-1.6 1.684,-1.6 0.463,0 0.178,2.33 -0.337,2.758 -0.303,0.251 -0.669,1.353 -0.814,2.449 -0.304,2.294 -1.42,2.694 -3.328,1.193 -0.717,-0.564 -1.623,-0.8 -3.074,-0.8 -1.562,0 -2.222,-0.192 -2.742,-0.8 -0.506,-0.591 -1.182,-0.801 -2.589,-0.803 -1.227,-0.001 -2.331,-0.285 -3.104,-0.797 -0.794,-0.526 -1.877,-0.796 -3.204,-0.797 -1.569,-0.002 -2.112,-0.177 -2.503,-0.803 -0.31,-0.497 -0.933,-0.8 -1.642,-0.8 -2.659,0 -3.88,-2.081 -2.251,-3.838 0.55,-0.593 1,-1.48 1,-1.971 0,-0.491 0.271,-1.118 0.602,-1.392 0.33,-0.275 0.747,-1.061 0.924,-1.747 0.269,-1.038 0.567,-1.286 1.778,-1.483 2.206,-0.359 4.696,-3.58 4.696,-6.077 0,-0.508 0.36,-1.629 0.8,-2.492 1.811,-3.553 -0.381,-7.12 -3.471,-5.647 -1.578,0.753 -2.127,0.578 -2.133,-0.677 -0.014,-2.782 -5.984,-4.43 -14.496,-4 l -1.5,0.075 v -2.756 -2.757 l 1.993,0.236 c 1.323,0.156 2.195,0.068 2.595,-0.264 0.5,-0.415 0.847,-0.287 2.022,0.745 l 1.418,1.245 h 10.706 c 7.794,0 10.837,-0.131 11.186,-0.48 0.73,-0.73 0.573,-2.916 -0.285,-3.976 l -0.764,-0.944 -10.336,0.136 c -9.177,0.121 -10.425,0.215 -11.135,0.841 -1.408,1.239 -2.165,1.303 -2.44,0.205 -0.427,-1.699 -3.243,-1.898 -3.955,-0.28 -0.765,1.739 -1.005,0.852 -1.005,-3.71 v -4.608 l 8.394,0.042 c 7.936,0.039 8.452,-0.004 9.454,-0.792 0.583,-0.459 1.36,-0.834 1.726,-0.834 0.366,0 0.882,-0.216 1.146,-0.48 0.373,-0.373 0.587,-0.373 0.96,0 1.476,1.476 7.12,0.377 7.12,-1.386 0,-0.498 0.36,-1.099 0.8,-1.334 0.44,-0.235 0.8,-0.605 0.8,-0.821 0,-0.215 0.558,-0.884 1.239,-1.485 0.681,-0.602 1.531,-1.409 1.889,-1.794 0.665,-0.717 2.072,-0.966 2.072,-0.367 m 97.916,4.567 c -0.115,3.281 -0.202,3.437 -1.61,2.889 -0.511,-0.199 -0.8,0.005 -1.091,0.77 -0.701,1.845 -1.727,1.007 -1.327,-1.084 0.113,-0.591 0.421,-1.075 0.684,-1.075 0.974,0 2.628,-2.217 2.628,-3.522 0,-0.703 0.187,-1.278 0.416,-1.278 0.264,0 0.374,1.207 0.3,3.3 M 175.3,174.012 c -1.035,0.416 -1.205,1.785 -0.267,2.145 1.855,0.712 3.351,-0.292 2.581,-1.731 -0.478,-0.894 -0.922,-0.973 -2.314,-0.414 m 2.072,0.743 c 0.361,0.584 -0.75,1.228 -1.693,0.982 -0.483,-0.127 -0.879,-0.374 -0.879,-0.55 0,-0.678 2.192,-1.047 2.572,-0.432 M 95.7,175.706 c -1.479,0.873 -1.606,1.648 -0.623,3.807 1.182,2.598 1.282,21.387 0.131,24.466 -1.396,3.731 -1.055,5.389 1.139,5.546 1.31,0.094 1.961,-0.073 2.6,-0.668 0.469,-0.436 1.393,-0.852 2.053,-0.925 0.99,-0.109 1.223,-0.336 1.333,-1.295 0.171,-1.5 2.1,-3.437 3.422,-3.437 0.607,0 1.189,-0.322 1.445,-0.8 0.238,-0.446 0.838,-0.8 1.352,-0.8 0.508,0 1.235,-0.344 1.615,-0.764 0.381,-0.42 1.144,-0.878 1.697,-1.016 1.032,-0.259 1.578,-0.621 3.074,-2.036 1.722,-1.629 6.891,-2.364 12.862,-1.828 l 4.4,0.394 0.861,-1.074 c 0.632,-0.787 0.761,-1.26 0.487,-1.773 -0.511,-0.956 -0.209,-11.494 0.359,-12.542 0.901,-1.659 0.219,-1.761 -11.738,-1.761 -11.243,0 -11.273,-0.002 -11.877,-0.9 l -0.605,-0.9 -0.969,0.9 c -1.661,1.542 -3.898,1.256 -5.47,-0.7 -0.982,-1.222 -1.568,-1.6 -2.48,-1.6 -0.656,0 -1.773,-0.239 -2.481,-0.531 C 97.149,175 96.85,175.027 95.7,175.706 m 4.726,0.694 c 0.866,0 1.575,0.135 1.576,0.3 0.014,2.328 5.621,3.944 6.975,2.011 l 0.623,-0.889 0.623,0.889 c 0.618,0.883 0.696,0.889 12,0.889 6.257,0 11.377,0.102 11.377,0.226 0,0.125 -0.196,0.593 -0.435,1.04 -0.259,0.484 -0.445,3.429 -0.459,7.274 -0.024,6.443 -0.34,8.386 -1.223,7.503 -0.717,-0.717 -12.283,-0.568 -13.259,0.17 -0.428,0.323 -1.191,0.587 -1.697,0.587 -0.506,0 -1.145,0.36 -1.42,0.8 -0.275,0.44 -0.702,0.8 -0.949,0.8 -0.248,0 -0.908,0.36 -1.467,0.8 -0.56,0.44 -1.297,0.8 -1.64,0.8 -0.343,0 -0.816,0.36 -1.051,0.8 -0.25,0.467 -0.838,0.8 -1.411,0.8 -0.549,0 -1.202,0.353 -1.482,0.8 -0.275,0.44 -0.932,0.8 -1.461,0.8 -1.357,0 -3.636,2.316 -3.642,3.7 -0.003,0.955 -0.162,1.1 -1.208,1.1 -0.709,0 -1.485,0.329 -1.889,0.8 -0.491,0.574 -1.18,0.8 -2.436,0.8 h -1.752 l 0.191,-1.7 c 0.106,-0.935 0.476,-2.42 0.823,-3.3 0.917,-2.322 0.931,-22.023 0.017,-24.4 -1.121,-2.917 -1.113,-3.187 0.12,-3.643 0.658,-0.244 1.517,-0.28 2.056,-0.088 0.509,0.182 1.634,0.331 2.5,0.331 m 85.992,1.505 c -0.726,0.587 -0.805,0.878 -0.475,1.745 0.758,1.995 3.257,1.536 3.257,-0.599 0,-1.773 -1.33,-2.322 -2.782,-1.146 m 8.799,-0.126 c -0.667,0.805 -0.227,2.481 0.797,3.028 2.897,1.551 7.524,-0.509 6.129,-2.728 -0.602,-0.957 -6.18,-1.198 -6.926,-0.3 m -6.515,0.852 c 0.145,1.086 -0.505,1.93 -1.262,1.64 -0.755,-0.29 -0.862,-2.116 -0.14,-2.404 0.807,-0.323 1.293,-0.058 1.402,0.764 m 12.786,-0.531 c 1.359,1.763 -1.439,3.301 -4.573,2.514 -2.917,-0.732 -1.641,-3.014 1.685,-3.014 1.529,0 2.652,0.194 2.888,0.5 m -76.674,5.074 c -1.236,2.31 -0.175,4.569 2.046,4.353 2.62,-0.254 2.186,-5.127 -0.456,-5.127 -0.753,0 -1.325,0.278 -1.59,0.774 m 146.82,0.054 c 0.978,1.509 0.284,2.166 -2.422,2.293 -4.362,0.205 -5.31,-0.406 -3.555,-2.29 1.005,-1.078 5.279,-1.081 5.977,-0.003 m -144.056,0.546 c 1.066,1.283 0.356,3.226 -1.178,3.226 -1.293,0 -1.41,-0.101 -1.527,-1.326 -0.143,-1.483 0.47,-2.474 1.527,-2.474 0.386,0 0.916,0.258 1.178,0.574 m 155.599,1.526 c -0.476,0.385 -1.135,0.7 -1.464,0.7 -0.429,0 -0.505,0.199 -0.27,0.7 0.181,0.385 0.335,1.839 0.343,3.232 0.021,3.816 -0.511,3.668 13.221,3.668 h 11.654 l 0.969,-1.032 c 1.615,-1.719 1.494,-6.38 -0.189,-7.25 -1.937,-1.002 -23.028,-1.017 -24.264,-0.018 m 24.023,0.484 c 0.941,0.238 1,0.409 1,2.916 0,4.629 0.379,4.5 -13.209,4.5 h -11.373 l -0.598,-0.913 c -0.485,-0.74 -0.513,-1.192 -0.149,-2.378 0.373,-1.214 0.337,-1.637 -0.207,-2.467 -1.208,-1.845 0.098,-2.051 12.526,-1.976 6.056,0.037 11.46,0.18 12.01,0.318 m -113.377,0.705 c -2.257,3.222 1.411,6.088 3.941,3.08 1.32,-1.568 1.309,-1.666 -0.337,-2.922 -1.68,-1.281 -2.784,-1.329 -3.604,-0.158 m 116.748,-0.357 c -0.117,0.304 -0.158,1.703 -0.092,3.11 l 0.121,2.558 h 6.2 6.2 v -3 -3 l -6.109,-0.11 c -4.903,-0.089 -6.15,-0.002 -6.32,0.442 M 322.8,188.8 v 2.8 h -6 -6 v -2.8 -2.8 h 6 6 v 2.8 m -125.786,-1.754 c 1.236,0.81 1.242,1.374 0.028,2.515 -1.446,1.358 -3.203,1.039 -3.364,-0.611 -0.214,-2.203 1.44,-3.147 3.336,-1.904 m 6.99,-0.141 c -1.299,0.671 -1.455,1.644 -0.429,2.67 0.865,0.865 2.602,1.109 3.025,0.425 0.136,-0.22 1.199,-0.4 2.362,-0.4 1.636,0 2.285,-0.189 2.871,-0.836 1.093,-1.208 -0.06,-1.962 -3.009,-1.969 -1.223,-0.003 -2.584,-0.096 -3.024,-0.205 -0.44,-0.11 -1.248,0.032 -1.796,0.315 m -97.828,0.495 c -1.532,1.184 0.197,1.8 5.051,1.8 4.696,0 6.248,-0.625 4.581,-1.843 -1.106,-0.81 -8.572,-0.776 -9.632,0.043 m 102.357,-0.194 c 2.562,0.008 3.446,0.455 2.692,1.364 -0.347,0.418 -1.188,0.63 -2.5,0.63 -1.088,0 -2.307,0.176 -2.709,0.391 -0.825,0.442 -2.971,-0.925 -2.705,-1.724 0.175,-0.524 1.858,-1.055 2.622,-0.826 0.293,0.087 1.463,0.162 2.6,0.165 m 37.548,0.096 c -2.211,2.665 -0.778,3.498 6.016,3.498 6.476,0 7.107,-0.258 6.161,-2.522 l -0.617,-1.478 h -5.572 c -3.982,0 -5.69,0.143 -5.988,0.502 m -130.93,0.259 c 1.273,0.807 -0.106,1.239 -3.951,1.239 -3.758,0 -4.764,-0.287 -4.2,-1.2 0.303,-0.491 7.385,-0.524 8.151,-0.039 m 25.667,0.688 c 0.487,1.278 -0.096,2.151 -1.434,2.151 -2.158,0 -2.66,-0.743 -1.561,-2.311 0.884,-1.262 2.487,-1.177 2.995,0.16 m 24.625,-0.042 c 0.744,0.744 0.974,1.344 0.882,2.3 l -0.125,1.293 -11,-0.092 c -9.852,-0.083 -11.051,-0.164 -11.5,-0.777 -1.481,-2.025 0.432,-3.356 4.1,-2.852 1.54,0.212 3.07,0.343 3.4,0.292 0.33,-0.05 2.58,-0.114 5,-0.14 2.624,-0.028 4.723,-0.241 5.2,-0.527 1.323,-0.793 2.95,-0.591 4.043,0.503 m 92.333,0.317 c 0.579,1.647 -0.073,1.863 -5.643,1.87 -5.517,0.007 -6.133,-0.129 -6.133,-1.357 0,-1.679 0.659,-1.866 6.182,-1.748 l 5.2,0.111 0.394,1.124 m -155.356,0.452 c -0.858,1.034 -0.364,2.824 0.78,2.824 0.799,0 1.026,-0.226 1.129,-1.124 0.122,-1.068 -0.477,-2.276 -1.129,-2.276 -0.166,0 -0.517,0.259 -0.78,0.576 m 1.358,0.588 c 0.274,0.444 -0.144,1.636 -0.574,1.636 -0.388,0 -0.797,-1.474 -0.494,-1.777 0.333,-0.333 0.814,-0.27 1.068,0.141 m 90.322,9.197 c 0.778,0.101 0.17,0.804 -0.898,1.038 -0.658,0.145 -1.355,0.546 -1.548,0.891 -0.318,0.567 -0.442,0.564 -1.292,-0.031 -1.228,-0.86 -4.762,-0.914 -4.762,-0.073 0,0.322 -0.352,0.774 -0.783,1.005 -0.436,0.233 -0.898,1.036 -1.044,1.814 -0.322,1.713 -0.793,1.795 -1.113,0.195 -0.813,-4.064 3.475,-5.878 11.44,-4.839 m 97.1,2.039 c 0,0.22 -0.27,0.4 -0.6,0.4 -0.33,0 -0.6,-0.18 -0.6,-0.4 0,-0.22 0.27,-0.4 0.6,-0.4 0.33,0 0.6,0.18 0.6,0.4 m -126.34,2 c 0.23,0.66 0.563,1.2 0.74,1.2 0.177,0 0.51,-0.54 0.74,-1.2 l 0.418,-1.2 h 5.875 5.875 l 1.032,1.1 c 2.152,2.295 3.107,5.679 2.06,7.3 -0.286,0.443 -0.391,0.182 -0.4,-1 -0.015,-1.929 -0.495,-2.802 -1.36,-2.471 -0.424,0.163 -0.64,0.735 -0.64,1.695 0,0.844 -0.334,1.875 -0.8,2.467 -0.44,0.559 -0.8,1.579 -0.8,2.267 0,0.816 -0.277,1.423 -0.8,1.749 -0.606,0.378 -0.8,0.933 -0.8,2.282 0,1.373 -0.184,1.881 -0.8,2.211 -0.536,0.287 -0.8,0.838 -0.8,1.667 0,4.449 -7.78,8.933 -9.6,5.533 -0.344,-0.642 -0.839,-0.801 -2.514,-0.803 -1.409,-0.001 -2.476,-0.26 -3.286,-0.797 -0.66,-0.437 -1.691,-0.796 -2.291,-0.797 -1.535,-0.004 -2.599,-1.649 -1.966,-3.038 0.251,-0.552 0.457,-1.318 0.457,-1.703 0,-0.386 0.72,-1.45 1.6,-2.366 1.338,-1.392 1.6,-1.935 1.6,-3.311 0,-1.963 1.698,-3.985 3.346,-3.985 1.409,0 1.687,-0.701 0.696,-1.755 -0.962,-1.024 -1.207,-4.92 -0.362,-5.765 0.93,-0.93 2.331,-0.567 2.78,0.72 m 130.74,0.4 c 0,1.067 -0.133,1.2 -1.2,1.2 -1.171,0 -1.748,-1.319 -0.933,-2.133 0.814,-0.815 2.133,-0.238 2.133,0.933 m -139.789,0.418 c 0.142,0.229 0.083,0.634 -0.13,0.9 -0.214,0.265 -0.518,1.086 -0.676,1.824 -0.672,3.139 -1.778,4.853 -3.73,5.78 -2.015,0.957 -4.475,4.498 -4.475,6.442 0,0.808 -1.289,1.749 -2.6,1.899 -1.557,0.178 -2.006,-1.763 -0.631,-2.727 0.647,-0.452 0.831,-1.011 0.831,-2.516 0,-1.332 0.183,-2.005 0.587,-2.16 0.323,-0.124 0.86,-0.818 1.192,-1.543 0.881,-1.919 1.445,-2.69 3.121,-4.27 0.825,-0.778 1.5,-1.59 1.5,-1.805 0,-1.586 4.211,-3.119 5.011,-1.824 m 80.902,0.661 c 1.253,0.572 3.216,0.703 12.493,0.832 l 11.005,0.153 0.457,0.968 c 0.539,1.141 0.599,1.094 -2.486,1.954 -2.926,0.815 -19.685,0.708 -30.482,-0.194 l -6.5,-0.544 v -1.924 -1.924 h 7.013 c 5.745,0 7.281,0.123 8.5,0.679 m -19.41,0.296 c -0.494,0.273 -1.228,0.795 -1.632,1.161 -0.404,0.365 -1.215,0.664 -1.802,0.664 -0.802,0 -1.069,0.2 -1.069,0.8 0,0.44 -0.255,0.8 -0.567,0.8 -0.312,0 -1.295,0.675 -2.184,1.5 -0.889,0.825 -2.029,1.794 -2.533,2.153 -0.895,0.638 -0.921,0.851 -1.116,9.335 -0.23,9.992 -0.413,9.5 3.464,9.331 l 2.736,-0.119 0.2,-11 0.2,-11 2.868,-0.2 c 3.42,-0.238 3.339,-0.178 3.054,-2.308 -0.246,-1.831 -0.283,-1.856 -1.619,-1.117 m 0.858,1.49 c 0.333,0.476 0.513,1.016 0.399,1.2 -0.297,0.48 -5.36,0.418 -5.36,-0.065 0,-0.22 0.538,-0.4 1.197,-0.4 0.763,0 1.377,-0.29 1.696,-0.8 0.646,-1.035 1.312,-1.014 2.068,0.065 M 180.4,208.2 c 0,0.77 -0.18,1.4 -0.4,1.4 -0.22,0 -0.4,-0.63 -0.4,-1.4 0,-0.77 0.18,-1.4 0.4,-1.4 0.22,0 0.4,0.63 0.4,1.4 m 32,11 V 230 h -2.7 -2.7 l -0.088,-8.427 c -0.085,-8.25 -0.068,-8.444 0.8,-9.23 0.489,-0.442 1.608,-1.489 2.488,-2.327 0.88,-0.837 1.735,-1.544 1.9,-1.569 0.165,-0.026 0.3,4.813 0.3,10.753 m -31.8,-6.367 c 0,0.948 -0.184,1.367 -0.6,1.367 -0.64,0 -1.015,-1.462 -0.631,-2.462 0.405,-1.058 1.231,-0.323 1.231,1.095 m -1.8,-0.033 c 0,0.66 -0.18,1.2 -0.4,1.2 -0.22,0 -0.4,-0.54 -0.4,-1.2 0,-0.66 0.18,-1.2 0.4,-1.2 0.22,0 0.4,0.54 0.4,1.2 m 23,2.693 c -0.88,0.609 -1.744,1.332 -1.92,1.607 -0.176,0.275 -0.572,0.5 -0.88,0.5 -0.308,0 -0.704,0.226 -0.88,0.501 -0.176,0.276 -1.13,1.041 -2.12,1.7 -3.871,2.579 -4.786,4.164 -3.219,5.581 0.539,0.489 0.817,1.342 0.9,2.762 l 0.119,2.056 3.199,0.119 c 4.726,0.175 5.035,0.042 4.75,-2.04 -0.259,-1.889 0.158,-2.506 1.851,-2.741 l 1,-0.138 v -5.395 c 0,-6.155 -0.128,-6.362 -2.8,-4.512 m 2.6,4.507 v 5.2 h -1.151 c -1.563,0 -2.137,0.832 -1.988,2.88 l 0.125,1.72 -3.693,0.115 -3.693,0.115 v -2.201 c 0,-1.791 -0.149,-2.28 -0.8,-2.629 -1.303,-0.698 -0.068,-4 1.497,-4 0.325,0 3.199,-1.955 4.29,-2.919 0.447,-0.395 1.083,-0.957 1.413,-1.249 0.33,-0.292 0.989,-0.65 1.464,-0.797 0.475,-0.146 1.082,-0.529 1.349,-0.85 0.995,-1.2 1.187,-0.456 1.187,4.615 m -27.2,-3 c 0,0.99 -0.18,1.8 -0.4,1.8 -0.22,0 -0.4,-0.81 -0.4,-1.8 0,-0.99 0.18,-1.8 0.4,-1.8 0.22,0 0.4,0.81 0.4,1.8 m -1.57,3.11 c -0.016,0.16 -0.03,1.01 -0.03,1.89 0,0.88 -0.18,1.6 -0.4,1.6 -0.22,0 -0.4,-0.915 -0.4,-2.033 0,-1.273 0.161,-1.98 0.43,-1.89 0.236,0.078 0.417,0.273 0.4,0.433 m -31.23,3.137 c 0,0.194 -0.72,0.353 -1.6,0.353 -1.7,0 -2.213,-0.649 -0.7,-0.885 1.163,-0.181 2.3,0.081 2.3,0.532 m 43.754,2.346 c -0.466,0.188 -1.534,1.18 -2.374,2.205 -1.852,2.26 -1.531,2.658 2.02,2.505 l 2.4,-0.103 0.128,-1.562 c 0.25,-3.062 -0.283,-3.809 -2.174,-3.045 M 190,228.024 V 230 h -2.133 c -1.174,0 -2.247,-0.114 -2.386,-0.253 -0.58,-0.58 1.894,-3.548 3.205,-3.845 1.139,-0.257 1.314,0.025 1.314,2.122"
       inkscape:connector-curvature="0"
       style="fill:#747474;fill-rule:evenodd;stroke:none" />
    <path
       id="path3"
       d="m 167.218,171.975 c -1.42,1.526 -2.734,3.187 -2.92,3.689 -0.674,1.823 -4.118,2.221 -5.772,0.666 l -0.926,-0.869 -0.926,0.869 c -0.509,0.479 -1.291,0.87 -1.738,0.87 -0.447,0 -1.138,0.36 -1.536,0.8 -0.68,0.751 -1.232,0.8 -9.013,0.8 -7.029,0 -8.368,0.095 -8.808,0.625 -0.471,0.567 -0.552,0.567 -0.869,0 -0.305,-0.544 -1.843,-0.625 -11.916,-0.625 -11.156,0 -11.581,-0.028 -11.994,-0.8 -0.496,-0.927 -1.695,-1.049 -2.365,-0.242 -1.183,1.425 -3.229,1.194 -4.706,-0.532 -1.048,-1.225 -1.685,-1.626 -2.581,-1.626 -0.654,0 -1.909,-0.405 -2.789,-0.9 l -1.6,-0.9 -0.68,0.819 c -0.373,0.451 -0.994,0.941 -1.379,1.088 -0.951,0.364 -0.915,2.542 0.1,6.093 1.202,4.203 1.19,18.188 -0.018,20.839 -0.621,1.364 -0.789,2.441 -0.7,4.478 l 0.118,2.683 2.476,0.118 c 2.129,0.102 2.536,0.008 2.901,-0.674 0.26,-0.486 0.928,-0.842 1.724,-0.919 1.102,-0.106 1.319,-0.302 1.432,-1.288 0.171,-1.5 2.1,-3.437 3.422,-3.437 0.607,0 1.189,-0.322 1.445,-0.8 0.279,-0.521 0.838,-0.8 1.6,-0.8 0.762,0 1.321,-0.279 1.6,-0.8 0.25,-0.467 0.838,-0.8 1.411,-0.8 0.549,0 1.202,-0.353 1.482,-0.8 0.275,-0.44 0.704,-0.8 0.954,-0.8 0.251,0 0.724,-0.405 1.053,-0.9 0.584,-0.88 0.78,-0.902 8.653,-0.97 l 8.055,-0.07 1.13,-1.066 1.129,-1.066 -0.156,-5.864 c -0.16,-6.007 0.042,-8.464 0.696,-8.464 0.215,0 0.36,3.272 0.346,7.816 -0.031,9.792 -0.671,8.984 7.117,8.984 6.133,0 6.182,0.007 7.551,1.1 1.679,1.34 1.991,3.926 0.579,4.807 -0.44,0.275 -0.8,0.859 -0.8,1.299 0,0.439 -1.08,1.906 -2.4,3.259 -1.53,1.568 -2.4,2.795 -2.4,3.383 0,0.514 -0.355,1.114 -0.8,1.352 -0.634,0.339 -0.8,0.838 -0.8,2.4 0,1.585 -0.163,2.059 -0.828,2.415 -0.697,0.373 -0.811,0.766 -0.72,2.476 0.095,1.797 0.002,2.071 -0.8,2.368 -2.003,0.741 -0.937,2.126 1.742,2.264 1.357,0.069 2.668,0.371 3.027,0.696 0.349,0.316 1.577,0.753 2.729,0.972 1.152,0.218 2.368,0.67 2.701,1.003 0.386,0.386 1.361,0.606 2.681,0.606 1.642,0 2.18,0.167 2.575,0.8 0.416,0.666 0.933,0.8 3.082,0.8 2.173,0 2.651,0.127 3.011,0.8 0.341,0.636 0.838,0.8 2.43,0.8 1.408,0 2.34,0.25 3.141,0.842 0.889,0.657 1.581,0.81 3.165,0.7 1.786,-0.125 2.076,-0.035 2.437,0.758 0.602,1.323 1.648,1.096 3.227,-0.7 0.845,-0.961 1.756,-1.594 2.297,-1.596 0.493,-0.002 1.121,-0.364 1.396,-0.804 0.275,-0.44 0.72,-0.8 0.989,-0.8 0.269,0 0.67,-0.338 0.891,-0.75 0.506,-0.945 2.027,-1.405 2.027,-0.613 0,0.31 -0.161,0.563 -0.357,0.563 -0.615,0 -0.879,1.274 -0.388,1.866 0.346,0.417 1.266,0.535 3.507,0.45 l 3.038,-0.116 0.121,-2.573 c 0.098,-2.075 -0.034,-2.784 -0.681,-3.659 l -0.803,-1.085 1.561,-1.082 c 0.859,-0.595 1.795,-0.985 2.081,-0.868 0.335,0.137 0.199,0.311 -0.379,0.487 -1.2,0.365 -1.277,2.915 -0.119,3.962 0.539,0.489 0.817,1.342 0.9,2.762 l 0.119,2.056 4.206,0.113 c 4.895,0.131 6.369,-0.393 5.089,-1.808 -1.268,-1.401 -0.701,-2.689 1.305,-2.967 l 1,-0.138 v -5.8 -5.8 l -1.4,-0.231 c -1.4,-0.23 -1.4,-0.23 -0.384,-0.658 0.559,-0.235 1.257,-0.716 1.549,-1.069 0.293,-0.353 0.691,-0.642 0.884,-0.642 0.453,0 0.426,14.033 -0.032,16.4 -0.504,2.612 -0.156,2.851 3.944,2.715 L 213,230.6 l 0.2,-10.715 c 0.227,-12.14 0.015,-11.469 3.62,-11.479 1.221,-0.003 2.416,-0.202 2.655,-0.441 0.313,-0.313 0.51,-0.313 0.703,0 0.148,0.239 0.86,0.435 1.582,0.435 0.722,0 2.196,0.296 3.276,0.659 3.451,1.158 32.419,1.306 34.585,0.177 1.382,-0.721 2.309,-0.836 6.711,-0.836 h 5.107 l 1.642,-1.578 c 1.568,-1.507 1.711,-1.56 3.133,-1.167 0.819,0.226 1.847,0.318 2.284,0.204 0.437,-0.115 1.123,-0.003 1.526,0.249 0.584,0.365 0.895,0.308 1.549,-0.284 0.911,-0.824 6.5,-0.711 7.36,0.149 1.766,1.766 7.467,-0.471 7.467,-2.93 0,-2.811 -4.579,-4.505 -8.2,-3.033 -2.828,1.15 -13.491,1.395 -14.452,0.332 -0.37,-0.408 -0.925,-0.742 -1.234,-0.742 -0.308,0 -0.45,-0.18 -0.314,-0.4 0.136,-0.22 0.565,-0.4 0.952,-0.4 1.357,0 3.848,-2.249 3.848,-3.474 0,-1.012 0.151,-1.139 1.499,-1.25 0.979,-0.081 1.641,-0.39 1.909,-0.891 0.403,-0.753 0.424,-0.753 1.201,0.024 0.754,0.754 1.372,0.791 13.102,0.791 h 12.311 l 1.33,-1.215 c 0.988,-0.902 1.462,-1.105 1.843,-0.79 0.327,0.272 2.802,0.386 6.859,0.315 l 6.346,-0.11 v -3.4 -3.4 h -6.6 -6.6 l -0.119,2.5 c -0.153,3.203 -0.881,3.275 -0.881,0.087 0,-1.93 -0.14,-2.465 -0.7,-2.675 -0.385,-0.144 -0.898,-0.526 -1.14,-0.849 -0.632,-0.843 -23.722,-0.799 -24.35,0.047 -0.805,1.083 -2.22,1.115 -2.622,0.058 -0.322,-0.846 -0.621,-0.968 -2.364,-0.968 -1.586,0 -2.084,-0.164 -2.424,-0.8 -0.275,-0.514 -0.838,-0.8 -1.575,-0.8 -1.964,0 -3.982,-5.547 -2.791,-7.676 0.605,-1.081 -0.674,-3.603 -1.75,-3.45 -0.671,0.096 -0.914,0.438 -1.009,1.416 -0.088,0.919 -0.577,1.677 -1.7,2.638 -0.866,0.742 -1.575,1.525 -1.575,1.741 0,1.343 -1.872,2.131 -5.064,2.131 -2.738,0 -3.322,0.122 -3.96,0.826 -1.041,1.15 -12.766,1.044 -13.934,-0.126 -0.516,-0.516 -1.35,-0.7 -3.182,-0.7 -1.629,0 -2.796,-0.22 -3.397,-0.641 -1.433,-1.004 -12.89,-1.061 -14.39,-0.072 -0.802,0.529 -1.881,0.707 -4.273,0.706 l -3.2,-0.001 -1.4,-1.592 c -0.952,-1.083 -1.732,-1.593 -2.438,-1.596 -0.571,-0.002 -1.364,-0.364 -1.762,-0.804 -0.398,-0.44 -1.196,-0.8 -1.773,-0.8 -0.577,0 -1.357,-0.36 -1.734,-0.8 -0.39,-0.456 -1.18,-0.8 -1.835,-0.8 -0.633,0 -1.608,-0.36 -2.167,-0.8 -0.56,-0.44 -1.477,-0.8 -2.04,-0.8 -0.613,0 -1.194,-0.32 -1.451,-0.8 -0.411,-0.769 -0.838,-0.8 -10.944,-0.8 h -10.517 l -0.939,1 c -1.16,1.234 -1.508,1.255 -1.672,0.1 -0.312,-2.194 -3.028,-1.424 -5.91,1.675 m 5.443,-1.76 c 0.15,0.391 -0.363,1.202 -1.413,2.231 -1.615,1.583 -2.171,3.154 -1.115,3.154 0.292,0 1.745,-1.35 3.228,-3 l 2.695,-3 h 10.11 c 9.602,0 10.146,0.04 10.834,0.8 0.404,0.447 1.232,0.8 1.875,0.8 0.644,0 1.25,0.259 1.376,0.589 0.125,0.324 0.884,0.701 1.688,0.838 0.803,0.136 1.949,0.591 2.545,1.01 0.596,0.42 1.501,0.763 2.011,0.763 0.51,0 1.235,0.36 1.612,0.8 0.377,0.44 1.116,0.8 1.643,0.8 0.615,0 1.494,0.595 2.462,1.666 l 1.506,1.666 3.385,-0.079 c 1.863,-0.043 3.861,-0.315 4.442,-0.605 1.545,-0.77 12.5,-0.786 13.968,-0.02 0.598,0.312 2.203,0.568 3.567,0.57 1.945,0.001 2.565,0.153 2.872,0.702 0.658,1.179 12.722,1.291 14.591,0.135 1.041,-0.643 2.009,-0.835 4.219,-0.835 2.549,0 2.965,-0.11 3.752,-0.994 0.487,-0.547 1.651,-1.791 2.586,-2.764 1.086,-1.131 1.7,-2.136 1.7,-2.783 0,-1.322 0.779,-1.776 1.457,-0.848 0.558,0.763 0.536,6.83 -0.028,7.743 -0.162,0.261 0.127,0.601 0.692,0.816 0.533,0.203 1.067,0.742 1.187,1.199 0.161,0.615 0.538,0.831 1.451,0.831 0.801,0 1.41,0.281 1.734,0.8 0.386,0.619 0.933,0.8 2.412,0.8 1.664,0 1.973,0.133 2.379,1.024 0.493,1.082 1.801,1.101 3.075,0.044 1.162,-0.965 23.311,-0.698 24.538,0.296 1.562,1.265 1.744,5.651 0.297,7.175 l -0.994,1.047 -12,10e-4 c -6.6,0 -12.198,-0.131 -12.44,-0.293 -0.817,-0.545 -1.265,-1.886 -1.067,-3.189 0.242,-1.599 -0.201,-3.557 -0.695,-3.063 -0.196,0.197 -0.411,1.599 -0.478,3.116 -0.132,3.028 -0.293,3.234 -2.847,3.644 -1.423,0.228 -1.51,0.319 -1.282,1.355 0.476,2.171 -2.229,3.443 -7.325,3.443 -3.002,0 -4.245,0.142 -4.365,0.5 -0.201,0.599 -0.096,0.614 4.574,0.662 3.282,0.034 3.766,0.135 4.526,0.949 1.068,1.143 12.916,1.07 15.166,-0.094 3.602,-1.863 9.618,1.85 6.588,4.065 -1.517,1.11 -2.498,0.669 -2.632,-1.182 -0.169,-2.342 -3.012,-2.661 -3.737,-0.419 -0.228,0.704 -0.532,1.399 -0.677,1.543 -0.409,0.409 -11.905,0.727 -13.116,0.364 -0.342,-0.103 -1.334,0.524 -2.276,1.438 l -1.67,1.621 -5.124,-0.099 c -4.436,-0.085 -5.311,0.006 -6.523,0.677 -3.489,1.931 -39.067,0.527 -38.967,-1.538 0.019,-0.378 0.064,-1.407 0.1,-2.287 l 0.067,-1.6 h 7.929 c 5.757,0 8.414,0.156 9.7,0.569 1.254,0.402 4.69,0.625 11.763,0.762 9.59,0.185 10.015,0.227 10.549,1.031 0.561,0.844 2.222,1.146 2.634,0.478 0.349,-0.565 -1.861,-2.84 -2.764,-2.844 -0.446,-0.003 -1.711,-0.29 -2.811,-0.639 -3.113,-0.988 -35.246,-1.664 -36.961,-0.777 -0.659,0.341 -1.474,0.62 -1.809,0.62 -0.636,0 -0.575,1.279 0.175,3.675 0.454,1.452 -0.075,1.794 -3.097,2.003 -3.318,0.229 -3.082,-0.586 -3.308,11.455 l -0.2,10.667 h -3.2 -3.2 l 0.025,-1.1 c 0.014,-0.605 0.059,-4.61 0.1,-8.9 0.083,-8.636 -0.102,-8.014 3.024,-10.2 0.786,-0.55 1.434,-1.212 1.44,-1.472 0.006,-0.26 0.416,-0.53 0.911,-0.6 0.495,-0.07 0.9,-0.383 0.9,-0.695 0,-0.919 -0.906,-0.951 -1.67,-0.06 -0.389,0.455 -0.905,0.827 -1.146,0.827 -0.241,0 -1.146,0.64 -2.011,1.422 -0.865,0.782 -2.113,1.655 -2.773,1.941 -0.66,0.285 -1.766,1.041 -2.459,1.678 -1.306,1.203 -1.855,1.611 -4.041,3.008 -0.715,0.456 -1.3,0.992 -1.3,1.191 0,0.198 -0.268,0.36 -0.597,0.36 -0.328,0 -0.821,0.36 -1.096,0.8 -0.275,0.44 -0.698,0.8 -0.941,0.8 -0.243,0 -0.768,0.36 -1.166,0.8 -0.398,0.44 -0.94,0.8 -1.204,0.8 -0.263,0 -0.965,0.45 -1.558,1 -0.594,0.55 -1.25,1 -1.459,1 -0.208,0 -0.379,0.25 -0.379,0.557 0,0.306 -0.495,0.68 -1.1,0.832 -0.605,0.152 -1.406,0.576 -1.781,0.943 -1.981,1.943 -6.318,5.268 -6.871,5.268 -0.251,0 -1.238,0.759 -2.194,1.687 -1.659,1.61 -1.763,1.652 -2.296,0.923 -0.882,-1.206 -0.73,-3.672 0.242,-3.926 0.591,-0.155 0.8,-0.546 0.8,-1.499 0,-0.71 0.341,-1.852 0.758,-2.538 0.917,-1.509 1.465,-4.462 0.895,-4.814 -0.664,-0.411 -1.173,0.995 -0.953,2.633 0.182,1.363 0.11,1.534 -0.647,1.534 -0.615,0 -0.856,0.251 -0.863,0.9 -0.058,4.994 -3.027,7.855 -6.15,5.925 -0.828,-0.512 -2.015,-0.825 -3.125,-0.825 -1.283,0 -1.996,-0.227 -2.515,-0.8 -0.548,-0.605 -1.232,-0.8 -2.808,-0.8 -1.478,0 -2.38,-0.232 -3.101,-0.8 -0.717,-0.564 -1.623,-0.8 -3.067,-0.8 -1.389,0 -2.118,-0.181 -2.264,-0.561 -0.119,-0.308 -0.872,-0.683 -1.674,-0.834 -0.802,-0.15 -2.005,-0.573 -2.672,-0.939 -0.668,-0.366 -2.37,-0.756 -3.783,-0.866 -2.909,-0.227 -3.633,-0.967 -1.671,-1.707 1.282,-0.484 1.53,-0.866 0.84,-1.293 -0.714,-0.441 -0.448,-2.832 0.4,-3.6 0.558,-0.505 0.8,-1.232 0.8,-2.4 0,-1.168 0.242,-1.895 0.8,-2.4 0.44,-0.398 0.8,-1.014 0.8,-1.368 0,-0.354 1.08,-1.84 2.4,-3.302 1.32,-1.463 2.4,-2.864 2.4,-3.114 0,-0.25 0.438,-0.86 0.973,-1.356 1.421,-1.317 1.036,-3.818 -0.84,-5.465 -1.347,-1.183 -1.411,-1.196 -6.447,-1.26 -2.797,-0.036 -5.716,-0.081 -6.486,-0.1 l -1.4,-0.035 -0.2,-8.321 c -0.12,-5.009 -0.049,-8.472 0.18,-8.7 0.214,-0.214 3.901,-0.379 8.446,-0.379 7.46,0 8.142,-0.06 9.083,-0.8 0.56,-0.44 1.264,-0.8 1.565,-0.8 0.301,0 0.948,-0.28 1.437,-0.623 0.805,-0.563 0.973,-0.563 1.778,0 1.818,1.274 5.787,0.679 6.172,-0.925 0.724,-3.014 7.255,-7.779 8,-5.837 m -0.261,3.022 c 0,0.241 -0.36,0.532 -0.8,0.647 -0.44,0.115 -0.8,0.458 -0.8,0.763 0,0.304 -0.18,0.553 -0.4,0.553 -0.667,0 -0.45,-0.722 0.475,-1.584 0.972,-0.905 1.525,-1.042 1.525,-0.379 m 3.3,1.43 c -0.873,0.349 -0.539,0.933 0.533,0.933 0.62,0 0.97,-0.19 0.875,-0.475 -0.187,-0.563 -0.716,-0.735 -1.408,-0.458 M 98.538,175.4 c 0.79,0.33 1.92,0.6 2.511,0.6 0.761,0 1.48,0.474 2.466,1.626 1.47,1.718 4.152,2 5.005,0.527 0.451,-0.78 1.235,-0.687 2.08,0.247 0.692,0.764 1.232,0.8 12.075,0.8 12.131,0 12.373,0.041 11.355,1.945 -0.588,1.097 -0.863,9.882 -0.37,11.803 0.524,2.046 -1.078,4.053 -2.734,3.424 -3.631,-1.38 -13.941,-0.075 -16.582,2.1 -1.02,0.84 -2.147,1.528 -2.503,1.528 -0.357,0 -0.957,0.36 -1.334,0.8 -0.377,0.44 -1.067,0.8 -1.534,0.8 -0.467,0 -1.175,0.36 -1.573,0.8 -0.398,0.44 -1.111,0.8 -1.584,0.8 -1.093,0 -3.308,2.289 -3.483,3.6 -0.095,0.717 -0.416,1.038 -1.133,1.135 -0.55,0.074 -1.383,0.49 -1.851,0.924 -0.656,0.608 -1.298,0.76 -2.8,0.665 L 94.6,209.4 94.475,207.421 c -0.082,-1.288 0.128,-2.541 0.6,-3.589 1.05,-2.333 1.054,-21.081 0.005,-23.782 -1.438,-3.702 0.261,-5.986 3.458,-4.65 m 97.508,2.563 c -2.211,1.4 2.104,3.675 4.921,2.594 2.203,-0.845 0.411,-2.96 -2.5,-2.951 -1.027,0.003 -2.116,0.164 -2.421,0.357 m -9.027,0.407 c -0.346,0.559 0.569,2.206 0.985,1.773 0.646,-0.673 0.606,-1.912 -0.067,-2.051 -0.364,-0.075 -0.778,0.05 -0.918,0.278 M 201,179.2 c 0,1.379 -3.218,1.707 -4.36,0.444 -1.098,-1.213 -0.449,-1.696 2.095,-1.563 2.118,0.111 2.265,0.184 2.265,1.119 m 66.732,3.521 c -2.1,0.153 -3.497,1.748 -2.158,2.465 1.099,0.588 5.438,0.525 5.931,-0.086 1.19,-1.477 -0.605,-2.609 -3.773,-2.379 m 3.467,1.276 c 0.544,1.018 0.145,1.203 -2.599,1.203 -2.759,0 -3.144,-0.183 -2.585,-1.229 0.678,-1.265 4.503,-1.246 5.184,0.026 m -146.25,0.665 c -0.342,1.36 0.256,2.305 1.557,2.461 1.174,0.141 1.729,-0.93 1.322,-2.552 -0.366,-1.459 -2.507,-1.392 -2.879,0.091 m 2.451,0.738 c 0,1.012 -0.156,1.2 -0.995,1.2 -1.032,0 -1.485,-0.893 -1.041,-2.051 0.444,-1.157 2.036,-0.491 2.036,0.851 m 195.6,3.4 v 3 l -6.3,0.11 c -4.879,0.085 -6.311,-0.005 -6.348,-0.4 -0.101,-1.084 0.139,-5.326 0.319,-5.62 0.104,-0.171 2.92,-0.261 6.259,-0.2 l 6.07,0.11 v 3 m -128.258,-1.848 c -1.695,0.842 -1.297,3.448 0.526,3.448 0.694,0 2.736,-1.764 2.729,-2.358 -0.007,-0.752 -2.355,-1.537 -3.255,-1.09 m -87.661,0.736 c -0.996,0.646 0.62,1.002 4.229,0.932 2.399,-0.046 3.694,-0.232 3.798,-0.545 0.185,-0.555 0.45,-0.514 -4.027,-0.617 -1.936,-0.045 -3.736,0.059 -4,0.23 m 31.219,-0.056 c -0.857,0.499 -0.925,2.307 -0.099,2.624 1.157,0.444 2.599,-0.213 2.599,-1.184 0,-1.606 -1.113,-2.248 -2.5,-1.44 m 24.1,-0.148 c -0.33,0.121 -0.986,0.69 -1.458,1.264 -0.809,0.982 -0.941,1.013 -2.27,0.533 -0.816,-0.296 -3.151,-0.503 -5.541,-0.493 -4.971,0.022 -6.567,-0.09 -6.964,-0.488 -1.13,-1.13 -3.016,0.913 -2.219,2.402 0.481,0.9 20.848,1.626 21.952,0.782 1.815,-1.386 -1.209,-4.843 -3.5,-4 m 34.026,0.13 c 1.068,0.572 -0.085,2.492 -1.385,2.306 -1.124,-0.16 -1.423,-2.165 -0.364,-2.44 0.398,-0.103 0.78,-0.208 0.849,-0.234 0.07,-0.025 0.475,0.14 0.9,0.368 m 7.314,0.197 c -0.323,0.844 0.347,1.477 1.52,1.435 6.292,-0.228 8.047,-1.77 2.233,-1.962 -2.921,-0.096 -3.547,-0.008 -3.753,0.527 m 43.133,-0.236 c -0.637,0.432 -0.883,1.731 -0.431,2.276 0.623,0.751 10.556,0.795 11.024,0.049 0.409,-0.651 0.177,-2.017 -0.407,-2.404 -0.516,-0.342 -9.67,-0.271 -10.186,0.079 M 109.2,188 c 0,0.22 -0.36,0.4 -0.8,0.4 -0.44,0 -0.8,-0.18 -0.8,-0.4 0,-0.22 0.36,-0.4 0.8,-0.4 0.44,0 0.8,0.18 0.8,0.4 m 5.2,0 c 0,0.22 -0.27,0.4 -0.6,0.4 -0.33,0 -0.6,-0.18 -0.6,-0.4 0,-0.22 0.27,-0.4 0.6,-0.4 0.33,0 0.6,0.18 0.6,0.4 m 25.8,0.805 c 0,0.788 -0.229,1.021 -1.1,1.122 -1.208,0.139 -1.552,-0.915 -0.608,-1.859 0.772,-0.772 1.708,-0.369 1.708,0.737 m 24.93,-0.211 c 1.601,1.689 1.072,2.806 -1.33,2.806 h -2 l 0.05,-1.545 c 0.076,-2.38 1.646,-2.983 3.28,-1.261 m 45.67,-0.628 c 0,0.378 -4.862,0.775 -6.1,0.497 -1.804,-0.404 -0.367,-0.863 2.7,-0.863 1.87,0 3.4,0.165 3.4,0.366 m 46.327,0.934 0.126,1.1 h -5.226 c -5.209,0 -5.227,-0.003 -5.227,-0.933 0,-1.355 -0.036,-1.346 5.304,-1.305 l 4.896,0.038 0.127,1.1 m -111.43,1.294 c 0.131,0.685 0.014,1.006 -0.365,1.006 -0.684,0 -1.102,-0.981 -0.778,-1.825 0.322,-0.839 0.906,-0.42 1.143,0.819 M 102.8,190.2 c 0,0.55 0.18,1 0.4,1 0.22,0 0.4,-0.45 0.4,-1 0,-0.55 -0.18,-1 -0.4,-1 -0.22,0 -0.4,0.45 -0.4,1 m 81.272,9.736 c -1.273,1.136 -1.923,4.464 -0.872,4.464 0.22,0 0.4,-0.456 0.4,-1.013 0,-2.701 5.7,-5.09 7.026,-2.945 0.125,0.203 0.612,0.096 1.089,-0.238 0.475,-0.332 1.183,-0.604 1.574,-0.604 0.391,0 0.711,-0.18 0.711,-0.4 0,-1.09 -8.597,-0.453 -9.928,0.736 M 267.6,199.2 c 0,0.22 -0.54,0.4 -1.2,0.4 -0.66,0 -1.2,-0.18 -1.2,-0.4 0,-0.22 0.54,-0.4 1.2,-0.4 0.66,0 1.2,0.18 1.2,0.4 m -110.718,2.749 c -0.384,0.238 -0.369,0.646 0.07,1.877 0.557,1.561 0.733,1.483 1.171,-0.511 0.222,-1.012 -0.51,-1.817 -1.241,-1.366 m 5.859,-0.079 c -1.359,0.356 -1.57,4.277 -0.315,5.872 0.94,1.196 0.737,1.858 -0.571,1.858 -1.513,0 -3.455,2.37 -3.457,4.219 -0.001,1.255 -0.297,1.902 -1.433,3.14 -2.804,3.053 -2.813,7.038 -0.016,7.044 0.688,0.001 1.791,0.36 2.451,0.797 0.758,0.502 1.877,0.796 3.038,0.797 1.328,0.002 2.039,0.225 2.562,0.803 2.665,2.945 9.4,-1.22 9.4,-5.812 0,-0.55 0.341,-1.142 0.8,-1.388 0.634,-0.339 0.8,-0.838 0.8,-2.4 0,-1.562 0.166,-2.061 0.8,-2.4 0.554,-0.297 0.8,-0.838 0.8,-1.76 0,-0.733 0.346,-1.772 0.769,-2.31 0.423,-0.537 0.828,-1.597 0.9,-2.354 0.17,-1.784 1.931,-2.335 1.931,-0.604 0,0.565 0.18,1.028 0.4,1.028 1.135,0 -0.473,-3.954 -2.333,-5.736 l -1.135,-1.087 -5.566,0.111 -5.566,0.112 -0.572,1.3 c -0.713,1.62 -0.939,1.623 -1.656,0.024 -0.597,-1.333 -0.934,-1.541 -2.031,-1.254 m 1.866,2.159 c 0.565,2.32 1.424,2.307 1.992,-0.029 l 0.438,-1.8 5.501,-0.111 5.501,-0.112 1.18,1.181 c 1.371,1.37 1.536,2.656 0.381,2.958 -0.589,0.154 -0.8,0.546 -0.8,1.483 0,0.701 -0.36,1.732 -0.8,2.292 -0.44,0.559 -0.8,1.616 -0.8,2.349 0,0.922 -0.246,1.463 -0.8,1.76 -0.634,0.339 -0.8,0.838 -0.8,2.4 0,1.562 -0.166,2.061 -0.8,2.4 -0.555,0.297 -0.8,0.838 -0.8,1.765 0,0.735 -0.263,1.555 -0.585,1.822 -0.321,0.267 -0.705,0.867 -0.853,1.334 -0.885,2.786 -6.209,4.434 -7.362,2.279 -0.341,-0.638 -0.838,-0.8 -2.451,-0.8 -1.417,0 -2.327,-0.24 -3.04,-0.8 -0.563,-0.443 -1.623,-0.8 -2.373,-0.8 -2.854,0 -2.073,-6.217 0.925,-7.368 0.344,-0.132 0.539,-0.873 0.539,-2.05 0,-2.174 1.5,-4.028 3.437,-4.249 1.453,-0.166 1.751,-1.458 0.581,-2.517 -1.513,-1.369 -0.737,-5.856 0.916,-5.305 0.243,0.081 0.636,0.944 0.873,1.918 m 89.479,-1.455 c 0.943,0.315 3.034,0.7 4.648,0.855 2.558,0.245 2.988,0.402 3.365,1.228 0.579,1.272 0.014,1.741 -0.826,0.686 -0.83,-1.043 -5.525,-1.523 -13.473,-1.379 -3.715,0.068 -5.881,-0.085 -7.584,-0.535 -1.812,-0.478 -4.432,-0.629 -10.924,-0.629 -5.591,0 -8.454,-0.138 -8.292,-0.4 0.425,-0.687 30.994,-0.527 33.086,0.174 m 38.314,0.602 c 0,1.395 -0.493,1.788 -1.823,1.454 -1.839,-0.462 -1.271,-2.63 0.69,-2.63 0.987,0 1.133,0.151 1.133,1.176 m -76.75,0.306 c -0.303,0.12 -0.865,0.533 -1.25,0.918 -0.385,0.385 -0.947,0.79 -1.25,0.9 -0.405,0.147 -0.433,0.325 -0.108,0.672 0.48,0.512 2.558,0.183 2.558,-0.405 0,-0.191 0.546,-0.629 1.213,-0.974 1.759,-0.909 0.752,-1.872 -1.163,-1.111 m 4.75,1.318 c 0,0.88 -0.18,1.6 -0.4,1.6 -0.22,0 -0.4,-0.72 -0.4,-1.6 0,-0.88 0.18,-1.6 0.4,-1.6 0.22,0 0.4,0.72 0.4,1.6 m -64.52,1.071 c -0.676,1.094 -0.807,4.129 -0.178,4.129 0.394,0 0.666,-0.472 0.766,-1.328 0.191,-1.644 -0.188,-3.449 -0.588,-2.801 m -2.357,5.656 c -0.288,0.4 -1.24,1.075 -2.117,1.5 -0.932,0.451 -1.832,1.272 -2.165,1.973 -0.314,0.66 -0.722,1.47 -0.907,1.8 -0.185,0.33 -0.515,1.05 -0.735,1.6 -0.743,1.863 -1.075,2.199 -2.538,2.571 -0.804,0.203 -1.461,0.51 -1.461,0.681 0,0.555 2.943,0.918 3.121,0.385 0.088,-0.265 0.545,-0.84 1.014,-1.277 0.573,-0.534 0.813,-1.173 0.732,-1.949 -0.087,-0.823 0.107,-1.276 0.673,-1.579 0.437,-0.234 0.914,-0.967 1.059,-1.629 0.219,-0.993 0.463,-1.203 1.402,-1.203 1.366,0 3.599,-1.759 3.599,-2.836 0,-0.968 -0.992,-0.99 -1.677,-0.037 m 26.077,1.297 c 0,0.98 0.158,1.525 0.4,1.376 0.22,-0.136 0.4,-0.867 0.4,-1.624 0,-0.757 -0.18,-1.376 -0.4,-1.376 -0.22,0 -0.4,0.731 -0.4,1.624 M 153,213.6 c -0.136,0.22 -0.496,0.4 -0.8,0.4 -0.304,0 -0.664,-0.18 -0.8,-0.4 -0.141,-0.228 0.204,-0.4 0.8,-0.4 0.596,0 0.941,0.172 0.8,0.4 m 51.6,6.375 v 5.374 l -1.295,0.336 c -1.368,0.354 -1.705,1.064 -1.575,3.315 l 0.07,1.2 h -4 -4 l -0.215,-2.136 c -0.144,-1.439 -0.438,-2.262 -0.9,-2.52 -0.965,-0.541 -0.835,-2.353 0.256,-3.544 0.906,-0.989 1.221,-1.228 3.759,-2.849 0.715,-0.456 1.3,-0.992 1.3,-1.191 0,-0.198 0.268,-0.36 0.597,-0.36 0.328,0 0.821,-0.36 1.096,-0.8 0.275,-0.44 0.699,-0.8 0.942,-0.8 0.243,0 0.867,-0.368 1.385,-0.817 2.183,-1.893 2.58,-1.155 2.58,4.792 M 178,218.224 c 0,0.847 0.162,1.323 0.4,1.176 0.22,-0.136 0.4,-0.777 0.4,-1.424 0,-0.647 -0.18,-1.176 -0.4,-1.176 -0.22,0 -0.4,0.641 -0.4,1.424 m 12.219,7.508 c 0.128,0.513 0.177,1.728 0.107,2.7 l -0.126,1.768 -2.705,0.118 c -2.815,0.124 -3.716,-0.402 -2.739,-1.597 1.773,-2.169 2.781,-3.13 3.644,-3.473 1.447,-0.575 1.56,-0.545 1.819,0.484"
       inkscape:connector-curvature="0"
       style="fill:#9d9d9d;fill-rule:evenodd;stroke:none" />
  </g>
</svg>
