<?xml version="1.0" encoding="UTF-8" standalone="no"?>
<svg
   xmlns:dc="http://purl.org/dc/elements/1.1/"
   xmlns:cc="http://creativecommons.org/ns#"
   xmlns:rdf="http://www.w3.org/1999/02/22-rdf-syntax-ns#"
   xmlns:svg="http://www.w3.org/2000/svg"
   xmlns="http://www.w3.org/2000/svg"
   xmlns:sodipodi="http://sodipodi.sourceforge.net/DTD/sodipodi-0.dtd"
   xmlns:inkscape="http://www.inkscape.org/namespaces/inkscape"
   id="svg"
   version="1.1"
   width="35.014256"
   height="35.236031"
   viewBox="0 0 35.014256 35.236031"
   sodipodi:docname="Crucible.svg"
   inkscape:version="0.92.4 (5da689c313, 2019-01-14)">
  <metadata
     id="metadata78">
    <rdf:RDF>
      <cc:Work
         rdf:about="">
        <dc:format>image/svg+xml</dc:format>
        <dc:type
           rdf:resource="http://purl.org/dc/dcmitype/StillImage" />
        <dc:title></dc:title>
      </cc:Work>
    </rdf:RDF>
  </metadata>
  <defs
     id="defs76" />
  <sodipodi:namedview
     pagecolor="#ffffff"
     bordercolor="#666666"
     borderopacity="1"
     objecttolerance="10"
     gridtolerance="10"
     guidetolerance="10"
     inkscape:pageopacity="0"
     inkscape:pageshadow="2"
     inkscape:window-width="640"
     inkscape:window-height="480"
     id="namedview74"
     showgrid="false"
     inkscape:zoom="6.2933333"
     inkscape:cx="-2.0008031"
     inkscape:cy="22.632471"
     inkscape:window-x="0"
     inkscape:window-y="0"
     inkscape:window-maximized="0"
     inkscape:current-layer="svg" />
  <g
     id="svgg"
     transform="translate(-181.33637,-132.333)">
    <path
       id="path0"
       d="m 187.401,138.628 c -0.462,0.747 0.882,2.515 4.984,6.561 2.453,2.419 4.461,4.576 4.462,4.793 0.003,0.485 -3.126,3.656 -3.606,3.656 -0.427,0 -1.469,-1.213 -1.483,-1.725 -0.013,-0.502 -0.553,-0.475 -1.083,0.055 -0.373,0.373 -0.272,0.541 0.765,1.275 1.698,1.201 1.609,1.918 -0.519,4.178 -0.948,1.008 -2.095,1.922 -2.549,2.031 -0.923,0.223 -1.187,1.485 -0.375,1.797 0.624,0.239 1.35,-0.086 1.35,-0.605 0,-0.558 4.055,-4.605 4.614,-4.605 0.423,0 1.315,0.821 2.106,1.939 0.356,0.503 0.488,0.53 0.903,0.185 0.504,-0.418 0.175,-1.224 -0.5,-1.224 -0.406,0 -1.1,-0.936 -1.111,-1.5 -0.009,-0.419 2.347,-2.918 3.237,-3.433 0.515,-0.298 3.655,2.877 3.655,3.695 0,0.352 -0.433,0.857 -1.075,1.253 -0.992,0.613 -1.037,0.702 -0.587,1.15 0.45,0.448 0.571,0.386 1.55,-0.79 0.584,-0.701 1.236,-1.275 1.449,-1.275 0.571,0 4.301,3.529 4.54,4.294 0.258,0.827 0.636,1.074 1.358,0.886 0.905,-0.237 0.697,-1.282 -0.334,-1.671 -0.495,-0.187 -0.9,-0.513 -0.9,-0.724 0,-0.211 -0.101,-0.387 -0.225,-0.389 -0.371,-0.008 -2.001,-1.575 -2.749,-2.642 l -0.698,-0.996 1.349,-1.256 c 1.106,-1.031 1.276,-1.323 0.948,-1.629 -0.562,-0.525 -0.652,-0.486 -1.165,0.505 -0.802,1.551 -1.527,1.483 -3.346,-0.313 -2.15,-2.123 -2.232,-1.916 2.735,-6.847 2.393,-2.375 4.351,-4.432 4.351,-4.57 0,-0.139 0.211,-0.252 0.468,-0.252 0.257,0 0.381,-0.141 0.274,-0.313 -0.106,-0.172 -0.035,-0.504 0.159,-0.737 0.652,-0.786 0.04,-1.062 -1.23,-0.554 -0.81,0.325 -2.666,1.943 -5.687,4.959 -3.279,3.274 -4.601,4.412 -4.92,4.234 -0.239,-0.134 -2.501,-2.279 -5.027,-4.768 -4.202,-4.141 -5.69,-5.272 -6.088,-4.628"
       inkscape:connector-curvature="0"
       style="fill:#f1e8ea;fill-rule:evenodd;stroke:none" />
    <path
       id="path1"
       d="m 197.074,133.549 c -0.619,0.657 -1.125,1.323 -1.125,1.479 0,0.157 -0.271,0.43 -0.603,0.608 -1.033,0.552 -3.598,3.199 -3.598,3.711 0,0.269 -0.203,0.488 -0.45,0.488 -0.248,0 -0.45,-0.103 -0.45,-0.228 0,-0.125 -0.304,-0.414 -0.675,-0.643 l -0.676,-0.414 0.601,0.677 c 0.33,0.372 0.904,0.793 1.275,0.935 0.371,0.142 0.675,0.444 0.675,0.671 0,0.227 1.444,-1.053 3.209,-2.843 1.764,-1.791 3.349,-3.256 3.521,-3.256 0.171,0 1.766,1.449 3.543,3.22 2.025,2.02 3.23,3.027 3.23,2.701 0,-0.286 0.218,-0.52 0.485,-0.52 0.436,0 0.432,-0.08 -0.039,-0.799 -0.705,-1.076 -2.452,-2.802 -2.836,-2.802 -0.171,0 -0.31,-0.137 -0.31,-0.304 0,-0.542 -3.544,-3.897 -4.106,-3.887 -0.3,0.006 -1.052,0.548 -1.671,1.206 m 3.135,0.81 c 0.581,0.618 2.02,2.049 3.199,3.179 1.179,1.129 2.066,2.18 1.971,2.334 -0.096,0.154 -1.513,-1.074 -3.149,-2.729 -3.62,-3.66 -3.143,-3.665 -6.817,0.059 -1.666,1.688 -3.125,2.973 -3.243,2.855 -0.223,-0.223 6.293,-6.824 6.734,-6.824 0.137,0 0.724,0.507 1.305,1.126 m -4.639,4.219 -2.897,2.944 2.991,2.979 c 2.565,2.556 3.065,2.931 3.513,2.636 0.288,-0.19 0.486,-0.502 0.44,-0.695 -0.045,-0.192 0.032,-0.279 0.172,-0.193 0.14,0.086 1.358,-0.952 2.706,-2.308 l 2.452,-2.464 -2.907,-2.922 c -3.522,-3.539 -2.963,-3.541 -6.47,0.023 m 12.944,-0.344 c -0.368,0.446 -0.348,0.466 0.188,0.19 0.33,-0.169 0.803,-0.383 1.05,-0.475 0.31,-0.115 0.251,-0.175 -0.188,-0.191 -0.351,-0.013 -0.824,0.201 -1.05,0.476 m 2.439,0.101 c 0,0.33 0.135,0.6 0.3,0.6 0.165,0 0.3,-0.27 0.3,-0.6 0,-0.33 -0.135,-0.601 -0.3,-0.601 -0.165,0 -0.3,0.271 -0.3,0.601 m -1.501,3.15 c -0.387,0.413 -0.58,0.746 -0.427,0.741 0.257,-0.009 1.493,-1.491 1.244,-1.491 -0.062,0 -0.429,0.338 -0.817,0.75 m -21.305,1.296 c -0.413,0.263 -1.088,0.875 -1.5,1.36 -0.713,0.837 -1.554,1.701 -2.447,2.512 -0.222,0.202 -0.539,0.506 -0.704,0.676 -0.165,0.171 -0.753,0.714 -1.307,1.209 -0.641,0.572 -0.943,1.069 -0.829,1.365 0.131,0.342 1.082,-0.453 3.59,-3.001 1.876,-1.906 3.597,-3.466 3.824,-3.466 0.227,0 -0.969,1.386 -2.658,3.081 -3.735,3.748 -3.751,3.17 0.2,7.144 3.446,3.466 3.82,4.379 2.033,4.956 -0.301,0.098 -0.489,0.236 -0.418,0.307 0.266,0.266 1.045,-0.241 1.672,-1.088 l 0.647,-0.875 -3.473,-3.499 -3.472,-3.498 3.165,-3.17 c 1.742,-1.743 3.263,-3.072 3.381,-2.954 0.119,0.118 -1.026,1.462 -2.545,2.987 -1.518,1.524 -2.76,2.945 -2.76,3.156 0,0.484 5.529,6.056 6.01,6.056 0.212,0 0.278,0.212 0.163,0.525 -0.106,0.289 0.213,0.056 0.71,-0.518 0.884,-1.021 0.798,-2.188 -0.168,-2.283 -1.377,-0.136 -1.854,-1.18 -0.97,-2.122 0.867,-0.922 1.694,-0.907 1.931,0.035 0.298,1.188 0.93,1.543 1.625,0.913 0.323,-0.292 0.502,-0.669 0.398,-0.838 -0.104,-0.168 -0.054,-0.222 0.111,-0.12 0.166,0.102 0.685,-0.215 1.155,-0.705 l 0.853,-0.892 -2.983,-3.094 c -1.641,-1.702 -3.281,-3.274 -3.645,-3.493 -0.364,-0.219 -0.701,-0.566 -0.75,-0.771 -0.066,-0.278 -0.279,-0.252 -0.839,0.105 m 20.105,0.351 c -0.362,0.231 0.187,0.927 2.807,3.558 l 3.258,3.271 -3.497,3.516 c -2.836,2.852 -3.43,3.596 -3.146,3.939 0.635,0.765 1.726,0.223 3.557,-1.766 2.111,-2.293 4.599,-4.712 4.846,-4.712 0.438,0 0.323,-1.498 -0.152,-1.972 -0.235,-0.236 -0.541,-0.429 -0.679,-0.429 -0.137,0 -0.51,-0.346 -0.827,-0.769 -0.942,-1.254 -1.572,-1.932 -1.797,-1.932 -0.269,0 -1.069,-0.792 -1.069,-1.058 0,-0.992 -2.428,-2.203 -3.301,-1.646 m -3.826,3.619 c -3.544,3.647 -3.451,3.345 -1.548,5.051 1.507,1.351 2.373,1.377 2.373,0.071 0,-1.034 1.079,-1.275 1.924,-0.43 0.427,0.427 0.777,0.873 0.777,0.99 0,0.377 -1.105,1.501 -1.292,1.314 -0.942,-0.943 -1.162,1.239 -0.262,2.61 0.373,0.568 0.645,0.83 0.605,0.582 -0.039,-0.247 1.25,-1.733 2.865,-3.301 4.01,-3.892 3.951,-3.371 0.747,-6.495 -1.5,-1.461 -2.813,-2.859 -2.92,-3.107 -0.142,-0.33 -1.012,0.393 -3.269,2.715 m 7.915,-0.239 c 3.696,3.658 3.618,3.168 0.934,5.83 -1.195,1.184 -2.825,2.849 -3.624,3.699 -0.798,0.85 -1.534,1.463 -1.635,1.362 -0.101,-0.101 1.328,-1.701 3.177,-3.554 4.049,-4.061 4.019,-3.647 0.51,-7.208 -1.568,-1.591 -2.851,-2.963 -2.851,-3.049 0,-0.435 0.637,0.098 3.489,2.92 m -15.287,7.671 c -1.514,1.537 -1.451,2.193 0.242,2.504 0.904,0.165 0.904,1.095 0,1.932 -0.895,0.83 -1.343,0.671 -2.024,-0.715 -0.754,-1.533 -3.824,-0.742 -3.824,0.986 0,0.22 -0.131,0.445 -0.291,0.5 -0.185,0.064 -0.186,0.263 -0.004,0.55 0.244,0.384 0.286,0.373 0.29,-0.075 0.009,-0.948 0.544,-0.564 3.866,2.776 1.806,1.815 3.4,3.3 3.542,3.3 0.143,0 1.733,-1.478 3.534,-3.285 1.801,-1.806 3.371,-3.225 3.488,-3.153 0.2,0.124 -6.467,6.871 -7.292,7.381 -0.297,0.183 -0.299,0.311 -0.01,0.599 0.289,0.289 0.835,-0.106 2.572,-1.862 1.214,-1.227 2.696,-2.635 3.295,-3.13 0.599,-0.496 1.329,-1.342 1.622,-1.881 0.347,-0.637 0.692,-0.924 0.988,-0.821 0.249,0.087 0.116,-0.11 -0.296,-0.439 -1.047,-0.833 -0.841,-0.957 -4.488,2.691 -1.816,1.815 -3.364,3.3 -3.441,3.3 -0.295,0 -6.775,-6.585 -6.775,-6.885 0,-0.603 0.367,-0.302 3.458,2.834 1.708,1.733 3.228,3.151 3.378,3.151 0.34,0 6.367,-6.17 6.367,-6.518 0,-1.509 -2.629,-1.138 -3.128,0.442 -0.451,1.428 -2.737,0.317 -2.355,-1.145 0.084,-0.32 0.385,-0.581 0.671,-0.581 1.314,0 1.57,-1.025 0.513,-2.05 -0.545,-0.529 -1.084,-0.891 -1.197,-0.806 -0.113,0.086 -0.139,0.067 -0.058,-0.042 0.201,-0.268 -0.437,-1.003 -0.87,-1.003 -0.193,0 -0.991,0.651 -1.773,1.445 m 11.687,4.619 c 0.081,0.131 0.392,0.238 0.692,0.238 0.835,0 1.299,0.756 1.078,1.76 -0.22,1.006 -1.298,1.455 -2.258,0.941 -0.478,-0.256 -0.555,-0.229 -0.412,0.143 0.201,0.523 0.936,0.585 2.026,0.17 1.073,-0.408 1.379,-2.12 0.531,-2.969 -0.569,-0.569 -1.983,-0.81 -1.657,-0.283 m -22.235,1.226 c -0.128,0.296 -0.149,0.622 -0.046,0.725 0.304,0.305 0.55,-0.123 0.41,-0.715 -0.125,-0.524 -0.141,-0.524 -0.364,-0.01 m 0.524,1.559 c 0.076,0.612 1.117,1.056 1.117,0.476 0,-0.178 -0.191,-0.323 -0.425,-0.323 -0.234,0 -0.502,-0.168 -0.595,-0.375 -0.093,-0.206 -0.137,-0.106 -0.097,0.222"
       inkscape:connector-curvature="0"
       style="fill:#422020;fill-rule:evenodd;stroke:none"
       sodipodi:nodetypes="cscssscccsscscsscsscccccccssccccccsccccccccccssscccsccccccccscccscccccccsscccccccccccsccccccccscscsscccsssccccccccccsccscccccsccccsccccccccccsscssccscccsccscccccccccccsscc" />
    <path
       id="path2"
       d="m 198.95,133.564 c 0.372,0.266 0.345,0.3 -0.15,0.196 -0.632,-0.133 -5.408,4.318 -5.035,4.691 0.101,0.101 -0.012,0.184 -0.25,0.184 -0.518,0 -1.591,1.176 -1.32,1.447 0.104,0.104 1.552,-1.192 3.218,-2.88 2.245,-2.275 3.223,-3.068 3.782,-3.068 0.415,0 0.674,0.08 0.576,0.179 -0.232,0.232 1.658,2.177 1.954,2.011 0.124,-0.069 0.225,0.09 0.225,0.352 0,0.263 0.304,0.6 0.676,0.749 0.371,0.149 0.576,0.28 0.455,0.29 -0.122,0.011 0.284,0.549 0.9,1.197 0.74,0.777 1.222,1.076 1.42,0.881 0.2,-0.196 0.125,-0.395 -0.223,-0.591 -0.287,-0.162 -1.773,-1.571 -3.3,-3.131 -1.528,-1.559 -2.913,-2.834 -3.078,-2.832 -0.165,0.002 -0.098,0.148 0.15,0.325 m -11.01,10.301 c -0.196,0.224 -0.275,0.489 -0.175,0.589 0.1,0.1 0.015,0.182 -0.19,0.182 -0.485,0 -5.458,4.973 -5.215,5.216 0.102,0.102 0.028,0.186 -0.164,0.186 -0.81,0 -0.161,0.85 3.222,4.221 2.804,2.795 3.643,3.476 3.9,3.166 0.254,-0.306 -0.418,-1.144 -2.972,-3.707 -3.988,-4.003 -0.23,-7.201 -0.23,-7.201 1.689,-1.695 2.87,-3.076 2.626,-3.07 -0.245,0.007 -0.606,0.195 -0.802,0.418 m 21.111,-0.227 c -0.215,0.215 5.327,5.799 5.755,5.799 0.191,0 0.348,0.225 0.348,0.5 0,0.276 -0.068,0.432 -0.152,0.349 -0.083,-0.083 -1.737,1.479 -3.676,3.471 -1.938,1.993 -3.626,3.67 -3.751,3.728 -0.298,0.139 0.027,0.655 0.412,0.655 0.165,0 0.217,-0.135 0.115,-0.301 -0.102,-0.165 -0.034,-0.3 0.15,-0.3 0.185,0 0.256,-0.129 0.158,-0.287 -0.097,-0.157 0.199,-0.526 0.658,-0.819 0.459,-0.294 1.034,-0.806 1.277,-1.139 0.243,-0.333 1.492,-1.638 2.776,-2.901 1.283,-1.263 2.333,-2.404 2.333,-2.535 0,-0.356 -6.223,-6.401 -6.403,-6.22 m -18.055,15.405 c -0.101,0.163 -0.041,0.297 0.134,0.297 0.175,0 0.318,0.215 0.318,0.477 0,0.634 6.657,7.256 7.134,7.097 0.204,-0.068 0.295,-0.247 0.202,-0.398 -0.093,-0.151 0.002,-0.274 0.211,-0.274 0.21,0 1.283,-0.912 2.386,-2.026 1.102,-1.114 2.188,-2.169 2.412,-2.345 0.224,-0.176 0.741,-0.74 1.148,-1.253 0.407,-0.513 0.867,-0.855 1.022,-0.759 0.16,0.099 0.18,0.01 0.047,-0.205 -0.163,-0.264 -1.253,0.637 -3.577,2.954 -1.838,1.834 -3.455,3.333 -3.592,3.333 -0.138,0 -1.718,-1.451 -3.512,-3.225 -4.029,-3.984 -4.103,-4.046 -4.333,-3.673"
       inkscape:connector-curvature="0"
       style="fill:#8e4644;fill-rule:evenodd;stroke:none"
       sodipodi:nodetypes="ccssscsccsccccccsccsssscccccccsscccscsccscsccssssscsscccscc" />
    <path
       id="path3"
       d="m 209.942,138.178 c -0.539,0.408 -0.536,0.423 0.075,0.377 0.35,-0.027 0.636,-0.222 0.636,-0.434 0,-0.472 -0.014,-0.471 -0.711,0.057 m -22.95,0.757 c 0.372,1.067 0.576,1.164 0.476,0.225 -0.045,-0.428 0.075,-0.645 0.326,-0.593 0.219,0.045 0.312,-0.056 0.208,-0.225 -0.502,-0.811 -1.33,-0.325 -1.01,0.593 m 1.94,-0.3 c 0.317,0.529 9.418,9.495 9.418,9.279 0,-0.082 -2.18,-2.304 -4.844,-4.939 -2.664,-2.635 -4.722,-4.588 -4.574,-4.34 m 17.818,1.586 c -0.414,0.365 -1.021,1.002 -1.349,1.414 -0.328,0.413 0.044,0.143 0.825,-0.6 0.782,-0.742 1.422,-1.384 1.424,-1.425 0.004,-0.153 -0.166,-0.037 -0.9,0.611 m -19.179,0.233 c -0.013,0.257 0.415,0.774 0.951,1.147 l 0.975,0.678 -0.783,-0.721 c -0.431,-0.397 -0.859,-0.914 -0.952,-1.148 -0.135,-0.342 -0.172,-0.333 -0.191,0.044 m 19.931,2.438 c -1.328,1.363 -1.47,1.574 -0.539,0.804 1.098,-0.909 2.713,-2.669 2.436,-2.656 -0.053,0.003 -0.907,0.836 -1.897,1.852 m -4.433,4.376 c -1.275,1.283 -2.319,2.537 -2.319,2.786 0,0.658 3.161,3.686 3.646,3.493 0.308,-0.122 0.294,-0.167 -0.056,-0.185 -0.611,-0.031 -3.29,-2.766 -3.29,-3.358 0,-0.254 1.065,-1.499 2.366,-2.765 1.302,-1.267 2.278,-2.303 2.169,-2.303 -0.109,0 -1.241,1.05 -2.516,2.332 m -7.605,1.173 c 0.831,0.894 1.119,1.433 1.004,1.876 -0.09,0.342 -0.041,0.546 0.109,0.453 0.59,-0.364 0.213,-1.266 -1.003,-2.397 l -1.275,-1.186 1.165,1.254 m 10.464,3.172 c -0.425,0.536 -1.022,1.725 -0.867,1.725 0.072,0 0.41,-0.472 0.751,-1.05 0.619,-1.05 0.676,-1.383 0.116,-0.675 m -6.592,0.915 c 0.365,0.38 0.719,0.651 0.787,0.602 0.175,-0.125 -0.916,-1.292 -1.209,-1.292 -0.134,0 0.056,0.311 0.422,0.69 m -9.076,0.116 c 0.014,0.258 2.103,1.68 2.251,1.531 0.048,-0.047 -0.442,-0.467 -1.088,-0.931 -0.647,-0.465 -1.17,-0.735 -1.163,-0.6 m 15.965,0.571 c -1.217,0.959 -1.711,1.804 -1.228,2.102 0.222,0.137 0.265,0.083 0.121,-0.151 -0.141,-0.228 0.254,-0.808 1.054,-1.547 1.462,-1.349 1.486,-1.534 0.053,-0.404 m -10.275,1.172 c -0.387,0.412 -0.647,0.8 -0.577,0.861 0.069,0.062 0.44,-0.276 0.824,-0.749 0.859,-1.059 0.708,-1.128 -0.247,-0.112 m -4.105,1.727 c -0.334,0.371 -0.715,0.878 -0.847,1.125 -0.253,0.478 -0.184,0.413 1.032,-0.975 0.397,-0.454 0.655,-0.825 0.573,-0.825 -0.083,0 -0.424,0.304 -0.758,0.675 m 1.271,0.385 c -0.703,0.531 -0.394,0.587 0.424,0.076 0.645,-0.403 1.921,0.501 2.274,1.612 0.224,0.707 0.804,0.705 1.446,-0.004 0.473,-0.523 0.471,-0.584 -0.028,-0.976 -0.475,-0.373 -0.492,-0.365 -0.154,0.068 0.311,0.398 0.292,0.557 -0.108,0.888 -0.415,0.345 -0.547,0.318 -0.903,-0.185 -1.352,-1.911 -1.971,-2.221 -2.951,-1.479 m 9.412,0.365 -0.728,0.825 0.77,-0.675 c 0.905,-0.794 1.272,-0.839 1.787,-0.218 0.209,0.252 0.452,0.386 0.54,0.297 0.194,-0.193 -0.864,-1.031 -1.319,-1.044 -0.177,-0.006 -0.65,0.361 -1.05,0.815 m -2.068,0.307 -0.658,0.532 0.634,0.574 c 0.619,0.56 0.644,0.56 1.149,0.009 0.488,-0.534 0.488,-0.543 -0.01,-0.168 -0.433,0.326 -0.608,0.326 -0.998,0.002 -0.425,-0.352 -0.401,-0.448 0.225,-0.93 0.384,-0.296 0.612,-0.54 0.507,-0.544 -0.106,-0.004 -0.488,0.233 -0.849,0.525 m -9.181,1.044 -0.881,0.975 0.975,-0.882 c 0.536,-0.484 0.975,-0.923 0.975,-0.975 0,-0.232 -0.248,-0.028 -1.069,0.882 m 15.16,0.3 c 1.244,1.325 1.513,1.563 1.513,1.337 0,-0.048 -0.641,-0.689 -1.425,-1.425 l -1.426,-1.338 1.338,1.426 m -16.848,-0.075 c -0.434,0.495 -0.676,0.9 -0.537,0.9 0.139,0 0.541,-0.405 0.893,-0.9 0.353,-0.496 0.595,-0.901 0.538,-0.901 -0.057,0 -0.459,0.405 -0.894,0.901 m 17.986,-0.345 c 0.371,0.325 0.675,0.738 0.675,0.918 0,0.18 0.131,0.327 0.291,0.327 0.513,0 -0.016,-0.849 -0.841,-1.35 l -0.8,-0.486 0.675,0.591 m -20.138,1.153 c -0.106,0.106 -0.174,0.608 -0.151,1.117 0.036,0.822 0.056,0.841 0.18,0.175 0.077,-0.412 0.275,-0.834 0.441,-0.938 0.192,-0.119 0.196,-0.252 0.012,-0.367 -0.16,-0.098 -0.377,-0.093 -0.482,0.013 m 2.38,0.563 c -0.259,0.26 -0.472,0.654 -0.472,0.876 0,0.222 -0.168,0.471 -0.375,0.555 -0.294,0.118 -0.292,0.156 0.01,0.175 0.211,0.013 0.468,-0.213 0.57,-0.502 0.103,-0.289 0.39,-0.761 0.638,-1.05 0.56,-0.653 0.27,-0.695 -0.371,-0.054"
       inkscape:connector-curvature="0"
       style="fill:#988c8c;fill-rule:evenodd;stroke:none" />
    <path
       id="path4"
       d=""
       inkscape:connector-curvature="0"
       style="fill:#a43c3c;fill-rule:evenodd;stroke:none" />
    <path
       id="path5"
       d="m 194.594,143.961 c 4.437,4.527 4.148,4.391 5.72,2.701 l 1.186,-1.276 -1.213,1.126 c -1.599,1.483 -1.238,1.655 -5.684,-2.701 l -3.905,-3.826 3.896,3.976 m 9.147,-0.9 -1.64,1.725 1.725,-1.64 c 0.949,-0.902 1.725,-1.678 1.725,-1.725 0,-0.223 -0.287,0.037 -1.81,1.64 m 2.842,1.05 -0.882,0.975 0.976,-0.881 c 0.536,-0.485 0.975,-0.924 0.975,-0.975 0,-0.232 -0.248,-0.028 -1.069,0.881 m -13.335,2.476 c 1.562,1.568 2.907,2.85 2.989,2.85 0.083,0 -1.127,-1.282 -2.689,-2.85 -1.561,-1.568 -2.906,-2.851 -2.989,-2.851 -0.082,0 1.128,1.283 2.689,2.851 m 9.903,0.9 c -1.23,1.238 -2.168,2.25 -2.086,2.25 0.083,0 1.156,-1.012 2.386,-2.25 1.229,-1.238 2.168,-2.251 2.085,-2.251 -0.082,0 -1.156,1.013 -2.385,2.251 m -8.102,4.201 c -0.729,0.743 -1.258,1.35 -1.175,1.35 0.082,0 0.746,-0.607 1.475,-1.35 0.729,-0.743 1.258,-1.35 1.175,-1.35 -0.082,0 -0.746,0.607 -1.475,1.35 m 7.352,0.15 c 0.812,0.825 1.545,1.5 1.627,1.5 0.083,0 -0.515,-0.675 -1.327,-1.5 -0.813,-0.825 -1.546,-1.5 -1.628,-1.5 -0.083,0 0.515,0.675 1.328,1.5 m -5.413,1.875 -1.489,1.576 1.581,-1.494 c 1.473,-1.394 1.625,-1.467 2.25,-1.078 0.613,0.382 0.635,0.375 0.258,-0.081 -0.636,-0.769 -0.995,-0.62 -2.6,1.077"
       inkscape:connector-curvature="0"
       style="fill:#948484;fill-rule:evenodd;stroke:none" />
    <path
       id="path6"
       d="m 197.149,132.783 c 0,0.248 0.121,0.45 0.268,0.45 0.148,0 0.346,-0.202 0.441,-0.45 0.105,-0.274 0,-0.45 -0.268,-0.45 -0.242,0 -0.441,0.203 -0.441,0.45 m -2.325,2.099 c -0.387,0.439 -0.506,1.052 -0.206,1.052 0.482,0 1.331,-0.677 1.331,-1.061 0,-0.555 -0.633,-0.55 -1.125,0.009 m 6.826,-0.277 c 0,0.319 0.928,1.102 1.101,0.929 0.094,-0.094 -0.038,-0.381 -0.293,-0.636 -0.477,-0.476 -0.808,-0.597 -0.808,-0.293 m -6.232,3.21 c -1.688,1.694 -3.07,3.179 -3.07,3.3 0,0.583 0.743,-0.006 3.317,-2.63 3.391,-3.459 2.858,-3.464 6.366,0.061 1.594,1.601 2.997,2.812 3.119,2.691 0.247,-0.248 -5.862,-6.503 -6.35,-6.503 -0.171,0 -1.693,1.386 -3.382,3.081 m -8.471,-0.381 c 0,0.165 0.216,0.3 0.48,0.3 0.666,0 2.315,0.815 3.068,1.516 0.691,0.644 1.253,0.762 1.253,0.263 0,-0.415 -0.763,-1.178 -1.179,-1.178 -0.177,0 -0.321,-0.135 -0.321,-0.3 0,-0.166 -0.271,-0.301 -0.601,-0.301 -0.33,0 -0.6,-0.135 -0.6,-0.3 0,-0.165 -0.472,-0.3 -1.05,-0.3 -0.578,0 -1.05,0.135 -1.05,0.3 m 5.401,0.175 c 0,0.53 0.646,0.438 0.832,-0.118 0.065,-0.196 -0.095,-0.357 -0.357,-0.357 -0.261,0 -0.475,0.214 -0.475,0.475 m 15.604,0.125 c -0.238,0.331 -0.615,0.601 -0.838,0.601 -0.632,0 -1.239,0.752 -0.965,1.196 0.184,0.297 0.568,0.127 1.579,-0.702 0.735,-0.602 1.626,-1.095 1.98,-1.095 0.355,0 0.645,-0.135 0.645,-0.3 0,-0.571 -1.948,-0.328 -2.401,0.3 m -22.206,1.585 c 0,0.639 0.21,1.135 0.601,1.416 0.33,0.238 0.6,0.673 0.6,0.967 0,0.293 0.191,0.534 0.425,0.534 0.234,0 0.487,0.168 0.562,0.375 0.096,0.259 0.24,0.28 0.47,0.065 0.239,-0.222 0.123,-0.534 -0.413,-1.112 -0.409,-0.441 -0.744,-0.929 -0.744,-1.084 0,-0.154 -0.211,-0.362 -0.469,-0.461 -0.258,-0.099 -0.393,-0.304 -0.299,-0.455 0.217,-0.353 -0.114,-1.229 -0.465,-1.229 -0.147,0 -0.268,0.442 -0.268,0.984 m 25.207,0.237 c 0,0.342 -0.169,0.797 -0.375,1.011 -1.518,1.573 -1.951,2.269 -1.412,2.269 0.482,0 1.787,-1.415 1.787,-1.937 0,-0.255 0.135,-0.464 0.3,-0.464 0.165,0 0.3,-0.337 0.3,-0.75 0,-0.413 -0.135,-0.75 -0.3,-0.75 -0.165,0 -0.3,0.279 -0.3,0.621 m -3.301,4.275 c 0,0.217 1.28,1.649 2.844,3.183 3.34,3.276 3.394,2.73 -0.654,6.658 -1.633,1.585 -2.918,3.035 -2.855,3.223 0.063,0.187 1.736,-1.297 3.72,-3.299 l 3.605,-3.64 -3.25,-3.26 c -3.525,-3.536 -3.41,-3.44 -3.41,-2.865 m -21.247,3.021 -3.093,3.11 3.589,3.63 c 2.642,2.673 3.636,3.507 3.768,3.164 0.244,-0.637 0.228,-0.717 -0.145,-0.717 -0.466,0 -5.978,-5.595 -5.978,-6.068 0,-0.218 1.215,-1.606 2.701,-3.084 2.525,-2.513 3.029,-3.155 2.475,-3.148 -0.123,0.001 -1.616,1.402 -3.317,3.113 m -1.634,-1.948 c -0.739,0.749 -0.715,1.656 0.033,1.255 0.938,-0.502 1.69,-1.827 1.024,-1.805 -0.292,0.01 -0.768,0.257 -1.057,0.55 m 26.782,-0.246 c 0,0.415 0.763,1.178 1.179,1.178 0.487,0 0.385,-0.449 -0.227,-1.003 -0.634,-0.574 -0.952,-0.633 -0.952,-0.175 m -28.732,2.227 c -0.442,0.502 -0.492,1.052 -0.097,1.052 0.361,0 1.222,-0.861 1.222,-1.222 0,-0.419 -0.699,-0.313 -1.125,0.17 m 30.842,-0.223 c 0.013,0.314 0.766,1.275 0.999,1.275 0.342,0 0.203,-0.632 -0.237,-1.072 -0.471,-0.47 -0.777,-0.552 -0.762,-0.203 m 0.207,6.152 c -0.301,0.376 -0.401,0.713 -0.228,0.771 0.363,0.121 1.212,-0.667 1.212,-1.125 0,-0.514 -0.408,-0.367 -0.984,0.354 m -1.545,1.596 c -0.385,0.384 -0.441,0.589 -0.186,0.674 0.202,0.067 0.505,-0.016 0.674,-0.185 0.169,-0.169 0.253,-0.473 0.186,-0.674 -0.085,-0.255 -0.29,-0.199 -0.674,0.185 m -2.852,2.812 c -0.372,0.322 -0.833,0.65 -1.024,0.729 -0.474,0.195 0.372,0.782 0.859,0.595 0.432,-0.166 1.209,-1.542 0.993,-1.758 -0.084,-0.084 -0.456,0.111 -0.828,0.434 m -21.626,1.068 c 0,0.505 0.055,0.525 0.726,0.268 0.67,-0.258 0.59,-0.719 -0.126,-0.719 -0.333,0 -0.6,0.201 -0.6,0.451 m 4.201,0.166 c 0,0.297 6.478,6.885 6.77,6.885 0.198,0 7.033,-6.836 7.033,-7.034 0,-0.56 -0.908,0.187 -3.629,2.983 -1.686,1.733 -3.188,3.151 -3.338,3.151 -0.15,0 -1.67,-1.418 -3.378,-3.151 -3.091,-3.136 -3.458,-3.437 -3.458,-2.834 m -5.701,0.79 v 0.807 l 0.6,-0.644 c 0.33,-0.354 0.6,-0.717 0.6,-0.807 0,-0.089 -0.27,-0.162 -0.6,-0.162 -0.452,0 -0.6,0.2 -0.6,0.806 m 23.774,-0.45 c 0.186,0.556 0.832,0.649 0.832,0.119 0,-0.262 -0.214,-0.475 -0.475,-0.475 -0.262,0 -0.422,0.16 -0.357,0.356 m -19.873,1.594 c 0,0.467 0.17,0.75 0.45,0.75 0.28,0 0.45,-0.283 0.45,-0.75 0,-0.467 -0.17,-0.75 -0.45,-0.75 -0.28,0 -0.45,0.283 -0.45,0.75 m 15.962,-0.008 c -0.306,0.672 -0.278,0.758 0.248,0.758 0.394,0 0.594,0.203 0.594,0.6 0,0.334 0.2,0.601 0.45,0.601 0.537,0 0.535,0.12 0.027,-1.34 -0.504,-1.449 -0.864,-1.618 -1.319,-0.619 m 4.739,-0.367 c -0.003,0.206 -0.086,0.679 -0.185,1.05 -0.133,0.497 -0.053,0.675 0.304,0.675 0.354,0 0.485,-0.283 0.485,-1.05 0,-0.577 -0.135,-1.05 -0.3,-1.05 -0.165,0 -0.302,0.169 -0.304,0.375 m -24.602,1.275 c 0,0.248 0.135,0.45 0.3,0.45 0.165,0 0.3,-0.202 0.3,-0.45 0,-0.247 -0.135,-0.45 -0.3,-0.45 -0.165,0 -0.3,0.203 -0.3,0.45 m 3.104,0.613 c -0.098,0.256 -0.451,0.424 -0.788,0.375 -0.336,-0.048 -0.668,0.081 -0.738,0.288 -0.18,0.528 1.356,0.484 1.894,-0.054 0.236,-0.236 0.429,-0.573 0.429,-0.75 0,-0.489 -0.596,-0.384 -0.797,0.141 m 19.476,0.349 c -1.056,0.204 -0.791,0.689 0.375,0.689 0.734,0 1.051,-0.136 1.051,-0.45 0,-0.452 -0.172,-0.48 -1.426,-0.239 m -7.277,2.789 c -1.052,1.052 -1.754,1.966 -1.56,2.031 0.193,0.064 1.107,-0.638 2.03,-1.561 0.923,-0.923 1.625,-1.837 1.561,-2.03 -0.065,-0.194 -0.978,0.508 -2.031,1.56"
       inkscape:connector-curvature="0"
       style="fill:#090d0e;fill-rule:evenodd;stroke:none" />
    <path
       id="path7"
       d="m 210.449,139.76 c -0.101,0.289 -0.536,0.93 -0.966,1.425 l -0.781,0.901 0.948,-0.856 c 0.522,-0.47 1.016,-1.112 1.097,-1.425 0.188,-0.716 -0.049,-0.752 -0.298,-0.045"
       inkscape:connector-curvature="0"
       style="fill:#6c544c;fill-rule:evenodd;stroke:none" />
    <path
       id="path8"
       d="m 195.343,144.411 c 3.278,3.362 3.568,3.548 4.245,2.728 0.377,-0.456 0.355,-0.463 -0.262,-0.079 -0.641,0.399 -0.829,0.267 -3.901,-2.728 l -3.227,-3.147 3.145,3.226 m 6.146,0.6 -1.489,1.576 1.575,-1.489 c 1.464,-1.384 1.713,-1.662 1.489,-1.662 -0.047,0 -0.756,0.709 -1.575,1.575 m -8.091,2.026 c 1.645,1.65 3.057,3.001 3.14,3.001 0.082,0 -1.195,-1.351 -2.84,-3.001 -1.644,-1.651 -3.057,-3.001 -3.139,-3.001 -0.083,0 1.195,1.35 2.839,3.001 m 8.988,1.575 -1.186,1.275 1.276,-1.186 c 1.186,-1.103 1.413,-1.364 1.186,-1.364 -0.049,0 -0.623,0.574 -1.276,1.275 m -7.637,3.076 c -0.729,0.743 -1.258,1.35 -1.176,1.35 0.083,0 0.747,-0.607 1.476,-1.35 0.729,-0.743 1.258,-1.35 1.175,-1.35 -0.083,0 -0.746,0.607 -1.475,1.35 m 8.173,0.297 c 1.389,1.454 1.435,1.475 1.951,0.912 0.506,-0.551 0.505,-0.558 -0.011,-0.169 -0.479,0.362 -0.697,0.26 -1.95,-0.912 l -1.412,-1.32 1.422,1.489 m -6.242,2.329 -0.881,0.975 0.975,-0.882 c 0.537,-0.484 0.975,-0.923 0.975,-0.975 0,-0.232 -0.247,-0.027 -1.069,0.882 m 3.47,-0.582 c 0,0.052 0.439,0.491 0.975,0.976 l 0.976,0.881 -0.882,-0.975 c -0.821,-0.909 -1.069,-1.114 -1.069,-0.882"
       inkscape:connector-curvature="0"
       style="fill:#6c4c4c;fill-rule:evenodd;stroke:none" />
  </g>
</svg>
