<?xml version="1.0" encoding="UTF-8" standalone="no"?>
<svg
   xmlns:dc="http://purl.org/dc/elements/1.1/"
   xmlns:cc="http://creativecommons.org/ns#"
   xmlns:rdf="http://www.w3.org/1999/02/22-rdf-syntax-ns#"
   xmlns:svg="http://www.w3.org/2000/svg"
   xmlns="http://www.w3.org/2000/svg"
   xmlns:sodipodi="http://sodipodi.sourceforge.net/DTD/sodipodi-0.dtd"
   xmlns:inkscape="http://www.inkscape.org/namespaces/inkscape"
   id="svg"
   version="1.1"
   width="300.54056"
   height="322.784"
   viewBox="0 0 300.54056 322.784"
   sodipodi:docname="Crucible.svg"
   inkscape:version="0.92.4 (5da689c313, 2019-01-14)">
  <metadata
     id="metadata9">
    <rdf:RDF>
      <cc:Work
         rdf:about="">
        <dc:format>image/svg+xml</dc:format>
        <dc:type
           rdf:resource="http://purl.org/dc/dcmitype/StillImage" />
        <dc:title></dc:title>
      </cc:Work>
    </rdf:RDF>
  </metadata>
  <defs
     id="defs7" />
  <sodipodi:namedview
     pagecolor="#ffffff"
     bordercolor="#666666"
     borderopacity="1"
     objecttolerance="10"
     gridtolerance="10"
     guidetolerance="10"
     inkscape:pageopacity="0"
     inkscape:pageshadow="2"
     inkscape:window-width="640"
     inkscape:window-height="480"
     id="namedview5"
     showgrid="false"
     inkscape:zoom="0.59"
     inkscape:cx="150.33956"
     inkscape:cy="161.181"
     inkscape:window-x="0"
     inkscape:window-y="0"
     inkscape:window-maximized="0"
     inkscape:current-layer="svg" />
  <g
     id="svgg"
     transform="translate(-49.660444,-38.397)">
    <path
       id="path0"
       d="m 185.77,41.604 c -3.439,5.531 -4.413,5.827 -15.712,4.775 -24.127,-2.245 -35.967,5.178 -31.98,20.05 0.496,1.852 0.529,1.845 3.007,-0.633 3.182,-3.182 5.205,-3.158 8.921,0.104 3.091,2.714 3.89,2.794 11.636,1.166 3.253,-0.684 9.22,5.227 10.12,10.024 1.03,5.489 -5.491,16.581 -9.748,16.581 -3.298,0 -0.863,1.525 3.364,2.106 l 4.194,0.577 -2.201,4.343 c -2.306,4.551 -2.821,9.324 -1.301,12.042 0.84,1.499 0.959,1.451 1.782,-0.714 1.549,-4.073 1.983,-2.521 1.416,5.064 -1.411,18.891 -1.643,19.464 -5.964,14.682 -5.424,-6.003 -16.335,-9.901 -34.612,-12.364 l -4.219,-0.568 7.575,7.036 c 23.24,21.587 22.159,21.502 -5.877,-0.463 C 91.963,98.61 87.812,94.565 85.164,85.449 c -1.279,-4.404 -2.592,-3.713 -5.525,2.908 -8.329,18.801 -4.67,23.773 31.146,42.327 17.895,9.27 52.294,31.413 50.926,32.781 -0.249,0.249 -4.173,-1.747 -8.719,-4.437 -25.176,-14.892 -31.926,-18.792 -43.972,-25.407 -7.282,-3.998 -17.693,-9.261 -23.136,-11.695 -11.081,-4.956 -17.591,-8.85 -20.077,-12.011 l -1.672,-2.126 v 3.857 c 0,6.307 0.963,7.541 12.813,16.422 22.81,17.094 30.958,21.732 49.26,28.04 26.332,9.076 27.389,9.679 11.797,6.731 -12.255,-2.317 -12.201,-2.488 -1.594,5.096 11.201,8.008 12.016,8.352 19.918,8.398 10.385,0.061 8.365,2.389 -2.743,3.162 -6.304,0.438 -6.349,0.426 -11.498,-3.03 l -5.17,-3.469 h -22.65 -22.651 l 7.145,4.999 c 24.223,16.95 23.93,16.891 48.271,9.688 8.776,-2.597 16.192,-4.486 16.479,-4.199 1.214,1.214 -2.583,2.998 -13.301,6.251 -6.266,1.901 -13.449,4.16 -15.962,5.018 l -4.57,1.562 2.907,1.796 c 5.656,3.496 16.484,4.501 28.997,2.693 7.306,-1.056 9.272,-0.341 13.789,5.015 5.944,7.05 6.9,9.198 6.903,15.506 l 0.003,5.714 3.342,-1.705 c 5.189,-2.648 5.097,-2.837 5.097,10.509 v 12.215 l -7.806,5.197 c -10.331,6.879 -10.19,6.661 -4.298,6.661 4.528,0 5.545,-0.332 8.928,-2.915 4.693,-3.583 4.864,-3.422 4.864,4.59 0,6.7 -1.273,12.204 -4.728,20.451 -3.404,8.122 -2.899,9.586 7.085,20.56 l 5.311,5.837 2.284,-2.646 c 12.845,-14.882 13.098,-15.383 10.797,-21.379 -4.9,-12.768 -5.559,-15.43 -5.559,-22.47 0,-8.054 0.229,-8.244 5.423,-4.514 3.15,2.262 4.171,2.546 8.332,2.321 l 4.742,-0.257 -8.194,-5.586 -8.193,-5.586 -0.234,-12.346 c -0.255,-13.509 -0.167,-13.719 4.453,-10.66 3.678,2.436 3.798,2.293 3.798,-4.555 v -6.242 l 4.584,-5.86 c 6.656,-8.506 7.445,-8.896 15.866,-7.84 13.797,1.73 23.522,0.828 29.252,-2.714 l 2.917,-1.803 -5.846,-1.896 c -3.215,-1.043 -10.877,-3.498 -17.027,-5.456 -7.029,-2.239 -11.181,-3.981 -11.181,-4.694 0,-1.683 0.53,-1.556 25.571,6.129 6.909,2.12 14.15,2.598 17.882,1.179 2.586,-0.984 26.283,-16.547 27.027,-17.751 0.321,-0.519 -7.57,-0.817 -21.634,-0.817 h -22.14 l -4.429,3.05 c -6.139,4.228 -16.512,5.018 -21.108,1.607 -1.415,-1.05 -0.933,-1.179 4.359,-1.173 9.632,0.013 10.072,-0.167 22.573,-9.254 8.986,-6.531 8.96,-6.581 -2.313,-4.405 -15.543,2.999 -14.526,2.305 7.909,-5.407 23.334,-8.021 27.518,-10.39 56.246,-31.836 8.283,-6.184 9.635,-8.102 9.635,-13.673 v -3.627 l -3.431,3.264 c -1.903,1.81 -7.259,5.088 -12.025,7.358 -4.727,2.252 -11.823,5.624 -15.768,7.494 -6.119,2.9 -14.048,7.241 -35.443,19.399 -2.088,1.187 -9.39,5.497 -16.226,9.578 -15.398,9.192 -17.17,10.076 -13.31,6.64 8.366,-7.445 31.29,-21.816 53.165,-33.329 23.396,-12.314 29.627,-17.062 30.834,-23.492 0.732,-3.904 -2.205,-15.379 -5.118,-19.993 l -2.253,-3.569 -1.884,4.636 c -3.814,9.383 -6.954,12.654 -27.814,28.967 -4.126,3.226 -10.495,8.239 -14.152,11.14 -7.532,5.972 -20.746,16.098 -22.651,17.358 -1.659,1.097 9.493,-9.929 18.424,-18.217 8.009,-7.431 8.16,-7.328 -6.504,-4.389 -15.689,3.144 -18.364,4.203 -23.858,9.444 -2.627,2.506 -4.982,4.224 -5.233,3.818 -0.599,-0.969 -2.248,-17.127 -2.204,-21.605 l 0.033,-3.497 1.363,2.518 c 3.096,5.723 3.764,-4.608 0.72,-11.146 l -2.052,-4.407 4.189,-0.556 c 4.068,-0.54 6.667,-2.021 3.545,-2.021 -3.82,0 -10.367,-9.599 -10.36,-15.19 0.007,-6.198 8.151,-13.381 12.52,-11.042 2.921,1.563 6.09,1.019 9.417,-1.616 4.029,-3.191 5.81,-3.184 8.892,0.032 2.953,3.082 3.612,2.206 3.707,-4.926 0.149,-11.244 -11.511,-16.564 -32.032,-14.616 -11.595,1.101 -12.261,0.923 -16.036,-4.289 -2.376,-3.28 -2.506,-3.345 -2.506,-1.262 0,3.471 1.607,6.117 4.834,7.961 l 2.984,1.706 -2.998,0.989 c -4.038,1.333 -5.502,3.104 -3.176,3.842 2.577,0.818 2.104,1.485 -2.702,3.812 -4.673,2.262 -6.856,4.94 -2.757,3.382 5.619,-2.136 7.57,-0.197 4.442,4.414 -2.724,4.013 -7.982,14.835 -8.718,17.942 l -0.6,2.532 1.819,-1.612 c 2.731,-2.42 2.935,-1.215 0.524,3.098 -1.185,2.121 -2.363,5.876 -2.622,8.356 l -0.468,4.504 2.248,-2.743 c 6.363,-7.759 6.305,2.861 -0.093,17.114 -4.818,10.734 -4.242,10.722 -9.142,0.186 -3.903,-8.394 -6.331,-20.094 -4.152,-20.016 1.103,0.04 3.153,1.802 4.876,4.193 l 1.521,2.11 -0.369,-4.31 c -0.204,-2.371 -1.376,-6.33 -2.606,-8.799 -2.444,-4.904 -2.354,-6.15 0.273,-3.774 3.365,3.046 -1.827,-9.702 -7.992,-19.622 -2.65,-4.263 -1.601,-5.307 3.868,-3.847 5.009,1.337 2.77,-1.709 -2.778,-3.778 -4.108,-1.533 -4.265,-1.695 -2.534,-2.621 2.702,-1.446 2.273,-2.584 -1.538,-4.081 l -3.383,-1.329 2.494,-1.517 c 3.356,-2.041 5.297,-5.2 4.967,-8.082 l -0.272,-2.375 -1.994,3.207 m -21.675,10.008 c 2.832,1.29 2.712,2.035 -0.508,3.158 -4.209,1.467 -10.844,0.477 -10.844,-1.619 0,-1.832 8.253,-2.951 11.352,-1.539 m 80.36,0.034 c 3.493,1.264 3.514,1.863 0.113,3.272 -3.106,1.286 -5.09,1.256 -8.428,-0.127 -5.956,-2.467 1.936,-5.451 8.315,-3.145 M 97.791,72.632 c -1.554,2.733 -1.585,17.938 -0.044,21.588 1.452,3.438 15.512,15.477 21.37,18.296 4.422,2.129 31.606,7.929 32.583,6.952 C 153.478,117.69 132.359,94.518 128.953,94.51 122.834,94.495 120.44,92.903 109.605,81.644 98.998,70.621 98.953,70.587 97.791,72.632 m 193.003,8.212 c -9.609,10.305 -14.175,13.669 -18.564,13.674 -4.984,0.006 -8.968,3.666 -20.206,18.561 -2.626,3.48 -4.443,6.438 -4.04,6.573 1.956,0.652 30.84,-5.799 33.71,-7.528 19.089,-11.506 26.449,-25.574 20.36,-38.917 -1.426,-3.125 -0.88,-3.496 -11.26,7.637 m -148.178,9.965 v 9.291 l 7.618,11.096 c 9.613,14.002 9.26,13.865 9.26,3.599 v -8.51 L 151.79,94.703 c -4.236,-6.369 -8.034,-11.941 -8.438,-12.382 -0.423,-0.46 -0.736,3.156 -0.736,8.488 m 105.622,3.399 -7.732,11.438 v 8.961 c 0,10.585 -0.646,10.867 9.484,-4.14 l 7.174,-10.63 0.151,-8.072 c 0.202,-10.838 -0.165,-10.74 -9.077,2.443 M 52.759,119.887 c -2.902,6.4 -4.18,20.698 -2.006,22.452 0.63,0.509 5.133,1.367 10.006,1.907 4.874,0.54 15.453,1.935 23.51,3.1 8.057,1.165 14.804,1.964 14.993,1.775 C 99.734,148.648 81.112,136.52 68.637,129.175 57.01,122.33 56.822,122.16 55.898,117.711 l -0.676,-3.253 -2.463,5.429 m 291.254,-2.524 c -0.752,3.952 -3.223,6.114 -14.899,13.037 -9.013,5.344 -30.38,18.942 -30.38,19.334 0,0.096 4.082,-0.488 9.072,-1.297 4.989,-0.808 16.227,-2.327 24.973,-3.375 18.074,-2.166 17.451,-1.798 17.411,-10.307 -0.026,-5.483 -1.093,-10.171 -3.626,-15.922 l -1.976,-4.487 -0.575,3.017 M 213.26,134.624 c 24.01,11.794 20.341,48.754 -5.413,54.517 -7.273,1.628 -7.168,-0.969 0.233,-5.749 24.444,-15.789 17.23,-47.831 -10.272,-45.623 -24.791,1.99 -28.76,30.953 -6.247,45.586 6.618,4.301 7.185,6.207 1.741,5.852 -20.425,-1.331 -30.096,-31.191 -15.59,-48.137 8.688,-10.15 22.799,-12.709 35.548,-6.446 m -155.97,18 c 5.412,6.833 16.333,12.323 28.786,14.469 5.641,0.973 43.882,2.27 43.882,1.488 0,-0.934 -13.546,-9.266 -17.521,-10.776 -5.879,-2.234 -46.747,-8.438 -55.584,-8.438 H 54.71 l 2.58,3.257 m 278.997,-2.678 c -1.392,0.18 -8.608,1.073 -16.034,1.986 -28.192,3.464 -34.207,5.157 -45.263,12.74 l -5.37,3.682 12.658,0.251 c 30.095,0.595 47.677,-3.52 57.855,-13.538 5.827,-5.735 5.394,-6.312 -3.846,-5.121 M 59.916,194.825 c 0,1.858 0.405,4.446 0.901,5.753 0.959,2.529 1.668,3.534 28.859,40.953 15.486,21.312 17.559,24.539 17.207,26.777 -0.516,3.274 1.461,5.81 7.975,10.234 4.337,2.945 11.749,10.833 11.711,12.462 -0.048,2.099 -5.561,6.254 -9.04,6.815 -3.915,0.631 -4.69,3.527 -1.896,7.079 2.54,3.23 5.764,3.095 6.437,-0.268 0.586,-2.93 7.57,-9.271 10.211,-9.271 1.093,0 4.393,3.271 9.579,9.493 4.351,5.222 8.48,10.165 9.175,10.986 0.706,0.833 1.144,2.638 0.992,4.088 -0.568,5.42 5.085,8.351 9.463,4.907 3.815,-3.001 1.121,-12.052 -3.106,-10.43 -1.257,0.482 -16.716,-20.203 -17.821,-23.845 -0.645,-2.13 6.326,-8.318 10.362,-9.198 5.331,-1.162 5.397,-1.381 1.71,-5.697 -3.253,-3.808 -4.601,-3.883 -6.082,-0.339 -1.167,2.794 -7.472,7.899 -8.766,7.099 -0.39,-0.241 -2.205,-2.61 -4.033,-5.264 l -3.324,-4.826 3.685,-3.173 c 6.49,-5.59 16.76,-10.794 23.063,-11.687 7.523,-1.065 7.998,-1.46 5.231,-4.348 l -2.286,-2.386 2.587,-1.53 c 1.423,-0.841 3.75,-2.177 5.171,-2.967 2.436,-1.356 2.583,-1.727 2.583,-6.509 v -5.071 l 5.063,-3.438 5.064,-3.439 v -4.61 c 0,-5.501 0.423,-5.424 -6.751,-1.234 -8.586,5.015 -9.569,4.515 -10.781,-5.485 -0.834,-6.888 -1.946,-6.92 -14.343,-0.41 -17.989,9.446 -20.551,12.455 -17.504,20.551 2.635,7 2.631,7.389 -0.103,10.123 l -2.225,2.225 h 2.533 c 1.393,0 3.498,-0.759 4.678,-1.688 2.926,-2.301 3.146,-2.183 3.146,1.688 0,3.875 0.817,4.157 4.872,1.685 4.767,-2.907 6.186,-0.891 2.507,3.563 -6.563,7.947 -18.769,10.73 -23.776,5.422 -1.469,-1.558 -3.494,-3.273 -4.501,-3.812 -1.587,-0.849 -20.025,-23.971 -35.628,-44.678 -12.563,-16.672 -22.799,-23.991 -22.799,-16.3 m 276.027,-2.174 c -4.132,1.32 -10.778,7.956 -19.713,19.687 -22.543,29.596 -33.047,42.715 -34.863,43.543 -1.11,0.505 -2.622,1.84 -3.36,2.966 -3.039,4.639 -9.51,5.101 -16.771,1.198 -9.477,-5.095 -14.656,-14.063 -5.392,-9.337 3.915,1.998 5.043,1.305 4.565,-2.804 -0.324,-2.777 -0.006,-2.839 3.304,-0.647 1.392,0.923 3.412,1.68 4.488,1.683 l 1.956,0.005 -1.877,-2.637 -1.878,-2.636 1.82,-5.651 c 3.083,-9.571 1.644,-11.705 -13.574,-20.135 -15.298,-8.475 -16.985,-8.622 -17.816,-1.556 -1.187,10.107 -2.183,10.621 -10.872,5.611 -3.22,-1.857 -6.012,-3.376 -6.203,-3.376 -0.191,0 -0.348,2.225 -0.348,4.944 v 4.943 l 5.064,3.125 5.063,3.126 v 5.024 c 0,5.471 -0.418,4.955 7.669,9.462 l 2.71,1.51 -2.367,2.47 -2.366,2.47 2.029,0.752 c 1.116,0.414 4.078,1.017 6.582,1.34 6.032,0.778 20.657,8.873 24.587,13.608 0.988,1.191 -5.338,11.361 -7.067,11.361 -1.687,0 -8.148,-6.088 -8.148,-7.677 0,-3.117 -2.611,-2.927 -5.67,0.412 -3.301,3.602 -3.243,5.036 0.221,5.44 5.032,0.588 12.675,7.77 11.231,10.554 -2.674,5.153 -16.348,23.351 -17.279,22.994 -4.436,-1.702 -7.156,7.265 -3.158,10.41 4.404,3.464 10.367,0.352 9.323,-4.866 -0.579,-2.894 16.746,-24.608 19.633,-24.608 2.611,0 10.034,6.54 10.329,9.101 0.563,4.882 8.281,1.601 8.281,-3.521 0,-2.062 -0.295,-2.26 -5.063,-3.393 -4.336,-1.031 -8.073,-5.11 -6.946,-7.582 1.503,-3.299 7.66,-9.648 11.59,-11.951 5.487,-3.216 7.366,-5.647 7.034,-9.102 -0.289,-3.001 4.705,-10.29 39.229,-57.258 5.873,-7.991 8.121,-12.661 8.146,-16.927 0.02,-3.44 0.072,-3.414 -4.123,-2.075 m -155.558,38.407 -6.535,3.963 -0.005,7.886 -0.005,7.886 4.008,-2.331 c 2.205,-1.282 5.433,-3.222 7.173,-4.31 l 3.165,-1.979 v -7.584 c 0,-4.172 -0.285,-7.565 -0.633,-7.54 -0.348,0.025 -3.574,1.829 -7.168,4.009 m 31.607,3.566 0.244,7.825 6.329,4.04 c 8.089,5.162 7.595,5.385 7.595,-3.422 v -7.565 l -5.896,-3.85 c -9.055,-5.91 -8.554,-6.09 -8.272,2.972 m -34.671,33.862 c -5.91,5.685 -8.294,11.37 -5.81,13.855 1.483,1.482 13.299,-12.921 13.299,-16.211 0,-4.757 -0.139,-4.713 -7.489,2.356 m 37.89,-2.03 c 0.022,3.921 0.168,4.143 6.751,10.191 l 6.73,6.182 v -4.141 c 0,-4.04 -0.152,-4.289 -6.239,-10.191 -7.397,-7.172 -7.269,-7.136 -7.242,-2.041 m -52.399,2.531 -6.254,4.853 4.89,0.254 c 5.277,0.275 4.186,0.902 16.147,-9.277 0.441,-0.375 -1.298,-0.682 -3.864,-0.682 -4.392,0 -5.032,0.284 -10.919,4.852 m 60.912,-2.923 c 10.249,8.683 9.561,8.304 14.569,8.031 l 4.679,-0.255 -6.007,-4.853 c -5.733,-4.631 -6.222,-4.851 -10.726,-4.822 l -4.72,0.031 2.205,1.868 m -44.821,18.449 c -9.233,11.975 -9.218,11.944 -9.253,18.627 -0.035,6.713 2.275,12.62 7.106,18.168 4.276,4.911 4.057,5.212 7.176,-9.876 l 2.783,-13.462 -2.218,-2.636 c -2.783,-3.308 -2.801,-5.983 -0.089,-13.189 3.098,-8.231 2.453,-7.953 -5.505,2.368 m 35.865,-4.521 c 3.425,8.451 3.567,11.84 0.641,15.292 l -2.441,2.878 2.884,13.155 c 1.586,7.236 3.073,13.345 3.304,13.578 0.755,0.756 6.778,-6.667 8.737,-10.768 5.377,-11.256 3.01,-18.583 -11.264,-34.866 l -4.013,-4.577 2.152,5.308 m -26.446,28.209 c -2.042,13.239 -2.826,21.185 -2.341,23.734 0.559,2.948 13.192,29.246 14.048,29.246 0.296,0 3.519,-6.164 7.161,-13.699 7.633,-15.788 7.645,-15.875 5.002,-34.783 l -1.525,-10.912 -4.074,4.548 c -2.24,2.501 -4.526,5.802 -5.081,7.334 -1.259,3.482 -1.75,3.489 -3.058,0.044 -0.573,-1.508 -2.874,-4.748 -5.113,-7.2 l -4.071,-4.457 -0.948,6.145"
       inkscape:connector-curvature="0"
       style="fill:#000000;fill-rule:evenodd;stroke:none" />
  </g>
</svg>
