<?xml version="1.0" encoding="UTF-8" standalone="no"?>
<svg
   xmlns:dc="http://purl.org/dc/elements/1.1/"
   xmlns:cc="http://creativecommons.org/ns#"
   xmlns:rdf="http://www.w3.org/1999/02/22-rdf-syntax-ns#"
   xmlns:svg="http://www.w3.org/2000/svg"
   xmlns="http://www.w3.org/2000/svg"
   xmlns:sodipodi="http://sodipodi.sourceforge.net/DTD/sodipodi-0.dtd"
   xmlns:inkscape="http://www.inkscape.org/namespaces/inkscape"
   id="svg"
   version="1.1"
   width="354.6485"
   height="426.89624"
   viewBox="0 0 354.6485 426.89624"
   sodipodi:docname="Drifter.svg"
   inkscape:version="0.92.4 (5da689c313, 2019-01-14)">
  <metadata
     id="metadata27">
    <rdf:RDF>
      <cc:Work
         rdf:about="">
        <dc:format>image/svg+xml</dc:format>
        <dc:type
           rdf:resource="http://purl.org/dc/dcmitype/StillImage" />
        <dc:title></dc:title>
      </cc:Work>
    </rdf:RDF>
  </metadata>
  <defs
     id="defs25" />
  <sodipodi:namedview
     pagecolor="#ffffff"
     bordercolor="#666666"
     borderopacity="1"
     objecttolerance="10"
     gridtolerance="10"
     guidetolerance="10"
     inkscape:pageopacity="0"
     inkscape:pageshadow="2"
     inkscape:window-width="640"
     inkscape:window-height="480"
     id="namedview23"
     showgrid="false"
     inkscape:zoom="0.49811475"
     inkscape:cx="177.94951"
     inkscape:cy="212.62391"
     inkscape:window-x="0"
     inkscape:window-y="0"
     inkscape:window-maximized="0"
     inkscape:current-layer="svg" />
  <g
     id="svgg"
     transform="translate(-22.050489,-22.620884)">
    <path
       id="path0"
       d="m 118.275,22.834 -94.347,0.504 -1.299,124.739 c -1.485,142.561 -0.805,154.577 10.495,185.459 61.391,167.771 303.723,148.866 340.627,-26.573 2.473,-11.756 2.948,-35.727 2.948,-148.838 V 23.301 h -79.453 c -43.699,0 -80.616,-0.218 -82.039,-0.485 -1.422,-0.267 -45.042,-0.259 -96.932,0.018 m 251.323,11.632 c 3.279,15.645 0.28,261.656 -3.367,276.195 C 341.182,410.53 243.396,465.807 146.602,434.814 87.863,416.006 41.622,361.771 33.209,301.82 31.018,286.204 28.365,32.476 30.372,30.469 31.111,29.73 107.487,29.126 200.097,29.126 h 168.382 l 1.119,5.34 M 81.553,38.735 37.864,39.806 v 128.155 c 0,139.213 -0.12,137.442 11.235,165.049 50.332,122.359 216.866,137.933 287.879,26.921 23.103,-36.116 23.795,-41.561 24.531,-192.941 l 0.627,-129.126 -118.447,-0.1 C 178.544,37.709 105.583,38.146 81.553,38.735 m 7.767,20.262 c 0,4.526 -6.273,8.175 -10.045,5.843 -4.598,-2.841 -1.523,-10.471 4.22,-10.471 4.843,0 5.825,0.78 5.825,4.628 m 231.068,-1.459 c 0,1.465 -7.812,14.307 -8.704,14.307 -0.74,0 -8.771,-13.436 -8.771,-14.674 0,-0.473 3.932,-0.86 8.737,-0.86 4.806,0 8.738,0.552 8.738,1.227 m 21.36,0.9 c 0,2.678 -6.263,13.407 -7.826,13.407 -1.076,0 -7.708,-12.587 -7.708,-14.629 0,-0.498 3.495,-0.905 7.767,-0.905 4.335,0 7.767,0.94 7.767,2.127 M 328.81,68.517 c 3.51,6.597 3.499,6.836 -0.702,15.07 l -4.268,8.367 -3.673,-4.715 c -5.974,-7.667 -6.407,-12.666 -1.75,-20.201 4.837,-7.826 5.49,-7.733 10.393,1.479 m -249.621,6.585 4.432,4.873 3.817,-4.852 c 3.446,-4.381 20.804,-12.188 22.757,-10.235 2.468,2.467 -5.065,9.667 -15.132,14.461 l -11.568,5.51 -11.568,-5.51 C 61.355,74.314 56.311,69.457 56.311,64.315 c 0,-3.088 17.962,5.382 22.878,10.787 m 107.482,-1.493 4.576,3.706 -7.274,1.364 c -4.012,0.753 -7.274,2.507 -7.274,3.911 0,3.024 -12.528,7.554 -16.585,5.997 -3.503,-1.344 -3.566,-6.876 -0.129,-11.403 3.161,-4.165 8.674,-4.427 10.187,-0.485 0.614,1.602 2.072,2.913 3.24,2.913 1.42,0 1.351,-0.772 -0.208,-2.33 -3.424,-3.424 -2.867,-5.064 2.039,-6.009 2.403,-0.463 4.927,-0.96 5.61,-1.106 0.683,-0.145 3.3,1.404 5.818,3.442 m 16.794,-2.465 4.437,1.189 -5.144,2.668 c -6.547,3.397 -9.836,3.381 -11.154,-0.054 -1.875,-4.886 2.538,-6.3 11.861,-3.803 m 13.733,2.429 c 1.518,0.963 1.845,2.157 0.771,2.821 -1.025,0.633 -3.521,-0.103 -5.547,-1.637 -4.182,-3.166 0.009,-4.204 4.776,-1.184 m -67.963,10.573 c -7.92,7.882 -15.254,9.235 -15.254,2.815 0,-1.915 10.696,-7.349 14.466,-7.349 1.655,0 3.009,-0.874 3.009,-1.942 0,-1.068 1.404,-1.942 3.119,-1.942 2.043,0 0.201,2.904 -5.34,8.418 m 61.286,-7.239 c 5.044,1.935 3.909,8.662 -1.298,7.691 -2.403,-0.448 -5.461,-0.879 -6.796,-0.959 C 201.092,83.56 200,82.257 200,80.744 c 0,-4.006 5.168,-5.891 10.521,-3.837 m 14.722,3.561 c 0,1.539 0.792,3.288 1.76,3.886 0.969,0.599 1.304,-0.661 0.745,-2.798 -0.972,-3.718 4.646,-5.796 7.623,-2.819 1.369,1.369 -2.843,10.548 -4.851,10.568 -7.171,0.072 -16.818,-7.214 -13.692,-10.341 2.396,-2.395 8.415,-1.32 8.415,1.504 m 43.66,4.945 c 3.854,3.199 3.875,11.674 0.029,11.674 -1.602,0 -2.913,0.874 -2.913,1.942 0,3.221 3.491,2.189 6.336,-1.873 2.63,-3.755 2.787,-3.738 9.819,1.04 11.845,8.049 5.955,18.926 -8.31,15.346 -4.86,-1.22 -4.872,-1.269 -0.846,-3.506 2.245,-1.248 3.685,-3.408 3.2,-4.799 -0.692,-1.984 -1.363,-1.906 -3.113,0.364 -2.695,3.495 -35.155,5.02 -40.696,1.912 -5.901,-3.311 -6.371,-13.6 -0.686,-15.027 4.98,-1.25 21.066,2.815 25.412,6.421 1.978,1.642 2.812,1.278 3.552,-1.553 0.81,-3.097 -0.337,-3.858 -7.044,-4.676 -4.407,-0.537 -10.633,-2.016 -13.837,-3.287 l -5.825,-2.31 5.264,-4.548 c 5.643,-4.874 22.259,-3.261 29.658,2.88 m -190.6,0.355 c 4.752,3.366 5.923,3.524 8.738,1.183 2.979,-2.479 12.908,-7.339 14.992,-7.339 4.431,0 -1.069,6.747 -8.619,10.573 l -9.498,4.813 -9.919,-4.785 c -5.668,-2.734 -9.919,-6.088 -9.919,-7.824 0,-3.767 6.224,-2.288 14.225,3.379 m 116.843,-3.244 c 0,1.068 -3.496,2.117 -7.767,2.331 -7.284,0.364 -7.526,0.208 -3.898,-2.501 4.169,-3.113 11.665,-3.003 11.665,0.17 m 122.336,4.868 c 3.277,6.335 2.682,6.929 -6.802,6.797 -7.352,-0.103 -7.365,-0.143 -2.87,-8.836 3.397,-6.568 5.445,-6.136 9.672,2.039 m 21.303,-2.052 c 4.598,8.892 3.899,10.466 -4.074,9.172 -9.132,-1.482 -9.23,-1.65 -5.16,-8.8 4.288,-7.533 5.505,-7.582 9.234,-0.372 m -183.481,1.972 c 1.736,3.244 1.163,4.271 -3.815,6.846 -6.939,3.588 -8.508,-0.633 -2.644,-7.112 3.975,-4.392 3.966,-4.393 6.459,0.266 m 99.065,-1.875 c 1.602,1.035 4.66,1.834 6.796,1.775 l 3.884,-0.106 -3.884,-1.669 c -5.805,-2.495 -10.656,-2.495 -6.796,0 m -58.609,7.281 c -0.73,6.349 -12.263,9.164 -14.428,3.523 -2.165,-5.642 0.763,-8.862 8.056,-8.862 6.476,0 6.942,0.39 6.372,5.339 m 17.832,-3.423 c 4.896,3.121 -0.254,8.67 -8.707,9.381 -6.16,0.519 -7.146,0.102 -6.115,-2.586 0.677,-1.762 1.23,-4.443 1.23,-5.958 0,-3.173 9.053,-3.731 13.592,-0.837 m -35.922,5.986 c 0,5.332 -5.375,7.345 -9.802,3.671 -3.976,-3.3 -3.509,-5.597 1.549,-7.622 6.134,-2.456 8.253,-1.442 8.253,3.951 m 45.631,-3.207 c 0,1.515 0.53,4.136 1.179,5.825 0.825,2.151 0.048,3.072 -2.589,3.072 -5.394,0 -6.198,-1.493 -3.702,-6.877 2.43,-5.241 5.112,-6.3 5.112,-2.02 m -86.534,1.082 c 6.133,2.332 6.305,5.116 0.612,9.866 -7.817,6.521 -14.097,1.23 -9.263,-7.803 2.457,-4.591 2.178,-4.524 8.651,-2.063 m -11.277,8.904 c 0.235,8.435 0.018,8.805 -4.838,8.24 -6.518,-0.758 -7.332,-5.283 -2.138,-11.886 5.621,-7.146 6.69,-6.587 6.976,3.646 m 39.559,-2.199 c 0,5.064 -8.869,6.485 -14.551,2.33 -3.461,-2.531 -3.36,-2.81 2.043,-5.641 6.13,-3.212 12.508,-1.524 12.508,3.311 m -14.754,6.626 c 1.75,2.833 -9.676,9.867 -14.133,8.701 -4.965,-1.298 -5.083,-2.172 -0.91,-6.783 3.273,-3.616 13.21,-4.883 15.043,-1.918 m -36.446,5.143 c 2.561,2.561 2.223,3.607 -2.96,9.153 -7.309,7.821 -9.094,6.361 -4.934,-4.036 3.595,-8.986 3.856,-9.155 7.894,-5.117 m 147.24,7.629 c 5.011,3.825 9.918,6.955 10.904,6.955 0.987,0 1.793,0.932 1.793,2.072 0,2.679 -7.139,0.485 -13.892,-4.269 -2.834,-1.996 -6.79,-3.629 -8.791,-3.629 -4.385,0 -12.268,-5.224 -12.268,-8.131 0,-4.077 13.168,0.067 22.254,7.002 m -138.968,2.511 c -2.021,3.963 -3.674,10.954 -3.674,15.534 0,9.102 -2.454,10.743 -6.041,4.041 -3.742,-6.992 -2.449,-15.136 3.369,-21.208 7.701,-8.038 10.862,-7.225 6.346,1.633 m 64.287,-3.323 c 0,4.014 -3.951,5.002 -16.137,4.036 -3.002,-0.238 -6.934,0.68 -8.738,2.041 -2.775,2.092 -2.906,2.054 -0.853,-0.249 3.28,-3.678 3.094,-6.857 -0.24,-4.091 -1.466,1.217 -4.306,1.598 -6.31,0.845 -3.208,-1.204 -3.327,-0.978 -0.999,1.885 2.234,2.746 2.234,3.4 0,4.19 -1.455,0.515 -5.048,1.814 -7.985,2.887 -4.606,1.684 -5.34,1.457 -5.34,-1.646 0,-5.917 15.647,-13.298 23.145,-10.919 2.042,0.648 4.274,0.269 4.961,-0.842 2.513,-4.065 18.496,-2.455 18.496,1.863 m 26.917,-0.78 c 2.139,0.667 2.178,1.389 0.208,3.764 -2.177,2.623 -2.791,2.621 -5.712,-0.023 -1.8,-1.629 -4.077,-2.934 -5.061,-2.9 -0.984,0.034 -0.093,1.345 1.98,2.913 3.646,2.758 3.615,2.852 -0.971,2.881 -3.773,0.023 -4.146,0.413 -1.827,1.912 2.528,1.633 2.491,1.886 -0.278,1.912 -1.755,0.016 -3.693,-1.281 -4.308,-2.883 -0.615,-1.602 -2.456,-2.913 -4.091,-2.913 -4.678,0 -3.47,-5.468 1.395,-6.319 4.327,-0.757 13.559,0.062 18.665,1.656 m 62.793,3.086 c 11.441,6.098 18.99,6.019 17.571,-0.184 -0.267,-1.167 0.389,-2.122 1.457,-2.122 3.146,0 2.218,9.361 -1.114,11.225 -1.68,0.941 -4.105,3.824 -5.388,6.407 -1.302,2.621 -4.444,4.998 -7.109,5.378 l -4.776,0.68 4.458,-3.61 c 6.394,-5.178 3.702,-9.956 -8.701,-15.441 -5.709,-2.525 -10.38,-5.475 -10.38,-6.557 0,-2.928 1.301,-2.535 13.982,4.224 m -139.214,-2.289 c 0.666,1.077 0.659,3.699 -0.016,5.825 -1.48,4.663 -12.616,5.627 -12.616,1.092 0,-6.142 9.796,-11.506 12.632,-6.917 m -69.784,3.381 c -0.738,5.045 -6.926,5.606 -6.926,0.627 0,-2.669 1.251,-4.025 3.712,-4.025 2.43,0 3.54,1.173 3.214,3.398 m 276.569,0.485 c 0,2.589 -1.294,3.884 -3.883,3.884 -2.589,0 -3.884,-1.295 -3.884,-3.884 0,-2.589 1.295,-3.883 3.884,-3.883 2.589,0 3.883,1.294 3.883,3.883 m -115.6,1.331 c 3.775,1.799 6.862,3.902 6.862,4.672 0,1.81 -7.511,-0.135 -8.843,-2.29 -0.559,-0.904 -3.822,-1.088 -7.251,-0.409 -5.653,1.119 -5.987,0.932 -3.571,-2.006 3.313,-4.027 4.295,-4.025 12.803,0.033 m -34.877,2.566 c 0.665,1.076 -0.195,2.494 -1.911,3.153 -3.717,1.426 -5.789,-0.146 -4.002,-3.037 1.612,-2.609 4.339,-2.662 5.913,-0.116 m -18.455,3.87 c 0,2.158 -1.294,3.884 -2.912,3.884 -1.618,0 -2.913,-1.726 -2.913,-3.884 0,-2.157 1.295,-3.883 2.913,-3.883 1.618,0 2.912,1.726 2.912,3.883 m 9.709,-0.971 c 0,1.618 -1.726,2.913 -3.883,2.913 -3.869,0 -5.051,-2.069 -2.589,-4.531 2.364,-2.365 6.472,-1.338 6.472,1.618 m -18.447,3.884 c 0,2.106 -1.529,4.125 -3.398,4.484 -2.545,0.491 -3.398,-0.635 -3.398,-4.484 0,-3.849 0.853,-4.975 3.398,-4.485 1.869,0.36 3.398,2.378 3.398,4.485 m -59.223,2.595 c 0,1.835 1.415,5.357 3.145,7.827 3.231,4.612 1.288,13.85 -2.913,13.85 -4.042,0 -8.222,-22.431 -4.815,-25.838 1.935,-1.935 4.583,0.469 4.583,4.161 m 29.126,-0.586 c 0,1.39 0.554,3.969 1.23,5.732 1.034,2.695 0.032,3.105 -6.311,2.586 -8.52,-0.699 -12.72,-10.119 -5.226,-11.72 5.253,-1.122 10.307,0.546 10.307,3.402 m 21.034,-0.324 c 0.664,3.448 -2.602,8.656 -4.339,6.919 -3.362,-3.362 -3.351,-11.85 0.015,-11.201 1.999,0.385 3.945,2.311 4.324,4.282 m -8.537,4.507 c 0.939,3.115 0.232,4.813 -2.647,6.354 -4.911,2.628 -8.008,-5.804 -3.935,-10.712 2.735,-3.296 4.656,-2.025 6.582,4.358 m -82.4,-1.338 c 0,2.158 -1.294,3.884 -2.912,3.884 -1.618,0 -2.913,-1.726 -2.913,-3.884 0,-2.157 1.295,-3.883 2.913,-3.883 1.618,0 2.912,1.726 2.912,3.883 m 163.051,-2.018 c 3.337,2.111 3.093,2.415 -5.432,6.752 -5.891,2.997 -6.865,3.019 -11.096,0.247 -2.551,-1.672 -6.854,-3.039 -9.561,-3.039 -6.095,0 -6.506,-3.309 -0.554,-4.455 8.282,-1.595 23.793,-1.307 26.643,0.495 m 114.619,2.018 c 0,2.589 -1.294,3.884 -3.883,3.884 -2.589,0 -3.884,-1.295 -3.884,-3.884 0,-2.589 1.295,-3.883 3.884,-3.883 2.589,0 3.883,1.294 3.883,3.883 m -149.514,0.903 c 0,8.075 -16.27,20.033 -18.687,13.734 -0.599,-1.561 -2.756,-3.368 -4.794,-4.014 -7.891,-2.505 -4.116,-5.354 12.801,-9.663 5.34,-1.36 9.927,-2.569 10.194,-2.687 0.267,-0.118 0.486,1.066 0.486,2.63 m 61.65,1.328 c 7.859,2.433 7.904,4.432 0.259,11.573 -7.767,7.256 -14.405,8.974 -18.912,4.895 -1.897,-1.717 -6.88,-4.309 -11.075,-5.761 l -7.625,-2.64 6.688,-3.459 c 3.679,-1.903 7.932,-4.702 9.451,-6.221 2.826,-2.826 8.194,-2.417 21.214,1.613 m -45.107,5.579 c 8.479,9.368 -8.411,26.317 -24.232,24.316 -13.901,-1.758 -13.902,-3.759 -0.008,-16.527 13.44,-12.349 18.61,-14.01 24.24,-7.789 m 65.981,2.464 c 10.579,5.973 11.663,14.104 2.867,21.506 -9.246,7.779 -14.715,8.456 -20.232,2.503 -2.549,-2.75 -6.893,-5.567 -9.654,-6.26 -6.771,-1.699 -6.311,-2.843 3.685,-9.175 4.709,-2.984 9.105,-7.134 9.769,-9.224 1.544,-4.866 4.004,-4.748 13.565,0.65 m -134.497,3.261 6.342,5.769 -5.102,0.057 c -2.806,0.031 -6.19,1.367 -7.52,2.969 -3.947,4.757 -7.781,3.354 -10.84,-3.969 -5.094,-12.192 5.683,-15.23 17.12,-4.826 m 24.885,-0.864 c 4.396,2.273 5.729,4.307 5.729,8.738 0,7.098 -2.086,7.198 -13.283,0.637 l -8.768,-5.139 4.444,-3.599 c 5.349,-4.331 4.791,-4.302 11.878,-0.637 m -69.056,4.679 c 1.237,5.636 -5.852,22.332 -9.23,21.736 -0.782,-0.138 -3.635,-0.251 -6.339,-0.251 h -4.917 l 5.027,-9.004 c 10.619,-19.02 13.51,-21.354 15.459,-12.481 m 22.357,-1.296 c 0,1.354 2.276,5.811 5.057,9.904 l 5.057,7.442 -4.571,-1.368 c -2.515,-0.753 -6.614,-2.658 -9.109,-4.234 -2.496,-1.576 -5.017,-2.386 -5.603,-1.8 -0.586,0.586 1.74,2.622 5.168,4.524 9.633,5.345 11.209,6.937 12.543,12.682 1.562,6.722 -0.167,6.721 -7.804,-0.005 -8.514,-7.497 -12.469,-14.43 -11.405,-19.988 1.319,-6.884 10.667,-13.155 10.667,-7.157 m 112.011,3.702 c 12.283,11.539 2.789,22.593 -16.298,18.975 -17.337,-3.286 -17.426,-3.445 -7.839,-14.001 9.488,-10.448 16.723,-11.939 24.137,-4.974 m 70.399,10.586 c 9.907,10.839 11.278,14.756 5.555,15.867 -1.949,0.378 -3.37,-1.392 -4.117,-5.126 -0.627,-3.136 -3.4,-8.202 -6.161,-11.257 l -5.021,-5.554 3.951,6.796 c 12.134,20.869 -4.871,39.296 -24.336,26.371 -12.916,-8.575 -13.128,-11.395 -1.31,-17.397 10.13,-5.145 19.65,-14.588 18.421,-18.274 -1.753,-5.258 3.596,-1.736 13.018,8.574 m -146.795,-6.15 c 3.382,2.563 3.269,2.867 -2.083,5.636 -3.113,1.609 -6.768,4.262 -8.123,5.894 -2.869,3.457 -11.816,-0.888 -11.816,-5.738 0,-7.038 15.127,-11.016 22.022,-5.792 m -47.358,11.595 c 9.624,13.988 7.467,16.894 -4.719,6.359 -6.605,-5.709 -7.155,-6.859 -5.11,-10.68 3.012,-5.628 2.971,-5.647 9.829,4.321 m 62.034,-4.496 6.21,2.165 -9.997,4.631 c -16.1,7.459 -25.504,4.553 -14.293,-4.418 6.374,-5.1 9.204,-5.472 18.08,-2.378 m 84.519,2.825 c 3.518,3.519 5.886,11.417 4.227,14.101 -0.883,1.43 -20.448,-3.979 -24.179,-6.684 -0.372,-0.27 0.939,-2.707 2.913,-5.417 4.149,-5.696 12.377,-6.661 17.039,-2 m -64.907,2.623 c 7.844,2.264 -9.669,10.667 -18.699,8.973 -8.214,-1.541 -8.277,-3.596 -0.233,-7.561 6.737,-3.321 11.169,-3.652 18.932,-1.412 m -38.349,12.06 c 7.884,9.417 3.591,18.388 -6.369,13.307 -10.761,-5.49 -17.228,-16.988 -12.317,-21.899 1.901,-1.901 14.909,4.08 18.686,8.592 m 63.309,-7.011 c 2.583,2.583 -4.191,5.182 -13.323,5.111 -11.867,-0.091 -14.059,-1.465 -8.721,-5.462 3.636,-2.723 19.218,-2.474 22.044,0.351 m -113.162,2.176 c 11.144,7.302 10.653,16.013 -0.637,11.296 -8.944,-3.737 -8.672,-3.379 -7.161,-9.4 1.504,-5.995 1.532,-6.001 7.798,-1.896 m -13.897,8.949 c -0.694,5.606 -1.891,13.252 -2.66,16.99 l -1.399,6.796 -2.931,-6.796 c -1.612,-3.738 -4.303,-7.934 -5.979,-9.324 -2.289,-1.899 -2.645,-3.94 -1.426,-8.19 2.452,-8.548 3.599,-9.67 9.88,-9.67 h 5.777 l -1.262,10.194 m 144.818,-5.15 c 0,0.429 -4.151,0.753 -9.224,0.719 -8.286,-0.055 -8.862,-0.335 -5.667,-2.757 3.201,-2.426 14.891,-0.826 14.891,2.038 m -51.848,4.258 c 10.931,9.767 -1.613,25.011 -16.285,19.79 l -8.093,-2.879 -0.236,-11.329 -0.237,-11.33 10.679,1.314 c 5.874,0.722 12.251,2.717 14.172,4.434 m 30.003,1.887 c 8.136,10.542 -5.897,25.925 -20.105,22.04 -4.533,-1.239 -5.489,-2.445 -4.933,-6.218 0.379,-2.575 0.703,-8.482 0.719,-13.128 l 0.03,-8.447 10.931,1.304 c 6.502,0.776 11.914,2.578 13.358,4.449 m 109.132,3.62 c 4.746,10.728 4.887,12.375 1.062,12.375 -1.868,0 -2.935,-1.915 -2.974,-5.34 -0.034,-2.937 -1.345,-7.036 -2.913,-9.109 -3.284,-4.342 -3.656,-6.91 -1,-6.91 1.018,0 3.64,4.043 5.825,8.984 m -193.568,-3.644 c 3.483,3.869 1.205,11.077 -6.184,19.565 -7.814,8.977 -9.471,-1.631 -2.6,-16.653 3.306,-7.228 4.532,-7.635 8.784,-2.912 m 113.669,2.687 c 0.816,7.035 -7.384,13.332 -17.359,13.332 -7.248,0 -7.505,-0.227 -7.505,-6.637 0,-3.651 -0.547,-8.062 -1.215,-9.803 -1.062,-2.77 0.457,-3.093 12.136,-2.586 12.806,0.556 13.375,0.788 13.943,5.694 m 72.082,-0.969 c 7.8,9.915 2.856,25.134 -7.664,23.59 -3.859,-0.566 -5.107,-0.069 -4.407,1.756 0.538,1.401 0.01,2.547 -1.172,2.547 -1.182,0 -2.15,-1.595 -2.15,-3.545 0,-1.95 -2.095,-5.513 -4.656,-7.919 l -4.656,-4.375 8.054,-8.402 c 9.567,-9.98 11.364,-10.374 16.651,-3.652 m -61.422,1.015 c 4.81,2.574 9.944,7.349 8.882,8.261 -10.406,8.936 -21.478,5.541 -17.349,-5.32 2.239,-5.888 2.676,-6.04 8.467,-2.941 m -148.577,2.716 c 6.242,4.373 6.199,15.411 -0.054,13.736 -2.403,-0.644 -5.898,-1.183 -7.767,-1.198 -2.665,-0.021 -3.398,-1.701 -3.398,-7.793 0,-8.725 3.452,-10.185 11.219,-4.745 m 182.12,10.719 c 3.075,3.398 3.184,4.225 0.759,5.727 -2.619,1.622 -17.061,-11.728 -17.316,-16.005 -0.124,-2.078 12.424,5.712 16.557,10.278 m -142.368,-5.079 c 7.212,3.672 10.425,8.561 3.884,5.91 -1.869,-0.757 -5.801,-2.247 -8.738,-3.31 -2.937,-1.064 -5.34,-3.231 -5.34,-4.818 0,-1.586 0.655,-2.57 1.456,-2.186 0.801,0.383 4.733,2.366 8.738,4.404 m -65.584,2.892 c 3.335,6.449 3.854,12.908 1.17,14.567 -0.986,0.609 -2.366,3.719 -3.067,6.911 -1.911,8.702 -6.791,7.485 -6.791,-1.693 0,-22.105 3.439,-29.936 8.688,-19.785 M 267.82,209 c 5.265,6.693 5.093,12.62 -0.519,17.892 -8.807,8.275 -23.967,9.363 -21.877,1.572 0.619,-2.306 1.137,-7.399 1.151,-11.319 0.024,-6.326 0.68,-7.271 5.83,-8.402 3.192,-0.701 6.301,-2.081 6.911,-3.067 1.85,-2.994 4.283,-2.043 8.504,3.324 m -127.135,1.02 c 5.366,2.445 5.274,2.296 5.821,9.397 0.206,2.67 1.026,6.821 1.822,9.224 1.311,3.954 0.826,4.369 -5.108,4.369 -3.605,0 -8.252,1.283 -10.325,2.851 -5.784,4.374 -8.127,3.565 -10.5,-3.627 -5.088,-15.415 5.361,-28.105 18.29,-22.214 m 101.476,3.779 c 3.902,6.453 2.189,13.657 -4.785,20.124 -9.151,8.485 -20.174,3.882 -23.637,-9.872 -3.01,-11.955 -2.831,-12.387 5.193,-12.537 4.005,-0.075 9.029,-0.898 11.165,-1.828 5.759,-2.508 8.658,-1.52 12.064,4.113 m -82.754,1.246 c 1.115,2.935 3.334,6.779 4.929,8.541 2.599,2.872 2.439,3.529 -1.538,6.315 -8.263,5.787 -13.283,1.166 -13.283,-12.228 0,-9.509 6.608,-11.265 9.892,-2.628 m 167.414,-2.672 c 4.167,10.859 3.684,20.637 -1.019,20.637 -6.811,0 -13.926,-8.144 -12.155,-13.913 2.744,-8.94 10.754,-13.028 13.174,-6.724 m -222.463,3.555 c 5.558,4.613 2.867,9.585 -4.843,8.946 -6.711,-0.555 -7.331,-1.117 -7.909,-7.159 -0.653,-6.838 5.609,-7.715 12.752,-1.787 m 96.129,1.171 c 7.266,-0.549 14.721,7.175 10.753,11.143 -1.392,1.392 -31.368,-11.926 -32.154,-14.286 -0.491,-1.471 1.694,-1.214 6.399,0.753 3.93,1.641 10.68,2.717 15.002,2.39 m 94.594,4.794 c 2.642,4.783 2.649,5.599 0.065,7.252 -2.386,1.526 -2.179,1.869 1.144,1.893 4.237,0.031 9.777,8.76 6.749,10.632 -3.696,2.284 -13.394,-1.383 -14.468,-5.471 -0.601,-2.288 -0.296,-4.433 0.678,-4.767 0.974,-0.334 0.077,-2.3 -1.992,-4.369 -2.069,-2.069 -3.762,-5.57 -3.762,-7.781 0,-5.905 7.859,-4.134 11.586,2.611 m -174.136,13.582 c 2.784,6.404 3.404,9.884 2.01,11.279 -2.818,2.818 -8.158,-9.004 -9.424,-20.866 -1.093,-10.244 -1.353,-10.579 7.414,9.587 M 91,231.69 c 6.687,19.797 4.882,21.874 -7.606,8.747 -7.751,-8.149 -8.462,-12.148 -3.307,-18.592 3.885,-4.856 6.851,-2.179 10.913,9.845 m 224.23,-2.688 c 4.931,5.272 9.471,8.767 10.089,7.767 4.36,-7.054 6.143,5.158 3.534,24.196 -1.449,10.57 -4.06,10.763 -9.067,0.67 -2.911,-5.869 -3.107,-7.851 -1.138,-11.545 2.153,-4.04 2.075,-4.211 -0.83,-1.815 -4.996,4.122 -7.951,1.6 -11.568,-9.872 -6.626,-21.022 -4.233,-23.527 8.98,-9.401 m -34.885,-2.277 c 3.817,7.381 6.166,23.76 3.408,23.76 -1.169,0 -2.613,-2.402 -3.208,-5.339 -0.595,-2.937 -2.671,-8.398 -4.614,-12.136 -3.469,-6.674 -3.508,-11.651 -0.091,-11.651 0.952,0 2.979,2.415 4.505,5.366 m -172.584,4.326 c 3.007,9.471 -9.038,11.386 -12.324,1.959 -1.996,-5.724 -1.917,-5.826 4.533,-5.826 4.849,0 6.885,1.011 7.791,3.867 m 75.475,12.586 c 0.593,3.233 1.652,7.844 2.352,10.246 1.191,4.09 0.692,4.369 -7.819,4.369 -5.001,0 -10.942,0.991 -13.203,2.201 -7.869,4.211 -14.384,-10.039 -9.102,-19.908 7.058,-13.189 25.153,-11.175 27.772,3.092 m 90.614,-11.522 c 10.72,12.917 -3.113,34.569 -17.374,27.194 -11.054,-5.717 -9.512,-24.261 2.024,-24.328 2.806,-0.016 6.19,-1.34 7.519,-2.942 3.058,-3.684 4.723,-3.668 7.831,0.076 m -192.786,9.893 c 3.969,4.365 2.276,16.244 -2.314,16.244 -0.419,0 -2.084,0.508 -3.7,1.127 -3.223,1.237 -7.058,-9.177 -7.078,-19.219 -0.013,-6.725 6.08,-5.865 13.092,1.848 m 69.982,-5.409 c 1.927,1.222 2.014,2.873 0.378,7.176 -1.169,3.073 -1.619,7.602 -1.001,10.064 1.147,4.571 -1.669,6.562 -13.13,9.283 -7.085,1.681 -13.737,-9.504 -9.976,-16.777 4.532,-8.762 17.126,-13.936 23.729,-9.746 m 94.535,4.081 c 8.428,16.298 -0.618,26.41 -9.466,10.58 l -4.993,-8.934 4.342,-3.623 c 5.821,-4.856 6.669,-4.691 10.117,1.977 m -133.721,5.093 c 1.923,7.662 -2.457,10.718 -7.143,4.983 -5.146,-6.298 -4.751,-9.979 1.071,-9.979 3.556,0 5.146,1.308 6.072,4.996 m 94.451,2.273 c 11.763,4.582 19.529,10.969 8.738,7.186 -2.403,-0.842 -9.019,-1.649 -14.703,-1.793 -10.65,-0.269 -13.851,-2.449 -13.908,-9.472 -0.022,-2.636 0.884,-3.259 3.368,-2.316 1.869,0.71 9.296,3.588 16.505,6.395 m 100.455,4.997 c 0.026,4.756 -0.541,5.307 -4.339,4.215 -2.403,-0.69 -5.898,-1.682 -7.767,-2.203 -6.492,-1.811 -4.256,-10.066 2.913,-10.757 7.265,-0.701 9.152,1.094 9.193,8.745 m -205.275,4.309 c 8.775,5.962 8.942,4.155 -1.412,15.273 l -8.659,9.298 -4.933,-5.322 c -5.464,-5.896 -5.95,-9.028 -2.802,-18.059 2.665,-7.643 7.804,-7.987 17.806,-1.19 m 182.786,-1.804 c 1.332,3.471 -1.454,14.858 -5.321,21.751 -4.141,7.378 -12.969,-0.549 -9.381,-8.424 5.603,-12.297 12.647,-18.682 14.702,-13.327 m -161.291,7.559 c 8.166,9.768 7.249,11.148 -2.586,3.892 -7.349,-5.422 -9.928,-8.781 -8.507,-11.081 1.774,-2.871 3.76,-1.584 11.093,7.189 m 87.568,-6.157 c 2.965,2.168 3.158,3.276 1.205,6.925 -1.278,2.389 -2.044,7.504 -1.702,11.367 l 0.623,7.024 -11.637,-0.519 c -12.635,-0.563 -14.502,-1.974 -14.547,-10.988 -0.064,-12.664 15.99,-21.171 26.058,-13.809 m 113.091,15.172 c 6.565,7.495 -8.146,23.312 -15.159,16.299 -0.712,-0.712 2.738,-30.108 3.997,-34.052 0.171,-0.534 2.123,2.524 4.339,6.796 2.216,4.272 5.286,9.203 6.823,10.957 m -16.849,-3.925 c 0,8.518 -2.346,9.43 -11.747,4.569 -5.376,-2.781 -8.099,-11.496 -4.664,-14.931 4.406,-4.406 16.411,3.173 16.411,10.362 m -70.906,-7.664 c 4.153,1.892 4.94,3.461 4.626,9.223 -0.208,3.819 0.261,8.909 1.043,11.312 1.225,3.765 0.732,4.369 -3.564,4.369 -3.033,0 -4.985,1.089 -4.985,2.782 0,1.53 -1.814,3.357 -4.03,4.06 -2.217,0.704 -3.608,1.701 -3.093,2.216 0.515,0.515 3.697,-0.491 7.071,-2.235 12.954,-6.699 22.625,-0.582 10.717,6.778 -7.081,4.376 -26.084,2.575 -23.137,-2.193 0.578,-0.935 -2.933,-1.699 -7.802,-1.699 -15.088,0 -4.369,-9.501 11.208,-9.934 4.452,-0.124 6.347,-0.595 4.211,-1.047 -2.136,-0.452 -5.762,-1.219 -8.058,-1.705 -6.238,-1.32 -9.177,-11.338 -5.444,-18.557 3.261,-6.306 11.814,-7.663 21.237,-3.37 m -53.312,10.826 c 0.991,9.854 0.861,10.199 -3.883,10.331 -4.45,0.124 -4.546,0.285 -1.025,1.733 3.568,1.467 3.607,1.71 0.481,2.986 -5.242,2.139 -13.172,-0.472 -11.855,-3.905 0.804,-2.096 -0.253,-2.892 -3.838,-2.892 -9.693,0 -7.172,-12.015 3.514,-16.751 11.447,-5.073 15.448,-3.026 16.606,8.498 m 72.762,-9.223 c 0.66,1.068 3.333,1.942 5.94,1.942 3.445,0 4.739,1.06 4.739,3.883 0,4.831 -1.591,4.831 -7.767,0 -2.669,-2.088 -5.946,-3.816 -7.281,-3.84 -3.412,-0.061 -3.047,-3.927 0.371,-3.927 1.539,0 3.338,0.874 3.998,1.942 m -175.501,7.607 c 0.714,3.49 2.265,7.313 3.448,8.495 2.666,2.666 2.781,5.257 0.234,5.257 -1.812,0 -5.628,-7.595 -8.736,-17.389 -1.03,-3.245 -0.716,-4.199 1.175,-3.569 1.419,0.473 3.165,3.716 3.879,7.206 m 76.382,-5.811 c 0.883,1.43 -1.687,9.91 -4.085,13.474 -0.823,1.223 -14.272,-7.736 -14.272,-9.507 0,-4.515 15.895,-7.95 18.357,-3.967 m 99.399,7.427 c 15.492,9.784 14.142,25.792 -1.505,17.858 -10.06,-5.101 -11.328,-6.732 -11.367,-14.622 -0.05,-10.098 1.421,-10.468 12.872,-3.236 m -130.434,2.801 c 11.568,8.154 11.221,11.478 -1.971,18.924 -5.921,3.341 -11.257,7.357 -11.858,8.923 -3.325,8.664 -14.27,-1.983 -14.27,-13.882 0,-17.992 13.129,-24.516 28.099,-13.965 m 171.35,1.025 c 4.041,1.837 7.649,3.522 8.018,3.745 1.35,0.814 -2.001,12.332 -3.588,12.332 -4.023,0 -13.587,-10.373 -13.587,-14.736 0,-5.582 -0.13,-5.563 9.157,-1.341 M 159.5,295.339 c -5.3,9.319 -17.932,6.531 -20.719,-4.572 -2.08,-8.287 0.118,-9.158 12.468,-4.941 l 11.441,3.906 -3.19,5.607 m 120.932,-3.625 c 11.791,13.479 11.262,16.125 -1.718,8.606 -9.365,-5.426 -10.616,-6.884 -10.68,-12.456 -0.1,-8.642 2.056,-7.972 12.398,3.85 m 13.469,-3.092 c 6.659,6.188 7.258,7.479 5.381,11.598 -2.831,6.215 -4.104,5.782 -10.984,-3.738 -9.994,-13.829 -6.338,-18.957 5.603,-7.86 m -87.025,-3.056 c 3.486,5.64 -7.593,8.765 -19.429,5.479 -7.2,-1.999 -7.459,-2.313 -3.998,-4.844 4.343,-3.175 21.568,-3.642 23.427,-0.635 m -113.672,5.026 c 0,3.51 2.543,7.575 7.973,12.739 4.385,4.172 7.429,8.128 6.764,8.793 -1.726,1.726 -22.504,-20.186 -22.504,-23.733 0,-1.66 1.702,-2.954 3.883,-2.954 2.909,0 3.884,1.294 3.884,5.155 m 42.794,4.694 c 1.184,2.213 5.636,5.504 9.893,7.311 l 7.74,3.288 -9.064,6.389 c -4.986,3.514 -9.509,8.088 -10.052,10.164 -0.543,2.077 -2.025,3.776 -3.293,3.776 -2.299,0 -20.542,-10.914 -20.542,-12.289 0,-12.25 20.614,-27.427 25.318,-18.639 m 53.322,-1.306 c 5.34,1.29 9.566,3.172 9.392,4.183 -0.175,1.01 4.369,1.837 10.098,1.837 12.673,0 16.598,2.876 10.996,8.058 -2.136,1.976 -7.374,6.931 -11.64,11.012 -14.164,13.548 -28.895,7.043 -20.199,-8.919 l 4.473,-8.209 -4.948,5.825 c -2.722,3.204 -4.953,6.481 -4.958,7.282 -0.02,3.065 -11.371,1.272 -16.253,-2.569 -5.418,-4.261 -6.603,-10.927 -3.106,-17.462 2.348,-4.387 10.878,-4.726 26.145,-1.038 m 129.527,0.68 c -8.13,19.513 -16.818,28.765 -19.755,21.039 -3.414,-8.98 5.738,-24.437 14.47,-24.437 5.627,0 6.474,0.545 5.285,3.398 m -59.085,1.567 c 5.481,3.839 5.481,7.591 0,11.43 -2.373,1.662 -3.354,3.023 -2.179,3.023 1.174,0 3.223,-1.311 4.553,-2.913 3.316,-3.995 5.263,-3.661 8.491,1.456 5.492,8.709 5.74,12.984 0.867,14.938 l -4.504,1.806 4.369,0.124 c 4.765,0.134 6.781,11.773 2.039,11.773 -1.723,0 -1.762,0.568 -0.15,2.18 4.208,4.208 -1.165,11.412 -8.511,11.412 -6.85,0 -7.114,-0.365 -5.261,-7.281 0.734,-2.737 2.719,-4.415 5.314,-4.492 3.95,-0.118 3.929,-0.209 -0.438,-1.957 -3.842,-1.539 -4.452,-2.924 -3.788,-8.608 0.588,-5.041 -0.024,-7.033 -2.391,-7.784 -1.75,-0.556 -4.24,-2.986 -5.532,-5.401 -1.293,-2.416 -4.928,-5.533 -8.078,-6.927 -6.581,-2.913 -7.308,-5.33 -2.101,-6.983 1.995,-0.633 5.189,-2.877 7.097,-4.985 4.181,-4.619 4.707,-4.661 10.203,-0.811 m 24.094,8.884 c 5.331,3.796 5.377,3.987 2.06,8.548 -4.673,6.428 -7.714,5.935 -10.935,-1.771 -1.507,-3.608 -3.703,-7.155 -4.88,-7.882 -1.177,-0.727 -2.14,-2.24 -2.14,-3.36 0,-2.866 9.248,-0.268 15.895,4.465 m -46.74,2.965 c 10.636,5.788 11.224,6.991 5.41,11.063 -8.012,5.613 -21.979,-4.307 -18.57,-13.19 1.534,-3.997 2.066,-3.911 13.16,2.127 m -74.795,5.516 c 3.934,2.67 8.779,4.855 10.765,4.855 4.954,0 4.542,3.268 -0.756,5.999 -2.403,1.239 -6.125,3.847 -8.272,5.794 -3.682,3.342 -4.587,3.369 -16.019,0.49 -15.449,-3.892 -15.564,-8.631 -0.432,-17.856 8.156,-4.972 6.188,-5.068 14.714,0.718 m 62.983,4.912 c 7.498,7.004 7.989,6.336 -8.21,11.163 -17.114,5.099 -18.633,2.039 -5.814,-11.706 6.19,-6.636 6.345,-6.63 14.024,0.543 m 70.346,1.733 c 3.849,14.857 -1.972,26.127 -6.399,12.388 -1.308,-4.06 -3.259,-8.491 -4.335,-9.846 -1.378,-1.734 -0.914,-3.616 1.567,-6.358 4.599,-5.081 7.135,-4.026 9.167,3.816 m -38.52,7.037 c 1.577,6.282 -0.244,9.252 -4.922,8.028 -2.326,-0.608 -3.664,0.053 -3.664,1.81 0,1.983 1.377,2.422 4.854,1.549 3.4,-0.853 4.846,-0.427 4.825,1.42 -0.057,5.048 -3.626,8.253 -11.966,10.748 -11.608,3.472 -14.402,3.387 -11.306,-0.344 1.33,-1.602 3.621,-2.912 5.093,-2.912 1.471,0 2.674,-1.238 2.674,-2.751 0,-1.513 1.07,-3.107 2.378,-3.543 1.307,-0.436 0.433,-1.301 -1.942,-1.922 -2.376,-0.621 -4.319,-0.337 -4.319,0.631 0,0.968 -1.748,1.76 -3.884,1.76 -2.847,0 -3.883,-1.295 -3.883,-4.855 0,-3.241 1.078,-4.854 3.245,-4.854 1.785,0 4.897,-1.495 6.915,-3.321 2.901,-2.626 3.994,-2.795 5.223,-0.807 1.14,1.845 1.836,1.437 2.612,-1.533 1.473,-5.633 6.571,-5.067 8.067,0.896 m 29.875,4.528 c 2.399,6.883 -1.307,16.18 -8.269,20.742 -6.932,4.541 -7.635,2.92 -3.085,-7.109 2.131,-4.698 3.895,-11.925 3.918,-16.061 0.049,-8.632 4.034,-7.331 7.436,2.428 m -101.568,-5.588 c 0.66,1.068 3.718,1.941 6.796,1.941 5.398,0 9.345,2.953 7.035,5.263 -1.655,1.655 -30.135,1.412 -31.812,-0.272 -0.79,-0.793 0.626,-3.114 3.147,-5.158 4.923,-3.991 12.876,-4.942 14.834,-1.774 m -68.583,3.994 c -8.15,3.268 -4.774,9.825 8.389,16.294 7.225,3.551 10.409,5.993 8.383,6.428 -1.797,0.386 -7.469,-1.535 -12.606,-4.269 -11.489,-6.117 -15.773,-6.26 -18.047,-0.603 -1.696,4.219 -1.76,4.188 -1.879,-0.902 -0.076,-3.268 1.268,-6.016 3.537,-7.231 2.013,-1.077 4.214,-4.166 4.891,-6.864 0.953,-3.794 2.433,-4.878 6.534,-4.783 5.224,0.122 5.236,0.151 0.798,1.93 m 112.272,9.466 c 0,2.841 -1.648,3.556 -8.511,3.694 -4.682,0.094 -9.269,0.308 -10.195,0.476 -0.925,0.168 -3.263,0.202 -5.195,0.075 -6.123,-0.401 -1.646,-3.722 6.921,-5.134 4.533,-0.747 9.534,-2.062 11.114,-2.922 3.706,-2.018 5.866,-0.615 5.866,3.811 m -91.748,4.895 c 5.073,2.62 12.064,5.784 15.535,7.032 3.47,1.247 6.31,3.473 6.31,4.945 0,4.406 -10.479,3.116 -17.674,-2.175 -3.629,-2.669 -8.995,-6.382 -11.925,-8.252 -11.298,-7.211 -5.466,-8.376 7.754,-1.55 m 35.328,-1.515 c 2.55,1.787 4.004,2.224 3.23,0.971 -0.937,-1.515 0.255,-2.277 3.561,-2.277 6.03,0 6.459,2.949 0.864,5.943 -4.13,2.211 -17.254,-2.646 -17.254,-6.385 0,-2.531 4.716,-1.672 9.599,1.748 m 35.542,7.46 c 0.835,4.371 0.503,4.495 -9.935,3.701 -13.338,-1.014 -18.147,-2.456 -16.589,-4.976 4.062,-6.572 25.218,-5.555 26.524,1.275 m 24.955,-0.892 c -7.679,7.339 -22.523,7.908 -22.523,0.863 0,-3.39 1.294,-3.883 10.197,-3.883 5.609,0 10.196,-0.655 10.194,-1.456 -0.001,-0.801 1.874,-1.457 4.168,-1.457 3.824,0 3.654,0.496 -2.036,5.933 m 60.9,-1.564 c -2.901,9.72 -6.831,13.833 -10.098,10.566 -2.692,-2.693 -2.528,-3.575 1.648,-8.855 5.631,-7.12 10.35,-8.075 8.45,-1.711 m -28.433,7.025 c 1.936,1.227 1.069,2.882 -3.547,6.766 -6.738,5.67 -9.698,6.304 -13.177,2.825 -5.442,-5.442 9.633,-14.087 16.724,-9.591 m -139.456,1.499 c 0,0.683 -1.528,2.359 -3.395,3.725 -1.868,1.365 -2.763,3.115 -1.989,3.889 0.773,0.773 2.531,0.472 3.907,-0.669 4.886,-4.056 40.428,-3.602 43.467,0.555 7.128,9.747 0.261,16.381 -13.016,12.573 -9.886,-2.835 -11.63,-2.034 -2.761,1.267 4.272,1.59 11.46,3.212 15.973,3.603 4.514,0.392 9.295,1.386 10.626,2.208 1.33,0.823 5.722,1.257 9.759,0.965 7.91,-0.571 12.45,4.332 7.129,7.701 -1.491,0.944 -1.793,1.73 -0.671,1.746 1.121,0.016 3.146,-1.062 4.499,-2.397 1.973,-1.946 3.015,-1.677 5.25,1.352 1.598,2.164 2.062,4.506 1.087,5.481 -2.261,2.261 -14.841,0.985 -14.729,-1.494 0.113,-2.508 -8.834,-7.169 -11.578,-6.032 -1.156,0.479 -0.68,0.94 1.058,1.025 1.738,0.084 4.36,1.609 5.825,3.388 2.414,2.93 2.119,3.098 -3.14,1.788 -3.194,-0.796 -6.384,-2.383 -7.091,-3.526 -0.707,-1.144 -4.211,-2.167 -7.787,-2.274 -5.029,-0.15 -6.435,-0.992 -6.211,-3.716 0.275,-3.327 0.088,-3.339 -3.365,-0.215 -7.343,6.646 -31.775,0.92 -34.006,-7.969 -0.662,-2.639 -2.406,-4.799 -3.876,-4.799 -1.469,0 -5.525,-2.627 -9.012,-5.838 l -6.342,-5.838 4.584,-3.871 c 4.226,-3.568 15.805,-5.493 15.805,-2.628 m 154.951,3.03 c 3.373,3.373 2.902,5.69 -2.488,12.233 -3.698,4.489 -5.193,5.231 -6.516,3.235 -1.374,-2.071 -1.97,-1.933 -2.977,0.691 -0.935,2.437 -2.628,2.972 -6.581,2.078 -4.314,-0.976 -4.678,-0.813 -1.923,0.862 5.108,3.104 4.158,5.242 -3.884,8.74 -4.005,1.742 -8.799,3.967 -10.653,4.945 -4.307,2.272 -5.366,2.24 -5.366,-0.163 0,-1.068 1.456,-1.942 3.236,-1.942 1.78,0 2.76,-0.476 2.178,-1.058 -0.582,-0.582 1.515,-3.63 4.659,-6.774 3.144,-3.145 5.13,-6.665 4.414,-7.824 -1.715,-2.775 6.6,-11.528 10.952,-11.528 1.871,0 3.776,1.092 4.232,2.427 0.457,1.335 0.522,0.533 0.146,-1.781 -0.95,-5.844 6.104,-8.608 10.571,-4.141 m -35.625,5.748 c 5.581,2.543 5.984,3.691 2.518,7.182 -1.946,1.961 -1.753,2.189 0.971,1.152 2.552,-0.972 3.398,-0.303 3.398,2.687 0,4.184 -7.239,10.582 -10.025,8.86 -0.894,-0.552 -1.625,0.358 -1.625,2.023 0,3.666 -7.281,11.324 -9.477,9.967 -0.862,-0.533 -4.749,-0.09 -8.638,0.984 -7.958,2.197 -15.894,-0.578 -14.209,-4.969 0.556,-1.448 -0.651,-3 -2.762,-3.552 -6.777,-1.773 -3.964,-5.228 4.255,-5.228 6.949,0 7.681,0.39 5.551,2.957 -2.052,2.473 -1.932,2.757 0.733,1.734 1.753,-0.673 3.187,-1.936 3.187,-2.806 0,-2.385 13.312,-6.295 17.607,-5.172 2.067,0.541 3.302,0.245 2.744,-0.658 -0.558,-0.903 0.533,-2.635 2.424,-3.849 3.198,-2.053 3.181,-2.126 -0.24,-1.044 -3.613,1.144 -10.884,-3.572 -10.884,-7.059 0,-1.326 4.263,-3.818 9.132,-5.339 0.217,-0.068 2.62,0.891 5.34,2.13 m -64.9,3.572 c 0.925,0 0.755,2.661 -0.379,5.914 -2.596,7.445 -6.022,6.499 -6.984,-1.93 -0.612,-5.352 -0.192,-6.238 2.472,-5.215 1.765,0.677 3.966,1.231 4.891,1.231 m -42.776,2.513 c 0,1.644 -1.092,3.429 -2.427,3.968 -1.335,0.539 -0.513,1.048 1.827,1.133 5.468,0.197 7.194,-2.617 3.491,-5.69 -2.347,-1.948 -2.891,-1.837 -2.891,0.589 m 92.816,-0.183 c 3.957,3.957 2.598,7.011 -3.738,8.403 -3.912,0.859 -6.576,0.511 -7.497,-0.979 -1.029,-1.666 -1.759,-1.453 -2.609,0.763 -1.431,3.729 -14.17,4.266 -15.387,0.648 -2.113,-6.28 0.914,-9.49 8.437,-8.947 4.084,0.295 8.044,-0.083 8.802,-0.841 2.179,-2.179 9.436,-1.603 11.992,0.953 m -30.707,1.068 c -0.137,7.565 -2.664,10.194 -9.794,10.194 -8.656,0 -10.701,-2.167 -7.253,-7.688 2.422,-3.878 17.112,-6.038 17.047,-2.506"
       inkscape:connector-curvature="0"
       style="fill:#000000;fill-rule:evenodd;stroke:none" />
  </g>
</svg>
