<svg id="svg" version="1.1" xmlns="http://www.w3.org/2000/svg" xmlns:xlink="http://www.w3.org/1999/xlink" width="400" height="400" viewBox="0, 0, 400,400"><g id="svgg"><path id="path0" d="M264.400 178.813 C 264.400 179.039,264.085 179.342,263.700 179.486 C 263.315 179.629,262.550 180.070,262.000 180.467 C 260.324 181.675,216.456 181.638,215.652 180.428 C 214.805 179.152,186.682 179.125,186.000 180.400 C 185.668 181.020,185.162 181.200,183.752 181.200 C 182.005 181.200,181.807 181.328,178.800 184.400 C 175.735 187.532,175.627 187.600,173.723 187.600 C 172.304 187.600,171.601 187.807,171.125 188.363 C 170.495 189.099,169.498 189.128,143.153 189.179 C 128.128 189.208,115.791 189.275,115.738 189.329 C 115.684 189.383,115.612 195.271,115.577 202.413 L 115.515 215.400 117.583 215.700 C 120.876 216.179,121.200 215.824,121.200 211.742 L 121.200 208.312 123.509 206.056 C 124.779 204.815,126.024 203.331,126.274 202.757 C 127.136 200.789,129.140 200.548,142.684 200.787 C 149.331 200.904,156.621 200.853,158.884 200.673 C 163.873 200.277,160.143 200.301,199.948 200.405 C 236.576 200.501,233.583 200.750,233.594 197.600 C 233.599 196.051,233.781 195.657,234.900 194.770 L 236.200 193.741 255.530 193.922 L 274.859 194.104 275.230 195.078 C 275.433 195.614,275.600 196.085,275.600 196.126 C 275.600 196.167,266.883 196.232,256.229 196.270 C 233.321 196.354,235.013 196.007,235.406 200.535 C 235.562 202.331,235.739 203.854,235.799 203.920 C 236.090 204.242,274.066 204.091,274.365 203.767 C 274.551 203.565,274.921 202.719,275.187 201.886 C 275.454 201.053,276.110 200.084,276.646 199.733 C 277.273 199.322,277.543 198.851,277.404 198.412 C 277.138 197.574,278.192 194.936,278.885 194.705 C 279.290 194.570,279.292 194.319,278.895 193.449 C 278.191 191.904,278.262 185.215,278.993 184.250 C 279.504 183.576,279.438 183.377,278.353 182.292 L 277.146 181.084 271.994 181.163 C 266.577 181.246,265.200 180.807,265.200 179.000 C 265.200 178.670,265.020 178.400,264.800 178.400 C 264.580 178.400,264.400 178.586,264.400 178.813 M191.843 181.900 C 192.656 182.971,192.502 183.600,191.427 183.600 C 190.807 183.600,190.362 183.311,190.201 182.804 C 189.716 181.275,190.882 180.633,191.843 181.900 M195.186 182.374 C 195.789 183.500,195.725 183.600,194.400 183.600 C 193.142 183.600,192.826 182.934,193.680 182.080 C 194.351 181.409,194.707 181.479,195.186 182.374 M198.306 186.900 C 199.000 187.760,198.834 195.284,198.103 196.100 C 197.225 197.080,196.174 196.973,194.559 195.742 L 193.172 194.683 193.286 191.052 C 193.393 187.634,193.458 187.392,194.400 186.917 C 195.687 186.267,197.787 186.258,198.306 186.900 M190.434 191.000 C 190.739 195.690,189.942 196.778,187.782 194.618 C 185.653 192.489,186.556 187.042,188.998 187.282 L 190.200 187.400 190.434 191.000 M250.200 188.000 C 250.710 188.219,249.550 188.329,247.000 188.303 C 243.241 188.264,243.156 188.246,245.600 188.000 C 249.340 187.623,249.323 187.623,250.200 188.000 M265.167 188.256 C 265.258 188.335,264.303 188.400,263.043 188.400 C 261.657 188.400,260.848 188.246,260.994 188.010 C 261.207 187.665,264.721 187.873,265.167 188.256 M164.720 190.480 C 165.922 191.682,164.281 195.200,162.518 195.200 C 161.441 195.200,160.344 190.935,161.271 190.348 C 162.057 189.849,164.170 189.930,164.720 190.480 M122.884 196.063 C 122.782 197.128,122.541 198.000,122.349 198.000 C 121.786 198.000,121.775 191.888,122.336 191.000 C 122.719 190.394,123.095 193.867,122.884 196.063 M148.600 195.800 C 148.600 196.203,148.375 196.608,148.100 196.700 C 147.783 196.806,147.600 196.476,147.600 195.800 C 147.600 195.124,147.783 194.794,148.100 194.900 C 148.375 194.992,148.600 195.397,148.600 195.800 M159.600 195.800 C 159.600 196.133,159.244 196.400,158.800 196.400 C 158.003 196.400,157.760 195.974,158.267 195.467 C 158.754 194.979,159.600 195.191,159.600 195.800 M167.730 195.463 C 168.201 195.935,167.191 196.723,166.385 196.512 C 165.281 196.223,165.397 195.200,166.533 195.200 C 167.047 195.200,167.585 195.318,167.730 195.463 M180.708 195.925 C 180.795 196.186,180.582 196.400,180.233 196.400 C 179.885 196.400,179.600 196.115,179.600 195.767 C 179.600 195.060,180.461 195.183,180.708 195.925 M122.630 204.303 C 122.147 204.786,121.918 203.991,122.230 202.919 L 122.555 201.800 122.708 202.937 C 122.792 203.562,122.757 204.177,122.630 204.303 M158.409 204.707 C 157.271 205.963,156.666 206.887,155.826 208.651 C 155.498 209.340,154.953 210.009,154.615 210.139 C 154.277 210.269,154.000 210.742,154.000 211.191 C 154.000 211.640,153.640 212.316,153.200 212.693 C 152.760 213.070,152.400 213.624,152.400 213.926 C 152.400 214.227,152.040 214.931,151.600 215.491 C 151.160 216.050,150.800 217.086,150.800 217.793 C 150.800 218.503,150.443 219.490,150.000 220.000 C 149.496 220.581,149.200 221.497,149.200 222.474 C 149.200 223.484,148.991 224.105,148.600 224.255 C 147.370 224.727,148.064 225.200,149.986 225.200 C 151.562 225.200,152.060 225.365,152.400 226.000 C 152.737 226.630,153.238 226.800,154.753 226.800 C 156.103 226.800,156.953 227.039,157.600 227.600 C 158.137 228.066,159.097 228.400,159.898 228.400 C 160.668 228.400,161.722 228.752,162.291 229.200 C 162.944 229.714,163.914 230.000,165.000 230.000 C 166.086 230.000,167.056 230.286,167.709 230.800 C 168.390 231.336,169.332 231.600,170.560 231.600 C 171.960 231.600,172.511 231.789,172.893 232.400 C 173.289 233.034,173.826 233.200,175.482 233.200 C 177.162 233.200,177.656 233.357,178.000 234.000 C 178.271 234.507,178.838 234.800,179.544 234.800 C 180.158 234.800,181.949 235.250,183.523 235.800 C 185.097 236.350,186.613 236.801,186.892 236.802 C 187.172 236.804,187.903 237.067,188.517 237.388 C 189.131 237.708,190.301 238.087,191.117 238.230 C 191.933 238.373,192.960 238.713,193.400 238.986 C 193.840 239.259,195.100 239.613,196.200 239.772 C 197.300 239.932,198.582 240.307,199.048 240.606 C 199.514 240.905,200.504 241.307,201.248 241.498 C 202.331 241.777,202.626 242.072,202.732 242.978 C 202.842 243.924,202.747 244.065,202.150 243.836 C 201.757 243.685,200.618 243.459,199.618 243.333 C 198.618 243.207,197.408 242.860,196.928 242.561 C 196.449 242.263,195.279 241.900,194.328 241.756 C 193.378 241.612,192.330 241.264,192.000 240.982 C 191.670 240.701,190.505 240.339,189.411 240.177 C 188.316 240.015,186.624 239.459,185.651 238.941 C 183.602 237.852,183.272 237.819,182.232 238.606 C 181.513 239.151,181.507 239.234,182.132 239.925 C 183.095 240.989,183.012 243.079,181.994 243.402 C 179.945 244.052,182.208 244.401,188.524 244.407 C 193.343 244.412,196.238 244.604,198.200 245.049 C 204.936 246.578,204.400 247.637,204.400 232.790 L 204.400 220.836 205.811 220.572 C 206.587 220.426,207.403 219.968,207.625 219.553 C 207.847 219.139,208.249 218.800,208.518 218.800 C 208.787 218.800,209.232 218.440,209.507 218.000 C 209.782 217.560,210.393 217.200,210.865 217.200 C 211.345 217.200,212.357 216.521,213.161 215.660 C 213.953 214.813,215.063 214.007,215.628 213.870 C 216.193 213.733,217.279 213.016,218.041 212.276 C 218.803 211.536,219.870 210.818,220.413 210.680 C 220.956 210.542,222.030 209.840,222.800 209.120 C 224.328 207.690,225.148 207.132,227.051 206.226 C 227.740 205.898,228.409 205.353,228.539 205.015 C 228.669 204.677,229.051 204.400,229.387 204.400 C 229.724 204.400,230.000 204.255,230.000 204.079 C 230.000 203.380,206.552 203.501,205.188 204.206 C 204.041 204.799,203.865 204.802,203.232 204.229 C 202.640 203.693,201.082 203.600,192.669 203.600 L 182.800 203.600 182.742 215.500 C 182.664 231.391,182.750 230.174,181.630 231.367 C 180.466 232.607,179.473 232.673,178.109 231.600 C 177.458 231.088,176.486 230.800,175.408 230.800 C 174.232 230.800,173.506 230.559,173.000 230.000 C 172.487 229.433,171.768 229.200,170.534 229.200 C 169.287 229.200,168.598 228.973,168.107 228.400 C 167.584 227.789,166.927 227.600,165.325 227.600 C 163.660 227.600,163.143 227.440,162.814 226.825 C 162.563 226.358,161.883 226.001,161.099 225.925 C 159.435 225.765,158.926 223.228,160.377 222.322 C 160.865 222.017,161.200 221.384,161.200 220.766 C 161.200 220.193,161.560 219.398,162.000 219.000 C 162.440 218.602,162.800 218.107,162.800 217.901 C 162.800 217.695,163.160 217.069,163.600 216.509 C 164.040 215.950,164.400 214.963,164.400 214.315 C 164.400 212.814,166.331 210.800,167.769 210.800 C 168.974 210.800,169.075 210.489,168.100 209.776 C 167.531 209.361,167.416 208.733,167.485 206.432 L 167.570 203.600 164.814 203.600 C 162.841 203.600,161.878 203.779,161.429 204.229 C 160.857 204.800,160.743 204.800,160.171 204.229 C 159.401 203.458,159.587 203.408,158.409 204.707 M203.400 211.200 L 203.400 216.200 201.000 216.200 L 198.600 216.200 198.488 211.081 L 198.376 205.961 200.888 206.081 L 203.400 206.200 203.400 211.200 M161.200 208.000 C 161.200 208.880,161.023 209.600,160.808 209.600 C 160.305 209.600,159.842 207.787,160.144 207.001 C 160.590 205.840,161.200 206.417,161.200 208.000 M159.226 213.734 C 158.925 214.035,158.800 213.628,158.800 212.347 C 158.800 209.989,159.363 209.423,159.526 211.617 C 159.595 212.547,159.460 213.500,159.226 213.734 M158.328 214.896 C 158.185 215.895,157.312 216.211,156.400 215.592 C 155.880 215.239,155.904 215.106,156.576 214.592 C 157.725 213.716,158.478 213.847,158.328 214.896 M154.907 216.000 C 154.530 216.440,154.189 216.800,154.149 216.800 C 154.108 216.800,154.169 216.440,154.284 216.000 C 154.399 215.560,154.741 215.200,155.043 215.200 C 155.463 215.200,155.432 215.387,154.907 216.000 M205.200 218.394 C 205.200 218.563,204.954 218.906,204.653 219.156 C 203.918 219.766,202.984 218.776,203.658 218.102 C 204.113 217.647,205.200 217.852,205.200 218.394 M153.274 219.100 C 153.642 220.638,152.778 221.961,152.270 220.639 C 152.008 219.955,152.376 218.400,152.800 218.400 C 152.969 218.400,153.182 218.715,153.274 219.100 M198.400 219.536 C 198.400 220.081,200.331 220.800,201.795 220.800 C 203.347 220.800,203.948 221.428,203.147 222.213 C 202.600 222.750,201.384 222.979,199.709 222.862 C 198.352 222.767,196.752 219.200,198.067 219.200 C 198.250 219.200,198.400 219.351,198.400 219.536 " stroke="none" fill="#0c0c0c" fill-rule="evenodd"></path><path id="path1" d="M0.000 200.000 L 0.000 400.000 200.000 400.000 L 400.000 400.000 400.000 200.000 L 400.000 0.000 200.000 0.000 L 0.000 0.000 0.000 200.000 M266.622 178.652 C 267.625 179.747,268.130 180.027,268.676 179.789 C 269.074 179.616,271.069 179.434,273.109 179.385 L 276.817 179.295 278.609 180.988 L 280.400 182.680 280.400 188.777 C 280.400 194.268,280.321 194.975,279.600 195.891 C 279.116 196.506,278.800 197.514,278.800 198.440 C 278.800 199.562,278.586 200.086,278.000 200.400 C 277.560 200.635,277.200 201.175,277.200 201.598 C 277.200 202.022,276.869 202.691,276.464 203.084 C 276.059 203.478,275.615 204.115,275.477 204.500 C 275.242 205.154,273.909 205.200,255.203 205.200 L 235.180 205.200 234.800 204.200 C 234.511 203.440,234.132 203.200,233.219 203.200 C 232.380 203.200,231.821 203.501,231.363 204.200 C 231.003 204.750,230.524 205.200,230.300 205.200 C 230.075 205.200,229.491 205.605,229.002 206.100 C 227.620 207.498,226.297 208.400,225.619 208.404 C 225.278 208.406,224.370 209.124,223.600 210.000 C 222.678 211.049,221.859 211.595,221.200 211.600 C 220.541 211.605,219.722 212.151,218.800 213.200 C 217.902 214.221,217.055 214.794,216.439 214.796 C 215.836 214.799,214.936 215.386,214.028 216.370 C 213.231 217.234,212.101 218.060,211.518 218.206 C 210.935 218.352,210.361 218.726,210.241 219.036 C 210.122 219.346,209.756 219.600,209.427 219.600 C 209.097 219.600,208.635 219.960,208.400 220.400 C 208.165 220.840,207.740 221.200,207.456 221.200 C 205.405 221.200,205.219 222.279,205.106 234.819 L 205.000 246.600 199.600 246.568 C 195.775 246.545,193.908 246.372,193.200 245.977 C 192.533 245.605,190.268 245.349,186.400 245.209 L 180.600 245.000 180.591 240.800 C 180.581 236.059,180.422 235.600,178.790 235.600 C 178.038 235.600,177.477 235.318,177.200 234.800 C 176.853 234.151,176.362 234.000,174.606 234.000 C 173.042 234.000,172.341 233.823,172.084 233.364 C 171.853 232.952,170.876 232.627,169.315 232.443 C 167.902 232.277,166.620 231.877,166.222 231.479 C 165.768 231.025,164.894 230.800,163.586 230.800 C 162.038 230.800,161.539 230.633,161.200 230.000 C 160.861 229.366,160.362 229.200,158.800 229.200 C 157.238 229.200,156.739 229.034,156.400 228.400 C 156.061 227.766,155.562 227.600,154.000 227.600 C 152.455 227.600,151.938 227.431,151.611 226.821 C 151.295 226.230,150.688 226.012,149.097 225.921 C 146.736 225.785,145.896 224.512,147.576 223.613 C 148.237 223.259,148.400 222.782,148.400 221.200 C 148.400 219.638,148.566 219.139,149.200 218.800 C 149.810 218.474,150.000 217.962,150.000 216.648 C 150.000 215.432,150.236 214.711,150.800 214.200 C 151.240 213.802,151.600 213.242,151.600 212.956 C 151.600 212.281,153.491 209.494,154.230 209.080 C 154.543 208.904,154.801 208.364,154.802 207.880 C 154.808 205.889,158.444 202.804,160.838 202.760 C 162.027 202.738,163.450 202.576,164.000 202.400 C 164.550 202.224,156.861 202.062,146.914 202.040 L 128.828 202.000 127.914 203.019 C 127.411 203.580,125.875 205.188,124.500 206.593 L 122.000 209.147 122.000 212.474 L 122.000 215.800 120.570 216.941 L 119.139 218.082 118.270 217.268 C 117.736 216.768,116.720 216.404,115.641 216.327 C 113.333 216.161,112.825 215.380,113.840 213.561 C 114.534 212.318,114.605 211.187,114.655 200.478 C 114.685 194.031,114.816 188.650,114.947 188.520 C 115.220 188.247,126.836 187.983,137.600 188.004 C 141.670 188.013,148.960 187.841,153.800 187.622 C 158.640 187.404,165.367 187.123,168.748 186.998 L 174.896 186.772 178.014 183.586 C 181.006 180.528,181.205 180.400,182.952 180.400 C 184.362 180.400,184.868 180.220,185.200 179.600 C 185.889 178.313,215.732 178.352,216.422 179.641 C 217.074 180.860,259.137 180.748,260.754 179.523 C 261.279 179.125,262.037 178.800,262.440 178.800 C 262.842 178.800,263.365 178.440,263.600 178.000 C 264.229 176.824,265.125 177.018,266.622 178.652 M194.370 188.456 C 193.750 189.614,194.083 193.954,194.828 194.426 C 196.827 195.691,198.240 194.635,197.183 192.664 C 196.404 191.209,196.404 191.191,197.183 189.736 C 198.133 187.963,197.964 187.600,196.190 187.600 C 195.208 187.600,194.700 187.839,194.370 188.456 M187.867 189.467 C 187.450 189.883,187.554 192.324,188.000 192.600 C 188.244 192.751,188.400 192.137,188.400 191.024 C 188.400 189.169,188.340 188.993,187.867 189.467 M162.142 191.407 C 161.824 192.236,162.300 193.300,162.900 193.102 C 163.175 193.011,163.455 192.569,163.521 192.120 C 163.666 191.143,162.479 190.529,162.142 191.407 M183.968 202.438 C 184.609 202.694,185.075 202.685,185.348 202.412 C 185.631 202.129,185.327 202.008,184.380 202.025 C 183.083 202.049,183.058 202.074,183.968 202.438 M189.113 202.494 C 189.788 202.819,190.148 202.812,190.493 202.467 C 190.849 202.111,190.632 202.006,189.580 202.027 C 188.284 202.052,188.256 202.081,189.113 202.494 M192.000 202.400 C 192.785 202.907,194.286 202.907,194.600 202.400 C 194.750 202.157,194.172 202.002,193.124 202.006 C 191.863 202.011,191.561 202.116,192.000 202.400 M197.000 202.400 C 197.298 202.882,200.679 202.882,201.800 202.400 C 202.349 202.164,201.681 202.047,199.676 202.028 C 197.823 202.010,196.843 202.146,197.000 202.400 M218.800 202.420 C 223.686 202.583,227.564 202.555,227.780 202.354 C 228.001 202.148,224.402 202.028,219.180 202.066 L 210.200 202.132 218.800 202.420 M174.941 203.521 C 173.693 203.612,173.232 203.835,173.079 204.421 C 172.856 205.273,170.719 205.516,169.611 204.815 C 168.798 204.301,168.414 205.025,168.406 207.086 C 168.401 208.383,168.590 208.874,169.224 209.213 C 170.478 209.884,170.102 211.366,168.637 211.533 C 166.848 211.737,165.201 213.620,165.194 215.469 C 165.190 216.688,164.863 217.361,163.594 218.768 C 162.541 219.936,162.000 220.913,162.000 221.648 C 162.000 222.260,161.747 222.904,161.438 223.080 C 160.236 223.764,160.513 224.992,161.899 225.125 C 162.683 225.201,163.363 225.558,163.614 226.025 C 163.951 226.655,164.463 226.800,166.352 226.800 C 168.168 226.800,168.834 226.975,169.400 227.600 C 169.905 228.158,170.632 228.400,171.801 228.400 C 172.903 228.400,173.793 228.674,174.400 229.200 C 174.993 229.714,175.897 230.000,176.930 230.000 C 177.866 230.000,178.843 230.277,179.271 230.664 C 180.356 231.646,180.560 231.138,180.707 227.080 C 180.780 225.056,181.101 221.737,181.420 219.704 C 181.739 217.672,182.000 213.691,182.000 210.858 C 182.000 203.718,181.360 203.053,174.941 203.521 M200.582 207.302 C 199.835 209.250,200.608 215.400,201.600 215.400 L 202.600 215.400 202.600 211.200 C 202.600 207.147,202.569 206.996,201.698 206.872 C 201.196 206.801,200.701 206.991,200.582 207.302 " stroke="none" fill="#fcfcfc" fill-rule="evenodd"></path><path id="path2" d="M264.151 178.183 C 264.028 178.504,263.152 179.221,262.204 179.777 L 260.481 180.786 238.540 180.813 C 216.858 180.838,216.594 180.829,216.051 180.019 C 215.201 178.750,186.279 178.732,185.600 180.000 C 185.268 180.620,184.762 180.800,183.352 180.800 C 181.605 180.800,181.407 180.928,178.400 184.000 C 175.432 187.032,175.177 187.200,173.523 187.200 C 172.563 187.200,171.363 187.491,170.854 187.847 C 170.034 188.421,166.868 188.522,142.665 188.747 L 115.400 189.000 115.200 201.439 C 115.048 210.890,114.874 214.031,114.474 214.511 C 113.819 215.300,114.888 216.000,116.745 216.000 C 117.404 216.000,118.242 216.299,118.608 216.665 C 119.020 217.077,119.373 217.176,119.536 216.925 C 119.681 216.702,120.205 216.306,120.700 216.046 C 121.528 215.610,121.600 215.294,121.600 212.083 L 121.600 208.595 123.806 206.465 C 125.020 205.294,126.281 203.817,126.609 203.182 C 127.600 201.266,129.096 201.098,143.800 201.257 C 151.060 201.336,159.070 201.353,161.600 201.295 C 167.757 201.154,172.245 201.381,172.880 201.865 C 173.524 202.356,178.835 202.196,181.000 201.621 C 182.061 201.339,191.152 201.213,207.969 201.248 C 230.968 201.296,233.382 201.240,233.813 200.650 C 234.527 199.674,234.677 199.833,234.899 201.800 C 235.261 205.010,233.879 204.800,254.623 204.800 C 275.206 204.800,274.810 204.848,275.818 202.207 C 276.206 201.193,276.831 200.197,277.208 199.996 C 277.642 199.763,277.968 198.960,278.099 197.798 C 278.213 196.791,278.588 195.656,278.933 195.274 C 279.439 194.715,279.539 193.730,279.449 190.190 C 279.387 187.776,279.496 185.211,279.690 184.491 C 280.005 183.321,279.905 183.044,278.752 181.891 L 277.461 180.600 272.371 180.582 C 266.962 180.564,266.266 180.352,265.568 178.516 C 265.173 177.477,264.484 177.315,264.151 178.183 M265.200 179.000 C 265.200 180.807,266.577 181.246,271.994 181.163 L 277.146 181.084 278.353 182.292 C 279.438 183.377,279.504 183.576,278.993 184.250 C 278.262 185.215,278.191 191.904,278.895 193.449 C 279.292 194.319,279.290 194.570,278.885 194.705 C 278.192 194.936,277.138 197.574,277.404 198.412 C 277.543 198.851,277.273 199.322,276.646 199.733 C 276.110 200.084,275.454 201.053,275.187 201.886 C 274.921 202.719,274.551 203.565,274.365 203.767 C 274.066 204.091,236.090 204.242,235.799 203.920 C 235.739 203.854,235.562 202.331,235.406 200.535 C 235.013 196.007,233.321 196.354,256.229 196.270 C 266.883 196.232,275.600 196.167,275.600 196.126 C 275.600 196.085,275.433 195.614,275.230 195.078 L 274.859 194.104 255.530 193.922 L 236.200 193.741 234.900 194.770 C 233.781 195.657,233.599 196.051,233.594 197.600 C 233.583 200.750,236.576 200.501,199.948 200.405 C 160.143 200.301,163.873 200.277,158.884 200.673 C 156.621 200.853,149.331 200.904,142.684 200.787 C 129.140 200.548,127.136 200.789,126.274 202.757 C 126.024 203.331,124.779 204.815,123.509 206.056 L 121.200 208.312 121.200 211.742 C 121.200 215.824,120.876 216.179,117.583 215.700 L 115.515 215.400 115.577 202.413 C 115.612 195.271,115.684 189.383,115.738 189.329 C 115.791 189.275,128.128 189.208,143.153 189.179 C 169.498 189.128,170.495 189.099,171.125 188.363 C 171.601 187.807,172.304 187.600,173.723 187.600 C 175.627 187.600,175.735 187.532,178.800 184.400 C 181.807 181.328,182.005 181.200,183.752 181.200 C 185.162 181.200,185.668 181.020,186.000 180.400 C 186.682 179.125,214.805 179.152,215.652 180.428 C 216.456 181.638,260.324 181.675,262.000 180.467 C 262.550 180.070,263.315 179.629,263.700 179.486 C 264.085 179.342,264.400 179.039,264.400 178.813 C 264.400 178.586,264.580 178.400,264.800 178.400 C 265.020 178.400,265.200 178.670,265.200 179.000 M190.198 181.604 C 189.701 182.408,190.435 183.600,191.427 183.600 C 192.502 183.600,192.656 182.971,191.843 181.900 C 191.249 181.117,190.574 180.995,190.198 181.604 M193.680 182.080 C 192.826 182.934,193.142 183.600,194.400 183.600 C 195.725 183.600,195.789 183.500,195.186 182.374 C 194.707 181.479,194.351 181.409,193.680 182.080 M194.400 186.917 C 193.458 187.392,193.393 187.634,193.286 191.052 L 193.172 194.683 194.559 195.742 C 197.611 198.069,198.734 196.898,198.720 191.400 C 198.706 186.345,197.668 185.267,194.400 186.917 M198.025 187.431 C 198.432 187.921,198.452 188.424,198.115 189.687 C 197.819 190.797,197.808 191.678,198.082 192.464 C 199.036 195.201,197.064 196.812,194.765 195.175 C 193.063 193.963,193.091 187.631,194.800 187.157 C 196.491 186.688,197.479 186.772,198.025 187.431 M187.298 187.662 C 186.322 188.638,186.660 193.496,187.782 194.618 C 189.942 196.778,190.739 195.690,190.434 191.000 L 190.200 187.400 188.998 187.282 C 188.337 187.217,187.572 187.388,187.298 187.662 M245.600 188.000 C 243.156 188.246,243.241 188.264,247.000 188.303 C 249.550 188.329,250.710 188.219,250.200 188.000 C 249.323 187.623,249.340 187.623,245.600 188.000 M260.994 188.010 C 260.848 188.246,261.657 188.400,263.043 188.400 C 264.303 188.400,265.258 188.335,265.167 188.256 C 264.721 187.873,261.207 187.665,260.994 188.010 M189.376 188.362 C 189.866 189.155,189.911 194.800,189.428 194.800 C 187.717 194.800,186.513 191.057,187.443 188.633 C 187.704 187.951,189.010 187.769,189.376 188.362 M161.271 190.348 C 160.344 190.935,161.441 195.200,162.518 195.200 C 164.281 195.200,165.922 191.682,164.720 190.480 C 164.170 189.930,162.057 189.849,161.271 190.348 M164.360 190.951 C 165.167 191.925,163.649 194.400,162.245 194.400 C 161.736 194.400,161.238 191.436,161.661 190.927 C 162.233 190.238,163.779 190.252,164.360 190.951 M122.336 191.000 C 121.775 191.888,121.786 198.000,122.349 198.000 C 122.541 198.000,122.782 197.128,122.884 196.063 C 123.095 193.867,122.719 190.394,122.336 191.000 M147.600 195.800 C 147.600 196.476,147.783 196.806,148.100 196.700 C 148.375 196.608,148.600 196.203,148.600 195.800 C 148.600 195.397,148.375 194.992,148.100 194.900 C 147.783 194.794,147.600 195.124,147.600 195.800 M158.267 195.467 C 157.760 195.974,158.003 196.400,158.800 196.400 C 159.244 196.400,159.600 196.133,159.600 195.800 C 159.600 195.191,158.754 194.979,158.267 195.467 M165.600 195.753 C 165.600 196.497,167.066 196.843,167.582 196.222 C 168.110 195.586,167.714 195.200,166.533 195.200 C 166.005 195.200,165.600 195.440,165.600 195.753 M179.600 195.767 C 179.600 196.115,179.885 196.400,180.233 196.400 C 180.940 196.400,180.817 195.539,180.075 195.292 C 179.814 195.205,179.600 195.418,179.600 195.767 M122.230 202.919 C 122.051 203.534,122.016 204.149,122.152 204.285 C 122.600 204.733,122.863 204.094,122.708 202.937 L 122.555 201.800 122.230 202.919 M229.059 203.074 C 228.939 203.194,223.477 203.333,216.920 203.382 C 210.364 203.430,204.730 203.474,204.400 203.479 C 204.070 203.483,198.993 203.467,193.119 203.443 L 182.437 203.400 182.252 216.519 C 182.036 231.831,181.587 233.621,178.558 231.238 C 177.925 230.740,176.905 230.399,176.046 230.397 C 175.251 230.396,174.060 230.037,173.400 229.600 C 172.740 229.163,171.553 228.804,170.761 228.803 C 169.900 228.801,168.952 228.479,168.400 228.000 C 167.753 227.439,166.903 227.200,165.553 227.200 C 164.058 227.200,163.535 227.027,163.214 226.425 C 162.963 225.958,162.283 225.601,161.499 225.525 C 159.874 225.369,159.484 223.791,160.781 222.617 C 161.236 222.205,161.600 221.377,161.600 220.752 C 161.600 220.038,161.891 219.472,162.400 219.200 C 162.840 218.965,163.200 218.582,163.200 218.349 C 163.200 218.116,163.560 217.469,164.000 216.909 C 164.440 216.350,164.800 215.363,164.800 214.715 C 164.800 213.229,166.731 211.200,168.146 211.200 C 169.562 211.200,169.884 210.418,168.804 209.603 C 168.020 209.012,167.886 208.530,167.846 206.158 L 167.800 203.400 163.400 203.378 L 159.000 203.356 157.745 204.659 C 157.055 205.375,156.094 206.780,155.609 207.781 C 155.125 208.781,154.586 209.600,154.412 209.600 C 154.238 209.600,153.585 210.635,152.961 211.900 C 152.337 213.165,151.505 214.629,151.113 215.154 C 150.721 215.679,150.400 216.654,150.400 217.322 C 150.400 217.990,150.115 218.852,149.766 219.237 C 149.417 219.623,149.034 220.717,148.914 221.669 C 148.793 222.621,148.431 223.704,148.108 224.075 C 147.240 225.074,147.827 225.600,149.810 225.600 C 151.162 225.600,151.671 225.786,152.000 226.400 C 152.334 227.023,152.838 227.200,154.283 227.200 C 155.414 227.200,156.410 227.447,156.837 227.834 C 157.223 228.183,158.317 228.569,159.269 228.694 C 160.221 228.818,161.429 229.253,161.954 229.660 C 162.527 230.104,163.566 230.401,164.554 230.403 C 165.523 230.404,166.693 230.732,167.400 231.200 C 168.104 231.666,169.277 231.996,170.238 231.997 C 171.366 231.999,172.102 232.249,172.600 232.800 C 173.133 233.389,173.832 233.600,175.248 233.600 C 176.762 233.600,177.263 233.770,177.600 234.400 C 177.899 234.959,178.438 235.200,179.385 235.200 C 181.224 235.200,182.745 236.955,181.806 237.993 C 181.043 238.836,181.048 239.172,181.843 240.767 C 182.461 242.004,182.449 242.096,181.569 243.033 C 180.161 244.532,180.802 244.702,188.600 244.902 C 192.560 245.003,196.272 245.279,196.849 245.514 C 197.426 245.749,199.148 246.065,200.676 246.215 C 205.015 246.643,204.800 247.302,204.800 233.600 C 204.800 221.454,204.894 220.800,206.644 220.800 C 206.967 220.800,207.980 220.080,208.896 219.200 C 209.812 218.320,210.913 217.600,211.342 217.600 C 211.771 217.600,212.770 216.907,213.561 216.060 C 214.353 215.213,215.463 214.407,216.028 214.270 C 216.593 214.133,217.679 213.416,218.441 212.676 C 219.203 211.936,220.283 211.216,220.841 211.076 C 221.399 210.936,222.510 210.186,223.310 209.409 C 224.109 208.632,225.537 207.584,226.482 207.079 C 228.397 206.055,230.400 204.327,230.400 203.697 C 230.400 203.222,229.384 202.749,229.059 203.074 M171.080 203.453 C 170.534 204.000,170.811 204.454,171.616 204.328 C 172.065 204.258,172.434 204.020,172.437 203.800 C 172.443 203.313,171.469 203.064,171.080 203.453 M160.171 204.229 C 160.743 204.800,160.857 204.800,161.429 204.229 C 161.878 203.779,162.841 203.600,164.814 203.600 L 167.570 203.600 167.485 206.432 C 167.416 208.733,167.531 209.361,168.100 209.776 C 169.075 210.489,168.974 210.800,167.769 210.800 C 166.331 210.800,164.400 212.814,164.400 214.315 C 164.400 214.963,164.040 215.950,163.600 216.509 C 163.160 217.069,162.800 217.695,162.800 217.901 C 162.800 218.107,162.440 218.602,162.000 219.000 C 161.560 219.398,161.200 220.193,161.200 220.766 C 161.200 221.384,160.865 222.017,160.377 222.322 C 158.926 223.228,159.435 225.765,161.099 225.925 C 161.883 226.001,162.563 226.358,162.814 226.825 C 163.143 227.440,163.660 227.600,165.325 227.600 C 166.927 227.600,167.584 227.789,168.107 228.400 C 168.598 228.973,169.287 229.200,170.534 229.200 C 171.768 229.200,172.487 229.433,173.000 230.000 C 173.506 230.559,174.232 230.800,175.408 230.800 C 176.486 230.800,177.458 231.088,178.109 231.600 C 179.473 232.673,180.466 232.607,181.630 231.367 C 182.750 230.174,182.664 231.391,182.742 215.500 L 182.800 203.600 192.669 203.600 C 201.082 203.600,202.640 203.693,203.232 204.229 C 203.865 204.802,204.041 204.799,205.188 204.206 C 206.552 203.501,230.000 203.380,230.000 204.079 C 230.000 204.255,229.724 204.400,229.387 204.400 C 229.051 204.400,228.669 204.677,228.539 205.015 C 228.409 205.353,227.740 205.898,227.051 206.226 C 225.148 207.132,224.328 207.690,222.800 209.120 C 222.030 209.840,220.956 210.542,220.413 210.680 C 219.870 210.818,218.803 211.536,218.041 212.276 C 217.279 213.016,216.193 213.733,215.628 213.870 C 215.063 214.007,213.953 214.813,213.161 215.660 C 212.357 216.521,211.345 217.200,210.865 217.200 C 210.393 217.200,209.782 217.560,209.507 218.000 C 209.232 218.440,208.787 218.800,208.518 218.800 C 208.249 218.800,207.847 219.139,207.625 219.553 C 207.403 219.968,206.587 220.426,205.811 220.572 L 204.400 220.836 204.400 232.790 C 204.400 247.637,204.936 246.578,198.200 245.049 C 196.238 244.604,193.343 244.412,188.524 244.407 C 182.208 244.401,179.945 244.052,181.994 243.402 C 183.012 243.079,183.095 240.989,182.132 239.925 C 181.507 239.234,181.513 239.151,182.232 238.606 C 183.272 237.819,183.602 237.852,185.651 238.941 C 186.624 239.459,188.316 240.015,189.411 240.177 C 190.505 240.339,191.670 240.701,192.000 240.982 C 192.330 241.264,193.378 241.612,194.328 241.756 C 195.279 241.900,196.449 242.263,196.928 242.561 C 197.408 242.860,198.618 243.207,199.618 243.333 C 200.618 243.459,201.757 243.685,202.150 243.836 C 202.747 244.065,202.842 243.924,202.732 242.978 C 202.626 242.072,202.331 241.777,201.248 241.498 C 200.504 241.307,199.514 240.905,199.048 240.606 C 198.582 240.307,197.300 239.932,196.200 239.772 C 195.100 239.613,193.840 239.259,193.400 238.986 C 192.960 238.713,191.933 238.373,191.117 238.230 C 190.301 238.087,189.131 237.708,188.517 237.388 C 187.903 237.067,187.172 236.804,186.892 236.802 C 186.613 236.801,185.097 236.350,183.523 235.800 C 181.949 235.250,180.158 234.800,179.544 234.800 C 178.838 234.800,178.271 234.507,178.000 234.000 C 177.656 233.357,177.162 233.200,175.482 233.200 C 173.826 233.200,173.289 233.034,172.893 232.400 C 172.511 231.789,171.960 231.600,170.560 231.600 C 169.332 231.600,168.390 231.336,167.709 230.800 C 167.056 230.286,166.086 230.000,165.000 230.000 C 163.914 230.000,162.944 229.714,162.291 229.200 C 161.722 228.752,160.668 228.400,159.898 228.400 C 159.097 228.400,158.137 228.066,157.600 227.600 C 156.953 227.039,156.103 226.800,154.753 226.800 C 153.238 226.800,152.737 226.630,152.400 226.000 C 152.060 225.365,151.562 225.200,149.986 225.200 C 148.064 225.200,147.370 224.727,148.600 224.255 C 148.991 224.105,149.200 223.484,149.200 222.474 C 149.200 221.497,149.496 220.581,150.000 220.000 C 150.443 219.490,150.800 218.503,150.800 217.793 C 150.800 217.086,151.160 216.050,151.600 215.491 C 152.040 214.931,152.400 214.227,152.400 213.926 C 152.400 213.624,152.760 213.070,153.200 212.693 C 153.640 212.316,154.000 211.640,154.000 211.191 C 154.000 210.742,154.277 210.269,154.615 210.139 C 154.953 210.009,155.498 209.340,155.826 208.651 C 157.593 204.939,159.223 203.280,160.171 204.229 M198.488 211.081 L 198.600 216.200 201.000 216.200 L 203.400 216.200 203.400 211.200 L 203.400 206.200 200.888 206.081 L 198.376 205.961 198.488 211.081 M160.144 207.001 C 159.842 207.787,160.305 209.600,160.808 209.600 C 161.023 209.600,161.200 208.880,161.200 208.000 C 161.200 206.417,160.590 205.840,160.144 207.001 M203.000 211.200 C 203.000 216.252,202.848 216.500,200.159 215.826 C 199.220 215.590,199.200 215.492,199.200 211.226 C 199.200 206.463,199.237 206.391,201.600 206.522 L 203.000 206.600 203.000 211.200 M159.100 210.229 C 158.935 210.396,158.800 211.349,158.800 212.347 C 158.800 213.628,158.925 214.035,159.226 213.734 C 159.460 213.500,159.595 212.547,159.526 211.617 C 159.457 210.686,159.265 210.062,159.100 210.229 M156.576 214.592 C 155.904 215.106,155.880 215.239,156.400 215.592 C 157.312 216.211,158.185 215.895,158.328 214.896 C 158.478 213.847,157.725 213.716,156.576 214.592 M154.284 216.000 C 154.169 216.440,154.108 216.800,154.149 216.800 C 154.189 216.800,154.530 216.440,154.907 216.000 C 155.432 215.387,155.463 215.200,155.043 215.200 C 154.741 215.200,154.399 215.560,154.284 216.000 M203.658 218.102 C 202.984 218.776,203.918 219.766,204.653 219.156 C 204.954 218.906,205.200 218.563,205.200 218.394 C 205.200 217.852,204.113 217.647,203.658 218.102 M152.274 219.239 C 152.029 220.174,152.312 221.200,152.813 221.200 C 153.231 221.200,153.492 220.011,153.274 219.100 C 153.046 218.148,152.541 218.218,152.274 219.239 M197.513 219.420 C 197.003 219.931,198.835 222.801,199.709 222.862 C 201.384 222.979,202.600 222.750,203.147 222.213 C 203.948 221.428,203.347 220.800,201.795 220.800 C 200.331 220.800,198.400 220.081,198.400 219.536 C 198.400 219.157,197.848 219.085,197.513 219.420 M190.600 239.200 C 190.744 239.433,190.345 239.600,189.647 239.600 C 188.987 239.600,188.336 239.420,188.200 239.200 C 188.056 238.967,188.455 238.800,189.153 238.800 C 189.813 238.800,190.464 238.980,190.600 239.200 M197.400 240.800 C 197.549 241.041,197.012 241.200,196.047 241.200 C 195.167 241.200,194.336 241.020,194.200 240.800 C 194.051 240.559,194.588 240.400,195.553 240.400 C 196.433 240.400,197.264 240.580,197.400 240.800 M201.200 242.400 C 201.200 242.620,200.761 242.800,200.224 242.800 C 199.687 242.800,199.136 242.620,199.000 242.400 C 198.856 242.167,199.263 242.000,199.976 242.000 C 200.649 242.000,201.200 242.180,201.200 242.400 " stroke="none" fill="#646464" fill-rule="evenodd"></path><path id="path3" d="M261.662 179.700 C 261.346 180.017,259.379 180.282,256.282 180.424 L 251.400 180.649 256.000 180.722 C 259.996 180.785,260.757 180.690,261.800 180.000 C 262.460 179.563,262.811 179.204,262.580 179.203 C 262.349 179.201,261.936 179.425,261.662 179.700 M275.223 179.986 C 274.900 180.185,275.202 180.371,276.059 180.501 C 277.721 180.754,277.874 180.653,276.665 180.102 C 276.149 179.867,275.500 179.815,275.223 179.986 M170.571 187.646 C 170.406 187.915,169.614 188.015,168.585 187.899 C 167.644 187.793,166.633 187.860,166.337 188.047 C 166.005 188.258,166.638 188.385,168.000 188.381 C 169.306 188.377,170.516 188.136,170.976 187.787 C 171.404 187.464,171.549 187.200,171.300 187.200 C 171.051 187.200,170.723 187.401,170.571 187.646 M193.750 187.787 C 193.626 188.110,193.617 188.605,193.731 188.887 C 193.844 189.169,193.951 189.010,193.968 188.533 C 193.986 188.057,194.225 187.576,194.500 187.465 C 194.892 187.307,194.889 187.256,194.487 187.232 C 194.206 187.214,193.874 187.464,193.750 187.787 M279.693 188.800 C 279.693 189.570,279.775 189.885,279.876 189.500 C 279.976 189.115,279.976 188.485,279.876 188.100 C 279.775 187.715,279.693 188.030,279.693 188.800 M159.911 188.293 C 160.851 188.378,162.291 188.377,163.111 188.291 C 163.930 188.205,163.160 188.136,161.400 188.137 C 159.640 188.139,158.970 188.209,159.911 188.293 M188.300 188.412 C 189.654 188.957,189.675 193.600,188.324 193.600 C 187.467 193.600,187.465 193.613,188.224 194.187 C 189.700 195.304,189.913 194.966,189.752 191.762 C 189.577 188.268,189.468 187.991,188.276 188.025 L 187.400 188.051 188.300 188.412 M115.280 188.880 C 115.016 189.144,114.821 189.819,114.847 190.380 C 114.891 191.326,114.913 191.313,115.149 190.200 C 115.376 189.133,115.604 188.973,117.202 188.760 L 119.000 188.520 117.380 188.460 C 116.489 188.427,115.544 188.616,115.280 188.880 M132.727 188.700 C 137.417 188.764,144.977 188.764,149.527 188.699 C 154.077 188.635,150.240 188.583,141.000 188.583 C 131.760 188.583,128.037 188.636,132.727 188.700 M187.324 191.000 C 187.326 192.320,187.401 192.812,187.490 192.093 C 187.579 191.374,187.577 190.294,187.486 189.693 C 187.395 189.092,187.322 189.680,187.324 191.000 M197.442 190.634 C 197.308 190.983,197.349 191.537,197.533 191.866 C 197.768 192.286,197.867 192.099,197.867 191.231 C 197.867 189.837,197.790 189.729,197.442 190.634 M162.800 190.683 C 163.350 190.778,164.025 191.148,164.300 191.505 C 164.575 191.861,164.800 191.975,164.800 191.756 C 164.800 191.025,163.849 190.400,162.820 190.454 L 161.800 190.509 162.800 190.683 M279.660 193.451 C 279.627 194.139,279.330 194.926,279.000 195.200 C 278.670 195.474,278.400 195.880,278.400 196.103 C 278.400 196.326,278.772 196.035,279.227 195.457 C 279.759 194.781,279.994 194.012,279.887 193.303 C 279.725 192.234,279.718 192.238,279.660 193.451 M161.618 193.000 C 161.600 194.188,162.323 194.543,163.366 193.859 C 163.935 193.486,164.400 193.092,164.400 192.982 C 164.400 192.872,163.965 193.067,163.433 193.415 C 162.539 194.001,162.435 193.994,162.046 193.324 C 161.814 192.926,161.622 192.780,161.618 193.000 M193.640 193.473 C 193.599 194.363,195.423 196.000,196.456 196.000 C 196.748 196.000,196.364 195.666,195.602 195.257 C 194.839 194.848,194.095 194.083,193.948 193.557 C 193.693 192.649,193.678 192.644,193.640 193.473 M277.980 198.290 C 277.871 199.219,277.933 199.827,278.120 199.640 C 278.306 199.454,278.396 198.694,278.319 197.951 C 278.183 196.633,278.175 196.642,277.980 198.290 M233.786 200.650 C 233.413 201.240,231.009 201.293,207.598 201.226 C 193.420 201.186,181.906 201.239,182.011 201.344 C 182.116 201.449,193.902 201.580,208.201 201.635 L 234.200 201.735 234.706 202.768 C 234.984 203.335,235.119 203.470,235.006 203.067 C 234.893 202.664,234.800 201.809,234.800 201.167 C 234.800 199.867,234.406 199.667,233.786 200.650 M276.636 200.342 C 276.194 201.058,275.566 202.982,275.899 202.600 C 276.340 202.094,277.239 200.000,277.015 200.000 C 276.923 200.000,276.752 200.154,276.636 200.342 M160.800 201.194 L 156.600 201.443 161.800 201.580 C 172.484 201.861,174.138 202.089,171.630 202.937 C 170.877 203.192,170.189 203.618,170.102 203.885 C 169.899 204.505,171.927 205.033,172.460 204.500 C 172.728 204.232,172.502 204.168,171.778 204.306 C 170.973 204.460,170.743 204.371,170.881 203.957 C 171.091 203.324,171.684 203.213,176.314 202.936 C 178.154 202.826,180.111 202.470,180.714 202.135 L 181.800 201.533 180.600 201.781 C 178.460 202.223,173.414 202.273,172.869 201.856 C 172.577 201.633,171.137 201.424,169.669 201.391 C 168.201 201.359,166.550 201.245,166.000 201.138 C 165.450 201.031,163.110 201.056,160.800 201.194 M132.900 201.498 C 134.825 201.571,137.975 201.571,139.900 201.498 C 141.825 201.425,140.250 201.365,136.400 201.365 C 132.550 201.365,130.975 201.425,132.900 201.498 M144.100 201.476 C 144.485 201.576,145.115 201.576,145.500 201.476 C 145.885 201.375,145.570 201.293,144.800 201.293 C 144.030 201.293,143.715 201.375,144.100 201.476 M127.385 202.300 C 127.047 202.685,126.296 203.630,125.717 204.400 L 124.662 205.800 125.823 204.600 C 126.462 203.940,127.403 202.995,127.914 202.500 C 128.426 202.005,128.655 201.600,128.422 201.600 C 128.190 201.600,127.723 201.915,127.385 202.300 M165.198 203.169 C 167.692 203.391,167.806 203.448,168.051 204.600 L 168.305 205.800 168.353 204.543 C 168.410 203.015,167.912 202.776,164.867 202.869 L 162.600 202.938 165.198 203.169 M184.512 203.095 C 185.564 203.177,187.184 203.176,188.112 203.092 C 189.040 203.008,188.180 202.941,186.200 202.942 C 184.220 202.943,183.460 203.012,184.512 203.095 M191.700 203.094 C 192.745 203.176,194.455 203.176,195.500 203.094 C 196.545 203.012,195.690 202.944,193.600 202.944 C 191.510 202.944,190.655 203.012,191.700 203.094 M201.800 203.189 C 202.680 203.348,203.580 203.527,203.800 203.586 C 204.020 203.646,204.470 203.652,204.800 203.600 C 205.725 203.454,203.176 202.894,201.600 202.897 L 200.200 202.900 201.800 203.189 M210.523 203.099 C 213.120 203.169,217.260 203.168,219.723 203.098 C 222.185 203.028,220.060 202.971,215.000 202.972 C 209.940 202.972,207.925 203.029,210.523 203.099 M229.958 203.166 C 230.305 203.385,230.410 203.800,230.235 204.260 C 230.017 204.831,230.061 204.892,230.429 204.527 C 230.995 203.966,230.644 202.797,229.913 202.806 C 229.529 202.811,229.541 202.901,229.958 203.166 M122.575 207.700 L 121.400 209.000 122.700 207.825 C 123.912 206.730,124.184 206.400,123.875 206.400 C 123.806 206.400,123.221 206.985,122.575 207.700 M199.700 206.665 C 198.882 206.995,199.005 215.440,199.833 215.757 C 200.809 216.132,201.080 216.022,200.300 215.568 C 199.708 215.223,199.600 214.550,199.600 211.200 C 199.600 207.850,199.708 207.177,200.300 206.832 C 201.015 206.416,200.603 206.301,199.700 206.665 M201.875 206.659 C 202.357 206.764,202.831 207.201,202.929 207.631 C 203.067 208.238,203.095 208.211,203.053 207.506 C 203.014 206.840,202.735 206.583,202.000 206.534 C 201.167 206.480,201.146 206.501,201.875 206.659 M114.893 212.000 C 114.893 212.770,114.975 213.085,115.076 212.700 C 115.176 212.315,115.176 211.685,115.076 211.300 C 114.975 210.915,114.893 211.230,114.893 212.000 M114.051 214.304 C 113.620 215.110,114.119 216.013,114.980 215.988 C 115.211 215.981,115.075 215.787,114.678 215.556 C 114.101 215.220,114.052 215.019,114.435 214.558 C 114.698 214.240,114.813 213.880,114.689 213.756 C 114.566 213.633,114.279 213.879,114.051 214.304 M151.100 214.614 C 150.101 215.950,150.231 216.323,151.246 215.033 C 151.711 214.442,152.026 213.895,151.946 213.818 C 151.866 213.741,151.485 214.100,151.100 214.614 M182.093 215.200 C 182.093 215.970,182.175 216.285,182.276 215.900 C 182.376 215.515,182.376 214.885,182.276 214.500 C 182.175 214.115,182.093 214.430,182.093 215.200 M202.832 214.672 C 202.811 215.245,202.491 215.604,201.900 215.718 L 201.000 215.891 201.913 215.946 C 202.860 216.002,203.427 215.203,203.069 214.313 C 202.956 214.031,202.849 214.192,202.832 214.672 M163.900 217.014 C 162.901 218.350,163.031 218.723,164.046 217.433 C 164.511 216.842,164.826 216.295,164.746 216.218 C 164.666 216.141,164.285 216.500,163.900 217.014 M118.503 216.800 C 118.593 217.130,118.907 217.400,119.200 217.400 C 119.493 217.400,119.807 217.130,119.897 216.800 C 120.043 216.267,120.013 216.267,119.630 216.800 C 119.248 217.333,119.152 217.333,118.770 216.800 C 118.387 216.267,118.357 216.267,118.503 216.800 M182.128 219.200 C 182.128 220.630,182.201 221.215,182.289 220.500 C 182.378 219.785,182.378 218.615,182.289 217.900 C 182.201 217.185,182.128 217.770,182.128 219.200 M209.762 218.500 C 209.006 219.393,209.007 219.395,209.800 218.741 C 210.240 218.379,210.960 217.995,211.400 217.888 C 212.169 217.700,212.168 217.691,211.362 217.646 C 210.901 217.621,210.181 218.005,209.762 218.500 M205.429 221.429 C 205.083 221.774,204.811 222.359,204.825 222.729 C 204.843 223.204,204.957 223.135,205.216 222.491 C 205.417 221.990,205.990 221.417,206.491 221.216 C 207.135 220.957,207.204 220.843,206.729 220.825 C 206.359 220.811,205.774 221.083,205.429 221.429 M181.515 225.500 C 181.430 226.985,181.499 228.470,181.668 228.800 C 181.837 229.130,181.981 227.915,181.988 226.100 C 182.003 222.115,181.727 221.766,181.515 225.500 M147.791 224.009 C 147.188 224.677,147.152 224.905,147.588 225.309 C 148.009 225.700,148.056 225.692,147.819 225.275 C 147.648 224.973,147.820 224.420,148.223 223.975 C 148.608 223.549,148.834 223.200,148.724 223.200 C 148.614 223.200,148.194 223.564,147.791 224.009 M160.000 224.176 C 160.000 224.713,160.147 225.244,160.328 225.355 C 160.508 225.467,160.577 225.027,160.482 224.379 C 160.272 222.949,160.000 222.835,160.000 224.176 M168.400 228.011 C 168.400 228.358,169.953 228.981,170.201 228.732 C 170.278 228.655,169.905 228.385,169.371 228.133 C 168.837 227.881,168.400 227.826,168.400 228.011 M166.600 231.200 C 167.260 231.637,167.980 231.995,168.200 231.995 C 168.420 231.995,168.060 231.637,167.400 231.200 C 166.740 230.763,166.020 230.405,165.800 230.405 C 165.580 230.405,165.940 230.763,166.600 231.200 M178.550 231.232 C 179.132 231.690,179.831 231.974,180.104 231.864 C 180.415 231.738,180.358 231.651,179.949 231.632 C 179.591 231.614,179.074 231.330,178.800 231.000 C 178.526 230.670,178.120 230.400,177.897 230.400 C 177.674 230.400,177.968 230.774,178.550 231.232 M171.000 232.288 C 171.440 232.395,172.160 232.779,172.600 233.141 C 173.393 233.795,173.394 233.793,172.638 232.900 C 172.219 232.405,171.499 232.021,171.038 232.046 C 170.232 232.091,170.231 232.100,171.000 232.288 M180.800 236.000 C 181.727 236.927,181.780 237.322,181.119 238.381 C 180.647 239.136,181.401 241.533,181.941 240.993 C 182.054 240.879,181.934 240.574,181.673 240.313 C 181.029 239.669,181.079 238.797,181.806 237.993 C 182.430 237.304,181.349 235.200,180.371 235.200 C 180.167 235.200,180.360 235.560,180.800 236.000 M188.200 239.200 C 188.336 239.420,188.987 239.600,189.647 239.600 C 190.345 239.600,190.744 239.433,190.600 239.200 C 190.464 238.980,189.813 238.800,189.153 238.800 C 188.455 238.800,188.056 238.967,188.200 239.200 M194.200 240.800 C 194.336 241.020,195.167 241.200,196.047 241.200 C 197.012 241.200,197.549 241.041,197.400 240.800 C 197.264 240.580,196.433 240.400,195.553 240.400 C 194.588 240.400,194.051 240.559,194.200 240.800 M199.000 242.400 C 199.136 242.620,199.687 242.800,200.224 242.800 C 200.761 242.800,201.200 242.620,201.200 242.400 C 201.200 242.180,200.649 242.000,199.976 242.000 C 199.263 242.000,198.856 242.167,199.000 242.400 M190.905 245.087 C 191.514 245.179,192.414 245.177,192.905 245.082 C 193.397 244.987,192.900 244.911,191.800 244.914 C 190.700 244.917,190.297 244.995,190.905 245.087 M195.400 245.620 C 196.280 245.837,197.810 246.093,198.800 246.189 L 200.600 246.363 199.000 246.012 C 198.120 245.819,196.590 245.564,195.600 245.444 L 193.800 245.226 195.400 245.620 " stroke="none" fill="#8c8c8c" fill-rule="evenodd"></path><path id="path4" d="M263.600 178.000 C 263.365 178.440,262.838 178.800,262.430 178.800 C 261.744 178.800,259.445 180.357,260.088 180.387 C 260.706 180.415,263.682 178.653,263.878 178.141 C 264.237 177.205,265.368 177.581,266.208 178.915 L 267.015 180.200 270.783 180.278 C 272.855 180.321,274.826 180.201,275.163 180.013 C 275.887 179.608,277.533 180.370,278.910 181.746 C 280.176 183.012,280.325 193.858,279.100 195.589 C 278.715 196.133,278.400 197.249,278.400 198.069 C 278.400 199.019,278.168 199.690,277.761 199.918 C 277.410 200.114,276.625 201.248,276.016 202.438 L 274.910 204.600 255.237 204.704 L 235.564 204.808 234.877 203.273 L 234.190 201.739 207.995 201.654 C 185.083 201.581,181.656 201.647,180.654 202.185 C 179.934 202.572,178.448 202.802,176.654 202.806 C 173.624 202.813,173.095 202.985,172.683 204.100 C 172.398 204.873,171.328 205.007,170.400 204.386 C 169.653 203.887,170.856 202.800,172.156 202.800 C 172.799 202.800,172.860 202.700,172.460 202.300 C 172.076 201.916,166.966 201.769,150.383 201.667 L 128.805 201.534 127.702 202.708 C 127.096 203.353,125.475 205.041,124.100 206.459 L 121.600 209.036 121.600 212.518 C 121.600 214.479,121.432 216.000,121.216 216.000 C 121.004 216.000,120.464 216.394,120.016 216.875 L 119.200 217.751 118.384 216.875 C 117.819 216.269,117.098 216.000,116.033 216.000 C 114.122 216.000,113.373 215.253,114.194 214.167 C 114.513 213.745,114.766 212.860,114.756 212.200 C 114.745 211.540,114.645 211.270,114.533 211.600 C 114.420 211.930,114.051 212.817,113.711 213.572 C 112.878 215.425,113.396 216.165,115.641 216.327 C 116.720 216.404,117.736 216.768,118.270 217.268 L 119.139 218.082 120.570 216.941 L 122.000 215.800 122.000 212.474 L 122.000 209.147 124.500 206.593 C 125.875 205.188,127.411 203.580,127.914 203.019 L 128.828 202.000 146.914 202.040 C 156.861 202.062,164.550 202.224,164.000 202.400 C 163.209 202.653,163.432 202.729,165.067 202.760 C 167.826 202.813,168.399 203.085,168.406 204.343 C 168.410 204.981,168.533 205.210,168.717 204.921 C 168.917 204.605,169.222 204.569,169.611 204.815 C 170.735 205.526,172.856 205.273,173.084 204.400 C 173.249 203.771,173.647 203.592,174.947 203.563 C 181.496 203.416,181.712 203.603,182.044 209.709 L 182.289 214.200 182.193 209.600 C 182.141 207.070,182.031 204.645,181.949 204.210 C 181.835 203.606,182.129 203.312,183.198 202.958 C 184.338 202.582,184.449 202.459,183.798 202.295 C 183.275 202.162,183.457 202.077,184.324 202.046 C 185.114 202.019,185.548 202.161,185.400 202.400 C 185.247 202.648,185.961 202.798,187.276 202.794 C 188.795 202.789,189.229 202.677,188.800 202.400 C 188.346 202.107,188.522 202.011,189.524 202.006 C 190.305 202.003,190.746 202.164,190.600 202.400 C 190.457 202.631,190.828 202.797,191.476 202.794 C 192.349 202.789,192.466 202.701,192.000 202.400 C 191.561 202.116,191.863 202.011,193.124 202.006 C 194.072 202.003,194.747 202.162,194.625 202.360 C 194.377 202.760,199.906 203.427,200.290 203.043 C 200.424 202.909,199.794 202.800,198.890 202.800 C 197.987 202.800,197.136 202.620,197.000 202.400 C 196.843 202.146,197.823 202.010,199.676 202.028 C 201.681 202.047,202.349 202.164,201.800 202.400 C 200.742 202.855,200.539 202.848,216.930 202.872 C 231.889 202.894,232.039 202.922,229.553 205.243 C 228.821 205.928,227.857 206.656,227.411 206.861 C 225.374 207.799,224.421 208.505,222.497 210.500 C 222.126 210.885,221.457 211.203,221.011 211.207 C 220.565 211.210,219.493 211.930,218.630 212.807 C 217.766 213.683,216.686 214.401,216.230 214.402 C 215.769 214.402,214.636 215.204,213.682 216.202 C 212.737 217.191,212.107 217.998,212.282 217.996 C 212.457 217.994,213.230 217.276,214.000 216.400 C 214.922 215.351,215.741 214.805,216.400 214.800 C 217.059 214.795,217.878 214.249,218.800 213.200 C 219.722 212.151,220.541 211.605,221.200 211.600 C 221.859 211.595,222.678 211.049,223.600 210.000 C 224.370 209.124,225.278 208.406,225.619 208.404 C 226.297 208.400,227.620 207.498,229.002 206.100 C 229.491 205.605,230.075 205.200,230.300 205.200 C 230.524 205.200,231.003 204.750,231.363 204.200 C 231.821 203.501,232.380 203.200,233.219 203.200 C 234.132 203.200,234.511 203.440,234.800 204.200 L 235.180 205.200 255.203 205.200 C 273.909 205.200,275.242 205.154,275.477 204.500 C 275.615 204.115,276.059 203.478,276.464 203.084 C 276.869 202.691,277.200 202.022,277.200 201.598 C 277.200 201.175,277.560 200.635,278.000 200.400 C 278.586 200.086,278.800 199.562,278.800 198.440 C 278.800 197.514,279.116 196.506,279.600 195.891 C 280.321 194.975,280.400 194.268,280.400 188.777 L 280.400 182.680 278.609 180.988 L 276.817 179.295 273.109 179.385 C 271.069 179.434,269.074 179.616,268.676 179.789 C 268.130 180.027,267.625 179.747,266.622 178.652 C 265.125 177.018,264.229 176.824,263.600 178.000 M185.200 179.600 C 184.868 180.220,184.362 180.400,182.952 180.400 C 181.205 180.400,181.006 180.528,178.014 183.586 L 174.896 186.772 168.748 186.998 C 165.367 187.122,158.730 187.397,154.000 187.607 C 149.270 187.818,140.928 187.980,135.462 187.967 C 129.996 187.954,125.406 188.063,125.262 188.210 C 125.118 188.358,134.360 188.370,145.800 188.239 C 157.240 188.107,167.439 188.008,168.465 188.018 C 169.491 188.028,170.447 187.848,170.589 187.618 C 170.731 187.388,171.770 187.200,172.897 187.200 C 174.931 187.200,174.973 187.174,178.096 184.000 C 181.093 180.954,181.331 180.800,183.019 180.800 C 184.360 180.800,184.915 180.605,185.293 180.000 C 185.778 179.223,186.226 179.200,200.800 179.200 C 215.374 179.200,215.822 179.223,216.307 180.000 C 216.796 180.783,217.187 180.798,234.303 180.704 L 251.800 180.609 234.312 180.500 C 217.321 180.395,216.812 180.369,216.398 179.596 C 215.729 178.347,185.869 178.351,185.200 179.600 M255.300 180.291 C 256.125 180.378,257.475 180.378,258.300 180.291 C 259.125 180.205,258.450 180.134,256.800 180.134 C 255.150 180.134,254.475 180.205,255.300 180.291 M194.500 187.465 C 194.225 187.576,194.000 187.956,194.000 188.310 C 194.000 188.858,194.079 188.846,194.532 188.225 C 194.929 187.682,195.438 187.540,196.532 187.668 C 197.340 187.762,198.000 187.696,198.000 187.520 C 198.000 187.175,195.322 187.133,194.500 187.465 M115.100 188.432 C 114.678 188.678,114.422 189.269,114.454 189.920 C 114.500 190.819,114.537 190.854,114.678 190.129 C 114.907 188.955,115.537 188.498,117.202 188.297 L 118.600 188.128 117.200 188.076 C 116.430 188.048,115.485 188.208,115.100 188.432 M120.100 188.691 C 120.925 188.778,122.275 188.778,123.100 188.691 C 123.925 188.605,123.250 188.534,121.600 188.534 C 119.950 188.534,119.275 188.605,120.100 188.691 M187.600 188.994 C 187.600 189.353,187.780 189.536,188.000 189.400 C 188.245 189.249,188.400 189.870,188.400 191.000 C 188.400 192.130,188.245 192.751,188.000 192.600 C 187.780 192.464,187.600 192.633,187.600 192.976 C 187.600 193.338,187.944 193.600,188.419 193.600 C 189.561 193.600,189.447 188.693,188.300 188.475 C 187.865 188.392,187.600 188.588,187.600 188.994 M197.104 189.847 C 196.434 191.166,196.438 191.273,197.204 192.703 C 197.688 193.605,198.000 193.905,198.000 193.468 C 198.000 193.072,197.814 192.399,197.586 191.974 C 197.297 191.434,197.305 190.952,197.611 190.379 C 197.853 189.928,197.994 189.315,197.925 189.017 C 197.856 188.720,197.487 189.093,197.104 189.847 M193.714 191.000 C 193.717 192.100,193.795 192.503,193.887 191.895 C 193.979 191.286,193.977 190.386,193.882 189.895 C 193.787 189.403,193.711 189.900,193.714 191.000 M161.600 191.724 C 161.600 193.411,162.438 194.129,163.523 193.369 C 164.643 192.584,164.568 191.066,163.400 190.883 C 162.806 190.789,162.739 190.852,163.139 191.126 C 163.832 191.601,163.574 193.000,162.795 193.000 C 162.409 193.000,162.206 192.614,162.216 191.900 C 162.224 191.295,162.089 190.800,161.916 190.800 C 161.742 190.800,161.600 191.216,161.600 191.724 M114.973 201.000 C 114.973 206.500,115.030 208.805,115.099 206.123 C 115.168 203.441,115.168 198.941,115.099 196.123 C 115.030 193.305,114.974 195.500,114.973 201.000 M194.046 193.654 C 193.980 194.597,195.873 195.719,197.038 195.426 C 197.567 195.293,198.000 195.025,198.000 194.830 C 198.000 194.635,197.643 194.568,197.206 194.682 C 196.005 194.997,194.481 194.486,194.276 193.700 C 194.120 193.104,194.086 193.097,194.046 193.654 M227.780 202.354 C 227.564 202.555,223.686 202.583,218.800 202.420 L 210.200 202.132 219.180 202.066 C 224.402 202.028,228.001 202.148,227.780 202.354 M156.705 204.908 C 155.663 206.059,154.808 207.396,154.805 207.880 C 154.802 208.364,154.543 208.904,154.230 209.080 C 153.491 209.494,151.600 212.281,151.600 212.956 C 151.600 213.242,151.240 213.802,150.800 214.200 C 150.236 214.711,150.000 215.432,150.000 216.648 C 150.000 217.962,149.810 218.474,149.200 218.800 C 148.566 219.139,148.400 219.638,148.400 221.200 C 148.400 222.782,148.237 223.259,147.576 223.613 C 145.896 224.512,146.736 225.785,149.097 225.921 C 150.688 226.012,151.295 226.230,151.611 226.821 C 151.938 227.431,152.455 227.600,154.000 227.600 C 155.562 227.600,156.061 227.766,156.400 228.400 C 156.739 229.034,157.238 229.200,158.800 229.200 C 160.362 229.200,160.861 229.366,161.200 230.000 C 161.537 230.630,162.038 230.800,163.553 230.800 C 164.903 230.800,165.753 231.039,166.400 231.600 C 167.030 232.146,167.842 232.384,168.961 232.350 L 170.600 232.300 168.989 232.035 C 168.103 231.889,166.938 231.462,166.400 231.085 C 165.862 230.708,164.692 230.400,163.800 230.400 C 162.673 230.400,161.969 230.156,161.493 229.600 C 161.006 229.031,160.313 228.800,159.093 228.800 C 157.873 228.800,157.180 228.569,156.693 228.000 C 156.186 227.408,155.513 227.200,154.100 227.200 C 152.626 227.200,152.079 227.018,151.693 226.400 C 151.315 225.795,150.760 225.600,149.420 225.600 C 147.286 225.600,146.827 225.049,147.958 223.845 C 148.522 223.245,148.800 222.424,148.800 221.363 C 148.800 220.273,149.050 219.564,149.600 219.093 C 150.149 218.622,150.400 217.913,150.400 216.828 C 150.400 215.958,150.598 215.125,150.841 214.975 C 151.083 214.825,151.546 214.139,151.868 213.451 C 153.085 210.857,153.752 209.784,154.465 209.277 C 154.869 208.990,155.200 208.488,155.200 208.161 C 155.200 207.511,156.489 205.599,157.897 204.159 C 158.552 203.490,159.362 203.202,160.897 203.095 L 163.000 202.948 160.800 202.882 C 158.627 202.818,158.577 202.842,156.705 204.908 M168.070 206.974 C 168.020 208.093,168.244 208.808,168.842 209.445 C 169.789 210.453,169.566 211.200,168.319 211.200 C 166.947 211.200,164.809 213.582,164.804 215.116 C 164.800 216.375,163.557 218.644,162.500 219.320 C 162.225 219.496,162.000 219.841,162.000 220.088 C 162.000 220.334,162.717 219.740,163.594 218.768 C 164.863 217.361,165.190 216.688,165.194 215.469 C 165.201 213.620,166.848 211.737,168.637 211.533 C 170.087 211.367,170.479 209.885,169.247 209.225 C 168.687 208.926,168.400 208.285,168.293 207.098 L 168.140 205.400 168.070 206.974 M200.300 206.832 C 199.103 207.529,199.273 215.004,200.500 215.635 C 201.243 216.017,201.313 216.005,200.900 215.569 C 200.228 214.858,200.211 207.549,200.880 206.880 C 201.460 206.300,201.244 206.282,200.300 206.832 M202.934 211.200 C 202.934 212.850,203.005 213.525,203.091 212.700 C 203.178 211.875,203.178 210.525,203.091 209.700 C 203.005 208.875,202.934 209.550,202.934 211.200 M181.296 220.800 C 181.018 222.890,180.738 225.990,180.672 227.690 C 180.539 231.162,180.324 231.618,179.271 230.664 C 178.843 230.277,177.866 230.000,176.930 230.000 C 175.897 230.000,174.993 229.714,174.400 229.200 C 173.762 228.647,172.972 228.420,171.839 228.464 C 170.219 228.527,170.216 228.530,171.600 228.695 C 172.370 228.787,173.313 229.145,173.696 229.490 C 174.079 229.834,175.290 230.203,176.389 230.309 C 177.487 230.414,178.591 230.748,178.842 231.050 C 179.885 232.307,182.378 230.240,181.606 228.758 C 181.447 228.451,181.476 226.490,181.671 224.400 C 182.212 218.604,181.937 215.965,181.296 220.800 M208.800 219.600 C 207.828 220.480,207.243 221.200,207.502 221.200 C 207.760 221.200,208.165 220.840,208.400 220.400 C 208.635 219.960,209.083 219.600,209.394 219.600 C 209.706 219.600,210.104 219.356,210.280 219.059 C 210.456 218.761,210.870 218.415,211.200 218.290 C 211.723 218.092,211.721 218.059,211.184 218.032 C 210.845 218.014,209.772 218.720,208.800 219.600 M161.646 221.713 C 161.621 222.104,161.330 222.529,161.000 222.655 C 160.670 222.782,160.414 223.271,160.432 223.743 C 160.454 224.341,160.534 224.418,160.696 224.000 C 160.825 223.670,161.190 223.208,161.508 222.974 C 161.827 222.739,161.998 222.199,161.890 221.774 C 161.718 221.098,161.687 221.091,161.646 221.713 M205.592 221.810 C 204.819 222.741,205.371 222.917,206.198 222.002 C 206.597 221.561,206.738 221.200,206.511 221.200 C 206.284 221.200,205.870 221.474,205.592 221.810 M204.797 234.600 L 204.600 246.200 201.439 246.318 C 199.701 246.383,197.764 246.257,197.135 246.037 C 196.506 245.818,194.869 245.533,193.496 245.404 L 191.000 245.169 192.600 245.807 C 194.870 246.713,204.693 247.144,204.997 246.351 C 205.116 246.042,205.163 240.662,205.103 234.395 L 204.993 223.000 204.797 234.600 M160.652 225.284 C 160.759 225.458,161.259 225.600,161.762 225.600 C 162.265 225.600,163.002 225.960,163.400 226.400 C 163.926 226.982,164.632 227.200,165.986 227.200 C 167.009 227.200,168.196 227.464,168.624 227.787 C 169.757 228.645,170.240 228.528,169.400 227.600 C 168.834 226.975,168.168 226.800,166.352 226.800 C 164.484 226.800,163.949 226.652,163.624 226.045 C 163.383 225.594,162.663 225.225,161.838 225.129 C 161.078 225.040,160.544 225.110,160.652 225.284 M171.200 232.690 C 171.530 232.815,171.944 233.161,172.120 233.459 C 172.333 233.820,173.131 233.976,174.520 233.928 L 176.600 233.856 174.732 233.707 C 173.704 233.626,172.647 233.298,172.383 232.979 C 172.118 232.661,171.609 232.414,171.251 232.432 C 170.705 232.458,170.697 232.500,171.200 232.690 M177.192 234.700 C 177.496 235.327,177.981 235.600,178.790 235.600 C 180.422 235.600,180.581 236.059,180.591 240.800 L 180.600 245.000 185.200 245.019 L 189.800 245.038 185.300 244.906 C 180.464 244.765,179.910 244.446,181.480 242.711 C 182.121 242.003,182.117 241.879,181.402 240.551 C 180.786 239.408,180.733 238.999,181.122 238.377 C 182.032 236.919,180.853 235.200,178.944 235.200 C 178.363 235.200,177.633 234.885,177.322 234.500 C 176.811 233.868,176.798 233.888,177.192 234.700 " stroke="none" fill="#acacac" fill-rule="evenodd"></path></g></svg>