<?xml version="1.0" encoding="UTF-8" standalone="no"?>
<svg
   xmlns:dc="http://purl.org/dc/elements/1.1/"
   xmlns:cc="http://creativecommons.org/ns#"
   xmlns:rdf="http://www.w3.org/1999/02/22-rdf-syntax-ns#"
   xmlns:svg="http://www.w3.org/2000/svg"
   xmlns="http://www.w3.org/2000/svg"
   xmlns:sodipodi="http://sodipodi.sourceforge.net/DTD/sodipodi-0.dtd"
   xmlns:inkscape="http://www.inkscape.org/namespaces/inkscape"
   id="svg"
   version="1.1"
   width="400"
   height="400"
   viewBox="0, 0, 400,400"
   sodipodi:docname="FusionRifle.svg"
   inkscape:version="0.92.4 (5da689c313, 2019-01-14)">
  <metadata
     id="metadata69">
    <rdf:RDF>
      <cc:Work
         rdf:about="">
        <dc:format>image/svg+xml</dc:format>
        <dc:type
           rdf:resource="http://purl.org/dc/dcmitype/StillImage" />
      </cc:Work>
    </rdf:RDF>
  </metadata>
  <defs
     id="defs67" />
  <sodipodi:namedview
     pagecolor="#ffffff"
     bordercolor="#666666"
     borderopacity="1"
     objecttolerance="10"
     gridtolerance="10"
     guidetolerance="10"
     inkscape:pageopacity="0"
     inkscape:pageshadow="2"
     inkscape:window-width="640"
     inkscape:window-height="480"
     id="namedview65"
     showgrid="false"
     inkscape:zoom="0.58271772"
     inkscape:cx="-161.49492"
     inkscape:cy="230.50847"
     inkscape:window-x="0"
     inkscape:window-y="0"
     inkscape:window-maximized="0"
     inkscape:current-layer="svg" />
  <g
     id="svgg"
     transform="translate(0,151.01652)">
    <path
       id="path0"
       d="m 264.4,178.813 c 0,0.226 -0.315,0.529 -0.7,0.673 -0.385,0.143 -1.15,0.584 -1.7,0.981 -1.676,1.208 -45.544,1.171 -46.348,-0.039 -0.847,-1.276 -28.97,-1.303 -29.652,-0.028 -0.332,0.62 -0.838,0.8 -2.248,0.8 -1.747,0 -1.945,0.128 -4.952,3.2 -3.065,3.132 -3.173,3.2 -5.077,3.2 -1.419,0 -2.122,0.207 -2.598,0.763 -0.63,0.736 -1.627,0.765 -27.972,0.816 -15.025,0.029 -27.362,0.096 -27.415,0.15 -0.054,0.054 -0.126,5.942 -0.161,13.084 l -0.062,12.987 2.068,0.3 c 3.293,0.479 3.617,0.124 3.617,-3.958 v -3.43 l 2.309,-2.256 c 1.27,-1.241 2.515,-2.725 2.765,-3.299 0.862,-1.968 2.866,-2.209 16.41,-1.97 6.647,0.117 13.937,0.066 16.2,-0.114 4.989,-0.396 1.259,-0.372 41.064,-0.268 36.628,0.096 33.635,0.345 33.646,-2.805 0.005,-1.549 0.187,-1.943 1.306,-2.83 l 1.3,-1.029 19.33,0.181 19.329,0.182 0.371,0.974 c 0.203,0.536 0.37,1.007 0.37,1.048 0,0.041 -8.717,0.106 -19.371,0.144 -22.908,0.084 -21.216,-0.263 -20.823,4.265 0.156,1.796 0.333,3.319 0.393,3.385 0.291,0.322 38.267,0.171 38.566,-0.153 0.186,-0.202 0.556,-1.048 0.822,-1.881 0.267,-0.833 0.923,-1.802 1.459,-2.153 0.627,-0.411 0.897,-0.882 0.758,-1.321 -0.266,-0.838 0.788,-3.476 1.481,-3.707 0.405,-0.135 0.407,-0.386 0.01,-1.256 -0.704,-1.545 -0.633,-8.234 0.098,-9.199 0.511,-0.674 0.445,-0.873 -0.64,-1.958 l -1.207,-1.208 -5.152,0.079 c -5.417,0.083 -6.794,-0.356 -6.794,-2.163 0,-0.33 -0.18,-0.6 -0.4,-0.6 -0.22,0 -0.4,0.186 -0.4,0.413 m -72.557,3.087 c 0.813,1.071 0.659,1.7 -0.416,1.7 -0.62,0 -1.065,-0.289 -1.226,-0.796 -0.485,-1.529 0.681,-2.171 1.642,-0.904 m 3.343,0.474 c 0.603,1.126 0.539,1.226 -0.786,1.226 -1.258,0 -1.574,-0.666 -0.72,-1.52 0.671,-0.671 1.027,-0.601 1.506,0.294 m 3.12,4.526 c 0.694,0.86 0.528,8.384 -0.203,9.2 -0.878,0.98 -1.929,0.873 -3.544,-0.358 l -1.387,-1.059 0.114,-3.631 c 0.107,-3.418 0.172,-3.66 1.114,-4.135 1.287,-0.65 3.387,-0.659 3.906,-0.017 m -7.872,4.1 c 0.305,4.69 -0.492,5.778 -2.652,3.618 -2.129,-2.129 -1.226,-7.576 1.216,-7.336 l 1.202,0.118 0.234,3.6 m 59.766,-3 c 0.51,0.219 -0.65,0.329 -3.2,0.303 -3.759,-0.039 -3.844,-0.057 -1.4,-0.303 3.74,-0.377 3.723,-0.377 4.6,0 m 14.967,0.256 c 0.091,0.079 -0.864,0.144 -2.124,0.144 -1.386,0 -2.195,-0.154 -2.049,-0.39 0.213,-0.345 3.727,-0.137 4.173,0.246 M 164.72,190.48 c 1.202,1.202 -0.439,4.72 -2.202,4.72 -1.077,0 -2.174,-4.265 -1.247,-4.852 0.786,-0.499 2.899,-0.418 3.449,0.132 m -41.836,5.583 c -0.102,1.065 -0.343,1.937 -0.535,1.937 -0.563,0 -0.574,-6.112 -0.013,-7 0.383,-0.606 0.759,2.867 0.548,5.063 M 148.6,195.8 c 0,0.403 -0.225,0.808 -0.5,0.9 -0.317,0.106 -0.5,-0.224 -0.5,-0.9 0,-0.676 0.183,-1.006 0.5,-0.9 0.275,0.092 0.5,0.497 0.5,0.9 m 11,0 c 0,0.333 -0.356,0.6 -0.8,0.6 -0.797,0 -1.04,-0.426 -0.533,-0.933 0.487,-0.488 1.333,-0.276 1.333,0.333 m 8.13,-0.337 c 0.471,0.472 -0.539,1.26 -1.345,1.049 -1.104,-0.289 -0.988,-1.312 0.148,-1.312 0.514,0 1.052,0.118 1.197,0.263 m 12.978,0.462 c 0.087,0.261 -0.126,0.475 -0.475,0.475 -0.348,0 -0.633,-0.285 -0.633,-0.633 0,-0.707 0.861,-0.584 1.108,0.158 m -58.078,8.378 c -0.483,0.483 -0.712,-0.312 -0.4,-1.384 l 0.325,-1.119 0.153,1.137 c 0.084,0.625 0.049,1.24 -0.078,1.366 m 35.779,0.404 c -1.138,1.256 -1.743,2.18 -2.583,3.944 -0.328,0.689 -0.873,1.358 -1.211,1.488 -0.338,0.13 -0.615,0.603 -0.615,1.052 0,0.449 -0.36,1.125 -0.8,1.502 -0.44,0.377 -0.8,0.931 -0.8,1.233 0,0.301 -0.36,1.005 -0.8,1.565 -0.44,0.559 -0.8,1.595 -0.8,2.302 0,0.71 -0.357,1.697 -0.8,2.207 -0.504,0.581 -0.8,1.497 -0.8,2.474 0,1.01 -0.209,1.631 -0.6,1.781 -1.23,0.472 -0.536,0.945 1.386,0.945 1.576,0 2.074,0.165 2.414,0.8 0.337,0.63 0.838,0.8 2.353,0.8 1.35,0 2.2,0.239 2.847,0.8 0.537,0.466 1.497,0.8 2.298,0.8 0.77,0 1.824,0.352 2.393,0.8 0.653,0.514 1.623,0.8 2.709,0.8 1.086,0 2.056,0.286 2.709,0.8 0.681,0.536 1.623,0.8 2.851,0.8 1.4,0 1.951,0.189 2.333,0.8 0.396,0.634 0.933,0.8 2.589,0.8 1.68,0 2.174,0.157 2.518,0.8 0.271,0.507 0.838,0.8 1.544,0.8 0.614,0 2.405,0.45 3.979,1 1.574,0.55 3.09,1.001 3.369,1.002 0.28,0.002 1.011,0.265 1.625,0.586 0.614,0.32 1.784,0.699 2.6,0.842 0.816,0.143 1.843,0.483 2.283,0.756 0.44,0.273 1.7,0.627 2.8,0.786 1.1,0.16 2.382,0.535 2.848,0.834 0.466,0.299 1.456,0.701 2.2,0.892 1.083,0.279 1.378,0.574 1.484,1.48 0.11,0.946 0.015,1.087 -0.582,0.858 -0.393,-0.151 -1.532,-0.377 -2.532,-0.503 -1,-0.126 -2.21,-0.473 -2.69,-0.772 -0.479,-0.298 -1.649,-0.661 -2.6,-0.805 -0.95,-0.144 -1.998,-0.492 -2.328,-0.774 -0.33,-0.281 -1.495,-0.643 -2.589,-0.805 -1.095,-0.162 -2.787,-0.718 -3.76,-1.236 -2.049,-1.089 -2.379,-1.122 -3.419,-0.335 -0.719,0.545 -0.725,0.628 -0.1,1.319 0.963,1.064 0.88,3.154 -0.138,3.477 -2.049,0.65 0.214,0.999 6.53,1.005 4.819,0.005 7.714,0.197 9.676,0.642 6.736,1.529 6.2,2.588 6.2,-12.259 v -11.954 l 1.411,-0.264 c 0.776,-0.146 1.592,-0.604 1.814,-1.019 0.222,-0.414 0.624,-0.753 0.893,-0.753 0.269,0 0.714,-0.36 0.989,-0.8 0.275,-0.44 0.886,-0.8 1.358,-0.8 0.48,0 1.492,-0.679 2.296,-1.54 0.792,-0.847 1.902,-1.653 2.467,-1.79 0.565,-0.137 1.651,-0.854 2.413,-1.594 0.762,-0.74 1.829,-1.458 2.372,-1.596 0.543,-0.138 1.617,-0.84 2.387,-1.56 1.528,-1.43 2.348,-1.988 4.251,-2.894 0.689,-0.328 1.358,-0.873 1.488,-1.211 0.13,-0.338 0.512,-0.615 0.848,-0.615 0.337,0 0.613,-0.145 0.613,-0.321 0,-0.699 -23.448,-0.578 -24.812,0.127 -1.147,0.593 -1.323,0.596 -1.956,0.023 -0.592,-0.536 -2.15,-0.629 -10.563,-0.629 H 182.8 l -0.058,11.9 c -0.078,15.891 0.008,14.674 -1.112,15.867 -1.164,1.24 -2.157,1.306 -3.521,0.233 -0.651,-0.512 -1.623,-0.8 -2.701,-0.8 -1.176,0 -1.902,-0.241 -2.408,-0.8 -0.513,-0.567 -1.232,-0.8 -2.466,-0.8 -1.247,0 -1.936,-0.227 -2.427,-0.8 -0.523,-0.611 -1.18,-0.8 -2.782,-0.8 -1.665,0 -2.182,-0.16 -2.511,-0.775 -0.251,-0.467 -0.931,-0.824 -1.715,-0.9 -1.664,-0.16 -2.173,-2.697 -0.722,-3.603 0.488,-0.305 0.823,-0.938 0.823,-1.556 0,-0.573 0.36,-1.368 0.8,-1.766 0.44,-0.398 0.8,-0.893 0.8,-1.099 0,-0.206 0.36,-0.832 0.8,-1.392 0.44,-0.559 0.8,-1.546 0.8,-2.194 0,-1.501 1.931,-3.515 3.369,-3.515 1.205,0 1.306,-0.311 0.331,-1.024 -0.569,-0.415 -0.684,-1.043 -0.615,-3.344 l 0.085,-2.832 h -2.756 c -1.973,0 -2.936,0.179 -3.385,0.629 -0.572,0.571 -0.686,0.571 -1.258,0 -0.77,-0.771 -0.584,-0.821 -1.762,0.478 M 203.4,211.2 v 5 h -2.4 -2.4 l -0.112,-5.119 -0.112,-5.12 2.512,0.12 2.512,0.119 v 5 M 161.2,208 c 0,0.88 -0.177,1.6 -0.392,1.6 -0.503,0 -0.966,-1.813 -0.664,-2.599 0.446,-1.161 1.056,-0.584 1.056,0.999 m -1.974,5.734 c -0.301,0.301 -0.426,-0.106 -0.426,-1.387 0,-2.358 0.563,-2.924 0.726,-0.73 0.069,0.93 -0.066,1.883 -0.3,2.117 m -0.898,1.162 c -0.143,0.999 -1.016,1.315 -1.928,0.696 -0.52,-0.353 -0.496,-0.486 0.176,-1 1.149,-0.876 1.902,-0.745 1.752,0.304 M 154.907,216 c -0.377,0.44 -0.718,0.8 -0.758,0.8 -0.041,0 0.02,-0.36 0.135,-0.8 0.115,-0.44 0.457,-0.8 0.759,-0.8 0.42,0 0.389,0.187 -0.136,0.8 m 50.293,2.394 c 0,0.169 -0.246,0.512 -0.547,0.762 -0.735,0.61 -1.669,-0.38 -0.995,-1.054 0.455,-0.455 1.542,-0.25 1.542,0.292 m -51.926,0.706 c 0.368,1.538 -0.496,2.861 -1.004,1.539 -0.262,-0.684 0.106,-2.239 0.53,-2.239 0.169,0 0.382,0.315 0.474,0.7 m 45.126,0.436 c 0,0.545 1.931,1.264 3.395,1.264 1.552,0 2.153,0.628 1.352,1.413 -0.547,0.537 -1.763,0.766 -3.438,0.649 -1.357,-0.095 -2.957,-3.662 -1.642,-3.662 0.183,0 0.333,0.151 0.333,0.336"
       inkscape:connector-curvature="0"
       style="fill:#0c0c0c;fill-rule:evenodd;stroke:none" />
    <path
       id="path1"
       d="m -603.38984,169.49153 v 200 h 200.00001 200 v -200 -200.000005 h -200 -200.00001 V 169.49153 m 266.62201,-21.348 c 1.003,1.095 1.508,1.375 2.054,1.137 0.398,-0.173 2.393,-0.355 4.433,-0.404 l 3.708,-0.09 1.792,1.693 1.79099,1.692 v 6.097 c 0,5.491 -0.079,6.198 -0.79999,7.114 -0.484,0.615 -0.8,1.623 -0.8,2.549 0,1.122 -0.214,1.646 -0.8,1.96 -0.44,0.235 -0.8,0.775 -0.8,1.198 0,0.424 -0.331,1.093 -0.736,1.486 -0.405,0.394 -0.849,1.031 -0.987,1.416 -0.235,0.654 -1.568,0.7 -20.274,0.7 h -20.023 l -0.38,-1 c -0.289,-0.76 -0.668,-1 -1.581,-1 -0.839,0 -1.398,0.301 -1.856,1 -0.36,0.55 -0.839,1 -1.063,1 -0.225,0 -0.809,0.405 -1.298,0.9 -1.382,1.398 -2.705,2.3 -3.383,2.304 -0.341,0.002 -1.249,0.72 -2.019,1.596 -0.922,1.049 -1.741,1.595 -2.4,1.6 -0.659,0.005 -1.478,0.551 -2.4,1.6 -0.898,1.021 -1.745,1.594 -2.361,1.596 -0.603,0.003 -1.503,0.59 -2.411,1.574 -0.797,0.864 -1.927,1.69 -2.51,1.836 -0.583,0.146 -1.157,0.52 -1.277,0.83 -0.119,0.31 -0.485,0.564 -0.814,0.564 -0.33,0 -0.792,0.36 -1.027,0.8 -0.235,0.44 -0.66,0.8 -0.944,0.8 -2.051,0 -2.237,1.079 -2.35,13.619 l -0.106,11.781 -5.4,-0.032 c -3.825,-0.023 -5.692,-0.196 -6.4,-0.591 -0.667,-0.372 -2.932,-0.628 -6.8,-0.768 l -5.8,-0.209 -0.009,-4.2 c -0.01,-4.741 -0.169,-5.2 -1.801,-5.2 -0.752,0 -1.313,-0.282 -1.59,-0.8 -0.347,-0.649 -0.838,-0.8 -2.594,-0.8 -1.564,0 -2.265,-0.177 -2.522,-0.636 -0.231,-0.412 -1.208,-0.737 -2.769,-0.921 -1.413,-0.166 -2.695,-0.566 -3.093,-0.964 -0.454,-0.454 -1.328,-0.679 -2.636,-0.679 -1.548,0 -2.047,-0.167 -2.386,-0.8 -0.339,-0.634 -0.838,-0.8 -2.4,-0.8 -1.562,0 -2.061,-0.166 -2.4,-0.8 -0.339,-0.634 -0.838,-0.8 -2.4,-0.8 -1.545,0 -2.062,-0.169 -2.389,-0.779 -0.316,-0.591 -0.923,-0.809 -2.514,-0.9 -2.361,-0.136 -3.201,-1.409 -1.521,-2.308 0.661,-0.354 0.824,-0.831 0.824,-2.413 0,-1.562 0.166,-2.061 0.8,-2.4 0.61,-0.326 0.8,-0.838 0.8,-2.152 0,-1.216 0.236,-1.937 0.8,-2.448 0.44,-0.398 0.8,-0.958 0.8,-1.244 0,-0.675 1.891,-3.462 2.63,-3.876 0.313,-0.176 0.571,-0.716 0.572,-1.2 0.006,-1.991 3.642,-5.076 6.036,-5.12 1.189,-0.022 2.612,-0.184 3.162,-0.36 0.55,-0.176 -7.139,-0.338 -17.086,-0.36 l -18.086,-0.04 -0.914,1.019 c -0.503,0.561 -2.039,2.169 -3.414,3.574 l -2.5,2.554 v 3.327 3.326 l -1.43,1.141 -1.431,1.141 -0.869,-0.814 c -0.534,-0.5 -1.55,-0.864 -2.629,-0.941 -2.308,-0.166 -2.816,-0.947 -1.801,-2.766 0.694,-1.243 0.765,-2.374 0.815,-13.083 0.03,-6.447 0.161,-11.828 0.292,-11.958 0.273,-0.273 11.889,-0.537 22.653,-0.516 4.07,0.009 11.36,-0.163 16.2,-0.382 4.84,-0.218 11.567,-0.499 14.948,-0.624 l 6.148,-0.226 3.118,-3.186 c 2.992,-3.058 3.191,-3.186 4.938,-3.186 1.41,0 1.916,-0.18 2.248,-0.8 0.689,-1.287 30.532,-1.248 31.222,0.041 0.652,1.219 42.715,1.107 44.332,-0.118 0.525,-0.398 1.283,-0.723 1.686,-0.723 0.402,0 0.925,-0.36 1.16,-0.8 0.629,-1.176 1.525,-0.982 3.022,0.652 m -72.252,9.804 c -0.62,1.158 -0.287,5.498 0.458,5.97 1.999,1.265 3.412,0.209 2.355,-1.762 -0.779,-1.455 -0.779,-1.473 0,-2.928 0.95,-1.773 0.781,-2.136 -0.993,-2.136 -0.982,0 -1.49,0.239 -1.82,0.856 m -6.503,1.011 c -0.417,0.416 -0.313,2.857 0.133,3.133 0.244,0.151 0.4,-0.463 0.4,-1.576 0,-1.855 -0.06,-2.031 -0.533,-1.557 m -25.725,1.94 c -0.318,0.829 0.158,1.893 0.758,1.695 0.275,-0.091 0.555,-0.533 0.621,-0.982 0.145,-0.977 -1.042,-1.591 -1.379,-0.713 m 21.826,11.031 c 0.641,0.256 1.107,0.247 1.38,-0.026 0.283,-0.283 -0.021,-0.404 -0.968,-0.387 -1.297,0.024 -1.322,0.049 -0.412,0.413 m 5.145,0.056 c 0.675,0.325 1.035,0.318 1.38,-0.027 0.356,-0.356 0.139,-0.461 -0.913,-0.44 -1.296,0.025 -1.324,0.054 -0.467,0.467 m 2.887,-0.094 c 0.785,0.507 2.286,0.507 2.6,0 0.15,-0.243 -0.428,-0.398 -1.476,-0.394 -1.261,0.005 -1.563,0.11 -1.124,0.394 m 5,0 c 0.298,0.482 3.679,0.482 4.8,0 0.549,-0.236 -0.119,-0.353 -2.124,-0.372 -1.853,-0.018 -2.833,0.118 -2.676,0.372 m 21.8,0.02 c 4.886,0.163 8.764,0.135 8.98,-0.066 0.221,-0.206 -3.378,-0.326 -8.6,-0.288 l -8.98,0.066 8.6,0.288 m -43.859,1.101 c -1.248,0.091 -1.709,0.314 -1.862,0.9 -0.223,0.852 -2.36,1.095 -3.468,0.394 -0.813,-0.514 -1.197,0.21 -1.205,2.271 -0.005,1.297 0.184,1.788 0.818,2.127 1.254,0.671 0.878,2.153 -0.587,2.32 -1.789,0.204 -3.436,2.087 -3.443,3.936 -0.004,1.219 -0.331,1.892 -1.6,3.299 -1.053,1.168 -1.594,2.145 -1.594,2.88 0,0.612 -0.253,1.256 -0.562,1.432 -1.202,0.684 -0.925,1.912 0.461,2.045 0.784,0.076 1.464,0.433 1.715,0.9 0.337,0.63 0.849,0.775 2.738,0.775 1.816,0 2.482,0.175 3.048,0.8 0.505,0.558 1.232,0.8 2.401,0.8 1.102,0 1.992,0.274 2.599,0.8 0.593,0.514 1.497,0.8 2.53,0.8 0.936,0 1.913,0.277 2.341,0.664 1.085,0.982 1.289,0.474 1.436,-3.584 0.073,-2.024 0.394,-5.343 0.713,-7.376 0.319,-2.032 0.58,-6.013 0.58,-8.846 0,-7.14 -0.64,-7.805 -7.059,-7.337 m 25.641,3.781 c -0.747,1.948 0.026,8.098 1.018,8.098 h 1 v -4.2 c 0,-4.053 -0.031,-4.204 -0.902,-4.328 -0.502,-0.071 -0.997,0.119 -1.116,0.43"
       inkscape:connector-curvature="0"
       style="fill:#fcfcfc;fill-rule:evenodd;stroke:none" />
    <path
       id="path2"
       d="m 264.151,178.183 c -0.123,0.321 -0.999,1.038 -1.947,1.594 l -1.723,1.009 -21.941,0.027 c -21.682,0.025 -21.946,0.016 -22.489,-0.794 -0.85,-1.269 -29.772,-1.287 -30.451,-0.019 -0.332,0.62 -0.838,0.8 -2.248,0.8 -1.747,0 -1.945,0.128 -4.952,3.2 -2.968,3.032 -3.223,3.2 -4.877,3.2 -0.96,0 -2.16,0.291 -2.669,0.647 -0.82,0.574 -3.986,0.675 -28.189,0.9 L 115.4,189 l -0.2,12.439 c -0.152,9.451 -0.326,12.592 -0.726,13.072 -0.655,0.789 0.414,1.489 2.271,1.489 0.659,0 1.497,0.299 1.863,0.665 0.412,0.412 0.765,0.511 0.928,0.26 0.145,-0.223 0.669,-0.619 1.164,-0.879 0.828,-0.436 0.9,-0.752 0.9,-3.963 v -3.488 l 2.206,-2.13 c 1.214,-1.171 2.475,-2.648 2.803,-3.283 0.991,-1.916 2.487,-2.084 17.191,-1.925 7.26,0.079 15.27,0.096 17.8,0.038 6.157,-0.141 10.645,0.086 11.28,0.57 0.644,0.491 5.955,0.331 8.12,-0.244 1.061,-0.282 10.152,-0.408 26.969,-0.373 22.999,0.048 25.413,-0.008 25.844,-0.598 0.714,-0.976 0.864,-0.817 1.086,1.15 0.362,3.21 -1.02,3 19.724,3 20.583,0 20.187,0.048 21.195,-2.593 0.388,-1.014 1.013,-2.01 1.39,-2.211 0.434,-0.233 0.76,-1.036 0.891,-2.198 0.114,-1.007 0.489,-2.142 0.834,-2.524 0.506,-0.559 0.606,-1.544 0.516,-5.084 -0.062,-2.414 0.047,-4.979 0.241,-5.699 0.315,-1.17 0.215,-1.447 -0.938,-2.6 l -1.291,-1.291 -5.09,-0.018 c -5.409,-0.018 -6.105,-0.23 -6.803,-2.066 -0.395,-1.039 -1.084,-1.201 -1.417,-0.333 M 265.2,179 c 0,1.807 1.377,2.246 6.794,2.163 l 5.152,-0.079 1.207,1.208 c 1.085,1.085 1.151,1.284 0.64,1.958 -0.731,0.965 -0.802,7.654 -0.098,9.199 0.397,0.87 0.395,1.121 -0.01,1.256 -0.693,0.231 -1.747,2.869 -1.481,3.707 0.139,0.439 -0.131,0.91 -0.758,1.321 -0.536,0.351 -1.192,1.32 -1.459,2.153 -0.266,0.833 -0.636,1.679 -0.822,1.881 -0.299,0.324 -38.275,0.475 -38.566,0.153 -0.06,-0.066 -0.237,-1.589 -0.393,-3.385 -0.393,-4.528 -2.085,-4.181 20.823,-4.265 10.654,-0.038 19.371,-0.103 19.371,-0.144 0,-0.041 -0.167,-0.512 -0.37,-1.048 l -0.371,-0.974 -19.329,-0.182 -19.33,-0.181 -1.3,1.029 c -1.119,0.887 -1.301,1.281 -1.306,2.83 -0.011,3.15 2.982,2.901 -33.646,2.805 -39.805,-0.104 -36.075,-0.128 -41.064,0.268 -2.263,0.18 -9.553,0.231 -16.2,0.114 -13.544,-0.239 -15.548,0.002 -16.41,1.97 -0.25,0.574 -1.495,2.058 -2.765,3.299 l -2.309,2.256 v 3.43 c 0,4.082 -0.324,4.437 -3.617,3.958 l -2.068,-0.3 0.062,-12.987 c 0.035,-7.142 0.107,-13.03 0.161,-13.084 0.053,-0.054 12.39,-0.121 27.415,-0.15 26.345,-0.051 27.342,-0.08 27.972,-0.816 0.476,-0.556 1.179,-0.763 2.598,-0.763 1.904,0 2.012,-0.068 5.077,-3.2 3.007,-3.072 3.205,-3.2 4.952,-3.2 1.41,0 1.916,-0.18 2.248,-0.8 0.682,-1.275 28.805,-1.248 29.652,0.028 0.804,1.21 44.672,1.247 46.348,0.039 0.55,-0.397 1.315,-0.838 1.7,-0.981 0.385,-0.144 0.7,-0.447 0.7,-0.673 0,-0.227 0.18,-0.413 0.4,-0.413 0.22,0 0.4,0.27 0.4,0.6 m -75.002,2.604 c -0.497,0.804 0.237,1.996 1.229,1.996 1.075,0 1.229,-0.629 0.416,-1.7 -0.594,-0.783 -1.269,-0.905 -1.645,-0.296 m 3.482,0.476 c -0.854,0.854 -0.538,1.52 0.72,1.52 1.325,0 1.389,-0.1 0.786,-1.226 -0.479,-0.895 -0.835,-0.965 -1.506,-0.294 m 0.72,4.837 c -0.942,0.475 -1.007,0.717 -1.114,4.135 l -0.114,3.631 1.387,1.059 c 3.052,2.327 4.175,1.156 4.161,-4.342 -0.014,-5.055 -1.052,-6.133 -4.32,-4.483 m 3.625,0.514 c 0.407,0.49 0.427,0.993 0.09,2.256 -0.296,1.11 -0.307,1.991 -0.033,2.777 0.954,2.737 -1.018,4.348 -3.317,2.711 -1.702,-1.212 -1.674,-7.544 0.035,-8.018 1.691,-0.469 2.679,-0.385 3.225,0.274 m -10.727,0.231 c -0.976,0.976 -0.638,5.834 0.484,6.956 2.16,2.16 2.957,1.072 2.652,-3.618 l -0.234,-3.6 -1.202,-0.118 c -0.661,-0.065 -1.426,0.106 -1.7,0.38 M 245.6,188 c -2.444,0.246 -2.359,0.264 1.4,0.303 2.55,0.026 3.71,-0.084 3.2,-0.303 -0.877,-0.377 -0.86,-0.377 -4.6,0 m 15.394,0.01 c -0.146,0.236 0.663,0.39 2.049,0.39 1.26,0 2.215,-0.065 2.124,-0.144 -0.446,-0.383 -3.96,-0.591 -4.173,-0.246 m -71.618,0.352 c 0.49,0.793 0.535,6.438 0.052,6.438 -1.711,0 -2.915,-3.743 -1.985,-6.167 0.261,-0.682 1.567,-0.864 1.933,-0.271 m -28.105,1.986 c -0.927,0.587 0.17,4.852 1.247,4.852 1.763,0 3.404,-3.518 2.202,-4.72 -0.55,-0.55 -2.663,-0.631 -3.449,-0.132 m 3.089,0.603 c 0.807,0.974 -0.711,3.449 -2.115,3.449 -0.509,0 -1.007,-2.964 -0.584,-3.473 0.572,-0.689 2.118,-0.675 2.699,0.024 M 122.336,191 c -0.561,0.888 -0.55,7 0.013,7 0.192,0 0.433,-0.872 0.535,-1.937 0.211,-2.196 -0.165,-5.669 -0.548,-5.063 m 25.264,4.8 c 0,0.676 0.183,1.006 0.5,0.9 0.275,-0.092 0.5,-0.497 0.5,-0.9 0,-0.403 -0.225,-0.808 -0.5,-0.9 -0.317,-0.106 -0.5,0.224 -0.5,0.9 m 10.667,-0.333 c -0.507,0.507 -0.264,0.933 0.533,0.933 0.444,0 0.8,-0.267 0.8,-0.6 0,-0.609 -0.846,-0.821 -1.333,-0.333 m 7.333,0.286 c 0,0.744 1.466,1.09 1.982,0.469 0.528,-0.636 0.132,-1.022 -1.049,-1.022 -0.528,0 -0.933,0.24 -0.933,0.553 m 14,0.014 c 0,0.348 0.285,0.633 0.633,0.633 0.707,0 0.584,-0.861 -0.158,-1.108 -0.261,-0.087 -0.475,0.126 -0.475,0.475 m -57.37,7.152 c -0.179,0.615 -0.214,1.23 -0.078,1.366 0.448,0.448 0.711,-0.191 0.556,-1.348 l -0.153,-1.137 -0.325,1.119 m 106.829,0.155 c -0.12,0.12 -5.582,0.259 -12.139,0.308 -6.556,0.048 -12.19,0.092 -12.52,0.097 -0.33,0.004 -5.407,-0.012 -11.281,-0.036 l -10.682,-0.043 -0.185,13.119 c -0.216,15.312 -0.665,17.102 -3.694,14.719 -0.633,-0.498 -1.653,-0.839 -2.512,-0.841 -0.795,-0.001 -1.986,-0.36 -2.646,-0.797 -0.66,-0.437 -1.847,-0.796 -2.639,-0.797 -0.861,-0.002 -1.809,-0.324 -2.361,-0.803 -0.647,-0.561 -1.497,-0.8 -2.847,-0.8 -1.495,0 -2.018,-0.173 -2.339,-0.775 -0.251,-0.467 -0.931,-0.824 -1.715,-0.9 -1.625,-0.156 -2.015,-1.734 -0.718,-2.908 0.455,-0.412 0.819,-1.24 0.819,-1.865 0,-0.714 0.291,-1.28 0.8,-1.552 0.44,-0.235 0.8,-0.618 0.8,-0.851 0,-0.233 0.36,-0.88 0.8,-1.44 0.44,-0.559 0.8,-1.546 0.8,-2.194 0,-1.486 1.931,-3.515 3.346,-3.515 1.416,0 1.738,-0.782 0.658,-1.597 -0.784,-0.591 -0.918,-1.073 -0.958,-3.445 l -0.046,-2.758 -4.4,-0.022 -4.4,-0.022 -1.255,1.303 c -0.69,0.716 -1.651,2.121 -2.136,3.122 -0.484,1 -1.023,1.819 -1.197,1.819 -0.174,0 -0.827,1.035 -1.451,2.3 -0.624,1.265 -1.456,2.729 -1.848,3.254 -0.392,0.525 -0.713,1.5 -0.713,2.168 0,0.668 -0.285,1.53 -0.634,1.915 -0.349,0.386 -0.732,1.48 -0.852,2.432 -0.121,0.952 -0.483,2.035 -0.806,2.406 -0.868,0.999 -0.281,1.525 1.702,1.525 1.352,0 1.861,0.186 2.19,0.8 0.334,0.623 0.838,0.8 2.283,0.8 1.131,0 2.127,0.247 2.554,0.634 0.386,0.349 1.48,0.735 2.432,0.86 0.952,0.124 2.16,0.559 2.685,0.966 0.573,0.444 1.612,0.741 2.6,0.743 0.969,0.001 2.139,0.329 2.846,0.797 0.704,0.466 1.877,0.796 2.838,0.797 1.128,0.002 1.864,0.252 2.362,0.803 0.533,0.589 1.232,0.8 2.648,0.8 1.514,0 2.015,0.17 2.352,0.8 0.299,0.559 0.838,0.8 1.785,0.8 1.839,0 3.36,1.755 2.421,2.793 -0.763,0.843 -0.758,1.179 0.037,2.774 0.618,1.237 0.606,1.329 -0.274,2.266 -1.408,1.499 -0.767,1.669 7.031,1.869 3.96,0.101 7.672,0.377 8.249,0.612 0.577,0.235 2.299,0.551 3.827,0.701 4.339,0.428 4.124,1.087 4.124,-12.615 0,-12.146 0.094,-12.8 1.844,-12.8 0.323,0 1.336,-0.72 2.252,-1.6 0.916,-0.88 2.017,-1.6 2.446,-1.6 0.429,0 1.428,-0.693 2.219,-1.54 0.792,-0.847 1.902,-1.653 2.467,-1.79 0.565,-0.137 1.651,-0.854 2.413,-1.594 0.762,-0.74 1.842,-1.46 2.4,-1.6 0.558,-0.14 1.669,-0.89 2.469,-1.667 0.799,-0.777 2.227,-1.825 3.172,-2.33 1.915,-1.024 3.918,-2.752 3.918,-3.382 0,-0.475 -1.016,-0.948 -1.341,-0.623 m -57.979,0.379 c -0.546,0.547 -0.269,1.001 0.536,0.875 0.449,-0.07 0.818,-0.308 0.821,-0.528 0.006,-0.487 -0.968,-0.736 -1.357,-0.347 m -10.909,0.776 c 0.572,0.571 0.686,0.571 1.258,0 0.449,-0.45 1.412,-0.629 3.385,-0.629 h 2.756 l -0.085,2.832 c -0.069,2.301 0.046,2.929 0.615,3.344 0.975,0.713 0.874,1.024 -0.331,1.024 -1.438,0 -3.369,2.014 -3.369,3.515 0,0.648 -0.36,1.635 -0.8,2.194 -0.44,0.56 -0.8,1.186 -0.8,1.392 0,0.206 -0.36,0.701 -0.8,1.099 -0.44,0.398 -0.8,1.193 -0.8,1.766 0,0.618 -0.335,1.251 -0.823,1.556 -1.451,0.906 -0.942,3.443 0.722,3.603 0.784,0.076 1.464,0.433 1.715,0.9 0.329,0.615 0.846,0.775 2.511,0.775 1.602,0 2.259,0.189 2.782,0.8 0.491,0.573 1.18,0.8 2.427,0.8 1.234,0 1.953,0.233 2.466,0.8 0.506,0.559 1.232,0.8 2.408,0.8 1.078,0 2.05,0.288 2.701,0.8 1.364,1.073 2.357,1.007 3.521,-0.233 1.12,-1.193 1.034,0.024 1.112,-15.867 l 0.058,-11.9 h 9.869 c 8.413,0 9.971,0.093 10.563,0.629 0.633,0.573 0.809,0.57 1.956,-0.023 1.364,-0.705 24.812,-0.826 24.812,-0.127 0,0.176 -0.276,0.321 -0.613,0.321 -0.336,0 -0.718,0.277 -0.848,0.615 -0.13,0.338 -0.799,0.883 -1.488,1.211 -1.903,0.906 -2.723,1.464 -4.251,2.894 -0.77,0.72 -1.844,1.422 -2.387,1.56 -0.543,0.138 -1.61,0.856 -2.372,1.596 -0.762,0.74 -1.848,1.457 -2.413,1.594 -0.565,0.137 -1.675,0.943 -2.467,1.79 -0.804,0.861 -1.816,1.54 -2.296,1.54 -0.472,0 -1.083,0.36 -1.358,0.8 -0.275,0.44 -0.72,0.8 -0.989,0.8 -0.269,0 -0.671,0.339 -0.893,0.753 -0.222,0.415 -1.038,0.873 -1.814,1.019 l -1.411,0.264 v 11.954 c 0,14.847 0.536,13.788 -6.2,12.259 -1.962,-0.445 -4.857,-0.637 -9.676,-0.642 -6.316,-0.006 -8.579,-0.355 -6.53,-1.005 1.018,-0.323 1.101,-2.413 0.138,-3.477 -0.625,-0.691 -0.619,-0.774 0.1,-1.319 1.04,-0.787 1.37,-0.754 3.419,0.335 0.973,0.518 2.665,1.074 3.76,1.236 1.094,0.162 2.259,0.524 2.589,0.805 0.33,0.282 1.378,0.63 2.328,0.774 0.951,0.144 2.121,0.507 2.6,0.805 0.48,0.299 1.69,0.646 2.69,0.772 1,0.126 2.139,0.352 2.532,0.503 0.597,0.229 0.692,0.088 0.582,-0.858 -0.106,-0.906 -0.401,-1.201 -1.484,-1.48 -0.744,-0.191 -1.734,-0.593 -2.2,-0.892 -0.466,-0.299 -1.748,-0.674 -2.848,-0.834 -1.1,-0.159 -2.36,-0.513 -2.8,-0.786 -0.44,-0.273 -1.467,-0.613 -2.283,-0.756 -0.816,-0.143 -1.986,-0.522 -2.6,-0.842 -0.614,-0.321 -1.345,-0.584 -1.625,-0.586 -0.279,-0.001 -1.795,-0.452 -3.369,-1.002 -1.574,-0.55 -3.365,-1 -3.979,-1 -0.706,0 -1.273,-0.293 -1.544,-0.8 -0.344,-0.643 -0.838,-0.8 -2.518,-0.8 -1.656,0 -2.193,-0.166 -2.589,-0.8 -0.382,-0.611 -0.933,-0.8 -2.333,-0.8 -1.228,0 -2.17,-0.264 -2.851,-0.8 -0.653,-0.514 -1.623,-0.8 -2.709,-0.8 -1.086,0 -2.056,-0.286 -2.709,-0.8 -0.569,-0.448 -1.623,-0.8 -2.393,-0.8 -0.801,0 -1.761,-0.334 -2.298,-0.8 -0.647,-0.561 -1.497,-0.8 -2.847,-0.8 -1.515,0 -2.016,-0.17 -2.353,-0.8 -0.34,-0.635 -0.838,-0.8 -2.414,-0.8 -1.922,0 -2.616,-0.473 -1.386,-0.945 0.391,-0.15 0.6,-0.771 0.6,-1.781 0,-0.977 0.296,-1.893 0.8,-2.474 0.443,-0.51 0.8,-1.497 0.8,-2.207 0,-0.707 0.36,-1.743 0.8,-2.302 0.44,-0.56 0.8,-1.264 0.8,-1.565 0,-0.302 0.36,-0.856 0.8,-1.233 0.44,-0.377 0.8,-1.053 0.8,-1.502 0,-0.449 0.277,-0.922 0.615,-1.052 0.338,-0.13 0.883,-0.799 1.211,-1.488 1.767,-3.712 3.397,-5.371 4.345,-4.422 m 38.317,6.852 0.112,5.119 h 2.4 2.4 v -5 -5 l -2.512,-0.119 -2.512,-0.12 0.112,5.12 m -38.344,-4.08 c -0.302,0.786 0.161,2.599 0.664,2.599 0.215,0 0.392,-0.72 0.392,-1.6 0,-1.583 -0.61,-2.16 -1.056,-0.999 M 203,211.2 c 0,5.052 -0.152,5.3 -2.841,4.626 -0.939,-0.236 -0.959,-0.334 -0.959,-4.6 0,-4.763 0.037,-4.835 2.4,-4.704 l 1.4,0.078 v 4.6 m -43.9,-0.971 c -0.165,0.167 -0.3,1.12 -0.3,2.118 0,1.281 0.125,1.688 0.426,1.387 0.234,-0.234 0.369,-1.187 0.3,-2.117 -0.069,-0.931 -0.261,-1.555 -0.426,-1.388 m -2.524,4.363 c -0.672,0.514 -0.696,0.647 -0.176,1 0.912,0.619 1.785,0.303 1.928,-0.696 0.15,-1.049 -0.603,-1.18 -1.752,-0.304 M 154.284,216 c -0.115,0.44 -0.176,0.8 -0.135,0.8 0.04,0 0.381,-0.36 0.758,-0.8 0.525,-0.613 0.556,-0.8 0.136,-0.8 -0.302,0 -0.644,0.36 -0.759,0.8 m 49.374,2.102 c -0.674,0.674 0.26,1.664 0.995,1.054 0.301,-0.25 0.547,-0.593 0.547,-0.762 0,-0.542 -1.087,-0.747 -1.542,-0.292 m -51.384,1.137 c -0.245,0.935 0.038,1.961 0.539,1.961 0.418,0 0.679,-1.189 0.461,-2.1 -0.228,-0.952 -0.733,-0.882 -1,0.139 m 45.239,0.181 c -0.51,0.511 1.322,3.381 2.196,3.442 1.675,0.117 2.891,-0.112 3.438,-0.649 0.801,-0.785 0.2,-1.413 -1.352,-1.413 -1.464,0 -3.395,-0.719 -3.395,-1.264 0,-0.379 -0.552,-0.451 -0.887,-0.116 M 190.6,239.2 c 0.144,0.233 -0.255,0.4 -0.953,0.4 -0.66,0 -1.311,-0.18 -1.447,-0.4 -0.144,-0.233 0.255,-0.4 0.953,-0.4 0.66,0 1.311,0.18 1.447,0.4 m 6.8,1.6 c 0.149,0.241 -0.388,0.4 -1.353,0.4 -0.88,0 -1.711,-0.18 -1.847,-0.4 -0.149,-0.241 0.388,-0.4 1.353,-0.4 0.88,0 1.711,0.18 1.847,0.4 m 3.8,1.6 c 0,0.22 -0.439,0.4 -0.976,0.4 -0.537,0 -1.088,-0.18 -1.224,-0.4 -0.144,-0.233 0.263,-0.4 0.976,-0.4 0.673,0 1.224,0.18 1.224,0.4"
       inkscape:connector-curvature="0"
       style="fill:#646464;fill-rule:evenodd;stroke:none" />
    <path
       id="path3"
       d="m 261.662,179.7 c -0.316,0.317 -2.283,0.582 -5.38,0.724 l -4.882,0.225 4.6,0.073 c 3.996,0.063 4.757,-0.032 5.8,-0.722 0.66,-0.437 1.011,-0.796 0.78,-0.797 -0.231,-0.002 -0.644,0.222 -0.918,0.497 m 13.561,0.286 c -0.323,0.199 -0.021,0.385 0.836,0.515 1.662,0.253 1.815,0.152 0.606,-0.399 -0.516,-0.235 -1.165,-0.287 -1.442,-0.116 m -104.652,7.66 c -0.165,0.269 -0.957,0.369 -1.986,0.253 -0.941,-0.106 -1.952,-0.039 -2.248,0.148 -0.332,0.211 0.301,0.338 1.663,0.334 1.306,-0.004 2.516,-0.245 2.976,-0.594 0.428,-0.323 0.573,-0.587 0.324,-0.587 -0.249,0 -0.577,0.201 -0.729,0.446 m 23.179,0.141 c -0.124,0.323 -0.133,0.818 -0.019,1.1 0.113,0.282 0.22,0.123 0.237,-0.354 0.018,-0.476 0.257,-0.957 0.532,-1.068 0.392,-0.158 0.389,-0.209 -0.013,-0.233 -0.281,-0.018 -0.613,0.232 -0.737,0.555 m 85.943,1.013 c 0,0.77 0.082,1.085 0.183,0.7 0.1,-0.385 0.1,-1.015 0,-1.4 -0.101,-0.385 -0.183,-0.07 -0.183,0.7 m -119.782,-0.507 c 0.94,0.085 2.38,0.084 3.2,-0.002 0.819,-0.086 0.049,-0.155 -1.711,-0.154 -1.76,0.002 -2.43,0.072 -1.489,0.156 m 28.389,0.119 c 1.354,0.545 1.375,5.188 0.024,5.188 -0.857,0 -0.859,0.013 -0.1,0.587 1.476,1.117 1.689,0.779 1.528,-2.425 -0.175,-3.494 -0.284,-3.771 -1.476,-3.737 l -0.876,0.026 0.9,0.361 m -73.02,0.468 c -0.264,0.264 -0.459,0.939 -0.433,1.5 0.044,0.946 0.066,0.933 0.302,-0.18 0.227,-1.067 0.455,-1.227 2.053,-1.44 l 1.798,-0.24 -1.62,-0.06 c -0.891,-0.033 -1.836,0.156 -2.1,0.42 m 17.447,-0.18 c 4.69,0.064 12.25,0.064 16.8,-10e-4 4.55,-0.064 0.713,-0.116 -8.527,-0.116 -9.24,0 -12.963,0.053 -8.273,0.117 m 54.597,2.3 c 0.002,1.32 0.077,1.812 0.166,1.093 0.089,-0.719 0.087,-1.799 -0.004,-2.4 -0.091,-0.601 -0.164,-0.013 -0.162,1.307 m 10.118,-0.366 c -0.134,0.349 -0.093,0.903 0.091,1.232 0.235,0.42 0.334,0.233 0.334,-0.635 0,-1.394 -0.077,-1.502 -0.425,-0.597 m -34.642,0.049 c 0.55,0.095 1.225,0.465 1.5,0.822 0.275,0.356 0.5,0.47 0.5,0.251 0,-0.731 -0.951,-1.356 -1.98,-1.302 l -1.02,0.055 1,0.174 m 116.86,2.768 c -0.033,0.688 -0.33,1.475 -0.66,1.749 -0.33,0.274 -0.6,0.68 -0.6,0.903 0,0.223 0.372,-0.068 0.827,-0.646 0.532,-0.676 0.767,-1.445 0.66,-2.154 -0.162,-1.069 -0.169,-1.065 -0.227,0.148 M 161.618,193 c -0.018,1.188 0.705,1.543 1.748,0.859 0.569,-0.373 1.034,-0.767 1.034,-0.877 0,-0.11 -0.435,0.085 -0.967,0.433 -0.894,0.586 -0.998,0.579 -1.387,-0.091 -0.232,-0.398 -0.424,-0.544 -0.428,-0.324 m 32.022,0.473 c -0.041,0.89 1.783,2.527 2.816,2.527 0.292,0 -0.092,-0.334 -0.854,-0.743 -0.763,-0.409 -1.507,-1.174 -1.654,-1.7 -0.255,-0.908 -0.27,-0.913 -0.308,-0.084 m 84.34,4.817 c -0.109,0.929 -0.047,1.537 0.14,1.35 0.186,-0.186 0.276,-0.946 0.199,-1.689 -0.136,-1.318 -0.144,-1.309 -0.339,0.339 m -44.194,2.36 c -0.373,0.59 -2.777,0.643 -26.188,0.576 -14.178,-0.04 -25.692,0.013 -25.587,0.118 0.105,0.105 11.891,0.236 26.19,0.291 l 25.999,0.1 0.506,1.033 c 0.278,0.567 0.413,0.702 0.3,0.299 -0.113,-0.403 -0.206,-1.258 -0.206,-1.9 0,-1.3 -0.394,-1.5 -1.014,-0.517 m 42.85,-0.308 c -0.442,0.716 -1.07,2.64 -0.737,2.258 0.441,-0.506 1.34,-2.6 1.116,-2.6 -0.092,0 -0.263,0.154 -0.379,0.342 m -115.836,0.852 -4.2,0.249 5.2,0.137 c 10.684,0.281 12.338,0.509 9.83,1.357 -0.753,0.255 -1.441,0.681 -1.528,0.948 -0.203,0.62 1.825,1.148 2.358,0.615 0.268,-0.268 0.042,-0.332 -0.682,-0.194 -0.805,0.154 -1.035,0.065 -0.897,-0.349 0.21,-0.633 0.803,-0.744 5.433,-1.021 1.84,-0.11 3.797,-0.466 4.4,-0.801 l 1.086,-0.602 -1.2,0.248 c -2.14,0.442 -7.186,0.492 -7.731,0.075 -0.292,-0.223 -1.732,-0.432 -3.2,-0.465 -1.468,-0.032 -3.119,-0.146 -3.669,-0.253 -0.55,-0.107 -2.89,-0.082 -5.2,0.056 m -27.9,0.304 c 1.925,0.073 5.075,0.073 7,0 1.925,-0.073 0.35,-0.133 -3.5,-0.133 -3.85,0 -5.425,0.06 -3.5,0.133 m 11.2,-0.022 c 0.385,0.1 1.015,0.1 1.4,0 0.385,-0.101 0.07,-0.183 -0.7,-0.183 -0.77,0 -1.085,0.082 -0.7,0.183 m -16.715,0.824 c -0.338,0.385 -1.089,1.33 -1.668,2.1 l -1.055,1.4 1.161,-1.2 c 0.639,-0.66 1.58,-1.605 2.091,-2.1 0.512,-0.495 0.741,-0.9 0.508,-0.9 -0.232,0 -0.699,0.315 -1.037,0.7 m 37.813,0.869 c 2.494,0.222 2.608,0.279 2.853,1.431 l 0.254,1.2 0.048,-1.257 c 0.057,-1.528 -0.441,-1.767 -3.486,-1.674 l -2.267,0.069 2.598,0.231 m 19.314,-0.074 c 1.052,0.082 2.672,0.081 3.6,-0.003 0.928,-0.084 0.068,-0.151 -1.912,-0.15 -1.98,0.001 -2.74,0.07 -1.688,0.153 m 7.188,-0.001 c 1.045,0.082 2.755,0.082 3.8,0 1.045,-0.082 0.19,-0.15 -1.9,-0.15 -2.09,0 -2.945,0.068 -1.9,0.15 m 10.1,0.095 c 0.88,0.159 1.78,0.338 2,0.397 0.22,0.06 0.67,0.066 1,0.014 0.925,-0.146 -1.624,-0.706 -3.2,-0.703 l -1.4,0.003 1.6,0.289 m 8.723,-0.09 c 2.597,0.07 6.737,0.069 9.2,-10e-4 2.462,-0.07 0.337,-0.127 -4.723,-0.126 -5.06,0 -7.075,0.057 -4.477,0.127 m 19.435,0.067 c 0.347,0.219 0.452,0.634 0.277,1.094 -0.218,0.571 -0.174,0.632 0.194,0.267 0.566,-0.561 0.215,-1.73 -0.516,-1.721 -0.384,0.005 -0.372,0.095 0.045,0.36 m -107.383,4.534 -1.175,1.3 1.3,-1.175 c 1.212,-1.095 1.484,-1.425 1.175,-1.425 -0.069,0 -0.654,0.585 -1.3,1.3 m 77.125,-1.035 c -0.818,0.33 -0.695,8.775 0.133,9.092 0.976,0.375 1.247,0.265 0.467,-0.189 -0.592,-0.345 -0.7,-1.018 -0.7,-4.368 0,-3.35 0.108,-4.023 0.7,-4.368 0.715,-0.416 0.303,-0.531 -0.6,-0.167 m 2.175,-0.006 c 0.482,0.105 0.956,0.542 1.054,0.972 0.138,0.607 0.166,0.58 0.124,-0.125 -0.039,-0.666 -0.318,-0.923 -1.053,-0.972 -0.833,-0.054 -0.854,-0.033 -0.125,0.125 M 114.893,212 c 0,0.77 0.082,1.085 0.183,0.7 0.1,-0.385 0.1,-1.015 0,-1.4 -0.101,-0.385 -0.183,-0.07 -0.183,0.7 m -0.842,2.304 c -0.431,0.806 0.068,1.709 0.929,1.684 0.231,-0.007 0.095,-0.201 -0.302,-0.432 -0.577,-0.336 -0.626,-0.537 -0.243,-0.998 0.263,-0.318 0.378,-0.678 0.254,-0.802 -0.123,-0.123 -0.41,0.123 -0.638,0.548 m 37.049,0.31 c -0.999,1.336 -0.869,1.709 0.146,0.419 0.465,-0.591 0.78,-1.138 0.7,-1.215 -0.08,-0.077 -0.461,0.282 -0.846,0.796 m 30.993,0.586 c 0,0.77 0.082,1.085 0.183,0.7 0.1,-0.385 0.1,-1.015 0,-1.4 -0.101,-0.385 -0.183,-0.07 -0.183,0.7 m 20.739,-0.528 c -0.021,0.573 -0.341,0.932 -0.932,1.046 l -0.9,0.173 0.913,0.055 c 0.947,0.056 1.514,-0.743 1.156,-1.633 -0.113,-0.282 -0.22,-0.121 -0.237,0.359 m -38.932,2.342 c -0.999,1.336 -0.869,1.709 0.146,0.419 0.465,-0.591 0.78,-1.138 0.7,-1.215 -0.08,-0.077 -0.461,0.282 -0.846,0.796 M 118.503,216.8 c 0.09,0.33 0.404,0.6 0.697,0.6 0.293,0 0.607,-0.27 0.697,-0.6 0.146,-0.533 0.116,-0.533 -0.267,0 -0.382,0.533 -0.478,0.533 -0.86,0 -0.383,-0.533 -0.413,-0.533 -0.267,0 m 63.625,2.4 c 0,1.43 0.073,2.015 0.161,1.3 0.089,-0.715 0.089,-1.885 0,-2.6 -0.088,-0.715 -0.161,-0.13 -0.161,1.3 m 27.634,-0.7 c -0.756,0.893 -0.755,0.895 0.038,0.241 0.44,-0.362 1.16,-0.746 1.6,-0.853 0.769,-0.188 0.768,-0.197 -0.038,-0.242 -0.461,-0.025 -1.181,0.359 -1.6,0.854 m -4.333,2.929 c -0.346,0.345 -0.618,0.93 -0.604,1.3 0.018,0.475 0.132,0.406 0.391,-0.238 0.201,-0.501 0.774,-1.074 1.275,-1.275 0.644,-0.259 0.713,-0.373 0.238,-0.391 -0.37,-0.014 -0.955,0.258 -1.3,0.604 m -23.914,4.071 c -0.085,1.485 -0.016,2.97 0.153,3.3 0.169,0.33 0.313,-0.885 0.32,-2.7 0.015,-3.985 -0.261,-4.334 -0.473,-0.6 m -33.724,-1.491 c -0.603,0.668 -0.639,0.896 -0.203,1.3 0.421,0.391 0.468,0.383 0.231,-0.034 -0.171,-0.302 0.001,-0.855 0.404,-1.3 0.385,-0.426 0.611,-0.775 0.501,-0.775 -0.11,0 -0.53,0.364 -0.933,0.809 M 160,224.176 c 0,0.537 0.147,1.068 0.328,1.179 0.18,0.112 0.249,-0.328 0.154,-0.976 -0.21,-1.43 -0.482,-1.544 -0.482,-0.203 m 8.4,3.835 c 0,0.347 1.553,0.97 1.801,0.721 0.077,-0.077 -0.296,-0.347 -0.83,-0.599 -0.534,-0.252 -0.971,-0.307 -0.971,-0.122 m -1.8,3.189 c 0.66,0.437 1.38,0.795 1.6,0.795 0.22,0 -0.14,-0.358 -0.8,-0.795 -0.66,-0.437 -1.38,-0.795 -1.6,-0.795 -0.22,0 0.14,0.358 0.8,0.795 m 11.95,0.032 c 0.582,0.458 1.281,0.742 1.554,0.632 0.311,-0.126 0.254,-0.213 -0.155,-0.232 -0.358,-0.018 -0.875,-0.302 -1.149,-0.632 -0.274,-0.33 -0.68,-0.6 -0.903,-0.6 -0.223,0 0.071,0.374 0.653,0.832 m -7.55,1.056 c 0.44,0.107 1.16,0.491 1.6,0.853 0.793,0.654 0.794,0.652 0.038,-0.241 -0.419,-0.495 -1.139,-0.879 -1.6,-0.854 -0.806,0.045 -0.807,0.054 -0.038,0.242 m 9.8,3.712 c 0.927,0.927 0.98,1.322 0.319,2.381 -0.472,0.755 0.282,3.152 0.822,2.612 0.113,-0.114 -0.007,-0.419 -0.268,-0.68 -0.644,-0.644 -0.594,-1.516 0.133,-2.32 0.624,-0.689 -0.457,-2.793 -1.435,-2.793 -0.204,0 -0.011,0.36 0.429,0.8 m 7.4,3.2 c 0.136,0.22 0.787,0.4 1.447,0.4 0.698,0 1.097,-0.167 0.953,-0.4 -0.136,-0.22 -0.787,-0.4 -1.447,-0.4 -0.698,0 -1.097,0.167 -0.953,0.4 m 6,1.6 c 0.136,0.22 0.967,0.4 1.847,0.4 0.965,0 1.502,-0.159 1.353,-0.4 -0.136,-0.22 -0.967,-0.4 -1.847,-0.4 -0.965,0 -1.502,0.159 -1.353,0.4 m 4.8,1.6 c 0.136,0.22 0.687,0.4 1.224,0.4 0.537,0 0.976,-0.18 0.976,-0.4 0,-0.22 -0.551,-0.4 -1.224,-0.4 -0.713,0 -1.12,0.167 -0.976,0.4 m -8.095,2.687 c 0.609,0.092 1.509,0.09 2,-0.005 0.492,-0.095 -0.005,-0.171 -1.105,-0.168 -1.1,0.003 -1.503,0.081 -0.895,0.173 m 4.495,0.533 c 0.88,0.217 2.41,0.473 3.4,0.569 l 1.8,0.174 -1.6,-0.351 c -0.88,-0.193 -2.41,-0.448 -3.4,-0.568 l -1.8,-0.218 1.6,0.394"
       inkscape:connector-curvature="0"
       style="fill:#8c8c8c;fill-rule:evenodd;stroke:none" />
    <path
       id="path4"
       d="m 263.6,178 c -0.235,0.44 -0.762,0.8 -1.17,0.8 -0.686,0 -2.985,1.557 -2.342,1.587 0.618,0.028 3.594,-1.734 3.79,-2.246 0.359,-0.936 1.49,-0.56 2.33,0.774 l 0.807,1.285 3.768,0.078 c 2.072,0.043 4.043,-0.077 4.38,-0.265 0.724,-0.405 2.37,0.357 3.747,1.733 1.266,1.266 1.415,12.112 0.19,13.843 -0.385,0.544 -0.7,1.66 -0.7,2.48 0,0.95 -0.232,1.621 -0.639,1.849 -0.351,0.196 -1.136,1.33 -1.745,2.52 l -1.106,2.162 -19.673,0.104 -19.673,0.104 -0.687,-1.535 -0.687,-1.534 -26.195,-0.085 c -22.912,-0.073 -26.339,-0.007 -27.341,0.531 -0.72,0.387 -2.206,0.617 -4,0.621 -3.03,0.007 -3.559,0.179 -3.971,1.294 -0.285,0.773 -1.355,0.907 -2.283,0.286 -0.747,-0.499 0.456,-1.586 1.756,-1.586 0.643,0 0.704,-0.1 0.304,-0.5 -0.384,-0.384 -5.494,-0.531 -22.077,-0.633 l -21.578,-0.133 -1.103,1.174 c -0.606,0.645 -2.227,2.333 -3.602,3.751 l -2.5,2.577 v 3.482 c 0,1.961 -0.168,3.482 -0.384,3.482 -0.212,0 -0.752,0.394 -1.2,0.875 l -0.816,0.876 -0.816,-0.876 c -0.565,-0.606 -1.286,-0.875 -2.351,-0.875 -1.911,0 -2.66,-0.747 -1.839,-1.833 0.319,-0.422 0.572,-1.307 0.562,-1.967 -0.011,-0.66 -0.111,-0.93 -0.223,-0.6 -0.113,0.33 -0.482,1.217 -0.822,1.972 -0.833,1.853 -0.315,2.593 1.93,2.755 1.079,0.077 2.095,0.441 2.629,0.941 l 0.869,0.814 1.431,-1.141 1.43,-1.141 v -3.326 -3.327 l 2.5,-2.554 c 1.375,-1.405 2.911,-3.013 3.414,-3.574 l 0.914,-1.019 18.086,0.04 c 9.947,0.022 17.636,0.184 17.086,0.36 -0.791,0.253 -0.568,0.329 1.067,0.36 2.759,0.053 3.332,0.325 3.339,1.583 0.004,0.638 0.127,0.867 0.311,0.578 0.2,-0.316 0.505,-0.352 0.894,-0.106 1.124,0.711 3.245,0.458 3.473,-0.415 0.165,-0.629 0.563,-0.808 1.863,-0.837 6.549,-0.147 6.765,0.04 7.097,6.146 l 0.245,4.491 -0.096,-4.6 c -0.052,-2.53 -0.162,-4.955 -0.244,-5.39 -0.114,-0.604 0.18,-0.898 1.249,-1.252 1.14,-0.376 1.251,-0.499 0.6,-0.663 -0.523,-0.133 -0.341,-0.218 0.526,-0.249 0.79,-0.027 1.224,0.115 1.076,0.354 -0.153,0.248 0.561,0.398 1.876,0.394 1.519,-0.005 1.953,-0.117 1.524,-0.394 -0.454,-0.293 -0.278,-0.389 0.724,-0.394 0.781,-0.003 1.222,0.158 1.076,0.394 -0.143,0.231 0.228,0.397 0.876,0.394 0.873,-0.005 0.99,-0.093 0.524,-0.394 -0.439,-0.284 -0.137,-0.389 1.124,-0.394 0.948,-0.003 1.623,0.156 1.501,0.354 -0.248,0.4 5.281,1.067 5.665,0.683 0.134,-0.134 -0.496,-0.243 -1.4,-0.243 -0.903,0 -1.754,-0.18 -1.89,-0.4 -0.157,-0.254 0.823,-0.39 2.676,-0.372 2.005,0.019 2.673,0.136 2.124,0.372 -1.058,0.455 -1.261,0.448 15.13,0.472 14.959,0.022 15.109,0.05 12.623,2.371 -0.732,0.685 -1.696,1.413 -2.142,1.618 -2.037,0.938 -2.99,1.644 -4.914,3.639 -0.371,0.385 -1.04,0.703 -1.486,0.707 -0.446,0.003 -1.518,0.723 -2.381,1.6 -0.864,0.876 -1.944,1.594 -2.4,1.595 -0.461,0 -1.594,0.802 -2.548,1.8 -0.945,0.989 -1.575,1.796 -1.4,1.794 0.175,-0.002 0.948,-0.72 1.718,-1.596 0.922,-1.049 1.741,-1.595 2.4,-1.6 0.659,-0.005 1.478,-0.551 2.4,-1.6 0.922,-1.049 1.741,-1.595 2.4,-1.6 0.659,-0.005 1.478,-0.551 2.4,-1.6 0.77,-0.876 1.678,-1.594 2.019,-1.596 0.678,-0.004 2.001,-0.906 3.383,-2.304 0.489,-0.495 1.073,-0.9 1.298,-0.9 0.224,0 0.703,-0.45 1.063,-1 0.458,-0.699 1.017,-1 1.856,-1 0.913,0 1.292,0.24 1.581,1 l 0.38,1 h 20.023 c 18.706,0 20.039,-0.046 20.274,-0.7 0.138,-0.385 0.582,-1.022 0.987,-1.416 0.405,-0.393 0.736,-1.062 0.736,-1.486 0,-0.423 0.36,-0.963 0.8,-1.198 0.586,-0.314 0.8,-0.838 0.8,-1.96 0,-0.926 0.316,-1.934 0.8,-2.549 0.721,-0.916 0.8,-1.623 0.8,-7.114 v -6.097 l -1.791,-1.692 -1.792,-1.693 -3.708,0.09 c -2.04,0.049 -4.035,0.231 -4.433,0.404 -0.546,0.238 -1.051,-0.042 -2.054,-1.137 -1.497,-1.634 -2.393,-1.828 -3.022,-0.652 m -78.4,1.6 c -0.332,0.62 -0.838,0.8 -2.248,0.8 -1.747,0 -1.946,0.128 -4.938,3.186 l -3.118,3.186 -6.148,0.226 c -3.381,0.124 -10.018,0.399 -14.748,0.609 -4.73,0.211 -13.072,0.373 -18.538,0.36 -5.466,-0.013 -10.056,0.096 -10.2,0.243 -0.144,0.148 9.098,0.16 20.538,0.029 11.44,-0.132 21.639,-0.231 22.665,-0.221 1.026,0.01 1.982,-0.17 2.124,-0.4 0.142,-0.23 1.181,-0.418 2.308,-0.418 2.034,0 2.076,-0.026 5.199,-3.2 2.997,-3.046 3.235,-3.2 4.923,-3.2 1.341,0 1.896,-0.195 2.274,-0.8 0.485,-0.777 0.933,-0.8 15.507,-0.8 14.574,0 15.022,0.023 15.507,0.8 0.489,0.783 0.88,0.798 17.996,0.704 L 251.8,180.609 234.312,180.5 c -16.991,-0.105 -17.5,-0.131 -17.914,-0.904 -0.669,-1.249 -30.529,-1.245 -31.198,0.004 m 70.1,0.691 c 0.825,0.087 2.175,0.087 3,0 0.825,-0.086 0.15,-0.157 -1.5,-0.157 -1.65,0 -2.325,0.071 -1.5,0.157 m -60.8,7.174 c -0.275,0.111 -0.5,0.491 -0.5,0.845 0,0.548 0.079,0.536 0.532,-0.085 0.397,-0.543 0.906,-0.685 2,-0.557 0.808,0.094 1.468,0.028 1.468,-0.148 0,-0.345 -2.678,-0.387 -3.5,-0.055 m -79.4,0.967 c -0.422,0.246 -0.678,0.837 -0.646,1.488 0.046,0.899 0.083,0.934 0.224,0.209 0.229,-1.174 0.859,-1.631 2.524,-1.832 l 1.398,-0.169 -1.4,-0.052 c -0.77,-0.028 -1.715,0.132 -2.1,0.356 m 5,0.259 c 0.825,0.087 2.175,0.087 3,0 0.825,-0.086 0.15,-0.157 -1.5,-0.157 -1.65,0 -2.325,0.071 -1.5,0.157 m 67.5,0.303 c 0,0.359 0.18,0.542 0.4,0.406 0.245,-0.151 0.4,0.47 0.4,1.6 0,1.13 -0.155,1.751 -0.4,1.6 -0.22,-0.136 -0.4,0.033 -0.4,0.376 0,0.362 0.344,0.624 0.819,0.624 1.142,0 1.028,-4.907 -0.119,-5.125 -0.435,-0.083 -0.7,0.113 -0.7,0.519 m 9.504,0.853 c -0.67,1.319 -0.666,1.426 0.1,2.856 0.484,0.902 0.796,1.202 0.796,0.765 0,-0.396 -0.186,-1.069 -0.414,-1.494 -0.289,-0.54 -0.281,-1.022 0.025,-1.595 0.242,-0.451 0.383,-1.064 0.314,-1.362 -0.069,-0.297 -0.438,0.076 -0.821,0.83 m -3.39,1.153 c 0.003,1.1 0.081,1.503 0.173,0.895 0.092,-0.609 0.09,-1.509 -0.005,-2 -0.095,-0.492 -0.171,0.005 -0.168,1.105 m -32.114,0.724 c 0,1.687 0.838,2.405 1.923,1.645 1.12,-0.785 1.045,-2.303 -0.123,-2.486 -0.594,-0.094 -0.661,-0.031 -0.261,0.243 0.693,0.475 0.435,1.874 -0.344,1.874 -0.386,0 -0.589,-0.386 -0.579,-1.1 0.008,-0.605 -0.127,-1.1 -0.3,-1.1 -0.174,0 -0.316,0.416 -0.316,0.924 M 114.973,201 c 0,5.5 0.057,7.805 0.126,5.123 0.069,-2.682 0.069,-7.182 0,-10 -0.069,-2.818 -0.125,-0.623 -0.126,4.877 m 79.073,-7.346 c -0.066,0.943 1.827,2.065 2.992,1.772 0.529,-0.133 0.962,-0.401 0.962,-0.596 0,-0.195 -0.357,-0.262 -0.794,-0.148 -1.201,0.315 -2.725,-0.196 -2.93,-0.982 -0.156,-0.596 -0.19,-0.603 -0.23,-0.046 m 33.734,8.7 c -0.216,0.201 -4.094,0.229 -8.98,0.066 l -8.6,-0.288 8.98,-0.066 c 5.222,-0.038 8.821,0.082 8.6,0.288 m -71.075,2.554 c -1.042,1.151 -1.897,2.488 -1.9,2.972 -0.003,0.484 -0.262,1.024 -0.575,1.2 -0.739,0.414 -2.63,3.201 -2.63,3.876 0,0.286 -0.36,0.846 -0.8,1.244 -0.564,0.511 -0.8,1.232 -0.8,2.448 0,1.314 -0.19,1.826 -0.8,2.152 -0.634,0.339 -0.8,0.838 -0.8,2.4 0,1.582 -0.163,2.059 -0.824,2.413 -1.68,0.899 -0.84,2.172 1.521,2.308 1.591,0.091 2.198,0.309 2.514,0.9 0.327,0.61 0.844,0.779 2.389,0.779 1.562,0 2.061,0.166 2.4,0.8 0.339,0.634 0.838,0.8 2.4,0.8 1.562,0 2.061,0.166 2.4,0.8 0.337,0.63 0.838,0.8 2.353,0.8 1.35,0 2.2,0.239 2.847,0.8 0.63,0.546 1.442,0.784 2.561,0.75 l 1.639,-0.05 -1.611,-0.265 c -0.886,-0.146 -2.051,-0.573 -2.589,-0.95 -0.538,-0.377 -1.708,-0.685 -2.6,-0.685 -1.127,0 -1.831,-0.244 -2.307,-0.8 -0.487,-0.569 -1.18,-0.8 -2.4,-0.8 -1.22,0 -1.913,-0.231 -2.4,-0.8 -0.507,-0.592 -1.18,-0.8 -2.593,-0.8 -1.474,0 -2.021,-0.182 -2.407,-0.8 -0.378,-0.605 -0.933,-0.8 -2.273,-0.8 -2.134,0 -2.593,-0.551 -1.462,-1.755 0.564,-0.6 0.842,-1.421 0.842,-2.482 0,-1.09 0.25,-1.799 0.8,-2.27 0.549,-0.471 0.8,-1.18 0.8,-2.265 0,-0.87 0.198,-1.703 0.441,-1.853 0.242,-0.15 0.705,-0.836 1.027,-1.524 1.217,-2.594 1.884,-3.667 2.597,-4.174 0.404,-0.287 0.735,-0.789 0.735,-1.116 0,-0.65 1.289,-2.562 2.697,-4.002 0.655,-0.669 1.465,-0.957 3,-1.064 l 2.103,-0.147 -2.2,-0.066 c -2.173,-0.064 -2.223,-0.04 -4.095,2.026 m 11.365,2.066 c -0.05,1.119 0.174,1.834 0.772,2.471 0.947,1.008 0.724,1.755 -0.523,1.755 -1.372,0 -3.51,2.382 -3.515,3.916 -0.004,1.259 -1.247,3.528 -2.304,4.204 -0.275,0.176 -0.5,0.521 -0.5,0.768 0,0.246 0.717,-0.348 1.594,-1.32 1.269,-1.407 1.596,-2.08 1.6,-3.299 0.007,-1.849 1.654,-3.732 3.443,-3.936 1.45,-0.166 1.842,-1.648 0.61,-2.308 -0.56,-0.299 -0.847,-0.94 -0.954,-2.127 l -0.153,-1.698 -0.07,1.574 m 32.23,-0.142 c -1.197,0.697 -1.027,8.172 0.2,8.803 0.743,0.382 0.813,0.37 0.4,-0.066 -0.672,-0.711 -0.689,-8.02 -0.02,-8.689 0.58,-0.58 0.364,-0.598 -0.58,-0.048 m 2.634,4.368 c 0,1.65 0.071,2.325 0.157,1.5 0.087,-0.825 0.087,-2.175 0,-3 -0.086,-0.825 -0.157,-0.15 -0.157,1.5 m -21.638,9.6 c -0.278,2.09 -0.558,5.19 -0.624,6.89 -0.133,3.472 -0.348,3.928 -1.401,2.974 -0.428,-0.387 -1.405,-0.664 -2.341,-0.664 -1.033,0 -1.937,-0.286 -2.53,-0.8 -0.638,-0.553 -1.428,-0.78 -2.561,-0.736 -1.62,0.063 -1.623,0.066 -0.239,0.231 0.77,0.092 1.713,0.45 2.096,0.795 0.383,0.344 1.594,0.713 2.693,0.819 1.098,0.105 2.202,0.439 2.453,0.741 1.043,1.257 3.536,-0.81 2.764,-2.292 -0.159,-0.307 -0.13,-2.268 0.065,-4.358 0.541,-5.796 0.266,-8.435 -0.375,-3.6 m 27.504,-1.2 c -0.972,0.88 -1.557,1.6 -1.298,1.6 0.258,0 0.663,-0.36 0.898,-0.8 0.235,-0.44 0.683,-0.8 0.994,-0.8 0.312,0 0.71,-0.244 0.886,-0.541 0.176,-0.298 0.59,-0.644 0.92,-0.769 0.523,-0.198 0.521,-0.231 -0.016,-0.258 -0.339,-0.018 -1.412,0.688 -2.384,1.568 m -47.154,2.113 c -0.025,0.391 -0.316,0.816 -0.646,0.942 -0.33,0.127 -0.586,0.616 -0.568,1.088 0.022,0.598 0.102,0.675 0.264,0.257 0.129,-0.33 0.494,-0.792 0.812,-1.026 0.319,-0.235 0.49,-0.775 0.382,-1.2 -0.172,-0.676 -0.203,-0.683 -0.244,-0.061 m 43.946,0.097 c -0.773,0.931 -0.221,1.107 0.606,0.192 0.399,-0.441 0.54,-0.802 0.313,-0.802 -0.227,0 -0.641,0.274 -0.919,0.61 m -0.795,12.79 -0.197,11.6 -3.161,0.118 c -1.738,0.065 -3.675,-0.061 -4.304,-0.281 -0.629,-0.219 -2.266,-0.504 -3.639,-0.633 l -2.496,-0.235 1.6,0.638 c 2.27,0.906 12.093,1.337 12.397,0.544 0.119,-0.309 0.166,-5.689 0.106,-11.956 l -0.11,-11.395 -0.196,11.6 m -44.145,-9.316 c 0.107,0.174 0.607,0.316 1.11,0.316 0.503,0 1.24,0.36 1.638,0.8 0.526,0.582 1.232,0.8 2.586,0.8 1.023,0 2.21,0.264 2.638,0.587 1.133,0.858 1.616,0.741 0.776,-0.187 -0.566,-0.625 -1.232,-0.8 -3.048,-0.8 -1.868,0 -2.403,-0.148 -2.728,-0.755 -0.241,-0.451 -0.961,-0.82 -1.786,-0.916 -0.76,-0.089 -1.294,-0.019 -1.186,0.155 m 10.548,7.406 c 0.33,0.125 0.744,0.471 0.92,0.769 0.213,0.361 1.011,0.517 2.4,0.469 l 2.08,-0.072 -1.868,-0.149 c -1.028,-0.081 -2.085,-0.409 -2.349,-0.728 -0.265,-0.318 -0.774,-0.565 -1.132,-0.547 -0.546,0.026 -0.554,0.068 -0.051,0.258 m 5.992,2.01 c 0.304,0.627 0.789,0.9 1.598,0.9 1.632,0 1.791,0.459 1.801,5.2 l 0.009,4.2 4.6,0.019 4.6,0.019 -4.5,-0.132 c -4.836,-0.141 -5.39,-0.46 -3.82,-2.195 0.641,-0.708 0.637,-0.832 -0.078,-2.16 -0.616,-1.143 -0.669,-1.552 -0.28,-2.174 0.91,-1.458 -0.269,-3.177 -2.178,-3.177 -0.581,0 -1.311,-0.315 -1.622,-0.7 -0.511,-0.632 -0.524,-0.612 -0.13,0.2"
       inkscape:connector-curvature="0"
       style="fill:#acacac;fill-rule:evenodd;stroke:none" />
  </g>
</svg>
