<?xml version="1.0" encoding="UTF-8" standalone="no"?>
<svg
   xmlns:dc="http://purl.org/dc/elements/1.1/"
   xmlns:cc="http://creativecommons.org/ns#"
   xmlns:rdf="http://www.w3.org/1999/02/22-rdf-syntax-ns#"
   xmlns:svg="http://www.w3.org/2000/svg"
   xmlns="http://www.w3.org/2000/svg"
   xmlns:sodipodi="http://sodipodi.sourceforge.net/DTD/sodipodi-0.dtd"
   xmlns:inkscape="http://www.inkscape.org/namespaces/inkscape"
   id="svg"
   version="1.1"
   width="400"
   height="400"
   viewBox="0, 0, 400,400"
   sodipodi:docname="GrenadeLauncher.svg"
   inkscape:version="0.92.4 (5da689c313, 2019-01-14)">
  <metadata
     id="metadata95">
    <rdf:RDF>
      <cc:Work
         rdf:about="">
        <dc:format>image/svg+xml</dc:format>
        <dc:type
           rdf:resource="http://purl.org/dc/dcmitype/StillImage" />
      </cc:Work>
    </rdf:RDF>
  </metadata>
  <defs
     id="defs93" />
  <sodipodi:namedview
     pagecolor="#ffffff"
     bordercolor="#666666"
     borderopacity="1"
     objecttolerance="10"
     gridtolerance="10"
     guidetolerance="10"
     inkscape:pageopacity="0"
     inkscape:pageshadow="2"
     inkscape:window-width="640"
     inkscape:window-height="480"
     id="namedview91"
     showgrid="false"
     inkscape:zoom="0.59"
     inkscape:cx="298.9101"
     inkscape:cy="200"
     inkscape:window-x="0"
     inkscape:window-y="0"
     inkscape:window-maximized="0"
     inkscape:current-layer="svg" />
  <g
     id="svgg">
    <path
       id="path0"
       d="M181.407 192.900 C 181.315 193.175,181.185 193.850,181.120 194.400 C 181.021 195.228,180.757 195.420,179.587 195.519 C 178.582 195.604,178.061 195.893,177.787 196.519 C 177.181 197.898,174.921 197.969,174.410 196.625 C 173.949 195.413,173.718 195.369,172.690 196.300 C 171.994 196.930,170.515 197.020,157.859 197.200 C 145.314 197.378,143.694 197.475,142.811 198.100 C 142.054 198.636,141.015 198.800,138.381 198.800 C 133.658 198.800,131.861 200.730,133.900 203.611 C 134.516 204.482,134.624 206.009,134.800 216.395 C 135.021 229.403,135.048 229.521,137.454 227.629 C 138.886 226.502,142.076 226.487,143.491 227.600 C 144.191 228.151,145.114 228.400,146.451 228.400 C 147.960 228.400,148.505 228.578,148.893 229.200 C 149.291 229.838,149.826 230.000,151.533 230.000 C 153.068 230.000,153.962 230.226,154.691 230.800 C 155.419 231.373,156.314 231.600,157.840 231.600 C 159.562 231.600,160.054 231.754,160.400 232.400 C 160.737 233.030,161.238 233.200,162.752 233.200 C 164.168 233.200,164.867 233.411,165.400 234.000 C 165.966 234.626,166.632 234.800,168.459 234.800 C 170.360 234.800,170.886 234.948,171.293 235.600 C 171.714 236.274,172.226 236.400,174.542 236.400 C 176.054 236.400,178.822 236.770,180.694 237.223 C 183.521 237.906,184.919 238.010,188.949 237.836 C 191.617 237.721,194.340 237.634,195.000 237.642 C 212.403 237.859,241.543 237.953,241.961 237.793 C 242.411 237.621,242.379 237.473,241.802 237.051 C 241.275 236.666,241.154 236.240,241.349 235.462 C 241.672 234.172,242.539 234.092,243.368 235.276 C 243.706 235.758,244.044 236.073,244.121 235.976 C 245.013 234.853,246.000 232.690,246.000 231.856 C 246.000 231.240,246.330 230.601,246.800 230.307 C 247.331 229.975,247.600 229.374,247.600 228.518 C 247.600 227.638,247.854 227.092,248.400 226.800 C 248.921 226.521,249.200 225.962,249.200 225.200 C 249.200 224.438,249.479 223.879,250.000 223.600 C 250.517 223.323,250.800 222.762,250.800 222.014 C 250.800 221.378,251.046 220.611,251.347 220.310 C 251.648 220.009,252.033 219.321,252.202 218.781 C 252.906 216.534,256.173 214.000,258.367 214.000 C 260.488 214.000,261.600 212.923,261.600 210.869 C 261.600 209.373,262.422 209.220,271.031 209.108 L 279.400 209.000 279.501 204.833 C 279.575 201.763,279.458 200.499,279.055 200.033 C 278.754 199.685,278.395 198.927,278.258 198.349 C 277.810 196.457,276.199 195.771,274.031 196.548 C 272.399 197.132,269.144 197.204,244.141 197.202 L 216.083 197.200 214.854 195.800 C 213.347 194.084,213.281 194.081,213.125 195.700 L 213.000 197.000 208.212 197.113 C 203.686 197.221,203.388 197.179,202.763 196.351 C 202.140 195.525,201.826 195.480,197.210 195.560 L 192.318 195.644 190.820 194.022 L 189.323 192.400 185.449 192.400 C 182.706 192.400,181.526 192.546,181.407 192.900 M183.600 200.000 C 183.600 200.660,183.516 201.200,183.414 201.200 C 183.030 201.200,182.373 199.568,182.605 199.192 C 183.088 198.411,183.600 198.827,183.600 200.000 M190.577 200.917 C 189.743 201.384,189.084 200.767,189.436 199.850 C 189.683 199.205,189.744 199.206,190.465 199.858 C 191.159 200.487,191.170 200.585,190.577 200.917 M220.944 200.483 C 221.235 200.944,221.144 201.426,220.615 202.233 L 219.885 203.347 218.943 202.251 C 217.775 200.893,217.769 200.633,218.900 200.090 C 219.989 199.566,220.417 199.649,220.944 200.483 M277.580 199.989 C 278.512 200.488,278.980 202.301,278.368 203.038 C 277.649 203.905,273.498 203.792,272.676 202.884 C 270.928 200.953,274.948 198.581,277.580 199.989 M199.802 200.404 C 200.555 201.622,198.407 203.597,197.300 202.705 C 196.769 202.277,196.620 200.714,197.067 200.267 C 197.482 199.851,199.524 199.953,199.802 200.404 M183.200 203.246 C 183.530 203.208,184.610 203.137,185.600 203.088 L 187.400 203.000 187.400 205.600 C 187.400 208.596,186.804 209.009,184.238 207.791 C 183.473 207.428,182.507 207.239,182.091 207.371 C 181.612 207.523,181.071 207.321,180.617 206.819 C 180.111 206.260,179.706 206.129,179.245 206.376 C 178.517 206.766,176.505 206.494,176.176 205.961 C 175.580 204.996,176.883 203.906,178.389 204.108 C 179.562 204.265,180.050 204.134,180.574 203.522 C 181.018 203.003,181.481 202.833,181.925 203.024 C 182.296 203.185,182.870 203.284,183.200 203.246 M197.600 206.600 C 198.270 207.407,197.463 208.400,196.138 208.400 C 195.609 208.400,195.071 208.130,194.945 207.800 C 194.568 206.817,195.110 206.000,196.138 206.000 C 196.668 206.000,197.326 206.270,197.600 206.600 M219.457 206.605 C 219.718 207.284,218.953 208.400,218.227 208.400 C 217.105 208.400,216.204 207.318,216.764 206.643 C 217.439 205.830,219.151 205.806,219.457 206.605 M175.771 213.029 C 176.117 213.374,176.400 214.100,176.400 214.641 C 176.400 215.182,176.670 215.729,177.000 215.855 C 177.330 215.982,177.600 216.407,177.600 216.800 C 177.600 217.193,177.330 217.618,177.000 217.745 C 176.622 217.890,176.400 218.502,176.400 219.400 C 176.400 220.395,176.189 220.901,175.700 221.077 C 175.315 221.215,174.678 221.659,174.284 222.064 C 173.328 223.047,169.158 223.114,168.365 222.158 C 168.073 221.805,167.420 221.360,166.916 221.168 C 165.432 220.604,165.545 215.118,167.075 213.522 C 168.386 212.153,174.547 211.804,175.771 213.029 M245.664 213.672 C 247.017 215.187,247.021 215.222,246.000 216.400 C 245.560 216.907,245.200 217.739,245.200 218.247 C 245.200 218.762,244.846 219.361,244.400 219.600 C 243.891 219.872,243.600 220.438,243.600 221.152 C 243.600 221.770,243.240 222.602,242.800 223.000 C 242.360 223.398,242.000 224.140,242.000 224.648 C 242.000 225.162,241.646 225.762,241.200 226.000 C 240.681 226.278,240.400 226.838,240.400 227.594 C 240.400 228.245,240.118 228.918,239.762 229.117 C 239.412 229.313,239.000 230.087,238.848 230.837 C 238.437 232.854,234.651 233.113,232.790 231.251 L 231.600 230.062 231.600 222.885 C 231.600 216.545,231.685 215.597,232.332 214.754 C 232.734 214.229,233.179 213.485,233.319 213.100 C 233.546 212.480,234.200 212.400,239.052 212.400 L 244.529 212.400 245.664 213.672 M194.013 224.200 C 194.130 229.700,194.078 234.515,193.899 234.900 C 193.293 236.197,183.244 235.922,181.631 234.564 C 180.055 233.238,179.770 229.165,181.200 228.400 C 181.646 228.162,182.000 227.562,182.000 227.048 C 182.000 226.540,182.350 225.807,182.778 225.420 C 183.206 225.033,183.611 224.151,183.678 223.460 C 183.779 222.414,184.001 222.169,185.000 221.996 C 186.013 221.821,186.200 221.606,186.200 220.616 C 186.200 219.694,186.415 219.392,187.200 219.205 C 188.054 219.003,188.219 218.708,188.328 217.185 C 188.511 214.636,189.289 213.936,191.778 214.082 L 193.800 214.200 194.013 224.200 M141.173 222.450 C 140.952 222.863,140.520 223.200,140.213 223.200 C 139.433 223.200,139.032 221.684,139.624 220.971 C 140.373 220.069,141.746 221.380,141.173 222.450 M202.056 229.766 C 202.520 231.511,202.609 231.526,212.726 231.578 C 217.892 231.605,222.272 231.721,222.460 231.837 C 222.971 232.153,222.869 234.571,222.320 235.120 C 221.589 235.851,203.725 235.787,201.708 235.046 C 200.879 234.742,199.435 234.285,198.500 234.030 C 196.742 233.552,196.130 232.343,197.400 231.855 C 197.769 231.714,198.000 231.107,198.000 230.279 C 198.000 227.895,201.444 227.459,202.056 229.766 "
       stroke="none"
       fill="#060606"
       fill-rule="evenodd" />
    <path
       id="path1"
       d="m -935.59322,264.40678 v 200 h 200 200 v -200 -200 h -200 -200 v 200 m 190.8,-7.787 c 0,0.336 0.315,0.73 0.7,0.875 0.385,0.144 0.907,0.539 1.161,0.877 0.809,1.081 6.346,1.143 6.917,0.077 0.57,-1.065 1.862,-1.087 2.422,-0.042 0.235,0.44 0.671,0.8 0.967,0.8 0.297,0 0.636,0.366 0.753,0.814 0.199,0.763 0.475,0.807 4.346,0.7 l 4.134,-0.114 0.124,-1.5 c 0.12,-1.449 2.476,-2.466 2.476,-1.069 0,0.237 0.52,0.951 1.156,1.586 l 1.156,1.156 26.977,0.018 c 26.47,0.018 26.995,0.003 27.906,-0.786 1.731,-1.502 5.479,-1.149 7.095,0.668 l 1.31,1.472 v 6.12 6.119 l -8.7,0.108 -8.7,0.108 -0.128,1.792 c -0.178,2.513 -0.552,2.808 -3.558,2.808 -2.252,0 -2.616,0.104 -2.798,0.8 -0.115,0.44 -0.382,0.8 -0.593,0.8 -0.803,0 -2.723,2.366 -2.723,3.355 0,0.607 -0.322,1.189 -0.8,1.445 -0.555,0.297 -0.8,0.838 -0.8,1.767 0,1.003 -0.201,1.392 -0.8,1.549 -0.606,0.159 -0.8,0.546 -0.8,1.6 0,1.054 -0.194,1.441 -0.8,1.6 -0.598,0.156 -0.801,0.547 -0.803,1.547 -10e-4,0.735 -0.36,1.877 -0.797,2.537 -0.437,0.66 -0.796,1.689 -0.797,2.286 -0.002,0.675 -0.306,1.248 -0.803,1.514 -0.44,0.235 -0.8,0.692 -0.8,1.014 0,0.322 -0.248,0.586 -0.551,0.586 -0.303,0 -0.798,0.367 -1.1,0.816 -0.851,1.264 -64.821,1.244 -67.249,-0.021 -0.882,-0.46 -2.307,-0.795 -3.381,-0.795 -1.181,0 -2.128,-0.246 -2.602,-0.676 -0.462,-0.418 -1.661,-0.741 -3.144,-0.849 -1.821,-0.131 -2.494,-0.353 -2.799,-0.924 -0.313,-0.584 -0.856,-0.751 -2.444,-0.751 -1.458,0 -2.184,-0.194 -2.538,-0.678 -0.353,-0.483 -1.26,-0.727 -3.155,-0.847 -2.085,-0.133 -2.747,-0.332 -3.062,-0.922 -0.314,-0.587 -0.856,-0.753 -2.458,-0.753 -1.367,0 -2.304,-0.226 -2.8,-0.676 -0.462,-0.418 -1.661,-0.741 -3.144,-0.849 -1.821,-0.131 -2.494,-0.353 -2.799,-0.924 -0.524,-0.978 -1.664,-0.957 -2.574,0.049 -0.565,0.624 -1.232,0.8 -3.039,0.8 h -2.316 l -0.122,-11.559 c -0.11,-10.341 -0.197,-11.64 -0.823,-12.331 -0.841,-0.929 -1.006,-6.044 -0.22,-6.83 0.295,-0.295 1.739,-0.48 3.746,-0.48 2.66,0 3.455,-0.148 4.283,-0.8 0.967,-0.76 1.63,-0.8 13.354,-0.809 11.426,-0.008 12.466,-0.067 14.081,-0.8 1.163,-0.527 2.607,-0.791 4.337,-0.791 2.257,0 2.621,-0.104 2.803,-0.8 0.255,-0.973 2.165,-1.104 2.916,-0.2 0.96,1.157 2,0.741 2,-0.8 v -1.4 h 5.2 c 4.403,0 5.2,0.094 5.2,0.613 m 83.345,8.787 c -0.343,0.893 0.134,1.801 0.942,1.794 1.21,-0.011 1.642,-0.516 1.276,-1.494 -0.385,-1.028 -1.862,-1.227 -2.218,-0.3 m -88.2,4.7 c 0.13,1.332 0.234,1.527 0.482,0.9 0.495,-1.252 0.424,-2.6 -0.138,-2.6 -0.36,0 -0.461,0.501 -0.344,1.7 m -4.539,-0.51 c -0.323,0.523 0.598,0.966 1.056,0.508 0.256,-0.256 0.179,-0.474 -0.222,-0.627 -0.338,-0.13 -0.713,-0.076 -0.834,0.119 m -13.506,9.204 c -1.654,1.737 -1.454,5.401 0.318,5.846 0.508,0.128 1.234,0.576 1.615,0.996 0.842,0.931 1.894,0.979 2.747,0.127 0.35,-0.35 1.128,-0.767 1.728,-0.927 1.653,-0.44 1.85,-4.641 0.292,-6.2 -1.566,-1.566 -5.139,-1.482 -6.7,0.158 m 66.367,-0.927 c -0.147,0.146 -0.267,0.658 -0.267,1.138 0,0.479 -0.36,1.197 -0.8,1.595 -1.203,1.088 -1.236,13.361 -0.037,13.674 0.42,0.11 0.856,0.554 0.969,0.987 0.398,1.521 3.636,0.872 3.793,-0.76 0.076,-0.784 0.433,-1.464 0.9,-1.715 0.53,-0.283 0.775,-0.838 0.775,-1.753 0,-1.003 0.201,-1.392 0.8,-1.549 0.58,-0.152 0.8,-0.546 0.8,-1.432 0,-0.814 0.268,-1.367 0.8,-1.652 0.555,-0.297 0.8,-0.838 0.8,-1.767 0,-0.976 0.205,-1.393 0.753,-1.537 0.86,-0.225 1.348,-3.057 0.792,-4.596 -0.325,-0.899 -9.252,-1.46 -10.078,-0.633 m -43.977,2.439 c -0.796,0.831 -1.09,1.548 -1.09,2.658 0,1.942 -1.593,3.954 -3.352,4.236 -1.114,0.179 -1.261,0.363 -1.373,1.722 -0.07,0.844 -0.377,1.619 -0.69,1.739 -0.31,0.119 -0.675,0.812 -0.812,1.541 -0.156,0.834 -0.531,1.398 -1.011,1.524 -1.056,0.276 -1.108,3.39 -0.062,3.72 0.385,0.122 1.34,0.488 2.122,0.813 0.85,0.354 2.938,0.622 5.2,0.666 l 3.778,0.075 v -9.8 c 0,-10.962 -0.176,-11.539 -2.71,-8.894 m 8.68,13.828 c -0.124,0.324 -0.169,1.192 -0.098,1.928 l 0.128,1.338 4.8,0.451 c 2.64,0.249 5.61,0.649 6.6,0.891 4.478,1.091 11.2,0.416 11.2,-1.125 0,-0.78 -0.289,-0.806 -10.1,-0.91 l -10.1,-0.107 -0.2,-1.4 c -0.216,-1.512 -1.773,-2.256 -2.23,-1.066"
       inkscape:connector-curvature="0"
       style="fill:#fcfcfc;fill-rule:evenodd;stroke:none" />
    <path
       id="path2"
       d="M180.880 192.080 C 180.616 192.344,180.400 193.051,180.400 193.652 C 180.400 194.461,180.166 194.795,179.500 194.938 C 178.707 195.108,178.719 195.123,179.600 195.066 C 180.421 195.012,180.636 194.749,180.800 193.600 L 181.000 192.200 185.348 192.086 L 189.697 191.972 191.187 193.586 L 192.677 195.200 195.965 195.200 C 197.773 195.200,199.599 195.015,200.023 194.788 C 200.921 194.307,202.949 195.168,203.344 196.198 C 203.547 196.727,204.296 196.808,208.093 196.713 L 212.600 196.600 212.731 195.400 C 212.950 193.387,213.486 193.322,215.027 195.124 L 216.462 196.800 243.987 196.800 C 270.556 196.800,271.573 196.773,273.256 196.009 C 274.296 195.537,274.677 195.219,274.200 195.222 C 273.760 195.224,273.051 195.490,272.624 195.813 C 271.958 196.316,267.894 196.400,244.233 196.400 L 216.619 196.400 215.137 194.729 C 213.465 192.845,212.400 193.047,212.400 195.249 L 212.400 196.400 208.000 196.400 C 205.580 196.400,203.600 196.241,203.600 196.047 C 203.600 195.024,200.756 193.516,200.044 194.161 C 199.517 194.637,198.501 194.800,196.056 194.800 L 192.775 194.800 191.304 193.200 L 189.833 191.600 185.596 191.600 C 182.835 191.600,181.193 191.767,180.880 192.080 M176.080 193.680 C 175.816 193.944,175.600 194.503,175.600 194.923 C 175.600 195.442,175.408 195.608,175.000 195.443 C 173.224 194.724,173.137 194.778,174.518 195.741 C 176.824 197.350,178.170 196.935,176.529 195.122 C 175.523 194.010,176.472 193.179,177.591 194.191 C 178.540 195.051,178.691 194.748,177.771 193.829 C 177.017 193.074,176.713 193.047,176.080 193.680 M276.800 195.658 C 279.319 197.364,280.037 199.476,279.910 204.800 L 279.800 209.400 271.431 209.508 C 262.336 209.626,262.000 209.708,262.000 211.820 C 262.000 212.548,261.717 213.426,261.371 213.771 C 261.026 214.117,260.914 214.400,261.122 214.400 C 261.823 214.400,262.339 213.402,262.470 211.795 L 262.600 210.200 270.969 210.092 C 281.059 209.961,280.401 210.327,280.398 204.851 C 280.395 198.746,279.181 195.751,276.400 194.985 C 275.575 194.758,275.645 194.876,276.800 195.658 M170.696 195.584 C 169.868 195.744,169.058 196.014,168.896 196.183 C 168.482 196.615,172.114 195.999,172.580 195.559 C 173.008 195.154,172.903 195.156,170.696 195.584 M150.900 196.699 C 154.145 196.766,159.455 196.766,162.700 196.699 C 165.945 196.632,163.290 196.577,156.800 196.577 C 150.310 196.577,147.655 196.632,150.900 196.699 M141.776 197.387 C 141.349 197.710,141.189 197.980,141.420 197.987 C 141.651 197.994,142.011 197.835,142.220 197.634 C 142.429 197.432,143.050 197.187,143.600 197.088 L 144.600 196.909 143.576 196.854 C 143.014 196.825,142.204 197.064,141.776 197.387 M136.311 198.293 C 137.251 198.378,138.691 198.377,139.511 198.291 C 140.330 198.205,139.560 198.136,137.800 198.137 C 136.040 198.139,135.370 198.209,136.311 198.293 M273.680 200.480 C 272.323 201.837,273.358 203.205,275.733 203.194 C 277.660 203.185,278.193 202.711,277.581 201.551 C 276.743 199.959,274.748 199.412,273.680 200.480 M132.571 202.116 C 132.645 203.170,132.997 204.354,133.353 204.748 C 133.917 205.372,134.000 206.922,134.000 216.883 C 134.000 229.638,133.971 229.504,136.653 229.069 C 137.448 228.940,138.406 228.557,138.781 228.217 C 139.682 227.402,141.551 227.432,142.483 228.276 C 142.943 228.691,144.140 229.017,145.595 229.122 C 147.245 229.242,148.167 229.521,148.642 230.047 C 149.118 230.573,149.869 230.800,151.130 230.800 C 152.265 230.800,153.215 231.051,153.683 231.476 C 154.184 231.928,155.249 232.182,156.915 232.244 L 159.400 232.337 157.200 232.068 C 155.990 231.919,154.555 231.484,154.011 231.099 C 153.414 230.677,152.289 230.400,151.173 230.400 C 149.832 230.400,149.125 230.180,148.600 229.600 C 148.077 229.022,147.366 228.799,146.038 228.797 C 144.877 228.796,143.758 228.502,143.000 228.000 C 141.461 226.981,140.003 226.989,138.242 228.028 C 137.460 228.490,136.342 228.800,135.719 228.728 L 134.600 228.600 134.494 217.077 C 134.402 207.063,134.299 205.418,133.714 204.525 C 133.343 203.959,132.904 202.755,132.739 201.848 L 132.437 200.200 132.571 202.116 M219.417 200.772 C 219.144 201.214,219.775 201.692,220.144 201.322 C 220.525 200.942,220.454 200.400,220.024 200.400 C 219.817 200.400,219.544 200.568,219.417 200.772 M276.961 201.265 C 277.780 202.435,277.448 202.800,275.564 202.800 C 273.921 202.800,273.292 202.178,273.745 201.000 C 274.102 200.069,276.247 200.246,276.961 201.265 M184.333 203.967 C 183.430 204.677,183.224 204.704,182.556 204.198 C 181.514 203.409,181.227 203.459,180.840 204.500 C 180.434 205.592,180.647 206.256,181.509 206.586 C 182.091 206.810,182.095 206.763,181.548 206.117 C 180.974 205.439,180.963 203.801,181.534 204.091 C 181.680 204.165,182.295 204.474,182.900 204.777 C 184.235 205.446,184.301 205.886,183.100 206.118 C 182.328 206.266,182.357 206.299,183.300 206.346 C 183.905 206.375,184.771 206.771,185.225 207.225 C 186.486 208.486,187.000 208.006,187.000 205.567 C 187.000 203.054,186.145 202.541,184.333 203.967 M186.800 205.633 C 186.800 208.096,186.103 208.128,185.386 205.698 C 184.854 203.896,184.950 203.600,186.067 203.600 C 186.682 203.600,186.800 203.928,186.800 205.633 M195.400 206.800 C 194.835 207.715,195.790 208.257,196.800 207.594 C 197.333 207.244,197.333 207.156,196.800 206.806 C 196.034 206.303,195.708 206.302,195.400 206.800 M217.784 206.827 C 217.639 207.061,217.628 207.361,217.760 207.493 C 217.892 207.625,218.003 207.478,218.006 207.167 C 218.011 206.700,218.081 206.706,218.400 207.200 C 218.731 207.713,218.789 207.698,218.794 207.100 C 218.801 206.325,218.195 206.161,217.784 206.827 M167.454 213.943 C 166.452 214.989,166.371 215.304,166.502 217.643 L 166.646 220.200 166.723 217.570 C 166.830 213.920,167.609 213.198,171.426 213.206 C 172.952 213.209,174.405 213.344,174.655 213.506 C 175.521 214.065,176.419 216.817,175.995 217.610 C 175.778 218.016,175.599 218.764,175.597 219.274 C 175.590 221.391,170.878 222.749,168.909 221.200 C 168.350 220.760,167.695 220.400,167.453 220.400 C 167.212 220.400,167.677 220.850,168.486 221.400 C 171.046 223.140,176.000 221.779,176.000 219.336 C 176.000 218.792,176.179 218.012,176.398 217.603 C 176.893 216.680,175.618 213.446,174.606 213.058 C 172.595 212.286,168.564 212.785,167.454 213.943 M233.867 213.067 C 233.720 213.213,233.603 213.528,233.606 213.767 C 233.610 214.008,233.759 213.968,233.944 213.677 C 234.196 213.279,235.526 213.183,239.501 213.277 C 242.374 213.345,244.642 213.265,244.539 213.100 C 244.309 212.729,234.236 212.698,233.867 213.067 M245.157 214.483 C 245.580 215.046,245.559 215.324,245.035 216.072 C 244.686 216.570,244.400 217.345,244.400 217.793 C 244.400 218.241,244.040 218.832,243.600 219.107 C 243.113 219.411,242.800 220.040,242.800 220.714 C 242.800 221.327,242.443 222.128,242.000 222.507 C 241.560 222.884,241.200 223.601,241.200 224.100 C 241.200 224.599,240.840 225.232,240.400 225.507 C 239.913 225.811,239.600 226.440,239.600 227.114 C 239.600 227.727,239.243 228.528,238.800 228.907 C 238.360 229.284,238.000 230.044,238.000 230.596 C 238.000 232.075,234.908 232.072,233.428 230.591 C 232.441 229.605,232.417 229.436,232.299 222.891 L 232.179 216.200 232.090 222.931 L 232.000 229.662 233.191 230.853 C 234.852 232.514,238.126 232.442,238.323 230.742 C 238.390 230.159,238.795 229.367,239.223 228.980 C 239.650 228.593,240.000 227.770,240.000 227.152 C 240.000 226.438,240.291 225.872,240.800 225.600 C 241.246 225.362,241.600 224.762,241.600 224.248 C 241.600 223.740,241.960 222.998,242.400 222.600 C 242.840 222.202,243.200 221.370,243.200 220.752 C 243.200 220.038,243.491 219.472,244.000 219.200 C 244.440 218.965,244.800 218.368,244.800 217.875 C 244.800 217.382,245.092 216.561,245.449 216.052 C 246.052 215.190,246.047 215.080,245.371 214.463 C 244.692 213.844,244.677 213.845,245.157 214.483 M189.659 215.337 C 188.976 216.064,188.785 216.655,188.907 217.656 L 189.072 219.000 189.136 217.562 C 189.214 215.806,190.229 214.800,191.924 214.800 L 193.185 214.800 193.304 223.900 L 193.424 233.000 193.412 223.800 L 193.400 214.600 191.988 214.481 C 190.911 214.390,190.357 214.594,189.659 215.337 M254.651 216.378 C 253.520 217.495,252.793 218.534,252.919 218.852 C 253.101 219.309,253.142 219.307,253.168 218.840 C 253.245 217.484,256.774 214.847,258.720 214.693 L 260.600 214.544 258.600 214.499 C 256.723 214.456,256.480 214.571,254.651 216.378 M188.000 219.926 C 187.670 220.280,187.215 220.936,186.989 221.383 C 186.763 221.830,186.043 222.288,185.389 222.400 C 184.422 222.566,184.175 222.828,184.065 223.802 C 183.990 224.461,183.720 225.270,183.465 225.600 C 183.060 226.122,183.091 226.129,183.700 225.651 C 184.085 225.349,184.400 224.584,184.400 223.951 C 184.400 223.026,184.577 222.799,185.300 222.794 C 186.421 222.786,186.764 222.536,187.935 220.869 C 188.941 219.436,188.980 218.872,188.000 219.926 M251.900 220.614 C 251.515 221.129,251.200 222.005,251.200 222.561 C 251.200 223.162,250.876 223.745,250.400 224.000 C 249.879 224.279,249.600 224.838,249.600 225.600 C 249.600 226.362,249.321 226.921,248.800 227.200 C 248.320 227.457,248.000 228.038,248.000 228.651 C 248.000 229.214,247.640 230.131,247.200 230.691 C 246.760 231.250,246.418 232.179,246.441 232.754 C 246.479 233.718,246.506 233.700,246.785 232.528 C 246.951 231.828,247.383 230.960,247.744 230.599 C 248.105 230.238,248.400 229.459,248.400 228.868 C 248.400 228.226,248.722 227.591,249.200 227.293 C 249.685 226.990,250.000 226.360,250.000 225.693 C 250.000 225.026,250.315 224.396,250.800 224.093 C 251.275 223.796,251.600 223.160,251.600 222.528 C 251.600 221.942,251.899 221.133,252.264 220.729 C 252.630 220.325,252.855 219.924,252.764 219.837 C 252.674 219.750,252.285 220.100,251.900 220.614 M182.454 227.286 C 182.423 227.923,182.069 228.549,181.600 228.800 C 179.533 229.906,181.241 234.862,183.662 234.782 C 183.958 234.773,183.525 234.408,182.700 233.973 C 180.853 232.998,180.481 230.111,182.039 228.849 C 182.612 228.385,182.819 227.858,182.693 227.185 C 182.513 226.223,182.508 226.226,182.454 227.286 M198.686 229.048 C 198.529 229.205,198.400 229.765,198.400 230.293 C 198.400 230.821,198.201 231.624,197.959 232.077 C 197.514 232.907,197.992 233.597,199.000 233.582 C 199.220 233.578,199.084 233.392,198.697 233.166 C 198.155 232.851,198.087 232.585,198.397 232.005 C 198.619 231.591,198.800 230.791,198.800 230.226 C 198.800 228.877,201.028 228.683,201.325 230.006 C 201.476 230.677,201.497 230.660,201.453 229.906 C 201.399 228.991,199.372 228.362,198.686 229.048 M212.426 232.296 L 222.052 232.414 221.926 233.507 L 221.800 234.600 215.200 234.815 L 208.600 235.030 215.051 235.115 C 222.008 235.207,222.603 235.044,222.331 233.122 L 222.200 232.200 212.500 232.189 L 202.800 232.178 212.426 232.296 M159.968 233.300 C 160.339 233.791,161.055 234.000,162.360 234.000 C 163.727 234.000,164.404 234.213,164.907 234.800 C 165.447 235.431,166.087 235.600,167.934 235.600 C 169.768 235.600,170.433 235.774,171.000 236.400 C 171.553 237.011,172.232 237.200,173.875 237.200 C 175.058 237.200,176.672 237.470,177.462 237.800 C 178.251 238.130,179.551 238.375,180.349 238.346 C 181.426 238.305,181.542 238.246,180.800 238.118 C 180.250 238.022,178.912 237.687,177.827 237.372 C 176.742 237.057,174.925 236.800,173.789 236.800 C 172.232 236.800,171.546 236.603,171.000 236.000 C 170.438 235.379,169.768 235.200,168.000 235.200 C 166.232 235.200,165.562 235.021,165.000 234.400 C 164.474 233.819,163.768 233.600,162.418 233.600 C 161.396 233.600,160.308 233.375,159.999 233.100 C 159.522 232.675,159.518 232.704,159.968 233.300 M193.200 234.120 C 193.200 234.679,192.545 234.792,188.700 234.901 L 184.200 235.029 188.713 235.114 C 193.100 235.198,194.514 234.780,193.449 233.716 C 193.312 233.579,193.200 233.761,193.200 234.120 M201.800 234.180 C 202.680 234.515,204.480 234.762,205.800 234.731 L 208.200 234.674 205.600 234.366 C 204.170 234.197,202.370 233.949,201.600 233.816 L 200.200 233.573 201.800 234.180 M245.248 235.403 C 244.277 236.829,243.200 237.261,243.200 236.224 C 243.200 235.405,242.415 235.025,241.865 235.576 C 241.511 235.931,241.623 236.212,242.331 236.747 C 244.390 238.303,243.273 238.388,219.363 238.500 L 196.600 238.607 219.502 238.703 L 242.404 238.800 244.402 236.759 C 245.501 235.637,246.400 234.557,246.400 234.359 C 246.400 233.790,246.260 233.917,245.248 235.403 M194.500 238.276 C 194.885 238.376,195.515 238.376,195.900 238.276 C 196.285 238.175,195.970 238.093,195.200 238.093 C 194.430 238.093,194.115 238.175,194.500 238.276 M185.100 238.697 C 186.695 238.773,189.305 238.773,190.900 238.697 C 192.495 238.621,191.190 238.559,188.000 238.559 C 184.810 238.559,183.505 238.621,185.100 238.697 "
       stroke="none"
       fill="#9c9c9c"
       fill-rule="evenodd" />
    <path
       id="path3"
       d="M181.007 192.500 C 180.915 192.775,180.785 193.448,180.720 193.996 C 180.560 195.328,179.395 195.495,177.912 194.398 C 176.465 193.329,175.408 193.883,176.529 195.122 C 178.058 196.811,176.782 197.402,174.790 195.929 C 173.826 195.216,173.448 195.138,172.706 195.496 C 170.794 196.419,169.416 196.527,156.400 196.777 C 144.833 196.999,142.836 197.127,141.800 197.714 C 140.957 198.193,139.678 198.396,137.500 198.398 C 132.944 198.401,131.411 200.718,133.595 204.300 C 134.329 205.503,134.396 206.447,134.494 217.100 L 134.600 228.600 135.719 228.728 C 136.342 228.800,137.460 228.490,138.242 228.028 C 140.003 226.989,141.461 226.981,143.000 228.000 C 143.758 228.502,144.877 228.796,146.038 228.797 C 147.366 228.799,148.077 229.022,148.600 229.600 C 149.123 230.178,149.834 230.401,151.162 230.403 C 152.323 230.404,153.442 230.698,154.200 231.200 C 154.958 231.702,156.077 231.996,157.238 231.997 C 158.566 231.999,159.277 232.222,159.800 232.800 C 160.328 233.383,161.032 233.600,162.400 233.600 C 163.768 233.600,164.472 233.817,165.000 234.400 C 165.562 235.021,166.232 235.200,168.000 235.200 C 169.768 235.200,170.438 235.379,171.000 236.000 C 171.547 236.604,172.232 236.800,173.798 236.800 C 174.939 236.800,176.756 237.103,177.836 237.474 C 179.597 238.079,183.018 238.163,210.937 238.292 C 243.825 238.444,244.531 238.409,242.331 236.747 C 241.623 236.212,241.511 235.931,241.865 235.576 C 242.415 235.025,243.200 235.405,243.200 236.224 C 243.200 237.289,244.283 236.812,245.346 235.278 C 245.926 234.442,246.400 233.296,246.400 232.732 C 246.400 232.169,246.760 231.250,247.200 230.691 C 247.640 230.131,248.000 229.214,248.000 228.651 C 248.000 228.038,248.320 227.457,248.800 227.200 C 249.321 226.921,249.600 226.362,249.600 225.600 C 249.600 224.838,249.879 224.279,250.400 224.000 C 250.880 223.743,251.200 223.162,251.200 222.549 C 251.200 221.986,251.560 221.069,252.000 220.509 C 252.440 219.950,252.800 219.194,252.800 218.829 C 252.800 217.256,256.648 214.400,258.766 214.400 C 261.121 214.400,262.000 213.699,262.000 211.820 C 262.000 209.708,262.336 209.626,271.431 209.508 L 279.800 209.400 279.910 204.800 C 280.083 197.572,277.906 194.210,274.083 195.803 C 272.283 196.553,270.974 196.593,244.336 196.699 L 216.471 196.811 215.032 195.129 C 213.486 193.323,212.950 193.386,212.731 195.400 L 212.600 196.600 208.093 196.713 C 204.296 196.808,203.547 196.727,203.344 196.198 C 202.949 195.168,200.921 194.307,200.023 194.788 C 199.599 195.015,197.756 195.198,195.926 195.196 L 192.600 195.192 191.200 193.600 L 189.800 192.008 185.487 192.004 C 182.391 192.001,181.128 192.141,181.007 192.500 M190.820 194.022 L 192.318 195.644 197.210 195.560 C 201.826 195.480,202.140 195.525,202.763 196.351 C 203.388 197.179,203.686 197.221,208.212 197.113 L 213.000 197.000 213.125 195.700 C 213.281 194.081,213.347 194.084,214.854 195.800 L 216.083 197.200 244.141 197.202 C 269.144 197.204,272.399 197.132,274.031 196.548 C 276.199 195.771,277.810 196.457,278.258 198.349 C 278.395 198.927,278.754 199.685,279.055 200.033 C 279.458 200.499,279.575 201.763,279.501 204.833 L 279.400 209.000 271.031 209.108 C 262.422 209.220,261.600 209.373,261.600 210.869 C 261.600 212.923,260.488 214.000,258.367 214.000 C 256.173 214.000,252.906 216.534,252.202 218.781 C 252.033 219.321,251.648 220.009,251.347 220.310 C 251.046 220.611,250.800 221.378,250.800 222.014 C 250.800 222.762,250.517 223.323,250.000 223.600 C 249.479 223.879,249.200 224.438,249.200 225.200 C 249.200 225.962,248.921 226.521,248.400 226.800 C 247.854 227.092,247.600 227.638,247.600 228.518 C 247.600 229.374,247.331 229.975,246.800 230.307 C 246.330 230.601,246.000 231.240,246.000 231.856 C 246.000 232.690,245.013 234.853,244.121 235.976 C 244.044 236.073,243.706 235.758,243.368 235.276 C 242.539 234.092,241.672 234.172,241.349 235.462 C 241.154 236.240,241.275 236.666,241.802 237.051 C 242.379 237.473,242.411 237.621,241.961 237.793 C 241.543 237.953,212.403 237.859,195.000 237.642 C 194.340 237.634,191.617 237.721,188.949 237.836 C 184.919 238.010,183.521 237.906,180.694 237.223 C 178.822 236.770,176.054 236.400,174.542 236.400 C 172.226 236.400,171.714 236.274,171.293 235.600 C 170.886 234.948,170.360 234.800,168.459 234.800 C 166.632 234.800,165.966 234.626,165.400 234.000 C 164.867 233.411,164.168 233.200,162.752 233.200 C 161.238 233.200,160.737 233.030,160.400 232.400 C 160.054 231.754,159.562 231.600,157.840 231.600 C 156.314 231.600,155.419 231.373,154.691 230.800 C 153.962 230.226,153.068 230.000,151.533 230.000 C 149.826 230.000,149.291 229.838,148.893 229.200 C 148.505 228.578,147.960 228.400,146.451 228.400 C 145.114 228.400,144.191 228.151,143.491 227.600 C 142.076 226.487,138.886 226.502,137.454 227.629 C 135.048 229.521,135.021 229.403,134.800 216.395 C 134.624 206.009,134.516 204.482,133.900 203.611 C 131.861 200.730,133.658 198.800,138.381 198.800 C 141.015 198.800,142.054 198.636,142.811 198.100 C 143.694 197.475,145.314 197.378,157.859 197.200 C 170.515 197.020,171.994 196.930,172.690 196.300 C 173.718 195.369,173.949 195.413,174.410 196.625 C 174.921 197.969,177.181 197.898,177.787 196.519 C 178.061 195.893,178.582 195.604,179.587 195.519 C 180.757 195.420,181.021 195.228,181.120 194.400 C 181.358 192.411,181.381 192.400,185.449 192.400 L 189.323 192.400 190.820 194.022 M182.605 199.192 C 182.373 199.568,183.030 201.200,183.414 201.200 C 183.516 201.200,183.600 200.660,183.600 200.000 C 183.600 198.827,183.088 198.411,182.605 199.192 M189.436 199.850 C 189.084 200.767,189.743 201.384,190.577 200.917 C 191.170 200.585,191.159 200.487,190.465 199.858 C 189.744 199.206,189.683 199.205,189.436 199.850 M218.900 200.090 C 217.769 200.633,217.775 200.893,218.943 202.251 L 219.885 203.347 220.615 202.233 C 221.742 200.514,220.707 199.221,218.900 200.090 M272.808 200.884 C 271.660 202.771,272.516 203.600,275.613 203.600 C 278.222 203.600,278.977 203.045,278.571 201.428 C 277.999 199.148,274.088 198.778,272.808 200.884 M197.067 200.267 C 196.620 200.714,196.769 202.277,197.300 202.705 C 198.407 203.597,200.555 201.622,199.802 200.404 C 199.524 199.953,197.482 199.851,197.067 200.267 M276.640 200.306 C 277.573 200.929,278.122 202.476,277.541 202.845 C 276.075 203.774,273.200 203.107,273.200 201.837 C 273.200 200.283,275.243 199.373,276.640 200.306 M220.400 200.733 C 220.400 201.254,219.924 201.601,219.538 201.361 C 219.124 201.106,219.481 200.400,220.024 200.400 C 220.231 200.400,220.400 200.550,220.400 200.733 M180.574 203.522 C 180.050 204.134,179.562 204.265,178.389 204.108 C 176.883 203.906,175.580 204.996,176.176 205.961 C 176.505 206.494,178.517 206.766,179.245 206.376 C 179.706 206.129,180.111 206.260,180.617 206.819 C 181.071 207.321,181.612 207.523,182.091 207.371 C 182.507 207.239,183.473 207.428,184.238 207.791 C 186.804 209.009,187.400 208.596,187.400 205.600 L 187.400 203.000 185.600 203.088 C 184.610 203.137,183.530 203.208,183.200 203.246 C 182.870 203.284,182.296 203.185,181.925 203.024 C 181.481 202.833,181.018 203.003,180.574 203.522 M187.000 205.567 C 187.000 208.015,186.486 208.486,185.210 207.210 C 184.589 206.589,183.949 206.394,182.758 206.464 C 181.017 206.567,180.364 206.024,180.697 204.749 C 180.987 203.641,181.485 203.474,182.461 204.158 C 183.244 204.706,183.415 204.689,184.338 203.963 C 186.146 202.541,187.000 203.056,187.000 205.567 M194.945 206.600 C 194.568 207.583,195.110 208.400,196.138 208.400 C 197.463 208.400,198.270 207.407,197.600 206.600 C 197.326 206.270,196.668 206.000,196.138 206.000 C 195.609 206.000,195.071 206.270,194.945 206.600 M216.764 206.643 C 216.204 207.318,217.105 208.400,218.227 208.400 C 218.953 208.400,219.718 207.284,219.457 206.605 C 219.151 205.806,217.439 205.830,216.764 206.643 M196.800 206.806 C 197.333 207.156,197.333 207.244,196.800 207.594 C 196.034 208.097,195.708 208.098,195.400 207.600 C 194.835 206.685,195.790 206.143,196.800 206.806 M218.800 207.000 C 218.800 207.330,218.530 207.600,218.200 207.600 C 217.575 207.600,217.406 207.127,217.867 206.667 C 218.327 206.206,218.800 206.375,218.800 207.000 M167.075 213.522 C 165.545 215.118,165.432 220.604,166.916 221.168 C 167.420 221.360,168.073 221.805,168.365 222.158 C 169.158 223.114,173.328 223.047,174.284 222.064 C 174.678 221.659,175.315 221.215,175.700 221.077 C 176.189 220.901,176.400 220.395,176.400 219.400 C 176.400 218.502,176.622 217.890,177.000 217.745 C 177.330 217.618,177.600 217.193,177.600 216.800 C 177.600 216.407,177.330 215.982,177.000 215.855 C 176.670 215.729,176.400 215.182,176.400 214.641 C 176.400 212.056,169.296 211.203,167.075 213.522 M233.319 213.100 C 233.179 213.485,232.734 214.229,232.332 214.754 C 231.685 215.597,231.600 216.545,231.600 222.885 L 231.600 230.062 232.790 231.251 C 234.651 233.113,238.437 232.854,238.848 230.837 C 239.000 230.087,239.412 229.313,239.762 229.117 C 240.118 228.918,240.400 228.245,240.400 227.594 C 240.400 226.838,240.681 226.278,241.200 226.000 C 241.646 225.762,242.000 225.162,242.000 224.648 C 242.000 224.140,242.360 223.398,242.800 223.000 C 243.240 222.602,243.600 221.770,243.600 221.152 C 243.600 220.438,243.891 219.872,244.400 219.600 C 244.846 219.361,245.200 218.762,245.200 218.247 C 245.200 217.739,245.560 216.907,246.000 216.400 C 247.021 215.222,247.017 215.187,245.664 213.672 L 244.529 212.400 239.052 212.400 C 234.200 212.400,233.546 212.480,233.319 213.100 M174.606 213.058 C 175.618 213.446,176.893 216.680,176.398 217.603 C 176.179 218.012,176.000 218.792,176.000 219.336 C 176.000 221.957,171.009 223.133,168.172 221.181 C 162.899 217.553,168.358 210.660,174.606 213.058 M245.142 214.007 C 245.965 215.121,245.987 215.284,245.417 216.096 C 245.078 216.581,244.800 217.382,244.800 217.875 C 244.800 218.368,244.440 218.965,244.000 219.200 C 243.491 219.472,243.200 220.038,243.200 220.752 C 243.200 221.370,242.840 222.202,242.400 222.600 C 241.960 222.998,241.600 223.740,241.600 224.248 C 241.600 224.762,241.246 225.362,240.800 225.600 C 240.291 225.872,240.000 226.438,240.000 227.152 C 240.000 227.770,239.650 228.593,239.223 228.980 C 238.795 229.367,238.390 230.159,238.323 230.742 C 238.126 232.442,234.852 232.514,233.191 230.853 L 232.000 229.662 232.000 223.268 C 232.000 217.137,232.043 216.790,233.057 214.837 L 234.114 212.800 239.182 212.800 L 244.250 212.800 245.142 214.007 M189.106 214.683 C 188.748 215.078,188.398 216.204,188.328 217.185 C 188.219 218.708,188.054 219.003,187.200 219.205 C 186.415 219.392,186.200 219.694,186.200 220.616 C 186.200 221.606,186.013 221.821,185.000 221.996 C 184.001 222.169,183.779 222.414,183.678 223.460 C 183.611 224.151,183.206 225.033,182.778 225.420 C 182.350 225.807,182.000 226.540,182.000 227.048 C 182.000 227.562,181.646 228.162,181.200 228.400 C 179.770 229.165,180.055 233.238,181.631 234.564 C 183.244 235.922,193.293 236.197,193.899 234.900 C 194.078 234.515,194.130 229.700,194.013 224.200 L 193.800 214.200 191.778 214.082 C 190.236 213.992,189.603 214.134,189.106 214.683 M193.400 224.800 L 193.400 235.000 188.400 235.000 C 182.033 235.000,180.800 234.381,180.800 231.187 C 180.800 229.638,180.967 229.139,181.600 228.800 C 182.046 228.562,182.400 227.962,182.400 227.448 C 182.400 226.940,182.750 226.207,183.178 225.820 C 183.606 225.433,184.011 224.551,184.078 223.860 C 184.179 222.817,184.402 222.569,185.389 222.400 C 186.048 222.287,186.763 221.826,186.992 221.367 C 187.219 220.911,187.719 220.224,188.103 219.840 C 188.509 219.434,188.800 218.539,188.800 217.697 C 188.800 215.656,190.121 214.324,191.988 214.481 L 193.400 214.600 193.400 224.800 M139.624 220.971 C 139.032 221.684,139.433 223.200,140.213 223.200 C 141.242 223.200,141.658 221.777,140.844 221.040 C 140.204 220.460,140.055 220.452,139.624 220.971 M198.285 228.648 C 198.128 228.805,198.000 229.539,198.000 230.279 C 198.000 231.107,197.769 231.714,197.400 231.855 C 196.130 232.343,196.742 233.552,198.500 234.030 C 199.435 234.285,200.879 234.742,201.708 235.046 C 203.725 235.787,221.589 235.851,222.320 235.120 C 222.869 234.571,222.971 232.153,222.460 231.837 C 222.272 231.721,217.892 231.605,212.726 231.578 C 202.609 231.526,202.520 231.511,202.056 229.766 C 201.748 228.605,199.111 227.823,198.285 228.648 M201.524 230.071 C 201.736 231.908,202.122 231.980,212.432 232.093 L 222.200 232.200 222.331 233.122 C 222.633 235.251,222.181 235.342,212.541 235.081 C 206.467 234.917,203.069 234.656,201.740 234.249 C 200.673 233.924,199.289 233.546,198.664 233.412 C 197.784 233.222,197.592 233.012,197.815 232.483 C 197.973 232.107,198.184 231.350,198.284 230.800 C 198.631 228.883,198.760 228.746,200.097 228.874 C 201.174 228.978,201.421 229.186,201.524 230.071 "
       stroke="none"
       fill="#646464"
       fill-rule="evenodd" />
    <path
       id="path4"
       d="M177.893 194.000 C 178.279 194.451,179.019 194.776,179.589 194.746 C 180.488 194.697,180.504 194.672,179.729 194.522 C 179.250 194.428,178.643 194.093,178.380 193.776 C 178.117 193.459,177.746 193.200,177.555 193.200 C 177.364 193.200,177.516 193.560,177.893 194.000 M192.093 194.000 C 192.368 194.440,192.954 194.789,193.396 194.775 C 194.138 194.751,194.130 194.721,193.300 194.388 C 192.805 194.189,192.400 193.840,192.400 193.613 C 192.400 193.386,192.218 193.200,191.997 193.200 C 191.757 193.200,191.797 193.526,192.093 194.000 M199.556 194.100 C 199.086 194.995,199.088 194.996,199.942 194.238 C 200.786 193.489,200.814 193.489,201.658 194.238 C 202.512 194.996,202.514 194.995,202.044 194.100 C 201.784 193.605,201.225 193.200,200.800 193.200 C 200.375 193.200,199.816 193.605,199.556 194.100 M174.629 194.784 C 173.897 195.046,173.895 195.074,174.586 195.339 C 175.381 195.644,175.763 195.460,175.542 194.879 C 175.464 194.674,175.053 194.632,174.629 194.784 M215.200 194.917 C 215.530 195.203,216.047 195.698,216.349 196.018 C 216.819 196.516,216.835 196.477,216.460 195.747 C 216.219 195.278,215.702 194.783,215.311 194.646 C 214.692 194.430,214.678 194.465,215.200 194.917 M168.200 195.622 C 166.482 196.435,167.214 196.685,169.372 196.023 C 170.047 195.815,171.230 195.473,172.000 195.263 L 173.400 194.882 171.600 194.873 C 170.610 194.869,169.080 195.205,168.200 195.622 M272.000 195.600 C 270.947 196.513,271.413 196.687,272.629 195.834 C 273.074 195.523,273.969 195.190,274.618 195.094 C 275.713 194.933,275.694 194.915,274.361 194.860 C 273.429 194.821,272.598 195.082,272.000 195.600 M277.051 195.194 C 278.050 195.598,279.541 197.577,280.005 199.117 L 280.331 200.200 280.366 198.973 C 280.407 197.497,278.200 194.786,276.990 194.825 C 276.246 194.849,276.249 194.871,277.051 195.194 M140.856 197.213 C 140.258 197.711,140.119 198.000,140.476 198.000 C 140.786 198.000,141.252 197.788,141.512 197.528 C 141.772 197.268,142.753 196.931,143.692 196.778 L 145.400 196.500 143.600 196.463 C 142.356 196.438,141.508 196.670,140.856 197.213 M132.880 198.480 C 132.616 198.744,132.411 199.329,132.425 199.780 C 132.449 200.548,132.474 200.542,132.816 199.691 C 133.017 199.190,133.590 198.617,134.091 198.416 C 134.942 198.074,134.948 198.049,134.180 198.025 C 133.729 198.011,133.144 198.216,132.880 198.480 M273.867 200.667 C 273.505 201.028,273.528 202.308,273.900 202.538 C 274.065 202.640,274.200 202.201,274.200 201.562 C 274.200 200.923,274.185 200.400,274.167 200.400 C 274.148 200.400,274.013 200.520,273.867 200.667 M276.378 201.273 C 276.651 202.041,276.623 202.402,276.280 202.542 C 276.008 202.652,276.093 202.751,276.476 202.768 C 277.539 202.818,277.667 202.167,276.796 201.142 L 275.996 200.200 276.378 201.273 M132.425 203.851 C 132.411 204.319,132.659 204.917,132.976 205.180 C 133.293 205.443,133.628 206.050,133.722 206.529 C 133.863 207.257,133.900 207.223,133.946 206.324 C 133.975 205.732,133.807 205.128,133.572 204.983 C 133.337 204.837,132.988 204.332,132.797 203.859 L 132.451 203.000 132.425 203.851 M185.114 203.819 C 184.770 204.163,185.823 207.341,186.338 207.513 C 186.604 207.601,186.788 207.270,186.772 206.733 C 186.746 205.863,186.722 205.854,186.427 206.600 C 186.179 207.228,186.075 207.037,185.946 205.712 C 185.822 204.441,185.932 203.983,186.391 203.858 C 186.777 203.753,186.695 203.676,186.167 203.646 C 185.708 203.621,185.235 203.699,185.114 203.819 M181.092 204.769 C 180.977 205.210,181.089 205.741,181.341 205.950 C 181.838 206.361,184.000 206.091,184.000 205.618 C 184.000 205.459,183.505 205.080,182.900 204.777 C 182.295 204.474,181.688 204.168,181.551 204.096 C 181.414 204.025,181.208 204.328,181.092 204.769 M182.462 205.698 C 182.004 206.156,181.083 205.713,181.406 205.190 C 181.527 204.995,181.902 204.941,182.240 205.071 C 182.641 205.224,182.718 205.442,182.462 205.698 M262.603 210.500 C 262.508 210.775,262.379 211.626,262.315 212.391 C 262.231 213.408,261.931 213.917,261.200 214.285 C 260.271 214.753,260.260 214.789,261.051 214.794 C 262.247 214.802,262.692 214.091,262.860 211.900 C 263.006 209.999,262.926 209.562,262.603 210.500 M167.570 214.254 C 166.678 215.224,166.668 215.273,167.453 214.865 C 167.922 214.622,168.411 214.147,168.540 213.811 C 168.868 212.958,168.685 213.042,167.570 214.254 M174.271 213.896 C 174.672 214.279,175.132 214.774,175.294 214.996 C 175.481 215.254,175.590 215.229,175.594 214.929 C 175.601 214.356,174.497 213.200,173.943 213.200 C 173.723 213.200,173.871 213.513,174.271 213.896 M244.384 214.157 C 244.584 214.683,244.649 215.538,244.528 216.057 L 244.309 217.000 244.970 216.110 C 245.585 215.282,245.585 215.149,244.970 214.210 C 244.138 212.940,243.913 212.920,244.384 214.157 M233.646 214.451 C 233.621 214.809,233.330 215.326,233.000 215.600 C 232.670 215.874,232.400 216.296,232.400 216.538 C 232.400 216.780,232.778 216.600,233.239 216.139 C 233.725 215.653,233.997 214.985,233.885 214.550 C 233.737 213.972,233.682 213.949,233.646 214.451 M189.798 215.602 C 188.728 216.784,189.301 216.970,190.401 215.798 C 190.917 215.249,191.156 214.800,190.932 214.800 C 190.707 214.800,190.197 215.161,189.798 215.602 M175.624 216.800 C 175.624 217.942,175.699 218.071,176.032 217.500 C 176.309 217.025,176.309 216.575,176.032 216.100 C 175.699 215.529,175.624 215.658,175.624 216.800 M254.000 217.472 C 253.113 218.410,253.097 218.478,253.853 218.076 C 254.322 217.826,254.811 217.347,254.940 217.011 C 255.254 216.194,255.168 216.236,254.000 217.472 M166.846 219.500 C 166.820 220.016,167.033 220.400,167.346 220.400 C 167.646 220.400,168.350 220.760,168.909 221.200 C 170.200 222.215,170.738 222.236,169.833 221.236 C 169.452 220.816,168.718 220.366,168.200 220.236 C 167.682 220.106,167.176 219.685,167.076 219.300 C 166.938 218.774,166.881 218.823,166.846 219.500 M188.846 219.116 C 188.795 219.683,187.237 222.026,186.600 222.494 C 186.333 222.690,186.333 222.790,186.600 222.794 C 187.290 222.804,189.263 220.009,189.073 219.288 C 188.974 218.909,188.872 218.832,188.846 219.116 M252.800 219.669 C 252.800 219.926,252.485 220.492,252.100 220.927 C 251.421 221.693,251.427 221.702,252.300 221.244 C 253.058 220.846,253.622 219.200,253.000 219.200 C 252.890 219.200,252.800 219.411,252.800 219.669 M172.800 221.200 C 171.613 222.230,172.245 222.230,173.800 221.200 C 174.549 220.704,174.760 220.404,174.361 220.403 C 174.010 220.401,173.307 220.760,172.800 221.200 M183.499 225.777 C 183.115 226.058,182.814 226.628,182.832 227.044 C 182.856 227.618,182.919 227.655,183.096 227.200 C 183.225 226.870,183.615 226.390,183.964 226.133 C 184.313 225.876,184.509 225.575,184.399 225.465 C 184.289 225.355,183.884 225.496,183.499 225.777 M138.983 228.028 C 138.837 228.263,138.332 228.612,137.859 228.803 C 137.002 229.148,137.002 229.149,137.838 229.175 C 138.299 229.189,139.002 228.840,139.400 228.400 C 139.798 227.960,139.927 227.600,139.686 227.600 C 139.444 227.600,139.128 227.793,138.983 228.028 M141.956 228.300 C 142.240 228.842,142.780 229.187,143.314 229.168 C 143.902 229.147,143.998 229.063,143.600 228.916 C 143.270 228.795,142.659 228.404,142.242 228.048 C 141.520 227.431,141.506 227.443,141.956 228.300 M147.059 229.597 C 147.532 229.788,148.037 230.137,148.183 230.372 C 148.328 230.607,148.644 230.800,148.886 230.800 C 149.127 230.800,148.998 230.440,148.600 230.000 C 148.202 229.560,147.499 229.211,147.038 229.225 C 146.202 229.251,146.202 229.252,147.059 229.597 M247.493 230.908 C 247.112 231.378,246.803 232.041,246.807 232.381 C 246.810 232.725,247.189 232.414,247.657 231.683 C 248.629 230.165,248.519 229.644,247.493 230.908 M153.156 231.500 C 153.440 232.042,153.980 232.387,154.514 232.368 C 155.102 232.347,155.198 232.263,154.800 232.116 C 154.470 231.995,153.859 231.604,153.442 231.248 C 152.720 230.631,152.706 230.643,153.156 231.500 M201.200 231.413 C 201.200 231.749,201.478 232.132,201.817 232.262 C 202.721 232.609,202.769 232.298,201.933 231.500 C 201.313 230.908,201.200 230.894,201.200 231.413 M198.282 232.130 C 197.967 232.950,199.080 233.600,200.800 233.600 C 201.489 233.600,202.356 233.757,202.726 233.950 C 203.097 234.142,205.290 234.406,207.600 234.536 C 211.713 234.767,211.755 234.761,209.640 234.230 C 208.451 233.931,205.604 233.559,203.312 233.403 C 199.608 233.151,199.110 233.028,198.840 232.295 C 198.577 231.586,198.500 231.563,198.282 232.130 M158.700 232.812 C 159.195 233.011,159.600 233.360,159.600 233.587 C 159.600 233.814,159.782 234.000,160.003 234.000 C 160.243 234.000,160.203 233.674,159.907 233.200 C 159.632 232.760,159.046 232.411,158.604 232.425 C 157.862 232.449,157.870 232.479,158.700 232.812 M221.646 233.113 C 221.619 233.658,221.238 234.171,220.700 234.388 L 219.800 234.749 220.713 234.775 C 221.707 234.802,222.175 234.060,221.880 232.923 C 221.734 232.358,221.683 232.399,221.646 233.113 M181.200 233.020 C 181.200 233.582,184.619 234.793,186.084 234.750 L 187.800 234.700 186.200 234.436 C 185.320 234.291,184.369 234.029,184.087 233.854 C 183.431 233.448,181.200 232.803,181.200 233.020 M246.400 234.069 C 246.400 234.326,246.085 234.892,245.700 235.327 C 245.021 236.093,245.027 236.102,245.900 235.644 C 246.658 235.246,247.222 233.600,246.600 233.600 C 246.490 233.600,246.400 233.811,246.400 234.069 M169.459 235.997 C 169.932 236.188,170.437 236.537,170.583 236.772 C 170.728 237.007,171.044 237.200,171.286 237.200 C 171.527 237.200,171.398 236.840,171.000 236.400 C 170.602 235.960,169.899 235.611,169.438 235.625 C 168.602 235.651,168.602 235.652,169.459 235.997 M176.011 237.893 C 176.685 238.365,177.889 238.609,179.800 238.659 L 182.600 238.733 180.400 238.435 C 179.190 238.271,177.693 237.926,177.074 237.668 C 175.423 236.982,174.875 237.097,176.011 237.893 M194.300 238.682 C 194.795 238.778,195.605 238.778,196.100 238.682 C 196.595 238.587,196.190 238.509,195.200 238.509 C 194.210 238.509,193.805 238.587,194.300 238.682 "
       stroke="none"
       fill="#bcbcbc"
       fill-rule="evenodd" />
  </g>
</svg>
