<?xml version="1.0" encoding="UTF-8" standalone="no"?>
<!-- Created with Inkscape (http://www.inkscape.org/) -->

<svg
   xmlns:dc="http://purl.org/dc/elements/1.1/"
   xmlns:cc="http://creativecommons.org/ns#"
   xmlns:rdf="http://www.w3.org/1999/02/22-rdf-syntax-ns#"
   xmlns:svg="http://www.w3.org/2000/svg"
   xmlns="http://www.w3.org/2000/svg"
   xmlns:sodipodi="http://sodipodi.sourceforge.net/DTD/sodipodi-0.dtd"
   xmlns:inkscape="http://www.inkscape.org/namespaces/inkscape"
   width="18.889978mm"
   height="19.576204mm"
   viewBox="0 0 18.889978 19.576204"
   version="1.1"
   id="svg213"
   inkscape:version="0.92.4 (5da689c313, 2019-01-14)"
   sodipodi:docname="Grenade.svg">
  <defs
     id="defs207" />
  <sodipodi:namedview
     id="base"
     pagecolor="#ffffff"
     bordercolor="#666666"
     borderopacity="1.0"
     inkscape:pageopacity="0.0"
     inkscape:pageshadow="2"
     inkscape:zoom="0.35"
     inkscape:cx="178.55474"
     inkscape:cy="228.42298"
     inkscape:document-units="mm"
     inkscape:current-layer="layer1"
     showgrid="false"
     inkscape:window-width="1024"
     inkscape:window-height="664"
     inkscape:window-x="-8"
     inkscape:window-y="-8"
     inkscape:window-maximized="1" />
  <metadata
     id="metadata210">
    <rdf:RDF>
      <cc:Work
         rdf:about="">
        <dc:format>image/svg+xml</dc:format>
        <dc:type
           rdf:resource="http://purl.org/dc/dcmitype/StillImage" />
        <dc:title></dc:title>
      </cc:Work>
    </rdf:RDF>
  </metadata>
  <g
     inkscape:label="Layer 1"
     inkscape:groupmode="layer"
     id="layer1"
     transform="translate(-58.590725,-189.69404)">
    <g
       id="svgg-1"
       transform="matrix(0.26458333,0,0,0.26458333,15.133891,146.82858)">
      <path
         d="M 187.248,163.296 C 150.277,178.835 160.304,236 200,236 c 46.239,0 48.122,-72.08 1.931,-73.934 -5.902,-0.237 -12.509,0.317 -14.683,1.23 m 23.545,8.765 c 7.6,3.176 11.235,6.543 14.977,13.875 4.551,8.917 3.648,9.265 -1.79,0.69 -11.556,-18.222 -36.404,-18.222 -47.96,0 -5.438,8.575 -6.341,8.227 -1.79,-0.69 7.143,-13.995 22.409,-19.789 36.563,-13.875 m 0.455,5.939 c 16.957,8.567 19.698,29.604 5.575,42.8 -10.231,9.559 -33.365,4.768 -40.175,-8.321 -8.197,-15.754 5.493,-38.079 23.352,-38.079 2.267,0 7.329,1.62 11.248,3.6 m -16.848,0.724 c -8.183,2.172 -16.89,12.16 -16.737,19.197 0.04,1.837 0.831,1.113 2.188,-2 8.072,-18.534 35.3,-17.455 40.847,1.619 1.185,4.075 1.437,4.265 1.558,1.181 0.467,-11.909 -15.405,-23.302 -27.856,-19.997 m 1.643,10.006 c -0.52,0.842 -1.868,1.176 -2.995,0.744 -4.678,-1.795 -12.221,15.848 -9.901,23.158 1.625,5.121 3.594,4.02 2.777,-1.552 -0.962,-6.555 4.244,-17.437 8.355,-17.462 2.922,-0.017 2.901,0.171 -0.4,3.685 -5.089,5.418 -4.527,5.897 6.921,5.897 10.488,0 12.401,-1.148 8,-4.8 -1.32,-1.096 -2.4,-4.064 -2.4,-6.596 0,-4.712 -7.896,-7.056 -10.357,-3.074 m -6.176,17.137 c -4.576,4.576 -0.859,6.933 10.933,6.933 11.733,0 12,-0.089 12,-4 0,-3.961 -19.421,-6.445 -22.933,-2.933 m 0.533,10.042 c 0,4.871 11.679,8.06 17.705,4.835 6.755,-3.615 3.613,-6.344 -7.305,-6.344 -5.72,0 -10.4,0.679 -10.4,1.509"
         id="path0-26"
         inkscape:connector-curvature="0"
         style="fill:#000000;fill-rule:evenodd;stroke:none" />
    </g>
  </g>
</svg>
