<?xml version="1.0" encoding="UTF-8" standalone="no"?>
<svg
   xmlns:dc="http://purl.org/dc/elements/1.1/"
   xmlns:cc="http://creativecommons.org/ns#"
   xmlns:rdf="http://www.w3.org/1999/02/22-rdf-syntax-ns#"
   xmlns:svg="http://www.w3.org/2000/svg"
   xmlns="http://www.w3.org/2000/svg"
   xmlns:sodipodi="http://sodipodi.sourceforge.net/DTD/sodipodi-0.dtd"
   xmlns:inkscape="http://www.inkscape.org/namespaces/inkscape"
   id="svg"
   version="1.1"
   width="147.94225"
   height="45.554001"
   viewBox="0 0 147.94225 45.554001"
   sodipodi:docname="GrenadeLauncher.svg"
   inkscape:version="0.92.4 (5da689c313, 2019-01-14)">
  <metadata
     id="metadata95">
    <rdf:RDF>
      <cc:Work
         rdf:about="">
        <dc:format>image/svg+xml</dc:format>
        <dc:type
           rdf:resource="http://purl.org/dc/dcmitype/StillImage" />
      </cc:Work>
    </rdf:RDF>
  </metadata>
  <defs
     id="defs93" />
  <sodipodi:namedview
     pagecolor="#ffffff"
     bordercolor="#666666"
     borderopacity="1"
     objecttolerance="10"
     gridtolerance="10"
     guidetolerance="10"
     inkscape:pageopacity="0"
     inkscape:pageshadow="2"
     inkscape:window-width="640"
     inkscape:window-height="480"
     id="namedview91"
     showgrid="false"
     inkscape:zoom="0.59"
     inkscape:cx="166.48578"
     inkscape:cy="196.38112"
     inkscape:window-x="0"
     inkscape:window-y="0"
     inkscape:window-maximized="0"
     inkscape:current-layer="svg" />
  <g
     id="svgg"
     transform="translate(-132.42432,-193.2)">
    <path
       id="path0"
       d="m 181.407,192.9 c -0.092,0.275 -0.222,0.95 -0.287,1.5 -0.099,0.828 -0.363,1.02 -1.533,1.119 -1.005,0.085 -1.526,0.374 -1.8,1 -0.606,1.379 -2.866,1.45 -3.377,0.106 -0.461,-1.212 -0.692,-1.256 -1.72,-0.325 -0.696,0.63 -2.175,0.72 -14.831,0.9 -12.545,0.178 -14.165,0.275 -15.048,0.9 -0.757,0.536 -1.796,0.7 -4.43,0.7 -4.723,0 -6.52,1.93 -4.481,4.811 0.616,0.871 0.724,2.398 0.9,12.784 0.221,13.008 0.248,13.126 2.654,11.234 1.432,-1.127 4.622,-1.142 6.037,-0.029 0.7,0.551 1.623,0.8 2.96,0.8 1.509,0 2.054,0.178 2.442,0.8 0.398,0.638 0.933,0.8 2.64,0.8 1.535,0 2.429,0.226 3.158,0.8 0.728,0.573 1.623,0.8 3.149,0.8 1.722,0 2.214,0.154 2.56,0.8 0.337,0.63 0.838,0.8 2.352,0.8 1.416,0 2.115,0.211 2.648,0.8 0.566,0.626 1.232,0.8 3.059,0.8 1.901,0 2.427,0.148 2.834,0.8 0.421,0.674 0.933,0.8 3.249,0.8 1.512,0 4.28,0.37 6.152,0.823 2.827,0.683 4.225,0.787 8.255,0.613 2.668,-0.115 5.391,-0.202 6.051,-0.194 17.403,0.217 46.543,0.311 46.961,0.151 0.45,-0.172 0.418,-0.32 -0.159,-0.742 -0.527,-0.385 -0.648,-0.811 -0.453,-1.589 0.323,-1.29 1.19,-1.37 2.019,-0.186 0.338,0.482 0.676,0.797 0.753,0.7 0.892,-1.123 1.879,-3.286 1.879,-4.12 0,-0.616 0.33,-1.255 0.8,-1.549 0.531,-0.332 0.8,-0.933 0.8,-1.789 0,-0.88 0.254,-1.426 0.8,-1.718 0.521,-0.279 0.8,-0.838 0.8,-1.6 0,-0.762 0.279,-1.321 0.8,-1.6 0.517,-0.277 0.8,-0.838 0.8,-1.586 0,-0.636 0.246,-1.403 0.547,-1.704 0.301,-0.301 0.686,-0.989 0.855,-1.529 0.704,-2.247 3.971,-4.781 6.165,-4.781 2.121,0 3.233,-1.077 3.233,-3.131 0,-1.496 0.822,-1.649 9.431,-1.761 L 279.4,209 l 0.101,-4.167 c 0.074,-3.07 -0.043,-4.334 -0.446,-4.8 -0.301,-0.348 -0.66,-1.106 -0.797,-1.684 -0.448,-1.892 -2.059,-2.578 -4.227,-1.801 -1.632,0.584 -4.887,0.656 -29.89,0.654 l -28.058,-0.002 -1.229,-1.4 c -1.507,-1.716 -1.573,-1.719 -1.729,-0.1 L 213,197 l -4.788,0.113 c -4.526,0.108 -4.824,0.066 -5.449,-0.762 -0.623,-0.826 -0.937,-0.871 -5.553,-0.791 l -4.892,0.084 -1.498,-1.622 -1.497,-1.622 h -3.874 c -2.743,0 -3.923,0.146 -4.042,0.5 m 2.193,7.1 c 0,0.66 -0.084,1.2 -0.186,1.2 -0.384,0 -1.041,-1.632 -0.809,-2.008 0.483,-0.781 0.995,-0.365 0.995,0.808 m 6.977,0.917 c -0.834,0.467 -1.493,-0.15 -1.141,-1.067 0.247,-0.645 0.308,-0.644 1.029,0.008 0.694,0.629 0.705,0.727 0.112,1.059 m 30.367,-0.434 c 0.291,0.461 0.2,0.943 -0.329,1.75 l -0.73,1.114 -0.942,-1.096 c -1.168,-1.358 -1.174,-1.618 -0.043,-2.161 1.089,-0.524 1.517,-0.441 2.044,0.393 m 56.636,-0.494 c 0.932,0.499 1.4,2.312 0.788,3.049 -0.719,0.867 -4.87,0.754 -5.692,-0.154 -1.748,-1.931 2.272,-4.303 4.904,-2.895 m -77.778,0.415 c 0.753,1.218 -1.395,3.193 -2.502,2.301 -0.531,-0.428 -0.68,-1.991 -0.233,-2.438 0.415,-0.416 2.457,-0.314 2.735,0.137 m -16.602,2.842 c 0.33,-0.038 1.41,-0.109 2.4,-0.158 L 187.4,203 v 2.6 c 0,2.996 -0.596,3.409 -3.162,2.191 -0.765,-0.363 -1.731,-0.552 -2.147,-0.42 -0.479,0.152 -1.02,-0.05 -1.474,-0.552 -0.506,-0.559 -0.911,-0.69 -1.372,-0.443 -0.728,0.39 -2.74,0.118 -3.069,-0.415 -0.596,-0.965 0.707,-2.055 2.213,-1.853 1.173,0.157 1.661,0.026 2.185,-0.586 0.444,-0.519 0.907,-0.689 1.351,-0.498 0.371,0.161 0.945,0.26 1.275,0.222 m 14.4,3.354 c 0.67,0.807 -0.137,1.8 -1.462,1.8 -0.529,0 -1.067,-0.27 -1.193,-0.6 -0.377,-0.983 0.165,-1.8 1.193,-1.8 0.53,0 1.188,0.27 1.462,0.6 m 21.857,0.005 c 0.261,0.679 -0.504,1.795 -1.23,1.795 -1.122,0 -2.023,-1.082 -1.463,-1.757 0.675,-0.813 2.387,-0.837 2.693,-0.038 m -43.686,6.424 c 0.346,0.345 0.629,1.071 0.629,1.612 0,0.541 0.27,1.088 0.6,1.214 0.33,0.127 0.6,0.552 0.6,0.945 0,0.393 -0.27,0.818 -0.6,0.945 -0.378,0.145 -0.6,0.757 -0.6,1.655 0,0.995 -0.211,1.501 -0.7,1.677 -0.385,0.138 -1.022,0.582 -1.416,0.987 -0.956,0.983 -5.126,1.05 -5.919,0.094 -0.292,-0.353 -0.945,-0.798 -1.449,-0.99 -1.484,-0.564 -1.371,-6.05 0.159,-7.646 1.311,-1.369 7.472,-1.718 8.696,-0.493 m 69.893,0.643 c 1.353,1.515 1.357,1.55 0.336,2.728 -0.44,0.507 -0.8,1.339 -0.8,1.847 0,0.515 -0.354,1.114 -0.8,1.353 -0.509,0.272 -0.8,0.838 -0.8,1.552 0,0.618 -0.36,1.45 -0.8,1.848 -0.44,0.398 -0.8,1.14 -0.8,1.648 0,0.514 -0.354,1.114 -0.8,1.352 -0.519,0.278 -0.8,0.838 -0.8,1.594 0,0.651 -0.282,1.324 -0.638,1.523 -0.35,0.196 -0.762,0.97 -0.914,1.72 -0.411,2.017 -4.197,2.276 -6.058,0.414 l -1.19,-1.189 v -7.177 c 0,-6.34 0.085,-7.288 0.732,-8.131 0.402,-0.525 0.847,-1.269 0.987,-1.654 0.227,-0.62 0.881,-0.7 5.733,-0.7 h 5.477 l 1.135,1.272 M 194.013,224.2 c 0.117,5.5 0.065,10.315 -0.114,10.7 -0.606,1.297 -10.655,1.022 -12.268,-0.336 -1.576,-1.326 -1.861,-5.399 -0.431,-6.164 0.446,-0.238 0.8,-0.838 0.8,-1.352 0,-0.508 0.35,-1.241 0.778,-1.628 0.428,-0.387 0.833,-1.269 0.9,-1.96 0.101,-1.046 0.323,-1.291 1.322,-1.464 1.013,-0.175 1.2,-0.39 1.2,-1.38 0,-0.922 0.215,-1.224 1,-1.411 0.854,-0.202 1.019,-0.497 1.128,-2.02 0.183,-2.549 0.961,-3.249 3.45,-3.103 l 2.022,0.118 0.213,10 m -52.84,-1.75 c -0.221,0.413 -0.653,0.75 -0.96,0.75 -0.78,0 -1.181,-1.516 -0.589,-2.229 0.749,-0.902 2.122,0.409 1.549,1.479 m 60.883,7.316 c 0.464,1.745 0.553,1.76 10.67,1.812 5.166,0.027 9.546,0.143 9.734,0.259 0.511,0.316 0.409,2.734 -0.14,3.283 -0.731,0.731 -18.595,0.667 -20.612,-0.074 -0.829,-0.304 -2.273,-0.761 -3.208,-1.016 -1.758,-0.478 -2.37,-1.687 -1.1,-2.175 0.369,-0.141 0.6,-0.748 0.6,-1.576 0,-2.384 3.444,-2.82 4.056,-0.513"
       inkscape:connector-curvature="0"
       style="fill:#060606;fill-rule:evenodd;stroke:none" />
    <path
       id="path1"
       d="m -935.59322,264.40678 v 200 h 200 200 v -200 -200 h -200 -200 v 200 m 190.8,-7.787 c 0,0.336 0.315,0.73 0.7,0.875 0.385,0.144 0.907,0.539 1.161,0.877 0.809,1.081 6.346,1.143 6.917,0.077 0.57,-1.065 1.862,-1.087 2.422,-0.042 0.235,0.44 0.671,0.8 0.967,0.8 0.297,0 0.636,0.366 0.753,0.814 0.199,0.763 0.475,0.807 4.346,0.7 l 4.134,-0.114 0.124,-1.5 c 0.12,-1.449 2.476,-2.466 2.476,-1.069 0,0.237 0.52,0.951 1.156,1.586 l 1.156,1.156 26.977,0.018 c 26.47,0.018 26.995,0.003 27.906,-0.786 1.731,-1.502 5.479,-1.149 7.095,0.668 l 1.31,1.472 v 6.12 6.119 l -8.7,0.108 -8.7,0.108 -0.128,1.792 c -0.178,2.513 -0.552,2.808 -3.558,2.808 -2.252,0 -2.616,0.104 -2.798,0.8 -0.115,0.44 -0.382,0.8 -0.593,0.8 -0.803,0 -2.723,2.366 -2.723,3.355 0,0.607 -0.322,1.189 -0.8,1.445 -0.555,0.297 -0.8,0.838 -0.8,1.767 0,1.003 -0.201,1.392 -0.8,1.549 -0.606,0.159 -0.8,0.546 -0.8,1.6 0,1.054 -0.194,1.441 -0.8,1.6 -0.598,0.156 -0.801,0.547 -0.803,1.547 -10e-4,0.735 -0.36,1.877 -0.797,2.537 -0.437,0.66 -0.796,1.689 -0.797,2.286 -0.002,0.675 -0.306,1.248 -0.803,1.514 -0.44,0.235 -0.8,0.692 -0.8,1.014 0,0.322 -0.248,0.586 -0.551,0.586 -0.303,0 -0.798,0.367 -1.1,0.816 -0.851,1.264 -64.821,1.244 -67.249,-0.021 -0.882,-0.46 -2.307,-0.795 -3.381,-0.795 -1.181,0 -2.128,-0.246 -2.602,-0.676 -0.462,-0.418 -1.661,-0.741 -3.144,-0.849 -1.821,-0.131 -2.494,-0.353 -2.799,-0.924 -0.313,-0.584 -0.856,-0.751 -2.444,-0.751 -1.458,0 -2.184,-0.194 -2.538,-0.678 -0.353,-0.483 -1.26,-0.727 -3.155,-0.847 -2.085,-0.133 -2.747,-0.332 -3.062,-0.922 -0.314,-0.587 -0.856,-0.753 -2.458,-0.753 -1.367,0 -2.304,-0.226 -2.8,-0.676 -0.462,-0.418 -1.661,-0.741 -3.144,-0.849 -1.821,-0.131 -2.494,-0.353 -2.799,-0.924 -0.524,-0.978 -1.664,-0.957 -2.574,0.049 -0.565,0.624 -1.232,0.8 -3.039,0.8 h -2.316 l -0.122,-11.559 c -0.11,-10.341 -0.197,-11.64 -0.823,-12.331 -0.841,-0.929 -1.006,-6.044 -0.22,-6.83 0.295,-0.295 1.739,-0.48 3.746,-0.48 2.66,0 3.455,-0.148 4.283,-0.8 0.967,-0.76 1.63,-0.8 13.354,-0.809 11.426,-0.008 12.466,-0.067 14.081,-0.8 1.163,-0.527 2.607,-0.791 4.337,-0.791 2.257,0 2.621,-0.104 2.803,-0.8 0.255,-0.973 2.165,-1.104 2.916,-0.2 0.96,1.157 2,0.741 2,-0.8 v -1.4 h 5.2 c 4.403,0 5.2,0.094 5.2,0.613 m 83.345,8.787 c -0.343,0.893 0.134,1.801 0.942,1.794 1.21,-0.011 1.642,-0.516 1.276,-1.494 -0.385,-1.028 -1.862,-1.227 -2.218,-0.3 m -88.2,4.7 c 0.13,1.332 0.234,1.527 0.482,0.9 0.495,-1.252 0.424,-2.6 -0.138,-2.6 -0.36,0 -0.461,0.501 -0.344,1.7 m -4.539,-0.51 c -0.323,0.523 0.598,0.966 1.056,0.508 0.256,-0.256 0.179,-0.474 -0.222,-0.627 -0.338,-0.13 -0.713,-0.076 -0.834,0.119 m -13.506,9.204 c -1.654,1.737 -1.454,5.401 0.318,5.846 0.508,0.128 1.234,0.576 1.615,0.996 0.842,0.931 1.894,0.979 2.747,0.127 0.35,-0.35 1.128,-0.767 1.728,-0.927 1.653,-0.44 1.85,-4.641 0.292,-6.2 -1.566,-1.566 -5.139,-1.482 -6.7,0.158 m 66.367,-0.927 c -0.147,0.146 -0.267,0.658 -0.267,1.138 0,0.479 -0.36,1.197 -0.8,1.595 -1.203,1.088 -1.236,13.361 -0.037,13.674 0.42,0.11 0.856,0.554 0.969,0.987 0.398,1.521 3.636,0.872 3.793,-0.76 0.076,-0.784 0.433,-1.464 0.9,-1.715 0.53,-0.283 0.775,-0.838 0.775,-1.753 0,-1.003 0.201,-1.392 0.8,-1.549 0.58,-0.152 0.8,-0.546 0.8,-1.432 0,-0.814 0.268,-1.367 0.8,-1.652 0.555,-0.297 0.8,-0.838 0.8,-1.767 0,-0.976 0.205,-1.393 0.753,-1.537 0.86,-0.225 1.348,-3.057 0.792,-4.596 -0.325,-0.899 -9.252,-1.46 -10.078,-0.633 m -43.977,2.439 c -0.796,0.831 -1.09,1.548 -1.09,2.658 0,1.942 -1.593,3.954 -3.352,4.236 -1.114,0.179 -1.261,0.363 -1.373,1.722 -0.07,0.844 -0.377,1.619 -0.69,1.739 -0.31,0.119 -0.675,0.812 -0.812,1.541 -0.156,0.834 -0.531,1.398 -1.011,1.524 -1.056,0.276 -1.108,3.39 -0.062,3.72 0.385,0.122 1.34,0.488 2.122,0.813 0.85,0.354 2.938,0.622 5.2,0.666 l 3.778,0.075 v -9.8 c 0,-10.962 -0.176,-11.539 -2.71,-8.894 m 8.68,13.828 c -0.124,0.324 -0.169,1.192 -0.098,1.928 l 0.128,1.338 4.8,0.451 c 2.64,0.249 5.61,0.649 6.6,0.891 4.478,1.091 11.2,0.416 11.2,-1.125 0,-0.78 -0.289,-0.806 -10.1,-0.91 l -10.1,-0.107 -0.2,-1.4 c -0.216,-1.512 -1.773,-2.256 -2.23,-1.066"
       inkscape:connector-curvature="0"
       style="fill:#fcfcfc;fill-rule:evenodd;stroke:none" />
    <path
       id="path2"
       d="m 180.88,192.08 c -0.264,0.264 -0.48,0.971 -0.48,1.572 0,0.809 -0.234,1.143 -0.9,1.286 -0.793,0.17 -0.781,0.185 0.1,0.128 0.821,-0.054 1.036,-0.317 1.2,-1.466 l 0.2,-1.4 4.348,-0.114 4.349,-0.114 1.49,1.614 1.49,1.614 h 3.288 c 1.808,0 3.634,-0.185 4.058,-0.412 0.898,-0.481 2.926,0.38 3.321,1.41 0.203,0.529 0.952,0.61 4.749,0.515 l 4.507,-0.113 0.131,-1.2 c 0.219,-2.013 0.755,-2.078 2.296,-0.276 l 1.435,1.676 h 27.525 c 26.569,0 27.586,-0.027 29.269,-0.791 1.04,-0.472 1.421,-0.79 0.944,-0.787 -0.44,0.002 -1.149,0.268 -1.576,0.591 -0.666,0.503 -4.73,0.587 -28.391,0.587 h -27.614 l -1.482,-1.671 c -1.672,-1.884 -2.737,-1.682 -2.737,0.52 V 196.4 H 208 c -2.42,0 -4.4,-0.159 -4.4,-0.353 0,-1.023 -2.844,-2.531 -3.556,-1.886 -0.527,0.476 -1.543,0.639 -3.988,0.639 h -3.281 l -1.471,-1.6 -1.471,-1.6 h -4.237 c -2.761,0 -4.403,0.167 -4.716,0.48 m -4.8,1.6 c -0.264,0.264 -0.48,0.823 -0.48,1.243 0,0.519 -0.192,0.685 -0.6,0.52 -1.776,-0.719 -1.863,-0.665 -0.482,0.298 2.306,1.609 3.652,1.194 2.011,-0.619 -1.006,-1.112 -0.057,-1.943 1.062,-0.931 0.949,0.86 1.1,0.557 0.18,-0.362 -0.754,-0.755 -1.058,-0.782 -1.691,-0.149 m 100.72,1.978 c 2.519,1.706 3.237,3.818 3.11,9.142 l -0.11,4.6 -8.369,0.108 c -9.095,0.118 -9.431,0.2 -9.431,2.312 0,0.728 -0.283,1.606 -0.629,1.951 -0.345,0.346 -0.457,0.629 -0.249,0.629 0.701,0 1.217,-0.998 1.348,-2.605 l 0.13,-1.595 8.369,-0.108 c 10.09,-0.131 9.432,0.235 9.429,-5.241 -0.003,-6.105 -1.217,-9.1 -3.998,-9.866 -0.825,-0.227 -0.755,-0.109 0.4,0.673 m -106.104,-0.074 c -0.828,0.16 -1.638,0.43 -1.8,0.599 -0.414,0.432 3.218,-0.184 3.684,-0.624 0.428,-0.405 0.323,-0.403 -1.884,0.025 m -19.796,1.115 c 3.245,0.067 8.555,0.067 11.8,0 3.245,-0.067 0.59,-0.122 -5.9,-0.122 -6.49,0 -9.145,0.055 -5.9,0.122 m -9.124,0.688 c -0.427,0.323 -0.587,0.593 -0.356,0.6 0.231,0.007 0.591,-0.152 0.8,-0.353 0.209,-0.202 0.83,-0.447 1.38,-0.546 l 1,-0.179 -1.024,-0.055 c -0.562,-0.029 -1.372,0.21 -1.8,0.533 m -5.465,0.906 c 0.94,0.085 2.38,0.084 3.2,-0.002 0.819,-0.086 0.049,-0.155 -1.711,-0.154 -1.76,0.002 -2.43,0.072 -1.489,0.156 m 137.369,2.187 c -1.357,1.357 -0.322,2.725 2.053,2.714 1.927,-0.009 2.46,-0.483 1.848,-1.643 -0.838,-1.592 -2.833,-2.139 -3.901,-1.071 m -141.109,1.636 c 0.074,1.054 0.426,2.238 0.782,2.632 0.564,0.624 0.647,2.174 0.647,12.135 0,12.755 -0.029,12.621 2.653,12.186 0.795,-0.129 1.753,-0.512 2.128,-0.852 0.901,-0.815 2.77,-0.785 3.702,0.059 0.46,0.415 1.657,0.741 3.112,0.846 1.65,0.12 2.572,0.399 3.047,0.925 0.476,0.526 1.227,0.753 2.488,0.753 1.135,0 2.085,0.251 2.553,0.676 0.501,0.452 1.566,0.706 3.232,0.768 l 2.485,0.093 -2.2,-0.269 c -1.21,-0.149 -2.645,-0.584 -3.189,-0.969 -0.597,-0.422 -1.722,-0.699 -2.838,-0.699 -1.341,0 -2.048,-0.22 -2.573,-0.8 -0.523,-0.578 -1.234,-0.801 -2.562,-0.803 -1.161,-0.001 -2.28,-0.295 -3.038,-0.797 -1.539,-1.019 -2.997,-1.011 -4.758,0.028 -0.782,0.462 -1.9,0.772 -2.523,0.7 L 134.6,228.6 134.494,217.077 c -0.092,-10.014 -0.195,-11.659 -0.78,-12.552 -0.371,-0.566 -0.81,-1.77 -0.975,-2.677 l -0.302,-1.648 0.134,1.916 m 86.846,-1.344 c -0.273,0.442 0.358,0.92 0.727,0.55 0.381,-0.38 0.31,-0.922 -0.12,-0.922 -0.207,0 -0.48,0.168 -0.607,0.372 m 57.544,0.493 c 0.819,1.17 0.487,1.535 -1.397,1.535 -1.643,0 -2.272,-0.622 -1.819,-1.8 0.357,-0.931 2.502,-0.754 3.216,0.265 m -92.628,2.702 c -0.903,0.71 -1.109,0.737 -1.777,0.231 -1.042,-0.789 -1.329,-0.739 -1.716,0.302 -0.406,1.092 -0.193,1.756 0.669,2.086 0.582,0.224 0.586,0.177 0.039,-0.469 -0.574,-0.678 -0.585,-2.316 -0.014,-2.026 0.146,0.074 0.761,0.383 1.366,0.686 1.335,0.669 1.401,1.109 0.2,1.341 -0.772,0.148 -0.743,0.181 0.2,0.228 0.605,0.029 1.471,0.425 1.925,0.879 1.261,1.261 1.775,0.781 1.775,-1.658 0,-2.513 -0.855,-3.026 -2.667,-1.6 m 2.467,1.666 c 0,2.463 -0.697,2.495 -1.414,0.065 -0.532,-1.802 -0.436,-2.098 0.681,-2.098 0.615,0 0.733,0.328 0.733,2.033 m 8.6,1.167 c -0.565,0.915 0.39,1.457 1.4,0.794 0.533,-0.35 0.533,-0.438 0,-0.788 -0.766,-0.503 -1.092,-0.504 -1.4,-0.006 m 22.384,0.027 c -0.145,0.234 -0.156,0.534 -0.024,0.666 0.132,0.132 0.243,-0.015 0.246,-0.326 0.005,-0.467 0.075,-0.461 0.394,0.033 0.331,0.513 0.389,0.498 0.394,-0.1 0.007,-0.775 -0.599,-0.939 -1.01,-0.273 m -50.33,7.116 c -1.002,1.046 -1.083,1.361 -0.952,3.7 l 0.144,2.557 0.077,-2.63 c 0.107,-3.65 0.886,-4.372 4.703,-4.364 1.526,0.003 2.979,0.138 3.229,0.3 0.866,0.559 1.764,3.311 1.34,4.104 -0.217,0.406 -0.396,1.154 -0.398,1.664 -0.007,2.117 -4.719,3.475 -6.688,1.926 -0.559,-0.44 -1.214,-0.8 -1.456,-0.8 -0.241,0 0.224,0.45 1.033,1 2.56,1.74 7.514,0.379 7.514,-2.064 0,-0.544 0.179,-1.324 0.398,-1.733 0.495,-0.923 -0.78,-4.157 -1.792,-4.545 -2.011,-0.772 -6.042,-0.273 -7.152,0.885 m 66.413,-0.876 c -0.147,0.146 -0.264,0.461 -0.261,0.7 0.004,0.241 0.153,0.201 0.338,-0.09 0.252,-0.398 1.582,-0.494 5.557,-0.4 2.873,0.068 5.141,-0.012 5.038,-0.177 -0.23,-0.371 -10.303,-0.402 -10.672,-0.033 m 11.29,1.416 c 0.423,0.563 0.402,0.841 -0.122,1.589 -0.349,0.498 -0.635,1.273 -0.635,1.721 0,0.448 -0.36,1.039 -0.8,1.314 -0.487,0.304 -0.8,0.933 -0.8,1.607 0,0.613 -0.357,1.414 -0.8,1.793 -0.44,0.377 -0.8,1.094 -0.8,1.593 0,0.499 -0.36,1.132 -0.8,1.407 -0.487,0.304 -0.8,0.933 -0.8,1.607 0,0.613 -0.357,1.414 -0.8,1.793 -0.44,0.377 -0.8,1.137 -0.8,1.689 0,1.479 -3.092,1.476 -4.572,-0.005 -0.987,-0.986 -1.011,-1.155 -1.129,-7.7 l -0.12,-6.691 -0.089,6.731 -0.09,6.731 1.191,1.191 c 1.661,1.661 4.935,1.589 5.132,-0.111 0.067,-0.583 0.472,-1.375 0.9,-1.762 0.427,-0.387 0.777,-1.21 0.777,-1.828 0,-0.714 0.291,-1.28 0.8,-1.552 0.446,-0.238 0.8,-0.838 0.8,-1.352 0,-0.508 0.36,-1.25 0.8,-1.648 0.44,-0.398 0.8,-1.23 0.8,-1.848 0,-0.714 0.291,-1.28 0.8,-1.552 0.44,-0.235 0.8,-0.832 0.8,-1.325 0,-0.493 0.292,-1.314 0.649,-1.823 0.603,-0.862 0.598,-0.972 -0.078,-1.589 -0.679,-0.619 -0.694,-0.618 -0.214,0.02 m -55.498,0.854 c -0.683,0.727 -0.874,1.318 -0.752,2.319 l 0.165,1.344 0.064,-1.438 c 0.078,-1.756 1.093,-2.762 2.788,-2.762 h 1.261 l 0.119,9.1 0.12,9.1 -0.012,-9.2 -0.012,-9.2 -1.412,-0.119 c -1.077,-0.091 -1.631,0.113 -2.329,0.856 m 64.992,1.041 c -1.131,1.117 -1.858,2.156 -1.732,2.474 0.182,0.457 0.223,0.455 0.249,-0.012 0.077,-1.356 3.606,-3.993 5.552,-4.147 l 1.88,-0.149 -2,-0.045 c -1.877,-0.043 -2.12,0.072 -3.949,1.879 M 188,219.926 c -0.33,0.354 -0.785,1.01 -1.011,1.457 -0.226,0.447 -0.946,0.905 -1.6,1.017 -0.967,0.166 -1.214,0.428 -1.324,1.402 -0.075,0.659 -0.345,1.468 -0.6,1.798 -0.405,0.522 -0.374,0.529 0.235,0.051 0.385,-0.302 0.7,-1.067 0.7,-1.7 0,-0.925 0.177,-1.152 0.9,-1.157 1.121,-0.008 1.464,-0.258 2.635,-1.925 1.006,-1.433 1.045,-1.997 0.065,-0.943 m 63.9,0.688 c -0.385,0.515 -0.7,1.391 -0.7,1.947 0,0.601 -0.324,1.184 -0.8,1.439 -0.521,0.279 -0.8,0.838 -0.8,1.6 0,0.762 -0.279,1.321 -0.8,1.6 -0.48,0.257 -0.8,0.838 -0.8,1.451 0,0.563 -0.36,1.48 -0.8,2.04 -0.44,0.559 -0.782,1.488 -0.759,2.063 0.038,0.964 0.065,0.946 0.344,-0.226 0.166,-0.7 0.598,-1.568 0.959,-1.929 0.361,-0.361 0.656,-1.14 0.656,-1.731 0,-0.642 0.322,-1.277 0.8,-1.575 0.485,-0.303 0.8,-0.933 0.8,-1.6 0,-0.667 0.315,-1.297 0.8,-1.6 0.475,-0.297 0.8,-0.933 0.8,-1.565 0,-0.586 0.299,-1.395 0.664,-1.799 0.366,-0.404 0.591,-0.805 0.5,-0.892 -0.09,-0.087 -0.479,0.263 -0.864,0.777 m -69.446,6.672 c -0.031,0.637 -0.385,1.263 -0.854,1.514 -2.067,1.106 -0.359,6.062 2.062,5.982 0.296,-0.009 -0.137,-0.374 -0.962,-0.809 -1.847,-0.975 -2.219,-3.862 -0.661,-5.124 0.573,-0.464 0.78,-0.991 0.654,-1.664 -0.18,-0.962 -0.185,-0.959 -0.239,0.101 m 16.232,1.762 c -0.157,0.157 -0.286,0.717 -0.286,1.245 0,0.528 -0.199,1.331 -0.441,1.784 -0.445,0.83 0.033,1.52 1.041,1.505 0.22,-0.004 0.084,-0.19 -0.303,-0.416 -0.542,-0.315 -0.61,-0.581 -0.3,-1.161 0.222,-0.414 0.403,-1.214 0.403,-1.779 0,-1.349 2.228,-1.543 2.525,-0.22 0.151,0.671 0.172,0.654 0.128,-0.1 -0.054,-0.915 -2.081,-1.544 -2.767,-0.858 m 13.74,3.248 9.626,0.118 -0.126,1.093 -0.126,1.093 -6.6,0.215 -6.6,0.215 6.451,0.085 c 6.957,0.092 7.552,-0.071 7.28,-1.993 l -0.131,-0.922 -9.7,-0.011 -9.7,-0.011 9.626,0.118 m -52.458,1.004 c 0.371,0.491 1.087,0.7 2.392,0.7 1.367,0 2.044,0.213 2.547,0.8 0.54,0.631 1.18,0.8 3.027,0.8 1.834,0 2.499,0.174 3.066,0.8 0.553,0.611 1.232,0.8 2.875,0.8 1.183,0 2.797,0.27 3.587,0.6 0.789,0.33 2.089,0.575 2.887,0.546 1.077,-0.041 1.193,-0.1 0.451,-0.228 -0.55,-0.096 -1.888,-0.431 -2.973,-0.746 -1.085,-0.315 -2.902,-0.572 -4.038,-0.572 -1.557,0 -2.243,-0.197 -2.789,-0.8 -0.562,-0.621 -1.232,-0.8 -3,-0.8 -1.768,0 -2.438,-0.179 -3,-0.8 -0.526,-0.581 -1.232,-0.8 -2.582,-0.8 -1.022,0 -2.11,-0.225 -2.419,-0.5 -0.477,-0.425 -0.481,-0.396 -0.031,0.2 m 33.232,0.82 c 0,0.559 -0.655,0.672 -4.5,0.781 l -4.5,0.128 4.513,0.085 c 4.387,0.084 5.801,-0.334 4.736,-1.398 -0.137,-0.137 -0.249,0.045 -0.249,0.404 m 8.6,0.06 c 0.88,0.335 2.68,0.582 4,0.551 l 2.4,-0.057 -2.6,-0.308 c -1.43,-0.169 -3.23,-0.417 -4,-0.55 l -1.4,-0.243 1.6,0.607 m 43.448,1.223 c -0.971,1.426 -2.048,1.858 -2.048,0.821 0,-0.819 -0.785,-1.199 -1.335,-0.648 -0.354,0.355 -0.242,0.636 0.466,1.171 2.059,1.556 0.942,1.641 -22.968,1.753 l -22.763,0.107 22.902,0.096 22.902,0.097 1.998,-2.041 c 1.099,-1.122 1.998,-2.202 1.998,-2.4 0,-0.569 -0.14,-0.442 -1.152,1.044 m -50.748,2.873 c 0.385,0.1 1.015,0.1 1.4,0 0.385,-0.101 0.07,-0.183 -0.7,-0.183 -0.77,0 -1.085,0.082 -0.7,0.183 m -9.4,0.421 c 1.595,0.076 4.205,0.076 5.8,0 1.595,-0.076 0.29,-0.138 -2.9,-0.138 -3.19,0 -4.495,0.062 -2.9,0.138"
       inkscape:connector-curvature="0"
       style="fill:#9c9c9c;fill-rule:evenodd;stroke:none" />
    <path
       id="path3"
       d="m 181.007,192.5 c -0.092,0.275 -0.222,0.948 -0.287,1.496 -0.16,1.332 -1.325,1.499 -2.808,0.402 -1.447,-1.069 -2.504,-0.515 -1.383,0.724 1.529,1.689 0.253,2.28 -1.739,0.807 -0.964,-0.713 -1.342,-0.791 -2.084,-0.433 -1.912,0.923 -3.29,1.031 -16.306,1.281 -11.567,0.222 -13.564,0.35 -14.6,0.937 -0.843,0.479 -2.122,0.682 -4.3,0.684 -4.556,0.003 -6.089,2.32 -3.905,5.902 0.734,1.203 0.801,2.147 0.899,12.8 l 0.106,11.5 1.119,0.128 c 0.623,0.072 1.741,-0.238 2.523,-0.7 1.761,-1.039 3.219,-1.047 4.758,-0.028 0.758,0.502 1.877,0.796 3.038,0.797 1.328,0.002 2.039,0.225 2.562,0.803 0.523,0.578 1.234,0.801 2.562,0.803 1.161,0.001 2.28,0.295 3.038,0.797 0.758,0.502 1.877,0.796 3.038,0.797 1.328,0.002 2.039,0.225 2.562,0.803 0.528,0.583 1.232,0.8 2.6,0.8 1.368,0 2.072,0.217 2.6,0.8 0.562,0.621 1.232,0.8 3,0.8 1.768,0 2.438,0.179 3,0.8 0.547,0.604 1.232,0.8 2.798,0.8 1.141,0 2.958,0.303 4.038,0.674 1.761,0.605 5.182,0.689 33.101,0.818 32.888,0.152 33.594,0.117 31.394,-1.545 -0.708,-0.535 -0.82,-0.816 -0.466,-1.171 0.55,-0.551 1.335,-0.171 1.335,0.648 0,1.065 1.083,0.588 2.146,-0.946 0.58,-0.836 1.054,-1.982 1.054,-2.546 0,-0.563 0.36,-1.482 0.8,-2.041 0.44,-0.56 0.8,-1.477 0.8,-2.04 0,-0.613 0.32,-1.194 0.8,-1.451 0.521,-0.279 0.8,-0.838 0.8,-1.6 0,-0.762 0.279,-1.321 0.8,-1.6 0.48,-0.257 0.8,-0.838 0.8,-1.451 0,-0.563 0.36,-1.48 0.8,-2.04 0.44,-0.559 0.8,-1.315 0.8,-1.68 0,-1.573 3.848,-4.429 5.966,-4.429 2.355,0 3.234,-0.701 3.234,-2.58 0,-2.112 0.336,-2.194 9.431,-2.312 l 8.369,-0.108 0.11,-4.6 c 0.173,-7.228 -2.004,-10.59 -5.827,-8.997 -1.8,0.75 -3.109,0.79 -29.747,0.896 l -27.865,0.112 -1.439,-1.682 c -1.546,-1.806 -2.082,-1.743 -2.301,0.271 l -0.131,1.2 -4.507,0.113 c -3.797,0.095 -4.546,0.014 -4.749,-0.515 -0.395,-1.03 -2.423,-1.891 -3.321,-1.41 -0.424,0.227 -2.267,0.41 -4.097,0.408 l -3.326,-0.004 -1.4,-1.592 -1.4,-1.592 -4.313,-0.004 c -3.096,-0.003 -4.359,0.137 -4.48,0.496 m 9.813,1.522 1.498,1.622 4.892,-0.084 c 4.616,-0.08 4.93,-0.035 5.553,0.791 0.625,0.828 0.923,0.87 5.449,0.762 L 213,197 l 0.125,-1.3 c 0.156,-1.619 0.222,-1.616 1.729,0.1 l 1.229,1.4 28.058,0.002 c 25.003,0.002 28.258,-0.07 29.89,-0.654 2.168,-0.777 3.779,-0.091 4.227,1.801 0.137,0.578 0.496,1.336 0.797,1.684 0.403,0.466 0.52,1.73 0.446,4.8 L 279.4,209 l -8.369,0.108 c -8.609,0.112 -9.431,0.265 -9.431,1.761 0,2.054 -1.112,3.131 -3.233,3.131 -2.194,0 -5.461,2.534 -6.165,4.781 -0.169,0.54 -0.554,1.228 -0.855,1.529 -0.301,0.301 -0.547,1.068 -0.547,1.704 0,0.748 -0.283,1.309 -0.8,1.586 -0.521,0.279 -0.8,0.838 -0.8,1.6 0,0.762 -0.279,1.321 -0.8,1.6 -0.546,0.292 -0.8,0.838 -0.8,1.718 0,0.856 -0.269,1.457 -0.8,1.789 -0.47,0.294 -0.8,0.933 -0.8,1.549 0,0.834 -0.987,2.997 -1.879,4.12 -0.077,0.097 -0.415,-0.218 -0.753,-0.7 -0.829,-1.184 -1.696,-1.104 -2.019,0.186 -0.195,0.778 -0.074,1.204 0.453,1.589 0.577,0.422 0.609,0.57 0.159,0.742 -0.418,0.16 -29.558,0.066 -46.961,-0.151 -0.66,-0.008 -3.383,0.079 -6.051,0.194 -4.03,0.174 -5.428,0.07 -8.255,-0.613 -1.872,-0.453 -4.64,-0.823 -6.152,-0.823 -2.316,0 -2.828,-0.126 -3.249,-0.8 -0.407,-0.652 -0.933,-0.8 -2.834,-0.8 -1.827,0 -2.493,-0.174 -3.059,-0.8 -0.533,-0.589 -1.232,-0.8 -2.648,-0.8 -1.514,0 -2.015,-0.17 -2.352,-0.8 -0.346,-0.646 -0.838,-0.8 -2.56,-0.8 -1.526,0 -2.421,-0.227 -3.149,-0.8 -0.729,-0.574 -1.623,-0.8 -3.158,-0.8 -1.707,0 -2.242,-0.162 -2.64,-0.8 -0.388,-0.622 -0.933,-0.8 -2.442,-0.8 -1.337,0 -2.26,-0.249 -2.96,-0.8 -1.415,-1.113 -4.605,-1.098 -6.037,0.029 -2.406,1.892 -2.433,1.774 -2.654,-11.234 -0.176,-10.386 -0.284,-11.913 -0.9,-12.784 -2.039,-2.881 -0.242,-4.811 4.481,-4.811 2.634,0 3.673,-0.164 4.43,-0.7 0.883,-0.625 2.503,-0.722 15.048,-0.9 12.656,-0.18 14.135,-0.27 14.831,-0.9 1.028,-0.931 1.259,-0.887 1.72,0.325 0.511,1.344 2.771,1.273 3.377,-0.106 0.274,-0.626 0.795,-0.915 1.8,-1 1.17,-0.099 1.434,-0.291 1.533,-1.119 0.238,-1.989 0.261,-2 4.329,-2 h 3.874 l 1.497,1.622 m -8.215,5.17 c -0.232,0.376 0.425,2.008 0.809,2.008 0.102,0 0.186,-0.54 0.186,-1.2 0,-1.173 -0.512,-1.589 -0.995,-0.808 m 6.831,0.658 c -0.352,0.917 0.307,1.534 1.141,1.067 0.593,-0.332 0.582,-0.43 -0.112,-1.059 -0.721,-0.652 -0.782,-0.653 -1.029,-0.008 m 29.464,0.24 c -1.131,0.543 -1.125,0.803 0.043,2.161 l 0.942,1.096 0.73,-1.114 c 1.127,-1.719 0.092,-3.012 -1.715,-2.143 m 53.908,0.794 c -1.148,1.887 -0.292,2.716 2.805,2.716 2.609,0 3.364,-0.555 2.958,-2.172 -0.572,-2.28 -4.483,-2.65 -5.763,-0.544 m -75.741,-0.617 c -0.447,0.447 -0.298,2.01 0.233,2.438 1.107,0.892 3.255,-1.083 2.502,-2.301 -0.278,-0.451 -2.32,-0.553 -2.735,-0.137 m 79.573,0.039 c 0.933,0.623 1.482,2.17 0.901,2.539 -1.466,0.929 -4.341,0.262 -4.341,-1.008 0,-1.554 2.043,-2.464 3.44,-1.531 m -56.24,0.427 c 0,0.521 -0.476,0.868 -0.862,0.628 -0.414,-0.255 -0.057,-0.961 0.486,-0.961 0.207,0 0.376,0.15 0.376,0.333 m -39.826,2.789 c -0.524,0.612 -1.012,0.743 -2.185,0.586 -1.506,-0.202 -2.809,0.888 -2.213,1.853 0.329,0.533 2.341,0.805 3.069,0.415 0.461,-0.247 0.866,-0.116 1.372,0.443 0.454,0.502 0.995,0.704 1.474,0.552 0.416,-0.132 1.382,0.057 2.147,0.42 2.566,1.218 3.162,0.805 3.162,-2.191 V 203 l -1.8,0.088 c -0.99,0.049 -2.07,0.12 -2.4,0.158 -0.33,0.038 -0.904,-0.061 -1.275,-0.222 -0.444,-0.191 -0.907,-0.021 -1.351,0.498 m 6.426,2.045 c 0,2.448 -0.514,2.919 -1.79,1.643 -0.621,-0.621 -1.261,-0.816 -2.452,-0.746 -1.741,0.103 -2.394,-0.44 -2.061,-1.715 0.29,-1.108 0.788,-1.275 1.764,-0.591 0.783,0.548 0.954,0.531 1.877,-0.195 1.808,-1.422 2.662,-0.907 2.662,1.604 m 7.945,1.033 c -0.377,0.983 0.165,1.8 1.193,1.8 1.325,0 2.132,-0.993 1.462,-1.8 -0.274,-0.33 -0.932,-0.6 -1.462,-0.6 -0.529,0 -1.067,0.27 -1.193,0.6 m 21.819,0.043 c -0.56,0.675 0.341,1.757 1.463,1.757 0.726,0 1.491,-1.116 1.23,-1.795 -0.306,-0.799 -2.018,-0.775 -2.693,0.038 m -19.964,0.163 c 0.533,0.35 0.533,0.438 0,0.788 -0.766,0.503 -1.092,0.504 -1.4,0.006 -0.565,-0.915 0.39,-1.457 1.4,-0.794 m 22,0.194 c 0,0.33 -0.27,0.6 -0.6,0.6 -0.625,0 -0.794,-0.473 -0.333,-0.933 0.46,-0.461 0.933,-0.292 0.933,0.333 m -51.725,6.522 c -1.53,1.596 -1.643,7.082 -0.159,7.646 0.504,0.192 1.157,0.637 1.449,0.99 0.793,0.956 4.963,0.889 5.919,-0.094 0.394,-0.405 1.031,-0.849 1.416,-0.987 0.489,-0.176 0.7,-0.682 0.7,-1.677 0,-0.898 0.222,-1.51 0.6,-1.655 0.33,-0.127 0.6,-0.552 0.6,-0.945 0,-0.393 -0.27,-0.818 -0.6,-0.945 -0.33,-0.126 -0.6,-0.673 -0.6,-1.214 0,-2.585 -7.104,-3.438 -9.325,-1.119 m 66.244,-0.422 c -0.14,0.385 -0.585,1.129 -0.987,1.654 -0.647,0.843 -0.732,1.791 -0.732,8.131 v 7.177 l 1.19,1.189 c 1.861,1.862 5.647,1.603 6.058,-0.414 0.152,-0.75 0.564,-1.524 0.914,-1.72 0.356,-0.199 0.638,-0.872 0.638,-1.523 0,-0.756 0.281,-1.316 0.8,-1.594 0.446,-0.238 0.8,-0.838 0.8,-1.352 0,-0.508 0.36,-1.25 0.8,-1.648 0.44,-0.398 0.8,-1.23 0.8,-1.848 0,-0.714 0.291,-1.28 0.8,-1.552 0.446,-0.239 0.8,-0.838 0.8,-1.353 0,-0.508 0.36,-1.34 0.8,-1.847 1.021,-1.178 1.017,-1.213 -0.336,-2.728 l -1.135,-1.272 h -5.477 c -4.852,0 -5.506,0.08 -5.733,0.7 m -58.713,-0.042 c 1.012,0.388 2.287,3.622 1.792,4.545 -0.219,0.409 -0.398,1.189 -0.398,1.733 0,2.621 -4.991,3.797 -7.828,1.845 -5.273,-3.628 0.186,-10.521 6.434,-8.123 m 70.536,0.949 c 0.823,1.114 0.845,1.277 0.275,2.089 -0.339,0.485 -0.617,1.286 -0.617,1.779 0,0.493 -0.36,1.09 -0.8,1.325 -0.509,0.272 -0.8,0.838 -0.8,1.552 0,0.618 -0.36,1.45 -0.8,1.848 -0.44,0.398 -0.8,1.14 -0.8,1.648 0,0.514 -0.354,1.114 -0.8,1.352 -0.509,0.272 -0.8,0.838 -0.8,1.552 0,0.618 -0.35,1.441 -0.777,1.828 -0.428,0.387 -0.833,1.179 -0.9,1.762 -0.197,1.7 -3.471,1.772 -5.132,0.111 L 232,229.662 v -6.394 c 0,-6.131 0.043,-6.478 1.057,-8.431 l 1.057,-2.037 h 5.068 5.068 l 0.892,1.207 m -56.036,0.676 c -0.358,0.395 -0.708,1.521 -0.778,2.502 -0.109,1.523 -0.274,1.818 -1.128,2.02 -0.785,0.187 -1,0.489 -1,1.411 0,0.99 -0.187,1.205 -1.2,1.38 -0.999,0.173 -1.221,0.418 -1.322,1.464 -0.067,0.691 -0.472,1.573 -0.9,1.96 -0.428,0.387 -0.778,1.12 -0.778,1.628 0,0.514 -0.354,1.114 -0.8,1.352 -1.43,0.765 -1.145,4.838 0.431,6.164 1.613,1.358 11.662,1.633 12.268,0.336 0.179,-0.385 0.231,-5.2 0.114,-10.7 l -0.213,-10 -2.022,-0.118 c -1.542,-0.09 -2.175,0.052 -2.672,0.601 M 193.4,224.8 V 235 h -5 c -6.367,0 -7.6,-0.619 -7.6,-3.813 0,-1.549 0.167,-2.048 0.8,-2.387 0.446,-0.238 0.8,-0.838 0.8,-1.352 0,-0.508 0.35,-1.241 0.778,-1.628 0.428,-0.387 0.833,-1.269 0.9,-1.96 0.101,-1.043 0.324,-1.291 1.311,-1.46 0.659,-0.113 1.374,-0.574 1.603,-1.033 0.227,-0.456 0.727,-1.143 1.111,-1.527 0.406,-0.406 0.697,-1.301 0.697,-2.143 0,-2.041 1.321,-3.373 3.188,-3.216 l 1.412,0.119 v 10.2 m -53.776,-3.829 c -0.592,0.713 -0.191,2.229 0.589,2.229 1.029,0 1.445,-1.423 0.631,-2.16 -0.64,-0.58 -0.789,-0.588 -1.22,-0.069 m 58.661,7.677 c -0.157,0.157 -0.285,0.891 -0.285,1.631 0,0.828 -0.231,1.435 -0.6,1.576 -1.27,0.488 -0.658,1.697 1.1,2.175 0.935,0.255 2.379,0.712 3.208,1.016 2.017,0.741 19.881,0.805 20.612,0.074 0.549,-0.549 0.651,-2.967 0.14,-3.283 -0.188,-0.116 -4.568,-0.232 -9.734,-0.259 -10.117,-0.052 -10.206,-0.067 -10.67,-1.812 -0.308,-1.161 -2.945,-1.943 -3.771,-1.118 m 3.239,1.423 c 0.212,1.837 0.598,1.909 10.908,2.022 l 9.768,0.107 0.131,0.922 c 0.302,2.129 -0.15,2.22 -9.79,1.959 -6.074,-0.164 -9.472,-0.425 -10.801,-0.832 -1.067,-0.325 -2.451,-0.703 -3.076,-0.837 -0.88,-0.19 -1.072,-0.4 -0.849,-0.929 0.158,-0.376 0.369,-1.133 0.469,-1.683 0.347,-1.917 0.476,-2.054 1.813,-1.926 1.077,0.104 1.324,0.312 1.427,1.197"
       inkscape:connector-curvature="0"
       style="fill:#646464;fill-rule:evenodd;stroke:none" />
    <path
       id="path4"
       d="m 177.893,194 c 0.386,0.451 1.126,0.776 1.696,0.746 0.899,-0.049 0.915,-0.074 0.14,-0.224 -0.479,-0.094 -1.086,-0.429 -1.349,-0.746 -0.263,-0.317 -0.634,-0.576 -0.825,-0.576 -0.191,0 -0.039,0.36 0.338,0.8 m 14.2,0 c 0.275,0.44 0.861,0.789 1.303,0.775 0.742,-0.024 0.734,-0.054 -0.096,-0.387 -0.495,-0.199 -0.9,-0.548 -0.9,-0.775 0,-0.227 -0.182,-0.413 -0.403,-0.413 -0.24,0 -0.2,0.326 0.096,0.8 m 7.463,0.1 c -0.47,0.895 -0.468,0.896 0.386,0.138 0.844,-0.749 0.872,-0.749 1.716,0 0.854,0.758 0.856,0.757 0.386,-0.138 -0.26,-0.495 -0.819,-0.9 -1.244,-0.9 -0.425,0 -0.984,0.405 -1.244,0.9 m -24.927,0.684 c -0.732,0.262 -0.734,0.29 -0.043,0.555 0.795,0.305 1.177,0.121 0.956,-0.46 -0.078,-0.205 -0.489,-0.247 -0.913,-0.095 m 40.571,0.133 c 0.33,0.286 0.847,0.781 1.149,1.101 0.47,0.498 0.486,0.459 0.111,-0.271 -0.241,-0.469 -0.758,-0.964 -1.149,-1.101 -0.619,-0.216 -0.633,-0.181 -0.111,0.271 m -47,0.705 c -1.718,0.813 -0.986,1.063 1.172,0.401 0.675,-0.208 1.858,-0.55 2.628,-0.76 l 1.4,-0.381 -1.8,-0.009 c -0.99,-0.004 -2.52,0.332 -3.4,0.749 M 272,195.6 c -1.053,0.913 -0.587,1.087 0.629,0.234 0.445,-0.311 1.34,-0.644 1.989,-0.74 1.095,-0.161 1.076,-0.179 -0.257,-0.234 -0.932,-0.039 -1.763,0.222 -2.361,0.74 m 5.051,-0.406 c 0.999,0.404 2.49,2.383 2.954,3.923 l 0.326,1.083 0.035,-1.227 c 0.041,-1.476 -2.166,-4.187 -3.376,-4.148 -0.744,0.024 -0.741,0.046 0.061,0.369 m -136.195,2.019 c -0.598,0.498 -0.737,0.787 -0.38,0.787 0.31,0 0.776,-0.212 1.036,-0.472 0.26,-0.26 1.241,-0.597 2.18,-0.75 l 1.708,-0.278 -1.8,-0.037 c -1.244,-0.025 -2.092,0.207 -2.744,0.75 m -7.976,1.267 c -0.264,0.264 -0.469,0.849 -0.455,1.3 0.024,0.768 0.049,0.762 0.391,-0.089 0.201,-0.501 0.774,-1.074 1.275,-1.275 0.851,-0.342 0.857,-0.367 0.089,-0.391 -0.451,-0.014 -1.036,0.191 -1.3,0.455 m 140.987,2.187 c -0.362,0.361 -0.339,1.641 0.033,1.871 0.165,0.102 0.3,-0.337 0.3,-0.976 0,-0.639 -0.015,-1.162 -0.033,-1.162 -0.019,0 -0.154,0.12 -0.3,0.267 m 2.511,0.606 c 0.273,0.768 0.245,1.129 -0.098,1.269 -0.272,0.11 -0.187,0.209 0.196,0.226 1.063,0.05 1.191,-0.601 0.32,-1.626 l -0.8,-0.942 0.382,1.073 m -143.953,2.578 c -0.014,0.468 0.234,1.066 0.551,1.329 0.317,0.263 0.652,0.87 0.746,1.349 0.141,0.728 0.178,0.694 0.224,-0.205 0.029,-0.592 -0.139,-1.196 -0.374,-1.341 -0.235,-0.146 -0.584,-0.651 -0.775,-1.124 l -0.346,-0.859 -0.026,0.851 m 52.689,-0.032 c -0.344,0.344 0.709,3.522 1.224,3.694 0.266,0.088 0.45,-0.243 0.434,-0.78 -0.026,-0.87 -0.05,-0.879 -0.345,-0.133 -0.248,0.628 -0.352,0.437 -0.481,-0.888 -0.124,-1.271 -0.014,-1.729 0.445,-1.854 0.386,-0.105 0.304,-0.182 -0.224,-0.212 -0.459,-0.025 -0.932,0.053 -1.053,0.173 m -4.022,0.95 c -0.115,0.441 -0.003,0.972 0.249,1.181 0.497,0.411 2.659,0.141 2.659,-0.332 0,-0.159 -0.495,-0.538 -1.1,-0.841 -0.605,-0.303 -1.212,-0.609 -1.349,-0.681 -0.137,-0.071 -0.343,0.232 -0.459,0.673 m 1.37,0.929 c -0.458,0.458 -1.379,0.015 -1.056,-0.508 0.121,-0.195 0.496,-0.249 0.834,-0.119 0.401,0.153 0.478,0.371 0.222,0.627 m 80.141,4.802 c -0.095,0.275 -0.224,1.126 -0.288,1.891 -0.084,1.017 -0.384,1.526 -1.115,1.894 -0.929,0.468 -0.94,0.504 -0.149,0.509 1.196,0.008 1.641,-0.703 1.809,-2.894 0.146,-1.901 0.066,-2.338 -0.257,-1.4 m -95.033,3.754 c -0.892,0.97 -0.902,1.019 -0.117,0.611 0.469,-0.243 0.958,-0.718 1.087,-1.054 0.328,-0.853 0.145,-0.769 -0.97,0.443 m 6.701,-0.358 c 0.401,0.383 0.861,0.878 1.023,1.1 0.187,0.258 0.296,0.233 0.3,-0.067 0.007,-0.573 -1.097,-1.729 -1.651,-1.729 -0.22,0 -0.072,0.313 0.328,0.696 m 70.113,0.261 c 0.2,0.526 0.265,1.381 0.144,1.9 l -0.219,0.943 0.661,-0.89 c 0.615,-0.828 0.615,-0.961 0,-1.9 -0.832,-1.27 -1.057,-1.29 -0.586,-0.053 m -10.738,0.294 c -0.025,0.358 -0.316,0.875 -0.646,1.149 -0.33,0.274 -0.6,0.696 -0.6,0.938 0,0.242 0.378,0.062 0.839,-0.399 0.486,-0.486 0.758,-1.154 0.646,-1.589 -0.148,-0.578 -0.203,-0.601 -0.239,-0.099 m -43.848,1.151 c -1.07,1.182 -0.497,1.368 0.603,0.196 0.516,-0.549 0.755,-0.998 0.531,-0.998 -0.225,0 -0.735,0.361 -1.134,0.802 m -14.174,1.198 c 0,1.142 0.075,1.271 0.408,0.7 0.277,-0.475 0.277,-0.925 0,-1.4 -0.333,-0.571 -0.408,-0.442 -0.408,0.7 M 254,217.472 c -0.887,0.938 -0.903,1.006 -0.147,0.604 0.469,-0.25 0.958,-0.729 1.087,-1.065 0.314,-0.817 0.228,-0.775 -0.94,0.461 m -87.154,2.028 c -0.026,0.516 0.187,0.9 0.5,0.9 0.3,0 1.004,0.36 1.563,0.8 1.291,1.015 1.829,1.036 0.924,0.036 -0.381,-0.42 -1.115,-0.87 -1.633,-1 -0.518,-0.13 -1.024,-0.551 -1.124,-0.936 -0.138,-0.526 -0.195,-0.477 -0.23,0.2 m 22,-0.384 c -0.051,0.567 -1.609,2.91 -2.246,3.378 -0.267,0.196 -0.267,0.296 0,0.3 0.69,0.01 2.663,-2.785 2.473,-3.506 -0.099,-0.379 -0.201,-0.456 -0.227,-0.172 m 63.954,0.553 c 0,0.257 -0.315,0.823 -0.7,1.258 -0.679,0.766 -0.673,0.775 0.2,0.317 0.758,-0.398 1.322,-2.044 0.7,-2.044 -0.11,0 -0.2,0.211 -0.2,0.469 m -80,1.531 c -1.187,1.03 -0.555,1.03 1,0 0.749,-0.496 0.96,-0.796 0.561,-0.797 -0.351,-0.002 -1.054,0.357 -1.561,0.797 m 10.699,4.577 c -0.384,0.281 -0.685,0.851 -0.667,1.267 0.024,0.574 0.087,0.611 0.264,0.156 0.129,-0.33 0.519,-0.81 0.868,-1.067 0.349,-0.257 0.545,-0.558 0.435,-0.668 -0.11,-0.11 -0.515,0.031 -0.9,0.312 m -44.516,2.251 c -0.146,0.235 -0.651,0.584 -1.124,0.775 -0.857,0.345 -0.857,0.346 -0.021,0.372 0.461,0.014 1.164,-0.335 1.562,-0.775 0.398,-0.44 0.527,-0.8 0.286,-0.8 -0.242,0 -0.558,0.193 -0.703,0.428 m 2.973,0.272 c 0.284,0.542 0.824,0.887 1.358,0.868 0.588,-0.021 0.684,-0.105 0.286,-0.252 -0.33,-0.121 -0.941,-0.512 -1.358,-0.868 -0.722,-0.617 -0.736,-0.605 -0.286,0.252 m 5.103,1.297 c 0.473,0.191 0.978,0.54 1.124,0.775 0.145,0.235 0.461,0.428 0.703,0.428 0.241,0 0.112,-0.36 -0.286,-0.8 -0.398,-0.44 -1.101,-0.789 -1.562,-0.775 -0.836,0.026 -0.836,0.027 0.021,0.372 m 100.434,1.311 c -0.381,0.47 -0.69,1.133 -0.686,1.473 0.003,0.344 0.382,0.033 0.85,-0.698 0.972,-1.518 0.862,-2.039 -0.164,-0.775 m -94.337,0.592 c 0.284,0.542 0.824,0.887 1.358,0.868 0.588,-0.021 0.684,-0.105 0.286,-0.252 -0.33,-0.121 -0.941,-0.512 -1.358,-0.868 -0.722,-0.617 -0.736,-0.605 -0.286,0.252 m 48.044,-0.087 c 0,0.336 0.278,0.719 0.617,0.849 0.904,0.347 0.952,0.036 0.116,-0.762 -0.62,-0.592 -0.733,-0.606 -0.733,-0.087 m -2.918,0.717 c -0.315,0.82 0.798,1.47 2.518,1.47 0.689,0 1.556,0.157 1.926,0.35 0.371,0.192 2.564,0.456 4.874,0.586 4.113,0.231 4.155,0.225 2.04,-0.306 -1.189,-0.299 -4.036,-0.671 -6.328,-0.827 -3.704,-0.252 -4.202,-0.375 -4.472,-1.108 -0.263,-0.709 -0.34,-0.732 -0.558,-0.165 m -39.582,0.682 c 0.495,0.199 0.9,0.548 0.9,0.775 0,0.227 0.182,0.413 0.403,0.413 0.24,0 0.2,-0.326 -0.096,-0.8 -0.275,-0.44 -0.861,-0.789 -1.303,-0.775 -0.742,0.024 -0.734,0.054 0.096,0.387 m 62.946,0.301 c -0.027,0.545 -0.408,1.058 -0.946,1.275 l -0.9,0.361 0.913,0.026 c 0.994,0.027 1.462,-0.715 1.167,-1.852 -0.146,-0.565 -0.197,-0.524 -0.234,0.19 M 181.2,233.02 c 0,0.562 3.419,1.773 4.884,1.73 l 1.716,-0.05 -1.6,-0.264 c -0.88,-0.145 -1.831,-0.407 -2.113,-0.582 -0.656,-0.406 -2.887,-1.051 -2.887,-0.834 m 65.2,1.049 c 0,0.257 -0.315,0.823 -0.7,1.258 -0.679,0.766 -0.673,0.775 0.2,0.317 0.758,-0.398 1.322,-2.044 0.7,-2.044 -0.11,0 -0.2,0.211 -0.2,0.469 m -76.941,1.928 c 0.473,0.191 0.978,0.54 1.124,0.775 0.145,0.235 0.461,0.428 0.703,0.428 0.241,0 0.112,-0.36 -0.286,-0.8 -0.398,-0.44 -1.101,-0.789 -1.562,-0.775 -0.836,0.026 -0.836,0.027 0.021,0.372 m 6.552,1.896 c 0.674,0.472 1.878,0.716 3.789,0.766 l 2.8,0.074 -2.2,-0.298 c -1.21,-0.164 -2.707,-0.509 -3.326,-0.767 -1.651,-0.686 -2.199,-0.571 -1.063,0.225 m 18.289,0.789 c 0.495,0.096 1.305,0.096 1.8,0 0.495,-0.095 0.09,-0.173 -0.9,-0.173 -0.99,0 -1.395,0.078 -0.9,0.173"
       inkscape:connector-curvature="0"
       style="fill:#bcbcbc;fill-rule:evenodd;stroke:none" />
  </g>
</svg>
