<svg id="svg" version="1.1" xmlns="http://www.w3.org/2000/svg" xmlns:xlink="http://www.w3.org/1999/xlink" width="400" height="400" viewBox="0, 0, 400,400"><g id="svgg"><path id="path0" d="M0.000 200.000 L 0.000 400.000 200.000 400.000 L 400.000 400.000 400.000 200.000 L 400.000 0.000 200.000 0.000 L 0.000 0.000 0.000 200.000 M187.823 182.907 C 190.051 185.114,189.194 185.000,203.590 185.000 C 210.965 185.000,219.520 184.867,222.600 184.704 C 237.518 183.916,246.396 183.565,252.691 183.514 C 261.589 183.443,261.269 183.220,261.112 189.373 L 261.000 193.800 258.000 194.000 C 255.081 194.195,254.997 194.230,254.873 195.300 C 254.761 196.280,254.876 196.400,255.924 196.400 C 257.760 196.400,258.044 197.093,257.916 201.260 L 257.800 205.000 250.800 205.081 C 241.445 205.190,238.079 205.437,237.315 206.071 C 236.812 206.489,232.933 206.621,218.865 206.700 C 201.673 206.796,201.022 206.828,200.200 207.600 C 199.732 208.040,199.034 208.400,198.651 208.400 C 198.267 208.400,195.802 210.573,193.172 213.228 C 188.356 218.092,187.145 218.803,186.876 216.923 C 186.796 216.369,187.050 215.894,187.576 215.613 C 189.156 214.767,188.687 212.649,186.419 210.381 L 184.438 208.400 180.788 208.400 C 176.598 208.400,174.800 209.457,174.800 211.920 C 174.800 212.570,174.530 213.326,174.200 213.600 C 173.312 214.337,172.400 213.413,172.400 211.775 C 172.400 211.045,172.227 210.340,172.015 210.209 C 171.527 209.908,170.000 211.406,170.000 212.186 C 170.000 212.508,169.640 212.965,169.200 213.200 C 168.760 213.435,168.400 213.998,168.400 214.451 C 168.400 214.904,168.760 215.731,169.200 216.291 C 169.640 216.850,170.000 217.570,170.000 217.890 C 170.000 218.210,170.405 218.804,170.900 219.210 C 171.769 219.923,171.775 219.973,171.074 220.674 C 170.373 221.375,170.323 221.369,169.594 220.480 C 168.929 219.669,168.543 219.575,166.320 219.680 L 163.800 219.800 163.675 221.099 C 163.599 221.883,163.242 222.563,162.775 222.814 C 162.217 223.112,162.000 223.654,162.000 224.752 C 162.000 225.768,161.733 226.517,161.200 227.000 C 160.758 227.400,160.400 228.232,160.400 228.859 C 160.400 229.560,160.095 230.184,159.600 230.493 C 158.382 231.254,158.401 237.359,159.624 238.013 C 160.152 238.295,160.404 238.769,160.324 239.327 C 160.143 240.600,157.059 240.832,156.412 239.622 C 156.045 238.938,155.583 238.800,153.648 238.800 C 151.832 238.800,151.166 238.625,150.600 238.000 C 150.124 237.474,149.368 237.200,148.392 237.200 C 147.534 237.200,146.496 236.876,145.930 236.431 C 145.393 236.008,144.333 235.603,143.576 235.531 L 142.200 235.400 142.085 231.672 C 141.986 228.492,142.089 227.750,142.785 226.625 C 143.287 225.812,143.600 224.619,143.600 223.515 C 143.600 222.232,143.827 221.519,144.400 221.000 C 144.893 220.554,145.200 219.768,145.200 218.952 C 145.200 218.038,145.447 217.496,146.000 217.200 C 146.440 216.965,146.800 216.416,146.800 215.982 C 146.800 215.548,147.160 214.884,147.600 214.507 C 148.040 214.130,148.400 213.676,148.400 213.497 C 148.400 213.318,149.840 211.733,151.600 209.976 C 155.903 205.678,156.078 204.033,152.600 200.583 C 149.276 197.285,149.773 196.400,154.950 196.400 C 156.706 196.400,158.066 196.217,158.225 195.959 C 158.375 195.717,159.106 195.264,159.849 194.954 C 160.946 194.496,161.200 194.170,161.200 193.223 C 161.200 192.582,161.493 191.764,161.852 191.405 C 162.210 191.047,162.595 189.939,162.708 188.943 C 162.835 187.809,163.146 187.042,163.539 186.891 C 164.625 186.474,165.974 184.643,165.987 183.567 C 166.006 182.003,165.809 182.031,176.712 182.022 C 186.746 182.013,186.936 182.029,187.823 182.907 M176.400 191.551 C 176.400 193.281,181.313 193.887,182.853 192.347 C 184.169 191.031,183.743 190.800,180.000 190.800 C 176.745 190.800,176.400 190.872,176.400 191.551 M194.243 191.131 C 193.770 191.897,194.513 193.200,195.424 193.200 C 196.371 193.200,197.736 191.744,197.360 191.135 C 197.092 190.702,194.510 190.698,194.243 191.131 M176.400 196.800 L 176.400 198.031 179.900 197.916 C 183.336 197.802,183.400 197.782,183.400 196.800 C 183.400 195.818,183.336 195.798,179.900 195.684 L 176.400 195.569 176.400 196.800 M176.682 200.652 C 175.330 202.003,176.414 202.800,179.600 202.800 C 181.360 202.800,182.935 202.800,183.100 202.800 C 183.265 202.800,183.400 202.305,183.400 201.700 C 183.400 200.606,177.628 199.706,176.682 200.652 M214.948 200.992 C 214.610 201.872,214.981 202.146,215.562 201.445 C 215.890 201.051,215.907 200.789,215.617 200.610 C 215.384 200.467,215.083 200.638,214.948 200.992 M229.200 200.800 C 229.200 201.046,231.208 201.200,234.424 201.200 C 237.804 201.200,239.560 201.059,239.400 200.800 C 239.257 200.568,237.063 200.400,234.176 200.400 C 231.125 200.400,229.200 200.555,229.200 200.800 M243.208 202.380 C 243.545 202.578,244.436 202.591,245.208 202.409 C 246.549 202.094,246.527 202.081,244.600 202.053 C 243.253 202.034,242.799 202.141,243.208 202.380 M247.633 202.144 C 248.083 202.534,252.400 202.769,252.400 202.403 C 252.400 202.176,251.325 202.000,249.933 202.000 C 248.577 202.000,247.542 202.065,247.633 202.144 M174.800 204.200 C 174.800 204.530,174.980 204.800,175.200 204.800 C 175.420 204.800,175.600 204.530,175.600 204.200 C 175.600 203.870,175.420 203.600,175.200 203.600 C 174.980 203.600,174.800 203.870,174.800 204.200 M185.600 204.800 C 186.134 205.797,189.600 205.994,189.600 205.028 C 189.600 204.713,190.005 204.378,190.500 204.282 C 190.995 204.187,189.999 204.084,188.286 204.054 C 185.288 204.002,185.188 204.030,185.600 204.800 M189.355 208.972 C 188.957 210.010,189.515 210.868,190.498 210.728 C 191.159 210.634,191.400 210.333,191.400 209.600 C 191.400 208.419,189.761 207.916,189.355 208.972 " stroke="none" fill="#fbfbfb" fill-rule="evenodd"></path><path id="path1" d="M166.800 184.169 C 166.800 185.271,166.488 185.805,165.200 186.907 C 163.874 188.042,163.600 188.527,163.600 189.742 C 163.600 190.713,163.330 191.439,162.800 191.893 C 162.360 192.270,162.000 193.062,162.000 193.654 C 162.000 195.223,159.213 197.200,157.001 197.200 C 156.099 197.200,155.163 197.397,154.923 197.637 C 154.607 197.953,154.250 197.948,153.635 197.619 C 150.875 196.142,152.214 199.772,155.047 201.445 C 155.694 201.828,155.787 202.319,155.707 204.945 C 155.621 207.808,156.064 208.942,156.661 207.385 C 156.791 207.047,157.460 206.502,158.149 206.174 C 159.718 205.427,160.954 204.702,161.667 204.110 C 161.972 203.858,163.116 203.595,164.210 203.526 C 166.109 203.406,166.206 203.343,166.320 202.166 C 166.504 200.285,165.851 200.037,160.375 199.913 C 156.270 199.820,155.400 199.695,155.400 199.200 C 155.400 198.719,156.434 198.515,160.600 198.173 C 167.121 197.638,168.000 197.919,168.000 200.534 C 168.000 201.476,168.264 202.596,168.587 203.024 C 169.428 204.134,169.388 204.214,167.429 205.362 C 166.048 206.171,165.122 206.400,163.225 206.400 C 161.287 206.400,160.653 206.563,160.107 207.200 C 159.730 207.640,159.184 208.000,158.894 208.000 C 158.052 208.000,154.339 211.673,153.737 213.100 C 153.436 213.815,153.024 214.400,152.822 214.400 C 152.619 214.400,152.330 214.805,152.180 215.300 C 152.029 215.795,151.678 216.470,151.400 216.800 C 151.122 217.130,150.759 217.850,150.592 218.400 C 150.426 218.950,149.955 219.829,149.545 220.354 C 149.135 220.879,148.800 221.764,148.800 222.322 C 148.800 222.880,148.509 223.659,148.153 224.052 C 147.797 224.446,147.428 225.630,147.334 226.684 C 146.959 230.886,145.406 234.571,144.521 233.360 C 143.763 232.323,143.883 230.657,144.800 229.491 C 145.349 228.793,145.601 227.865,145.603 226.537 C 145.604 225.277,145.883 224.180,146.400 223.400 C 146.837 222.740,147.196 221.609,147.197 220.887 C 147.199 220.129,147.438 219.484,147.764 219.359 C 148.074 219.239,148.436 218.710,148.569 218.181 C 148.828 217.151,150.269 214.874,151.342 213.800 C 152.143 213.000,152.209 211.600,151.447 211.600 C 151.142 211.600,150.799 211.960,150.684 212.400 C 150.569 212.840,150.233 213.207,149.937 213.216 C 149.642 213.224,148.953 214.149,148.406 215.271 C 147.859 216.393,147.094 217.509,146.706 217.752 C 146.242 218.041,146.000 218.690,146.000 219.642 C 146.000 220.486,145.666 221.517,145.200 222.109 C 144.680 222.770,144.399 223.735,144.397 224.863 C 144.396 225.923,144.085 227.068,143.600 227.800 C 142.988 228.723,142.805 229.679,142.803 231.947 L 142.800 234.893 143.864 234.690 C 145.171 234.440,147.059 235.055,147.355 235.828 C 147.494 236.189,148.151 236.400,149.134 236.400 C 150.086 236.400,151.087 236.711,151.709 237.200 C 152.390 237.736,153.332 238.000,154.560 238.000 C 155.960 238.000,156.511 238.189,156.893 238.800 C 157.196 239.286,157.826 239.600,158.496 239.600 C 159.799 239.600,159.912 239.187,158.800 238.493 C 158.093 238.051,158.000 237.560,158.000 234.251 C 158.000 231.114,158.129 230.343,158.800 229.491 C 159.240 228.931,159.600 228.121,159.600 227.691 C 159.600 227.260,159.960 226.450,160.400 225.891 C 160.840 225.331,161.200 224.409,161.200 223.840 C 161.200 223.240,161.535 222.597,162.000 222.307 C 162.461 222.019,162.800 221.374,162.800 220.784 C 162.800 219.184,163.512 218.800,166.480 218.800 C 169.490 218.800,169.541 218.760,168.400 217.309 C 167.914 216.691,167.600 215.686,167.600 214.749 C 167.600 213.640,167.825 213.066,168.400 212.707 C 168.840 212.432,169.200 211.814,169.200 211.332 C 169.200 210.205,170.212 209.200,171.349 209.200 C 172.551 209.200,173.200 209.929,173.200 211.280 C 173.200 211.896,173.380 212.400,173.600 212.400 C 173.820 212.400,174.002 211.905,174.004 211.300 C 174.014 208.750,176.145 207.600,180.859 207.600 L 185.033 207.600 186.504 209.200 C 188.253 211.102,188.400 211.139,188.400 209.680 C 188.400 208.282,189.056 207.600,190.400 207.600 C 191.722 207.600,192.400 208.278,192.400 209.600 C 192.400 210.944,191.718 211.600,190.320 211.600 C 189.243 211.600,189.200 211.676,189.200 213.600 C 189.200 216.126,188.874 216.275,193.472 211.649 C 195.633 209.476,197.789 207.579,198.264 207.433 C 198.739 207.288,199.346 206.906,199.613 206.585 C 200.000 206.118,201.342 206.000,206.249 206.000 L 212.400 206.000 212.400 204.003 C 212.400 202.440,212.574 201.898,213.200 201.507 C 213.640 201.232,214.000 200.776,214.000 200.494 C 214.000 200.211,214.450 199.809,215.000 199.600 C 215.550 199.391,216.000 199.035,216.000 198.810 C 216.000 198.077,214.744 198.377,213.458 199.417 C 212.766 199.976,211.784 200.741,211.275 201.117 C 210.766 201.493,210.051 202.115,209.686 202.500 C 209.321 202.885,208.820 203.200,208.572 203.200 C 208.325 203.200,207.707 203.560,207.200 204.000 C 206.693 204.440,205.956 204.800,205.562 204.800 C 204.523 204.800,204.136 203.925,204.955 203.425 C 205.338 203.191,206.225 202.489,206.926 201.865 C 207.627 201.241,208.705 200.467,209.321 200.144 C 210.339 199.612,210.791 199.256,212.834 197.381 C 213.182 197.062,213.727 196.800,214.045 196.800 C 214.362 196.800,215.057 196.496,215.588 196.123 C 216.603 195.412,219.110 195.350,219.779 196.019 C 220.020 196.260,219.917 196.400,219.499 196.400 C 218.608 196.400,216.800 197.247,216.800 197.664 C 216.800 198.330,220.808 198.044,221.071 197.360 C 221.206 197.007,221.095 196.582,220.824 196.415 C 219.909 195.849,224.926 195.633,239.172 195.624 C 253.607 195.616,253.816 195.596,254.066 194.200 C 254.192 193.495,254.571 193.386,257.273 193.284 L 260.336 193.167 260.225 189.578 C 260.059 184.228,260.358 184.400,251.227 184.400 C 244.931 184.400,243.631 184.503,242.829 185.065 C 241.975 185.663,239.271 185.748,215.830 185.919 L 189.779 186.110 188.057 184.455 L 186.335 182.800 181.347 182.800 L 176.358 182.800 175.932 184.022 C 175.438 185.439,173.913 185.559,173.658 184.200 C 173.434 183.007,172.882 182.813,169.700 182.806 L 166.800 182.800 166.800 184.169 M190.322 188.662 C 190.443 189.506,187.060 190.341,185.187 189.929 C 184.770 189.837,184.565 190.222,184.478 191.258 C 184.283 193.600,183.444 194.053,179.552 193.917 L 176.204 193.800 175.499 192.300 C 175.111 191.475,174.547 190.800,174.246 190.800 C 173.944 190.800,173.458 190.511,173.164 190.157 C 172.165 188.953,175.147 187.707,176.290 188.850 C 177.069 189.629,187.774 188.759,188.690 187.843 C 189.213 187.321,190.201 187.817,190.322 188.662 M198.000 190.000 C 198.884 190.884,198.999 191.825,198.410 193.374 C 197.893 194.734,194.308 194.922,193.614 193.626 C 191.899 190.422,195.470 187.470,198.000 190.000 M213.271 189.961 C 214.080 190.149,215.904 190.182,217.324 190.036 C 220.638 189.692,220.800 189.766,220.800 191.610 C 220.800 193.641,221.052 193.567,213.714 193.692 C 206.822 193.809,206.000 193.604,206.000 191.775 C 206.000 190.657,206.497 190.311,208.600 189.964 C 210.926 189.580,211.631 189.580,213.271 189.961 M183.920 195.280 C 184.184 195.544,184.400 196.228,184.400 196.800 C 184.400 198.522,183.745 198.800,179.694 198.800 C 174.630 198.800,172.643 197.276,175.289 195.423 C 176.401 194.644,183.172 194.532,183.920 195.280 M222.400 197.170 C 222.400 197.684,224.001 198.111,225.259 197.933 C 226.904 197.700,226.272 197.005,224.300 196.878 C 223.178 196.806,222.400 196.926,222.400 197.170 M227.825 198.678 C 227.532 199.444,228.448 199.532,239.593 199.814 C 246.080 199.978,250.080 200.239,250.593 200.532 C 251.037 200.785,252.019 201.177,252.776 201.402 C 253.848 201.722,254.226 202.098,254.488 203.106 C 254.772 204.204,255.005 204.400,256.028 204.400 L 257.234 204.400 257.117 201.311 L 257.000 198.223 242.511 198.194 C 231.064 198.171,227.981 198.273,227.825 198.678 M200.169 200.124 C 201.132 201.650,199.391 202.824,197.961 201.613 L 197.000 200.800 197.961 199.987 C 199.026 199.085,199.534 199.117,200.169 200.124 M183.920 200.080 C 184.184 200.344,184.400 201.064,184.400 201.680 L 184.400 202.800 188.056 202.800 C 191.074 202.800,191.802 202.678,192.229 202.100 C 193.399 200.517,193.720 202.190,192.651 204.300 C 191.382 206.803,191.445 206.788,182.520 206.795 L 175.241 206.800 174.022 205.500 C 172.507 203.883,172.505 203.642,174.000 203.078 C 174.906 202.735,175.200 202.372,175.200 201.592 C 175.200 201.025,175.416 200.344,175.680 200.080 C 176.331 199.429,183.269 199.429,183.920 200.080 M216.381 202.435 C 216.145 202.876,216.008 203.814,216.076 204.518 L 216.200 205.800 223.169 205.910 C 228.918 206.000,230.823 205.878,234.046 205.210 C 237.129 204.571,239.478 204.400,245.177 204.400 C 253.871 204.400,254.885 203.734,246.500 203.530 C 241.942 203.420,240.319 203.234,239.364 202.716 C 237.256 201.572,216.976 201.325,216.381 202.435 M158.157 203.033 C 158.595 204.173,158.413 204.800,157.645 204.800 C 157.113 204.800,156.839 204.447,156.715 203.600 C 156.520 202.275,157.690 201.815,158.157 203.033 M154.077 208.830 C 154.156 209.067,154.391 209.260,154.600 209.260 C 154.809 209.260,155.044 209.067,155.123 208.830 C 155.202 208.594,154.967 208.400,154.600 208.400 C 154.233 208.400,153.998 208.594,154.077 208.830 M152.400 210.600 C 152.400 210.967,152.594 211.202,152.830 211.123 C 153.066 211.045,153.260 210.809,153.260 210.600 C 153.260 210.391,153.066 210.155,152.830 210.077 C 152.594 209.998,152.400 210.233,152.400 210.600 " stroke="none" fill="#0d0d0d" fill-rule="evenodd"></path><path id="path2" d="M166.667 182.667 C 166.520 182.813,166.400 183.407,166.400 183.985 C 166.400 184.686,165.865 185.560,164.800 186.600 C 163.512 187.858,163.200 188.447,163.200 189.619 C 163.200 190.568,162.921 191.328,162.400 191.800 C 161.960 192.198,161.600 193.019,161.600 193.624 C 161.600 195.352,158.856 196.767,155.120 196.966 C 153.514 197.052,152.065 197.139,151.900 197.161 C 151.027 197.275,151.825 199.049,153.468 200.646 C 155.323 202.448,155.336 202.479,155.238 204.882 L 155.139 207.302 151.847 210.565 C 150.034 212.362,148.153 214.659,147.659 215.678 C 147.166 216.696,146.502 217.629,146.182 217.752 C 145.837 217.884,145.599 218.510,145.597 219.287 C 145.596 220.009,145.237 221.140,144.800 221.800 C 144.352 222.477,144.004 223.677,144.003 224.553 C 144.001 225.414,143.636 226.694,143.183 227.428 C 142.507 228.521,142.386 229.292,142.483 231.875 L 142.600 235.000 144.173 235.129 C 145.038 235.199,146.188 235.604,146.727 236.029 C 147.267 236.453,148.269 236.801,148.954 236.803 C 149.639 236.804,150.740 237.163,151.400 237.600 C 152.169 238.109,153.277 238.396,154.486 238.397 C 155.961 238.399,156.465 238.574,156.800 239.200 C 157.077 239.718,157.638 240.000,158.390 240.000 C 159.921 240.000,160.375 239.214,159.268 238.479 C 158.029 237.656,157.982 231.639,159.200 229.800 C 159.637 229.140,160.000 228.330,160.006 228.000 C 160.013 227.670,160.370 226.950,160.800 226.400 C 161.230 225.850,161.586 224.821,161.591 224.114 C 161.597 223.258,161.859 222.690,162.375 222.414 C 162.842 222.163,163.199 221.483,163.275 220.699 L 163.400 219.400 166.200 219.280 C 169.614 219.133,169.947 218.856,168.851 217.082 C 167.753 215.306,167.730 213.372,168.800 212.800 C 169.240 212.565,169.600 212.031,169.600 211.614 C 169.600 209.328,172.479 208.955,172.800 211.200 C 173.051 212.954,174.140 213.122,174.333 211.437 C 174.628 208.850,176.247 208.000,180.869 208.004 L 185.000 208.008 186.400 209.600 C 187.170 210.476,188.025 211.194,188.300 211.196 C 189.276 211.204,188.952 215.867,187.958 216.127 C 187.082 216.356,187.078 217.226,187.951 217.517 C 188.227 217.609,188.552 217.305,188.673 216.842 C 188.794 216.379,189.065 216.000,189.274 216.000 C 189.484 216.000,191.431 214.200,193.600 212.000 C 195.769 209.800,197.803 208.000,198.118 208.000 C 198.434 208.000,199.150 207.640,199.709 207.200 C 200.618 206.485,201.337 206.399,206.463 206.394 C 213.163 206.387,213.390 206.306,213.009 204.053 C 212.736 202.438,214.239 200.000,215.508 200.000 C 215.711 200.000,216.477 199.701,217.211 199.335 C 218.904 198.490,225.284 198.439,226.273 199.262 C 226.726 199.639,228.966 199.883,233.760 200.077 C 250.894 200.771,252.894 201.130,254.196 203.743 C 254.510 204.372,254.992 204.600,256.012 204.600 L 257.400 204.600 257.520 201.808 C 257.695 197.761,257.483 197.200,255.780 197.200 C 252.000 197.200,253.716 193.864,257.631 193.600 L 260.600 193.400 260.639 189.620 C 260.698 183.818,260.881 183.922,250.902 184.143 C 246.556 184.240,241.470 184.506,239.600 184.734 C 237.730 184.962,225.760 185.272,213.000 185.423 L 189.800 185.697 188.115 184.049 L 186.431 182.400 181.444 182.400 C 177.566 182.400,176.325 182.532,175.863 182.994 C 175.338 183.519,175.136 183.519,174.134 182.997 C 172.981 182.395,167.194 182.139,166.667 182.667 M173.054 183.106 C 173.303 183.268,173.575 183.760,173.658 184.200 C 173.913 185.559,175.438 185.439,175.932 184.022 L 176.358 182.800 181.347 182.800 L 186.335 182.800 188.057 184.455 L 189.779 186.110 215.830 185.919 C 239.271 185.748,241.975 185.663,242.829 185.065 C 243.631 184.503,244.931 184.400,251.227 184.400 C 260.358 184.400,260.059 184.228,260.225 189.578 L 260.336 193.167 257.273 193.284 C 254.571 193.386,254.192 193.495,254.066 194.200 C 253.816 195.596,253.607 195.616,239.172 195.624 C 224.926 195.633,219.909 195.849,220.824 196.415 C 221.095 196.582,221.206 197.007,221.071 197.360 C 220.808 198.044,216.800 198.330,216.800 197.664 C 216.800 197.247,218.608 196.400,219.499 196.400 C 219.917 196.400,220.020 196.260,219.779 196.019 C 219.110 195.350,216.603 195.412,215.588 196.123 C 215.057 196.496,214.362 196.800,214.045 196.800 C 213.727 196.800,213.182 197.062,212.834 197.381 C 210.791 199.256,210.339 199.612,209.321 200.144 C 208.705 200.467,207.627 201.241,206.926 201.865 C 206.225 202.489,205.338 203.191,204.955 203.425 C 204.136 203.925,204.523 204.800,205.562 204.800 C 205.956 204.800,206.693 204.440,207.200 204.000 C 207.707 203.560,208.325 203.200,208.572 203.200 C 208.820 203.200,209.321 202.885,209.686 202.500 C 210.051 202.115,210.766 201.493,211.275 201.117 C 211.784 200.741,212.766 199.976,213.458 199.417 C 214.744 198.377,216.000 198.077,216.000 198.810 C 216.000 199.035,215.550 199.391,215.000 199.600 C 214.450 199.809,214.000 200.211,214.000 200.494 C 214.000 200.776,213.640 201.232,213.200 201.507 C 212.574 201.898,212.400 202.440,212.400 204.003 L 212.400 206.000 206.249 206.000 C 201.342 206.000,200.000 206.118,199.613 206.585 C 199.346 206.906,198.739 207.288,198.264 207.433 C 197.789 207.579,195.633 209.476,193.472 211.649 C 188.874 216.275,189.200 216.126,189.200 213.600 C 189.200 211.676,189.243 211.600,190.320 211.600 C 191.718 211.600,192.400 210.944,192.400 209.600 C 192.400 208.278,191.722 207.600,190.400 207.600 C 189.056 207.600,188.400 208.282,188.400 209.680 C 188.400 211.139,188.253 211.102,186.504 209.200 L 185.033 207.600 180.859 207.600 C 176.145 207.600,174.014 208.750,174.004 211.300 C 174.002 211.905,173.820 212.400,173.600 212.400 C 173.380 212.400,173.200 211.896,173.200 211.280 C 173.200 209.929,172.551 209.200,171.349 209.200 C 170.212 209.200,169.200 210.205,169.200 211.332 C 169.200 211.814,168.840 212.432,168.400 212.707 C 167.825 213.066,167.600 213.640,167.600 214.749 C 167.600 215.686,167.914 216.691,168.400 217.309 C 169.541 218.760,169.490 218.800,166.480 218.800 C 163.512 218.800,162.800 219.184,162.800 220.784 C 162.800 221.374,162.461 222.019,162.000 222.307 C 161.535 222.597,161.200 223.240,161.200 223.840 C 161.200 224.409,160.840 225.331,160.400 225.891 C 159.960 226.450,159.600 227.260,159.600 227.691 C 159.600 228.121,159.240 228.931,158.800 229.491 C 158.129 230.343,158.000 231.114,158.000 234.251 C 158.000 237.560,158.093 238.051,158.800 238.493 C 159.912 239.187,159.799 239.600,158.496 239.600 C 157.826 239.600,157.196 239.286,156.893 238.800 C 156.511 238.189,155.960 238.000,154.560 238.000 C 153.332 238.000,152.390 237.736,151.709 237.200 C 151.087 236.711,150.086 236.400,149.134 236.400 C 148.151 236.400,147.494 236.189,147.355 235.828 C 147.059 235.055,145.171 234.440,143.864 234.690 L 142.800 234.893 142.803 231.947 C 142.805 229.679,142.988 228.723,143.600 227.800 C 144.085 227.068,144.396 225.923,144.397 224.863 C 144.399 223.735,144.680 222.770,145.200 222.109 C 145.666 221.517,146.000 220.486,146.000 219.642 C 146.000 218.690,146.242 218.041,146.706 217.752 C 147.094 217.509,147.859 216.393,148.406 215.271 C 148.953 214.149,149.642 213.224,149.937 213.216 C 150.233 213.207,150.569 212.840,150.684 212.400 C 150.799 211.960,151.142 211.600,151.447 211.600 C 152.209 211.600,152.143 213.000,151.342 213.800 C 150.269 214.874,148.828 217.151,148.569 218.181 C 148.436 218.710,148.074 219.239,147.764 219.359 C 147.438 219.484,147.199 220.129,147.197 220.887 C 147.196 221.609,146.837 222.740,146.400 223.400 C 145.883 224.180,145.604 225.277,145.603 226.537 C 145.601 227.865,145.349 228.793,144.800 229.491 C 143.883 230.657,143.763 232.323,144.521 233.360 C 145.406 234.571,146.959 230.886,147.334 226.684 C 147.428 225.630,147.797 224.446,148.153 224.052 C 148.509 223.659,148.800 222.880,148.800 222.322 C 148.800 221.764,149.135 220.879,149.545 220.354 C 149.955 219.829,150.426 218.950,150.592 218.400 C 150.759 217.850,151.122 217.130,151.400 216.800 C 151.678 216.470,152.029 215.795,152.180 215.300 C 152.330 214.805,152.619 214.400,152.822 214.400 C 153.024 214.400,153.436 213.815,153.737 213.100 C 154.339 211.673,158.052 208.000,158.894 208.000 C 159.184 208.000,159.730 207.640,160.107 207.200 C 160.653 206.563,161.287 206.400,163.225 206.400 C 165.122 206.400,166.048 206.171,167.429 205.362 C 169.388 204.214,169.428 204.134,168.587 203.024 C 168.264 202.596,168.000 201.476,168.000 200.534 C 168.000 197.919,167.121 197.638,160.600 198.173 C 156.434 198.515,155.400 198.719,155.400 199.200 C 155.400 199.695,156.270 199.820,160.375 199.913 C 165.851 200.037,166.504 200.285,166.320 202.166 C 166.206 203.343,166.109 203.406,164.210 203.526 C 163.116 203.595,161.972 203.858,161.667 204.110 C 160.954 204.702,159.718 205.427,158.149 206.174 C 157.460 206.502,156.791 207.047,156.661 207.385 C 156.064 208.942,155.621 207.808,155.707 204.945 C 155.787 202.319,155.694 201.828,155.047 201.445 C 152.214 199.772,150.875 196.142,153.635 197.619 C 154.250 197.948,154.607 197.953,154.923 197.637 C 155.163 197.397,156.099 197.200,157.001 197.200 C 159.213 197.200,162.000 195.223,162.000 193.654 C 162.000 193.062,162.360 192.270,162.800 191.893 C 163.330 191.439,163.600 190.713,163.600 189.742 C 163.600 188.527,163.874 188.042,165.200 186.907 C 166.488 185.805,166.800 185.271,166.800 184.169 L 166.800 182.800 169.700 182.806 C 171.295 182.809,172.804 182.944,173.054 183.106 M188.690 187.843 C 187.774 188.759,177.069 189.629,176.290 188.850 C 175.147 187.707,172.165 188.953,173.164 190.157 C 173.458 190.511,173.944 190.800,174.246 190.800 C 174.547 190.800,175.111 191.475,175.499 192.300 L 176.204 193.800 179.552 193.917 C 183.444 194.053,184.283 193.600,184.478 191.258 C 184.565 190.222,184.770 189.837,185.187 189.929 C 187.060 190.341,190.443 189.506,190.322 188.662 C 190.201 187.817,189.213 187.321,188.690 187.843 M175.988 189.385 C 176.335 189.804,177.520 190.004,180.137 190.085 L 183.800 190.200 183.738 191.529 C 183.652 193.356,183.561 193.400,179.874 193.400 L 176.613 193.400 175.918 191.931 C 175.535 191.122,174.857 190.345,174.411 190.204 C 173.498 189.914,173.349 189.368,174.100 189.065 C 174.994 188.704,175.493 188.789,175.988 189.385 M193.614 189.974 C 192.319 192.393,193.412 194.400,196.024 194.400 C 198.120 194.400,198.800 193.707,198.800 191.574 C 198.800 189.484,194.574 188.180,193.614 189.974 M208.600 189.964 C 206.497 190.311,206.000 190.657,206.000 191.775 C 206.000 193.604,206.822 193.809,213.714 193.692 C 221.052 193.567,220.800 193.641,220.800 191.610 C 220.800 189.766,220.638 189.692,217.324 190.036 C 215.904 190.182,214.080 190.149,213.271 189.961 C 211.631 189.580,210.926 189.580,208.600 189.964 M197.923 190.700 C 198.885 192.616,196.775 194.427,194.562 193.586 C 193.496 193.180,193.212 191.348,194.080 190.480 C 194.838 189.722,197.509 189.875,197.923 190.700 M213.565 190.848 L 214.850 191.296 213.955 192.248 C 212.312 193.997,206.201 193.337,206.911 191.487 C 207.295 190.488,211.402 190.094,213.565 190.848 M220.334 192.054 C 220.141 193.419,217.238 193.638,215.982 192.382 C 214.877 191.277,215.315 190.878,217.800 190.724 C 220.140 190.579,220.515 190.775,220.334 192.054 M175.289 195.423 C 172.643 197.276,174.630 198.800,179.694 198.800 C 183.745 198.800,184.400 198.522,184.400 196.800 C 184.400 195.088,183.739 194.800,179.809 194.800 C 177.170 194.800,175.935 194.970,175.289 195.423 M183.800 196.800 L 183.800 198.200 180.060 198.316 C 176.017 198.440,175.142 198.127,175.506 196.685 C 175.849 195.328,176.322 195.189,180.200 195.298 L 183.800 195.400 183.800 196.800 M226.200 197.400 C 226.200 197.905,224.619 198.142,223.359 197.826 C 221.657 197.398,222.301 196.750,224.300 196.878 C 225.345 196.945,226.200 197.180,226.200 197.400 M257.117 201.311 L 257.234 204.400 256.028 204.400 C 255.005 204.400,254.772 204.204,254.488 203.106 C 254.226 202.098,253.848 201.722,252.776 201.402 C 252.019 201.177,251.037 200.785,250.593 200.532 C 250.080 200.239,246.080 199.978,239.593 199.814 C 228.448 199.532,227.532 199.444,227.825 198.678 C 227.981 198.273,231.064 198.171,242.511 198.194 L 257.000 198.223 257.117 201.311 M158.400 199.200 C 158.400 199.420,158.040 199.600,157.600 199.600 C 157.160 199.600,156.800 199.420,156.800 199.200 C 156.800 198.980,157.160 198.800,157.600 198.800 C 158.040 198.800,158.400 198.980,158.400 199.200 M167.527 200.100 C 167.672 201.362,166.998 201.602,166.684 200.400 C 166.561 199.931,166.138 199.600,165.661 199.600 C 165.213 199.600,164.729 199.408,164.584 199.173 C 164.410 198.892,164.845 198.790,165.860 198.873 C 167.205 198.984,167.416 199.139,167.527 200.100 M197.961 199.987 L 197.000 200.800 197.961 201.613 C 199.391 202.824,201.132 201.650,200.169 200.124 C 199.534 199.117,199.026 199.085,197.961 199.987 M175.680 200.080 C 175.416 200.344,175.200 201.025,175.200 201.592 C 175.200 202.372,174.906 202.735,174.000 203.078 C 172.505 203.642,172.507 203.883,174.022 205.500 L 175.241 206.800 182.520 206.795 C 191.445 206.788,191.382 206.803,192.651 204.300 C 193.720 202.190,193.399 200.517,192.229 202.100 C 191.802 202.678,191.074 202.800,188.056 202.800 L 184.400 202.800 184.400 201.680 C 184.400 201.064,184.184 200.344,183.920 200.080 C 183.269 199.429,176.331 199.429,175.680 200.080 M199.824 201.162 C 199.480 201.717,198.527 201.730,198.189 201.182 C 198.047 200.953,198.156 200.494,198.431 200.162 C 199.025 199.447,200.312 200.371,199.824 201.162 M183.924 201.700 C 183.992 202.525,184.262 203.210,184.524 203.222 C 184.786 203.233,186.527 203.278,188.394 203.322 C 192.049 203.406,192.621 203.798,191.444 205.408 C 190.901 206.150,190.377 206.200,183.077 206.200 L 175.290 206.200 174.458 205.200 C 173.391 203.916,173.390 203.923,174.798 203.121 C 175.600 202.665,175.912 202.237,175.751 201.816 C 175.210 200.407,176.335 199.966,180.161 200.086 L 183.800 200.200 183.924 201.700 M210.800 200.800 C 210.800 201.020,210.530 201.200,210.200 201.200 C 209.870 201.200,209.600 201.020,209.600 200.800 C 209.600 200.580,209.870 200.400,210.200 200.400 C 210.530 200.400,210.800 200.580,210.800 200.800 M216.240 201.535 C 215.174 203.261,214.887 205.618,215.691 206.048 C 216.902 206.697,233.819 206.306,235.400 205.593 C 236.213 205.227,239.177 204.979,244.595 204.826 C 251.787 204.623,252.604 204.530,252.725 203.900 C 252.846 203.264,252.408 203.200,247.915 203.200 C 244.087 203.200,242.479 203.028,240.786 202.438 C 238.142 201.517,216.738 200.729,216.240 201.535 M239.364 202.716 C 240.319 203.234,241.942 203.420,246.500 203.530 C 254.885 203.734,253.871 204.400,245.177 204.400 C 239.478 204.400,237.129 204.571,234.046 205.210 C 230.823 205.878,228.918 206.000,223.169 205.910 L 216.200 205.800 216.076 204.518 C 215.789 201.548,215.532 201.609,227.469 201.839 C 236.416 202.012,238.326 202.153,239.364 202.716 M156.715 203.600 C 156.897 204.842,158.400 205.406,158.400 204.233 C 158.400 203.160,157.913 202.400,157.226 202.400 C 156.690 202.400,156.577 202.664,156.715 203.600 M177.549 204.040 C 177.204 204.259,177.927 204.390,179.500 204.394 C 180.875 204.397,182.000 204.241,182.000 204.046 C 182.000 203.589,178.269 203.584,177.549 204.040 M161.600 205.600 C 161.600 205.820,161.330 206.000,161.000 206.000 C 160.670 206.000,160.400 205.820,160.400 205.600 C 160.400 205.380,160.670 205.200,161.000 205.200 C 161.330 205.200,161.600 205.380,161.600 205.600 M191.800 209.600 C 191.800 210.929,191.724 211.006,190.300 211.124 C 188.823 211.246,188.011 209.323,189.086 208.248 C 190.010 207.324,191.800 208.216,191.800 209.600 M155.123 208.830 C 155.044 209.067,154.809 209.260,154.600 209.260 C 154.391 209.260,154.156 209.067,154.077 208.830 C 153.998 208.594,154.233 208.400,154.600 208.400 C 154.967 208.400,155.202 208.594,155.123 208.830 M153.260 210.600 C 153.260 210.809,153.066 211.045,152.830 211.123 C 152.594 211.202,152.400 210.967,152.400 210.600 C 152.400 210.233,152.594 209.998,152.830 210.077 C 153.066 210.155,153.260 210.391,153.260 210.600 M151.600 215.400 C 151.600 215.730,151.420 216.000,151.200 216.000 C 150.980 216.000,150.800 215.730,150.800 215.400 C 150.800 215.070,150.980 214.800,151.200 214.800 C 151.420 214.800,151.600 215.070,151.600 215.400 M150.000 218.400 C 150.000 218.840,149.820 219.200,149.600 219.200 C 149.380 219.200,149.200 218.840,149.200 218.400 C 149.200 217.960,149.380 217.600,149.600 217.600 C 149.820 217.600,150.000 217.960,150.000 218.400 M146.800 226.400 C 146.800 227.060,146.620 227.600,146.400 227.600 C 145.955 227.600,145.848 225.885,146.267 225.467 C 146.719 225.015,146.800 225.157,146.800 226.400 " stroke="none" fill="#747474" fill-rule="evenodd"></path><path id="path3" d="M166.251 182.282 C 166.113 182.420,165.994 182.998,165.987 183.567 C 165.974 184.643,164.625 186.474,163.539 186.891 C 163.146 187.042,162.835 187.809,162.708 188.943 C 162.595 189.939,162.210 191.047,161.852 191.405 C 161.493 191.764,161.200 192.582,161.200 193.223 C 161.200 194.170,160.946 194.496,159.849 194.954 C 159.106 195.264,158.375 195.717,158.225 195.959 C 158.066 196.217,156.706 196.400,154.950 196.400 C 149.773 196.400,149.276 197.285,152.600 200.583 C 156.078 204.033,155.903 205.678,151.600 209.976 C 149.840 211.733,148.400 213.318,148.400 213.497 C 148.400 213.676,148.040 214.130,147.600 214.507 C 147.160 214.884,146.800 215.548,146.800 215.982 C 146.800 216.416,146.440 216.965,146.000 217.200 C 145.447 217.496,145.200 218.038,145.200 218.952 C 145.200 219.768,144.893 220.554,144.400 221.000 C 143.827 221.519,143.600 222.232,143.600 223.515 C 143.600 224.619,143.287 225.812,142.785 226.625 C 142.089 227.750,141.986 228.492,142.085 231.672 L 142.200 235.400 143.576 235.531 C 144.333 235.603,145.393 236.008,145.930 236.431 C 146.496 236.876,147.534 237.200,148.392 237.200 C 149.368 237.200,150.124 237.474,150.600 238.000 C 151.166 238.625,151.832 238.800,153.648 238.800 C 155.583 238.800,156.045 238.938,156.412 239.622 C 157.059 240.832,160.143 240.600,160.324 239.327 C 160.404 238.769,160.152 238.295,159.624 238.013 C 158.401 237.359,158.382 231.254,159.600 230.493 C 160.095 230.184,160.400 229.560,160.400 228.859 C 160.400 228.232,160.758 227.400,161.200 227.000 C 161.733 226.517,162.000 225.768,162.000 224.752 C 162.000 223.654,162.217 223.112,162.775 222.814 C 163.242 222.563,163.599 221.883,163.675 221.099 L 163.800 219.800 166.320 219.680 C 168.543 219.575,168.929 219.669,169.594 220.480 C 170.323 221.369,170.373 221.375,171.074 220.674 C 171.775 219.973,171.769 219.923,170.900 219.210 C 170.405 218.804,170.000 218.210,170.000 217.890 C 170.000 217.570,169.640 216.850,169.200 216.291 C 168.760 215.731,168.400 214.904,168.400 214.451 C 168.400 213.998,168.760 213.435,169.200 213.200 C 169.640 212.965,170.000 212.508,170.000 212.186 C 170.000 211.406,171.527 209.908,172.015 210.209 C 172.227 210.340,172.400 211.045,172.400 211.775 C 172.400 213.413,173.312 214.337,174.200 213.600 C 174.530 213.326,174.800 212.570,174.800 211.920 C 174.800 209.457,176.598 208.400,180.788 208.400 L 184.438 208.400 186.419 210.381 C 188.687 212.649,189.156 214.767,187.576 215.613 C 187.050 215.894,186.796 216.369,186.876 216.923 C 187.145 218.803,188.356 218.092,193.172 213.228 C 195.802 210.573,198.267 208.400,198.651 208.400 C 199.034 208.400,199.732 208.040,200.200 207.600 C 201.022 206.828,201.673 206.796,218.865 206.700 C 232.933 206.621,236.812 206.489,237.315 206.071 C 238.079 205.437,241.445 205.190,250.800 205.081 L 257.800 205.000 257.916 201.260 C 258.044 197.093,257.760 196.400,255.924 196.400 C 254.876 196.400,254.761 196.280,254.873 195.300 C 254.997 194.230,255.081 194.195,258.000 194.000 L 261.000 193.800 261.112 189.373 C 261.269 183.220,261.589 183.443,252.691 183.514 C 246.396 183.565,237.518 183.916,222.600 184.704 C 219.520 184.867,210.965 185.000,203.590 185.000 C 189.194 185.000,190.051 185.114,187.823 182.907 C 186.932 182.025,167.083 181.450,166.251 182.282 M174.469 182.837 C 175.060 183.153,175.407 183.153,175.723 182.837 C 175.995 182.565,178.136 182.401,181.380 182.402 L 186.600 182.404 188.200 183.902 L 189.800 185.400 199.400 185.535 C 210.819 185.696,240.259 184.899,242.066 184.381 C 244.080 183.804,258.432 183.772,259.495 184.343 C 260.661 184.968,260.861 185.890,260.718 190.000 L 260.600 193.400 257.803 193.600 C 255.220 193.785,254.966 193.886,254.471 194.921 C 253.802 196.324,254.469 197.357,255.873 197.088 C 257.320 196.812,257.644 197.634,257.517 201.261 L 257.400 204.600 255.929 204.722 C 254.595 204.833,254.397 204.716,253.798 203.453 C 252.935 201.633,252.699 201.559,246.600 201.202 C 243.740 201.034,240.770 200.691,240.000 200.440 C 239.168 200.167,236.136 200.001,232.522 200.029 C 227.552 200.067,226.277 199.959,225.533 199.438 C 224.367 198.621,222.448 198.609,222.138 199.417 C 221.930 199.960,221.808 199.950,221.125 199.332 C 220.389 198.666,220.250 198.666,218.421 199.315 C 217.360 199.692,216.234 200.000,215.918 200.000 C 214.782 200.000,213.408 202.122,213.200 204.200 L 213.000 206.200 206.814 206.311 C 201.420 206.408,200.524 206.518,199.814 207.171 C 199.366 207.583,198.694 207.983,198.320 208.060 C 197.946 208.137,195.462 210.342,192.800 212.960 C 188.979 216.719,187.860 217.616,187.480 217.222 C 187.104 216.831,187.195 216.592,187.900 216.113 C 189.689 214.899,189.181 212.304,186.700 209.990 L 184.600 208.030 180.778 208.015 C 176.487 207.998,174.624 209.092,174.330 211.800 C 174.250 212.542,173.971 213.000,173.600 213.000 C 173.230 213.000,172.948 212.540,172.865 211.800 C 172.589 209.360,170.790 209.092,169.846 211.351 C 169.559 212.038,169.026 212.847,168.662 213.149 C 167.780 213.880,167.830 215.136,168.800 216.600 C 170.255 218.796,169.957 219.200,166.880 219.200 C 163.992 219.200,163.200 219.591,163.200 221.018 C 163.200 221.490,162.840 222.202,162.400 222.600 C 161.960 222.998,161.599 223.791,161.597 224.362 C 161.596 224.933,161.237 225.940,160.800 226.600 C 160.363 227.260,160.004 228.091,160.003 228.446 C 160.001 228.801,159.640 229.550,159.200 230.109 C 158.010 231.622,158.038 236.963,159.242 238.245 C 159.705 238.738,159.964 239.334,159.818 239.570 C 159.377 240.284,157.372 240.053,156.600 239.200 C 156.077 238.622,155.366 238.399,154.038 238.397 C 152.877 238.396,151.758 238.102,151.000 237.600 C 150.340 237.163,149.274 236.804,148.631 236.803 C 147.989 236.801,147.127 236.496,146.717 236.125 C 146.307 235.754,145.213 235.349,144.286 235.225 L 142.600 235.000 142.484 231.728 C 142.390 229.050,142.517 228.179,143.184 226.934 C 143.633 226.097,144.001 224.779,144.003 224.006 C 144.004 223.233,144.363 222.060,144.800 221.400 C 145.237 220.740,145.596 219.727,145.597 219.149 C 145.599 218.571,145.880 217.865,146.223 217.581 C 146.566 217.296,147.089 216.482,147.387 215.770 C 147.684 215.059,149.562 212.794,151.560 210.738 L 155.193 207.000 155.197 204.665 C 155.200 202.418,155.133 202.267,153.426 200.665 C 150.768 198.169,150.936 195.851,153.699 196.905 C 156.178 197.849,161.600 195.288,161.600 193.172 C 161.600 192.549,161.883 191.881,162.229 191.688 C 162.583 191.490,162.959 190.562,163.089 189.568 C 163.272 188.161,163.634 187.528,164.860 186.469 C 165.952 185.525,166.400 184.817,166.400 184.035 C 166.400 183.429,166.520 182.813,166.667 182.667 C 167.108 182.225,173.591 182.367,174.469 182.837 M174.000 189.536 C 174.000 189.720,174.450 190.077,175.000 190.327 C 175.569 190.586,176.000 191.119,176.000 191.563 C 176.000 194.051,182.700 194.566,183.619 192.149 C 184.311 190.330,183.853 190.090,179.952 190.219 C 177.125 190.313,176.304 190.216,176.133 189.769 C 175.902 189.169,174.000 188.960,174.000 189.536 M194.004 190.792 C 193.190 192.313,193.905 193.600,195.563 193.600 C 197.256 193.600,198.000 193.031,198.000 191.734 C 198.000 190.049,194.805 189.295,194.004 190.792 M209.725 190.792 C 207.293 191.056,207.038 191.226,207.704 192.136 C 208.248 192.880,211.888 193.455,212.660 192.919 C 214.529 191.623,212.906 190.447,209.725 190.792 M183.600 191.200 C 183.600 192.776,178.394 193.957,176.902 192.719 C 175.320 191.406,176.297 190.800,180.000 190.800 C 182.133 190.800,183.600 190.963,183.600 191.200 M197.360 191.135 C 197.736 191.744,196.371 193.200,195.424 193.200 C 194.513 193.200,193.770 191.897,194.243 191.131 C 194.510 190.698,197.092 190.702,197.360 191.135 M216.189 191.218 C 215.720 191.976,216.873 192.800,218.402 192.800 C 219.570 192.800,219.953 192.621,220.116 192.000 C 220.379 190.994,219.754 190.574,218.966 191.229 C 218.511 191.605,218.254 191.614,217.903 191.263 C 217.327 190.687,216.530 190.666,216.189 191.218 M176.094 195.666 C 175.259 196.501,175.494 197.958,176.505 198.212 C 180.257 199.154,184.837 197.820,183.756 196.100 C 183.198 195.213,176.904 194.856,176.094 195.666 M183.400 196.800 C 183.400 197.782,183.336 197.802,179.900 197.916 L 176.400 198.031 176.400 196.800 L 176.400 195.569 179.900 195.684 C 183.336 195.798,183.400 195.818,183.400 196.800 M176.267 200.267 C 176.120 200.413,176.000 201.047,176.000 201.675 C 176.000 202.505,175.727 202.942,175.000 203.273 C 173.826 203.808,173.800 203.936,174.623 205.111 C 175.551 206.436,189.900 206.500,191.215 205.185 C 192.494 203.906,191.831 203.600,187.776 203.600 L 184.000 203.600 184.000 202.280 C 184.000 201.554,183.784 200.744,183.520 200.480 C 183.011 199.971,176.746 199.787,176.267 200.267 M198.578 200.435 C 198.431 200.674,198.518 201.078,198.772 201.332 C 199.273 201.833,200.135 200.942,199.750 200.319 C 199.470 199.867,198.894 199.924,198.578 200.435 M183.400 201.700 C 183.400 202.305,183.265 202.800,183.100 202.800 C 182.935 202.800,181.360 202.800,179.600 202.800 C 176.414 202.800,175.330 202.003,176.682 200.652 C 177.628 199.706,183.400 200.606,183.400 201.700 M215.562 201.445 C 214.981 202.146,214.610 201.872,214.948 200.992 C 215.083 200.638,215.384 200.467,215.617 200.610 C 215.907 200.789,215.890 201.051,215.562 201.445 M239.400 200.800 C 239.560 201.059,237.804 201.200,234.424 201.200 C 231.208 201.200,229.200 201.046,229.200 200.800 C 229.200 200.555,231.125 200.400,234.176 200.400 C 237.063 200.400,239.257 200.568,239.400 200.800 M234.200 201.434 C 239.222 201.625,240.753 201.814,241.311 202.311 C 241.842 202.783,242.757 202.924,244.911 202.866 C 249.871 202.732,253.263 203.177,253.117 203.943 C 253.007 204.516,251.993 204.630,245.195 204.835 C 239.954 204.993,237.007 205.247,236.200 205.612 C 234.441 206.406,216.094 206.676,215.084 205.922 C 214.344 205.370,214.457 204.871,215.966 202.000 C 216.413 201.151,218.748 200.856,223.600 201.036 C 225.910 201.122,230.680 201.301,234.200 201.434 M245.208 202.409 C 244.436 202.591,243.545 202.578,243.208 202.380 C 242.799 202.141,243.253 202.034,244.600 202.053 C 246.527 202.081,246.549 202.094,245.208 202.409 M252.400 202.403 C 252.400 202.658,251.551 202.711,250.100 202.548 C 247.007 202.200,246.947 202.000,249.933 202.000 C 251.325 202.000,252.400 202.176,252.400 202.403 M175.600 204.200 C 175.600 204.530,175.420 204.800,175.200 204.800 C 174.980 204.800,174.800 204.530,174.800 204.200 C 174.800 203.870,174.980 203.600,175.200 203.600 C 175.420 203.600,175.600 203.870,175.600 204.200 M182.800 203.957 C 182.800 204.737,179.732 205.093,177.700 204.548 C 175.872 204.058,176.886 203.600,179.800 203.600 C 181.450 203.600,182.800 203.761,182.800 203.957 M190.500 204.282 C 190.005 204.378,189.600 204.713,189.600 205.028 C 189.600 205.994,186.134 205.797,185.600 204.800 C 185.188 204.030,185.288 204.002,188.286 204.054 C 189.999 204.084,190.995 204.187,190.500 204.282 M189.234 208.559 C 188.962 208.887,188.797 209.571,188.869 210.078 C 189.033 211.231,191.068 211.388,191.754 210.300 C 192.673 208.843,190.337 207.230,189.234 208.559 M191.400 209.600 C 191.400 210.333,191.159 210.634,190.498 210.728 C 189.515 210.868,188.957 210.010,189.355 208.972 C 189.761 207.916,191.400 208.419,191.400 209.600 M170.700 220.233 C 170.319 220.615,169.555 219.997,169.839 219.538 C 170.007 219.264,170.231 219.271,170.518 219.558 C 170.754 219.794,170.836 220.098,170.700 220.233 " stroke="none" fill="#9c9c9c" fill-rule="evenodd"></path><path id="path4" d="M233.907 185.090 C 234.626 185.179,235.706 185.177,236.307 185.086 C 236.908 184.995,236.320 184.922,235.000 184.924 C 233.680 184.926,233.188 185.001,233.907 185.090 M219.500 185.482 C 219.995 185.578,220.805 185.578,221.300 185.482 C 221.795 185.387,221.390 185.309,220.400 185.309 C 219.410 185.309,219.005 185.387,219.500 185.482 M180.100 190.276 C 180.485 190.376,181.115 190.376,181.500 190.276 C 181.885 190.175,181.570 190.093,180.800 190.093 C 180.030 190.093,179.715 190.175,180.100 190.276 M209.700 190.676 C 210.085 190.776,210.715 190.776,211.100 190.676 C 211.485 190.575,211.170 190.493,210.400 190.493 C 209.630 190.493,209.315 190.575,209.700 190.676 M206.922 191.458 C 206.617 192.254,207.798 193.223,208.976 193.146 C 209.725 193.096,209.718 193.075,208.899 192.918 C 207.815 192.709,206.950 191.368,207.703 191.064 C 208.088 190.908,208.085 190.856,207.687 190.832 C 207.406 190.814,207.061 191.096,206.922 191.458 M213.305 191.664 C 213.269 192.139,213.006 192.676,212.720 192.858 C 212.434 193.040,212.393 193.191,212.630 193.194 C 212.867 193.197,213.462 192.773,213.952 192.251 C 214.768 191.383,214.567 190.800,213.452 190.800 C 213.407 190.800,213.341 191.189,213.305 191.664 M215.409 191.185 C 215.278 191.397,215.547 191.947,216.007 192.407 C 217.095 193.495,220.157 193.412,220.256 192.292 C 220.300 191.795,220.262 191.766,220.130 192.192 C 220.005 192.596,219.432 192.800,218.420 192.800 C 216.873 192.800,215.718 191.980,216.189 191.218 C 216.331 190.988,216.267 190.800,216.047 190.800 C 215.827 190.800,215.540 190.973,215.409 191.185 M217.920 191.280 C 218.293 191.653,218.507 191.653,218.880 191.280 C 219.253 190.907,219.147 190.800,218.400 190.800 C 217.653 190.800,217.547 190.907,217.920 191.280 M156.800 199.200 C 156.800 199.420,157.160 199.600,157.600 199.600 C 158.040 199.600,158.400 199.420,158.400 199.200 C 158.400 198.980,158.040 198.800,157.600 198.800 C 157.160 198.800,156.800 198.980,156.800 199.200 M164.584 199.173 C 164.729 199.408,165.213 199.600,165.661 199.600 C 166.138 199.600,166.561 199.931,166.684 200.400 C 166.998 201.602,167.672 201.362,167.527 200.100 C 167.416 199.139,167.205 198.984,165.860 198.873 C 164.845 198.790,164.410 198.892,164.584 199.173 M217.242 199.234 C 216.715 199.445,216.373 199.706,216.481 199.815 C 216.590 199.923,217.291 199.747,218.039 199.422 C 219.521 198.779,218.803 198.610,217.242 199.234 M220.800 198.951 C 220.800 199.561,221.934 199.950,222.141 199.410 C 222.302 198.991,222.129 198.800,221.587 198.800 C 221.154 198.800,220.800 198.868,220.800 198.951 M225.654 199.563 C 226.172 199.983,226.743 200.235,226.922 200.125 C 227.326 199.875,225.999 198.830,225.256 198.813 C 224.943 198.805,225.113 199.125,225.654 199.563 M221.113 201.095 C 222.276 201.176,224.076 201.176,225.113 201.093 C 226.151 201.011,225.200 200.945,223.000 200.946 C 220.800 200.947,219.951 201.014,221.113 201.095 M243.913 201.095 C 245.076 201.176,246.876 201.176,247.913 201.093 C 248.951 201.011,248.000 200.945,245.800 200.946 C 243.600 200.947,242.751 201.014,243.913 201.095 M212.954 202.177 C 212.832 202.494,212.803 203.079,212.889 203.477 C 212.987 203.928,213.124 203.712,213.254 202.900 C 213.471 201.538,213.330 201.196,212.954 202.177 M239.669 201.991 C 240.256 202.169,240.976 202.458,241.269 202.634 C 241.689 202.887,241.685 202.812,241.251 202.277 C 240.949 201.905,240.229 201.615,239.651 201.634 L 238.600 201.669 239.669 201.991 M246.100 203.091 C 246.925 203.178,248.275 203.178,249.100 203.091 C 249.925 203.005,249.250 202.934,247.600 202.934 C 245.950 202.934,245.275 203.005,246.100 203.091 M186.000 203.448 C 188.316 203.745,191.912 203.777,191.739 203.500 C 191.637 203.335,190.078 203.227,188.276 203.260 C 186.474 203.293,185.450 203.378,186.000 203.448 M182.000 204.000 C 182.000 204.220,181.055 204.430,179.900 204.467 C 178.070 204.526,178.001 204.555,179.362 204.695 C 181.185 204.882,182.800 204.552,182.800 203.992 C 182.800 203.777,182.620 203.600,182.400 203.600 C 182.180 203.600,182.000 203.780,182.000 204.000 M160.400 205.600 C 160.400 205.820,160.670 206.000,161.000 206.000 C 161.330 206.000,161.600 205.820,161.600 205.600 C 161.600 205.380,161.330 205.200,161.000 205.200 C 160.670 205.200,160.400 205.380,160.400 205.600 M177.100 206.282 C 177.595 206.378,178.405 206.378,178.900 206.282 C 179.395 206.187,178.990 206.109,178.000 206.109 C 177.010 206.109,176.605 206.187,177.100 206.282 M181.100 206.289 C 181.815 206.378,182.985 206.378,183.700 206.289 C 184.415 206.201,183.830 206.128,182.400 206.128 C 180.970 206.128,180.385 206.201,181.100 206.289 M186.307 206.290 C 187.026 206.379,188.106 206.377,188.707 206.286 C 189.308 206.195,188.720 206.122,187.400 206.124 C 186.080 206.126,185.588 206.201,186.307 206.290 M146.267 225.467 C 145.848 225.885,145.955 227.600,146.400 227.600 C 146.620 227.600,146.800 227.060,146.800 226.400 C 146.800 225.157,146.719 225.015,146.267 225.467 " stroke="none" fill="#848484" fill-rule="evenodd"></path></g></svg>