<?xml version="1.0" encoding="UTF-8" standalone="no"?>
<svg
   xmlns:dc="http://purl.org/dc/elements/1.1/"
   xmlns:cc="http://creativecommons.org/ns#"
   xmlns:rdf="http://www.w3.org/1999/02/22-rdf-syntax-ns#"
   xmlns:svg="http://www.w3.org/2000/svg"
   xmlns="http://www.w3.org/2000/svg"
   xmlns:sodipodi="http://sodipodi.sourceforge.net/DTD/sodipodi-0.dtd"
   xmlns:inkscape="http://www.inkscape.org/namespaces/inkscape"
   id="svg"
   version="1.1"
   width="119.10905"
   height="58.537983"
   viewBox="0 0 119.10905 58.537983"
   sodipodi:docname="Handcannon.svg"
   inkscape:version="0.92.4 (5da689c313, 2019-01-14)">
  <metadata
     id="metadata130">
    <rdf:RDF>
      <cc:Work
         rdf:about="">
        <dc:format>image/svg+xml</dc:format>
        <dc:type
           rdf:resource="http://purl.org/dc/dcmitype/StillImage" />
      </cc:Work>
    </rdf:RDF>
  </metadata>
  <defs
     id="defs128" />
  <sodipodi:namedview
     pagecolor="#ffffff"
     bordercolor="#666666"
     borderopacity="1"
     objecttolerance="10"
     gridtolerance="10"
     guidetolerance="10"
     inkscape:pageopacity="0"
     inkscape:pageshadow="2"
     inkscape:window-width="640"
     inkscape:window-height="480"
     id="namedview126"
     showgrid="false"
     inkscape:zoom="0.59"
     inkscape:cx="131.23073"
     inkscape:cy="60.755032"
     inkscape:window-x="0"
     inkscape:window-y="0"
     inkscape:window-maximized="0"
     inkscape:current-layer="svg" />
  <g
     id="svgg"
     transform="translate(-142.05295,-181.87807)">
    <path
       id="path0"
       d="m -1206.7797,233.89831 v 200 h 200 200.00004 v -200 -200.000005 h -200.00004 -200 V 233.89831 m 187.823,-17.093 c 2.228,2.207 1.371,2.093 15.767,2.093 7.37504,0 15.93004,-0.133 19.01004,-0.296 14.918,-0.788 23.796,-1.139 30.091,-1.19 8.898,-0.071 8.578,-0.294 8.421,5.859 l -0.112,4.427 -3,0.2 c -2.919,0.195 -3.003,0.23 -3.127,1.3 -0.112,0.98 0.003,1.1 1.051,1.1 1.836,0 2.12,0.693 1.992,4.86 l -0.116,3.74 -7,0.081 c -9.355,0.109 -12.721,0.356 -13.485,0.99 -0.503,0.418 -4.382,0.55 -18.45,0.629 -17.19204,0.096 -17.84304,0.128 -18.66504,0.9 -0.468,0.44 -1.166,0.8 -1.549,0.8 -0.384,0 -2.849,2.173 -5.479,4.828 -4.816,4.864 -6.027,5.575 -6.296,3.695 -0.08,-0.554 0.174,-1.029 0.7,-1.31 1.58,-0.846 1.111,-2.964 -1.157,-5.232 l -1.981,-1.981 h -3.65 c -4.19,0 -5.988,1.057 -5.988,3.52 0,0.65 -0.27,1.406 -0.6,1.68 -0.888,0.737 -1.8,-0.187 -1.8,-1.825 0,-0.73 -0.173,-1.435 -0.385,-1.566 -0.488,-0.301 -2.015,1.197 -2.015,1.977 0,0.322 -0.36,0.779 -0.8,1.014 -0.44,0.235 -0.8,0.798 -0.8,1.251 0,0.453 0.36,1.28 0.8,1.84 0.44,0.559 0.8,1.279 0.8,1.599 0,0.32 0.405,0.914 0.9,1.32 0.869,0.713 0.875,0.763 0.174,1.464 -0.701,0.701 -0.751,0.695 -1.48,-0.194 -0.665,-0.811 -1.051,-0.905 -3.274,-0.8 l -2.52,0.12 -0.125,1.299 c -0.076,0.784 -0.433,1.464 -0.9,1.715 -0.558,0.298 -0.775,0.84 -0.775,1.938 0,1.016 -0.267,1.765 -0.8,2.248 -0.442,0.4 -0.8,1.232 -0.8,1.859 0,0.701 -0.305,1.325 -0.8,1.634 -1.218,0.761 -1.199,6.866 0.024,7.52 0.528,0.282 0.78,0.756 0.7,1.314 -0.181,1.273 -3.265,1.505 -3.912,0.295 -0.367,-0.684 -0.829,-0.822 -2.764,-0.822 -1.816,0 -2.482,-0.175 -3.048,-0.8 -0.476,-0.526 -1.232,-0.8 -2.208,-0.8 -0.858,0 -1.896,-0.324 -2.462,-0.769 -0.537,-0.423 -1.597,-0.828 -2.354,-0.9 l -1.376,-0.131 -0.115,-3.728 c -0.099,-3.18 0,-3.922 0.7,-5.047 0.502,-0.813 0.815,-2.006 0.815,-3.11 0,-1.283 0.227,-1.996 0.8,-2.515 0.493,-0.446 0.8,-1.232 0.8,-2.048 0,-0.914 0.247,-1.456 0.8,-1.752 0.44,-0.235 0.8,-0.784 0.8,-1.218 0,-0.434 0.36,-1.098 0.8,-1.475 0.44,-0.377 0.8,-0.831 0.8,-1.01 0,-0.179 1.44,-1.764 3.2,-3.521 4.303,-4.298 4.478,-5.943 1,-9.393 -3.324,-3.298 -2.827,-4.183 2.35,-4.183 1.756,0 3.116,-0.183 3.275,-0.441 0.15,-0.242 0.881,-0.695 1.624,-1.005 1.097,-0.458 1.351,-0.784 1.351,-1.731 0,-0.641 0.293,-1.459 0.652,-1.818 0.358,-0.358 0.743,-1.466 0.856,-2.462 0.127,-1.134 0.438,-1.901 0.831,-2.052 1.086,-0.417 2.435,-2.248 2.448,-3.324 0.019,-1.564 -0.178,-1.536 10.725,-1.545 10.034,-0.009 10.224,0.007 11.111,0.885 m -11.423,8.644 c 0,1.73 4.913,2.336 6.453,0.796 1.316,-1.316 0.89,-1.547 -2.853,-1.547 -3.255,0 -3.6,0.072 -3.6,0.751 m 17.843,-0.42 c -0.473,0.766 0.27,2.069 1.181,2.069 0.947,0 2.312,-1.456 1.936,-2.065 -0.268,-0.433 -2.85,-0.437 -3.117,-0.004 m -17.843,5.669 v 1.231 l 3.5,-0.115 c 3.436,-0.114 3.5,-0.134 3.5,-1.116 0,-0.982 -0.064,-1.002 -3.5,-1.116 l -3.5,-0.115 v 1.231 m 0.282,3.852 c -1.352,1.351 -0.268,2.148 2.918,2.148 1.76,0 3.335,0 3.5,0 0.165,0 0.3,-0.495 0.3,-1.1 0,-1.094 -5.772,-1.994 -6.718,-1.048 m 38.26604,0.34 c -0.338,0.88 0.033,1.154 0.614,0.453 0.328,-0.394 0.345,-0.656 0.055,-0.835 -0.233,-0.143 -0.534,0.028 -0.669,0.382 m 14.252,-0.192 c 0,0.246 2.008,0.4 5.224,0.4 3.38,0 5.136,-0.141 4.976,-0.4 -0.143,-0.232 -2.337,-0.4 -5.224,-0.4 -3.051,0 -4.976,0.155 -4.976,0.4 m 14.008,1.58 c 0.337,0.198 1.228,0.211 2,0.029 1.341,-0.315 1.319,-0.328 -0.608,-0.356 -1.347,-0.019 -1.801,0.088 -1.392,0.327 m 4.425,-0.236 c 0.45,0.39 4.767,0.625 4.767,0.259 0,-0.227 -1.075,-0.403 -2.467,-0.403 -1.356,0 -2.391,0.065 -2.3,0.144 m -72.83304,2.056 c 0,0.33 0.18,0.6 0.4,0.6 0.22,0 0.4,-0.27 0.4,-0.6 0,-0.33 -0.18,-0.6 -0.4,-0.6 -0.22,0 -0.4,0.27 -0.4,0.6 m 10.8,0.6 c 0.534,0.997 4,1.194 4,0.228 0,-0.315 0.405,-0.65 0.9,-0.746 0.495,-0.095 -0.501,-0.198 -2.214,-0.228 -2.998,-0.052 -3.098,-0.024 -2.686,0.746 m 3.755,4.172 c -0.398,1.038 0.16,1.896 1.143,1.756 0.661,-0.094 0.902,-0.395 0.902,-1.128 0,-1.181 -1.639,-1.684 -2.045,-0.628"
       inkscape:connector-curvature="0"
       style="fill:#fbfbfb;fill-rule:evenodd;stroke:none" />
    <path
       id="path1"
       d="m 166.8,184.169 c 0,1.102 -0.312,1.636 -1.6,2.738 -1.326,1.135 -1.6,1.62 -1.6,2.835 0,0.971 -0.27,1.697 -0.8,2.151 -0.44,0.377 -0.8,1.169 -0.8,1.761 0,1.569 -2.787,3.546 -4.999,3.546 -0.902,0 -1.838,0.197 -2.078,0.437 -0.316,0.316 -0.673,0.311 -1.288,-0.018 -2.76,-1.477 -1.421,2.153 1.412,3.826 0.647,0.383 0.74,0.874 0.66,3.5 -0.086,2.863 0.357,3.997 0.954,2.44 0.13,-0.338 0.799,-0.883 1.488,-1.211 1.569,-0.747 2.805,-1.472 3.518,-2.064 0.305,-0.252 1.449,-0.515 2.543,-0.584 1.899,-0.12 1.996,-0.183 2.11,-1.36 0.184,-1.881 -0.469,-2.129 -5.945,-2.253 -4.105,-0.093 -4.975,-0.218 -4.975,-0.713 0,-0.481 1.034,-0.685 5.2,-1.027 6.521,-0.535 7.4,-0.254 7.4,2.361 0,0.942 0.264,2.062 0.587,2.49 0.841,1.11 0.801,1.19 -1.158,2.338 -1.381,0.809 -2.307,1.038 -4.204,1.038 -1.938,0 -2.572,0.163 -3.118,0.8 -0.377,0.44 -0.923,0.8 -1.213,0.8 -0.842,0 -4.555,3.673 -5.157,5.1 -0.301,0.715 -0.713,1.3 -0.915,1.3 -0.203,0 -0.492,0.405 -0.642,0.9 -0.151,0.495 -0.502,1.17 -0.78,1.5 -0.278,0.33 -0.641,1.05 -0.808,1.6 -0.166,0.55 -0.637,1.429 -1.047,1.954 -0.41,0.525 -0.745,1.41 -0.745,1.968 0,0.558 -0.291,1.337 -0.647,1.73 -0.356,0.394 -0.725,1.578 -0.819,2.632 -0.375,4.202 -1.928,7.887 -2.813,6.676 -0.758,-1.037 -0.638,-2.703 0.279,-3.869 0.549,-0.698 0.801,-1.626 0.803,-2.954 0.001,-1.26 0.28,-2.357 0.797,-3.137 0.437,-0.66 0.796,-1.791 0.797,-2.513 0.002,-0.758 0.241,-1.403 0.567,-1.528 0.31,-0.12 0.672,-0.649 0.805,-1.178 0.259,-1.03 1.7,-3.307 2.773,-4.381 0.801,-0.8 0.867,-2.2 0.105,-2.2 -0.305,0 -0.648,0.36 -0.763,0.8 -0.115,0.44 -0.451,0.807 -0.747,0.816 -0.295,0.008 -0.984,0.933 -1.531,2.055 -0.547,1.122 -1.312,2.238 -1.7,2.481 -0.464,0.289 -0.706,0.938 -0.706,1.89 0,0.844 -0.334,1.875 -0.8,2.467 -0.52,0.661 -0.801,1.626 -0.803,2.754 -0.001,1.06 -0.312,2.205 -0.797,2.937 -0.612,0.923 -0.795,1.879 -0.797,4.147 l -0.003,2.946 1.064,-0.203 c 1.307,-0.25 3.195,0.365 3.491,1.138 0.139,0.361 0.796,0.572 1.779,0.572 0.952,0 1.953,0.311 2.575,0.8 0.681,0.536 1.623,0.8 2.851,0.8 1.4,0 1.951,0.189 2.333,0.8 0.303,0.486 0.933,0.8 1.603,0.8 1.303,0 1.416,-0.413 0.304,-1.107 -0.707,-0.442 -0.8,-0.933 -0.8,-4.242 0,-3.137 0.129,-3.908 0.8,-4.76 0.44,-0.56 0.8,-1.37 0.8,-1.8 0,-0.431 0.36,-1.241 0.8,-1.8 0.44,-0.56 0.8,-1.482 0.8,-2.051 0,-0.6 0.335,-1.243 0.8,-1.533 0.461,-0.288 0.8,-0.933 0.8,-1.523 0,-1.6 0.712,-1.984 3.68,-1.984 3.01,0 3.061,-0.04 1.92,-1.491 -0.486,-0.618 -0.8,-1.623 -0.8,-2.56 0,-1.109 0.225,-1.683 0.8,-2.042 0.44,-0.275 0.8,-0.893 0.8,-1.375 0,-1.127 1.012,-2.132 2.149,-2.132 1.202,0 1.851,0.729 1.851,2.08 0,0.616 0.18,1.12 0.4,1.12 0.22,0 0.402,-0.495 0.404,-1.1 0.01,-2.55 2.141,-3.7 6.855,-3.7 h 4.174 l 1.471,1.6 c 1.749,1.902 1.896,1.939 1.896,0.48 0,-1.398 0.656,-2.08 2,-2.08 1.322,0 2,0.678 2,2 0,1.344 -0.682,2 -2.08,2 -1.077,0 -1.12,0.076 -1.12,2 0,2.526 -0.326,2.675 4.272,-1.951 2.161,-2.173 4.317,-4.07 4.792,-4.216 0.475,-0.145 1.082,-0.527 1.349,-0.848 C 200,206.118 201.342,206 206.249,206 h 6.151 v -1.997 c 0,-1.563 0.174,-2.105 0.8,-2.496 0.44,-0.275 0.8,-0.731 0.8,-1.013 0,-0.283 0.45,-0.685 1,-0.894 0.55,-0.209 1,-0.565 1,-0.79 0,-0.733 -1.256,-0.433 -2.542,0.607 -0.692,0.559 -1.674,1.324 -2.183,1.7 -0.509,0.376 -1.224,0.998 -1.589,1.383 -0.365,0.385 -0.866,0.7 -1.114,0.7 -0.247,0 -0.865,0.36 -1.372,0.8 -0.507,0.44 -1.244,0.8 -1.638,0.8 -1.039,0 -1.426,-0.875 -0.607,-1.375 0.383,-0.234 1.27,-0.936 1.971,-1.56 0.701,-0.624 1.779,-1.398 2.395,-1.721 1.018,-0.532 1.47,-0.888 3.513,-2.763 0.348,-0.319 0.893,-0.581 1.211,-0.581 0.317,0 1.012,-0.304 1.543,-0.677 1.015,-0.711 3.522,-0.773 4.191,-0.104 0.241,0.241 0.138,0.381 -0.28,0.381 -0.891,0 -2.699,0.847 -2.699,1.264 0,0.666 4.008,0.38 4.271,-0.304 0.135,-0.353 0.024,-0.778 -0.247,-0.945 -0.915,-0.566 4.102,-0.782 18.348,-0.791 14.435,-0.008 14.644,-0.028 14.894,-1.424 0.126,-0.705 0.505,-0.814 3.207,-0.916 l 3.063,-0.117 -0.111,-3.589 c -0.166,-5.35 0.133,-5.178 -8.998,-5.178 -6.296,0 -7.596,0.103 -8.398,0.665 -0.854,0.598 -3.558,0.683 -26.999,0.854 l -26.051,0.191 -1.722,-1.655 -1.722,-1.655 h -4.988 -4.989 l -0.426,1.222 c -0.494,1.417 -2.019,1.537 -2.274,0.178 -0.224,-1.193 -0.776,-1.387 -3.958,-1.394 l -2.9,-0.006 v 1.369 m 23.522,4.493 c 0.121,0.844 -3.262,1.679 -5.135,1.267 -0.417,-0.092 -0.622,0.293 -0.709,1.329 -0.195,2.342 -1.034,2.795 -4.926,2.659 l -3.348,-0.117 -0.705,-1.5 c -0.388,-0.825 -0.952,-1.5 -1.253,-1.5 -0.302,0 -0.788,-0.289 -1.082,-0.643 -0.999,-1.204 1.983,-2.45 3.126,-1.307 0.779,0.779 11.484,-0.091 12.4,-1.007 0.523,-0.522 1.511,-0.026 1.632,0.819 M 198,190 c 0.884,0.884 0.999,1.825 0.41,3.374 -0.517,1.36 -4.102,1.548 -4.796,0.252 -1.715,-3.204 1.856,-6.156 4.386,-3.626 m 15.271,-0.039 c 0.809,0.188 2.633,0.221 4.053,0.075 3.314,-0.344 3.476,-0.27 3.476,1.574 0,2.031 0.252,1.957 -7.086,2.082 -6.892,0.117 -7.714,-0.088 -7.714,-1.917 0,-1.118 0.497,-1.464 2.6,-1.811 2.326,-0.384 3.031,-0.384 4.671,-0.003 m -29.351,5.319 c 0.264,0.264 0.48,0.948 0.48,1.52 0,1.722 -0.655,2 -4.706,2 -5.064,0 -7.051,-1.524 -4.405,-3.377 1.112,-0.779 7.883,-0.891 8.631,-0.143 m 38.48,1.89 c 0,0.514 1.601,0.941 2.859,0.763 1.645,-0.233 1.013,-0.928 -0.959,-1.055 -1.122,-0.072 -1.9,0.048 -1.9,0.292 m 5.425,1.508 c -0.293,0.766 0.623,0.854 11.768,1.136 6.487,0.164 10.487,0.425 11,0.718 0.444,0.253 1.426,0.645 2.183,0.87 1.072,0.32 1.45,0.696 1.712,1.704 0.284,1.098 0.517,1.294 1.54,1.294 h 1.206 l -0.117,-3.089 -0.117,-3.088 -14.489,-0.029 c -11.447,-0.023 -14.53,0.079 -14.686,0.484 m -27.656,1.446 c 0.963,1.526 -0.778,2.7 -2.208,1.489 L 197,200.8 l 0.961,-0.813 c 1.065,-0.902 1.573,-0.87 2.208,0.137 M 183.92,200.08 c 0.264,0.264 0.48,0.984 0.48,1.6 v 1.12 h 3.656 c 3.018,0 3.746,-0.122 4.173,-0.7 1.17,-1.583 1.491,0.09 0.422,2.2 -1.269,2.503 -1.206,2.488 -10.131,2.495 l -7.279,0.005 -1.219,-1.3 c -1.515,-1.617 -1.517,-1.858 -0.022,-2.422 0.906,-0.343 1.2,-0.706 1.2,-1.486 0,-0.567 0.216,-1.248 0.48,-1.512 0.651,-0.651 7.589,-0.651 8.24,0 m 32.461,2.355 c -0.236,0.441 -0.373,1.379 -0.305,2.083 l 0.124,1.282 6.969,0.11 c 5.749,0.09 7.654,-0.032 10.877,-0.7 3.083,-0.639 5.432,-0.81 11.131,-0.81 8.694,0 9.708,-0.666 1.323,-0.87 -4.558,-0.11 -6.181,-0.296 -7.136,-0.814 -2.108,-1.144 -22.388,-1.391 -22.983,-0.281 m -58.224,0.598 c 0.438,1.14 0.256,1.767 -0.512,1.767 -0.532,0 -0.806,-0.353 -0.93,-1.2 -0.195,-1.325 0.975,-1.785 1.442,-0.567 m -4.08,5.797 c 0.079,0.237 0.314,0.43 0.523,0.43 0.209,0 0.444,-0.193 0.523,-0.43 0.079,-0.236 -0.156,-0.43 -0.523,-0.43 -0.367,0 -0.602,0.194 -0.523,0.43 m -1.677,1.77 c 0,0.367 0.194,0.602 0.43,0.523 0.236,-0.078 0.43,-0.314 0.43,-0.523 0,-0.209 -0.194,-0.445 -0.43,-0.523 -0.236,-0.079 -0.43,0.156 -0.43,0.523"
       inkscape:connector-curvature="0"
       style="fill:#0d0d0d;fill-rule:evenodd;stroke:none" />
    <path
       id="path2"
       d="m 166.667,182.667 c -0.147,0.146 -0.267,0.74 -0.267,1.318 0,0.701 -0.535,1.575 -1.6,2.615 -1.288,1.258 -1.6,1.847 -1.6,3.019 0,0.949 -0.279,1.709 -0.8,2.181 -0.44,0.398 -0.8,1.219 -0.8,1.824 0,1.728 -2.744,3.143 -6.48,3.342 -1.606,0.086 -3.055,0.173 -3.22,0.195 -0.873,0.114 -0.075,1.888 1.568,3.485 1.855,1.802 1.868,1.833 1.77,4.236 l -0.099,2.42 -3.292,3.263 c -1.813,1.797 -3.694,4.094 -4.188,5.113 -0.493,1.018 -1.157,1.951 -1.477,2.074 -0.345,0.132 -0.583,0.758 -0.585,1.535 -0.001,0.722 -0.36,1.853 -0.797,2.513 -0.448,0.677 -0.796,1.877 -0.797,2.753 -0.002,0.861 -0.367,2.141 -0.82,2.875 -0.676,1.093 -0.797,1.864 -0.7,4.447 l 0.117,3.125 1.573,0.129 c 0.865,0.07 2.015,0.475 2.554,0.9 0.54,0.424 1.542,0.772 2.227,0.774 0.685,0.001 1.786,0.36 2.446,0.797 0.769,0.509 1.877,0.796 3.086,0.797 1.475,0.002 1.979,0.177 2.314,0.803 0.277,0.518 0.838,0.8 1.59,0.8 1.531,0 1.985,-0.786 0.878,-1.521 -1.239,-0.823 -1.286,-6.84 -0.068,-8.679 0.437,-0.66 0.8,-1.47 0.806,-1.8 0.007,-0.33 0.364,-1.05 0.794,-1.6 0.43,-0.55 0.786,-1.579 0.791,-2.286 0.006,-0.856 0.268,-1.424 0.784,-1.7 0.467,-0.251 0.824,-0.931 0.9,-1.715 l 0.125,-1.299 2.8,-0.12 c 3.414,-0.147 3.747,-0.424 2.651,-2.198 -1.098,-1.776 -1.121,-3.71 -0.051,-4.282 0.44,-0.235 0.8,-0.769 0.8,-1.186 0,-2.286 2.879,-2.659 3.2,-0.414 0.251,1.754 1.34,1.922 1.533,0.237 0.295,-2.587 1.914,-3.437 6.536,-3.433 l 4.131,0.004 1.4,1.592 c 0.77,0.876 1.625,1.594 1.9,1.596 0.976,0.008 0.652,4.671 -0.342,4.931 -0.876,0.229 -0.88,1.099 -0.007,1.39 0.276,0.092 0.601,-0.212 0.722,-0.675 0.121,-0.463 0.392,-0.842 0.601,-0.842 0.21,0 2.157,-1.8 4.326,-4 2.169,-2.2 4.203,-4 4.518,-4 0.316,0 1.032,-0.36 1.591,-0.8 0.909,-0.715 1.628,-0.801 6.754,-0.806 6.7,-0.007 6.927,-0.088 6.546,-2.341 -0.273,-1.615 1.23,-4.053 2.499,-4.053 0.203,0 0.969,-0.299 1.703,-0.665 1.693,-0.845 8.073,-0.896 9.062,-0.073 0.453,0.377 2.693,0.621 7.487,0.815 17.134,0.694 19.134,1.053 20.436,3.666 0.314,0.629 0.796,0.857 1.816,0.857 h 1.388 l 0.12,-2.792 c 0.175,-4.047 -0.037,-4.608 -1.74,-4.608 -3.78,0 -2.064,-3.336 1.851,-3.6 l 2.969,-0.2 0.039,-3.78 c 0.059,-5.802 0.242,-5.698 -9.737,-5.477 -4.346,0.097 -9.432,0.363 -11.302,0.591 -1.87,0.228 -13.84,0.538 -26.6,0.689 l -23.2,0.274 -1.685,-1.648 -1.684,-1.649 h -4.987 c -3.878,0 -5.119,0.132 -5.581,0.594 -0.525,0.525 -0.727,0.525 -1.729,0.003 -1.153,-0.602 -6.94,-0.858 -7.467,-0.33 m 6.387,0.439 c 0.249,0.162 0.521,0.654 0.604,1.094 0.255,1.359 1.78,1.239 2.274,-0.178 l 0.426,-1.222 h 4.989 4.988 l 1.722,1.655 1.722,1.655 26.051,-0.191 c 23.441,-0.171 26.145,-0.256 26.999,-0.854 0.802,-0.562 2.102,-0.665 8.398,-0.665 9.131,0 8.832,-0.172 8.998,5.178 l 0.111,3.589 -3.063,0.117 c -2.702,0.102 -3.081,0.211 -3.207,0.916 -0.25,1.396 -0.459,1.416 -14.894,1.424 -14.246,0.009 -19.263,0.225 -18.348,0.791 0.271,0.167 0.382,0.592 0.247,0.945 -0.263,0.684 -4.271,0.97 -4.271,0.304 0,-0.417 1.808,-1.264 2.699,-1.264 0.418,0 0.521,-0.14 0.28,-0.381 -0.669,-0.669 -3.176,-0.607 -4.191,0.104 -0.531,0.373 -1.226,0.677 -1.543,0.677 -0.318,0 -0.863,0.262 -1.211,0.581 -2.043,1.875 -2.495,2.231 -3.513,2.763 -0.616,0.323 -1.694,1.097 -2.395,1.721 -0.701,0.624 -1.588,1.326 -1.971,1.56 -0.819,0.5 -0.432,1.375 0.607,1.375 0.394,0 1.131,-0.36 1.638,-0.8 0.507,-0.44 1.125,-0.8 1.372,-0.8 0.248,0 0.749,-0.315 1.114,-0.7 0.365,-0.385 1.08,-1.007 1.589,-1.383 0.509,-0.376 1.491,-1.141 2.183,-1.7 1.286,-1.04 2.542,-1.34 2.542,-0.607 0,0.225 -0.45,0.581 -1,0.79 -0.55,0.209 -1,0.611 -1,0.894 0,0.282 -0.36,0.738 -0.8,1.013 -0.626,0.391 -0.8,0.933 -0.8,2.496 V 206 h -6.151 c -4.907,0 -6.249,0.118 -6.636,0.585 -0.267,0.321 -0.874,0.703 -1.349,0.848 -0.475,0.146 -2.631,2.043 -4.792,4.216 -4.598,4.626 -4.272,4.477 -4.272,1.951 0,-1.924 0.043,-2 1.12,-2 1.398,0 2.08,-0.656 2.08,-2 0,-1.322 -0.678,-2 -2,-2 -1.344,0 -2,0.682 -2,2.08 0,1.459 -0.147,1.422 -1.896,-0.48 l -1.471,-1.6 h -4.174 c -4.714,0 -6.845,1.15 -6.855,3.7 -0.002,0.605 -0.184,1.1 -0.404,1.1 -0.22,0 -0.4,-0.504 -0.4,-1.12 0,-1.351 -0.649,-2.08 -1.851,-2.08 -1.137,0 -2.149,1.005 -2.149,2.132 0,0.482 -0.36,1.1 -0.8,1.375 -0.575,0.359 -0.8,0.933 -0.8,2.042 0,0.937 0.314,1.942 0.8,2.56 1.141,1.451 1.09,1.491 -1.92,1.491 -2.968,0 -3.68,0.384 -3.68,1.984 0,0.59 -0.339,1.235 -0.8,1.523 -0.465,0.29 -0.8,0.933 -0.8,1.533 0,0.569 -0.36,1.491 -0.8,2.051 -0.44,0.559 -0.8,1.369 -0.8,1.8 0,0.43 -0.36,1.24 -0.8,1.8 -0.671,0.852 -0.8,1.623 -0.8,4.76 0,3.309 0.093,3.8 0.8,4.242 1.112,0.694 0.999,1.107 -0.304,1.107 -0.67,0 -1.3,-0.314 -1.603,-0.8 -0.382,-0.611 -0.933,-0.8 -2.333,-0.8 -1.228,0 -2.17,-0.264 -2.851,-0.8 -0.622,-0.489 -1.623,-0.8 -2.575,-0.8 -0.983,0 -1.64,-0.211 -1.779,-0.572 -0.296,-0.773 -2.184,-1.388 -3.491,-1.138 l -1.064,0.203 0.003,-2.946 c 0.002,-2.268 0.185,-3.224 0.797,-4.147 0.485,-0.732 0.796,-1.877 0.797,-2.937 0.002,-1.128 0.283,-2.093 0.803,-2.754 0.466,-0.592 0.8,-1.623 0.8,-2.467 0,-0.952 0.242,-1.601 0.706,-1.89 0.388,-0.243 1.153,-1.359 1.7,-2.481 0.547,-1.122 1.236,-2.047 1.531,-2.055 0.296,-0.009 0.632,-0.376 0.747,-0.816 0.115,-0.44 0.458,-0.8 0.763,-0.8 0.762,0 0.696,1.4 -0.105,2.2 -1.073,1.074 -2.514,3.351 -2.773,4.381 -0.133,0.529 -0.495,1.058 -0.805,1.178 -0.326,0.125 -0.565,0.77 -0.567,1.528 -0.001,0.722 -0.36,1.853 -0.797,2.513 -0.517,0.78 -0.796,1.877 -0.797,3.137 -0.002,1.328 -0.254,2.256 -0.803,2.954 -0.917,1.166 -1.037,2.832 -0.279,3.869 0.885,1.211 2.438,-2.474 2.813,-6.676 0.094,-1.054 0.463,-2.238 0.819,-2.632 0.356,-0.393 0.647,-1.172 0.647,-1.73 0,-0.558 0.335,-1.443 0.745,-1.968 0.41,-0.525 0.881,-1.404 1.047,-1.954 0.167,-0.55 0.53,-1.27 0.808,-1.6 0.278,-0.33 0.629,-1.005 0.78,-1.5 0.15,-0.495 0.439,-0.9 0.642,-0.9 0.202,0 0.614,-0.585 0.915,-1.3 0.602,-1.427 4.315,-5.1 5.157,-5.1 0.29,0 0.836,-0.36 1.213,-0.8 0.546,-0.637 1.18,-0.8 3.118,-0.8 1.897,0 2.823,-0.229 4.204,-1.038 1.959,-1.148 1.999,-1.228 1.158,-2.338 -0.323,-0.428 -0.587,-1.548 -0.587,-2.49 0,-2.615 -0.879,-2.896 -7.4,-2.361 -4.166,0.342 -5.2,0.546 -5.2,1.027 0,0.495 0.87,0.62 4.975,0.713 5.476,0.124 6.129,0.372 5.945,2.253 -0.114,1.177 -0.211,1.24 -2.11,1.36 -1.094,0.069 -2.238,0.332 -2.543,0.584 -0.713,0.592 -1.949,1.317 -3.518,2.064 -0.689,0.328 -1.358,0.873 -1.488,1.211 -0.597,1.557 -1.04,0.423 -0.954,-2.44 0.08,-2.626 -0.013,-3.117 -0.66,-3.5 -2.833,-1.673 -4.172,-5.303 -1.412,-3.826 0.615,0.329 0.972,0.334 1.288,0.018 0.24,-0.24 1.176,-0.437 2.078,-0.437 2.212,0 4.999,-1.977 4.999,-3.546 0,-0.592 0.36,-1.384 0.8,-1.761 0.53,-0.454 0.8,-1.18 0.8,-2.151 0,-1.215 0.274,-1.7 1.6,-2.835 1.288,-1.102 1.6,-1.636 1.6,-2.738 V 182.8 l 2.9,0.006 c 1.595,0.003 3.104,0.138 3.354,0.3 m 15.636,4.737 c -0.916,0.916 -11.621,1.786 -12.4,1.007 -1.143,-1.143 -4.125,0.103 -3.126,1.307 0.294,0.354 0.78,0.643 1.082,0.643 0.301,0 0.865,0.675 1.253,1.5 l 0.705,1.5 3.348,0.117 c 3.892,0.136 4.731,-0.317 4.926,-2.659 0.087,-1.036 0.292,-1.421 0.709,-1.329 1.873,0.412 5.256,-0.423 5.135,-1.267 -0.121,-0.845 -1.109,-1.341 -1.632,-0.819 m -12.702,1.542 c 0.347,0.419 1.532,0.619 4.149,0.7 l 3.663,0.115 -0.062,1.329 c -0.086,1.827 -0.177,1.871 -3.864,1.871 h -3.261 l -0.695,-1.469 c -0.383,-0.809 -1.061,-1.586 -1.507,-1.727 -0.913,-0.29 -1.062,-0.836 -0.311,-1.139 0.894,-0.361 1.393,-0.276 1.888,0.32 m 17.626,0.589 c -1.295,2.419 -0.202,4.426 2.41,4.426 2.096,0 2.776,-0.693 2.776,-2.826 0,-2.09 -4.226,-3.394 -5.186,-1.6 m 14.986,-0.01 c -2.103,0.347 -2.6,0.693 -2.6,1.811 0,1.829 0.822,2.034 7.714,1.917 7.338,-0.125 7.086,-0.051 7.086,-2.082 0,-1.844 -0.162,-1.918 -3.476,-1.574 -1.42,0.146 -3.244,0.113 -4.053,-0.075 -1.64,-0.381 -2.345,-0.381 -4.671,0.003 m -10.677,0.736 c 0.962,1.916 -1.148,3.727 -3.361,2.886 -1.066,-0.406 -1.35,-2.238 -0.482,-3.106 0.758,-0.758 3.429,-0.605 3.843,0.22 m 15.642,0.148 1.285,0.448 -0.895,0.952 c -1.643,1.749 -7.754,1.089 -7.044,-0.761 0.384,-0.999 4.491,-1.393 6.654,-0.639 m 6.769,1.206 c -0.193,1.365 -3.096,1.584 -4.352,0.328 -1.105,-1.105 -0.667,-1.504 1.818,-1.658 2.34,-0.145 2.715,0.051 2.534,1.33 m -45.045,3.369 c -2.646,1.853 -0.659,3.377 4.405,3.377 4.051,0 4.706,-0.278 4.706,-2 0,-1.712 -0.661,-2 -4.591,-2 -2.639,0 -3.874,0.17 -4.52,0.623 m 8.511,1.377 v 1.4 l -3.74,0.116 c -4.043,0.124 -4.918,-0.189 -4.554,-1.631 0.343,-1.357 0.816,-1.496 4.694,-1.387 l 3.6,0.102 v 1.4 m 42.4,0.6 c 0,0.505 -1.581,0.742 -2.841,0.426 -1.702,-0.428 -1.058,-1.076 0.941,-0.948 1.045,0.067 1.9,0.302 1.9,0.522 m 30.917,3.911 0.117,3.089 h -1.206 c -1.023,0 -1.256,-0.196 -1.54,-1.294 -0.262,-1.008 -0.64,-1.384 -1.712,-1.704 -0.757,-0.225 -1.739,-0.617 -2.183,-0.87 -0.513,-0.293 -4.513,-0.554 -11,-0.718 -11.145,-0.282 -12.061,-0.37 -11.768,-1.136 0.156,-0.405 3.239,-0.507 14.686,-0.484 l 14.489,0.029 0.117,3.088 M 158.4,199.2 c 0,0.22 -0.36,0.4 -0.8,0.4 -0.44,0 -0.8,-0.18 -0.8,-0.4 0,-0.22 0.36,-0.4 0.8,-0.4 0.44,0 0.8,0.18 0.8,0.4 m 9.127,0.9 c 0.145,1.262 -0.529,1.502 -0.843,0.3 -0.123,-0.469 -0.546,-0.8 -1.023,-0.8 -0.448,0 -0.932,-0.192 -1.077,-0.427 -0.174,-0.281 0.261,-0.383 1.276,-0.3 1.345,0.111 1.556,0.266 1.667,1.227 m 30.434,-0.113 -0.961,0.813 0.961,0.813 c 1.43,1.211 3.171,0.037 2.208,-1.489 -0.635,-1.007 -1.143,-1.039 -2.208,-0.137 m -22.281,0.093 c -0.264,0.264 -0.48,0.945 -0.48,1.512 0,0.78 -0.294,1.143 -1.2,1.486 -1.495,0.564 -1.493,0.805 0.022,2.422 l 1.219,1.3 7.279,-0.005 c 8.925,-0.007 8.862,0.008 10.131,-2.495 1.069,-2.11 0.748,-3.783 -0.422,-2.2 -0.427,0.578 -1.155,0.7 -4.173,0.7 H 184.4 v -1.12 c 0,-0.616 -0.216,-1.336 -0.48,-1.6 -0.651,-0.651 -7.589,-0.651 -8.24,0 m 24.144,1.082 c -0.344,0.555 -1.297,0.568 -1.635,0.02 -0.142,-0.229 -0.033,-0.688 0.242,-1.02 0.594,-0.715 1.881,0.209 1.393,1 m -15.9,0.538 c 0.068,0.825 0.338,1.51 0.6,1.522 0.262,0.011 2.003,0.056 3.87,0.1 3.655,0.084 4.227,0.476 3.05,2.086 -0.543,0.742 -1.067,0.792 -8.367,0.792 h -7.787 l -0.832,-1 c -1.067,-1.284 -1.068,-1.277 0.34,-2.079 0.802,-0.456 1.114,-0.884 0.953,-1.305 -0.541,-1.409 0.584,-1.85 4.41,-1.73 l 3.639,0.114 0.124,1.5 m 26.876,-0.9 c 0,0.22 -0.27,0.4 -0.6,0.4 -0.33,0 -0.6,-0.18 -0.6,-0.4 0,-0.22 0.27,-0.4 0.6,-0.4 0.33,0 0.6,0.18 0.6,0.4 m 5.44,0.735 c -1.066,1.726 -1.353,4.083 -0.549,4.513 1.211,0.649 18.128,0.258 19.709,-0.455 0.813,-0.366 3.777,-0.614 9.195,-0.767 7.192,-0.203 8.009,-0.296 8.13,-0.926 0.121,-0.636 -0.317,-0.7 -4.81,-0.7 -3.828,0 -5.436,-0.172 -7.129,-0.762 -2.644,-0.921 -24.048,-1.709 -24.546,-0.903 m 23.124,1.181 c 0.955,0.518 2.578,0.704 7.136,0.814 8.385,0.204 7.371,0.87 -1.323,0.87 -5.699,0 -8.048,0.171 -11.131,0.81 -3.223,0.668 -5.128,0.79 -10.877,0.7 l -6.969,-0.11 -0.124,-1.282 c -0.287,-2.97 -0.544,-2.909 11.393,-2.679 8.947,0.173 10.857,0.314 11.895,0.877 m -82.649,0.884 c 0.182,1.242 1.685,1.806 1.685,0.633 0,-1.073 -0.487,-1.833 -1.174,-1.833 -0.536,0 -0.649,0.264 -0.511,1.2 m 20.834,0.44 c -0.345,0.219 0.378,0.35 1.951,0.354 1.375,0.003 2.5,-0.153 2.5,-0.348 0,-0.457 -3.731,-0.462 -4.451,-0.006 M 161.6,205.6 c 0,0.22 -0.27,0.4 -0.6,0.4 -0.33,0 -0.6,-0.18 -0.6,-0.4 0,-0.22 0.27,-0.4 0.6,-0.4 0.33,0 0.6,0.18 0.6,0.4 m 30.2,4 c 0,1.329 -0.076,1.406 -1.5,1.524 -1.477,0.122 -2.289,-1.801 -1.214,-2.876 0.924,-0.924 2.714,-0.032 2.714,1.352 m -36.677,-0.77 c -0.079,0.237 -0.314,0.43 -0.523,0.43 -0.209,0 -0.444,-0.193 -0.523,-0.43 -0.079,-0.236 0.156,-0.43 0.523,-0.43 0.367,0 0.602,0.194 0.523,0.43 m -1.863,1.77 c 0,0.209 -0.194,0.445 -0.43,0.523 -0.236,0.079 -0.43,-0.156 -0.43,-0.523 0,-0.367 0.194,-0.602 0.43,-0.523 0.236,0.078 0.43,0.314 0.43,0.523 m -1.66,4.8 c 0,0.33 -0.18,0.6 -0.4,0.6 -0.22,0 -0.4,-0.27 -0.4,-0.6 0,-0.33 0.18,-0.6 0.4,-0.6 0.22,0 0.4,0.27 0.4,0.6 m -1.6,3 c 0,0.44 -0.18,0.8 -0.4,0.8 -0.22,0 -0.4,-0.36 -0.4,-0.8 0,-0.44 0.18,-0.8 0.4,-0.8 0.22,0 0.4,0.36 0.4,0.8 m -3.2,8 c 0,0.66 -0.18,1.2 -0.4,1.2 -0.445,0 -0.552,-1.715 -0.133,-2.133 0.452,-0.452 0.533,-0.31 0.533,0.933"
       inkscape:connector-curvature="0"
       style="fill:#747474;fill-rule:evenodd;stroke:none" />
    <path
       id="path3"
       d="m 166.251,182.282 c -0.138,0.138 -0.257,0.716 -0.264,1.285 -0.013,1.076 -1.362,2.907 -2.448,3.324 -0.393,0.151 -0.704,0.918 -0.831,2.052 -0.113,0.996 -0.498,2.104 -0.856,2.462 -0.359,0.359 -0.652,1.177 -0.652,1.818 0,0.947 -0.254,1.273 -1.351,1.731 -0.743,0.31 -1.474,0.763 -1.624,1.005 -0.159,0.258 -1.519,0.441 -3.275,0.441 -5.177,0 -5.674,0.885 -2.35,4.183 3.478,3.45 3.303,5.095 -1,9.393 -1.76,1.757 -3.2,3.342 -3.2,3.521 0,0.179 -0.36,0.633 -0.8,1.01 -0.44,0.377 -0.8,1.041 -0.8,1.475 0,0.434 -0.36,0.983 -0.8,1.218 -0.553,0.296 -0.8,0.838 -0.8,1.752 0,0.816 -0.307,1.602 -0.8,2.048 -0.573,0.519 -0.8,1.232 -0.8,2.515 0,1.104 -0.313,2.297 -0.815,3.11 -0.696,1.125 -0.799,1.867 -0.7,5.047 l 0.115,3.728 1.376,0.131 c 0.757,0.072 1.817,0.477 2.354,0.9 0.566,0.445 1.604,0.769 2.462,0.769 0.976,0 1.732,0.274 2.208,0.8 0.566,0.625 1.232,0.8 3.048,0.8 1.935,0 2.397,0.138 2.764,0.822 0.647,1.21 3.731,0.978 3.912,-0.295 0.08,-0.558 -0.172,-1.032 -0.7,-1.314 -1.223,-0.654 -1.242,-6.759 -0.024,-7.52 0.495,-0.309 0.8,-0.933 0.8,-1.634 0,-0.627 0.358,-1.459 0.8,-1.859 0.533,-0.483 0.8,-1.232 0.8,-2.248 0,-1.098 0.217,-1.64 0.775,-1.938 0.467,-0.251 0.824,-0.931 0.9,-1.715 l 0.125,-1.299 2.52,-0.12 c 2.223,-0.105 2.609,-0.011 3.274,0.8 0.729,0.889 0.779,0.895 1.48,0.194 0.701,-0.701 0.695,-0.751 -0.174,-1.464 -0.495,-0.406 -0.9,-1 -0.9,-1.32 0,-0.32 -0.36,-1.04 -0.8,-1.599 -0.44,-0.56 -0.8,-1.387 -0.8,-1.84 0,-0.453 0.36,-1.016 0.8,-1.251 0.44,-0.235 0.8,-0.692 0.8,-1.014 0,-0.78 1.527,-2.278 2.015,-1.977 0.212,0.131 0.385,0.836 0.385,1.566 0,1.638 0.912,2.562 1.8,1.825 0.33,-0.274 0.6,-1.03 0.6,-1.68 0,-2.463 1.798,-3.52 5.988,-3.52 h 3.65 l 1.981,1.981 c 2.268,2.268 2.737,4.386 1.157,5.232 -0.526,0.281 -0.78,0.756 -0.7,1.31 0.269,1.88 1.48,1.169 6.296,-3.695 2.63,-2.655 5.095,-4.828 5.479,-4.828 0.383,0 1.081,-0.36 1.549,-0.8 0.822,-0.772 1.473,-0.804 18.665,-0.9 14.068,-0.079 17.947,-0.211 18.45,-0.629 0.764,-0.634 4.13,-0.881 13.485,-0.99 l 7,-0.081 0.116,-3.74 c 0.128,-4.167 -0.156,-4.86 -1.992,-4.86 -1.048,0 -1.163,-0.12 -1.051,-1.1 0.124,-1.07 0.208,-1.105 3.127,-1.3 l 3,-0.2 0.112,-4.427 c 0.157,-6.153 0.477,-5.93 -8.421,-5.859 -6.295,0.051 -15.173,0.402 -30.091,1.19 -3.08,0.163 -11.635,0.296 -19.01,0.296 -14.396,0 -13.539,0.114 -15.767,-2.093 -0.891,-0.882 -20.74,-1.457 -21.572,-0.625 m 8.218,0.555 c 0.591,0.316 0.938,0.316 1.254,0 0.272,-0.272 2.413,-0.436 5.657,-0.435 l 5.22,0.002 1.6,1.498 1.6,1.498 9.6,0.135 c 11.419,0.161 40.859,-0.636 42.666,-1.154 2.014,-0.577 16.366,-0.609 17.429,-0.038 1.166,0.625 1.366,1.547 1.223,5.657 l -0.118,3.4 -2.797,0.2 c -2.583,0.185 -2.837,0.286 -3.332,1.321 -0.669,1.403 -0.002,2.436 1.402,2.167 1.447,-0.276 1.771,0.546 1.644,4.173 l -0.117,3.339 -1.471,0.122 c -1.334,0.111 -1.532,-0.006 -2.131,-1.269 -0.863,-1.82 -1.099,-1.894 -7.198,-2.251 -2.86,-0.168 -5.83,-0.511 -6.6,-0.762 -0.832,-0.273 -3.864,-0.439 -7.478,-0.411 -4.97,0.038 -6.245,-0.07 -6.989,-0.591 -1.166,-0.817 -3.085,-0.829 -3.395,-0.021 -0.208,0.543 -0.33,0.533 -1.013,-0.085 -0.736,-0.666 -0.875,-0.666 -2.704,-0.017 -1.061,0.377 -2.187,0.685 -2.503,0.685 -1.136,0 -2.51,2.122 -2.718,4.2 l -0.2,2 -6.186,0.111 c -5.394,0.097 -6.29,0.207 -7,0.86 -0.448,0.412 -1.12,0.812 -1.494,0.889 -0.374,0.077 -2.858,2.282 -5.52,4.9 -3.821,3.759 -4.94,4.656 -5.32,4.262 -0.376,-0.391 -0.285,-0.63 0.42,-1.109 1.789,-1.214 1.281,-3.809 -1.2,-6.123 l -2.1,-1.96 -3.822,-0.015 c -4.291,-0.017 -6.154,1.077 -6.448,3.785 -0.08,0.742 -0.359,1.2 -0.73,1.2 -0.37,0 -0.652,-0.46 -0.735,-1.2 -0.276,-2.44 -2.075,-2.708 -3.019,-0.449 -0.287,0.687 -0.82,1.496 -1.184,1.798 -0.882,0.731 -0.832,1.987 0.138,3.451 1.455,2.196 1.157,2.6 -1.92,2.6 -2.888,0 -3.68,0.391 -3.68,1.818 0,0.472 -0.36,1.184 -0.8,1.582 -0.44,0.398 -0.801,1.191 -0.803,1.762 -0.001,0.571 -0.36,1.578 -0.797,2.238 -0.437,0.66 -0.796,1.491 -0.797,1.846 -0.002,0.355 -0.363,1.104 -0.803,1.663 -1.19,1.513 -1.162,6.854 0.042,8.136 0.463,0.493 0.722,1.089 0.576,1.325 -0.441,0.714 -2.446,0.483 -3.218,-0.37 -0.523,-0.578 -1.234,-0.801 -2.562,-0.803 -1.161,-0.001 -2.28,-0.295 -3.038,-0.797 -0.66,-0.437 -1.726,-0.796 -2.369,-0.797 -0.642,-0.002 -1.504,-0.307 -1.914,-0.678 -0.41,-0.371 -1.504,-0.776 -2.431,-0.9 L 142.6,235 l -0.116,-3.272 c -0.094,-2.678 0.033,-3.549 0.7,-4.794 0.449,-0.837 0.817,-2.155 0.819,-2.928 0.001,-0.773 0.36,-1.946 0.797,-2.606 0.437,-0.66 0.796,-1.673 0.797,-2.251 0.002,-0.578 0.283,-1.284 0.626,-1.568 0.343,-0.285 0.866,-1.099 1.164,-1.811 0.297,-0.711 2.175,-2.976 4.173,-5.032 l 3.633,-3.738 0.004,-2.335 c 0.003,-2.247 -0.064,-2.398 -1.771,-4 -2.658,-2.496 -2.49,-4.814 0.273,-3.76 2.479,0.944 7.901,-1.617 7.901,-3.733 0,-0.623 0.283,-1.291 0.629,-1.484 0.354,-0.198 0.73,-1.126 0.86,-2.12 0.183,-1.407 0.545,-2.04 1.771,-3.099 1.092,-0.944 1.54,-1.652 1.54,-2.434 0,-0.606 0.12,-1.222 0.267,-1.368 0.441,-0.442 6.924,-0.3 7.802,0.17 M 174,189.536 c 0,0.184 0.45,0.541 1,0.791 0.569,0.259 1,0.792 1,1.236 0,2.488 6.7,3.003 7.619,0.586 0.692,-1.819 0.234,-2.059 -3.667,-1.93 -2.827,0.094 -3.648,-0.003 -3.819,-0.45 -0.231,-0.6 -2.133,-0.809 -2.133,-0.233 m 20.004,1.256 c -0.814,1.521 -0.099,2.808 1.559,2.808 1.693,0 2.437,-0.569 2.437,-1.866 0,-1.685 -3.195,-2.439 -3.996,-0.942 m 15.721,0 c -2.432,0.264 -2.687,0.434 -2.021,1.344 0.544,0.744 4.184,1.319 4.956,0.783 1.869,-1.296 0.246,-2.472 -2.935,-2.127 M 183.6,191.2 c 0,1.576 -5.206,2.757 -6.698,1.519 -1.582,-1.313 -0.605,-1.919 3.098,-1.919 2.133,0 3.6,0.163 3.6,0.4 m 13.76,-0.065 c 0.376,0.609 -0.989,2.065 -1.936,2.065 -0.911,0 -1.654,-1.303 -1.181,-2.069 0.267,-0.433 2.849,-0.429 3.117,0.004 m 18.829,0.083 c -0.469,0.758 0.684,1.582 2.213,1.582 1.168,0 1.551,-0.179 1.714,-0.8 0.263,-1.006 -0.362,-1.426 -1.15,-0.771 -0.455,0.376 -0.712,0.385 -1.063,0.034 -0.576,-0.576 -1.373,-0.597 -1.714,-0.045 m -40.095,4.448 c -0.835,0.835 -0.6,2.292 0.411,2.546 3.752,0.942 8.332,-0.392 7.251,-2.112 -0.558,-0.887 -6.852,-1.244 -7.662,-0.434 m 7.306,1.134 c 0,0.982 -0.064,1.002 -3.5,1.116 l -3.5,0.115 v -1.231 -1.231 l 3.5,0.115 c 3.436,0.114 3.5,0.134 3.5,1.116 m -7.133,3.467 c -0.147,0.146 -0.267,0.78 -0.267,1.408 0,0.83 -0.273,1.267 -1,1.598 -1.174,0.535 -1.2,0.663 -0.377,1.838 0.928,1.325 15.277,1.389 16.592,0.074 1.279,-1.279 0.616,-1.585 -3.439,-1.585 H 184 v -1.32 c 0,-0.726 -0.216,-1.536 -0.48,-1.8 -0.509,-0.509 -6.774,-0.693 -7.253,-0.213 m 22.311,0.168 c -0.147,0.239 -0.06,0.643 0.194,0.897 0.501,0.501 1.363,-0.39 0.978,-1.013 -0.28,-0.452 -0.856,-0.395 -1.172,0.116 M 183.4,201.7 c 0,0.605 -0.135,1.1 -0.3,1.1 -0.165,0 -1.74,0 -3.5,0 -3.186,0 -4.27,-0.797 -2.918,-2.148 0.946,-0.946 6.718,-0.046 6.718,1.048 m 32.162,-0.255 c -0.581,0.701 -0.952,0.427 -0.614,-0.453 0.135,-0.354 0.436,-0.525 0.669,-0.382 0.29,0.179 0.273,0.441 -0.055,0.835 M 239.4,200.8 c 0.16,0.259 -1.596,0.4 -4.976,0.4 -3.216,0 -5.224,-0.154 -5.224,-0.4 0,-0.245 1.925,-0.4 4.976,-0.4 2.887,0 5.081,0.168 5.224,0.4 m -5.2,0.634 c 5.022,0.191 6.553,0.38 7.111,0.877 0.531,0.472 1.446,0.613 3.6,0.555 4.96,-0.134 8.352,0.311 8.206,1.077 -0.11,0.573 -1.124,0.687 -7.922,0.892 -5.241,0.158 -8.188,0.412 -8.995,0.777 -1.759,0.794 -20.106,1.064 -21.116,0.31 -0.74,-0.552 -0.627,-1.051 0.882,-3.922 0.447,-0.849 2.782,-1.144 7.634,-0.964 2.31,0.086 7.08,0.265 10.6,0.398 m 11.008,0.975 c -0.772,0.182 -1.663,0.169 -2,-0.029 -0.409,-0.239 0.045,-0.346 1.392,-0.327 1.927,0.028 1.949,0.041 0.608,0.356 m 7.192,-0.006 c 0,0.255 -0.849,0.308 -2.3,0.145 -3.093,-0.348 -3.153,-0.548 -0.167,-0.548 1.392,0 2.467,0.176 2.467,0.403 m -76.8,1.797 c 0,0.33 -0.18,0.6 -0.4,0.6 -0.22,0 -0.4,-0.27 -0.4,-0.6 0,-0.33 0.18,-0.6 0.4,-0.6 0.22,0 0.4,0.27 0.4,0.6 m 7.2,-0.243 c 0,0.78 -3.068,1.136 -5.1,0.591 -1.828,-0.49 -0.814,-0.948 2.1,-0.948 1.65,0 3,0.161 3,0.357 m 7.7,0.325 c -0.495,0.096 -0.9,0.431 -0.9,0.746 0,0.966 -3.466,0.769 -4,-0.228 -0.412,-0.77 -0.312,-0.798 2.686,-0.746 1.713,0.03 2.709,0.133 2.214,0.228 m -1.266,4.277 c -0.272,0.328 -0.437,1.012 -0.365,1.519 0.164,1.153 2.199,1.31 2.885,0.222 0.919,-1.457 -1.417,-3.07 -2.52,-1.741 m 2.166,1.041 c 0,0.733 -0.241,1.034 -0.902,1.128 -0.983,0.14 -1.541,-0.718 -1.143,-1.756 0.406,-1.056 2.045,-0.553 2.045,0.628 m -20.7,10.633 c -0.381,0.382 -1.145,-0.236 -0.861,-0.695 0.168,-0.274 0.392,-0.267 0.679,0.02 0.236,0.236 0.318,0.54 0.182,0.675"
       inkscape:connector-curvature="0"
       style="fill:#9c9c9c;fill-rule:evenodd;stroke:none" />
    <path
       id="path4"
       d="m 233.907,185.09 c 0.719,0.089 1.799,0.087 2.4,-0.004 0.601,-0.091 0.013,-0.164 -1.307,-0.162 -1.32,0.002 -1.812,0.077 -1.093,0.166 m -14.407,0.392 c 0.495,0.096 1.305,0.096 1.8,0 0.495,-0.095 0.09,-0.173 -0.9,-0.173 -0.99,0 -1.395,0.078 -0.9,0.173 m -39.4,4.794 c 0.385,0.1 1.015,0.1 1.4,0 0.385,-0.101 0.07,-0.183 -0.7,-0.183 -0.77,0 -1.085,0.082 -0.7,0.183 m 29.6,0.4 c 0.385,0.1 1.015,0.1 1.4,0 0.385,-0.101 0.07,-0.183 -0.7,-0.183 -0.77,0 -1.085,0.082 -0.7,0.183 m -2.778,0.782 c -0.305,0.796 0.876,1.765 2.054,1.688 0.749,-0.05 0.742,-0.071 -0.077,-0.228 -1.084,-0.209 -1.949,-1.55 -1.196,-1.854 0.385,-0.156 0.382,-0.208 -0.016,-0.232 -0.281,-0.018 -0.626,0.264 -0.765,0.626 m 6.383,0.206 c -0.036,0.475 -0.299,1.012 -0.585,1.194 -0.286,0.182 -0.327,0.333 -0.09,0.336 0.237,0.003 0.832,-0.421 1.322,-0.943 0.816,-0.868 0.615,-1.451 -0.5,-1.451 -0.045,0 -0.111,0.389 -0.147,0.864 m 2.104,-0.479 c -0.131,0.212 0.138,0.762 0.598,1.222 1.088,1.088 4.15,1.005 4.249,-0.115 0.044,-0.497 0.006,-0.526 -0.126,-0.1 -0.125,0.404 -0.698,0.608 -1.71,0.608 -1.547,0 -2.702,-0.82 -2.231,-1.582 0.142,-0.23 0.078,-0.418 -0.142,-0.418 -0.22,0 -0.507,0.173 -0.638,0.385 m 2.511,0.095 c 0.373,0.373 0.587,0.373 0.96,0 0.373,-0.373 0.267,-0.48 -0.48,-0.48 -0.747,0 -0.853,0.107 -0.48,0.48 m -61.12,7.92 c 0,0.22 0.36,0.4 0.8,0.4 0.44,0 0.8,-0.18 0.8,-0.4 0,-0.22 -0.36,-0.4 -0.8,-0.4 -0.44,0 -0.8,0.18 -0.8,0.4 m 7.784,-0.027 c 0.145,0.235 0.629,0.427 1.077,0.427 0.477,0 0.9,0.331 1.023,0.8 0.314,1.202 0.988,0.962 0.843,-0.3 -0.111,-0.961 -0.322,-1.116 -1.667,-1.227 -1.015,-0.083 -1.45,0.019 -1.276,0.3 m 52.658,0.061 c -0.527,0.211 -0.869,0.472 -0.761,0.581 0.109,0.108 0.81,-0.068 1.558,-0.393 1.482,-0.643 0.764,-0.812 -0.797,-0.188 m 3.558,-0.283 c 0,0.61 1.134,0.999 1.341,0.459 0.161,-0.419 -0.012,-0.61 -0.554,-0.61 -0.433,0 -0.787,0.068 -0.787,0.151 m 4.854,0.612 c 0.518,0.42 1.089,0.672 1.268,0.562 0.404,-0.25 -0.923,-1.295 -1.666,-1.312 -0.313,-0.008 -0.143,0.312 0.398,0.75 m -4.541,1.532 c 1.163,0.081 2.963,0.081 4,-0.002 1.038,-0.082 0.087,-0.148 -2.113,-0.147 -2.2,0.001 -3.049,0.068 -1.887,0.149 m 22.8,0 c 1.163,0.081 2.963,0.081 4,-0.002 1.038,-0.082 0.087,-0.148 -2.113,-0.147 -2.2,0.001 -3.049,0.068 -1.887,0.149 m -30.959,1.082 c -0.122,0.317 -0.151,0.902 -0.065,1.3 0.098,0.451 0.235,0.235 0.365,-0.577 0.217,-1.362 0.076,-1.704 -0.3,-0.723 m 26.715,-0.186 c 0.587,0.178 1.307,0.467 1.6,0.643 0.42,0.253 0.416,0.178 -0.018,-0.357 -0.302,-0.372 -1.022,-0.662 -1.6,-0.643 l -1.051,0.035 1.069,0.322 m 6.431,1.1 c 0.825,0.087 2.175,0.087 3,0 0.825,-0.086 0.15,-0.157 -1.5,-0.157 -1.65,0 -2.325,0.071 -1.5,0.157 m -60.1,0.357 c 2.316,0.297 5.912,0.329 5.739,0.052 -0.102,-0.165 -1.661,-0.273 -3.463,-0.24 -1.802,0.033 -2.826,0.118 -2.276,0.188 M 182,204 c 0,0.22 -0.945,0.43 -2.1,0.467 -1.83,0.059 -1.899,0.088 -0.538,0.228 1.823,0.187 3.438,-0.143 3.438,-0.703 0,-0.215 -0.18,-0.392 -0.4,-0.392 -0.22,0 -0.4,0.18 -0.4,0.4 m -21.6,1.6 c 0,0.22 0.27,0.4 0.6,0.4 0.33,0 0.6,-0.18 0.6,-0.4 0,-0.22 -0.27,-0.4 -0.6,-0.4 -0.33,0 -0.6,0.18 -0.6,0.4 m 16.7,0.682 c 0.495,0.096 1.305,0.096 1.8,0 0.495,-0.095 0.09,-0.173 -0.9,-0.173 -0.99,0 -1.395,0.078 -0.9,0.173 m 4,0.007 c 0.715,0.089 1.885,0.089 2.6,0 0.715,-0.088 0.13,-0.161 -1.3,-0.161 -1.43,0 -2.015,0.073 -1.3,0.161 m 5.207,0.001 c 0.719,0.089 1.799,0.087 2.4,-0.004 0.601,-0.091 0.013,-0.164 -1.307,-0.162 -1.32,0.002 -1.812,0.077 -1.093,0.166 m -40.04,19.177 c -0.419,0.418 -0.312,2.133 0.133,2.133 0.22,0 0.4,-0.54 0.4,-1.2 0,-1.243 -0.081,-1.385 -0.533,-0.933"
       inkscape:connector-curvature="0"
       style="fill:#848484;fill-rule:evenodd;stroke:none"
       sodipodi:nodetypes="csscccscccscccsccccccccsscsccsccscsccssccsssccsccccccccccscccccccscccscccccccccccccscccsccccssccssscccscccsccssccssc" />
  </g>
</svg>
