<?xml version="1.0" encoding="UTF-8" standalone="no"?>
<!-- Created with Inkscape (http://www.inkscape.org/) -->

<svg
   xmlns:sketch="http://www.bohemiancoding.com/sketch/ns"
   xmlns:dc="http://purl.org/dc/elements/1.1/"
   xmlns:cc="http://creativecommons.org/ns#"
   xmlns:rdf="http://www.w3.org/1999/02/22-rdf-syntax-ns#"
   xmlns:svg="http://www.w3.org/2000/svg"
   xmlns="http://www.w3.org/2000/svg"
   xmlns:sodipodi="http://sodipodi.sourceforge.net/DTD/sodipodi-0.dtd"
   xmlns:inkscape="http://www.inkscape.org/namespaces/inkscape"
   width="17.943415mm"
   height="4.9223356mm"
   viewBox="0 0 17.943415 4.9223356"
   version="1.1"
   id="svg312"
   inkscape:version="0.92.4 (5da689c313, 2019-01-14)"
   sodipodi:docname="MachineGUn.svg">
  <defs
     id="defs306" />
  <sodipodi:namedview
     id="base"
     pagecolor="#ffffff"
     bordercolor="#666666"
     borderopacity="1.0"
     inkscape:pageopacity="0.0"
     inkscape:pageshadow="2"
     inkscape:zoom="13.905697"
     inkscape:cx="17.684456"
     inkscape:cy="15.476783"
     inkscape:document-units="mm"
     inkscape:current-layer="layer1"
     showgrid="false"
     inkscape:window-width="1024"
     inkscape:window-height="664"
     inkscape:window-x="-8"
     inkscape:window-y="-8"
     inkscape:window-maximized="1" />
  <metadata
     id="metadata309">
    <rdf:RDF>
      <cc:Work
         rdf:about="">
        <dc:format>image/svg+xml</dc:format>
        <dc:type
           rdf:resource="http://purl.org/dc/dcmitype/StillImage" />
        <dc:title></dc:title>
      </cc:Work>
    </rdf:RDF>
  </metadata>
  <g
     inkscape:label="Layer 1"
     inkscape:groupmode="layer"
     id="layer1"
     transform="translate(-62.087816,-125.96145)">
    <g
       sketch:type="MSPage"
       id="Page-1"
       style="fill:none;fill-rule:evenodd;stroke:none;stroke-width:1"
       transform="matrix(0.26458333,0,0,0.26458333,62.087816,125.96145)">
      <g
         transform="translate(-16,-41)"
         sketch:type="MSArtboardGroup"
         id="Artboard-8"
         style="fill:#000000">
        <path
           sketch:type="MSShapeGroup"
           id="machine-gun"
           d="m 16.592662,48.292602 c 1.118164,-0.863281 8.995239,-2.210449 9.535278,-2.210449 0.540039,0 3.034912,1.465088 3.574829,1.465088 0.539917,0 2.257324,-1.996948 2.815063,-1.996948 0.55774,0 10.8219,-2.362915 11.033814,-2.618164 0.211914,-0.255249 1.771973,-1.450318 2.206055,-1.450318 0.434082,0 2.226074,1.431275 2.676635,1.431275 0.450562,0 9.883547,-0.249634 11.67029,0 1.786743,0.249634 3.932373,1.135132 4.808838,1.135132 0.876464,0 10.24292,0.40979 10.517334,0 C 75.705212,43.638428 75.943736,41 76.307505,41 c 0.36377,0 0.50171,2.847656 0.852052,3.048218 0.350342,0.200561 6.315182,-0.266113 6.504025,0 0.188843,0.266113 0.221316,1.078979 2e-6,1.290527 -0.03725,0.03561 -0.115971,0.06193 -0.221138,0.08262 -0.519605,0.102241 -1.684867,0.06715 -1.684867,0.33669 0,0.324096 1.221069,0.685058 1.221069,0.974121 0,0.289062 -1.899292,2.545044 -2.450073,2.545044 -0.550782,0 -11.069458,-0.465332 -12.165528,-0.465332 -1.096069,0 -12.871338,0.246704 -12.871338,1.006714 0,0.760009 1.921265,1.151977 2.862793,1.151977 0.941529,0 4.360108,0.110718 4.360108,1.397339 0,1.286621 -2.786988,2.222046 -4.409668,2.222046 -1.622681,0 -6.497925,0.310669 -7.126099,-0.100342 -0.628174,-0.411011 -0.704223,-1.381226 -0.53186,-1.751465 0.172363,-0.370239 1.878784,-1.613037 1.333618,-1.81665 -0.545166,-0.203614 -4.042603,-0.310791 -4.311401,0.01343 -0.268799,0.324219 0.635254,6.746705 0.317627,6.979004 -0.317627,0.2323 -6.63086,0.273072 -6.919922,-0.0282 -0.289063,-0.301269 0.856933,-6.015136 0.428466,-6.339477 -0.428466,-0.324341 -3.826904,0.697143 -4.376464,0.697143 -0.549561,0 0.05566,2.051392 -0.200928,2.265869 -0.256592,0.214478 -2.663208,2.108155 -2.663208,2.524781 0,0.416626 -0.535645,2.053955 -0.899414,2.258911 -0.36377,0.204956 -5.000366,0.444336 -5.396729,0.222168 -0.396362,-0.222168 -1.371704,-1.341797 -1.860107,-1.341797 -0.488403,0 -9.350708,0.610351 -9.6073,0.305176 -0.256592,-0.305176 -1.016723,-9.322632 0.101441,-10.185914 z m 11.930664,3.415528 c 1.248535,0 4.058471,1.041626 4.058471,1.723999 0,0.682373 -1.587158,3.38208 -2.030761,3.38208 -0.443604,0 -3.595093,-1.220825 -3.595093,-1.617065 0,-0.396241 -0.308228,-2.096192 -0.03259,-2.453003 0.275635,-0.356812 0.351441,-1.036011 1.599976,-1.036011 z m 24.950195,-7.330689 c 0,0 4.166077,-0.221313 5.08844,0 0.922363,0.221314 2.215881,0.911072 2.215881,0.911072 0,0 -5.40393,0.162842 -5.924804,0 -0.520875,-0.162842 -1.379517,-0.911072 -1.379517,-0.911072 z"
           inkscape:connector-curvature="0" />
      </g>
    </g>
  </g>
</svg>
