<?xml version="1.0" encoding="UTF-8" standalone="no"?>
<svg
   xmlns:dc="http://purl.org/dc/elements/1.1/"
   xmlns:cc="http://creativecommons.org/ns#"
   xmlns:rdf="http://www.w3.org/1999/02/22-rdf-syntax-ns#"
   xmlns:svg="http://www.w3.org/2000/svg"
   xmlns="http://www.w3.org/2000/svg"
   xmlns:sodipodi="http://sodipodi.sourceforge.net/DTD/sodipodi-0.dtd"
   xmlns:inkscape="http://www.inkscape.org/namespaces/inkscape"
   id="svg"
   version="1.1"
   width="400"
   height="400"
   viewBox="0, 0, 400,400"
   sodipodi:docname="PulseRifle.svg"
   inkscape:version="0.92.4 (5da689c313, 2019-01-14)">
  <metadata
     id="metadata156">
    <rdf:RDF>
      <cc:Work
         rdf:about="">
        <dc:format>image/svg+xml</dc:format>
        <dc:type
           rdf:resource="http://purl.org/dc/dcmitype/StillImage" />
      </cc:Work>
    </rdf:RDF>
  </metadata>
  <defs
     id="defs154" />
  <sodipodi:namedview
     pagecolor="#ffffff"
     bordercolor="#666666"
     borderopacity="1"
     objecttolerance="10"
     gridtolerance="10"
     guidetolerance="10"
     inkscape:pageopacity="0"
     inkscape:pageshadow="2"
     inkscape:window-width="640"
     inkscape:window-height="480"
     id="namedview152"
     showgrid="false"
     inkscape:zoom="0.59"
     inkscape:cx="-163.49477"
     inkscape:cy="200"
     inkscape:window-x="0"
     inkscape:window-y="0"
     inkscape:window-maximized="0"
     inkscape:current-layer="svg" />
  <g
     id="svgg"
     transform="translate(0,159.32203)">
    <path
       id="path0"
       d="m -488.13559,200 v 200 h 200 199.999997 V 200 0 h -199.999997 -200 v 200 m 270.6,-24.8 c 0,1.074 -1.923,1.557 -4.062,1.02 -1.007,-0.253 -1.307,-1.598 -0.438,-1.964 1.584,-0.668 4.5,-0.056 4.5,0.944 m -96.8,4.4 c 1.803,1.194 10.519,1.194 11.6,0 1.067,-1.179 2.837,-1.025 4.231,0.369 1.536,1.537 1.812,7.138 0.369,7.515 -2.614,0.684 0.444,2.287 4.8,2.516 l 3.8,0.2 0.125,1.3 c 0.069,0.715 0.283,1.3 0.475,1.3 0.192,0 0.406,-0.585 0.475,-1.3 l 0.125,-1.3 4.055,-0.113 c 3.085,-0.087 4.473,0.049 5.8,0.569 1.449,0.567 3.812,0.725 13.945,0.933 10.263,0.211 12.436,0.359 13.687,0.931 1.234,0.564 2.787,0.68 9.131,0.68 h 7.644 l 1.198,1.199 c 1.591,1.59 1.386,2.563 -0.572,2.726 -1.691,0.14 -1.644,0.875 0.056,0.875 0.603,0 1.283,0.187 1.511,0.415 0.286,0.286 0.752,0.286 1.506,0 2.344,-0.891 23.984,-0.53 25.193,0.42 l 1.061,0.835 0.747,-0.922 c 1.56,-1.927 3.027,3.808 1.795,7.019 -0.293,0.764 -1.592,0.841 -1.872,0.111 -0.157,-0.41 -2.673,-0.545 -11.657,-0.627 l -11.457,-0.104 -0.76,0.927 c -0.734,0.894 -0.784,0.901 -1.485,0.2 -0.701,-0.701 -0.694,-0.752 0.203,-1.488 1.286,-1.054 1.051,-2.542 -0.429,-2.713 -1.016,-0.116 -1.1,-0.019 -1.1,1.286 0,1.003 -0.232,1.537 -0.8,1.841 -0.44,0.235 -0.8,0.775 -0.8,1.2 0,0.425 0.36,0.965 0.8,1.2 1.779,0.952 0.593,7.2 -1.367,7.2 -0.28,0 -0.8,0.321 -1.155,0.713 -0.901,0.996 -27.301,0.874 -31.424,-0.144 -3.575,-0.884 -18.444,-0.608 -20.349,0.377 -0.696,0.36 -2.062,0.654 -3.037,0.654 -2.189,0 -5.7,2.971 -5.934,5.021 -0.109,0.955 -0.324,1.179 -1.134,1.179 -1.407,0 -1.734,-3.086 -0.403,-3.798 0.737,-0.395 0.825,-0.753 0.721,-2.922 l -0.118,-2.472 -2.2,-0.332 c -4.196,-0.633 -9.025,-0.175 -9.973,0.946 l -0.827,0.978 -0.788,-0.929 c -0.497,-0.587 -1.124,-0.882 -1.7,-0.8 -1.333,0.189 -1.538,3.224 -0.307,4.535 1.274,1.356 0.967,3.152 -0.568,3.327 -1.803,0.205 -3.437,2.086 -3.437,3.956 0,1.255 -0.294,1.856 -1.548,3.161 -3.15,3.278 -2.544,6.55 1.212,6.55 1.907,0 2.676,0.18 3.31,0.775 1.357,1.273 8.099,1.368 8.925,0.125 0.329,-0.495 0.809,-0.9 1.067,-0.9 0.258,0 0.641,-0.585 0.851,-1.3 0.473,-1.605 1.429,-1.682 1.965,-0.158 0.343,0.974 0.271,1.248 -0.49,1.864 -0.544,0.44 -0.892,1.166 -0.892,1.858 0,1.371 -2.218,3.336 -3.765,3.336 -0.554,0 -1.64,0.301 -2.413,0.67 -1.314,0.626 -1.452,0.626 -2.145,0 -0.474,-0.429 -1.425,-0.67 -2.645,-0.67 -1.3,0 -2.229,-0.254 -2.923,-0.8 -0.721,-0.568 -1.623,-0.8 -3.101,-0.8 -1.576,0 -2.26,-0.195 -2.808,-0.8 -0.579,-0.64 -1.232,-0.8 -3.259,-0.8 -2.101,0 -2.62,-0.137 -3.034,-0.8 -0.402,-0.644 -0.933,-0.8 -2.727,-0.8 -3.199,0 -3.986,-0.659 -3.072,-2.576 0.381,-0.798 0.692,-2.035 0.692,-2.749 0,-0.802 0.305,-1.559 0.8,-1.982 0.579,-0.496 0.8,-1.18 0.8,-2.475 0,-1.38 0.183,-1.888 0.8,-2.218 0.467,-0.25 0.8,-0.838 0.8,-1.411 0,-0.549 0.353,-1.202 0.8,-1.482 0.44,-0.275 0.8,-0.643 0.8,-0.819 0,-0.175 0.72,-1.068 1.6,-1.984 0.905,-0.942 1.6,-2.058 1.6,-2.571 0,-0.497 0.36,-1.098 0.8,-1.333 2.455,-1.314 -0.086,-5.6 -3.32,-5.6 -1.096,0 -1.974,-0.231 -2.28,-0.6 -0.274,-0.33 -0.814,-0.6 -1.2,-0.6 -0.386,0 -1.349,0.27 -2.138,0.6 -0.79,0.33 -1.998,0.6 -2.685,0.6 -2.775,0 -4.024,6.684 -1.967,10.522 0.735,1.372 0.799,2.126 0.7,8.194 l -0.11,6.684 -2.334,0.121 c -1.411,0.073 -2.564,-0.07 -2.917,-0.363 -0.441,-0.367 -0.695,-0.372 -1.046,-0.021 -0.255,0.255 -1.012,0.464 -1.683,0.466 -0.671,0.001 -1.76,0.36 -2.42,0.797 -1.416,0.938 -2.327,1.011 -2.968,0.239 -0.399,-0.481 -0.631,-0.479 -1.623,0.017 -0.801,0.399 -2.182,0.541 -4.484,0.461 l -3.325,-0.117 -0.117,-3.577 -0.116,-3.577 -1.584,-1.461 c -0.871,-0.804 -1.583,-1.648 -1.583,-1.875 0,-0.226 -0.26,-0.627 -0.577,-0.891 -0.317,-0.263 -0.632,-1.05 -0.7,-1.749 -0.137,-1.41 -1.819,-1.645 -3.154,-0.44 -0.935,0.844 -2.425,0.672 -3.669,-0.423 -1.112,-0.98 -1.412,-1.967 -0.725,-2.392 0.515,-0.318 0.53,-26.103 0.016,-26.421 -0.626,-0.386 -0.451,-2.085 0.242,-2.351 0.348,-0.134 11.784,-0.243 25.413,-0.243 h 24.78 l 0.345,-0.9 c 0.198,-0.516 0.193,-1.062 -0.013,-1.28 -0.635,-0.674 -0.381,-2.18 0.442,-2.62 0.521,-0.279 0.8,-0.838 0.8,-1.6 0,-0.762 0.279,-1.321 0.8,-1.6 0.507,-0.272 0.8,-0.838 0.8,-1.547 0,-1.895 0.998,-2.179 3,-0.853 m -58.4,26 v 17 l -1.2,0.132 c -0.66,0.073 -1.582,0.488 -2.05,0.923 -0.672,0.625 -1.299,0.765 -3,0.668 l -2.15,-0.123 0.004,-3.6 c 0.004,-2.769 0.165,-3.828 0.7,-4.589 0.949,-1.348 1.051,-19.188 0.123,-21.409 -0.713,-1.706 -1.195,-4.786 -0.879,-5.611 0.197,-0.514 0.936,-0.6 4.345,-0.505 l 4.107,0.114 v 17 m 41.97,-11.066 c -0.517,1.348 -0.007,3.272 0.83,3.126 1.068,-0.187 1.43,-0.814 1.304,-2.26 -0.115,-1.33 -1.708,-1.976 -2.134,-0.866 m 5.697,1.366 c -0.665,1.104 0.389,3.5 1.54,3.5 1.139,0 1.198,-0.085 1.315,-1.9 l 0.122,-1.9 h -1.398 c -0.77,0 -1.48,0.135 -1.579,0.3 m 24.678,1.9 c -0.738,1.923 2.554,2.61 4.185,0.874 1.263,-1.344 1.127,-1.474 -1.543,-1.474 -1.775,0 -2.473,0.158 -2.642,0.6 m 41.455,-0.2 c 0,0.22 0.551,0.4 1.224,0.4 0.713,0 1.12,-0.167 0.976,-0.4 -0.136,-0.22 -0.687,-0.4 -1.224,-0.4 -0.537,0 -0.976,0.18 -0.976,0.4 m 6.593,0.011 c -0.15,0.244 1.525,0.387 4.483,0.383 2.713,-0.004 4.498,-0.15 4.193,-0.343 -0.75,-0.476 -8.385,-0.511 -8.676,-0.04 m -78.448,3.389 c -0.347,0.903 0.137,1.8 0.97,1.8 0.79,0 2.579,-1.773 2.186,-2.166 -0.502,-0.502 -2.931,-0.221 -3.156,0.366 m 22.755,1.265 c -0.275,0.111 -0.5,0.647 -0.5,1.19 0,1.072 3.543,1.338 3.887,0.291 0.374,-1.137 -1.839,-2.106 -3.387,-1.481 m 47.645,1.935 c -0.669,1.743 -0.249,1.821 9.145,1.708 l 8.91,-0.108 0.127,-1.1 0.126,-1.1 h -9.039 c -7.666,0 -9.074,0.091 -9.269,0.6 m -82.654,8.2 c -0.56,0.44 -1.293,0.8 -1.63,0.8 -0.338,0 -0.725,0.18 -0.861,0.4 -0.136,0.22 0.087,0.4 0.496,0.4 1.067,0 1.695,0.776 1.764,2.18 0.056,1.149 0.069,1.159 0.222,0.162 0.09,-0.583 0.513,-1.375 0.941,-1.762 0.427,-0.387 0.777,-0.924 0.777,-1.193 0,-0.269 0.405,-0.772 0.9,-1.117 l 0.9,-0.628 -1.246,-0.021 c -0.685,-0.012 -1.704,0.339 -2.263,0.779 m -6.891,2.8 c -0.32,0.518 2.198,0.518 3,0 0.44,-0.284 0.153,-0.389 -1.076,-0.394 -0.922,-0.003 -1.788,0.174 -1.924,0.394 m -4.144,2.013 c -0.52,0.433 -1.33,0.79 -1.8,0.793 -0.471,0.003 -1.126,0.181 -1.456,0.394 -0.474,0.306 -0.385,0.389 0.42,0.394 1.297,0.008 1.978,0.689 1.986,1.986 0.003,0.561 0.181,1.29 0.394,1.62 0.282,0.436 0.389,0.101 0.394,-1.224 0.003,-1.002 0.243,-2.147 0.533,-2.544 0.816,-1.116 1.946,0.196 1.824,2.118 -0.165,2.623 0.014,3.922 0.449,3.25 0.213,-0.33 0.391,-2.175 0.394,-4.1 l 0.006,-3.5 -1.1,0.013 c -0.605,0.008 -1.525,0.368 -2.044,0.8 m -7.056,2.787 c -0.14,0.226 0.188,0.4 0.753,0.4 0.55,0 1.111,-0.18 1.247,-0.4 0.14,-0.226 -0.188,-0.4 -0.753,-0.4 -0.55,0 -1.111,0.18 -1.247,0.4 m 19.028,5.7 c -0.018,3.952 0.121,6.3 0.372,6.3 0.495,0 0.495,-10.648 0,-11.8 -0.212,-0.494 -0.355,1.608 -0.372,5.5 m -12.415,-1.2 c -0.007,0.605 0.156,1.1 0.363,1.1 0.697,0 0.802,-0.677 0.224,-1.441 -0.544,-0.719 -0.575,-0.701 -0.587,0.341 m 58.537,-0.007 c 0.509,0.806 -0.27,2.707 -1.11,2.707 -0.788,0 -1.249,-2.267 -0.615,-3.03 0.576,-0.694 1.151,-0.586 1.725,0.323 m -1.724,4.176 c 0.558,1.466 -0.466,2.662 -1.442,1.686 -0.674,-0.673 -0.208,-2.755 0.616,-2.755 0.231,0 0.603,0.481 0.826,1.069"
       inkscape:connector-curvature="0"
       style="fill:#fbfbfb;fill-rule:evenodd;stroke:none" />
    <path
       id="path1"
       d="m 267.6,175.2 c 0,0.22 0.54,0.4 1.2,0.4 0.66,0 1.2,-0.18 1.2,-0.4 0,-0.22 -0.54,-0.4 -1.2,-0.4 -0.66,0 -1.2,0.18 -1.2,0.4 m -81.309,5.2 c -1.35,1.062 -12.637,1.229 -13.491,0.2 -0.777,-0.936 -1.2,-0.712 -1.2,0.637 0,0.901 -0.217,1.295 -0.8,1.447 -0.606,0.159 -0.8,0.546 -0.8,1.6 0,1.054 -0.194,1.441 -0.8,1.6 -1.221,0.319 -0.953,0.916 0.413,0.916 3.439,0 0.736,3.5 -3.058,3.96 -1.295,0.157 -2.769,0.511 -3.276,0.788 -0.756,0.413 -1.259,0.39 -2.814,-0.127 -1.639,-0.544 -4.577,-0.615 -21.8,-0.525 l -19.906,0.104 0.008,14.8 0.007,14.8 1.848,-0.068 c 2.214,-0.081 2.447,-0.259 1.872,-1.433 -0.709,-1.446 -1.006,-5.341 -0.483,-6.32 0.335,-0.625 0.342,-0.986 0.026,-1.302 -0.624,-0.624 -0.54,-2.494 0.137,-3.056 0.316,-0.262 0.692,-1.013 0.836,-1.669 0.188,-0.852 0.851,-1.581 2.326,-2.554 l 2.064,-1.363 11.4,0.027 c 12.578,0.031 12.785,0.068 13.581,2.482 0.454,1.373 1.631,2.084 2.316,1.399 0.876,-0.876 4.398,-0.873 5.819,0.005 0.758,0.469 1.897,0.854 2.531,0.856 1.602,0.006 3.753,2.25 3.753,3.915 0,0.679 0.18,1.345 0.4,1.481 0.22,0.136 0.4,-0.021 0.4,-0.348 0,-1.912 2.5,-2.233 4.3,-0.553 1.038,0.969 1.133,1.791 0.337,2.926 -0.309,0.442 -0.689,1.697 -0.843,2.789 -0.154,1.092 -0.531,2.385 -0.837,2.872 -0.307,0.487 -0.557,1.258 -0.557,1.713 0,1.294 -2.548,3.601 -3.977,3.601 -1.471,0 -2.268,1.076 -2.668,3.6 -0.511,3.226 -2.899,5.1 -5.039,3.955 -0.62,-0.332 -0.896,-0.312 -1.14,0.085 -0.545,0.881 -0.018,1.16 2.194,1.16 1.516,0 2.412,0.228 3.139,0.8 0.734,0.577 1.623,0.8 3.192,0.8 1.667,0 2.344,0.187 2.899,0.8 0.565,0.624 1.232,0.8 3.039,0.8 1.881,0 2.423,0.154 2.89,0.82 0.884,1.261 9.087,1.281 10.424,0.024 0.494,-0.464 1.112,-0.844 1.373,-0.844 0.261,0 0.474,-0.54 0.474,-1.2 0,-1.509 -0.072,-1.501 -1.773,0.2 -1.503,1.502 -2.737,1.745 -4.003,0.787 -0.45,-0.34 -1.645,-0.587 -2.838,-0.587 -1.554,0 -2.24,-0.197 -2.786,-0.8 -0.566,-0.625 -1.232,-0.8 -3.046,-0.8 -3.075,0 -5.974,-2.893 -3.754,-3.745 0.35,-0.134 0.6,-0.733 0.6,-1.439 0,-0.776 0.287,-1.388 0.8,-1.709 0.44,-0.275 0.8,-0.653 0.8,-0.84 0,-0.188 0.36,-0.798 0.8,-1.358 0.44,-0.559 0.8,-1.558 0.8,-2.22 0,-1.602 2.169,-3.879 3.7,-3.885 1.313,-0.005 1.345,-0.166 0.3,-1.495 -2.453,-3.119 0.455,-8.694 3.137,-6.012 0.325,0.325 0.594,0.356 0.78,0.09 1.932,-2.768 12.124,-2.3 13.692,0.629 0.579,1.082 1.77,0.981 2.554,-0.216 0.361,-0.55 0.881,-1 1.157,-1 0.276,0 0.792,-0.338 1.145,-0.751 0.867,-1.012 56.27,-1.257 57.274,-0.252 0.757,0.756 1.061,0.363 1.061,-1.367 0,-1.004 -0.241,-1.588 -0.8,-1.937 -1.056,-0.659 -1.061,-2.677 -0.01,-3.577 0.672,-0.576 0.709,-0.768 0.249,-1.296 -0.298,-0.341 -0.66,-1.45 -0.806,-2.465 l -0.265,-1.844 -2.443,-0.256 c -3.795,-0.396 -5.464,-0.307 -6.758,0.362 -1.418,0.733 -16.342,0.596 -18.764,-0.173 -0.833,-0.265 -4.678,-0.444 -9.513,-0.444 -6.999,0 -8.148,-0.086 -8.356,-0.627 -0.567,-1.477 0.138,-1.524 20.96,-1.399 11.168,0.067 20.756,0.097 21.306,0.067 0.55,-0.029 1.495,-0.077 2.1,-0.105 1.196,-0.055 1.457,-0.514 0.5,-0.881 -0.33,-0.126 -0.6,-0.487 -0.6,-0.802 0,-0.477 -1.651,-0.597 -9.9,-0.722 -7.809,-0.118 -10.111,-0.274 -10.9,-0.74 -0.798,-0.471 -3.387,-0.632 -12.8,-0.795 -10.202,-0.176 -11.973,-0.298 -13.08,-0.9 -2.407,-1.309 -7.278,-0.913 -6.507,0.529 0.278,0.519 0.211,0.894 -0.242,1.347 -1.217,1.217 -2.571,0.452 -2.571,-1.452 v -1.12 h -3.769 c -3.437,0 -3.874,-0.088 -4.958,-1 -0.654,-0.55 -1.545,-1 -1.982,-1 -0.949,0 -1.489,-0.615 -1.843,-2.1 -0.375,-1.57 -11.074,-1.924 -12.734,-0.422 -0.982,0.889 -1.611,0.226 -1.443,-1.52 0.17,-1.769 1.856,-2.51 3.115,-1.371 0.716,0.648 1.312,0.708 5.112,0.512 6.615,-0.34 8.568,-0.003 9.274,1.601 0.863,1.96 1.228,1.579 1.228,-1.282 0,-3.756 -1.641,-5.445 -3.709,-3.818 M 108,189.72 c 0,0.286 0.225,0.745 0.5,1.02 0.89,0.89 0.703,27.351 -0.2,28.349 -0.456,0.505 -0.7,1.424 -0.7,2.642 0,2.171 1.735,2.686 3.6,1.069 0.527,-0.457 1.497,-0.8 2.261,-0.8 h 1.339 v -16.4 -16.4 h -3.4 c -2.523,0 -3.4,0.134 -3.4,0.52 m 77.135,0.231 c 0.294,0.187 0.474,0.769 0.4,1.294 -0.191,1.351 -2.926,1.645 -3.334,0.358 -0.49,-1.543 1.414,-2.615 2.934,-1.652 m -25.041,3.799 c 0.162,0.248 0.297,1.114 0.3,1.926 0.003,0.812 0.186,1.588 0.406,1.724 0.22,0.136 0.4,-0.115 0.4,-0.558 0,-4.436 5.658,-4.086 5.922,0.367 0.161,2.718 -0.333,3.271 -2.81,3.14 -1.835,-0.098 -1.994,-0.025 -2.78,1.274 -1.718,2.841 -5.132,2.805 -5.132,-0.054 0,-1.381 0.635,-1.879 2.602,-2.039 1.221,-0.1 1.624,-0.316 1.733,-0.93 0.115,-0.647 0.043,-0.704 -0.376,-0.3 -1.739,1.676 -3.959,0.274 -3.959,-2.5 0,-2.774 2.363,-4.086 3.694,-2.05 m 14.379,0.45 c 0.522,1.145 -0.081,3 -0.975,3 -0.903,0 -2.298,-1.215 -2.298,-2 0,-1.747 2.574,-2.534 3.273,-1 m 19.027,2.704 c 1.633,1.286 -0.664,3.496 -3.633,3.496 -2.526,0 -3.18,-0.54 -2.994,-2.474 0.168,-1.756 4.79,-2.468 6.627,-1.022 m -44.129,2.525 c 0.83,0.829 0.798,1.672 -0.071,1.902 -1.321,0.349 -6.869,0.242 -7.103,-0.136 -0.643,-1.04 0.626,-1.956 2.906,-2.1 1.264,-0.079 2.599,-0.178 2.968,-0.219 0.37,-0.042 0.955,0.207 1.3,0.553 m 109.495,0.301 c -0.956,1.017 -0.795,1.47 0.521,1.47 1.167,0 1.813,0.743 1.813,2.086 v 1.127 l 11.1,-0.107 c 9.641,-0.092 11.078,-0.185 10.932,-0.706 -0.093,-0.33 -0.183,-1.086 -0.2,-1.68 -0.052,-1.779 -0.682,-2.012 -6.912,-2.563 -10.054,-0.889 -16.193,-0.757 -17.254,0.373 m 26.184,0.57 c -0.364,1.246 -0.422,3.498 -0.104,4.012 0.609,0.986 1.054,10e-4 1.054,-2.336 0,-2.264 -0.514,-3.171 -0.95,-1.676 m -101.13,1.38 c 0.633,0.633 0.618,3.095 -0.02,3.325 -1.615,0.583 -16.895,-0.427 -17.028,-1.124 -0.319,-1.662 0.524,-1.901 6.105,-1.736 4.04,0.12 5.445,0.028 6.023,-0.394 0.927,-0.678 4.265,-0.726 4.92,-0.071 m 61.806,0.78 c 1.139,0.599 1.46,1.116 1.468,2.36 0.011,1.914 -0.329,1.98 -10.194,1.98 -9.865,0 -10.205,-0.066 -10.194,-1.98 0.013,-2.092 0.159,-2.133 8.658,-2.42 4.365,-0.147 8.263,-0.297 8.662,-0.334 0.4,-0.036 1.12,0.141 1.6,0.394 m -119.547,4.762 c -0.917,0.957 -1.631,12.378 -0.774,12.378 0.242,0 0.985,-0.348 3.274,-1.531 0.924,-0.478 2.065,-0.869 2.537,-0.869 0.472,0 1.315,-0.36 1.875,-0.8 0.559,-0.44 1.369,-0.8 1.8,-0.8 0.43,0 1.24,-0.36 1.8,-0.8 0.559,-0.44 1.415,-0.8 1.902,-0.8 0.486,0 1.3,-0.36 1.807,-0.8 0.507,-0.44 1.395,-0.8 1.972,-0.8 0.578,0 1.358,-0.36 1.735,-0.8 0.377,-0.44 1.103,-0.8 1.613,-0.8 0.51,0 1.276,-0.264 1.704,-0.587 0.427,-0.323 1.055,-0.593 1.396,-0.6 1.049,-0.022 1.484,-0.79 1.208,-2.137 l -0.261,-1.276 h -11.304 -11.305 l -0.979,1.022 m 100.009,1.168 c 1.53,1.27 -0.157,1.459 -13.863,1.554 -7.329,0.051 -13.955,0.241 -14.725,0.423 -3.908,0.924 -9.359,-0.916 -6.9,-2.33 1.191,-0.684 34.638,-0.352 35.488,0.353 m -77.776,4.352 c -0.985,1.055 -0.987,1.074 -0.8,7.658 0.104,3.63 0.175,7.995 0.158,9.7 l -0.03,3.1 h 1.93 1.93 v -5.185 c 0,-4.242 -0.146,-5.555 -0.8,-7.215 -0.59,-1.496 -0.8,-2.973 -0.8,-5.615 0,-3.88 -0.101,-4.035 -1.588,-2.443 m 53.666,0.382 c -1.04,0.075 -1.809,0.353 -1.943,0.702 -0.122,0.318 -0.923,0.691 -1.779,0.827 -2.182,0.349 -1.941,0.947 0.382,0.947 1.427,0 2.128,-0.21 2.659,-0.797 1.045,-1.154 48.738,-1.239 50.69,-0.09 1.106,0.651 1.187,0.65 1.56,-0.013 0.216,-0.385 0.744,-0.7 1.173,-0.7 0.429,0 0.78,-0.135 0.78,-0.3 0,-0.165 -6.165,-0.343 -13.7,-0.396 -7.535,-0.052 -19.19,-0.142 -25.9,-0.2 -6.71,-0.057 -12.975,-0.048 -13.922,0.02 m -35.778,1.388 c -0.804,0.324 -1.1,0.722 -1.1,1.482 0,0.688 -0.507,1.507 -1.5,2.424 -0.825,0.762 -1.734,1.835 -2.02,2.384 -1.377,2.645 -1.791,3.266 -2.314,3.466 -0.378,0.145 -0.566,0.848 -0.566,2.113 0,1.387 -0.214,2.089 -0.8,2.619 -0.758,0.686 -1.091,2.576 -0.549,3.117 0.542,0.543 2.549,-0.937 2.549,-1.878 0,-0.518 0.27,-1.165 0.6,-1.439 0.33,-0.274 0.6,-0.981 0.6,-1.571 0,-1.131 2.183,-3.629 3.172,-3.629 1.575,0 3.185,-1.643 3.449,-3.519 0.145,-1.035 0.527,-2.09 0.848,-2.344 1.948,-1.547 0.013,-4.182 -2.369,-3.225 m -23.807,1.088 c -0.319,0.51 -0.933,0.8 -1.696,0.8 -2.661,0 -3.88,5.033 -2.196,9.064 0.33,0.79 0.664,2.92 0.742,4.731 0.169,3.95 0.383,4.442 1.572,3.609 0.475,-0.332 1.633,-0.604 2.574,-0.604 h 1.711 v -5.213 c 0,-3.816 -0.167,-5.611 -0.623,-6.7 -0.343,-0.818 -0.729,-2.612 -0.858,-3.987 -0.252,-2.683 -0.445,-2.951 -1.226,-1.7 m 51.774,0.667 c -0.407,0.407 -0.318,2.533 0.106,2.533 0.205,0 0.482,-0.343 0.615,-0.763 0.133,-0.42 0.517,-0.868 0.853,-0.997 0.335,-0.129 0.498,-0.416 0.361,-0.637 -0.281,-0.454 -1.529,-0.542 -1.935,-0.136 M 192.4,221 c 0,0.55 0.18,1 0.4,1 0.22,0 0.4,-0.45 0.4,-1 0,-0.55 -0.18,-1 -0.4,-1 -0.22,0 -0.4,0.45 -0.4,1 m -63.343,0.211 c -3,0.899 -3.213,2.735 -0.597,5.141 l 1.54,1.415 v 3.541 3.54 l 1.5,-0.124 c 1.109,-0.092 1.455,-0.28 1.328,-0.724 -0.094,-0.33 -0.229,-3.21 -0.3,-6.4 -0.165,-7.434 -0.139,-7.387 -3.471,-6.389"
       inkscape:connector-curvature="0"
       style="fill:#0f0f0f;fill-rule:evenodd;stroke:none" />
    <path
       id="path2"
       d="m 266.1,174.256 c -0.869,0.366 -0.569,1.711 0.438,1.964 2.139,0.537 4.062,0.054 4.062,-1.02 0,-1 -2.916,-1.612 -4.5,-0.944 m 4.1,0.944 c 0,0.706 -2.874,1.086 -3.498,0.462 -0.734,-0.734 0.153,-1.306 1.835,-1.183 1.158,0.084 1.663,0.303 1.663,0.721 m -99.133,3.867 c -0.147,0.146 -0.267,0.77 -0.267,1.386 0,0.709 -0.293,1.275 -0.8,1.547 -0.521,0.279 -0.8,0.838 -0.8,1.6 0,0.762 -0.279,1.321 -0.8,1.6 -0.823,0.44 -1.077,1.946 -0.442,2.62 0.206,0.218 0.211,0.764 0.013,1.28 l -0.345,0.9 h -24.78 c -13.629,0 -25.065,0.109 -25.413,0.243 -0.693,0.266 -0.868,1.965 -0.242,2.351 0.514,0.318 0.499,26.103 -0.016,26.421 -0.687,0.425 -0.387,1.412 0.725,2.392 1.244,1.095 2.734,1.267 3.669,0.423 1.335,-1.205 3.017,-0.97 3.154,0.44 0.068,0.699 0.383,1.486 0.7,1.749 0.317,0.264 0.577,0.665 0.577,0.891 0,0.227 0.712,1.071 1.583,1.875 l 1.584,1.461 0.116,3.577 0.117,3.577 3.325,0.117 c 2.302,0.08 3.683,-0.062 4.484,-0.461 0.992,-0.496 1.224,-0.498 1.623,-0.017 0.641,0.772 1.552,0.699 2.968,-0.239 0.66,-0.437 1.749,-0.796 2.42,-0.797 0.671,-0.002 1.428,-0.211 1.683,-0.466 0.351,-0.351 0.605,-0.346 1.046,0.021 0.353,0.293 1.506,0.436 2.917,0.363 l 2.334,-0.121 0.11,-6.684 c 0.099,-6.068 0.035,-6.822 -0.7,-8.194 -2.057,-3.838 -0.808,-10.522 1.967,-10.522 0.687,0 1.895,-0.27 2.685,-0.6 0.789,-0.33 1.752,-0.6 2.138,-0.6 0.386,0 0.926,0.27 1.2,0.6 0.306,0.369 1.184,0.6 2.28,0.6 3.234,0 5.775,4.286 3.32,5.6 -0.44,0.235 -0.8,0.836 -0.8,1.333 0,0.513 -0.695,1.629 -1.6,2.571 -0.88,0.916 -1.6,1.809 -1.6,1.984 0,0.176 -0.36,0.544 -0.8,0.819 -0.447,0.28 -0.8,0.933 -0.8,1.482 0,0.573 -0.333,1.161 -0.8,1.411 -0.617,0.33 -0.8,0.838 -0.8,2.218 0,1.295 -0.221,1.979 -0.8,2.475 -0.495,0.423 -0.8,1.18 -0.8,1.982 0,0.714 -0.311,1.951 -0.692,2.749 -0.914,1.917 -0.127,2.576 3.072,2.576 1.794,0 2.325,0.156 2.727,0.8 0.414,0.663 0.933,0.8 3.034,0.8 2.027,0 2.68,0.16 3.259,0.8 0.548,0.605 1.232,0.8 2.808,0.8 1.478,0 2.38,0.232 3.101,0.8 0.694,0.546 1.623,0.8 2.923,0.8 1.22,0 2.171,0.241 2.645,0.67 0.693,0.626 0.831,0.626 2.145,0 0.773,-0.369 1.859,-0.67 2.413,-0.67 1.547,0 3.765,-1.965 3.765,-3.336 0,-0.692 0.348,-1.418 0.892,-1.858 0.761,-0.616 0.833,-0.89 0.49,-1.864 -0.536,-1.524 -1.492,-1.447 -1.965,0.158 -0.21,0.715 -0.593,1.3 -0.851,1.3 -0.258,0 -0.738,0.405 -1.067,0.9 -0.826,1.243 -7.568,1.148 -8.925,-0.125 -0.634,-0.595 -1.403,-0.775 -3.31,-0.775 -3.756,0 -4.362,-3.272 -1.212,-6.55 1.254,-1.305 1.548,-1.906 1.548,-3.161 0,-1.87 1.634,-3.751 3.437,-3.956 1.535,-0.175 1.842,-1.971 0.568,-3.327 -1.231,-1.311 -1.026,-4.346 0.307,-4.535 0.576,-0.082 1.203,0.213 1.7,0.8 L 180,215 l 0.827,-0.978 c 0.948,-1.121 5.777,-1.579 9.973,-0.946 l 2.2,0.332 0.118,2.472 c 0.104,2.169 0.016,2.527 -0.721,2.922 -1.331,0.712 -1.004,3.798 0.403,3.798 0.81,0 1.025,-0.224 1.134,-1.179 0.234,-2.05 3.745,-5.021 5.934,-5.021 0.975,0 2.341,-0.294 3.037,-0.654 1.905,-0.985 16.774,-1.261 20.349,-0.377 4.123,1.018 30.523,1.14 31.424,0.144 0.355,-0.392 0.875,-0.713 1.155,-0.713 1.96,0 3.146,-6.248 1.367,-7.2 -0.44,-0.235 -0.8,-0.775 -0.8,-1.2 0,-0.425 0.36,-0.965 0.8,-1.2 0.568,-0.304 0.8,-0.838 0.8,-1.841 0,-1.305 0.084,-1.402 1.1,-1.286 1.48,0.171 1.715,1.659 0.429,2.713 -0.897,0.736 -0.904,0.787 -0.203,1.488 0.701,0.701 0.751,0.694 1.485,-0.2 l 0.76,-0.927 11.457,0.104 c 8.984,0.082 11.5,0.217 11.657,0.627 0.28,0.73 1.579,0.653 1.872,-0.111 1.232,-3.211 -0.235,-8.946 -1.795,-7.019 l -0.747,0.922 -1.061,-0.835 c -1.209,-0.95 -22.849,-1.311 -25.193,-0.42 -0.754,0.286 -1.22,0.286 -1.506,0 -0.228,-0.228 -0.908,-0.415 -1.511,-0.415 -1.7,0 -1.747,-0.735 -0.056,-0.875 1.958,-0.163 2.163,-1.136 0.572,-2.726 l -1.198,-1.199 h -7.644 c -6.344,0 -7.897,-0.116 -9.131,-0.68 -1.251,-0.572 -3.424,-0.72 -13.687,-0.931 -10.133,-0.208 -12.496,-0.366 -13.945,-0.933 -1.327,-0.52 -2.715,-0.656 -5.8,-0.569 l -4.055,0.113 -0.125,1.3 c -0.069,0.715 -0.283,1.3 -0.475,1.3 -0.192,0 -0.406,-0.585 -0.475,-1.3 l -0.125,-1.3 -3.8,-0.2 c -4.356,-0.229 -7.414,-1.832 -4.8,-2.516 1.443,-0.377 1.167,-5.978 -0.369,-7.515 -1.394,-1.394 -3.164,-1.548 -4.231,-0.369 -1.081,1.194 -9.797,1.194 -11.6,0 -1.224,-0.81 -2.255,-1.012 -2.733,-0.533 m 1.842,0.833 c 1.288,1.167 11.83,1.272 12.866,0.128 2.089,-2.309 4.722,0.13 4.545,4.21 -0.125,2.873 -1.256,4.257 -1.795,2.197 -0.294,-1.123 -2.125,-1.177 -2.125,-0.062 0,0.434 0.369,0.89 0.841,1.04 0.463,0.147 1.348,0.834 1.966,1.527 1.086,1.217 1.258,1.267 5.059,1.46 3.91,0.199 3.935,0.206 4.058,1.271 0.272,2.356 1.472,2.308 1.756,-0.071 0.16,-1.332 5.262,-1.672 8.278,-0.551 1.505,0.558 4.003,0.736 13.642,0.971 8.625,0.21 12.5,0.459 14.4,0.925 1.892,0.465 4.597,0.641 9.931,0.647 l 7.331,0.008 1.195,1.196 c 1.341,1.341 1.216,2.001 -0.381,2.01 -2.52,0.014 -2.684,1.156 -0.224,1.556 1.424,0.232 1.807,0.595 2.359,2.238 l 0.269,0.8 0.313,-0.8 c 0.908,-2.322 1.002,-2.337 13.244,-2.105 10.862,0.207 11.285,0.245 12.461,1.114 l 1.217,0.9 0.687,-0.912 c 1.071,-1.419 1.599,-0.647 1.592,2.327 -0.008,3.335 -0.355,4.029 -1.585,3.167 -0.567,-0.397 -1.257,-0.521 -1.944,-0.35 -0.586,0.146 -5.79,0.206 -11.565,0.132 l -10.5,-0.133 v -1.09 c 0,-1.454 -0.676,-2.05 -2.325,-2.05 -1.324,0 -1.357,0.038 -1.118,1.31 0.19,1.015 0.065,1.465 -0.556,1.996 -1.02,0.874 -1.021,1.971 -10e-4,2.894 1.531,1.385 0.465,6.6 -1.349,6.6 -0.22,0 -0.782,0.36 -1.251,0.8 -0.784,0.736 -1.097,0.768 -3.968,0.404 -1.715,-0.217 -7.373,-0.379 -12.575,-0.36 -5.225,0.02 -11.337,-0.185 -13.657,-0.458 -5.879,-0.691 -20.828,-0.292 -22.087,0.59 -0.49,0.343 -1.629,0.624 -2.532,0.624 -1.383,0 -1.887,0.25 -3.211,1.593 -0.863,0.877 -1.784,1.597 -2.046,1.6 -0.262,0.004 -0.532,0.682 -0.6,1.507 -0.162,1.959 -1.268,2.089 -1.452,0.17 -0.1,-1.05 0.039,-1.374 0.664,-1.537 0.952,-0.249 1.41,-3.722 0.699,-5.294 -0.992,-2.193 -9.264,-2.893 -12.026,-1.019 -1.367,0.927 -1.564,0.964 -2.187,0.4 -2.501,-2.264 -4.396,1.586 -2.383,4.843 0.968,1.566 0.774,2.537 -0.507,2.537 -1.451,0 -3.532,2.311 -3.532,3.923 0,1.008 -0.419,1.866 -1.6,3.277 -0.953,1.138 -1.6,2.325 -1.6,2.936 0,0.563 -0.315,1.201 -0.7,1.417 -1.499,0.84 1.259,2.847 3.913,2.847 1.755,0 2.426,0.18 2.987,0.8 0.541,0.598 1.232,0.8 2.734,0.8 1.105,0 2.602,0.214 3.326,0.476 1.222,0.442 1.431,0.384 2.905,-0.8 1.999,-1.606 2.435,-1.602 2.435,0.024 0,3.256 -9.946,5.483 -12.83,2.873 -0.483,-0.437 -1.662,-0.78 -3.076,-0.895 -1.389,-0.114 -2.671,-0.482 -3.248,-0.933 -0.653,-0.51 -1.613,-0.745 -3.046,-0.745 -1.486,0 -2.387,-0.232 -3.109,-0.8 -0.707,-0.556 -1.623,-0.8 -3.005,-0.8 -2.139,0 -3.095,-0.625 -2.469,-1.613 0.204,-0.323 0.374,-1.414 0.377,-2.425 0.004,-1.325 0.229,-2.04 0.806,-2.562 0.559,-0.506 0.8,-1.232 0.8,-2.413 0,-1.041 0.239,-1.887 0.623,-2.206 0.343,-0.285 0.855,-1.072 1.138,-1.749 0.283,-0.678 1.443,-2.247 2.577,-3.488 1.134,-1.241 2.062,-2.615 2.062,-3.054 0,-0.439 0.416,-1.071 0.924,-1.404 2.238,-1.466 -0.313,-6.286 -3.326,-6.286 -0.795,0 -1.794,-0.264 -2.222,-0.587 -0.978,-0.74 -3.481,-0.779 -4.896,-0.077 -1.499,0.745 -3.045,0.287 -3.215,-0.952 -0.377,-2.746 -0.56,-2.784 -13.535,-2.784 -10.16,0 -11.73,0.08 -11.73,0.6 0,0.35 0.375,0.607 0.9,0.618 0.495,0.009 5.602,0.009 11.35,-0.002 8.539,-0.016 10.535,0.084 10.919,0.547 0.673,0.811 0.985,3.196 0.533,4.082 -0.583,1.142 0.067,9.288 0.863,10.818 0.54,1.039 0.637,2.319 0.546,7.2 l -0.111,5.937 -1.956,0.124 c -2.682,0.171 -2.566,0.586 -2.801,-10.013 l -0.21,-9.489 1.039,-1.235 c 1.667,-1.981 -1.351,-2.457 -3.498,-0.552 -0.345,0.306 -1.196,0.669 -1.891,0.808 -0.696,0.14 -1.471,0.502 -1.723,0.805 -0.252,0.304 -0.954,0.552 -1.56,0.552 -0.606,0 -1.329,0.274 -1.607,0.608 -0.278,0.335 -1.284,0.805 -2.237,1.045 -0.952,0.24 -1.939,0.686 -2.193,0.991 -0.253,0.306 -0.757,0.556 -1.118,0.556 -0.361,0 -1.329,0.36 -2.149,0.8 -0.821,0.44 -1.858,0.8 -2.304,0.8 -0.501,0 -0.96,0.389 -1.198,1.016 -0.329,0.865 -0.506,0.952 -1.19,0.586 -0.754,-0.403 -0.804,-0.83 -0.804,-6.8 v -6.37 l 1.088,-1.008 c 0.808,-0.75 0.971,-1.125 0.635,-1.461 -2.117,-2.117 -4.176,8.935 -2.551,13.703 0.42,1.234 0.299,1.408 -1.521,2.169 -4.129,1.729 -4.092,1.869 -4.091,-15.5 V 190.6 l 22.72,-0.074 c 12.496,-0.041 23.659,-0.086 24.806,-0.1 1.762,-0.022 2.278,-0.213 3.317,-1.229 l 1.231,-1.204 -1.017,-0.386 c -1.223,-0.466 -1.298,-1.228 -0.217,-2.207 0.44,-0.398 0.8,-1.118 0.8,-1.6 0,-0.482 0.36,-1.202 0.8,-1.6 0.44,-0.398 0.8,-1.116 0.8,-1.595 0,-1.518 0.559,-1.748 1.709,-0.705 M 172,184.8 c 0,0.22 0.259,0.4 0.576,0.4 0.317,0 0.688,-0.18 0.824,-0.4 0.136,-0.22 -0.123,-0.4 -0.576,-0.4 -0.453,0 -0.824,0.18 -0.824,0.4 m -65.052,4.191 c -0.316,0.825 0.166,3.905 0.879,5.611 0.928,2.221 0.826,20.061 -0.123,21.409 -0.535,0.761 -0.696,1.82 -0.7,4.589 l -0.004,3.6 2.15,0.123 c 1.701,0.097 2.328,-0.043 3,-0.668 0.468,-0.435 1.39,-0.85 2.05,-0.923 l 1.2,-0.132 v -17 -17 l -4.107,-0.114 c -3.409,-0.095 -4.148,-0.009 -4.345,0.505 M 115,205.6 v 16.6 l -1.2,0.132 c -0.66,0.073 -1.584,0.489 -2.053,0.925 -0.639,0.595 -1.29,0.762 -2.6,0.668 l -1.747,-0.125 -0.121,-1.885 c -0.07,-1.087 0.226,-3.053 0.7,-4.643 1.204,-4.043 1.221,-19.982 0.026,-24.654 -1.004,-3.923 -1.052,-3.869 3.328,-3.733 L 115,189 v 16.6 m 67.664,-14.904 c -0.116,0.188 -0.062,0.583 0.119,0.877 0.414,0.669 2.547,0.22 2.315,-0.488 -0.189,-0.573 -2.128,-0.883 -2.434,-0.389 m -25.597,3.171 c -0.494,0.493 -0.275,3.628 0.284,4.093 1.64,1.36 3.345,-1.281 2.406,-3.727 -0.241,-0.629 -2.166,-0.891 -2.69,-0.366 m 2.437,1.533 c 0.126,1.446 -0.236,2.073 -1.304,2.26 -0.837,0.146 -1.347,-1.778 -0.83,-3.126 0.426,-1.11 2.019,-0.464 2.134,0.866 m 13.45,-0.825 c -0.315,0.821 0.129,1.944 0.643,1.627 0.222,-0.137 0.403,-0.588 0.403,-1.002 0,-0.985 -0.738,-1.427 -1.046,-0.625 m -10.543,0.811 c -1.491,1.798 0.658,5.035 2.96,4.457 1.365,-0.343 1.564,-3.929 0.255,-4.629 -1.108,-0.593 -2.648,-0.511 -3.215,0.172 m 3.511,2.114 c -0.174,2.709 -2.337,2.943 -2.772,0.3 -0.333,-2.022 -0.212,-2.2 1.496,-2.2 h 1.398 l -0.122,1.9 m 21.545,-0.433 c -0.435,0.434 -0.304,1.936 0.213,2.453 1.407,1.407 6.71,-0.687 5.482,-2.165 -0.476,-0.575 -5.172,-0.812 -5.695,-0.288 m 40.11,0.164 -0.977,0.257 1.2,0.514 c 0.66,0.283 1.83,0.506 2.6,0.496 0.77,-0.01 2.48,-0.012 3.8,-0.004 10.186,0.063 11.278,0.022 12.4,-0.476 l 1.2,-0.532 -1.4,-0.328 c -1.603,-0.376 -17.347,-0.314 -18.823,0.073 m -34.777,0.243 c 0,0.151 -0.391,0.691 -0.87,1.2 -1.631,1.736 -4.923,1.049 -4.185,-0.874 0.235,-0.614 5.055,-0.925 5.055,-0.326 m 38.6,0.126 c 0.144,0.233 -0.263,0.4 -0.976,0.4 -0.673,0 -1.224,-0.18 -1.224,-0.4 0,-0.22 0.439,-0.4 0.976,-0.4 0.537,0 1.088,0.18 1.224,0.4 m 13.069,0.051 c 0.305,0.193 -1.48,0.339 -4.193,0.343 -2.958,0.004 -4.633,-0.139 -4.483,-0.383 0.291,-0.471 7.926,-0.436 8.676,0.04 m -87.189,2.829 c -1.057,1.057 -0.243,2.72 1.33,2.72 0.996,0 2.59,-1.554 2.59,-2.526 0,-0.817 -3.141,-0.973 -3.92,-0.194 m 3.221,0.154 c 0.393,0.393 -1.396,2.166 -2.186,2.166 -0.833,0 -1.317,-0.897 -0.97,-1.8 0.225,-0.587 2.654,-0.868 3.156,-0.366 m 19.259,1.25 c -2.162,1.553 -1.032,3.042 2.154,2.837 1.954,-0.125 2.593,-0.948 1.746,-2.251 -0.403,-0.62 -3.257,-1.049 -3.9,-0.586 m 3.229,0.762 c 1.005,1.005 0.517,1.543 -1.52,1.676 -1.754,0.114 -1.869,0.061 -1.869,-0.867 0,-1.493 2.184,-2.014 3.389,-0.809 m 52.517,0.453 -7.895,0.118 -0.25,0.997 c -0.53,2.112 -0.069,2.21 9.794,2.093 l 9.045,-0.107 0.134,-1.18 c 0.152,-1.337 -0.779,-2.276 -2.11,-2.129 -0.453,0.05 -4.377,0.144 -8.718,0.208 M 171.6,204 c 0.785,0.507 2.286,0.507 2.6,0 0.15,-0.243 -0.428,-0.398 -1.476,-0.394 -1.261,0.005 -1.563,0.11 -1.124,0.394 m 74.327,0.7 -0.127,1.1 -8.91,0.108 c -7.667,0.092 -8.942,0.023 -9.142,-0.5 -0.663,-1.726 -0.244,-1.808 9.266,-1.808 h 9.039 l -0.126,1.1 m 14.515,1.018 c -0.514,0.514 -1.035,0.117 -0.654,-0.498 0.147,-0.238 0.451,-0.32 0.674,-0.181 0.274,0.168 0.267,0.392 -0.02,0.679 m -68.842,3.039 c 0,0.197 0.225,0.44 0.5,0.541 0.868,0.319 7.496,-0.181 7.269,-0.548 -0.285,-0.462 -7.769,-0.455 -7.769,0.007 M 202,208.8 c 0,0.255 3.2,0.4 8.8,0.4 5.6,0 8.8,-0.145 8.8,-0.4 0,-0.255 -3.2,-0.4 -8.8,-0.4 -5.6,0 -8.8,0.145 -8.8,0.4 m 22,0 c 0,0.22 0.27,0.4 0.6,0.4 0.33,0 0.6,-0.18 0.6,-0.4 0,-0.22 -0.27,-0.4 -0.6,-0.4 -0.33,0 -0.6,0.18 -0.6,0.4 m -76.3,3.47 c -0.495,0.345 -0.9,0.848 -0.9,1.117 0,0.269 -0.35,0.806 -0.777,1.193 -0.428,0.387 -0.851,1.179 -0.941,1.762 -0.153,0.997 -0.166,0.987 -0.222,-0.162 -0.069,-1.404 -0.697,-2.18 -1.764,-2.18 -0.409,0 -0.632,-0.18 -0.496,-0.4 0.136,-0.22 0.523,-0.4 0.861,-0.4 0.337,0 1.07,-0.36 1.63,-0.8 0.559,-0.44 1.578,-0.791 2.263,-0.779 l 1.246,0.021 -0.9,0.628 m 20.7,-0.433 c 0,0.13 0.36,0.694 0.8,1.254 0.6,0.762 0.802,1.629 0.806,3.463 0.004,1.727 0.12,2.27 0.394,1.846 0.213,-0.33 0.391,-1.216 0.394,-1.969 0.003,-0.752 0.289,-1.681 0.635,-2.063 0.576,-0.636 0.553,-0.783 -0.272,-1.732 -0.782,-0.899 -2.757,-1.472 -2.757,-0.799 m 32,0.163 c 0,0.22 0.371,0.4 0.824,0.4 0.453,0 0.712,-0.18 0.576,-0.4 -0.136,-0.22 -0.507,-0.4 -0.824,-0.4 -0.317,0 -0.576,0.18 -0.576,0.4 m 4.8,0 c 0,0.22 0.259,0.4 0.576,0.4 0.317,0 0.688,-0.18 0.824,-0.4 0.136,-0.22 -0.123,-0.4 -0.576,-0.4 -0.453,0 -0.824,0.18 -0.824,0.4 m 2.6,0 c 0.137,0.221 1.937,0.4 4.024,0.4 2.251,0 3.776,-0.162 3.776,-0.4 0,-0.24 -1.608,-0.4 -4.024,-0.4 -2.58,0 -3.935,0.143 -3.776,0.4 m 18.8,0 c -0.235,0.381 1.95,0.445 17.2,0.503 8.813,0.033 11.8,-0.094 11.8,-0.503 0,-0.259 -5.059,-0.4 -14.376,-0.4 -9.153,0 -14.467,0.145 -14.624,0.4 m -29.4,1.6 c 0,0.22 0.349,0.4 0.776,0.4 0.427,0 0.888,-0.18 1.024,-0.4 0.14,-0.227 -0.196,-0.4 -0.776,-0.4 -0.563,0 -1.024,0.18 -1.024,0.4 m -53.28,1.28 c 0.264,0.264 0.483,1.119 0.486,1.9 0.003,0.781 0.264,2.162 0.58,3.07 0.599,1.716 0.947,12.488 0.431,13.323 -0.145,0.235 -0.756,0.427 -1.356,0.427 -0.601,0 -1.798,0.36 -2.661,0.8 -1.904,0.971 -1.673,0.981 -2.261,-0.1 -0.288,-0.529 -0.448,-2.066 -0.39,-3.731 0.077,-2.167 -0.046,-2.952 -0.525,-3.349 -0.501,-0.416 -0.624,-1.448 -0.624,-5.24 0,-5.332 0.17,-5.713 2.729,-6.122 0.871,-0.14 1.688,-0.525 1.815,-0.856 0.278,-0.724 1.116,-0.782 1.776,-0.122 m -2.72,0.32 c -0.802,0.518 -3.32,0.518 -3,0 0.136,-0.22 1.002,-0.397 1.924,-0.394 1.229,0.005 1.516,0.11 1.076,0.394 m -4.006,4.7 c -0.003,1.925 -0.181,3.77 -0.394,4.1 -0.435,0.672 -0.614,-0.627 -0.449,-3.25 0.122,-1.922 -1.008,-3.234 -1.824,-2.118 -0.29,0.397 -0.53,1.542 -0.533,2.544 -0.005,1.325 -0.112,1.66 -0.394,1.224 -0.213,-0.33 -0.391,-1.059 -0.394,-1.62 -0.008,-1.297 -0.689,-1.978 -1.986,-1.986 -0.805,-0.005 -0.894,-0.088 -0.42,-0.394 0.33,-0.213 0.985,-0.391 1.456,-0.394 0.47,-0.003 1.28,-0.36 1.8,-0.793 0.519,-0.432 1.439,-0.792 2.044,-0.8 l 1.1,-0.013 -0.006,3.5 m -1.326,-0.075 c 0.066,0.206 -0.051,0.643 -0.258,0.972 -0.504,0.797 -1.421,-0.069 -1.063,-1.003 0.258,-0.672 1.106,-0.652 1.321,0.031 m 32.794,0.075 c -0.654,2.384 -0.683,3.7 -0.08,3.7 0.482,0 0.618,-0.482 0.618,-2.2 0,-2.234 -0.191,-2.766 -0.538,-1.5 M 129,220 c -0.136,0.22 -0.697,0.4 -1.247,0.4 -0.565,0 -0.893,-0.174 -0.753,-0.4 0.136,-0.22 0.697,-0.4 1.247,-0.4 0.565,0 0.893,0.174 0.753,0.4 m 3.593,0.3 c 0.154,0.385 0.372,3.4 0.485,6.7 0.113,3.3 0.359,6.163 0.547,6.363 0.492,0.523 1.57,-0.494 1.602,-1.512 l 0.027,-0.851 0.425,0.879 c 0.233,0.483 0.753,0.933 1.155,1 2.317,0.384 -0.593,1.916 -3.834,2.019 l -3.2,0.102 -0.117,-3.377 c -0.118,-3.372 -0.121,-3.38 -1.851,-5.231 -3.071,-3.283 -2.799,-4.458 1.368,-5.916 2.852,-0.998 3.062,-1.009 3.393,-0.176 m 14.179,6.2 c 0.017,3.419 -0.123,5.5 -0.372,5.5 -0.251,0 -0.39,-2.348 -0.372,-6.3 0.017,-3.892 0.16,-5.994 0.372,-5.5 0.189,0.44 0.356,3.275 0.372,6.3 m -12.208,-1.241 c -0.441,0.713 -0.963,0.297 -0.951,-0.759 0.012,-1.042 0.043,-1.06 0.587,-0.341 0.316,0.417 0.48,0.912 0.364,1.1 m 55.861,-1.089 c -0.634,0.763 -0.173,3.03 0.615,3.03 0.84,0 1.619,-1.901 1.11,-2.707 -0.574,-0.909 -1.149,-1.017 -1.725,-0.323 m -26.745,0.31 c -0.264,0.264 -0.48,0.714 -0.48,1 0,0.286 -0.27,0.52 -0.6,0.52 -0.343,0 -0.6,0.36 -0.6,0.84 0,0.461 -0.258,1.406 -0.573,2.1 -0.315,0.693 -0.631,1.62 -0.702,2.06 -0.071,0.44 -0.534,0.978 -1.027,1.195 -1.009,0.443 -1.193,1.005 -0.331,1.005 1.077,0 1.833,-0.488 1.833,-1.182 0,-0.382 0.346,-1.095 0.769,-1.582 0.423,-0.488 0.89,-1.6 1.037,-2.47 0.291,-1.724 1.637,-2.766 3.574,-2.766 0.64,0 1.02,-0.224 1.02,-0.6 0,-0.748 -3.194,-0.846 -3.92,-0.12 m 27.95,0.43 c -0.016,0.16 -0.03,0.56 -0.03,0.89 0,0.33 -0.159,0.6 -0.353,0.6 -0.425,0 -0.856,-1.457 -0.528,-1.785 0.296,-0.297 0.95,-0.085 0.911,0.295 m -2.856,3.759 c -0.558,1.466 0.466,2.662 1.442,1.686 0.674,-0.673 0.208,-2.755 -0.616,-2.755 -0.231,0 -0.603,0.481 -0.826,1.069 M 188.4,233.8 c 0,0.55 -0.18,1 -0.4,1 -0.22,0 -0.4,-0.45 -0.4,-1 0,-0.55 0.18,-1 0.4,-1 0.22,0 0.4,0.45 0.4,1"
       inkscape:connector-curvature="0"
       style="fill:#a1a1a1;fill-rule:evenodd;stroke:none" />
    <path
       id="path3"
       d="m 266.6,174.8 c -0.315,0.51 0.104,1.202 0.724,1.194 0.287,-0.004 0.238,-0.162 -0.124,-0.4 -0.533,-0.35 -0.533,-0.438 0,-0.788 0.362,-0.238 0.411,-0.396 0.124,-0.4 -0.262,-0.003 -0.588,0.174 -0.724,0.394 m -94.715,9.448 c -0.539,0.54 -0.284,1.352 0.415,1.32 0.418,-0.018 0.499,-0.112 0.2,-0.233 -0.793,-0.32 -0.581,-0.935 0.324,-0.935 0.453,0 0.712,0.18 0.576,0.4 -0.136,0.22 0.048,0.4 0.41,0.4 0.361,0 0.583,-0.225 0.492,-0.5 -0.183,-0.559 -1.975,-0.894 -2.417,-0.452 m 14.188,2.043 c 0.076,0.647 0.492,1.271 1.024,1.535 0.494,0.245 1.291,0.789 1.773,1.21 l 0.875,0.764 -0.772,-1.074 c -0.425,-0.59 -1.178,-1.179 -1.673,-1.307 -1.329,-0.346 -1.186,-1.722 0.2,-1.932 1.003,-0.153 0.984,-0.172 -0.227,-0.227 -1.22,-0.055 -1.316,0.027 -1.2,1.031 M 169.8,188 c 0.136,0.22 0.063,0.4 -0.162,0.4 -0.226,0 -0.625,0.405 -0.889,0.9 -0.455,0.856 -0.426,0.851 0.579,-0.1 1.124,-1.062 1.342,-1.6 0.648,-1.6 -0.233,0 -0.312,0.18 -0.176,0.4 m -51.621,17.6 c 0,7.37 0.054,10.385 0.12,6.7 0.066,-3.685 0.066,-9.715 0,-13.4 -0.066,-3.685 -0.12,-0.67 -0.12,6.7 m 54.488,-11.333 c -0.362,0.361 -0.339,1.641 0.033,1.871 0.165,0.102 0.3,-0.337 0.3,-0.976 0,-0.639 -0.015,-1.162 -0.033,-1.162 -0.019,0 -0.154,0.12 -0.3,0.267 m -6.274,3.052 0.192,2.081 0.133,-1.754 c 0.073,-0.965 -0.013,-1.902 -0.192,-2.081 -0.179,-0.18 -0.239,0.61 -0.133,1.754 m 44.864,-0.163 c -0.298,0.189 -0.383,0.443 -0.188,0.563 0.611,0.378 16.149,0.233 15.913,-0.148 -0.121,-0.196 -3.626,-0.315 -7.788,-0.263 -4.163,0.051 -7.259,-0.029 -6.881,-0.179 0.525,-0.208 0.545,-0.278 0.087,-0.295 -0.33,-0.012 -0.844,0.133 -1.143,0.322 m 21.648,-0.069 c 0.609,0.092 1.509,0.09 2,-0.005 0.492,-0.095 -0.005,-0.171 -1.105,-0.168 -1.1,0.003 -1.503,0.081 -0.895,0.173 M 247.4,197.6 c -0.155,0.251 0.729,0.4 2.376,0.4 1.483,0 2.624,-0.174 2.624,-0.4 0,-0.222 -1.059,-0.4 -2.376,-0.4 -1.307,0 -2.488,0.18 -2.624,0.4 m 10.67,1.726 c -0.479,0.509 -0.87,1.15 -0.87,1.423 0,0.274 -0.18,0.387 -0.4,0.251 -0.509,-0.315 -0.509,0.612 0,1.4 0.331,0.513 0.389,0.498 0.394,-0.1 0.003,-0.385 0.321,-0.714 0.706,-0.732 0.418,-0.018 0.499,-0.112 0.2,-0.233 -0.81,-0.327 -0.576,-1.217 0.554,-2.106 0.58,-0.456 0.881,-0.829 0.67,-0.829 -0.212,0 -0.776,0.417 -1.254,0.926 m 14.63,-0.637 c 0.715,0.089 1.885,0.089 2.6,0 0.715,-0.088 0.13,-0.161 -1.3,-0.161 -1.43,0 -2.015,0.073 -1.3,0.161 m 10.2,1.142 c 0.385,0.458 0.7,1.133 0.7,1.5 0,1.034 0.684,0.79 0.896,-0.319 0.104,-0.544 0.023,-0.886 -0.179,-0.761 -0.202,0.125 -0.761,-0.105 -1.242,-0.512 -0.87,-0.735 -0.871,-0.734 -0.175,0.092 m -139.861,0.463 c -0.429,0.429 -0.252,0.906 0.337,0.906 0.317,0 0.676,-0.161 0.798,-0.358 0.255,-0.412 -0.774,-0.908 -1.135,-0.548 m 4.378,0.078 c -0.296,0.479 0.457,0.953 0.99,0.624 C 148.854,200.719 148.56,200 148,200 c -0.194,0 -0.456,0.168 -0.583,0.372 m 86.083,2.726 c 1.815,0.074 4.785,0.074 6.6,0 1.815,-0.075 0.33,-0.135 -3.3,-0.135 -3.63,0 -5.115,0.06 -3.3,0.135 m 12.2,0.134 c 0.385,0.224 0.725,0.894 0.754,1.488 0.05,0.975 0.072,0.99 0.231,0.158 0.187,-0.975 -0.477,-2.086 -1.234,-2.066 -0.248,0.007 -0.136,0.196 0.249,0.42 m -116.8,0.244 c 0.385,0.1 1.015,0.1 1.4,0 0.385,-0.101 0.07,-0.183 -0.7,-0.183 -0.77,0 -1.085,0.082 -0.7,0.183 m 5.811,0.017 c 0.94,0.085 2.38,0.084 3.2,-0.002 0.819,-0.086 0.049,-0.155 -1.711,-0.154 -1.76,0.002 -2.43,0.072 -1.489,0.156 m 12.189,-0.006 c 0.605,0.091 1.595,0.091 2.2,0 0.605,-0.092 0.11,-0.167 -1.1,-0.167 -1.21,0 -1.705,0.075 -1.1,0.167 m 22.7,0.104 c -0.77,0.167 -1.107,0.327 -0.75,0.356 0.358,0.029 1.258,0.158 2,0.287 1.022,0.177 1.204,0.13 0.75,-0.194 -0.464,-0.331 -0.208,-0.429 1.124,-0.434 0.948,-0.003 1.633,0.14 1.523,0.318 -0.11,0.178 0.838,0.313 2.107,0.3 1.27,-0.013 2.308,-0.204 2.307,-0.424 -0.001,-0.483 -7.048,-0.646 -9.061,-0.209 m -43.299,0.509 c -0.152,0.385 -0.186,0.933 -0.077,1.218 0.109,0.285 -0.256,0.914 -0.813,1.397 -0.556,0.484 -1.011,1.08 -1.011,1.326 0,0.245 0.585,-0.273 1.3,-1.151 l 1.3,-1.596 11.296,-0.02 c 10.171,-0.017 11.334,0.048 11.687,0.654 0.216,0.369 0.398,0.469 0.405,0.221 0.032,-1.211 -1.179,-1.352 -11.431,-1.333 -5.696,0.011 -10.749,0.011 -11.228,0.002 -0.499,-0.01 -0.931,-0.317 -1.011,-0.718 -0.135,-0.667 -0.155,-0.667 -0.417,0 m -3.499,4.694 c -0.411,1.245 -0.423,1.799 -0.056,2.502 0.46,0.883 0.466,0.88 0.267,-0.149 -0.113,-0.579 -0.006,-1.623 0.238,-2.32 0.243,-0.697 0.36,-1.35 0.26,-1.449 -0.1,-0.1 -0.419,0.537 -0.709,1.416 m 83.698,-0.518 c 0.385,0.1 1.015,0.1 1.4,0 0.385,-0.101 0.07,-0.183 -0.7,-0.183 -0.77,0 -1.085,0.082 -0.7,0.183 m -15.7,0.46 c 0,0.392 2.018,1.379 2.282,1.115 0.098,-0.098 -0.195,-0.297 -0.652,-0.441 -0.456,-0.145 -0.83,-0.432 -0.83,-0.637 0,-0.205 -0.18,-0.373 -0.4,-0.373 -0.22,0 -0.4,0.151 -0.4,0.336 m 8.624,0.104 c 0.276,0.446 2.576,0.481 2.576,0.039 0,-0.176 -0.63,-0.338 -1.399,-0.36 -0.77,-0.022 -1.299,0.122 -1.177,0.321 M 219.6,208.8 c 0,0.22 0.99,0.4 2.2,0.4 1.21,0 2.2,-0.18 2.2,-0.4 0,-0.22 -0.99,-0.4 -2.2,-0.4 -1.21,0 -2.2,0.18 -2.2,0.4 m -24.509,0.689 c 0.71,0.088 1.97,0.09 2.8,0.003 0.83,-0.087 0.249,-0.159 -1.291,-0.161 -1.54,-0.002 -2.219,0.069 -1.509,0.158 m 10.409,0.006 c 1.155,0.081 3.045,0.081 4.2,0 1.155,-0.081 0.21,-0.147 -2.1,-0.147 -2.31,0 -3.255,0.066 -2.1,0.147 m 7.4,-0.019 c 0.385,0.1 1.015,0.1 1.4,0 0.385,-0.101 0.07,-0.183 -0.7,-0.183 -0.77,0 -1.085,0.082 -0.7,0.183 m 3.4,0.006 c 0.495,0.096 1.305,0.096 1.8,0 0.495,-0.095 0.09,-0.173 -0.9,-0.173 -0.99,0 -1.395,0.078 -0.9,0.173 m -67.209,0.674 c -0.611,0.271 -1.005,0.596 -0.877,0.724 0.379,0.38 1.713,-0.114 1.946,-0.719 0.118,-0.309 0.176,-0.546 0.127,-0.529 -0.048,0.018 -0.586,0.254 -1.196,0.524 m -24.598,2.244 c 0,0.77 0.082,1.085 0.183,0.7 0.1,-0.385 0.1,-1.015 0,-1.4 -0.101,-0.385 -0.183,-0.07 -0.183,0.7 m 105.622,-0.904 c 1.273,0.08 3.253,0.079 4.4,-0.002 1.147,-0.08 0.105,-0.145 -2.315,-0.144 -2.42,0.001 -3.358,0.066 -2.085,0.146 m 8.985,-0.014 c 0.495,0.096 1.305,0.096 1.8,0 0.495,-0.095 0.09,-0.173 -0.9,-0.173 -0.99,0 -1.395,0.078 -0.9,0.173 m 5.6,0.011 c 0.935,0.084 2.465,0.084 3.4,0 0.935,-0.084 0.17,-0.153 -1.7,-0.153 -1.87,0 -2.635,0.069 -1.7,0.153 m -73.876,0.707 c 0.317,0.44 0.749,0.924 0.96,1.076 0.226,0.162 0.091,0.599 -0.33,1.064 -0.455,0.503 -0.652,1.202 -0.544,1.925 l 0.17,1.135 0.06,-1.169 c 0.033,-0.642 0.364,-1.504 0.736,-1.915 0.64,-0.707 0.615,-0.804 -0.476,-1.831 -0.644,-0.607 -0.898,-0.733 -0.576,-0.285 m 11.821,-0.272 c -0.112,0.18 0.328,0.249 0.976,0.154 0.649,-0.095 1.179,-0.242 1.179,-0.327 0,-0.305 -1.957,-0.148 -2.155,0.173 M 201.8,212 c 0.136,0.22 0.957,0.4 1.824,0.4 0.867,0 1.576,-0.18 1.576,-0.4 0,-0.22 -0.821,-0.4 -1.824,-0.4 -1.113,0 -1.727,0.156 -1.576,0.4 m 4.8,0 c -0.136,0.22 0.134,0.4 0.6,0.4 0.466,0 0.736,-0.18 0.6,-0.4 -0.136,-0.22 -0.406,-0.4 -0.6,-0.4 -0.194,0 -0.464,0.18 -0.6,0.4 m 9,0 c 0,0.239 1.533,0.4 3.8,0.4 2.267,0 3.8,-0.161 3.8,-0.4 0,-0.239 -1.533,-0.4 -3.8,-0.4 -2.267,0 -3.8,0.161 -3.8,0.4 m 8.4,0 c 0,0.22 0.529,0.4 1.176,0.4 0.647,0 1.288,-0.18 1.424,-0.4 0.147,-0.238 -0.329,-0.4 -1.176,-0.4 -0.783,0 -1.424,0.18 -1.424,0.4 m 31.6,-0.016 c 0,0.212 -1.575,0.445 -3.5,0.518 l -3.5,0.133 3.7,0.083 c 3.059,0.068 3.7,-0.022 3.7,-0.518 0,-0.33 -0.09,-0.6 -0.2,-0.6 -0.11,0 -0.2,0.173 -0.2,0.384 m -132.963,1.065 c -0.344,0.895 0.188,5.719 0.662,6.012 0.224,0.139 0.286,-0.079 0.146,-0.518 -0.132,-0.416 -0.273,-1.969 -0.314,-3.45 -0.08,-2.895 -0.114,-3.036 -0.494,-2.044 M 230.1,212.697 c 1.705,0.075 4.495,0.075 6.2,0 1.705,-0.075 0.31,-0.136 -3.1,-0.136 -3.41,0 -4.805,0.061 -3.1,0.136 m 11.805,-0.014 c 0.497,0.096 1.217,0.092 1.6,-0.008 0.382,-0.1 -0.025,-0.179 -0.905,-0.174 -0.88,0.004 -1.193,0.086 -0.695,0.182 m -43.599,0.4 c 0.498,0.096 0.803,0.341 0.676,0.546 -0.126,0.204 -0.039,0.371 0.194,0.371 0.233,0 0.424,-0.27 0.424,-0.6 0,-0.401 -0.365,-0.582 -1.1,-0.546 -0.952,0.048 -0.978,0.078 -0.194,0.229 m -4.573,2.117 c 0,0.94 0.091,1.101 0.354,0.631 0.204,-0.365 0.204,-0.897 0,-1.262 -0.263,-0.47 -0.354,-0.309 -0.354,0.631 m 10.167,-0.511 c 0.715,0.089 1.885,0.089 2.6,0 0.715,-0.088 0.13,-0.161 -1.3,-0.161 -1.43,0 -2.015,0.073 -1.3,0.161 m 19.2,-0.007 c 0.495,0.096 1.305,0.096 1.8,0 0.495,-0.095 0.09,-0.173 -0.9,-0.173 -0.99,0 -1.395,0.078 -0.9,0.173 m 14.217,0.415 c 1.494,0.077 3.834,0.077 5.2,-0.001 1.365,-0.078 0.143,-0.141 -2.717,-0.141 -2.86,10e-4 -3.978,0.065 -2.483,0.142 m -93.216,1.503 c 0.004,0.88 0.086,1.193 0.182,0.695 0.096,-0.497 0.092,-1.217 -0.008,-1.6 -0.1,-0.382 -0.179,0.025 -0.174,0.905 m 84.799,-1.124 c 0.385,0.1 1.015,0.1 1.4,0 0.385,-0.101 0.07,-0.183 -0.7,-0.183 -0.77,0 -1.085,0.082 -0.7,0.183 m -59.243,1.375 c -0.031,0.578 -0.327,1.275 -0.657,1.549 -0.33,0.274 -0.597,0.791 -0.594,1.149 0.005,0.566 0.057,0.573 0.394,0.051 0.292,-0.451 0.391,-0.253 0.403,0.8 l 0.015,1.4 0.798,-1.76 c 0.439,-0.967 0.705,-1.852 0.591,-1.966 -0.114,-0.114 -0.233,0.048 -0.264,0.359 -0.031,0.312 -0.185,-0.153 -0.343,-1.033 -0.208,-1.162 -0.302,-1.312 -0.343,-0.549 m 23.243,2.361 c -1.108,0.446 -1.139,0.617 -0.11,0.617 0.435,0 0.879,-0.232 0.988,-0.515 0.108,-0.283 0.158,-0.503 0.109,-0.489 -0.048,0.014 -0.492,0.188 -0.987,0.387 m -75.268,0.426 c -0.018,0.351 0.373,0.981 0.868,1.4 0.892,0.756 0.894,0.755 0.252,-0.038 -0.356,-0.44 -0.747,-1.07 -0.868,-1.4 -0.187,-0.509 -0.226,-0.504 -0.252,0.038 m 9.022,1.991 c -0.58,0.456 -1.043,1.131 -1.029,1.5 0.019,0.492 0.12,0.437 0.379,-0.205 0.194,-0.481 0.857,-1.149 1.474,-1.484 0.617,-0.334 0.921,-0.615 0.676,-0.624 -0.245,-0.009 -0.92,0.357 -1.5,0.813 m 41.164,0.714 c -0.13,0.408 -0.637,0.936 -1.127,1.173 l -0.891,0.43 0.9,0.027 c 0.495,0.015 0.9,0.214 0.9,0.443 0,0.239 0.235,0.197 0.556,-0.1 0.344,-0.319 0.404,-0.611 0.157,-0.766 -0.219,-0.138 -0.277,-0.633 -0.129,-1.1 0.149,-0.468 0.18,-0.85 0.07,-0.85 -0.11,0 -0.306,0.334 -0.436,0.743 m -20.494,7.057 c 0.002,1.32 0.077,1.812 0.166,1.093 0.089,-0.719 0.087,-1.799 -0.004,-2.4 -0.091,-0.601 -0.164,-0.013 -0.162,1.307 m 13.556,-0.12 c -0.264,0.264 -0.48,0.885 -0.48,1.38 0,0.495 -0.315,1.084 -0.7,1.308 -0.385,0.224 -0.511,0.413 -0.28,0.42 0.682,0.02 1.38,-0.885 1.38,-1.788 0,-0.462 0.216,-1.056 0.48,-1.32 0.264,-0.264 0.39,-0.48 0.28,-0.48 -0.11,0 -0.416,0.216 -0.68,0.48 m 1.013,1.228 c -0.381,0.47 -0.69,1.133 -0.686,1.473 0.003,0.344 0.382,0.033 0.85,-0.698 0.972,-1.518 0.862,-2.039 -0.164,-0.775 m -29,1.092 c 0,0.77 0.082,1.085 0.183,0.7 0.1,-0.385 0.1,-1.015 0,-1.4 -0.101,-0.385 -0.183,-0.07 -0.183,0.7 m 2.334,0.251 c -0.033,1.035 -1.014,1.928 -1.671,1.522 -0.299,-0.185 -0.375,-0.127 -0.202,0.152 0.167,0.271 0.773,0.35 1.529,0.198 1.055,-0.211 1.211,-0.146 0.997,0.414 -0.391,1.016 0.346,0.787 1.083,-0.337 0.619,-0.944 0.613,-1 -0.093,-1 -0.411,0 -0.943,-0.405 -1.182,-0.9 -0.429,-0.889 -0.434,-0.89 -0.461,-0.049 M 187.6,233.4 c 0,0.33 0.18,0.6 0.4,0.6 0.22,0 0.4,-0.27 0.4,-0.6 0,-0.33 -0.18,-0.6 -0.4,-0.6 -0.22,0 -0.4,0.27 -0.4,0.6"
       inkscape:connector-curvature="0"
       style="fill:#7c7c7c;fill-rule:evenodd;stroke:none" />
    <path
       id="path4"
       d="m 267.2,174.796 c -0.533,0.359 -0.533,0.449 0,0.808 0.889,0.599 3,0.315 3,-0.404 0,-0.719 -2.111,-1.003 -3,-0.404 m 2.8,0.404 c 0,0.22 -0.54,0.4 -1.2,0.4 -0.66,0 -1.2,-0.18 -1.2,-0.4 0,-0.22 0.54,-0.4 1.2,-0.4 0.66,0 1.2,0.18 1.2,0.4 m -83.193,4.296 c -0.326,0.128 -0.834,0.474 -1.128,0.768 -0.853,0.853 -11.573,0.756 -12.533,-0.113 -0.943,-0.853 -1.946,-0.43 -1.946,0.822 0,0.589 -0.328,1.174 -0.8,1.427 -0.512,0.274 -0.8,0.838 -0.8,1.565 0,0.734 -0.318,1.348 -0.895,1.731 -1.037,0.689 -0.435,1.904 0.944,1.904 1.012,0 0.936,0.412 -0.291,1.576 -0.993,0.942 -4.973,1.856 -7.158,1.644 -0.44,-0.043 -10.29,-0.164 -21.889,-0.269 -22.22,-0.201 -23.16,-0.138 -22.294,1.482 0.284,0.53 0.404,5.442 0.357,14.62 -0.082,15.776 -0.13,15.522 2.767,14.567 2.48,-0.819 2.693,-1.025 2.163,-2.094 -0.62,-1.25 -1.011,-5.594 -0.564,-6.268 0.217,-0.327 0.194,-0.98 -0.058,-1.647 -0.591,-1.564 0.979,-5.415 2.535,-6.22 0.611,-0.316 1.186,-0.8 1.278,-1.076 0.129,-0.387 2.862,-0.508 11.891,-0.528 13.022,-0.029 12.896,-0.053 13.776,2.643 0.505,1.548 1.353,1.688 4.568,0.758 1.556,-0.45 1.9,-0.415 3.443,0.356 0.943,0.471 2.204,0.856 2.802,0.856 2.684,0 5.119,5.528 2.819,6.402 -0.714,0.272 -0.994,0.677 -0.994,1.441 0,0.709 -0.497,1.531 -1.494,2.471 -1.536,1.449 -2.05,2.173 -3.08,4.337 -0.328,0.689 -0.873,1.358 -1.211,1.488 -0.433,0.166 -0.615,0.794 -0.615,2.123 0,1.284 -0.239,2.15 -0.749,2.712 -0.493,0.543 -0.822,1.673 -0.96,3.299 -0.239,2.814 -0.132,2.927 2.779,2.927 1.198,0 2.145,0.269 2.821,0.8 0.706,0.556 1.623,0.8 3,0.8 1.377,0 2.293,0.244 3,0.8 0.712,0.56 1.623,0.8 3.037,0.8 1.486,0 2.251,0.217 2.893,0.819 2.68,2.519 12.979,0.575 12.979,-2.45 0,-1.703 -0.645,-1.758 -2.259,-0.191 -1.683,1.635 -1.587,1.613 -3.479,0.822 -0.79,-0.33 -2.179,-0.6 -3.086,-0.6 -1.044,0 -2.023,-0.294 -2.667,-0.8 -0.751,-0.591 -1.623,-0.8 -3.336,-0.8 -2.823,0 -4.701,-1.733 -3.416,-3.153 0.354,-0.39 0.643,-1.125 0.643,-1.633 0,-0.507 0.405,-1.331 0.9,-1.83 1.675,-1.691 1.983,-2.236 2.207,-3.908 0.267,-1.988 1.942,-3.876 3.439,-3.876 1.444,0 1.631,-0.619 0.661,-2.189 -2.052,-3.319 0.468,-8.184 2.675,-5.166 0.458,0.626 0.575,0.638 1.018,0.103 3.085,-3.729 15.604,-1.479 13.512,2.429 -1.384,2.587 -0.007,3.828 1.846,1.663 1.216,-1.419 1.622,-1.64 3.026,-1.64 0.944,0 2.184,-0.347 2.966,-0.831 1.308,-0.808 1.677,-0.824 13.647,-0.596 6.767,0.13 16.893,0.283 22.503,0.341 5.61,0.058 11.392,0.258 12.849,0.445 2.441,0.314 2.748,0.267 3.925,-0.603 2.656,-1.963 3.807,-5.803 2.026,-6.756 -1.044,-0.559 -1.053,-2.447 -0.015,-3.387 0.719,-0.65 0.736,-0.805 0.2,-1.842 -0.322,-0.622 -0.585,-1.556 -0.585,-2.075 0,-2.615 0.829,-2.518 -18.4,-2.14 -5.158,0.102 -9.132,0.008 -9.929,-0.234 -0.731,-0.222 -4.822,-0.397 -9.092,-0.389 -4.402,0.009 -7.864,-0.147 -7.995,-0.359 -0.127,-0.206 -0.086,-0.386 0.092,-0.4 0.391,-0.031 41.952,-0.413 43.204,-0.397 1.313,0.016 1.462,-0.618 0.463,-1.968 L 253.85,193.6 h -8.238 c -6.388,0 -8.729,-0.144 -10.425,-0.642 -1.659,-0.487 -5.035,-0.714 -13.987,-0.94 -9.382,-0.237 -12.128,-0.43 -13.4,-0.94 -3.624,-1.456 -7.718,-0.785 -7.459,1.222 0.11,0.85 -0.022,0.963 -1.241,1.06 -0.279,0.022 -0.589,-0.58 -0.7,-1.36 l -0.2,-1.4 -3.783,-0.116 c -3.406,-0.105 -3.924,-0.224 -5.194,-1.2 -0.776,-0.596 -1.773,-1.268 -2.217,-1.493 -0.443,-0.225 -0.863,-0.9 -0.933,-1.5 -0.181,-1.562 1.962,-1.61 2.669,-0.06 0.796,1.749 1.448,0.933 1.577,-1.975 0.15,-3.395 -1.453,-5.568 -3.512,-4.76 m 2.175,1.122 c 0.88,0.881 1.018,1.367 1.018,3.6 0,2.861 -0.365,3.242 -1.228,1.282 -0.706,-1.604 -2.659,-1.941 -9.274,-1.601 -3.8,0.196 -4.396,0.136 -5.112,-0.512 -1.259,-1.139 -2.945,-0.398 -3.115,1.371 -0.168,1.746 0.461,2.409 1.443,1.52 1.66,-1.502 12.359,-1.148 12.734,0.422 0.354,1.485 0.894,2.1 1.843,2.1 0.437,0 1.328,0.45 1.982,1 1.084,0.912 1.521,1 4.958,1 H 198 v 1.12 c 0,1.904 1.354,2.669 2.571,1.452 0.453,-0.453 0.52,-0.828 0.242,-1.347 -0.771,-1.442 4.1,-1.838 6.507,-0.529 1.107,0.602 2.878,0.724 13.08,0.9 9.413,0.163 12.002,0.324 12.8,0.795 0.789,0.466 3.091,0.622 10.9,0.74 8.249,0.125 9.9,0.245 9.9,0.722 0,0.315 0.27,0.676 0.6,0.802 0.957,0.367 0.696,0.826 -0.5,0.881 -0.605,0.028 -1.55,0.076 -2.1,0.105 -0.55,0.03 -10.138,0 -21.306,-0.067 -20.822,-0.125 -21.527,-0.078 -20.96,1.399 0.208,0.541 1.357,0.627 8.356,0.627 4.835,0 8.68,0.179 9.513,0.444 2.422,0.769 17.346,0.906 18.764,0.173 1.294,-0.669 2.963,-0.758 6.758,-0.362 l 2.443,0.256 0.265,1.844 c 0.146,1.015 0.508,2.124 0.806,2.465 0.46,0.528 0.423,0.72 -0.249,1.296 -1.051,0.9 -1.046,2.918 0.01,3.577 0.559,0.349 0.8,0.933 0.8,1.937 0,1.73 -0.304,2.123 -1.061,1.367 -1.004,-1.005 -56.407,-0.76 -57.274,0.252 -0.353,0.413 -0.869,0.751 -1.145,0.751 -0.276,0 -0.796,0.45 -1.157,1 -0.784,1.197 -1.975,1.298 -2.554,0.216 -1.568,-2.929 -11.76,-3.397 -13.692,-0.629 -0.186,0.266 -0.455,0.235 -0.78,-0.09 -2.682,-2.682 -5.59,2.893 -3.137,6.012 1.045,1.329 1.013,1.49 -0.3,1.495 -1.531,0.006 -3.7,2.283 -3.7,3.885 0,0.662 -0.36,1.661 -0.8,2.22 -0.44,0.56 -0.8,1.17 -0.8,1.358 0,0.187 -0.36,0.565 -0.8,0.84 -0.513,0.321 -0.8,0.933 -0.8,1.709 0,0.706 -0.25,1.305 -0.6,1.439 -2.22,0.852 0.679,3.745 3.754,3.745 1.814,0 2.48,0.175 3.046,0.8 0.546,0.603 1.232,0.8 2.786,0.8 1.193,0 2.388,0.247 2.838,0.587 1.266,0.958 2.5,0.715 4.003,-0.787 1.701,-1.701 1.773,-1.709 1.773,-0.2 0,0.66 -0.213,1.2 -0.474,1.2 -0.261,0 -0.879,0.38 -1.373,0.844 -1.337,1.257 -9.54,1.237 -10.424,-0.024 -0.467,-0.666 -1.009,-0.82 -2.89,-0.82 -1.807,0 -2.474,-0.176 -3.039,-0.8 -0.555,-0.613 -1.232,-0.8 -2.899,-0.8 -1.569,0 -2.458,-0.223 -3.192,-0.8 -0.727,-0.572 -1.623,-0.8 -3.139,-0.8 -2.212,0 -2.739,-0.279 -2.194,-1.16 0.244,-0.397 0.52,-0.417 1.14,-0.085 2.14,1.145 4.528,-0.729 5.039,-3.955 0.4,-2.524 1.197,-3.6 2.668,-3.6 1.429,0 3.977,-2.307 3.977,-3.601 0,-0.455 0.25,-1.226 0.557,-1.713 0.306,-0.487 0.683,-1.78 0.837,-2.872 0.154,-1.092 0.534,-2.347 0.843,-2.789 0.796,-1.135 0.701,-1.957 -0.337,-2.926 -1.8,-1.68 -4.3,-1.359 -4.3,0.553 0,0.327 -0.18,0.484 -0.4,0.348 -0.22,-0.136 -0.4,-0.802 -0.4,-1.481 0,-1.665 -2.151,-3.909 -3.753,-3.915 -0.634,-0.002 -1.773,-0.387 -2.531,-0.856 -1.421,-0.878 -4.943,-0.881 -5.819,-0.005 -0.685,0.685 -1.862,-0.026 -2.316,-1.399 -0.796,-2.414 -1.003,-2.451 -13.581,-2.482 l -11.4,-0.027 -2.064,1.363 c -1.475,0.973 -2.138,1.702 -2.326,2.554 -0.144,0.656 -0.52,1.407 -0.836,1.669 -0.677,0.562 -0.761,2.432 -0.137,3.056 0.316,0.316 0.309,0.677 -0.026,1.302 -0.523,0.979 -0.226,4.874 0.483,6.32 0.575,1.174 0.342,1.352 -1.872,1.433 l -1.848,0.068 -0.007,-14.8 -0.008,-14.8 19.906,-0.104 c 17.223,-0.09 20.161,-0.019 21.8,0.525 1.555,0.517 2.058,0.54 2.814,0.127 0.507,-0.277 1.981,-0.631 3.276,-0.788 3.794,-0.46 6.497,-3.96 3.058,-3.96 -1.366,0 -1.634,-0.597 -0.413,-0.916 0.606,-0.159 0.8,-0.546 0.8,-1.6 0,-1.054 0.194,-1.441 0.8,-1.6 0.583,-0.152 0.8,-0.546 0.8,-1.447 0,-1.349 0.423,-1.573 1.2,-0.637 0.854,1.029 12.141,0.862 13.491,-0.2 1.299,-1.022 1.464,-1.008 2.691,0.218 m -14.697,4.029 c 0.143,0.436 -2.23,1.142 -2.598,0.773 -0.102,-0.102 -0.075,-0.475 0.061,-0.83 0.28,-0.728 2.294,-0.684 2.537,0.057 m -66.506,4.663 c -0.114,0.298 0.069,1.603 0.407,2.9 1.03,3.954 0.881,22.444 -0.207,25.76 -1.635,4.98 -0.136,7.541 3.149,5.38 0.59,-0.388 1.702,-0.808 2.472,-0.934 l 1.4,-0.23 V 205.593 189 l -3.507,-0.116 c -2.661,-0.087 -3.556,0.015 -3.714,0.426 M 114.8,205.6 V 222 h -1.339 c -0.764,0 -1.734,0.343 -2.261,0.8 -1.865,1.617 -3.6,1.102 -3.6,-1.069 0,-1.218 0.244,-2.137 0.7,-2.642 0.903,-0.998 1.09,-27.459 0.2,-28.349 -1.203,-1.203 -0.569,-1.54 2.9,-1.54 h 3.4 v 16.4 m 67.616,-15.419 c -0.267,0.322 -0.363,0.955 -0.215,1.422 0.408,1.287 3.143,0.993 3.334,-0.358 0.217,-1.536 -2.078,-2.319 -3.119,-1.064 m 2.733,0.451 c 0.456,0.406 -0.468,1.368 -1.313,1.368 -1.216,0 -1.669,-0.637 -1.014,-1.427 0.422,-0.508 1.728,-0.475 2.327,0.059 m -28.257,2.636 c -0.632,0.632 -0.641,4.423 -0.012,5.052 0.629,0.629 2.819,0.616 3.479,-0.02 0.419,-0.404 0.491,-0.347 0.376,0.3 -0.109,0.614 -0.512,0.83 -1.733,0.93 -1.967,0.16 -2.602,0.658 -2.602,2.039 0,2.859 3.414,2.895 5.132,0.054 0.786,-1.299 0.945,-1.372 2.78,-1.274 2.477,0.131 2.971,-0.422 2.81,-3.14 -0.264,-4.453 -5.922,-4.803 -5.922,-0.367 0,0.443 -0.18,0.694 -0.4,0.558 -0.22,-0.136 -0.403,-0.912 -0.406,-1.724 -0.009,-2.255 -2.17,-3.74 -3.502,-2.408 m 2.082,0.322 c 1.533,0.583 1.554,4.262 0.027,4.646 -2.02,0.506 -3.326,-2.951 -1.721,-4.556 0.575,-0.575 0.436,-0.568 1.694,-0.09 m 13.115,0.233 c -1.507,1.056 -0.539,3.377 1.409,3.377 0.894,0 1.497,-1.855 0.975,-3 -0.527,-1.155 -1.136,-1.252 -2.384,-0.377 M 174,195.2 c 0,0.811 -0.199,1.2 -0.613,1.2 -0.723,0 -1.168,-0.951 -0.842,-1.8 0.426,-1.111 1.455,-0.687 1.455,0.6 m -8.38,-0.19 c 2.289,1.184 1.509,4.99 -1.024,4.99 -1.835,0 -2.553,-0.741 -2.662,-2.746 -0.143,-2.613 1.287,-3.484 3.686,-2.244 m 23.38,1.363 c -2.134,0.242 -3.018,1.959 -1.778,3.453 0.848,1.022 4.632,0.756 5.796,-0.408 2.204,-2.204 0.429,-3.549 -4.018,-3.045 m 4.3,0.706 c 1.597,0.896 -1.266,2.992 -3.877,2.839 C 187.4,199.8 187.4,199.8 187.4,198.4 c 0,-1.693 3.743,-2.531 5.9,-1.321 m 65.354,2.15 c -1.358,1.068 -1.34,1.893 0.046,2.197 1.949,0.427 2.044,0.508 2.173,1.851 l 0.127,1.323 11.709,0.061 c 6.44,0.033 12.006,0.174 12.368,0.313 1.15,0.442 1.9,-3.405 1.08,-5.541 -0.539,-1.404 -1.757,0.389 -1.757,2.586 0,0.649 -0.18,1.181 -0.4,1.181 -0.22,0 -0.4,-0.602 -0.4,-1.338 0,-2.47 -0.87,-2.822 -7.74,-3.126 -12.252,-0.543 -16.027,-0.435 -17.206,0.493 m -113.551,-0.134 c -2.28,0.144 -3.549,1.06 -2.906,2.1 0.234,0.378 5.782,0.485 7.103,0.136 1.368,-0.361 0.237,-2.62 -1.229,-2.455 -0.369,0.041 -1.704,0.14 -2.968,0.219 m 131.017,0.262 c 6.23,0.551 6.86,0.784 6.912,2.563 0.017,0.594 0.107,1.35 0.2,1.68 0.146,0.521 -1.291,0.614 -10.932,0.706 l -11.1,0.107 v -1.127 c 0,-1.343 -0.646,-2.086 -1.813,-2.086 -1.316,0 -1.477,-0.453 -0.521,-1.47 1.061,-1.13 7.2,-1.262 17.254,-0.373 m 9.88,2.619 c 0,2.337 -0.445,3.322 -1.054,2.336 -0.17,-0.275 -0.263,-1.133 -0.205,-1.906 0.263,-3.53 1.259,-3.87 1.259,-0.43 m -141.826,-1.134 c -0.279,0.452 -1.374,0.471 -1.374,0.025 0,-0.563 0.45,-0.823 1.037,-0.598 0.307,0.118 0.459,0.376 0.337,0.573 m 4.409,-0.47 c 0.296,0.479 -0.457,0.953 -0.99,0.624 C 147.146,200.719 147.44,200 148,200 c 0.194,0 0.456,0.168 0.583,0.372 m 12.896,0.259 c 0.078,0.236 -0.315,0.923 -0.873,1.525 -1.886,2.035 -4.583,0.846 -3.642,-1.606 0.269,-0.702 4.281,-0.63 4.515,0.081 m 17.521,1.12 c -0.578,0.422 -1.983,0.514 -6.023,0.394 -5.581,-0.165 -6.424,0.074 -6.105,1.736 0.133,0.697 15.413,1.707 17.028,1.124 0.638,-0.23 0.653,-2.692 0.02,-3.325 -0.655,-0.655 -3.993,-0.607 -4.92,0.071 m 4.582,0.427 c 1.288,1.552 0.38,2.429 -2.382,2.303 -1.43,-0.066 -3.95,-0.106 -5.6,-0.09 -1.65,0.016 -3.99,-0.094 -5.2,-0.246 l -2.2,-0.275 1.8,-0.353 c 0.99,-0.194 3.255,-0.241 5.034,-0.104 3.156,0.242 3.25,0.223 3.909,-0.783 0.787,-1.2 3.776,-1.492 4.639,-0.452 m 51.882,0.222 c -8.499,0.287 -8.645,0.328 -8.658,2.42 -0.011,1.914 0.329,1.98 10.194,1.98 9.865,0 10.205,-0.066 10.194,-1.98 -0.01,-1.631 -1.428,-2.903 -3.068,-2.754 -0.399,0.037 -4.297,0.187 -8.662,0.334 m 10.856,0.88 c 0.646,0.646 0.608,2.116 -0.07,2.679 -0.386,0.32 -3.287,0.424 -9.7,0.349 L 227.4,206.2 v -1.4 c 0,-1.326 0.084,-1.413 1.6,-1.643 3.173,-0.483 16.811,-0.386 17.32,0.123 m -120.52,3.441 -1.2,1.418 -0.043,5.929 c -0.045,6.37 0.369,7.873 1.661,6.027 0.321,-0.457 1.11,-0.947 1.755,-1.089 0.644,-0.142 1.386,-0.516 1.648,-0.832 0.262,-0.316 0.95,-0.575 1.528,-0.577 0.578,-0.001 1.591,-0.36 2.251,-0.797 0.66,-0.437 1.491,-0.796 1.846,-0.797 0.355,-0.002 1.104,-0.363 1.663,-0.803 0.56,-0.44 1.349,-0.801 1.754,-0.803 0.405,-0.001 1.277,-0.36 1.937,-0.797 0.66,-0.437 1.583,-0.796 2.051,-0.797 0.468,-0.002 1.063,-0.259 1.322,-0.571 0.259,-0.312 1.698,-0.94 3.197,-1.395 3.537,-1.075 3.964,-1.577 3.206,-3.77 l -0.576,-1.667 -11.4,-0.049 -11.4,-0.048 -1.2,1.418 m 24.228,0.755 c 0.276,1.347 -0.159,2.115 -1.208,2.137 -0.341,0.007 -0.969,0.277 -1.396,0.6 -0.428,0.323 -1.194,0.587 -1.704,0.587 -0.51,0 -1.236,0.36 -1.613,0.8 -0.377,0.44 -1.157,0.8 -1.735,0.8 -0.577,0 -1.465,0.36 -1.972,0.8 -0.507,0.44 -1.321,0.8 -1.807,0.8 -0.487,0 -1.343,0.36 -1.902,0.8 -0.56,0.44 -1.37,0.8 -1.8,0.8 -0.431,0 -1.241,0.36 -1.8,0.8 -0.56,0.44 -1.403,0.8 -1.875,0.8 -0.472,0 -1.613,0.391 -2.537,0.869 -2.289,1.183 -3.032,1.531 -3.274,1.531 -0.857,0 -0.143,-11.421 0.774,-12.378 l 0.979,-1.022 h 11.305 11.304 l 0.261,1.276 m 40.672,0.561 c -2.459,1.414 2.992,3.254 6.9,2.33 0.77,-0.182 7.396,-0.372 14.725,-0.423 13.706,-0.095 15.393,-0.284 13.863,-1.554 -0.85,-0.705 -34.297,-1.037 -35.488,-0.353 m 7.944,0.342 c 2.396,-0.005 5.526,-0.038 6.956,-0.073 8.467,-0.21 20.057,0.123 19.907,0.572 -0.119,0.357 -4.153,0.501 -16.025,0.571 -8.727,0.052 -16.037,0.199 -16.244,0.328 -0.44,0.272 -2.438,-0.559 -2.438,-1.013 0,-0.401 1.565,-0.71 2.644,-0.523 0.464,0.08 2.804,0.142 5.2,0.138 m -49.844,3.172 c 0,0.413 -0.398,1.016 -0.886,1.339 -1.026,0.682 -1.062,1.403 -0.661,13.31 l 0.242,7.2 h 2.152 2.153 l 0.111,-5.277 c 0.095,-4.468 -0.013,-5.632 -0.7,-7.587 -0.545,-1.551 -0.811,-3.319 -0.811,-5.389 0,-1.695 -0.109,-3.366 -0.243,-3.714 -0.338,-0.883 -1.357,-0.794 -1.357,0.118 m 107.1,0.009 c 0.055,0.022 0.1,0.31 0.1,0.64 0,0.512 -1.1,0.6 -7.5,0.6 -17.505,-0.001 -48.903,-0.557 -48.6,-0.86 0.406,-0.406 54.998,-0.776 56,-0.38 M 150,215.185 c 0,2.642 0.21,4.119 0.8,5.615 0.654,1.66 0.8,2.973 0.8,7.215 v 5.185 h -1.93 -1.93 l 0.03,-3.1 c 0.017,-1.705 -0.054,-6.07 -0.158,-9.7 -0.187,-6.584 -0.185,-6.603 0.8,-7.658 1.487,-1.592 1.588,-1.437 1.588,2.443 m 21.596,-2.589 c 0.85,0.904 0.879,1.06 0.323,1.7 -0.337,0.387 -0.725,1.446 -0.862,2.352 -0.138,0.907 -0.608,2.437 -1.045,3.4 -0.437,0.964 -0.798,2.117 -0.803,2.563 -0.012,1.085 -1.414,2.244 -3.609,2.983 -1.624,0.547 -1.851,0.782 -2.321,2.406 -1.055,3.65 -2.12,5.2 -3.571,5.2 -1.558,0 -1.693,-0.496 -0.308,-1.127 0.662,-0.302 1,-0.78 1,-1.415 0,-0.528 0.27,-1.184 0.6,-1.458 0.33,-0.274 0.6,-0.936 0.6,-1.47 0,-1.334 1.98,-3.73 3.081,-3.73 2.193,0 3.719,-1.595 3.719,-3.887 0,-0.578 0.283,-1.363 0.629,-1.745 0.901,-0.996 0.944,-4.093 0.07,-5.059 -1.658,-1.832 0.79,-2.531 2.497,-0.713 m 28.004,0.757 c 0,0.305 -0.495,0.651 -1.1,0.77 -1.312,0.257 -2.185,-0.372 -1.297,-0.934 0.9,-0.568 2.397,-0.466 2.397,0.164 m 42.3,-0.049 c 7.535,0.053 13.7,0.231 13.7,0.396 0,0.165 -0.351,0.3 -0.78,0.3 -0.429,0 -0.957,0.315 -1.173,0.7 -0.373,0.663 -0.454,0.664 -1.56,0.013 -1.952,-1.149 -49.645,-1.064 -50.69,0.09 -0.531,0.587 -1.232,0.797 -2.659,0.797 -2.323,0 -2.564,-0.598 -0.382,-0.947 0.856,-0.136 1.657,-0.509 1.779,-0.827 0.3,-0.783 1.624,-0.843 15.865,-0.722 6.71,0.058 18.365,0.148 25.9,0.2 m -72.774,2.433 c 0.082,0.995 -0.079,1.7 -0.457,2 -0.321,0.254 -0.703,1.309 -0.848,2.344 -0.264,1.876 -1.874,3.519 -3.449,3.519 -0.989,0 -3.172,2.498 -3.172,3.629 0,0.59 -0.27,1.297 -0.6,1.571 -0.33,0.274 -0.6,0.921 -0.6,1.439 0,0.941 -2.007,2.421 -2.549,1.878 -0.542,-0.541 -0.209,-2.431 0.549,-3.117 0.586,-0.53 0.8,-1.232 0.8,-2.619 0,-1.265 0.188,-1.968 0.566,-2.113 0.523,-0.2 0.937,-0.821 2.314,-3.466 0.286,-0.549 1.195,-1.622 2.02,-2.384 0.993,-0.917 1.5,-1.736 1.5,-2.424 0,-2.344 3.735,-2.589 3.926,-0.257 m -26.874,-0.595 c -0.379,0.419 -1.406,0.876 -2.283,1.017 -2.385,0.381 -3.498,7.069 -1.738,10.441 0.39,0.745 0.639,2.301 0.658,4.105 0.037,3.543 0.596,4.588 1.987,3.714 0.508,-0.32 1.734,-0.68 2.724,-0.8 l 1.8,-0.219 v -6 c 0,-4.148 -0.167,-6.396 -0.542,-7.283 -0.298,-0.706 -0.658,-2.222 -0.8,-3.368 -0.286,-2.313 -0.774,-2.747 -1.806,-1.607 m 1.467,2.158 c 0.129,1.375 0.515,3.169 0.858,3.987 0.456,1.089 0.623,2.884 0.623,6.7 v 5.213 h -1.711 c -0.941,0 -2.099,0.272 -2.574,0.604 -1.189,0.833 -1.403,0.341 -1.572,-3.609 -0.078,-1.811 -0.412,-3.941 -0.742,-4.731 -1.684,-4.031 -0.465,-9.064 2.196,-9.064 0.763,0 1.377,-0.29 1.696,-0.8 0.781,-1.251 0.974,-0.983 1.226,1.7 m 52.483,-0.897 c 0.137,0.221 -0.026,0.508 -0.361,0.637 -0.336,0.129 -0.72,0.577 -0.853,0.997 -0.365,1.15 -0.988,0.916 -0.988,-0.37 0,-1.582 1.48,-2.432 2.202,-1.264 M 134.8,220 c 0,0.44 0.18,0.8 0.4,0.8 0.22,0 0.4,-0.36 0.4,-0.8 0,-0.44 -0.18,-0.8 -0.4,-0.8 -0.22,0 -0.4,0.36 -0.4,0.8 m 57.366,0.143 c -0.363,0.948 -0.018,2.057 0.639,2.057 0.391,0 0.595,-0.401 0.595,-1.167 0,-1.264 -0.854,-1.88 -1.234,-0.89 m -62.851,0.624 c -3.903,1.33 -4.269,2.906 -1.312,5.636 l 1.597,1.474 v 3.474 c 0,2.679 0.134,3.525 0.585,3.699 1.018,0.39 5.536,-0.405 5.736,-1.011 0.144,-0.432 -0.097,-0.504 -1.052,-0.313 -1.711,0.342 -1.798,0.069 -1.891,-5.927 -0.128,-8.248 -0.123,-8.239 -3.663,-7.032 M 193.2,221 c 0,0.55 -0.18,1 -0.4,1 -0.22,0 -0.4,-0.45 -0.4,-1 0,-0.55 0.18,-1 0.4,-1 0.22,0 0.4,0.45 0.4,1 m -60.988,0.3 c 0.103,0.275 0.245,3.11 0.316,6.3 0.071,3.19 0.206,6.07 0.3,6.4 0.127,0.444 -0.219,0.632 -1.328,0.724 l -1.5,0.124 v -3.54 -3.541 l -1.54,-1.415 c -1.897,-1.745 -2.345,-3.17 -1.297,-4.119 1.373,-1.242 4.703,-1.857 5.049,-0.933 M 190.8,225 c 0,0.33 0.18,0.6 0.4,0.6 0.22,0 0.4,-0.27 0.4,-0.6 0,-0.33 -0.18,-0.6 -0.4,-0.6 -0.22,0 -0.4,0.27 -0.4,0.6"
       inkscape:connector-curvature="0"
       style="fill:#747474;fill-rule:evenodd;stroke:none" />
  </g>
</svg>
