<svg id="svg" version="1.1" xmlns="http://www.w3.org/2000/svg" xmlns:xlink="http://www.w3.org/1999/xlink" width="400" height="400" viewBox="0, 0, 400,400"><g id="svgg"><path id="path0" d="M0.000 200.000 L 0.000 400.000 200.000 400.000 L 400.000 400.000 400.000 200.000 L 400.000 0.000 200.000 0.000 L 0.000 0.000 0.000 200.000 M270.600 175.200 C 270.600 176.274,268.677 176.757,266.538 176.220 C 265.531 175.967,265.231 174.622,266.100 174.256 C 267.684 173.588,270.600 174.200,270.600 175.200 M173.800 179.600 C 175.603 180.794,184.319 180.794,185.400 179.600 C 186.467 178.421,188.237 178.575,189.631 179.969 C 191.167 181.506,191.443 187.107,190.000 187.484 C 187.386 188.168,190.444 189.771,194.800 190.000 L 198.600 190.200 198.725 191.500 C 198.794 192.215,199.008 192.800,199.200 192.800 C 199.392 192.800,199.606 192.215,199.675 191.500 L 199.800 190.200 203.855 190.087 C 206.940 190.000,208.328 190.136,209.655 190.656 C 211.104 191.223,213.467 191.381,223.600 191.589 C 233.863 191.800,236.036 191.948,237.287 192.520 C 238.521 193.084,240.074 193.200,246.418 193.200 L 254.062 193.200 255.260 194.399 C 256.851 195.989,256.646 196.962,254.688 197.125 C 252.997 197.265,253.044 198.000,254.744 198.000 C 255.347 198.000,256.027 198.187,256.255 198.415 C 256.541 198.701,257.007 198.701,257.761 198.415 C 260.105 197.524,281.745 197.885,282.954 198.835 L 284.015 199.670 284.762 198.748 C 286.322 196.821,287.789 202.556,286.557 205.767 C 286.264 206.531,284.965 206.608,284.685 205.878 C 284.528 205.468,282.012 205.333,273.028 205.251 L 261.571 205.147 260.811 206.074 C 260.077 206.968,260.027 206.975,259.326 206.274 C 258.625 205.573,258.632 205.522,259.529 204.786 C 260.815 203.732,260.580 202.244,259.100 202.073 C 258.084 201.957,258.000 202.054,258.000 203.359 C 258.000 204.362,257.768 204.896,257.200 205.200 C 256.760 205.435,256.400 205.975,256.400 206.400 C 256.400 206.825,256.760 207.365,257.200 207.600 C 258.979 208.552,257.793 214.800,255.833 214.800 C 255.553 214.800,255.033 215.121,254.678 215.513 C 253.777 216.509,227.377 216.387,223.254 215.369 C 219.679 214.485,204.810 214.761,202.905 215.746 C 202.209 216.106,200.843 216.400,199.868 216.400 C 197.679 216.400,194.168 219.371,193.934 221.421 C 193.825 222.376,193.610 222.600,192.800 222.600 C 191.393 222.600,191.066 219.514,192.397 218.802 C 193.134 218.407,193.222 218.049,193.118 215.880 L 193.000 213.408 190.800 213.076 C 186.604 212.443,181.775 212.901,180.827 214.022 L 180.000 215.000 179.212 214.071 C 178.715 213.484,178.088 213.189,177.512 213.271 C 176.179 213.460,175.974 216.495,177.205 217.806 C 178.479 219.162,178.172 220.958,176.637 221.133 C 174.834 221.338,173.200 223.219,173.200 225.089 C 173.200 226.344,172.906 226.945,171.652 228.250 C 168.502 231.528,169.108 234.800,172.864 234.800 C 174.771 234.800,175.540 234.980,176.174 235.575 C 177.531 236.848,184.273 236.943,185.099 235.700 C 185.428 235.205,185.908 234.800,186.166 234.800 C 186.424 234.800,186.807 234.215,187.017 233.500 C 187.490 231.895,188.446 231.818,188.982 233.342 C 189.325 234.316,189.253 234.590,188.492 235.206 C 187.948 235.646,187.600 236.372,187.600 237.064 C 187.600 238.435,185.382 240.400,183.835 240.400 C 183.281 240.400,182.195 240.701,181.422 241.070 C 180.108 241.696,179.970 241.696,179.277 241.070 C 178.803 240.641,177.852 240.400,176.632 240.400 C 175.332 240.400,174.403 240.146,173.709 239.600 C 172.988 239.032,172.086 238.800,170.608 238.800 C 169.032 238.800,168.348 238.605,167.800 238.000 C 167.221 237.360,166.568 237.200,164.541 237.200 C 162.440 237.200,161.921 237.063,161.507 236.400 C 161.105 235.756,160.574 235.600,158.780 235.600 C 155.581 235.600,154.794 234.941,155.708 233.024 C 156.089 232.226,156.400 230.989,156.400 230.275 C 156.400 229.473,156.705 228.716,157.200 228.293 C 157.779 227.797,158.000 227.113,158.000 225.818 C 158.000 224.438,158.183 223.930,158.800 223.600 C 159.267 223.350,159.600 222.762,159.600 222.189 C 159.600 221.640,159.953 220.987,160.400 220.707 C 160.840 220.432,161.200 220.064,161.200 219.888 C 161.200 219.713,161.920 218.820,162.800 217.904 C 163.705 216.962,164.400 215.846,164.400 215.333 C 164.400 214.836,164.760 214.235,165.200 214.000 C 167.655 212.686,165.114 208.400,161.880 208.400 C 160.784 208.400,159.906 208.169,159.600 207.800 C 159.326 207.470,158.786 207.200,158.400 207.200 C 158.014 207.200,157.051 207.470,156.262 207.800 C 155.472 208.130,154.264 208.400,153.577 208.400 C 150.802 208.400,149.553 215.084,151.610 218.922 C 152.345 220.294,152.409 221.048,152.310 227.116 L 152.200 233.800 149.866 233.921 C 148.455 233.994,147.302 233.851,146.949 233.558 C 146.508 233.191,146.254 233.186,145.903 233.537 C 145.648 233.792,144.891 234.001,144.220 234.003 C 143.549 234.004,142.460 234.363,141.800 234.800 C 140.384 235.738,139.473 235.811,138.832 235.039 C 138.433 234.558,138.201 234.560,137.209 235.056 C 136.408 235.455,135.027 235.597,132.725 235.517 L 129.400 235.400 129.283 231.823 L 129.167 228.246 127.583 226.785 C 126.712 225.981,126.000 225.137,126.000 224.910 C 126.000 224.684,125.740 224.283,125.423 224.019 C 125.106 223.756,124.791 222.969,124.723 222.270 C 124.586 220.860,122.904 220.625,121.569 221.830 C 120.634 222.674,119.144 222.502,117.900 221.407 C 116.788 220.427,116.488 219.440,117.175 219.015 C 117.690 218.697,117.705 192.912,117.191 192.594 C 116.565 192.208,116.740 190.509,117.433 190.243 C 117.781 190.109,129.217 190.000,142.846 190.000 L 167.626 190.000 167.971 189.100 C 168.169 188.584,168.164 188.038,167.958 187.820 C 167.323 187.146,167.577 185.640,168.400 185.200 C 168.921 184.921,169.200 184.362,169.200 183.600 C 169.200 182.838,169.479 182.279,170.000 182.000 C 170.507 181.728,170.800 181.162,170.800 180.453 C 170.800 178.558,171.798 178.274,173.800 179.600 M115.400 205.600 L 115.400 222.600 114.200 222.732 C 113.540 222.805,112.618 223.220,112.150 223.655 C 111.478 224.280,110.851 224.420,109.150 224.323 L 107.000 224.200 107.004 220.600 C 107.008 217.831,107.169 216.772,107.704 216.011 C 108.653 214.663,108.755 196.823,107.827 194.602 C 107.114 192.896,106.632 189.816,106.948 188.991 C 107.145 188.477,107.884 188.391,111.293 188.486 L 115.400 188.600 115.400 205.600 M157.370 194.534 C 156.853 195.882,157.363 197.806,158.200 197.660 C 159.268 197.473,159.630 196.846,159.504 195.400 C 159.389 194.070,157.796 193.424,157.370 194.534 M163.067 195.900 C 162.402 197.004,163.456 199.400,164.607 199.400 C 165.746 199.400,165.805 199.315,165.922 197.500 L 166.044 195.600 164.646 195.600 C 163.876 195.600,163.166 195.735,163.067 195.900 M187.745 197.800 C 187.007 199.723,190.299 200.410,191.930 198.674 C 193.193 197.330,193.057 197.200,190.387 197.200 C 188.612 197.200,187.914 197.358,187.745 197.800 M229.200 197.600 C 229.200 197.820,229.751 198.000,230.424 198.000 C 231.137 198.000,231.544 197.833,231.400 197.600 C 231.264 197.380,230.713 197.200,230.176 197.200 C 229.639 197.200,229.200 197.380,229.200 197.600 M235.793 197.611 C 235.643 197.855,237.318 197.998,240.276 197.994 C 242.989 197.990,244.774 197.844,244.469 197.651 C 243.719 197.175,236.084 197.140,235.793 197.611 M157.345 201.000 C 156.998 201.903,157.482 202.800,158.315 202.800 C 159.105 202.800,160.894 201.027,160.501 200.634 C 159.999 200.132,157.570 200.413,157.345 201.000 M180.100 202.265 C 179.825 202.376,179.600 202.912,179.600 203.455 C 179.600 204.527,183.143 204.793,183.487 203.746 C 183.861 202.609,181.648 201.640,180.100 202.265 M227.745 204.200 C 227.076 205.943,227.496 206.021,236.890 205.908 L 245.800 205.800 245.927 204.700 L 246.053 203.600 237.014 203.600 C 229.348 203.600,227.940 203.691,227.745 204.200 M145.091 212.400 C 144.531 212.840,143.798 213.200,143.461 213.200 C 143.123 213.200,142.736 213.380,142.600 213.600 C 142.464 213.820,142.687 214.000,143.096 214.000 C 144.163 214.000,144.791 214.776,144.860 216.180 C 144.916 217.329,144.929 217.339,145.082 216.342 C 145.172 215.759,145.595 214.967,146.023 214.580 C 146.450 214.193,146.800 213.656,146.800 213.387 C 146.800 213.118,147.205 212.615,147.700 212.270 L 148.600 211.642 147.354 211.621 C 146.669 211.609,145.650 211.960,145.091 212.400 M138.200 215.200 C 137.880 215.718,140.398 215.718,141.200 215.200 C 141.640 214.916,141.353 214.811,140.124 214.806 C 139.202 214.803,138.336 214.980,138.200 215.200 M134.056 217.213 C 133.536 217.646,132.726 218.003,132.256 218.006 C 131.785 218.009,131.130 218.187,130.800 218.400 C 130.326 218.706,130.415 218.789,131.220 218.794 C 132.517 218.802,133.198 219.483,133.206 220.780 C 133.209 221.341,133.387 222.070,133.600 222.400 C 133.882 222.836,133.989 222.501,133.994 221.176 C 133.997 220.174,134.237 219.029,134.527 218.632 C 135.343 217.516,136.473 218.828,136.351 220.750 C 136.186 223.373,136.365 224.672,136.800 224.000 C 137.013 223.670,137.191 221.825,137.194 219.900 L 137.200 216.400 136.100 216.413 C 135.495 216.421,134.575 216.781,134.056 217.213 M127.000 220.000 C 126.860 220.226,127.188 220.400,127.753 220.400 C 128.303 220.400,128.864 220.220,129.000 220.000 C 129.140 219.774,128.812 219.600,128.247 219.600 C 127.697 219.600,127.136 219.780,127.000 220.000 M146.028 225.700 C 146.010 229.652,146.149 232.000,146.400 232.000 C 146.895 232.000,146.895 221.352,146.400 220.200 C 146.188 219.706,146.045 221.808,146.028 225.700 M133.613 224.500 C 133.606 225.105,133.769 225.600,133.976 225.600 C 134.673 225.600,134.778 224.923,134.200 224.159 C 133.656 223.440,133.625 223.458,133.613 224.500 M192.150 224.493 C 192.659 225.299,191.880 227.200,191.040 227.200 C 190.252 227.200,189.791 224.933,190.425 224.170 C 191.001 223.476,191.576 223.584,192.150 224.493 M190.426 228.669 C 190.984 230.135,189.960 231.331,188.984 230.355 C 188.310 229.682,188.776 227.600,189.600 227.600 C 189.831 227.600,190.203 228.081,190.426 228.669 " stroke="none" fill="#fbfbfb" fill-rule="evenodd"></path><path id="path1" d="M267.600 175.200 C 267.600 175.420,268.140 175.600,268.800 175.600 C 269.460 175.600,270.000 175.420,270.000 175.200 C 270.000 174.980,269.460 174.800,268.800 174.800 C 268.140 174.800,267.600 174.980,267.600 175.200 M186.291 180.400 C 184.941 181.462,173.654 181.629,172.800 180.600 C 172.023 179.664,171.600 179.888,171.600 181.237 C 171.600 182.138,171.383 182.532,170.800 182.684 C 170.194 182.843,170.000 183.230,170.000 184.284 C 170.000 185.338,169.806 185.725,169.200 185.884 C 167.979 186.203,168.247 186.800,169.613 186.800 C 173.052 186.800,170.349 190.300,166.555 190.760 C 165.260 190.917,163.786 191.271,163.279 191.548 C 162.523 191.961,162.020 191.938,160.465 191.421 C 158.826 190.877,155.888 190.806,138.665 190.896 L 118.759 191.000 118.767 205.800 L 118.774 220.600 120.622 220.532 C 122.836 220.451,123.069 220.273,122.494 219.099 C 121.785 217.653,121.488 213.758,122.011 212.779 C 122.346 212.154,122.353 211.793,122.037 211.477 C 121.413 210.853,121.497 208.983,122.174 208.421 C 122.490 208.159,122.866 207.408,123.010 206.752 C 123.198 205.900,123.861 205.171,125.336 204.198 L 127.400 202.835 138.800 202.862 C 151.378 202.893,151.585 202.930,152.381 205.344 C 152.835 206.717,154.012 207.428,154.697 206.743 C 155.573 205.867,159.095 205.870,160.516 206.748 C 161.274 207.217,162.413 207.602,163.047 207.604 C 164.649 207.610,166.800 209.854,166.800 211.519 C 166.800 212.198,166.980 212.864,167.200 213.000 C 167.420 213.136,167.600 212.979,167.600 212.652 C 167.600 210.740,170.100 210.419,171.900 212.099 C 172.938 213.068,173.033 213.890,172.237 215.025 C 171.928 215.467,171.548 216.722,171.394 217.814 C 171.240 218.906,170.863 220.199,170.557 220.686 C 170.250 221.173,170.000 221.944,170.000 222.399 C 170.000 223.693,167.452 226.000,166.023 226.000 C 164.552 226.000,163.755 227.076,163.355 229.600 C 162.844 232.826,160.456 234.700,158.316 233.555 C 157.696 233.223,157.420 233.243,157.176 233.640 C 156.631 234.521,157.158 234.800,159.370 234.800 C 160.886 234.800,161.782 235.028,162.509 235.600 C 163.243 236.177,164.132 236.400,165.701 236.400 C 167.368 236.400,168.045 236.587,168.600 237.200 C 169.165 237.824,169.832 238.000,171.639 238.000 C 173.520 238.000,174.062 238.154,174.529 238.820 C 175.413 240.081,183.616 240.101,184.953 238.844 C 185.447 238.380,186.065 238.000,186.326 238.000 C 186.587 238.000,186.800 237.460,186.800 236.800 C 186.800 235.291,186.728 235.299,185.027 237.000 C 183.524 238.502,182.290 238.745,181.024 237.787 C 180.574 237.447,179.379 237.200,178.186 237.200 C 176.632 237.200,175.946 237.003,175.400 236.400 C 174.834 235.775,174.168 235.600,172.354 235.600 C 169.279 235.600,166.380 232.707,168.600 231.855 C 168.950 231.721,169.200 231.122,169.200 230.416 C 169.200 229.640,169.487 229.028,170.000 228.707 C 170.440 228.432,170.800 228.054,170.800 227.867 C 170.800 227.679,171.160 227.069,171.600 226.509 C 172.040 225.950,172.400 224.951,172.400 224.289 C 172.400 222.687,174.569 220.410,176.100 220.404 C 177.413 220.399,177.445 220.238,176.400 218.909 C 173.947 215.790,176.855 210.215,179.537 212.897 C 179.862 213.222,180.131 213.253,180.317 212.987 C 182.249 210.219,192.441 210.687,194.009 213.616 C 194.588 214.698,195.779 214.597,196.563 213.400 C 196.924 212.850,197.444 212.400,197.720 212.400 C 197.996 212.400,198.512 212.062,198.865 211.649 C 199.732 210.637,255.135 210.392,256.139 211.397 C 256.896 212.153,257.200 211.760,257.200 210.030 C 257.200 209.026,256.959 208.442,256.400 208.093 C 255.344 207.434,255.339 205.416,256.390 204.516 C 257.062 203.940,257.099 203.748,256.639 203.220 C 256.341 202.879,255.979 201.770,255.833 200.755 L 255.568 198.911 253.125 198.655 C 249.330 198.259,247.661 198.348,246.367 199.017 C 244.949 199.750,230.025 199.613,227.603 198.844 C 226.770 198.579,222.925 198.400,218.090 198.400 C 211.091 198.400,209.942 198.314,209.734 197.773 C 209.167 196.296,209.872 196.249,230.694 196.374 C 241.862 196.441,251.450 196.471,252.000 196.441 C 252.550 196.412,253.495 196.364,254.100 196.336 C 255.296 196.281,255.557 195.822,254.600 195.455 C 254.270 195.329,254.000 194.968,254.000 194.653 C 254.000 194.176,252.349 194.056,244.100 193.931 C 236.291 193.813,233.989 193.657,233.200 193.191 C 232.402 192.720,229.813 192.559,220.400 192.396 C 210.198 192.220,208.427 192.098,207.320 191.496 C 204.913 190.187,200.042 190.583,200.813 192.025 C 201.091 192.544,201.024 192.919,200.571 193.372 C 199.354 194.589,198.000 193.824,198.000 191.920 L 198.000 190.800 194.231 190.800 C 190.794 190.800,190.357 190.712,189.273 189.800 C 188.619 189.250,187.728 188.800,187.291 188.800 C 186.342 188.800,185.802 188.185,185.448 186.700 C 185.073 185.130,174.374 184.776,172.714 186.278 C 171.732 187.167,171.103 186.504,171.271 184.758 C 171.441 182.989,173.127 182.248,174.386 183.387 C 175.102 184.035,175.698 184.095,179.498 183.899 C 186.113 183.559,188.066 183.896,188.772 185.500 C 189.635 187.460,190.000 187.079,190.000 184.218 C 190.000 180.462,188.359 178.773,186.291 180.400 M108.000 189.720 C 108.000 190.006,108.225 190.465,108.500 190.740 C 109.390 191.630,109.203 218.091,108.300 219.089 C 107.844 219.594,107.600 220.513,107.600 221.731 C 107.600 223.902,109.335 224.417,111.200 222.800 C 111.727 222.343,112.697 222.000,113.461 222.000 L 114.800 222.000 114.800 205.600 L 114.800 189.200 111.400 189.200 C 108.877 189.200,108.000 189.334,108.000 189.720 M185.135 189.951 C 185.429 190.138,185.609 190.720,185.535 191.245 C 185.344 192.596,182.609 192.890,182.201 191.603 C 181.711 190.060,183.615 188.988,185.135 189.951 M160.094 193.750 C 160.256 193.998,160.391 194.864,160.394 195.676 C 160.397 196.488,160.580 197.264,160.800 197.400 C 161.020 197.536,161.200 197.285,161.200 196.842 C 161.200 192.406,166.858 192.756,167.122 197.209 C 167.283 199.927,166.789 200.480,164.312 200.349 C 162.477 200.251,162.318 200.324,161.532 201.623 C 159.814 204.464,156.400 204.428,156.400 201.569 C 156.400 200.188,157.035 199.690,159.002 199.530 C 160.223 199.430,160.626 199.214,160.735 198.600 C 160.850 197.953,160.778 197.896,160.359 198.300 C 158.620 199.976,156.400 198.574,156.400 195.800 C 156.400 193.026,158.763 191.714,160.094 193.750 M174.473 194.200 C 174.995 195.345,174.392 197.200,173.498 197.200 C 172.595 197.200,171.200 195.985,171.200 195.200 C 171.200 193.453,173.774 192.666,174.473 194.200 M193.500 196.904 C 195.133 198.190,192.836 200.400,189.867 200.400 C 187.341 200.400,186.687 199.860,186.873 197.926 C 187.041 196.170,191.663 195.458,193.500 196.904 M149.371 199.429 C 150.201 200.258,150.169 201.101,149.300 201.331 C 147.979 201.680,142.431 201.573,142.197 201.195 C 141.554 200.155,142.823 199.239,145.103 199.095 C 146.367 199.016,147.702 198.917,148.071 198.876 C 148.441 198.834,149.026 199.083,149.371 199.429 M258.866 199.730 C 257.910 200.747,258.071 201.200,259.387 201.200 C 260.554 201.200,261.200 201.943,261.200 203.286 L 261.200 204.413 272.300 204.306 C 281.941 204.214,283.378 204.121,283.232 203.600 C 283.139 203.270,283.049 202.514,283.032 201.920 C 282.980 200.141,282.350 199.908,276.120 199.357 C 266.066 198.468,259.927 198.600,258.866 199.730 M285.050 200.300 C 284.686 201.546,284.628 203.798,284.946 204.312 C 285.555 205.298,286.000 204.313,286.000 201.976 C 286.000 199.712,285.486 198.805,285.050 200.300 M183.920 201.680 C 184.553 202.313,184.538 204.775,183.900 205.005 C 182.285 205.588,167.005 204.578,166.872 203.881 C 166.553 202.219,167.396 201.980,172.977 202.145 C 177.017 202.265,178.422 202.173,179.000 201.751 C 179.927 201.073,183.265 201.025,183.920 201.680 M245.726 202.460 C 246.865 203.059,247.186 203.576,247.194 204.820 C 247.205 206.734,246.865 206.800,237.000 206.800 C 227.135 206.800,226.795 206.734,226.806 204.820 C 226.819 202.728,226.965 202.687,235.464 202.400 C 239.829 202.253,243.727 202.103,244.126 202.066 C 244.526 202.030,245.246 202.207,245.726 202.460 M126.179 207.222 C 125.262 208.179,124.548 219.600,125.405 219.600 C 125.647 219.600,126.390 219.252,128.679 218.069 C 129.603 217.591,130.744 217.200,131.216 217.200 C 131.688 217.200,132.531 216.840,133.091 216.400 C 133.650 215.960,134.460 215.600,134.891 215.600 C 135.321 215.600,136.131 215.240,136.691 214.800 C 137.250 214.360,138.106 214.000,138.593 214.000 C 139.079 214.000,139.893 213.640,140.400 213.200 C 140.907 212.760,141.795 212.400,142.372 212.400 C 142.950 212.400,143.730 212.040,144.107 211.600 C 144.484 211.160,145.210 210.800,145.720 210.800 C 146.230 210.800,146.996 210.536,147.424 210.213 C 147.851 209.890,148.479 209.620,148.820 209.613 C 149.869 209.591,150.304 208.823,150.028 207.476 L 149.767 206.200 138.463 206.200 L 127.158 206.200 126.179 207.222 M226.188 208.390 C 227.718 209.660,226.031 209.849,212.325 209.944 C 204.996 209.995,198.370 210.185,197.600 210.367 C 193.692 211.291,188.241 209.451,190.700 208.037 C 191.891 207.353,225.338 207.685,226.188 208.390 M148.412 212.742 C 147.427 213.797,147.425 213.816,147.612 220.400 C 147.716 224.030,147.787 228.395,147.770 230.100 L 147.740 233.200 149.670 233.200 L 151.600 233.200 151.600 228.015 C 151.600 223.773,151.454 222.460,150.800 220.800 C 150.210 219.304,150.000 217.827,150.000 215.185 C 150.000 211.305,149.899 211.150,148.412 212.742 M202.078 213.124 C 201.038 213.199,200.269 213.477,200.135 213.826 C 200.013 214.144,199.212 214.517,198.356 214.653 C 196.174 215.002,196.415 215.600,198.738 215.600 C 200.165 215.600,200.866 215.390,201.397 214.803 C 202.442 213.649,250.135 213.564,252.087 214.713 C 253.193 215.364,253.274 215.363,253.647 214.700 C 253.863 214.315,254.391 214.000,254.820 214.000 C 255.249 214.000,255.600 213.865,255.600 213.700 C 255.600 213.535,249.435 213.357,241.900 213.304 C 234.365 213.252,222.710 213.162,216.000 213.104 C 209.290 213.047,203.025 213.056,202.078 213.124 M166.300 214.512 C 165.496 214.836,165.200 215.234,165.200 215.994 C 165.200 216.682,164.693 217.501,163.700 218.418 C 162.875 219.180,161.966 220.253,161.680 220.802 C 160.303 223.447,159.889 224.068,159.366 224.268 C 158.988 224.413,158.800 225.116,158.800 226.381 C 158.800 227.768,158.586 228.470,158.000 229.000 C 157.242 229.686,156.909 231.576,157.451 232.117 C 157.993 232.660,160.000 231.180,160.000 230.239 C 160.000 229.721,160.270 229.074,160.600 228.800 C 160.930 228.526,161.200 227.819,161.200 227.229 C 161.200 226.098,163.383 223.600,164.372 223.600 C 165.947 223.600,167.557 221.957,167.821 220.081 C 167.966 219.046,168.348 217.991,168.669 217.737 C 170.617 216.190,168.682 213.555,166.300 214.512 M142.493 215.600 C 142.174 216.110,141.560 216.400,140.797 216.400 C 138.136 216.400,136.917 221.433,138.601 225.464 C 138.931 226.254,139.265 228.384,139.343 230.195 C 139.512 234.145,139.726 234.637,140.915 233.804 C 141.390 233.472,142.548 233.200,143.489 233.200 L 145.200 233.200 145.200 227.987 C 145.200 224.171,145.033 222.376,144.577 221.287 C 144.234 220.469,143.848 218.675,143.719 217.300 C 143.467 214.617,143.274 214.349,142.493 215.600 M194.267 216.267 C 193.860 216.674,193.949 218.800,194.373 218.800 C 194.578 218.800,194.855 218.457,194.988 218.037 C 195.121 217.617,195.505 217.169,195.841 217.040 C 196.176 216.911,196.339 216.624,196.202 216.403 C 195.921 215.949,194.673 215.861,194.267 216.267 M192.400 221.000 C 192.400 221.550,192.580 222.000,192.800 222.000 C 193.020 222.000,193.200 221.550,193.200 221.000 C 193.200 220.450,193.020 220.000,192.800 220.000 C 192.580 220.000,192.400 220.450,192.400 221.000 M129.057 221.211 C 126.057 222.110,125.844 223.946,128.460 226.352 L 130.000 227.767 130.000 231.308 L 130.000 234.848 131.500 234.724 C 132.609 234.632,132.955 234.444,132.828 234.000 C 132.734 233.670,132.599 230.790,132.528 227.600 C 132.363 220.166,132.389 220.213,129.057 221.211 " stroke="none" fill="#0f0f0f" fill-rule="evenodd"></path><path id="path2" d="M266.100 174.256 C 265.231 174.622,265.531 175.967,266.538 176.220 C 268.677 176.757,270.600 176.274,270.600 175.200 C 270.600 174.200,267.684 173.588,266.100 174.256 M270.200 175.200 C 270.200 175.906,267.326 176.286,266.702 175.662 C 265.968 174.928,266.855 174.356,268.537 174.479 C 269.695 174.563,270.200 174.782,270.200 175.200 M171.067 179.067 C 170.920 179.213,170.800 179.837,170.800 180.453 C 170.800 181.162,170.507 181.728,170.000 182.000 C 169.479 182.279,169.200 182.838,169.200 183.600 C 169.200 184.362,168.921 184.921,168.400 185.200 C 167.577 185.640,167.323 187.146,167.958 187.820 C 168.164 188.038,168.169 188.584,167.971 189.100 L 167.626 190.000 142.846 190.000 C 129.217 190.000,117.781 190.109,117.433 190.243 C 116.740 190.509,116.565 192.208,117.191 192.594 C 117.705 192.912,117.690 218.697,117.175 219.015 C 116.488 219.440,116.788 220.427,117.900 221.407 C 119.144 222.502,120.634 222.674,121.569 221.830 C 122.904 220.625,124.586 220.860,124.723 222.270 C 124.791 222.969,125.106 223.756,125.423 224.019 C 125.740 224.283,126.000 224.684,126.000 224.910 C 126.000 225.137,126.712 225.981,127.583 226.785 L 129.167 228.246 129.283 231.823 L 129.400 235.400 132.725 235.517 C 135.027 235.597,136.408 235.455,137.209 235.056 C 138.201 234.560,138.433 234.558,138.832 235.039 C 139.473 235.811,140.384 235.738,141.800 234.800 C 142.460 234.363,143.549 234.004,144.220 234.003 C 144.891 234.001,145.648 233.792,145.903 233.537 C 146.254 233.186,146.508 233.191,146.949 233.558 C 147.302 233.851,148.455 233.994,149.866 233.921 L 152.200 233.800 152.310 227.116 C 152.409 221.048,152.345 220.294,151.610 218.922 C 149.553 215.084,150.802 208.400,153.577 208.400 C 154.264 208.400,155.472 208.130,156.262 207.800 C 157.051 207.470,158.014 207.200,158.400 207.200 C 158.786 207.200,159.326 207.470,159.600 207.800 C 159.906 208.169,160.784 208.400,161.880 208.400 C 165.114 208.400,167.655 212.686,165.200 214.000 C 164.760 214.235,164.400 214.836,164.400 215.333 C 164.400 215.846,163.705 216.962,162.800 217.904 C 161.920 218.820,161.200 219.713,161.200 219.888 C 161.200 220.064,160.840 220.432,160.400 220.707 C 159.953 220.987,159.600 221.640,159.600 222.189 C 159.600 222.762,159.267 223.350,158.800 223.600 C 158.183 223.930,158.000 224.438,158.000 225.818 C 158.000 227.113,157.779 227.797,157.200 228.293 C 156.705 228.716,156.400 229.473,156.400 230.275 C 156.400 230.989,156.089 232.226,155.708 233.024 C 154.794 234.941,155.581 235.600,158.780 235.600 C 160.574 235.600,161.105 235.756,161.507 236.400 C 161.921 237.063,162.440 237.200,164.541 237.200 C 166.568 237.200,167.221 237.360,167.800 238.000 C 168.348 238.605,169.032 238.800,170.608 238.800 C 172.086 238.800,172.988 239.032,173.709 239.600 C 174.403 240.146,175.332 240.400,176.632 240.400 C 177.852 240.400,178.803 240.641,179.277 241.070 C 179.970 241.696,180.108 241.696,181.422 241.070 C 182.195 240.701,183.281 240.400,183.835 240.400 C 185.382 240.400,187.600 238.435,187.600 237.064 C 187.600 236.372,187.948 235.646,188.492 235.206 C 189.253 234.590,189.325 234.316,188.982 233.342 C 188.446 231.818,187.490 231.895,187.017 233.500 C 186.807 234.215,186.424 234.800,186.166 234.800 C 185.908 234.800,185.428 235.205,185.099 235.700 C 184.273 236.943,177.531 236.848,176.174 235.575 C 175.540 234.980,174.771 234.800,172.864 234.800 C 169.108 234.800,168.502 231.528,171.652 228.250 C 172.906 226.945,173.200 226.344,173.200 225.089 C 173.200 223.219,174.834 221.338,176.637 221.133 C 178.172 220.958,178.479 219.162,177.205 217.806 C 175.974 216.495,176.179 213.460,177.512 213.271 C 178.088 213.189,178.715 213.484,179.212 214.071 L 180.000 215.000 180.827 214.022 C 181.775 212.901,186.604 212.443,190.800 213.076 L 193.000 213.408 193.118 215.880 C 193.222 218.049,193.134 218.407,192.397 218.802 C 191.066 219.514,191.393 222.600,192.800 222.600 C 193.610 222.600,193.825 222.376,193.934 221.421 C 194.168 219.371,197.679 216.400,199.868 216.400 C 200.843 216.400,202.209 216.106,202.905 215.746 C 204.810 214.761,219.679 214.485,223.254 215.369 C 227.377 216.387,253.777 216.509,254.678 215.513 C 255.033 215.121,255.553 214.800,255.833 214.800 C 257.793 214.800,258.979 208.552,257.200 207.600 C 256.760 207.365,256.400 206.825,256.400 206.400 C 256.400 205.975,256.760 205.435,257.200 205.200 C 257.768 204.896,258.000 204.362,258.000 203.359 C 258.000 202.054,258.084 201.957,259.100 202.073 C 260.580 202.244,260.815 203.732,259.529 204.786 C 258.632 205.522,258.625 205.573,259.326 206.274 C 260.027 206.975,260.077 206.968,260.811 206.074 L 261.571 205.147 273.028 205.251 C 282.012 205.333,284.528 205.468,284.685 205.878 C 284.965 206.608,286.264 206.531,286.557 205.767 C 287.789 202.556,286.322 196.821,284.762 198.748 L 284.015 199.670 282.954 198.835 C 281.745 197.885,260.105 197.524,257.761 198.415 C 257.007 198.701,256.541 198.701,256.255 198.415 C 256.027 198.187,255.347 198.000,254.744 198.000 C 253.044 198.000,252.997 197.265,254.688 197.125 C 256.646 196.962,256.851 195.989,255.260 194.399 L 254.062 193.200 246.418 193.200 C 240.074 193.200,238.521 193.084,237.287 192.520 C 236.036 191.948,233.863 191.800,223.600 191.589 C 213.467 191.381,211.104 191.223,209.655 190.656 C 208.328 190.136,206.940 190.000,203.855 190.087 L 199.800 190.200 199.675 191.500 C 199.606 192.215,199.392 192.800,199.200 192.800 C 199.008 192.800,198.794 192.215,198.725 191.500 L 198.600 190.200 194.800 190.000 C 190.444 189.771,187.386 188.168,190.000 187.484 C 191.443 187.107,191.167 181.506,189.631 179.969 C 188.237 178.575,186.467 178.421,185.400 179.600 C 184.319 180.794,175.603 180.794,173.800 179.600 C 172.576 178.790,171.545 178.588,171.067 179.067 M172.909 179.900 C 174.197 181.067,184.739 181.172,185.775 180.028 C 187.864 177.719,190.497 180.158,190.320 184.238 C 190.195 187.111,189.064 188.495,188.525 186.435 C 188.231 185.312,186.400 185.258,186.400 186.373 C 186.400 186.807,186.769 187.263,187.241 187.413 C 187.704 187.560,188.589 188.247,189.207 188.940 C 190.293 190.157,190.465 190.207,194.266 190.400 C 198.176 190.599,198.201 190.606,198.324 191.671 C 198.596 194.027,199.796 193.979,200.080 191.600 C 200.240 190.268,205.342 189.928,208.358 191.049 C 209.863 191.607,212.361 191.785,222.000 192.020 C 230.625 192.230,234.500 192.479,236.400 192.945 C 238.292 193.410,240.997 193.586,246.331 193.592 L 253.662 193.600 254.857 194.796 C 256.198 196.137,256.073 196.797,254.476 196.806 C 251.956 196.820,251.792 197.962,254.252 198.362 C 255.676 198.594,256.059 198.957,256.611 200.600 L 256.880 201.400 257.193 200.600 C 258.101 198.278,258.195 198.263,270.437 198.495 C 281.299 198.702,281.722 198.740,282.898 199.609 L 284.115 200.509 284.802 199.597 C 285.873 198.178,286.401 198.950,286.394 201.924 C 286.386 205.259,286.039 205.953,284.809 205.091 C 284.242 204.694,283.552 204.570,282.865 204.741 C 282.279 204.887,277.075 204.947,271.300 204.873 L 260.800 204.740 260.800 203.650 C 260.800 202.196,260.124 201.600,258.475 201.600 C 257.151 201.600,257.118 201.638,257.357 202.910 C 257.547 203.925,257.422 204.375,256.801 204.906 C 255.781 205.780,255.780 206.877,256.800 207.800 C 258.331 209.185,257.265 214.400,255.451 214.400 C 255.231 214.400,254.669 214.760,254.200 215.200 C 253.416 215.936,253.103 215.968,250.232 215.604 C 248.517 215.387,242.859 215.225,237.657 215.244 C 232.432 215.264,226.320 215.059,224.000 214.786 C 218.121 214.095,203.172 214.494,201.913 215.376 C 201.423 215.719,200.284 216.000,199.381 216.000 C 197.998 216.000,197.494 216.250,196.170 217.593 C 195.307 218.470,194.386 219.190,194.124 219.193 C 193.862 219.197,193.592 219.875,193.524 220.700 C 193.362 222.659,192.256 222.789,192.072 220.870 C 191.972 219.820,192.111 219.496,192.736 219.333 C 193.688 219.084,194.146 215.611,193.435 214.039 C 192.443 211.846,184.171 211.146,181.409 213.020 C 180.042 213.947,179.845 213.984,179.222 213.420 C 176.721 211.156,174.826 215.006,176.839 218.263 C 177.807 219.829,177.613 220.800,176.332 220.800 C 174.881 220.800,172.800 223.111,172.800 224.723 C 172.800 225.731,172.381 226.589,171.200 228.000 C 170.247 229.138,169.600 230.325,169.600 230.936 C 169.600 231.499,169.285 232.137,168.900 232.353 C 167.401 233.193,170.159 235.200,172.813 235.200 C 174.568 235.200,175.239 235.380,175.800 236.000 C 176.341 236.598,177.032 236.800,178.534 236.800 C 179.639 236.800,181.136 237.014,181.860 237.276 C 183.082 237.718,183.291 237.660,184.765 236.476 C 186.764 234.870,187.200 234.874,187.200 236.500 C 187.200 239.756,177.254 241.983,174.370 239.373 C 173.887 238.936,172.708 238.593,171.294 238.478 C 169.905 238.364,168.623 237.996,168.046 237.545 C 167.393 237.035,166.433 236.800,165.000 236.800 C 163.514 236.800,162.613 236.568,161.891 236.000 C 161.184 235.444,160.268 235.200,158.886 235.200 C 156.747 235.200,155.791 234.575,156.417 233.587 C 156.621 233.264,156.791 232.173,156.794 231.162 C 156.798 229.837,157.023 229.122,157.600 228.600 C 158.159 228.094,158.400 227.368,158.400 226.187 C 158.400 225.146,158.639 224.300,159.023 223.981 C 159.366 223.696,159.878 222.909,160.161 222.232 C 160.444 221.554,161.604 219.985,162.738 218.744 C 163.872 217.503,164.800 216.129,164.800 215.690 C 164.800 215.251,165.216 214.619,165.724 214.286 C 167.962 212.820,165.411 208.000,162.398 208.000 C 161.603 208.000,160.604 207.736,160.176 207.413 C 159.198 206.673,156.695 206.634,155.280 207.336 C 153.781 208.081,152.235 207.623,152.065 206.384 C 151.688 203.638,151.505 203.600,138.530 203.600 C 128.370 203.600,126.800 203.680,126.800 204.200 C 126.800 204.550,127.175 204.807,127.700 204.818 C 128.195 204.827,133.302 204.827,139.050 204.816 C 147.589 204.800,149.585 204.900,149.969 205.363 C 150.642 206.174,150.954 208.559,150.502 209.445 C 149.919 210.587,150.569 218.733,151.365 220.263 C 151.905 221.302,152.002 222.582,151.911 227.463 L 151.800 233.400 149.844 233.524 C 147.162 233.695,147.278 234.110,147.043 223.511 L 146.833 214.022 147.872 212.787 C 149.539 210.806,146.521 210.330,144.374 212.235 C 144.029 212.541,143.178 212.904,142.483 213.043 C 141.787 213.183,141.012 213.545,140.760 213.848 C 140.508 214.152,139.806 214.400,139.200 214.400 C 138.594 214.400,137.871 214.674,137.593 215.008 C 137.315 215.343,136.309 215.813,135.356 216.053 C 134.404 216.293,133.417 216.739,133.163 217.044 C 132.910 217.350,132.406 217.600,132.045 217.600 C 131.684 217.600,130.716 217.960,129.896 218.400 C 129.075 218.840,128.038 219.200,127.592 219.200 C 127.091 219.200,126.632 219.589,126.394 220.216 C 126.065 221.081,125.888 221.168,125.204 220.802 C 124.450 220.399,124.400 219.972,124.400 214.002 L 124.400 207.632 125.488 206.624 C 126.296 205.874,126.459 205.499,126.123 205.163 C 124.006 203.046,121.947 214.098,123.572 218.866 C 123.992 220.100,123.871 220.274,122.051 221.035 C 117.922 222.764,117.959 222.904,117.960 205.535 L 117.960 190.600 140.680 190.526 C 153.176 190.485,164.339 190.440,165.486 190.426 C 167.248 190.404,167.764 190.213,168.803 189.197 L 170.034 187.993 169.017 187.607 C 167.794 187.141,167.719 186.379,168.800 185.400 C 169.240 185.002,169.600 184.282,169.600 183.800 C 169.600 183.318,169.960 182.598,170.400 182.200 C 170.840 181.802,171.200 181.084,171.200 180.605 C 171.200 179.087,171.759 178.857,172.909 179.900 M172.000 184.800 C 172.000 185.020,172.259 185.200,172.576 185.200 C 172.893 185.200,173.264 185.020,173.400 184.800 C 173.536 184.580,173.277 184.400,172.824 184.400 C 172.371 184.400,172.000 184.580,172.000 184.800 M106.948 188.991 C 106.632 189.816,107.114 192.896,107.827 194.602 C 108.755 196.823,108.653 214.663,107.704 216.011 C 107.169 216.772,107.008 217.831,107.004 220.600 L 107.000 224.200 109.150 224.323 C 110.851 224.420,111.478 224.280,112.150 223.655 C 112.618 223.220,113.540 222.805,114.200 222.732 L 115.400 222.600 115.400 205.600 L 115.400 188.600 111.293 188.486 C 107.884 188.391,107.145 188.477,106.948 188.991 M115.000 205.600 L 115.000 222.200 113.800 222.332 C 113.140 222.405,112.216 222.821,111.747 223.257 C 111.108 223.852,110.457 224.019,109.147 223.925 L 107.400 223.800 107.279 221.915 C 107.209 220.828,107.505 218.862,107.979 217.272 C 109.183 213.229,109.200 197.290,108.005 192.618 C 107.001 188.695,106.953 188.749,111.333 188.885 L 115.000 189.000 115.000 205.600 M182.664 190.696 C 182.548 190.884,182.602 191.279,182.783 191.573 C 183.197 192.242,185.330 191.793,185.098 191.085 C 184.909 190.512,182.970 190.202,182.664 190.696 M157.067 193.867 C 156.573 194.360,156.792 197.495,157.351 197.960 C 158.991 199.320,160.696 196.679,159.757 194.233 C 159.516 193.604,157.591 193.342,157.067 193.867 M159.504 195.400 C 159.630 196.846,159.268 197.473,158.200 197.660 C 157.363 197.806,156.853 195.882,157.370 194.534 C 157.796 193.424,159.389 194.070,159.504 195.400 M172.954 194.575 C 172.639 195.396,173.083 196.519,173.597 196.202 C 173.819 196.065,174.000 195.614,174.000 195.200 C 174.000 194.215,173.262 193.773,172.954 194.575 M162.411 195.386 C 160.920 197.184,163.069 200.421,165.371 199.843 C 166.736 199.500,166.935 195.914,165.626 195.214 C 164.518 194.621,162.978 194.703,162.411 195.386 M165.922 197.500 C 165.748 200.209,163.585 200.443,163.150 197.800 C 162.817 195.778,162.938 195.600,164.646 195.600 L 166.044 195.600 165.922 197.500 M187.467 197.067 C 187.032 197.501,187.163 199.003,187.680 199.520 C 189.087 200.927,194.390 198.833,193.162 197.355 C 192.686 196.780,187.990 196.543,187.467 197.067 M227.577 197.231 L 226.600 197.488 227.800 198.002 C 228.460 198.285,229.630 198.508,230.400 198.498 C 231.170 198.488,232.880 198.486,234.200 198.494 C 244.386 198.557,245.478 198.516,246.600 198.018 L 247.800 197.486 246.400 197.158 C 244.797 196.782,229.053 196.844,227.577 197.231 M192.800 197.474 C 192.800 197.625,192.409 198.165,191.930 198.674 C 190.299 200.410,187.007 199.723,187.745 197.800 C 187.980 197.186,192.800 196.875,192.800 197.474 M231.400 197.600 C 231.544 197.833,231.137 198.000,230.424 198.000 C 229.751 198.000,229.200 197.820,229.200 197.600 C 229.200 197.380,229.639 197.200,230.176 197.200 C 230.713 197.200,231.264 197.380,231.400 197.600 M244.469 197.651 C 244.774 197.844,242.989 197.990,240.276 197.994 C 237.318 197.998,235.643 197.855,235.793 197.611 C 236.084 197.140,243.719 197.175,244.469 197.651 M157.280 200.480 C 156.223 201.537,157.037 203.200,158.610 203.200 C 159.606 203.200,161.200 201.646,161.200 200.674 C 161.200 199.857,158.059 199.701,157.280 200.480 M160.501 200.634 C 160.894 201.027,159.105 202.800,158.315 202.800 C 157.482 202.800,156.998 201.903,157.345 201.000 C 157.570 200.413,159.999 200.132,160.501 200.634 M179.760 201.884 C 177.598 203.437,178.728 204.926,181.914 204.721 C 183.868 204.596,184.507 203.773,183.660 202.470 C 183.257 201.850,180.403 201.421,179.760 201.884 M182.989 202.646 C 183.994 203.651,183.506 204.189,181.469 204.322 C 179.715 204.436,179.600 204.383,179.600 203.455 C 179.600 201.962,181.784 201.441,182.989 202.646 M235.506 203.099 L 227.611 203.217 227.361 204.214 C 226.831 206.326,227.292 206.424,237.155 206.307 L 246.200 206.200 246.334 205.020 C 246.486 203.683,245.555 202.744,244.224 202.891 C 243.771 202.941,239.847 203.035,235.506 203.099 M171.600 204.000 C 172.385 204.507,173.886 204.507,174.200 204.000 C 174.350 203.757,173.772 203.602,172.724 203.606 C 171.463 203.611,171.161 203.716,171.600 204.000 M245.927 204.700 L 245.800 205.800 236.890 205.908 C 229.223 206.000,227.948 205.931,227.748 205.408 C 227.085 203.682,227.504 203.600,237.014 203.600 L 246.053 203.600 245.927 204.700 M260.442 205.718 C 259.928 206.232,259.407 205.835,259.788 205.220 C 259.935 204.982,260.239 204.900,260.462 205.039 C 260.736 205.207,260.729 205.431,260.442 205.718 M191.600 208.757 C 191.600 208.954,191.825 209.197,192.100 209.298 C 192.968 209.617,199.596 209.117,199.369 208.750 C 199.084 208.288,191.600 208.295,191.600 208.757 M202.000 208.800 C 202.000 209.055,205.200 209.200,210.800 209.200 C 216.400 209.200,219.600 209.055,219.600 208.800 C 219.600 208.545,216.400 208.400,210.800 208.400 C 205.200 208.400,202.000 208.545,202.000 208.800 M224.000 208.800 C 224.000 209.020,224.270 209.200,224.600 209.200 C 224.930 209.200,225.200 209.020,225.200 208.800 C 225.200 208.580,224.930 208.400,224.600 208.400 C 224.270 208.400,224.000 208.580,224.000 208.800 M147.700 212.270 C 147.205 212.615,146.800 213.118,146.800 213.387 C 146.800 213.656,146.450 214.193,146.023 214.580 C 145.595 214.967,145.172 215.759,145.082 216.342 C 144.929 217.339,144.916 217.329,144.860 216.180 C 144.791 214.776,144.163 214.000,143.096 214.000 C 142.687 214.000,142.464 213.820,142.600 213.600 C 142.736 213.380,143.123 213.200,143.461 213.200 C 143.798 213.200,144.531 212.840,145.091 212.400 C 145.650 211.960,146.669 211.609,147.354 211.621 L 148.600 211.642 147.700 212.270 M168.400 211.837 C 168.400 211.967,168.760 212.531,169.200 213.091 C 169.800 213.853,170.002 214.720,170.006 216.554 C 170.010 218.281,170.126 218.824,170.400 218.400 C 170.613 218.070,170.791 217.184,170.794 216.431 C 170.797 215.679,171.083 214.750,171.429 214.368 C 172.005 213.732,171.982 213.585,171.157 212.636 C 170.375 211.737,168.400 211.164,168.400 211.837 M200.400 212.000 C 200.400 212.220,200.771 212.400,201.224 212.400 C 201.677 212.400,201.936 212.220,201.800 212.000 C 201.664 211.780,201.293 211.600,200.976 211.600 C 200.659 211.600,200.400 211.780,200.400 212.000 M205.200 212.000 C 205.200 212.220,205.459 212.400,205.776 212.400 C 206.093 212.400,206.464 212.220,206.600 212.000 C 206.736 211.780,206.477 211.600,206.024 211.600 C 205.571 211.600,205.200 211.780,205.200 212.000 M207.800 212.000 C 207.937 212.221,209.737 212.400,211.824 212.400 C 214.075 212.400,215.600 212.238,215.600 212.000 C 215.600 211.760,213.992 211.600,211.576 211.600 C 208.996 211.600,207.641 211.743,207.800 212.000 M226.600 212.000 C 226.365 212.381,228.550 212.445,243.800 212.503 C 252.613 212.536,255.600 212.409,255.600 212.000 C 255.600 211.741,250.541 211.600,241.224 211.600 C 232.071 211.600,226.757 211.745,226.600 212.000 M197.200 213.600 C 197.200 213.820,197.549 214.000,197.976 214.000 C 198.403 214.000,198.864 213.820,199.000 213.600 C 199.140 213.373,198.804 213.200,198.224 213.200 C 197.661 213.200,197.200 213.380,197.200 213.600 M143.920 214.880 C 144.184 215.144,144.403 215.999,144.406 216.780 C 144.409 217.561,144.670 218.942,144.986 219.850 C 145.585 221.566,145.933 232.338,145.417 233.173 C 145.272 233.408,144.661 233.600,144.061 233.600 C 143.460 233.600,142.263 233.960,141.400 234.400 C 139.496 235.371,139.727 235.381,139.139 234.300 C 138.851 233.771,138.691 232.234,138.749 230.569 C 138.826 228.402,138.703 227.617,138.224 227.220 C 137.723 226.804,137.600 225.772,137.600 221.980 C 137.600 216.648,137.770 216.267,140.329 215.858 C 141.200 215.718,142.017 215.333,142.144 215.002 C 142.422 214.278,143.260 214.220,143.920 214.880 M141.200 215.200 C 140.398 215.718,137.880 215.718,138.200 215.200 C 138.336 214.980,139.202 214.803,140.124 214.806 C 141.353 214.811,141.640 214.916,141.200 215.200 M137.194 219.900 C 137.191 221.825,137.013 223.670,136.800 224.000 C 136.365 224.672,136.186 223.373,136.351 220.750 C 136.473 218.828,135.343 217.516,134.527 218.632 C 134.237 219.029,133.997 220.174,133.994 221.176 C 133.989 222.501,133.882 222.836,133.600 222.400 C 133.387 222.070,133.209 221.341,133.206 220.780 C 133.198 219.483,132.517 218.802,131.220 218.794 C 130.415 218.789,130.326 218.706,130.800 218.400 C 131.130 218.187,131.785 218.009,132.256 218.006 C 132.726 218.003,133.536 217.646,134.056 217.213 C 134.575 216.781,135.495 216.421,136.100 216.413 L 137.200 216.400 137.194 219.900 M135.868 219.825 C 135.934 220.031,135.817 220.468,135.610 220.797 C 135.106 221.594,134.189 220.728,134.547 219.794 C 134.805 219.122,135.653 219.142,135.868 219.825 M168.662 219.900 C 168.008 222.284,167.979 223.600,168.582 223.600 C 169.064 223.600,169.200 223.118,169.200 221.400 C 169.200 219.166,169.009 218.634,168.662 219.900 M129.000 220.000 C 128.864 220.220,128.303 220.400,127.753 220.400 C 127.188 220.400,126.860 220.226,127.000 220.000 C 127.136 219.780,127.697 219.600,128.247 219.600 C 128.812 219.600,129.140 219.774,129.000 220.000 M132.593 220.300 C 132.747 220.685,132.965 223.700,133.078 227.000 C 133.191 230.300,133.437 233.163,133.625 233.363 C 134.117 233.886,135.195 232.869,135.227 231.851 L 135.254 231.000 135.679 231.879 C 135.912 232.362,136.432 232.812,136.834 232.879 C 139.151 233.263,136.241 234.795,133.000 234.898 L 129.800 235.000 129.683 231.623 C 129.565 228.251,129.562 228.243,127.832 226.392 C 124.761 223.109,125.033 221.934,129.200 220.476 C 132.052 219.478,132.262 219.467,132.593 220.300 M146.772 226.500 C 146.789 229.919,146.649 232.000,146.400 232.000 C 146.149 232.000,146.010 229.652,146.028 225.700 C 146.045 221.808,146.188 219.706,146.400 220.200 C 146.589 220.640,146.756 223.475,146.772 226.500 M134.564 225.259 C 134.123 225.972,133.601 225.556,133.613 224.500 C 133.625 223.458,133.656 223.440,134.200 224.159 C 134.516 224.576,134.680 225.071,134.564 225.259 M190.425 224.170 C 189.791 224.933,190.252 227.200,191.040 227.200 C 191.880 227.200,192.659 225.299,192.150 224.493 C 191.576 223.584,191.001 223.476,190.425 224.170 M163.680 224.480 C 163.416 224.744,163.200 225.194,163.200 225.480 C 163.200 225.766,162.930 226.000,162.600 226.000 C 162.257 226.000,162.000 226.360,162.000 226.840 C 162.000 227.301,161.742 228.246,161.427 228.940 C 161.112 229.633,160.796 230.560,160.725 231.000 C 160.654 231.440,160.191 231.978,159.698 232.195 C 158.689 232.638,158.505 233.200,159.367 233.200 C 160.444 233.200,161.200 232.712,161.200 232.018 C 161.200 231.636,161.546 230.923,161.969 230.436 C 162.392 229.948,162.859 228.836,163.006 227.966 C 163.297 226.242,164.643 225.200,166.580 225.200 C 167.220 225.200,167.600 224.976,167.600 224.600 C 167.600 223.852,164.406 223.754,163.680 224.480 M191.630 224.910 C 191.614 225.070,191.600 225.470,191.600 225.800 C 191.600 226.130,191.441 226.400,191.247 226.400 C 190.822 226.400,190.391 224.943,190.719 224.615 C 191.015 224.318,191.669 224.530,191.630 224.910 M188.774 228.669 C 188.216 230.135,189.240 231.331,190.216 230.355 C 190.890 229.682,190.424 227.600,189.600 227.600 C 189.369 227.600,188.997 228.081,188.774 228.669 M188.400 233.800 C 188.400 234.350,188.220 234.800,188.000 234.800 C 187.780 234.800,187.600 234.350,187.600 233.800 C 187.600 233.250,187.780 232.800,188.000 232.800 C 188.220 232.800,188.400 233.250,188.400 233.800 " stroke="none" fill="#a1a1a1" fill-rule="evenodd"></path><path id="path3" d="M266.600 174.800 C 266.285 175.310,266.704 176.002,267.324 175.994 C 267.611 175.990,267.562 175.832,267.200 175.594 C 266.667 175.244,266.667 175.156,267.200 174.806 C 267.562 174.568,267.611 174.410,267.324 174.406 C 267.062 174.403,266.736 174.580,266.600 174.800 M171.885 184.248 C 171.346 184.788,171.601 185.600,172.300 185.568 C 172.718 185.550,172.799 185.456,172.500 185.335 C 171.707 185.015,171.919 184.400,172.824 184.400 C 173.277 184.400,173.536 184.580,173.400 184.800 C 173.264 185.020,173.448 185.200,173.810 185.200 C 174.171 185.200,174.393 184.975,174.302 184.700 C 174.119 184.141,172.327 183.806,171.885 184.248 M186.073 186.291 C 186.149 186.938,186.565 187.562,187.097 187.826 C 187.591 188.071,188.388 188.615,188.870 189.036 L 189.745 189.800 188.973 188.726 C 188.548 188.136,187.795 187.547,187.300 187.419 C 185.971 187.073,186.114 185.697,187.500 185.487 C 188.503 185.334,188.484 185.315,187.273 185.260 C 186.053 185.205,185.957 185.287,186.073 186.291 M169.800 188.000 C 169.936 188.220,169.863 188.400,169.638 188.400 C 169.412 188.400,169.013 188.805,168.749 189.300 C 168.294 190.156,168.323 190.151,169.328 189.200 C 170.452 188.138,170.670 187.600,169.976 187.600 C 169.743 187.600,169.664 187.780,169.800 188.000 M118.179 205.600 C 118.179 212.970,118.233 215.985,118.299 212.300 C 118.365 208.615,118.365 202.585,118.299 198.900 C 118.233 195.215,118.179 198.230,118.179 205.600 M172.667 194.267 C 172.305 194.628,172.328 195.908,172.700 196.138 C 172.865 196.240,173.000 195.801,173.000 195.162 C 173.000 194.523,172.985 194.000,172.967 194.000 C 172.948 194.000,172.813 194.120,172.667 194.267 M166.393 197.319 L 166.585 199.400 166.718 197.646 C 166.791 196.681,166.705 195.744,166.526 195.565 C 166.347 195.385,166.287 196.175,166.393 197.319 M211.257 197.156 C 210.959 197.345,210.874 197.599,211.069 197.719 C 211.680 198.097,227.218 197.952,226.982 197.571 C 226.861 197.375,223.356 197.256,219.194 197.308 C 215.031 197.359,211.935 197.279,212.313 197.129 C 212.838 196.921,212.858 196.851,212.400 196.834 C 212.070 196.822,211.556 196.967,211.257 197.156 M232.905 197.087 C 233.514 197.179,234.414 197.177,234.905 197.082 C 235.397 196.987,234.900 196.911,233.800 196.914 C 232.700 196.917,232.297 196.995,232.905 197.087 M247.400 197.600 C 247.245 197.851,248.129 198.000,249.776 198.000 C 251.259 198.000,252.400 197.826,252.400 197.600 C 252.400 197.378,251.341 197.200,250.024 197.200 C 248.717 197.200,247.536 197.380,247.400 197.600 M258.070 199.326 C 257.591 199.835,257.200 200.476,257.200 200.749 C 257.200 201.023,257.020 201.136,256.800 201.000 C 256.291 200.685,256.291 201.612,256.800 202.400 C 257.131 202.913,257.189 202.898,257.194 202.300 C 257.197 201.915,257.515 201.586,257.900 201.568 C 258.318 201.550,258.399 201.456,258.100 201.335 C 257.290 201.008,257.524 200.118,258.654 199.229 C 259.234 198.773,259.535 198.400,259.324 198.400 C 259.112 198.400,258.548 198.817,258.070 199.326 M272.700 198.689 C 273.415 198.778,274.585 198.778,275.300 198.689 C 276.015 198.601,275.430 198.528,274.000 198.528 C 272.570 198.528,271.985 198.601,272.700 198.689 M282.900 199.831 C 283.285 200.289,283.600 200.964,283.600 201.331 C 283.600 202.365,284.284 202.121,284.496 201.012 C 284.600 200.468,284.519 200.126,284.317 200.251 C 284.115 200.376,283.556 200.146,283.075 199.739 C 282.205 199.004,282.204 199.005,282.900 199.831 M143.039 200.294 C 142.610 200.723,142.787 201.200,143.376 201.200 C 143.693 201.200,144.052 201.039,144.174 200.842 C 144.429 200.430,143.400 199.934,143.039 200.294 M147.417 200.372 C 147.121 200.851,147.874 201.325,148.407 200.996 C 148.854 200.719,148.560 200.000,148.000 200.000 C 147.806 200.000,147.544 200.168,147.417 200.372 M233.500 203.098 C 235.315 203.172,238.285 203.172,240.100 203.098 C 241.915 203.023,240.430 202.963,236.800 202.963 C 233.170 202.963,231.685 203.023,233.500 203.098 M245.700 203.232 C 246.085 203.456,246.425 204.126,246.454 204.720 C 246.504 205.695,246.526 205.710,246.685 204.878 C 246.872 203.903,246.208 202.792,245.451 202.812 C 245.203 202.819,245.315 203.008,245.700 203.232 M128.900 203.476 C 129.285 203.576,129.915 203.576,130.300 203.476 C 130.685 203.375,130.370 203.293,129.600 203.293 C 128.830 203.293,128.515 203.375,128.900 203.476 M134.711 203.493 C 135.651 203.578,137.091 203.577,137.911 203.491 C 138.730 203.405,137.960 203.336,136.200 203.337 C 134.440 203.339,133.770 203.409,134.711 203.493 M146.900 203.487 C 147.505 203.578,148.495 203.578,149.100 203.487 C 149.705 203.395,149.210 203.320,148.000 203.320 C 146.790 203.320,146.295 203.395,146.900 203.487 M169.600 203.591 C 168.830 203.758,168.493 203.918,168.850 203.947 C 169.208 203.976,170.108 204.105,170.850 204.234 C 171.872 204.411,172.054 204.364,171.600 204.040 C 171.136 203.709,171.392 203.611,172.724 203.606 C 173.672 203.603,174.357 203.746,174.247 203.924 C 174.137 204.102,175.085 204.237,176.354 204.224 C 177.624 204.211,178.662 204.020,178.661 203.800 C 178.660 203.317,171.613 203.154,169.600 203.591 M126.301 204.100 C 126.149 204.485,126.115 205.033,126.224 205.318 C 126.333 205.603,125.968 206.232,125.411 206.715 C 124.855 207.199,124.400 207.795,124.400 208.041 C 124.400 208.286,124.985 207.768,125.700 206.890 L 127.000 205.294 138.296 205.274 C 148.467 205.257,149.630 205.322,149.983 205.928 C 150.199 206.297,150.381 206.397,150.388 206.149 C 150.420 204.938,149.209 204.797,138.957 204.816 C 133.261 204.827,128.208 204.827,127.729 204.818 C 127.230 204.808,126.798 204.501,126.718 204.100 C 126.583 203.433,126.563 203.433,126.301 204.100 M122.802 208.794 C 122.391 210.039,122.379 210.593,122.746 211.296 C 123.206 212.179,123.212 212.176,123.013 211.147 C 122.900 210.568,123.007 209.524,123.251 208.827 C 123.494 208.130,123.611 207.477,123.511 207.378 C 123.411 207.278,123.092 207.915,122.802 208.794 M206.500 208.276 C 206.885 208.376,207.515 208.376,207.900 208.276 C 208.285 208.175,207.970 208.093,207.200 208.093 C 206.430 208.093,206.115 208.175,206.500 208.276 M190.800 208.736 C 190.800 209.128,192.818 210.115,193.082 209.851 C 193.180 209.753,192.887 209.554,192.430 209.410 C 191.974 209.265,191.600 208.978,191.600 208.773 C 191.600 208.568,191.420 208.400,191.200 208.400 C 190.980 208.400,190.800 208.551,190.800 208.736 M199.424 208.840 C 199.700 209.286,202.000 209.321,202.000 208.879 C 202.000 208.703,201.370 208.541,200.601 208.519 C 199.831 208.497,199.302 208.641,199.424 208.840 M219.600 208.800 C 219.600 209.020,220.590 209.200,221.800 209.200 C 223.010 209.200,224.000 209.020,224.000 208.800 C 224.000 208.580,223.010 208.400,221.800 208.400 C 220.590 208.400,219.600 208.580,219.600 208.800 M195.091 209.489 C 195.801 209.577,197.061 209.579,197.891 209.492 C 198.721 209.405,198.140 209.333,196.600 209.331 C 195.060 209.329,194.381 209.400,195.091 209.489 M205.500 209.495 C 206.655 209.576,208.545 209.576,209.700 209.495 C 210.855 209.414,209.910 209.348,207.600 209.348 C 205.290 209.348,204.345 209.414,205.500 209.495 M212.900 209.476 C 213.285 209.576,213.915 209.576,214.300 209.476 C 214.685 209.375,214.370 209.293,213.600 209.293 C 212.830 209.293,212.515 209.375,212.900 209.476 M216.300 209.482 C 216.795 209.578,217.605 209.578,218.100 209.482 C 218.595 209.387,218.190 209.309,217.200 209.309 C 216.210 209.309,215.805 209.387,216.300 209.482 M149.091 210.156 C 148.480 210.427,148.086 210.752,148.214 210.880 C 148.593 211.260,149.927 210.766,150.160 210.161 C 150.278 209.852,150.336 209.615,150.287 209.632 C 150.239 209.650,149.701 209.886,149.091 210.156 M124.493 212.400 C 124.493 213.170,124.575 213.485,124.676 213.100 C 124.776 212.715,124.776 212.085,124.676 211.700 C 124.575 211.315,124.493 211.630,124.493 212.400 M230.115 211.496 C 231.388 211.576,233.368 211.575,234.515 211.494 C 235.662 211.414,234.620 211.349,232.200 211.350 C 229.780 211.351,228.842 211.416,230.115 211.496 M239.100 211.482 C 239.595 211.578,240.405 211.578,240.900 211.482 C 241.395 211.387,240.990 211.309,240.000 211.309 C 239.010 211.309,238.605 211.387,239.100 211.482 M244.700 211.493 C 245.635 211.577,247.165 211.577,248.100 211.493 C 249.035 211.409,248.270 211.340,246.400 211.340 C 244.530 211.340,243.765 211.409,244.700 211.493 M170.824 212.200 C 171.141 212.640,171.573 213.124,171.784 213.276 C 172.010 213.438,171.875 213.875,171.454 214.340 C 170.999 214.843,170.802 215.542,170.910 216.265 L 171.080 217.400 171.140 216.231 C 171.173 215.589,171.504 214.727,171.876 214.316 C 172.516 213.609,172.491 213.512,171.400 212.485 C 170.756 211.878,170.502 211.752,170.824 212.200 M182.645 211.928 C 182.533 212.108,182.973 212.177,183.621 212.082 C 184.270 211.987,184.800 211.840,184.800 211.755 C 184.800 211.450,182.843 211.607,182.645 211.928 M201.800 212.000 C 201.936 212.220,202.757 212.400,203.624 212.400 C 204.491 212.400,205.200 212.220,205.200 212.000 C 205.200 211.780,204.379 211.600,203.376 211.600 C 202.263 211.600,201.649 211.756,201.800 212.000 M206.600 212.000 C 206.464 212.220,206.734 212.400,207.200 212.400 C 207.666 212.400,207.936 212.220,207.800 212.000 C 207.664 211.780,207.394 211.600,207.200 211.600 C 207.006 211.600,206.736 211.780,206.600 212.000 M215.600 212.000 C 215.600 212.239,217.133 212.400,219.400 212.400 C 221.667 212.400,223.200 212.239,223.200 212.000 C 223.200 211.761,221.667 211.600,219.400 211.600 C 217.133 211.600,215.600 211.761,215.600 212.000 M224.000 212.000 C 224.000 212.220,224.529 212.400,225.176 212.400 C 225.823 212.400,226.464 212.220,226.600 212.000 C 226.747 211.762,226.271 211.600,225.424 211.600 C 224.641 211.600,224.000 211.780,224.000 212.000 M255.600 211.984 C 255.600 212.196,254.025 212.429,252.100 212.502 L 248.600 212.635 252.300 212.718 C 255.359 212.786,256.000 212.696,256.000 212.200 C 256.000 211.870,255.910 211.600,255.800 211.600 C 255.690 211.600,255.600 211.773,255.600 211.984 M122.637 213.049 C 122.293 213.944,122.825 218.768,123.299 219.061 C 123.523 219.200,123.585 218.982,123.445 218.543 C 123.313 218.127,123.172 216.574,123.131 215.093 C 123.051 212.198,123.017 212.057,122.637 213.049 M230.100 212.697 C 231.805 212.772,234.595 212.772,236.300 212.697 C 238.005 212.622,236.610 212.561,233.200 212.561 C 229.790 212.561,228.395 212.622,230.100 212.697 M241.905 212.683 C 242.402 212.779,243.122 212.775,243.505 212.675 C 243.887 212.575,243.480 212.496,242.600 212.501 C 241.720 212.505,241.407 212.587,241.905 212.683 M198.306 213.083 C 198.804 213.179,199.109 213.424,198.982 213.629 C 198.856 213.833,198.943 214.000,199.176 214.000 C 199.409 214.000,199.600 213.730,199.600 213.400 C 199.600 212.999,199.235 212.818,198.500 212.854 C 197.548 212.902,197.522 212.932,198.306 213.083 M193.733 215.200 C 193.733 216.140,193.824 216.301,194.087 215.831 C 194.291 215.466,194.291 214.934,194.087 214.569 C 193.824 214.099,193.733 214.260,193.733 215.200 M203.900 214.689 C 204.615 214.778,205.785 214.778,206.500 214.689 C 207.215 214.601,206.630 214.528,205.200 214.528 C 203.770 214.528,203.185 214.601,203.900 214.689 M223.100 214.682 C 223.595 214.778,224.405 214.778,224.900 214.682 C 225.395 214.587,224.990 214.509,224.000 214.509 C 223.010 214.509,222.605 214.587,223.100 214.682 M237.317 215.097 C 238.811 215.174,241.151 215.174,242.517 215.096 C 243.882 215.018,242.660 214.955,239.800 214.955 C 236.940 214.956,235.822 215.020,237.317 215.097 M144.101 216.600 C 144.105 217.480,144.187 217.793,144.283 217.295 C 144.379 216.798,144.375 216.078,144.275 215.695 C 144.175 215.313,144.096 215.720,144.101 216.600 M228.900 215.476 C 229.285 215.576,229.915 215.576,230.300 215.476 C 230.685 215.375,230.370 215.293,229.600 215.293 C 228.830 215.293,228.515 215.375,228.900 215.476 M169.657 216.851 C 169.626 217.429,169.330 218.126,169.000 218.400 C 168.670 218.674,168.403 219.191,168.406 219.549 C 168.411 220.115,168.463 220.122,168.800 219.600 C 169.092 219.149,169.191 219.347,169.203 220.400 L 169.218 221.800 170.016 220.040 C 170.455 219.073,170.721 218.188,170.607 218.074 C 170.493 217.960,170.374 218.122,170.343 218.433 C 170.312 218.745,170.158 218.280,170.000 217.400 C 169.792 216.238,169.698 216.088,169.657 216.851 M192.900 219.212 C 191.792 219.658,191.761 219.829,192.790 219.829 C 193.225 219.829,193.669 219.597,193.778 219.314 C 193.886 219.031,193.936 218.811,193.887 218.825 C 193.839 218.839,193.395 219.013,192.900 219.212 M117.632 219.638 C 117.614 219.989,118.005 220.619,118.500 221.038 C 119.392 221.794,119.394 221.793,118.752 221.000 C 118.396 220.560,118.005 219.930,117.884 219.600 C 117.697 219.091,117.658 219.096,117.632 219.638 M126.654 221.629 C 126.074 222.085,125.611 222.760,125.625 223.129 C 125.644 223.621,125.745 223.566,126.004 222.924 C 126.198 222.443,126.861 221.775,127.478 221.440 C 128.095 221.106,128.399 220.825,128.154 220.816 C 127.909 220.807,127.234 221.173,126.654 221.629 M167.818 222.343 C 167.688 222.751,167.181 223.279,166.691 223.516 L 165.800 223.946 166.700 223.973 C 167.195 223.988,167.600 224.187,167.600 224.416 C 167.600 224.655,167.835 224.613,168.156 224.316 C 168.500 223.997,168.560 223.705,168.313 223.550 C 168.094 223.412,168.036 222.917,168.184 222.450 C 168.333 221.982,168.364 221.600,168.254 221.600 C 168.144 221.600,167.948 221.934,167.818 222.343 M147.324 229.400 C 147.326 230.720,147.401 231.212,147.490 230.493 C 147.579 229.774,147.577 228.694,147.486 228.093 C 147.395 227.492,147.322 228.080,147.324 229.400 M160.880 229.280 C 160.616 229.544,160.400 230.165,160.400 230.660 C 160.400 231.155,160.085 231.744,159.700 231.968 C 159.315 232.192,159.189 232.381,159.420 232.388 C 160.102 232.408,160.800 231.503,160.800 230.600 C 160.800 230.138,161.016 229.544,161.280 229.280 C 161.544 229.016,161.670 228.800,161.560 228.800 C 161.450 228.800,161.144 229.016,160.880 229.280 M161.893 230.508 C 161.512 230.978,161.203 231.641,161.207 231.981 C 161.210 232.325,161.589 232.014,162.057 231.283 C 163.029 229.765,162.919 229.244,161.893 230.508 M132.893 231.600 C 132.893 232.370,132.975 232.685,133.076 232.300 C 133.176 231.915,133.176 231.285,133.076 230.900 C 132.975 230.515,132.893 230.830,132.893 231.600 M135.227 231.851 C 135.194 232.886,134.213 233.779,133.556 233.373 C 133.257 233.188,133.181 233.246,133.354 233.525 C 133.521 233.796,134.127 233.875,134.883 233.723 C 135.938 233.512,136.094 233.577,135.880 234.137 C 135.489 235.153,136.226 234.924,136.963 233.800 C 137.582 232.856,137.576 232.800,136.870 232.800 C 136.459 232.800,135.927 232.395,135.688 231.900 C 135.259 231.011,135.254 231.010,135.227 231.851 M187.600 233.400 C 187.600 233.730,187.780 234.000,188.000 234.000 C 188.220 234.000,188.400 233.730,188.400 233.400 C 188.400 233.070,188.220 232.800,188.000 232.800 C 187.780 232.800,187.600 233.070,187.600 233.400 " stroke="none" fill="#7c7c7c" fill-rule="evenodd"></path><path id="path4" d="M267.200 174.796 C 266.667 175.155,266.667 175.245,267.200 175.604 C 268.089 176.203,270.200 175.919,270.200 175.200 C 270.200 174.481,268.089 174.197,267.200 174.796 M270.000 175.200 C 270.000 175.420,269.460 175.600,268.800 175.600 C 268.140 175.600,267.600 175.420,267.600 175.200 C 267.600 174.980,268.140 174.800,268.800 174.800 C 269.460 174.800,270.000 174.980,270.000 175.200 M186.807 179.496 C 186.481 179.624,185.973 179.970,185.679 180.264 C 184.826 181.117,174.106 181.020,173.146 180.151 C 172.203 179.298,171.200 179.721,171.200 180.973 C 171.200 181.562,170.872 182.147,170.400 182.400 C 169.888 182.674,169.600 183.238,169.600 183.965 C 169.600 184.699,169.282 185.313,168.705 185.696 C 167.668 186.385,168.270 187.600,169.649 187.600 C 170.661 187.600,170.585 188.012,169.358 189.176 C 168.365 190.118,164.385 191.032,162.200 190.820 C 161.760 190.777,151.910 190.656,140.311 190.551 C 118.091 190.350,117.151 190.413,118.017 192.033 C 118.301 192.563,118.421 197.475,118.374 206.653 C 118.292 222.429,118.244 222.175,121.141 221.220 C 123.621 220.401,123.834 220.195,123.304 219.126 C 122.684 217.876,122.293 213.532,122.740 212.858 C 122.957 212.531,122.934 211.878,122.682 211.211 C 122.091 209.647,123.661 205.796,125.217 204.991 C 125.828 204.675,126.403 204.191,126.495 203.915 C 126.624 203.528,129.357 203.407,138.386 203.387 C 151.408 203.358,151.282 203.334,152.162 206.030 C 152.667 207.578,153.515 207.718,156.730 206.788 C 158.286 206.338,158.630 206.373,160.173 207.144 C 161.116 207.615,162.377 208.000,162.975 208.000 C 165.659 208.000,168.094 213.528,165.794 214.402 C 165.080 214.674,164.800 215.079,164.800 215.843 C 164.800 216.552,164.303 217.374,163.306 218.314 C 161.770 219.763,161.256 220.487,160.226 222.651 C 159.898 223.340,159.353 224.009,159.015 224.139 C 158.582 224.305,158.400 224.933,158.400 226.262 C 158.400 227.546,158.161 228.412,157.651 228.974 C 157.158 229.517,156.829 230.647,156.691 232.273 C 156.452 235.087,156.559 235.200,159.470 235.200 C 160.668 235.200,161.615 235.469,162.291 236.000 C 162.997 236.556,163.914 236.800,165.291 236.800 C 166.668 236.800,167.584 237.044,168.291 237.600 C 169.003 238.160,169.914 238.400,171.328 238.400 C 172.814 238.400,173.579 238.617,174.221 239.219 C 176.901 241.738,187.200 239.794,187.200 236.769 C 187.200 235.066,186.555 235.011,184.941 236.578 C 183.258 238.213,183.354 238.191,181.462 237.400 C 180.672 237.070,179.283 236.800,178.376 236.800 C 177.332 236.800,176.353 236.506,175.709 236.000 C 174.958 235.409,174.086 235.200,172.373 235.200 C 169.550 235.200,167.672 233.467,168.957 232.047 C 169.311 231.657,169.600 230.922,169.600 230.414 C 169.600 229.907,170.005 229.083,170.500 228.584 C 172.175 226.893,172.483 226.348,172.707 224.676 C 172.974 222.688,174.649 220.800,176.146 220.800 C 177.590 220.800,177.777 220.181,176.807 218.611 C 174.755 215.292,177.275 210.427,179.482 213.445 C 179.940 214.071,180.057 214.083,180.500 213.548 C 183.585 209.819,196.104 212.069,194.012 215.977 C 192.628 218.564,194.005 219.805,195.858 217.640 C 197.074 216.221,197.480 216.000,198.884 216.000 C 199.828 216.000,201.068 215.653,201.850 215.169 C 203.158 214.361,203.527 214.345,215.497 214.573 C 222.264 214.703,232.390 214.856,238.000 214.914 C 243.610 214.972,249.392 215.172,250.849 215.359 C 253.290 215.673,253.597 215.626,254.774 214.756 C 257.430 212.793,258.581 208.953,256.800 208.000 C 255.756 207.441,255.747 205.553,256.785 204.613 C 257.504 203.963,257.521 203.808,256.985 202.771 C 256.663 202.149,256.400 201.215,256.400 200.696 C 256.400 198.081,257.229 198.178,238.000 198.556 C 232.842 198.658,228.868 198.564,228.071 198.322 C 227.340 198.100,223.249 197.925,218.979 197.933 C 214.577 197.942,211.115 197.786,210.984 197.574 C 210.857 197.368,210.898 197.188,211.076 197.174 C 211.467 197.143,253.028 196.761,254.280 196.777 C 255.593 196.793,255.742 196.159,254.743 194.809 L 253.850 193.600 245.612 193.600 C 239.224 193.600,236.883 193.456,235.187 192.958 C 233.528 192.471,230.152 192.244,221.200 192.018 C 211.818 191.781,209.072 191.588,207.800 191.078 C 204.176 189.622,200.082 190.293,200.341 192.300 C 200.451 193.150,200.319 193.263,199.100 193.360 C 198.821 193.382,198.511 192.780,198.400 192.000 L 198.200 190.600 194.417 190.484 C 191.011 190.379,190.493 190.260,189.223 189.284 C 188.447 188.688,187.450 188.016,187.006 187.791 C 186.563 187.566,186.143 186.891,186.073 186.291 C 185.892 184.729,188.035 184.681,188.742 186.231 C 189.538 187.980,190.190 187.164,190.319 184.256 C 190.469 180.861,188.866 178.688,186.807 179.496 M188.982 180.618 C 189.862 181.499,190.000 181.985,190.000 184.218 C 190.000 187.079,189.635 187.460,188.772 185.500 C 188.066 183.896,186.113 183.559,179.498 183.899 C 175.698 184.095,175.102 184.035,174.386 183.387 C 173.127 182.248,171.441 182.989,171.271 184.758 C 171.103 186.504,171.732 187.167,172.714 186.278 C 174.374 184.776,185.073 185.130,185.448 186.700 C 185.802 188.185,186.342 188.800,187.291 188.800 C 187.728 188.800,188.619 189.250,189.273 189.800 C 190.357 190.712,190.794 190.800,194.231 190.800 L 198.000 190.800 198.000 191.920 C 198.000 193.824,199.354 194.589,200.571 193.372 C 201.024 192.919,201.091 192.544,200.813 192.025 C 200.042 190.583,204.913 190.187,207.320 191.496 C 208.427 192.098,210.198 192.220,220.400 192.396 C 229.813 192.559,232.402 192.720,233.200 193.191 C 233.989 193.657,236.291 193.813,244.100 193.931 C 252.349 194.056,254.000 194.176,254.000 194.653 C 254.000 194.968,254.270 195.329,254.600 195.455 C 255.557 195.822,255.296 196.281,254.100 196.336 C 253.495 196.364,252.550 196.412,252.000 196.441 C 251.450 196.471,241.862 196.441,230.694 196.374 C 209.872 196.249,209.167 196.296,209.734 197.773 C 209.942 198.314,211.091 198.400,218.090 198.400 C 222.925 198.400,226.770 198.579,227.603 198.844 C 230.025 199.613,244.949 199.750,246.367 199.017 C 247.661 198.348,249.330 198.259,253.125 198.655 L 255.568 198.911 255.833 200.755 C 255.979 201.770,256.341 202.879,256.639 203.220 C 257.099 203.748,257.062 203.940,256.390 204.516 C 255.339 205.416,255.344 207.434,256.400 208.093 C 256.959 208.442,257.200 209.026,257.200 210.030 C 257.200 211.760,256.896 212.153,256.139 211.397 C 255.135 210.392,199.732 210.637,198.865 211.649 C 198.512 212.062,197.996 212.400,197.720 212.400 C 197.444 212.400,196.924 212.850,196.563 213.400 C 195.779 214.597,194.588 214.698,194.009 213.616 C 192.441 210.687,182.249 210.219,180.317 212.987 C 180.131 213.253,179.862 213.222,179.537 212.897 C 176.855 210.215,173.947 215.790,176.400 218.909 C 177.445 220.238,177.413 220.399,176.100 220.404 C 174.569 220.410,172.400 222.687,172.400 224.289 C 172.400 224.951,172.040 225.950,171.600 226.509 C 171.160 227.069,170.800 227.679,170.800 227.867 C 170.800 228.054,170.440 228.432,170.000 228.707 C 169.487 229.028,169.200 229.640,169.200 230.416 C 169.200 231.122,168.950 231.721,168.600 231.855 C 166.380 232.707,169.279 235.600,172.354 235.600 C 174.168 235.600,174.834 235.775,175.400 236.400 C 175.946 237.003,176.632 237.200,178.186 237.200 C 179.379 237.200,180.574 237.447,181.024 237.787 C 182.290 238.745,183.524 238.502,185.027 237.000 C 186.728 235.299,186.800 235.291,186.800 236.800 C 186.800 237.460,186.587 238.000,186.326 238.000 C 186.065 238.000,185.447 238.380,184.953 238.844 C 183.616 240.101,175.413 240.081,174.529 238.820 C 174.062 238.154,173.520 238.000,171.639 238.000 C 169.832 238.000,169.165 237.824,168.600 237.200 C 168.045 236.587,167.368 236.400,165.701 236.400 C 164.132 236.400,163.243 236.177,162.509 235.600 C 161.782 235.028,160.886 234.800,159.370 234.800 C 157.158 234.800,156.631 234.521,157.176 233.640 C 157.420 233.243,157.696 233.223,158.316 233.555 C 160.456 234.700,162.844 232.826,163.355 229.600 C 163.755 227.076,164.552 226.000,166.023 226.000 C 167.452 226.000,170.000 223.693,170.000 222.399 C 170.000 221.944,170.250 221.173,170.557 220.686 C 170.863 220.199,171.240 218.906,171.394 217.814 C 171.548 216.722,171.928 215.467,172.237 215.025 C 173.033 213.890,172.938 213.068,171.900 212.099 C 170.100 210.419,167.600 210.740,167.600 212.652 C 167.600 212.979,167.420 213.136,167.200 213.000 C 166.980 212.864,166.800 212.198,166.800 211.519 C 166.800 209.854,164.649 207.610,163.047 207.604 C 162.413 207.602,161.274 207.217,160.516 206.748 C 159.095 205.870,155.573 205.867,154.697 206.743 C 154.012 207.428,152.835 206.717,152.381 205.344 C 151.585 202.930,151.378 202.893,138.800 202.862 L 127.400 202.835 125.336 204.198 C 123.861 205.171,123.198 205.900,123.010 206.752 C 122.866 207.408,122.490 208.159,122.174 208.421 C 121.497 208.983,121.413 210.853,122.037 211.477 C 122.353 211.793,122.346 212.154,122.011 212.779 C 121.488 213.758,121.785 217.653,122.494 219.099 C 123.069 220.273,122.836 220.451,120.622 220.532 L 118.774 220.600 118.767 205.800 L 118.759 191.000 138.665 190.896 C 155.888 190.806,158.826 190.877,160.465 191.421 C 162.020 191.938,162.523 191.961,163.279 191.548 C 163.786 191.271,165.260 190.917,166.555 190.760 C 170.349 190.300,173.052 186.800,169.613 186.800 C 168.247 186.800,167.979 186.203,169.200 185.884 C 169.806 185.725,170.000 185.338,170.000 184.284 C 170.000 183.230,170.194 182.843,170.800 182.684 C 171.383 182.532,171.600 182.138,171.600 181.237 C 171.600 179.888,172.023 179.664,172.800 180.600 C 173.654 181.629,184.941 181.462,186.291 180.400 C 187.590 179.378,187.755 179.392,188.982 180.618 M174.285 184.647 C 174.428 185.083,172.055 185.789,171.687 185.420 C 171.585 185.318,171.612 184.945,171.748 184.590 C 172.028 183.862,174.042 183.906,174.285 184.647 M107.779 189.310 C 107.665 189.608,107.848 190.913,108.186 192.210 C 109.216 196.164,109.067 214.654,107.979 217.970 C 106.344 222.950,107.843 225.511,111.128 223.350 C 111.718 222.962,112.830 222.542,113.600 222.416 L 115.000 222.186 115.000 205.593 L 115.000 189.000 111.493 188.884 C 108.832 188.797,107.937 188.899,107.779 189.310 M114.800 205.600 L 114.800 222.000 113.461 222.000 C 112.697 222.000,111.727 222.343,111.200 222.800 C 109.335 224.417,107.600 223.902,107.600 221.731 C 107.600 220.513,107.844 219.594,108.300 219.089 C 109.203 218.091,109.390 191.630,108.500 190.740 C 107.297 189.537,107.931 189.200,111.400 189.200 L 114.800 189.200 114.800 205.600 M182.416 190.181 C 182.149 190.503,182.053 191.136,182.201 191.603 C 182.609 192.890,185.344 192.596,185.535 191.245 C 185.752 189.709,183.457 188.926,182.416 190.181 M185.149 190.632 C 185.605 191.038,184.681 192.000,183.836 192.000 C 182.620 192.000,182.167 191.363,182.822 190.573 C 183.244 190.065,184.550 190.098,185.149 190.632 M156.892 193.268 C 156.260 193.900,156.251 197.691,156.880 198.320 C 157.509 198.949,159.699 198.936,160.359 198.300 C 160.778 197.896,160.850 197.953,160.735 198.600 C 160.626 199.214,160.223 199.430,159.002 199.530 C 157.035 199.690,156.400 200.188,156.400 201.569 C 156.400 204.428,159.814 204.464,161.532 201.623 C 162.318 200.324,162.477 200.251,164.312 200.349 C 166.789 200.480,167.283 199.927,167.122 197.209 C 166.858 192.756,161.200 192.406,161.200 196.842 C 161.200 197.285,161.020 197.536,160.800 197.400 C 160.580 197.264,160.397 196.488,160.394 195.676 C 160.385 193.421,158.224 191.936,156.892 193.268 M158.974 193.590 C 160.507 194.173,160.528 197.852,159.001 198.236 C 156.981 198.742,155.675 195.285,157.280 193.680 C 157.855 193.105,157.716 193.112,158.974 193.590 M172.089 193.823 C 170.582 194.879,171.550 197.200,173.498 197.200 C 174.392 197.200,174.995 195.345,174.473 194.200 C 173.946 193.045,173.337 192.948,172.089 193.823 M174.000 195.200 C 174.000 196.011,173.801 196.400,173.387 196.400 C 172.664 196.400,172.219 195.449,172.545 194.600 C 172.971 193.489,174.000 193.913,174.000 195.200 M165.620 195.010 C 167.909 196.194,167.129 200.000,164.596 200.000 C 162.761 200.000,162.043 199.259,161.934 197.254 C 161.791 194.641,163.221 193.770,165.620 195.010 M189.000 196.373 C 186.866 196.615,185.982 198.332,187.222 199.826 C 188.070 200.848,191.854 200.582,193.018 199.418 C 195.222 197.214,193.447 195.869,189.000 196.373 M193.300 197.079 C 194.897 197.975,192.034 200.071,189.423 199.918 C 187.400 199.800,187.400 199.800,187.400 198.400 C 187.400 196.707,191.143 195.869,193.300 197.079 M258.654 199.229 C 257.296 200.297,257.314 201.122,258.700 201.426 C 260.649 201.853,260.744 201.934,260.873 203.277 L 261.000 204.600 272.709 204.661 C 279.149 204.694,284.715 204.835,285.077 204.974 C 286.227 205.416,286.977 201.569,286.157 199.433 C 285.618 198.029,284.400 199.822,284.400 202.019 C 284.400 202.668,284.220 203.200,284.000 203.200 C 283.780 203.200,283.600 202.598,283.600 201.862 C 283.600 199.392,282.730 199.040,275.860 198.736 C 263.608 198.193,259.833 198.301,258.654 199.229 M145.103 199.095 C 142.823 199.239,141.554 200.155,142.197 201.195 C 142.431 201.573,147.979 201.680,149.300 201.331 C 150.668 200.970,149.537 198.711,148.071 198.876 C 147.702 198.917,146.367 199.016,145.103 199.095 M276.120 199.357 C 282.350 199.908,282.980 200.141,283.032 201.920 C 283.049 202.514,283.139 203.270,283.232 203.600 C 283.378 204.121,281.941 204.214,272.300 204.306 L 261.200 204.413 261.200 203.286 C 261.200 201.943,260.554 201.200,259.387 201.200 C 258.071 201.200,257.910 200.747,258.866 199.730 C 259.927 198.600,266.066 198.468,276.120 199.357 M286.000 201.976 C 286.000 204.313,285.555 205.298,284.946 204.312 C 284.776 204.037,284.683 203.179,284.741 202.406 C 285.004 198.876,286.000 198.536,286.000 201.976 M144.174 200.842 C 143.895 201.294,142.800 201.313,142.800 200.867 C 142.800 200.304,143.250 200.044,143.837 200.269 C 144.144 200.387,144.296 200.645,144.174 200.842 M148.583 200.372 C 148.879 200.851,148.126 201.325,147.593 200.996 C 147.146 200.719,147.440 200.000,148.000 200.000 C 148.194 200.000,148.456 200.168,148.583 200.372 M161.479 200.631 C 161.557 200.867,161.164 201.554,160.606 202.156 C 158.720 204.191,156.023 203.002,156.964 200.550 C 157.233 199.848,161.245 199.920,161.479 200.631 M179.000 201.751 C 178.422 202.173,177.017 202.265,172.977 202.145 C 167.396 201.980,166.553 202.219,166.872 203.881 C 167.005 204.578,182.285 205.588,183.900 205.005 C 184.538 204.775,184.553 202.313,183.920 201.680 C 183.265 201.025,179.927 201.073,179.000 201.751 M183.582 202.178 C 184.870 203.730,183.962 204.607,181.200 204.481 C 179.770 204.415,177.250 204.375,175.600 204.391 C 173.950 204.407,171.610 204.297,170.400 204.145 L 168.200 203.870 170.000 203.517 C 170.990 203.323,173.255 203.276,175.034 203.413 C 178.190 203.655,178.284 203.636,178.943 202.630 C 179.730 201.430,182.719 201.138,183.582 202.178 M235.464 202.400 C 226.965 202.687,226.819 202.728,226.806 204.820 C 226.795 206.734,227.135 206.800,237.000 206.800 C 246.865 206.800,247.205 206.734,247.194 204.820 C 247.184 203.189,245.766 201.917,244.126 202.066 C 243.727 202.103,239.829 202.253,235.464 202.400 M246.320 203.280 C 246.966 203.926,246.928 205.396,246.250 205.959 C 245.864 206.279,242.963 206.383,236.550 206.308 L 227.400 206.200 227.400 204.800 C 227.400 203.474,227.484 203.387,229.000 203.157 C 232.173 202.674,245.811 202.771,246.320 203.280 M125.800 206.721 L 124.600 208.139 124.557 214.068 C 124.512 220.438,124.926 221.941,126.218 220.095 C 126.539 219.638,127.328 219.148,127.973 219.006 C 128.617 218.864,129.359 218.490,129.621 218.174 C 129.883 217.858,130.571 217.599,131.149 217.597 C 131.727 217.596,132.740 217.237,133.400 216.800 C 134.060 216.363,134.891 216.004,135.246 216.003 C 135.601 216.001,136.350 215.640,136.909 215.200 C 137.469 214.760,138.258 214.399,138.663 214.397 C 139.068 214.396,139.940 214.037,140.600 213.600 C 141.260 213.163,142.183 212.804,142.651 212.803 C 143.119 212.801,143.714 212.544,143.973 212.232 C 144.232 211.920,145.671 211.292,147.170 210.837 C 150.707 209.762,151.134 209.260,150.376 207.067 L 149.800 205.400 138.400 205.351 L 127.000 205.303 125.800 206.721 M150.028 207.476 C 150.304 208.823,149.869 209.591,148.820 209.613 C 148.479 209.620,147.851 209.890,147.424 210.213 C 146.996 210.536,146.230 210.800,145.720 210.800 C 145.210 210.800,144.484 211.160,144.107 211.600 C 143.730 212.040,142.950 212.400,142.372 212.400 C 141.795 212.400,140.907 212.760,140.400 213.200 C 139.893 213.640,139.079 214.000,138.593 214.000 C 138.106 214.000,137.250 214.360,136.691 214.800 C 136.131 215.240,135.321 215.600,134.891 215.600 C 134.460 215.600,133.650 215.960,133.091 216.400 C 132.531 216.840,131.688 217.200,131.216 217.200 C 130.744 217.200,129.603 217.591,128.679 218.069 C 126.390 219.252,125.647 219.600,125.405 219.600 C 124.548 219.600,125.262 208.179,126.179 207.222 L 127.158 206.200 138.463 206.200 L 149.767 206.200 150.028 207.476 M190.700 208.037 C 188.241 209.451,193.692 211.291,197.600 210.367 C 198.370 210.185,204.996 209.995,212.325 209.944 C 226.031 209.849,227.718 209.660,226.188 208.390 C 225.338 207.685,191.891 207.353,190.700 208.037 M198.644 208.379 C 201.040 208.374,204.170 208.341,205.600 208.306 C 214.067 208.096,225.657 208.429,225.507 208.878 C 225.388 209.235,221.354 209.379,209.482 209.449 C 200.755 209.501,193.445 209.648,193.238 209.777 C 192.798 210.049,190.800 209.218,190.800 208.764 C 190.800 208.363,192.365 208.054,193.444 208.241 C 193.908 208.321,196.248 208.383,198.644 208.379 M148.800 211.551 C 148.800 211.964,148.402 212.567,147.914 212.890 C 146.888 213.572,146.852 214.293,147.253 226.200 L 147.495 233.400 149.647 233.400 L 151.800 233.400 151.911 228.123 C 152.006 223.655,151.898 222.491,151.211 220.536 C 150.666 218.985,150.400 217.217,150.400 215.147 C 150.400 213.452,150.291 211.781,150.157 211.433 C 149.819 210.550,148.800 210.639,148.800 211.551 M255.900 211.560 C 255.955 211.582,256.000 211.870,256.000 212.200 C 256.000 212.712,254.900 212.800,248.500 212.800 C 230.995 212.799,199.597 212.243,199.900 211.940 C 200.306 211.534,254.898 211.164,255.900 211.560 M150.000 215.185 C 150.000 217.827,150.210 219.304,150.800 220.800 C 151.454 222.460,151.600 223.773,151.600 228.015 L 151.600 233.200 149.670 233.200 L 147.740 233.200 147.770 230.100 C 147.787 228.395,147.716 224.030,147.612 220.400 C 147.425 213.816,147.427 213.797,148.412 212.742 C 149.899 211.150,150.000 211.305,150.000 215.185 M171.596 212.596 C 172.446 213.500,172.475 213.656,171.919 214.296 C 171.582 214.683,171.194 215.742,171.057 216.648 C 170.919 217.555,170.449 219.085,170.012 220.048 C 169.575 221.012,169.214 222.165,169.209 222.611 C 169.197 223.696,167.795 224.855,165.600 225.594 C 163.976 226.141,163.749 226.376,163.279 228.000 C 162.224 231.650,161.159 233.200,159.708 233.200 C 158.150 233.200,158.015 232.704,159.400 232.073 C 160.062 231.771,160.400 231.293,160.400 230.658 C 160.400 230.130,160.670 229.474,161.000 229.200 C 161.330 228.926,161.600 228.264,161.600 227.730 C 161.600 226.396,163.580 224.000,164.681 224.000 C 166.874 224.000,168.400 222.405,168.400 220.113 C 168.400 219.535,168.683 218.750,169.029 218.368 C 169.930 217.372,169.973 214.275,169.099 213.309 C 167.441 211.477,169.889 210.778,171.596 212.596 M199.600 213.353 C 199.600 213.658,199.105 214.004,198.500 214.123 C 197.188 214.380,196.315 213.751,197.203 213.189 C 198.103 212.621,199.600 212.723,199.600 213.353 M241.900 213.304 C 249.435 213.357,255.600 213.535,255.600 213.700 C 255.600 213.865,255.249 214.000,254.820 214.000 C 254.391 214.000,253.863 214.315,253.647 214.700 C 253.274 215.363,253.193 215.364,252.087 214.713 C 250.135 213.564,202.442 213.649,201.397 214.803 C 200.866 215.390,200.165 215.600,198.738 215.600 C 196.415 215.600,196.174 215.002,198.356 214.653 C 199.212 214.517,200.013 214.144,200.135 213.826 C 200.435 213.043,201.759 212.983,216.000 213.104 C 222.710 213.162,234.365 213.252,241.900 213.304 M169.126 215.737 C 169.208 216.732,169.047 217.437,168.669 217.737 C 168.348 217.991,167.966 219.046,167.821 220.081 C 167.557 221.957,165.947 223.600,164.372 223.600 C 163.383 223.600,161.200 226.098,161.200 227.229 C 161.200 227.819,160.930 228.526,160.600 228.800 C 160.270 229.074,160.000 229.721,160.000 230.239 C 160.000 231.180,157.993 232.660,157.451 232.117 C 156.909 231.576,157.242 229.686,158.000 229.000 C 158.586 228.470,158.800 227.768,158.800 226.381 C 158.800 225.116,158.988 224.413,159.366 224.268 C 159.889 224.068,160.303 223.447,161.680 220.802 C 161.966 220.253,162.875 219.180,163.700 218.418 C 164.693 217.501,165.200 216.682,165.200 215.994 C 165.200 213.650,168.935 213.405,169.126 215.737 M142.252 215.142 C 141.873 215.561,140.846 216.018,139.969 216.159 C 137.584 216.540,136.471 223.228,138.231 226.600 C 138.621 227.345,138.870 228.901,138.889 230.705 C 138.926 234.248,139.485 235.293,140.876 234.419 C 141.384 234.099,142.610 233.739,143.600 233.619 L 145.400 233.400 145.400 227.400 C 145.400 223.252,145.233 221.004,144.858 220.117 C 144.560 219.411,144.200 217.895,144.058 216.749 C 143.772 214.436,143.284 214.002,142.252 215.142 M143.719 217.300 C 143.848 218.675,144.234 220.469,144.577 221.287 C 145.033 222.376,145.200 224.171,145.200 227.987 L 145.200 233.200 143.489 233.200 C 142.548 233.200,141.390 233.472,140.915 233.804 C 139.726 234.637,139.512 234.145,139.343 230.195 C 139.265 228.384,138.931 226.254,138.601 225.464 C 136.917 221.433,138.136 216.400,140.797 216.400 C 141.560 216.400,142.174 216.110,142.493 215.600 C 143.274 214.349,143.467 214.617,143.719 217.300 M196.202 216.403 C 196.339 216.624,196.176 216.911,195.841 217.040 C 195.505 217.169,195.121 217.617,194.988 218.037 C 194.623 219.187,194.000 218.953,194.000 217.667 C 194.000 216.085,195.480 215.235,196.202 216.403 M134.800 220.000 C 134.800 220.440,134.980 220.800,135.200 220.800 C 135.420 220.800,135.600 220.440,135.600 220.000 C 135.600 219.560,135.420 219.200,135.200 219.200 C 134.980 219.200,134.800 219.560,134.800 220.000 M192.166 220.143 C 191.803 221.091,192.148 222.200,192.805 222.200 C 193.196 222.200,193.400 221.799,193.400 221.033 C 193.400 219.769,192.546 219.153,192.166 220.143 M129.315 220.767 C 125.412 222.097,125.046 223.673,128.003 226.403 L 129.600 227.877 129.600 231.351 C 129.600 234.030,129.734 234.876,130.185 235.050 C 131.203 235.440,135.721 234.645,135.921 234.039 C 136.065 233.607,135.824 233.535,134.869 233.726 C 133.158 234.068,133.071 233.795,132.978 227.799 C 132.850 219.551,132.855 219.560,129.315 220.767 M193.200 221.000 C 193.200 221.550,193.020 222.000,192.800 222.000 C 192.580 222.000,192.400 221.550,192.400 221.000 C 192.400 220.450,192.580 220.000,192.800 220.000 C 193.020 220.000,193.200 220.450,193.200 221.000 M132.212 221.300 C 132.315 221.575,132.457 224.410,132.528 227.600 C 132.599 230.790,132.734 233.670,132.828 234.000 C 132.955 234.444,132.609 234.632,131.500 234.724 L 130.000 234.848 130.000 231.308 L 130.000 227.767 128.460 226.352 C 126.563 224.607,126.115 223.182,127.163 222.233 C 128.536 220.991,131.866 220.376,132.212 221.300 M190.800 225.000 C 190.800 225.330,190.980 225.600,191.200 225.600 C 191.420 225.600,191.600 225.330,191.600 225.000 C 191.600 224.670,191.420 224.400,191.200 224.400 C 190.980 224.400,190.800 224.670,190.800 225.000 " stroke="none" fill="#747474" fill-rule="evenodd"></path></g></svg>