<?xml version="1.0" encoding="UTF-8" standalone="no"?>
<svg
   xmlns:dc="http://purl.org/dc/elements/1.1/"
   xmlns:cc="http://creativecommons.org/ns#"
   xmlns:rdf="http://www.w3.org/1999/02/22-rdf-syntax-ns#"
   xmlns:svg="http://www.w3.org/2000/svg"
   xmlns="http://www.w3.org/2000/svg"
   xmlns:sodipodi="http://sodipodi.sourceforge.net/DTD/sodipodi-0.dtd"
   xmlns:inkscape="http://www.inkscape.org/namespaces/inkscape"
   id="svg"
   version="1.1"
   width="273.418"
   height="333.75745"
   viewBox="0 0 273.418 333.75745"
   sodipodi:docname="Raids.svg"
   inkscape:version="0.92.4 (5da689c313, 2019-01-14)">
  <metadata
     id="metadata9">
    <rdf:RDF>
      <cc:Work
         rdf:about="">
        <dc:format>image/svg+xml</dc:format>
        <dc:type
           rdf:resource="http://purl.org/dc/dcmitype/StillImage" />
        <dc:title></dc:title>
      </cc:Work>
    </rdf:RDF>
  </metadata>
  <defs
     id="defs7" />
  <sodipodi:namedview
     pagecolor="#ffffff"
     bordercolor="#666666"
     borderopacity="1"
     objecttolerance="10"
     gridtolerance="10"
     guidetolerance="10"
     inkscape:pageopacity="0"
     inkscape:pageshadow="2"
     inkscape:window-width="640"
     inkscape:window-height="480"
     id="namedview5"
     showgrid="false"
     inkscape:zoom="0.59756411"
     inkscape:cx="149.367"
     inkscape:cy="158.8943"
     inkscape:window-x="0"
     inkscape:window-y="0"
     inkscape:window-maximized="1"
     inkscape:current-layer="svg" />
  <g
     id="svgg"
     transform="translate(-50.633,-22.605204)">
    <path
       id="path0"
       d="m 182.761,25.018 c -3.71,2.293 -5.313,8.278 -3.641,13.59 2.418,7.682 -3.999,13.357 -33.635,29.746 -47.877,26.477 -47.558,26.443 -67.463,7.15 -22.316,-21.629 -26.416,-16.95 -6.413,7.317 8.599,10.431 14.802,19.698 13.784,20.593 -1.017,0.895 -9.254,5.393 -18.304,9.996 l -16.456,8.369 v 78.173 c 0,75.936 0.326,78.342 11.392,84.1 16.69,8.683 16.671,8.574 3.798,22.277 -16.026,17.058 -9.821,21.341 8.276,5.713 l 14.509,-12.528 27.848,15.609 c 15.316,8.586 37.768,22.164 49.893,30.174 17.875,11.809 23.453,13.395 29.491,8.383 4.096,-3.399 25.929,-16.945 48.518,-30.102 l 41.071,-23.921 16.779,12.798 c 18.086,13.794 23.329,8.966 6.653,-6.126 -13.12,-11.873 -12.77,-14.892 2.531,-21.863 l 12.659,-5.768 v -78.089 -78.09 L 305.885,111.801 287.719,101.083 303.665,82.921 C 324.019,59.74 319.089,53.767 297.151,75.03 276.268,95.271 276.915,95.32 233.582,70.231 205.251,53.829 197.468,46.801 197.468,37.619 c 0,-13.709 -5.411,-18.346 -14.707,-12.601 M 181.29,69.62 c -1.089,5.572 -6.361,8.861 -14.201,8.861 -7.841,0 -13.113,3.289 -14.201,8.861 -1.288,6.592 1.605,8.861 11.298,8.861 11.101,0 13.029,2.247 13.029,15.189 0,8.355 -2.278,15.19 -5.063,15.19 -2.785,0 -5.063,-2.522 -5.063,-5.605 0,-3.082 -3.418,-4.293 -7.595,-2.69 -4.178,1.603 -7.595,0.973 -7.595,-1.4 0,-2.372 5.126,-5.96 11.392,-7.972 10.276,-3.301 10.463,-3.903 1.908,-6.146 -5.216,-1.367 -15.79,2.177 -23.498,7.875 l -14.014,10.361 -9.413,-10.609 c -5.177,-5.835 -7.135,-11.51 -4.35,-12.611 2.785,-1.1 17.595,-9.707 32.911,-19.126 C 179.207,58.753 183.64,57.59 181.29,69.62 m 50.448,11.296 c 34.663,19.361 34.284,18.851 24.076,32.329 -6.948,9.173 -7.551,9.137 -20.775,-1.266 -7.491,-5.892 -17.3,-10.641 -21.798,-10.552 -7.201,0.142 -7.119,0.964 0.683,6.887 10.858,8.242 11.58,13.931 1.266,9.973 -4.177,-1.603 -7.595,-0.392 -7.595,2.69 0,3.083 -1.952,5.605 -4.337,5.605 -2.385,0 -4.094,-6.83 -3.797,-15.178 0.438,-12.349 2.732,-15.181 12.303,-15.19 8.496,-0.008 11.274,-2.473 10.001,-8.872 -1.133,-5.701 -5.55,-8.335 -12.384,-7.386 -7.25,1.006 -11.504,-1.899 -13.401,-9.15 -1.528,-5.844 -1.207,-9.925 0.713,-9.07 1.921,0.855 17.691,9.486 35.045,19.18 M 105.12,117.272 c 4.465,4.465 4.284,9.036 -0.75,18.988 -9.191,18.17 -21.881,46.976 -24.893,56.505 -2.886,9.129 9.025,58.716 16.172,67.328 9.128,10.998 -7.555,26.241 -20.907,19.103 -18.711,-10.005 -17.68,-145.738 1.207,-158.909 14.877,-10.375 21.162,-11.025 29.171,-3.015 m 193.866,1.845 14.938,7.725 v 73.11 c 0,80.465 -6.741,97.39 -30.298,76.071 -10.696,-9.68 -19.712,-1.399 -10.527,9.669 4.447,5.359 -2.615,11.43 -33.944,29.18 l -39.56,22.413 0.202,-31.399 c 0.186,-28.715 0.988,-30.982 9.387,-26.519 10.814,5.746 22.296,-1.743 24.689,-16.102 1.359,-8.154 2.795,-8.512 10.702,-2.673 8.434,6.229 7.371,8.008 -13.924,23.301 -27.76,19.936 -30.505,31.102 -6.6,26.852 46.698,-8.305 87.558,-102.373 61.238,-140.986 -3.744,-5.493 -6.808,-13.758 -6.808,-18.367 0,-4.609 -3.316,-11.132 -7.368,-14.495 -18.131,-15.047 4.831,-29.695 27.873,-17.78 m -182.53,25.187 c -3.579,4.312 -7.646,6.7 -9.038,5.308 -1.393,-1.393 0.396,-6.06 3.974,-10.371 3.579,-4.312 7.646,-6.701 9.038,-5.309 1.393,1.393 -0.396,6.06 -3.974,10.372 m 13.267,17.048 c -10.776,11.908 -9.871,61.784 1.188,65.431 4.958,1.636 5.916,-0.712 3.456,-8.462 -3.673,-11.576 1.929,-14.177 10.999,-5.107 4.117,4.117 0.957,9.712 -11.816,20.927 -9.589,8.419 -18.207,14.435 -19.152,13.368 -9.115,-10.293 -16.714,-34.091 -12.84,-40.213 2.539,-4.013 4.651,-14.508 4.694,-23.322 0.087,-17.99 19.907,-44.595 27.552,-36.984 2.875,2.862 1.296,8.421 -4.081,14.362 m 126.913,-3.507 c 6.445,6.055 11.718,16.16 11.718,22.455 0,6.295 2.103,16.976 4.673,23.736 3.534,9.295 2.263,16.253 -5.213,28.546 l -9.885,16.256 -16.812,-14.293 c -11.98,-10.184 -15.397,-16.111 -11.889,-20.621 7.637,-9.817 15.288,-7.464 12.343,3.798 -3.041,11.628 2.638,13.322 10.978,3.272 7.489,-9.023 1.725,-53.591 -8.446,-65.298 -10.963,-12.62 -1.452,-10.989 12.533,2.149 m -84.484,6.534 c 0,9.203 -18.528,19.645 -28.244,15.917 -10.741,-4.122 -8.702,-12.929 4.193,-18.113 16.855,-6.775 24.051,-6.118 24.051,2.196 m 56.029,-2.176 c 9.966,5.334 13.681,20.075 5.06,20.075 -12.114,0 -30.709,-10.654 -30.709,-17.596 0,-8.924 11.525,-10.038 25.649,-2.479 m -33.786,12.895 c 5.874,15.308 3.437,21.517 -7.34,18.699 -6.506,-1.701 -9.355,-5.478 -7.595,-10.066 1.55,-4.039 2.818,-9.436 2.818,-11.993 0,-7.683 8.818,-5.238 12.117,3.36 m 15.666,56.548 c 2.749,6.265 6.737,11.392 8.861,11.392 2.125,0 3.863,2.632 3.863,5.848 0,3.499 -3.72,2.482 -9.26,-2.532 -13.854,-12.538 -44.081,-10.922 -53.744,2.874 -4.335,6.189 -7.882,8.305 -7.882,4.702 0,-3.604 2.848,-9.728 6.329,-13.61 3.481,-3.881 9.389,-10.685 13.129,-15.119 9.614,-11.396 32.553,-7.577 38.704,6.445 m -53.472,44.185 c 5.725,1.817 12.708,1.883 15.518,0.146 3.236,-2 5.108,8.949 5.108,29.88 v 33.038 L 136.884,315.324 C 104.848,296.601 97.715,290.355 102.2,284.951 c 4.572,-5.509 8.149,-3.929 18.811,8.312 8.893,10.208 18.78,15.603 30.462,16.622 18.976,1.654 27.756,-8.822 12.239,-14.604 -5.105,-1.902 -16.117,-8.161 -24.471,-13.909 -8.355,-5.749 -16.163,-11.053 -17.352,-11.787 -1.189,-0.734 2.228,-4.553 7.595,-8.486 8.626,-6.322 10.159,-6.074 13.226,2.138 1.908,5.11 8.154,10.777 13.879,12.594"
       inkscape:connector-curvature="0"
       style="fill:#000000;fill-rule:evenodd;stroke:none" />
  </g>
</svg>
