<?xml version="1.0" encoding="UTF-8" standalone="no"?>
<svg
   xmlns:dc="http://purl.org/dc/elements/1.1/"
   xmlns:cc="http://creativecommons.org/ns#"
   xmlns:rdf="http://www.w3.org/1999/02/22-rdf-syntax-ns#"
   xmlns:svg="http://www.w3.org/2000/svg"
   xmlns="http://www.w3.org/2000/svg"
   xmlns:sodipodi="http://sodipodi.sourceforge.net/DTD/sodipodi-0.dtd"
   xmlns:inkscape="http://www.inkscape.org/namespaces/inkscape"
   id="svg"
   version="1.1"
   width="240.89925"
   height="80.416885"
   viewBox="0 0 240.89925 80.416885"
   sodipodi:docname="RocketLAuncher.svg"
   inkscape:version="0.92.4 (5da689c313, 2019-01-14)">
  <metadata
     id="metadata182">
    <rdf:RDF>
      <cc:Work
         rdf:about="">
        <dc:format>image/svg+xml</dc:format>
        <dc:type
           rdf:resource="http://purl.org/dc/dcmitype/StillImage" />
      </cc:Work>
    </rdf:RDF>
  </metadata>
  <defs
     id="defs180" />
  <sodipodi:namedview
     pagecolor="#ffffff"
     bordercolor="#666666"
     borderopacity="1"
     objecttolerance="10"
     gridtolerance="10"
     guidetolerance="10"
     inkscape:pageopacity="0"
     inkscape:pageshadow="2"
     inkscape:window-width="640"
     inkscape:window-height="480"
     id="namedview178"
     showgrid="false"
     inkscape:zoom="0.59"
     inkscape:cx="62.96572"
     inkscape:cy="199.94808"
     inkscape:window-x="0"
     inkscape:window-y="0"
     inkscape:window-maximized="0"
     inkscape:current-layer="svg" />
  <g
     id="svgg"
     transform="translate(-69.91275,-178.85322)">
    <path
       id="path0"
       d="m 222.298,180.393 c -0.379,0.444 -0.955,0.807 -1.279,0.807 -0.323,0 -1.301,0.72 -2.172,1.6 l -1.584,1.6 h -4.408 c -2.533,0 -4.514,0.172 -4.657,0.404 -0.362,0.585 0.17,1.996 0.753,1.996 1.313,0 1.929,0.986 1.384,2.216 -0.713,1.611 -2.509,3.384 -3.428,3.384 -1.935,0 -3.236,-2.738 -1.744,-3.67 1.444,-0.902 0.95,-1.098 -3.063,-1.216 l -3.9,-0.114 -0.206,-1.6 c -0.197,-1.529 -0.229,-1.56 -0.714,-0.7 -0.28,0.495 -0.674,0.9 -0.876,0.9 -0.781,0 -2.446,2.104 -2.326,2.941 0.108,0.759 0.439,0.882 2.837,1.059 2.992,0.22 3.469,0.59 3.479,2.7 0.009,2.021 -1.151,2.9 -3.83,2.9 -1.832,0 -2.37,0.163 -2.979,0.9 l -0.744,0.9 -1.6,-0.9 c -1.039,-0.584 -2.273,-0.901 -3.52,-0.903 -1.244,-0.001 -2.344,-0.282 -3.121,-0.797 -0.908,-0.601 -1.882,-0.796 -4,-0.8 -2.118,-0.004 -3.092,-0.199 -4,-0.8 -0.918,-0.608 -1.879,-0.795 -4.086,-0.797 -2.475,-0.003 -2.947,-0.117 -3.314,-0.803 -0.588,-1.099 -15.2,-1.264 -15.2,-0.171 0,0.437 0.303,0.589 0.997,0.5 2.969,-0.384 4.786,3.55 2.634,5.702 l -1.169,1.169 h -5.433 c -4.612,0 -5.651,0.117 -6.88,0.776 -2.27,1.217 -18.68,1.244 -19.437,0.032 -0.741,-1.186 -5.278,-1.192 -5.912,-0.008 -0.4,0.747 -0.838,0.8 -6.651,0.8 -5.617,0 -6.322,-0.078 -7.24,-0.8 -0.886,-0.697 -1.623,-0.8 -5.732,-0.8 h -4.715 l -1.369,-1.6 -1.37,-1.6 h -8.656 -8.656 l -0.565,1.351 c -0.31,0.743 -0.763,1.474 -1.005,1.624 -0.243,0.15 -0.441,0.852 -0.441,1.56 0,0.792 -0.308,1.551 -0.8,1.972 -1.095,0.938 -1.095,3.81 0,5.202 0.44,0.56 0.8,1.508 0.8,2.107 0,1.673 3.132,6.184 4.293,6.184 1.343,0 1.911,1.204 2.107,4.467 l 0.2,3.333 4.734,0.113 4.734,0.113 1.966,-2.062 c 1.209,-1.267 1.966,-2.422 1.966,-2.998 0,-0.528 0.349,-1.125 0.8,-1.366 0.564,-0.302 0.8,-0.838 0.8,-1.814 0,-2.67 0.754,-2.964 7.591,-2.962 3.942,0.002 6.321,-0.164 6.911,-0.481 1.057,-0.569 6.798,-0.557 8.999,0.019 1.633,0.427 4.521,0.512 16.699,0.492 8.607,-0.014 8.474,-0.041 8.669,1.746 0.13,1.189 0.157,1.201 2.839,1.318 2.174,0.096 2.805,0.273 3.196,0.9 0.339,0.542 0.933,0.782 1.938,0.782 0.844,0 1.875,0.334 2.467,0.8 0.56,0.44 1.396,0.8 1.858,0.8 0.462,0 1.149,0.36 1.526,0.8 0.619,0.723 1.18,0.8 5.827,0.8 h 5.142 l 1.169,1.169 c 1.447,1.447 1.639,3.752 0.369,4.431 -0.606,0.324 -0.8,0.838 -0.8,2.118 0,1.256 0.205,1.818 0.8,2.189 0.44,0.275 0.8,0.867 0.8,1.315 0,1.195 3.725,4.778 4.967,4.778 0.595,0 1.179,0.326 1.433,0.8 0.235,0.44 0.754,0.8 1.151,0.8 0.398,0 1.77,0.36 3.049,0.8 1.279,0.44 2.836,0.8 3.459,0.8 0.701,0 1.325,0.306 1.634,0.8 0.275,0.44 0.72,0.8 0.989,0.8 0.269,0 0.683,0.36 0.918,0.8 0.279,0.521 0.838,0.8 1.6,0.8 0.762,0 1.321,0.279 1.6,0.8 0.238,0.446 0.838,0.8 1.352,0.8 0.508,0 1.25,0.36 1.648,0.8 0.398,0.44 0.942,0.8 1.208,0.8 0.266,0 0.929,0.35 1.473,0.778 0.559,0.439 1.929,0.881 3.154,1.015 1.191,0.132 3.515,0.404 5.165,0.606 8.945,1.093 9.197,1.018 9.204,-2.728 0.004,-2.145 0.092,-2.349 1.596,-3.671 0.961,-0.845 1.594,-1.756 1.596,-2.297 0.002,-0.493 0.364,-1.121 0.804,-1.396 0.44,-0.275 0.8,-0.65 0.8,-0.834 0,-1.495 2.399,-2.673 5.469,-2.686 l 3.131,-0.012 -1.1,-0.821 c -1.882,-1.404 -1.639,-4.916 0.4,-5.776 4.941,-2.082 7.417,-1.01 7.219,3.126 l -0.119,2.485 -1.52,0.246 c -0.837,0.135 -1.728,0.453 -1.98,0.705 -0.253,0.253 -0.975,0.46 -1.605,0.46 -1.052,0 -1.135,0.107 -1.02,1.3 0.163,1.692 2.822,2.111 4.586,0.723 0.576,-0.452 1.216,-0.823 1.424,-0.823 0.69,0 2.715,-2.327 2.715,-3.12 0,-0.43 0.28,-1.015 0.623,-1.299 0.343,-0.285 0.874,-1.117 1.18,-1.849 0.666,-1.595 0.946,-1.627 2.986,-0.339 0.917,0.579 1.674,0.829 1.815,0.6 0.522,-0.845 1.738,-0.32 2.796,1.207 1.502,2.167 2.258,2.046 5,-0.8 l 2.312,-2.4 h 2.955 c 4.486,0 6.25,2.188 3.083,3.826 -2.697,1.394 -0.163,4.174 3.805,4.174 2.207,0 2.684,0.125 3.045,0.8 0.429,0.802 2.4,1.154 2.4,0.429 0,-0.205 0.303,-0.674 0.672,-1.044 0.63,-0.63 0.63,-0.696 0,-1.049 -0.405,-0.227 -0.672,-0.871 -0.672,-1.624 0,-0.687 -0.263,-1.54 -0.585,-1.895 -1.705,-1.884 -0.649,-2.226 6.448,-2.09 6.318,0.122 6.65,0.09 7.203,-0.7 0.449,-0.641 1.012,-0.827 2.503,-0.827 1.317,0 2.243,-0.252 2.94,-0.8 0.713,-0.56 1.623,-0.8 3.04,-0.8 1.613,0 2.11,-0.162 2.451,-0.8 0.235,-0.44 0.758,-0.8 1.16,-0.8 0.403,0 1.19,-0.36 1.749,-0.8 0.56,-0.44 1.14,-0.8 1.291,-0.8 0.151,0 0.731,-0.36 1.291,-0.8 0.857,-0.674 1.623,-0.8 4.867,-0.8 3.37,0 3.91,-0.096 4.332,-0.772 0.265,-0.425 0.983,-0.83 1.596,-0.9 1.005,-0.115 1.104,-0.265 1.016,-1.528 -0.054,-0.77 -0.075,-1.76 -0.047,-2.2 0.028,-0.44 0.091,-4.845 0.14,-9.789 l 0.089,-8.988 -1.111,-1.112 C 307.67,195.609 307.62,195.6 302.4,195.6 h -5.262 l -1.153,1.153 -1.153,1.154 -10e-4,8.146 c 0,10.792 1.345,9.763 -12.736,9.754 l -10.877,-0.007 -1.095,-1.095 -1.096,-1.096 0.032,-7.129 c 0.021,-4.65 0.196,-7.436 0.504,-8.011 0.631,-1.178 0.022,-1.39 -4.115,-1.434 -2.812,-0.03 -3.253,-0.131 -3.378,-0.775 -0.168,-0.864 2.141,-3.019 3.261,-3.044 1.734,-0.038 3.119,-2.218 2.989,-4.706 -0.118,-2.273 -0.797,-3.179 -1.049,-1.4 -0.206,1.452 -1.887,2.282 -4.502,2.221 -3.646,-0.083 -4.033,-0.309 -3.89,-2.265 L 259,185.4 l 3.724,-0.057 c 4.18,-0.065 4.515,-0.195 3.465,-1.355 -0.406,-0.449 -0.84,-1.575 -0.964,-2.502 L 265,179.8 l -19.8,0.049 c -10.89,0.026 -20.07,0.097 -20.4,0.157 -0.33,0.06 -0.872,-0.009 -1.206,-0.155 -0.364,-0.159 -0.879,0.056 -1.296,0.542 m 36.912,0.619 c 0.681,0.82 0.001,2.306 -1.492,3.261 -0.615,0.394 -1.328,0.988 -1.586,1.321 -0.401,0.52 -2.359,0.606 -13.722,0.606 h -13.256 l -0.768,-1 c -0.571,-0.743 -0.77,-0.833 -0.777,-0.349 -0.026,1.905 -5.509,2.684 -6.649,0.944 -0.699,-1.067 -0.697,-1.117 0.08,-1.747 0.439,-0.356 0.92,-0.963 1.067,-1.348 0.351,-0.917 3.404,-0.998 3.748,-0.1 0.382,0.994 0.945,0.676 0.945,-0.533 0,-0.624 0.12,-1.254 0.267,-1.4 0.628,-0.629 31.611,-0.296 32.143,0.345 m 11.735,7.188 c -0.553,1.439 0.124,1.8 3.376,1.8 3.635,0 4.01,-0.196 2.813,-1.47 -1.08,-1.15 -5.779,-1.4 -6.189,-0.33 m -104.161,3.981 c 0.693,0.834 0.13,2.175 -1.035,2.468 -1.177,0.295 -4.149,-0.916 -4.149,-1.69 0,-1.29 4.232,-1.926 5.184,-0.778 m 81.174,-0.032 c 1.08,1.301 -1.06,2.589 -2.278,1.371 -0.703,-0.703 -0.592,-1.101 0.42,-1.508 1.235,-0.496 1.339,-0.488 1.858,0.137 M 149.2,192.8 c 0,0.22 0.889,0.4 1.976,0.4 1.087,0 2.088,-0.18 2.224,-0.4 0.153,-0.248 -0.596,-0.4 -1.976,-0.4 -1.223,0 -2.224,0.18 -2.224,0.4 m -4.4,1.6 c 0,0.22 0.709,0.4 1.576,0.4 0.867,0 1.688,-0.18 1.824,-0.4 0.151,-0.244 -0.463,-0.4 -1.576,-0.4 -1.003,0 -1.824,0.18 -1.824,0.4 m 129.012,4.138 c -0.116,0.694 -0.166,4.052 -0.111,7.462 l 0.099,6.2 9.309,0.107 9.309,0.108 -0.109,-7.459 -0.109,-7.46 -9.089,-0.11 -9.089,-0.111 -0.21,1.263 M 162.4,201.586 c 1.496,1.15 1.518,7.398 0.03,8.982 -1.079,1.148 -3.119,1.379 -5.104,0.577 -0.619,-0.251 -1.54,-0.432 -2.046,-0.403 -0.506,0.029 -1.439,-0.331 -2.073,-0.8 -0.856,-0.633 -1.476,-0.788 -2.407,-0.602 -0.996,0.199 -1.536,0.026 -2.627,-0.845 -2.767,-2.207 -1.302,-5.015 2.893,-5.546 1.064,-0.135 2.368,-0.516 2.899,-0.848 0.938,-0.588 3.807,-1.159 6.235,-1.242 0.66,-0.023 1.65,0.304 2.2,0.727 m 17.119,3.905 c 0.138,2.899 -0.36,4.109 -1.692,4.109 -1.811,0 -4.294,-3.817 -3.002,-4.615 0.233,-0.145 0.593,-0.706 0.799,-1.247 0.328,-0.864 0.581,-0.969 2.075,-0.861 l 1.701,0.123 0.119,2.491 m 22.299,-2.284 c 0.955,0.363 1.04,0.547 0.786,1.7 -0.157,0.711 -0.274,2.082 -0.26,3.047 0.041,2.796 -1.341,4.337 -2.285,2.546 -0.755,-1.434 -0.325,-7.7 0.529,-7.7 0.088,0 0.642,0.183 1.23,0.407 M 155.6,206.4 c 0,1.495 2.439,1.822 3.186,0.426 0.717,-1.339 0.473,-1.626 -1.386,-1.626 -1.733,0 -1.8,0.044 -1.8,1.2 m 69.1,2.396 c 2.784,1.697 0.851,3.627 -3.58,3.574 -4.6,-0.056 -6.7,-1.603 -4.89,-3.603 1.017,-1.124 6.611,-1.105 8.47,0.029 M 184.2,220.8 c 0,2.147 -1.455,2.745 -2.976,1.224 -1.712,-1.712 -1.016,-3.318 1.361,-3.143 L 184.2,219 v 1.8 m 14.4,0 c 0,2.147 -1.455,2.745 -2.976,1.224 -1.712,-1.712 -1.016,-3.318 1.361,-3.143 L 198.6,219 v 1.8 m 41.17,0.267 c 0.141,0.367 0.1,0.823 -0.09,1.013 -0.453,0.453 -1.68,-0.026 -1.68,-0.656 0,-1.141 1.364,-1.416 1.77,-0.357 m -43.525,4.705 c 0.12,0.315 0.745,0.755 1.387,0.979 l 1.168,0.407 v 5.572 c 0,3.975 -0.143,5.688 -0.5,5.978 -0.832,0.674 -4.664,0.107 -5.128,-0.76 -0.237,-0.443 -0.834,-0.748 -1.464,-0.748 -1.077,0 -3.308,-1.752 -3.308,-2.598 0,-0.273 -0.807,-0.448 -2.067,-0.448 -1.683,0 -2.174,-0.163 -2.648,-0.877 -0.372,-0.56 -0.993,-0.877 -1.72,-0.877 -0.727,0 -1.291,-0.288 -1.565,-0.8 -0.256,-0.478 -0.838,-0.8 -1.445,-0.8 -2.112,0 -4.426,-3.996 -3.088,-5.333 0.592,-0.593 20.146,-0.3 20.378,0.305 m 16.497,0.311 c 0.078,0.203 0.573,0.533 1.1,0.733 1.345,0.511 1.472,6.056 0.158,6.877 -0.44,0.275 -0.8,0.642 -0.8,0.817 0,0.175 -1.254,1.571 -2.786,3.104 -3.367,3.367 -5.993,3.904 -8.139,1.664 -1.408,-1.47 -1.677,-9.6 -0.349,-10.555 0.4,-0.288 0.844,-0.838 0.988,-1.223 0.143,-0.385 0.497,-0.7 0.785,-0.7 0.288,0 0.839,-0.369 1.225,-0.82 0.746,-0.871 7.477,-0.782 7.818,0.103 m 62.474,0.325 c 3.146,1.605 1.847,2.945 -2.633,2.714 -2.716,-0.139 -3.378,-1.127 -1.808,-2.697 1.042,-1.042 2.422,-1.047 4.441,-0.017 m -8.113,5.761 c 0.112,0.112 0.224,0.885 0.25,1.718 l 0.047,1.513 h -1.775 c -1.987,0 -3.117,-1.884 -1.964,-3.274 0.468,-0.564 2.864,-0.534 3.442,0.043 m 3.804,7.431 c -0.377,0.44 -0.915,0.8 -1.196,0.8 -1.647,0 -0.26,1.761 7.774,9.867 5.257,5.304 6.602,6.171 7.031,4.533 0.115,-0.44 0.496,-0.8 0.847,-0.8 1.734,0 0.326,-1.922 -6.157,-8.406 -7.211,-7.21 -7.24,-7.231 -8.299,-5.994 m -59.229,1.875 c 1.81,1.734 0.538,4.925 -1.964,4.925 -3.618,0 -3.029,-5.291 0.664,-5.967 0.098,-0.018 0.683,0.451 1.3,1.042 m 76.022,14.502 c -1.189,0.993 -1.135,1.303 0.2,1.15 0.788,-0.091 1.136,-0.383 1.228,-1.027 0.154,-1.087 -0.232,-1.12 -1.428,-0.123"
       inkscape:connector-curvature="0"
       style="fill:#080808;fill-rule:evenodd;stroke:none" />
    <path
       id="path1"
       d="m -454.23729,206.77966 v 200 h 200 200.000002 v -200 V 6.779661 h -200.000002 -200 V 206.77966 m 265.933,-19.6 c 0.072,0.77 0.477,1.722 0.9,2.116 0.422,0.393 0.767,1.062 0.767,1.486 0,0.423 0.36,0.963 0.8,1.198 2.415,1.293 0.348,8.8 -2.423,8.8 -0.741,0 -2.777,1.628 -2.777,2.221 0,0.479 3.16,0.109 3.6,-0.421 0.563,-0.678 2,-0.815 2,-0.19 0,0.225 0.45,0.581 1,0.79 l 1,0.38 v 8.61 8.61 l 1.5,-0.013 1.5,-0.014 -0.93,-0.775 c -1.428,-1.19 -1.448,-14.331 -0.024,-15.847 l 0.906,-0.965 9.624,0.107 9.624,0.107 0.128,0.9 c 0.144,1.016 0.872,1.241 0.872,0.269 0,-0.347 0.526,-1.157 1.169,-1.8 l 1.169,-1.169 h 6.062 6.062 l 1.175,1.175 1.175,1.175 -0.106,11.892 -0.106,11.892 -1.2,0.391 c -0.66,0.216 -1.344,0.636 -1.52,0.934 -0.234,0.396 -1.364,0.541 -4.211,0.541 -3.396,0 -3.978,0.102 -4.576,0.8 -0.377,0.44 -1.019,0.8 -1.427,0.8 -0.408,0 -1.068,0.36 -1.466,0.8 -0.398,0.44 -1.14,0.8 -1.648,0.8 -0.514,0 -1.114,0.354 -1.352,0.8 -0.344,0.643 -0.838,0.8 -2.518,0.8 -1.656,0 -2.193,0.166 -2.589,0.8 -0.416,0.666 -0.933,0.8 -3.082,0.8 -2.173,0 -2.651,0.127 -3.011,0.8 -0.4,0.747 -0.838,0.8 -6.614,0.8 h -6.186 v 1.786 c 0,1.376 0.183,1.884 0.8,2.214 0.914,0.489 1.063,1.805 0.258,2.28 -0.73,0.432 -1.59,2.124 -1.247,2.454 0.152,0.146 0.549,-0.139 0.882,-0.634 0.428,-0.638 1,-0.9 1.962,-0.9 2.092,0 14.945,12.885 14.945,14.982 0,1.36 0.037,1.392 1.5,1.306 1.753,-0.103 2.664,3.045 1.023,3.535 -0.398,0.119 -1.365,0.554 -2.149,0.966 -1.697,0.892 -2.528,0.547 -2.555,-1.063 -0.017,-0.98 -0.192,-1.143 -1.355,-1.254 -1.174,-0.113 -11.664,-9.704 -11.664,-10.665 0,-0.115 -0.709,-0.883 -1.575,-1.708 -1.143,-1.087 -1.609,-1.883 -1.7,-2.899 -0.102,-1.139 -0.382,-1.528 -1.502,-2.087 -0.757,-0.378 -1.531,-0.963 -1.72,-1.3 -0.253,-0.453 -1.025,-0.613 -2.954,-0.613 -4.006,0 -7.018,-4.065 -4.149,-5.6 1.943,-1.04 1.011,-2.4 -1.644,-2.4 h -2.444 l -2.312,2.4 c -2.532,2.628 -3.902,3.026 -6.238,1.814 -1.012,-0.525 -1.207,-0.516 -1.869,0.083 -1.003,0.907 -2.053,0.227 -2.218,-1.437 -0.137,-1.37 -2.475,-2.007 -2.475,-0.674 0,0.322 -0.36,0.779 -0.8,1.014 -0.478,0.256 -0.8,0.838 -0.8,1.445 0,0.962 -1.912,3.355 -2.68,3.355 -0.188,0 -0.657,0.368 -1.042,0.817 -0.606,0.707 -1.089,0.802 -3.589,0.7 l -2.889,-0.117 -0.2,-1.4 c -0.415,-2.904 -6.106,-1.892 -7.311,1.3 -0.145,0.385 -0.43,0.7 -0.633,0.7 -0.203,0 -0.492,0.49 -0.643,1.089 -0.15,0.599 -0.979,1.742 -1.843,2.539 -1.493,1.378 -1.57,1.568 -1.57,3.862 0,3.462 0.092,3.426 -8.357,3.251 -6.113,-0.127 -7.281,-0.252 -7.937,-0.845 -0.423,-0.383 -1.162,-0.696 -1.641,-0.696 -0.48,0 -1.181,-0.36 -1.558,-0.8 -0.377,-0.44 -0.908,-0.8 -1.182,-0.8 -0.273,0 -0.69,-0.36 -0.925,-0.8 -0.279,-0.521 -0.838,-0.8 -1.6,-0.8 -0.762,0 -1.321,-0.279 -1.6,-0.8 -0.256,-0.478 -0.838,-0.8 -1.445,-0.8 -0.657,0 -1.58,-0.568 -2.602,-1.6 -1.467,-1.482 -1.746,-1.6 -3.793,-1.6 -2.384,0 -6.29,-1.52 -6.709,-2.611 -0.124,-0.324 -0.69,-0.589 -1.257,-0.589 -1.184,0 -4.706,-3.262 -5.198,-4.814 -0.166,-0.522 -0.548,-1.195 -0.849,-1.496 -0.92,-0.92 -0.731,-5.163 0.253,-5.69 1.113,-0.595 1,-1.462 -0.369,-2.831 l -1.169,-1.169 h -5.068 c -4.462,0 -5.189,-0.096 -6.085,-0.8 -0.559,-0.44 -1.444,-0.8 -1.967,-0.8 -0.522,0 -1.258,-0.36 -1.635,-0.8 -0.397,-0.464 -1.18,-0.8 -1.864,-0.8 -0.649,0 -1.528,-0.315 -1.952,-0.7 -0.508,-0.46 -1.686,-0.769 -3.432,-0.9 l -2.659,-0.2 -0.2,-1.4 -0.2,-1.4 -7.444,-0.109 c -6.267,-0.091 -7.524,-0.012 -7.949,0.5 -0.648,0.781 -2.562,0.786 -3.207,0.009 -0.73,-0.879 -18.263,-0.891 -19.424,-0.013 -1.009,0.764 -2.348,0.769 -2.976,0.013 -1.578,-1.901 -6,-0.091 -6,2.456 0,0.906 -0.249,1.449 -0.8,1.744 -0.474,0.254 -0.8,0.838 -0.8,1.433 0,0.672 -0.66,1.665 -1.992,2.997 l -1.993,1.993 -5.507,-0.112 -5.508,-0.111 -0.2,-3 c -0.191,-2.871 -1.043,-4.8 -2.12,-4.8 -0.44,0 -2.68,-2.234 -2.68,-2.673 0,-0.184 -0.36,-0.559 -0.8,-0.834 -0.6,-0.375 -0.8,-0.933 -0.8,-2.234 0,-1.227 -0.234,-1.947 -0.8,-2.459 -1.183,-1.071 -1.183,-6.367 0,-7 0.587,-0.314 0.8,-0.838 0.8,-1.965 0,-0.923 0.257,-1.75 0.642,-2.07 0.353,-0.292 0.798,-0.945 0.99,-1.449 l 0.348,-0.916 h 9.472 9.471 l 1.37,1.6 1.369,1.6 h 4.907 c 4.399,0 4.982,0.083 5.631,0.8 0.657,0.726 1.232,0.8 6.248,0.8 5.114,0 5.556,-0.059 5.952,-0.8 0.373,-0.697 0.838,-0.8 3.6,-0.8 2.762,0 3.227,0.103 3.6,0.8 0.57,1.066 13.13,1.249 13.997,0.204 0.272,-0.328 1.059,-0.602 1.749,-0.61 0.69,-0.007 4.299,-0.115 8.02,-0.239 l 6.767,-0.226 1.133,-1.134 c 2.323,-2.323 1.125,-3.193 -3.98,-2.888 -2.733,0.163 -3.386,0.332 -3.724,0.964 -0.701,1.31 -5.362,0.901 -5.362,-0.471 0,-0.848 0.21,-1.02 1.376,-1.131 0.757,-0.072 1.817,-0.477 2.354,-0.9 0.568,-0.447 1.604,-0.769 2.47,-0.769 0.911,0 1.909,-0.328 2.563,-0.842 1.617,-1.272 16.52,-1.244 17.386,0.033 0.477,0.704 0.983,0.809 3.896,0.809 2.915,0 3.413,0.104 3.848,0.8 0.437,0.7 0.933,0.8 3.981,0.8 2.972,0 3.559,0.112 4.016,0.764 0.417,0.596 1.19,0.81 3.522,0.974 5.661,0.398 8.289,0.071 9.548,-1.188 l 0.965,-0.966 -0.915,-0.973 c -0.721,-0.768 -1.391,-0.999 -3.162,-1.093 l -2.248,-0.118 -0.124,-1.495 c -0.138,-1.665 3.091,-5.505 4.629,-5.505 1.525,0 2.381,1.021 1.589,1.896 -1.016,1.123 -0.549,1.304 3.373,1.304 h 3.533 v -1.12 c 0,-1.869 0.565,-2.08 5.58,-2.084 l 4.62,-0.004 1.4,-1.592 c 0.77,-0.876 1.552,-1.594 1.737,-1.596 0.185,-0.002 0.796,-0.366 1.358,-0.807 0.998,-0.786 1.515,-0.801 22.863,-0.7 l 21.842,0.103 0.133,1.4 m -38.066,1.067 c -0.545,0.544 -0.234,1.427 0.902,2.564 l 1.169,1.169 h 12.617 c 12.207,0 12.631,-0.026 13.045,-0.8 0.235,-0.44 0.618,-0.8 0.85,-0.8 0.446,0 1.914,-1.591 1.937,-2.1 0.016,-0.371 -30.15,-0.404 -30.52,-0.033 m -5.077,2.359 c -0.214,0.564 -0.39,1.104 -0.39,1.2 0,0.096 0.9,0.174 2,0.174 2.302,0 2.316,-0.018 1.054,-1.379 -1.206,-1.301 -2.168,-1.299 -2.664,0.005 m 36.955,2.774 c -0.527,1.373 0.147,1.8 2.842,1.8 h 2.613 v -1.2 -1.2 h -2.613 c -1.953,0 -2.67,0.151 -2.842,0.6 m 18.426,0.829 c 0.866,0.866 0.821,2.928 -0.071,3.244 -0.385,0.137 -1.012,0.516 -1.392,0.843 -0.563,0.482 -0.807,0.499 -1.301,0.09 -0.334,-0.277 -1.518,-0.568 -2.631,-0.646 -1.113,-0.078 -2.193,-0.247 -2.4,-0.375 -0.427,-0.264 -0.516,-3.112 -0.109,-3.518 0.59,-0.591 7.257,-0.285 7.904,0.362 m -71.371,0.448 c 0,0.42 -0.189,0.952 -0.419,1.182 -0.292,0.292 -0.276,0.734 0.054,1.457 l 0.472,1.038 1.147,-1.146 c 1.208,-1.209 1.538,-2.808 0.579,-2.808 -0.312,0 -0.852,-0.109 -1.2,-0.243 -0.441,-0.169 -0.633,-0.011 -0.633,0.52 m -43.2,4.923 c 0,0.22 0.551,0.4 1.224,0.4 0.713,0 1.12,-0.167 0.976,-0.4 -0.136,-0.22 -0.687,-0.4 -1.224,-0.4 -0.537,0 -0.976,0.18 -0.976,0.4 m 129.619,13.5 c 0.02,3.465 -0.085,6.615 -0.234,7 -0.189,0.489 -0.076,0.7 0.372,0.7 0.566,0 0.643,-0.837 0.643,-7 0,-4.504 -0.146,-7 -0.409,-7 -0.263,0 -0.396,2.249 -0.372,6.3 m -134.019,-3.9 c -0.33,0.213 -0.42,0.393 -0.2,0.399 0.22,0.007 0.805,0.12 1.3,0.253 0.662,0.177 0.9,0.07 0.9,-0.405 0,-0.716 -1.07,-0.848 -2,-0.247 m -4.839,1.159 c -1.231,0.132 -2.491,0.443 -2.8,0.689 -0.308,0.246 -1.236,0.569 -2.061,0.718 -3.049,0.549 -1.226,2.64 2.432,2.789 l 2.406,0.099 0.267,-1.427 c 0.352,-1.883 0.854,-2.427 2.244,-2.427 0.633,0 1.151,-0.18 1.151,-0.4 0,-0.422 -0.097,-0.423 -3.639,-0.041 m 22.256,0.513 c -0.738,2.176 -0.353,3.528 1.005,3.528 1.208,0 1.22,-0.021 1.1,-1.9 -0.123,-1.911 -1.617,-3.067 -2.105,-1.628 m -15.917,1.359 c -0.165,0.166 -0.3,1.163 -0.3,2.216 0,1.4 -0.188,2.023 -0.7,2.321 -0.667,0.388 -0.667,0.408 0,0.42 0.385,0.007 0.822,0.057 0.971,0.112 0.149,0.055 0.392,-0.352 0.54,-0.904 0.325,-1.214 -0.089,-4.59 -0.511,-4.165 m -5.9,3.369 c 0.802,0.518 3.32,0.518 3,0 -0.136,-0.22 -1.002,-0.397 -1.924,-0.394 -1.229,0.005 -1.516,0.11 -1.076,0.394 m 61.8,1.6 c 0.138,0.223 2.004,0.4 4.224,0.4 2.384,0 3.976,-0.16 3.976,-0.4 0,-0.241 -1.675,-0.4 -4.224,-0.4 -2.713,0 -4.135,0.143 -3.976,0.4 m -35.145,9.51 c -0.105,0.171 0.243,0.729 0.774,1.24 0.831,0.799 1,0.839 1.211,0.289 0.507,-1.319 -1.269,-2.687 -1.985,-1.529 m 14.381,0.032 c -0.116,0.188 0.228,0.755 0.766,1.26 0.861,0.808 1.007,0.839 1.23,0.258 0.522,-1.36 -1.257,-2.713 -1.996,-1.518 m -19.169,6.325 c -0.932,0.932 1.385,3.733 3.088,3.733 0.607,0 1.189,0.322 1.445,0.8 0.279,0.521 0.838,0.8 1.6,0.8 0.772,0 1.322,0.28 1.611,0.82 0.765,1.431 4.337,0.963 5.383,-0.705 0.443,-0.706 1.121,-1.291 1.506,-1.3 0.953,-0.021 0.914,1.463 -0.047,1.768 -2.687,0.853 -1.723,4.217 1.208,4.217 0.711,0 1.269,0.296 1.551,0.822 0.355,0.664 0.76,0.798 2.114,0.7 l 1.674,-0.122 v -5 -5 l -1.114,-0.128 c -0.613,-0.07 -1.331,-0.475 -1.596,-0.9 -0.49,-0.783 -17.674,-1.255 -18.423,-0.505 m 28.433,1.018 c -0.825,0.43 -1.5,1.027 -1.5,1.328 0,0.301 -0.315,0.723 -0.7,0.939 -1.36,0.761 -1.26,7.428 0.134,8.883 1.923,2.008 3.287,1.672 6.58,-1.621 1.532,-1.533 2.786,-2.899 2.786,-3.037 0,-0.138 0.36,-0.708 0.8,-1.268 2.252,-2.863 0.777,-5.309 -3.202,-5.309 -1.073,0 -2.062,-0.18 -2.198,-0.4 -0.335,-0.543 -0.931,-0.436 -2.7,0.485 m 66.8,0.192 c -1.358,0.352 -0.678,0.923 1.1,0.923 0.99,0 1.8,-0.18 1.8,-0.4 0,-0.22 -0.255,-0.4 -0.567,-0.4 -0.312,0 -0.807,-0.069 -1.1,-0.152 -0.293,-0.084 -0.848,-0.071 -1.233,0.029 m -45.633,1.99 c -1.576,1.575 0.613,3.829 3.676,3.786 3.148,-0.044 3.257,-0.12 3.257,-2.277 v -1.776 h -3.333 c -1.834,0 -3.454,0.12 -3.6,0.267 m 38.301,3.473 c -0.375,0.976 0.098,1.86 0.996,1.86 1.22,0 1.307,-0.594 0.234,-1.602 -0.861,-0.808 -1.007,-0.839 -1.23,-0.258 m -55.901,9.327 c -0.147,0.146 -0.267,0.665 -0.267,1.153 0,0.952 1.634,1.586 2.32,0.9 0.686,-0.686 0.052,-2.32 -0.9,-2.32 -0.488,0 -1.007,0.12 -1.153,0.267"
       inkscape:connector-curvature="0"
       style="fill:#fbfbfb;fill-rule:evenodd;stroke:none" />
    <path
       id="path2"
       d="m 221.967,180.029 c -0.489,0.424 -1.096,0.771 -1.348,0.771 -0.252,0 -1.207,0.72 -2.123,1.6 l -1.665,1.6 h -3.983 c -5.507,0 -7.223,1.326 -4.036,3.119 1.473,0.828 1.349,1.981 -0.402,3.732 -2.035,2.035 -4.465,-0.002 -2.539,-2.129 1.035,-1.144 0.273,-1.477 -3.674,-1.605 L 198.6,187 l 0.096,-1.259 c 0.158,-2.074 -0.882,-1.993 -3.119,0.244 -2.943,2.943 -2.585,4.415 1.074,4.415 2.342,0 3.349,0.67 3.349,2.229 0,1.668 -1.318,2.571 -3.751,2.571 -1.424,0 -2.319,0.203 -2.649,0.6 -0.624,0.752 -1.571,0.747 -2.576,-0.013 -0.461,-0.348 -1.657,-0.587 -2.937,-0.587 -1.555,0 -2.446,-0.224 -3.178,-0.8 -0.799,-0.629 -1.625,-0.801 -3.863,-0.803 -2.167,-0.002 -3.132,-0.192 -4.046,-0.797 -0.918,-0.608 -1.879,-0.795 -4.086,-0.797 -2.475,-0.003 -2.947,-0.117 -3.314,-0.803 -0.405,-0.756 -0.838,-0.8 -7.851,-0.8 -6.817,0 -7.506,0.065 -8.44,0.8 -0.611,0.481 -1.623,0.8 -2.534,0.8 -0.902,0 -1.797,0.279 -2.206,0.688 -0.379,0.379 -1.516,0.784 -2.529,0.9 -2.588,0.298 -2.558,1.366 0.043,1.533 1.545,0.1 1.976,-0.026 2.397,-0.7 0.411,-0.658 0.928,-0.821 2.603,-0.821 1.149,0 2.703,-0.292 3.452,-0.65 2.931,-1.397 5.121,2.097 2.743,4.375 -1.108,1.062 -1.19,1.075 -6.711,1.075 -4.519,0 -5.767,0.125 -6.52,0.652 -1.669,1.169 -18.604,1.35 -19.217,0.205 -0.665,-1.244 -5.771,-1.289 -6.43,-0.057 -0.398,0.744 -0.838,0.8 -6.251,0.8 -5.217,0 -5.929,-0.083 -6.84,-0.8 -0.886,-0.697 -1.623,-0.8 -5.732,-0.8 h -4.715 l -1.369,-1.6 -1.37,-1.6 h -8.861 -8.861 l -1.193,1.9 c -0.656,1.045 -1.196,2.367 -1.2,2.938 -0.005,0.571 -0.368,1.364 -0.808,1.762 -1.12,1.013 -1.12,4.486 0,5.909 0.44,0.56 0.8,1.508 0.8,2.107 0,1.678 3.133,6.184 4.3,6.184 1.207,0 2.064,1.888 2.181,4.805 l 0.119,2.995 5.151,0.112 5.151,0.113 1.947,-2.113 c 1.101,-1.195 1.947,-2.496 1.949,-2.998 0.001,-0.487 0.362,-1.079 0.802,-1.314 0.564,-0.302 0.8,-0.838 0.8,-1.814 0,-2.517 1.028,-3.061 5.529,-2.93 2.129,0.062 6.571,-0.028 9.871,-0.2 3.87,-0.202 7.42,-0.155 10,0.132 5.097,0.568 5.702,0.581 7.4,0.159 0.77,-0.191 4.46,-0.257 8.2,-0.147 l 6.8,0.2 0.2,1.4 0.2,1.4 2.654,0.117 c 2.025,0.09 2.821,0.303 3.362,0.9 0.389,0.431 1.216,0.783 1.836,0.783 0.621,0 1.718,0.359 2.438,0.799 0.721,0.439 1.601,0.799 1.956,0.8 0.355,0 1.104,0.361 1.663,0.801 0.891,0.7 1.623,0.8 5.885,0.8 4.847,0 4.873,0.005 6.037,1.169 1.376,1.376 1.541,3.004 0.369,3.631 -1.14,0.61 -1.14,3.969 0,5 0.44,0.398 0.8,1.065 0.8,1.481 0,1.15 3.757,4.719 4.967,4.719 0.595,0 1.179,0.326 1.433,0.8 0.235,0.44 0.737,0.801 1.114,0.802 0.377,0.002 1.185,0.263 1.796,0.582 0.61,0.318 2.22,0.704 3.578,0.858 2.136,0.241 2.685,0.487 4.071,1.819 0.896,0.86 2.001,1.539 2.508,1.539 0.497,0 1.098,0.36 1.333,0.8 0.282,0.527 0.838,0.8 1.627,0.8 0.705,0 1.294,0.251 1.432,0.61 0.78,2.032 7.223,3.672 15.207,3.869 5.639,0.14 5.432,0.25 5.66,-2.987 0.161,-2.281 0.307,-2.614 1.725,-3.931 0.852,-0.791 1.55,-1.781 1.551,-2.2 0.002,-0.418 0.882,-1.715 1.956,-2.88 l 1.953,-2.12 2.744,0.12 2.745,0.119 0.2,1.4 c 0.493,3.448 9.6,0.288 9.6,-3.332 0,-0.63 0.315,-1.208 0.8,-1.468 0.44,-0.235 0.8,-0.67 0.8,-0.965 0,-1.062 0.934,-1.395 2.3,-0.82 1.074,0.451 1.3,0.765 1.3,1.799 0,0.826 0.17,1.195 0.5,1.082 0.275,-0.094 0.448,-0.531 0.385,-0.972 -0.265,-1.85 1.05,-1.944 2.558,-0.183 2.024,2.365 2.923,2.245 5.713,-0.761 l 2.246,-2.419 2.999,0.119 2.999,0.12 0.12,1.227 c 0.096,0.987 -0.08,1.317 -0.9,1.691 -2.939,1.339 -0.083,4.882 3.935,4.882 2.151,0 2.688,0.134 3.019,0.751 0.695,1.3 2.225,1.275 3.391,-0.054 1.203,-1.371 1.216,-1.431 0.473,-2.266 -0.309,-0.347 -0.624,-1.531 -0.7,-2.631 l -0.138,-2 6.291,-0.11 c 5.794,-0.102 6.325,-0.173 6.714,-0.9 0.34,-0.635 0.842,-0.79 2.555,-0.79 1.526,0 2.421,-0.227 3.149,-0.8 0.713,-0.56 1.623,-0.8 3.04,-0.8 1.613,0 2.11,-0.162 2.451,-0.8 0.235,-0.44 0.758,-0.8 1.16,-0.8 0.403,0 1.161,-0.326 1.686,-0.724 2.774,-2.104 3.902,-2.476 7.515,-2.476 3.007,0 3.62,-0.116 4.239,-0.8 0.398,-0.44 1.034,-0.8 1.413,-0.8 1.408,0 1.514,-0.844 1.528,-12.153 l 0.014,-11.153 -1.147,-1.147 -1.146,-1.147 h -5.662 -5.662 l -1.161,1.161 -1.161,1.161 -0.108,8.511 -0.108,8.51 -1.19,0.318 c -0.655,0.175 -1.336,0.173 -1.513,-0.004 -0.177,-0.177 -4.835,-0.256 -10.352,-0.176 -7.441,0.108 -10.182,0.021 -10.614,-0.338 -0.481,-0.4 -0.568,-1.935 -0.498,-8.84 l 0.085,-8.357 -1.127,-0.585 c -0.773,-0.401 -1.257,-0.455 -1.539,-0.173 -0.532,0.532 -4.527,0.538 -4.855,0.008 -0.324,-0.526 1.944,-2.796 2.794,-2.796 2.83,0 5.018,-6.711 2.609,-8 -0.44,-0.235 -0.8,-0.668 -0.8,-0.96 0,-0.293 -0.346,-0.972 -0.769,-1.51 -0.423,-0.537 -0.828,-1.597 -0.9,-2.354 L 265.4,179.4 244.128,179.329 c -20.49,-0.069 -21.304,-0.043 -22.161,0.7 m 2.833,-0.023 c 0.33,-0.06 9.51,-0.131 20.4,-0.157 l 19.8,-0.049 0.225,1.686 c 0.124,0.927 0.558,2.053 0.964,2.502 1.05,1.16 0.715,1.29 -3.465,1.355 L 259,185.4 l -0.121,1.666 c -0.143,1.956 0.244,2.182 3.89,2.265 2.615,0.061 4.296,-0.769 4.502,-2.221 0.252,-1.779 0.931,-0.873 1.049,1.4 0.13,2.488 -1.255,4.668 -2.989,4.706 -1.12,0.025 -3.429,2.18 -3.261,3.044 0.125,0.644 0.566,0.745 3.378,0.775 4.137,0.044 4.746,0.256 4.115,1.434 -0.308,0.575 -0.483,3.361 -0.504,8.011 l -0.032,7.129 1.096,1.096 1.095,1.095 10.877,0.007 c 14.081,0.009 12.736,1.038 12.736,-9.754 l 10e-4,-8.146 1.153,-1.154 1.153,-1.153 h 5.262 c 5.22,0 5.27,0.009 6.373,1.111 l 1.111,1.112 -0.089,8.988 c -0.049,4.944 -0.112,9.349 -0.14,9.789 -0.028,0.44 -0.007,1.43 0.047,2.2 0.088,1.263 -0.011,1.413 -1.016,1.528 -0.613,0.07 -1.331,0.475 -1.596,0.9 -0.422,0.676 -0.962,0.772 -4.332,0.772 -3.244,0 -4.01,0.126 -4.867,0.8 -0.56,0.44 -1.14,0.8 -1.291,0.8 -0.151,0 -0.731,0.36 -1.291,0.8 -0.559,0.44 -1.346,0.8 -1.749,0.8 -0.402,0 -0.925,0.36 -1.16,0.8 -0.341,0.638 -0.838,0.8 -2.451,0.8 -1.417,0 -2.327,0.24 -3.04,0.8 -0.697,0.548 -1.623,0.8 -2.94,0.8 -1.491,0 -2.054,0.186 -2.503,0.827 -0.553,0.79 -0.885,0.822 -7.203,0.7 -7.097,-0.136 -8.153,0.206 -6.448,2.09 0.322,0.355 0.585,1.208 0.585,1.895 0,0.753 0.267,1.397 0.672,1.624 0.63,0.353 0.63,0.419 0,1.049 -0.369,0.37 -0.672,0.839 -0.672,1.044 0,0.725 -1.971,0.373 -2.4,-0.429 -0.361,-0.675 -0.838,-0.8 -3.045,-0.8 -3.968,0 -6.502,-2.78 -3.805,-4.174 3.167,-1.638 1.403,-3.826 -3.083,-3.826 h -2.955 l -2.312,2.4 c -2.742,2.846 -3.498,2.967 -5,0.8 -1.058,-1.527 -2.274,-2.052 -2.796,-1.207 -0.141,0.229 -0.898,-0.021 -1.815,-0.6 -2.04,-1.288 -2.32,-1.256 -2.986,0.339 -0.306,0.732 -0.837,1.564 -1.18,1.849 -0.343,0.284 -0.623,0.869 -0.623,1.299 0,0.793 -2.025,3.12 -2.715,3.12 -0.208,0 -0.848,0.371 -1.424,0.823 -1.764,1.388 -4.423,0.969 -4.586,-0.723 -0.115,-1.193 -0.032,-1.3 1.02,-1.3 0.63,0 1.352,-0.207 1.605,-0.46 0.252,-0.252 1.143,-0.57 1.98,-0.705 l 1.52,-0.246 0.119,-2.485 c 0.198,-4.136 -2.278,-5.208 -7.219,-3.126 -2.039,0.86 -2.282,4.372 -0.4,5.776 l 1.1,0.821 -3.131,0.012 c -3.07,0.013 -5.469,1.191 -5.469,2.686 0,0.184 -0.36,0.559 -0.8,0.834 -0.44,0.275 -0.802,0.903 -0.804,1.396 -0.002,0.541 -0.635,1.452 -1.596,2.297 -1.504,1.322 -1.592,1.526 -1.596,3.671 -0.007,3.746 -0.259,3.821 -9.204,2.728 -1.65,-0.202 -3.974,-0.474 -5.165,-0.606 -1.225,-0.134 -2.595,-0.576 -3.154,-1.015 -0.544,-0.428 -1.207,-0.778 -1.473,-0.778 -0.266,0 -0.81,-0.36 -1.208,-0.8 -0.398,-0.44 -1.14,-0.8 -1.648,-0.8 -0.514,0 -1.114,-0.354 -1.352,-0.8 -0.279,-0.521 -0.838,-0.8 -1.6,-0.8 -0.762,0 -1.321,-0.279 -1.6,-0.8 -0.235,-0.44 -0.649,-0.8 -0.918,-0.8 -0.269,0 -0.714,-0.36 -0.989,-0.8 -0.309,-0.494 -0.933,-0.8 -1.634,-0.8 -0.623,0 -2.18,-0.36 -3.459,-0.8 -1.279,-0.44 -2.651,-0.8 -3.049,-0.8 -0.397,0 -0.916,-0.36 -1.151,-0.8 -0.254,-0.474 -0.838,-0.8 -1.433,-0.8 -1.242,0 -4.967,-3.583 -4.967,-4.778 0,-0.448 -0.36,-1.04 -0.8,-1.315 -0.595,-0.371 -0.8,-0.933 -0.8,-2.189 0,-1.28 0.194,-1.794 0.8,-2.118 1.27,-0.679 1.078,-2.984 -0.369,-4.431 l -1.169,-1.169 h -5.142 c -4.647,0 -5.208,-0.077 -5.827,-0.8 -0.377,-0.44 -1.064,-0.8 -1.526,-0.8 -0.462,0 -1.298,-0.36 -1.858,-0.8 -0.592,-0.466 -1.623,-0.8 -2.467,-0.8 -1.005,0 -1.599,-0.24 -1.938,-0.782 -0.391,-0.627 -1.022,-0.804 -3.196,-0.9 -2.682,-0.117 -2.709,-0.129 -2.839,-1.318 -0.195,-1.787 -0.062,-1.76 -8.669,-1.746 -12.178,0.02 -15.066,-0.065 -16.699,-0.492 -2.201,-0.576 -7.942,-0.588 -8.999,-0.019 -0.59,0.317 -2.969,0.483 -6.911,0.481 -6.837,-0.002 -7.591,0.292 -7.591,2.962 0,0.976 -0.236,1.512 -0.8,1.814 -0.451,0.241 -0.8,0.838 -0.8,1.366 0,0.576 -0.757,1.731 -1.966,2.998 l -1.966,2.062 -4.734,-0.113 L 79,223.4 78.8,220.067 c -0.196,-3.263 -0.764,-4.467 -2.107,-4.467 -1.161,0 -4.293,-4.511 -4.293,-6.184 0,-0.599 -0.36,-1.547 -0.8,-2.107 -1.095,-1.392 -1.095,-4.264 0,-5.202 0.492,-0.421 0.8,-1.18 0.8,-1.972 0,-0.708 0.198,-1.41 0.441,-1.56 0.242,-0.15 0.695,-0.881 1.005,-1.624 l 0.565,-1.351 h 8.656 8.656 l 1.37,1.6 1.369,1.6 h 4.715 c 4.109,0 4.846,0.103 5.732,0.8 0.918,0.722 1.623,0.8 7.24,0.8 5.813,0 6.251,-0.053 6.651,-0.8 0.634,-1.184 5.171,-1.178 5.912,0.008 0.757,1.212 17.167,1.185 19.437,-0.032 1.229,-0.659 2.268,-0.776 6.88,-0.776 h 5.433 l 1.169,-1.169 c 2.152,-2.152 0.335,-6.086 -2.634,-5.702 -0.694,0.089 -0.997,-0.063 -0.997,-0.5 0,-1.093 14.612,-0.928 15.2,0.171 0.367,0.686 0.839,0.8 3.314,0.803 2.207,0.002 3.168,0.189 4.086,0.797 0.908,0.601 1.882,0.796 4,0.8 2.118,0.004 3.092,0.199 4,0.8 0.777,0.515 1.877,0.796 3.121,0.797 1.247,0.002 2.481,0.319 3.52,0.903 l 1.6,0.9 0.744,-0.9 c 0.609,-0.737 1.147,-0.9 2.979,-0.9 2.679,0 3.839,-0.879 3.83,-2.9 -0.01,-2.11 -0.487,-2.48 -3.479,-2.7 -2.398,-0.177 -2.729,-0.3 -2.837,-1.059 -0.12,-0.837 1.545,-2.941 2.326,-2.941 0.202,0 0.596,-0.405 0.876,-0.9 0.485,-0.86 0.517,-0.829 0.714,0.7 l 0.206,1.6 3.9,0.114 c 4.013,0.118 4.507,0.314 3.063,1.216 -1.492,0.932 -0.191,3.67 1.744,3.67 0.919,0 2.715,-1.773 3.428,-3.384 0.545,-1.23 -0.071,-2.216 -1.384,-2.216 -0.583,0 -1.115,-1.411 -0.753,-1.996 0.143,-0.232 2.124,-0.404 4.657,-0.404 h 4.408 l 1.584,-1.6 c 0.871,-0.88 1.849,-1.6 2.172,-1.6 0.324,0 0.9,-0.363 1.279,-0.807 0.417,-0.486 0.932,-0.701 1.296,-0.542 0.334,0.146 0.876,0.215 1.206,0.155 m 2.267,0.661 c -0.147,0.146 -0.267,0.776 -0.267,1.4 0,1.209 -0.563,1.527 -0.945,0.533 -0.344,-0.898 -3.397,-0.817 -3.748,0.1 -0.147,0.385 -0.628,0.992 -1.067,1.348 -0.777,0.63 -0.779,0.68 -0.08,1.747 1.14,1.74 6.623,0.961 6.649,-0.944 0.007,-0.484 0.206,-0.394 0.777,0.349 l 0.768,1 h 13.256 c 11.363,0 13.321,-0.086 13.722,-0.606 0.258,-0.333 0.971,-0.927 1.586,-1.321 1.493,-0.955 2.173,-2.441 1.492,-3.261 -0.532,-0.641 -31.515,-0.974 -32.143,-0.345 m 31.911,0.497 c 0.399,0.646 -0.21,1.566 -2.016,3.046 l -1.767,1.447 -12.853,0.028 -12.854,0.027 -0.749,-0.956 -0.749,-0.956 -0.828,1.1 c -1.072,1.423 -5.962,1.621 -5.962,0.241 0,-2.075 3.235,-3.449 4.591,-1.95 0.888,0.981 1.409,0.704 1.409,-0.748 0,-0.61 0.12,-1.23 0.267,-1.376 0.414,-0.414 31.254,-0.319 31.511,0.097 m 7.007,4.819 c 0.991,0.626 0.053,2.536 -1.391,2.831 -3.591,0.734 -6.057,-0.51 -5.238,-2.643 0.254,-0.663 5.637,-0.816 6.629,-0.188 m 4.571,1.788 c -0.7,1.823 -0.065,2.42 2.84,2.669 4.565,0.391 5.924,-0.356 4.052,-2.229 -1.209,-1.208 -6.468,-1.544 -6.892,-0.44 m 6.578,0.759 c 1.197,1.274 0.822,1.47 -2.813,1.47 -3.252,0 -3.929,-0.361 -3.376,-1.8 0.41,-1.07 5.109,-0.82 6.189,0.33 M 162.3,192.032 c -1.119,0.652 -0.819,1.393 0.875,2.157 2.538,1.144 5.061,-0.259 3.609,-2.008 -0.556,-0.67 -3.426,-0.765 -4.484,-0.149 m 83.8,-0.02 c -1.012,0.407 -1.123,0.805 -0.42,1.508 1.218,1.218 3.358,-0.07 2.278,-1.371 -0.519,-0.625 -0.623,-0.633 -1.858,-0.137 M 166.2,193 c 0,1.028 -2.051,1.301 -3.2,0.425 -1.071,-0.816 -0.177,-1.477 1.8,-1.329 1.099,0.082 1.4,0.276 1.4,0.904 m -12.8,-0.2 c -0.136,0.22 -1.137,0.4 -2.224,0.4 -1.087,0 -1.976,-0.18 -1.976,-0.4 0,-0.22 1.001,-0.4 2.224,-0.4 1.38,0 2.129,0.152 1.976,0.4 m 94.123,0.03 c -0.078,0.237 -0.314,0.43 -0.523,0.43 -0.209,0 -0.445,-0.193 -0.523,-0.43 -0.079,-0.236 0.156,-0.43 0.523,-0.43 0.367,0 0.602,0.194 0.523,0.43 M 148.2,194.4 c -0.136,0.22 -0.957,0.4 -1.824,0.4 -0.867,0 -1.576,-0.18 -1.576,-0.4 0,-0.22 0.821,-0.4 1.824,-0.4 1.113,0 1.727,0.156 1.576,0.4 m 125.407,2.992 c -0.789,0.95 -0.828,14.696 -0.044,15.295 0.977,0.748 18.174,0.712 18.797,-0.039 0.317,-0.382 0.425,-2.871 0.349,-8.1 L 292.6,197 l -9.272,-0.075 c -7.379,-0.059 -9.364,0.036 -9.721,0.467 m 18.702,7.564 0.109,7.459 -9.309,-0.108 -9.309,-0.107 -0.099,-6.2 c -0.055,-3.41 -0.005,-6.768 0.111,-7.462 l 0.21,-1.263 9.089,0.111 9.089,0.11 0.109,7.46 m -135.344,-3.758 c -1.12,0.165 -2.47,0.571 -3,0.903 -0.531,0.332 -1.835,0.713 -2.899,0.848 -4.195,0.531 -5.66,3.339 -2.893,5.546 1.091,0.871 1.631,1.044 2.627,0.845 0.931,-0.186 1.551,-0.031 2.407,0.602 0.634,0.469 1.567,0.829 2.073,0.8 0.506,-0.029 1.427,0.152 2.046,0.403 4.1,1.657 6.074,-0.033 6.074,-5.2 0,-5.015 -0.764,-5.579 -6.435,-4.747 m 4.96,0.818 c 1.001,0.933 0.996,0.908 0.88,4.38 -0.142,4.219 -1.975,5.822 -4.805,4.204 -0.55,-0.314 -1.519,-0.578 -2.153,-0.586 -0.634,-0.008 -1.765,-0.393 -2.515,-0.856 -0.981,-0.606 -1.722,-0.774 -2.651,-0.6 -1.489,0.28 -3.481,-1.197 -3.481,-2.58 0,-1.04 1.999,-2.227 4.341,-2.578 1.023,-0.154 2.219,-0.473 2.659,-0.71 0.737,-0.398 4.764,-1.331 6.225,-1.442 0.343,-0.027 1.018,0.319 1.5,0.768 m 13.699,1.722 c -0.206,0.541 -0.566,1.102 -0.799,1.247 -1.292,0.798 1.191,4.615 3.002,4.615 1.332,0 1.83,-1.21 1.692,-4.109 L 179.4,203 l -1.701,-0.123 c -1.494,-0.108 -1.747,-0.003 -2.075,0.861 m 24.435,-0.238 c -0.988,1.877 -0.277,7.7 0.941,7.7 0.849,0 1.373,-1.267 1.344,-3.246 -0.014,-0.965 0.103,-2.336 0.26,-3.047 0.254,-1.153 0.169,-1.337 -0.786,-1.7 -1.372,-0.522 -1.325,-0.529 -1.759,0.293 M 179,205.756 c 0,2.637 -0.754,3.644 -2.1,2.802 -2.449,-1.53 -1.838,-5.538 0.805,-5.283 L 179,203.4 v 2.356 m 22.444,0.678 c 0.05,2.904 -0.13,3.966 -0.671,3.966 -0.205,0 -0.373,-1.545 -0.373,-3.433 0,-2.57 0.126,-3.391 0.5,-3.266 0.324,0.109 0.516,1.071 0.544,2.733 m -42.773,-2.172 c -0.144,0.144 -0.939,0.373 -1.767,0.507 -2.585,0.42 -2.272,2.943 0.404,3.25 l 1.908,0.22 0.446,-1.49 c 0.589,-1.963 -0.011,-3.467 -0.991,-2.487 m 0.529,1.364 c 0,1.186 -0.884,1.974 -2.214,1.974 -1.273,0 -1.386,-0.098 -1.386,-1.2 0,-1.156 0.067,-1.2 1.8,-1.2 1.007,0 1.8,0.188 1.8,0.426 m 57.03,3.141 c -1.81,2 0.29,3.547 4.89,3.603 4.431,0.053 6.364,-1.877 3.58,-3.574 -1.859,-1.134 -7.453,-1.153 -8.47,-0.029 m 8.885,0.977 c 1.256,1.255 -0.035,1.856 -3.99,1.856 -4.554,0 -6.633,-1.107 -4.425,-2.356 1.107,-0.627 7.679,-0.236 8.415,0.5 m -44.43,9.304 c -1.167,1.167 0.636,3.884 2.439,3.676 0.99,-0.114 1.076,-0.268 1.076,-1.924 V 219 l -1.615,-0.119 c -0.887,-0.065 -1.742,0.01 -1.9,0.167 m 14.4,0 c -1.167,1.167 0.636,3.884 2.439,3.676 0.99,-0.114 1.076,-0.268 1.076,-1.924 V 219 l -1.615,-0.119 c -0.887,-0.065 -1.742,0.01 -1.9,0.167 m -11.159,1.655 c 0.171,1.783 -0.856,2.149 -2.217,0.788 -1.361,-1.361 -0.995,-2.388 0.788,-2.217 1.147,0.111 1.318,0.282 1.429,1.429 m 14.405,-0.154 c 0.162,1.412 -0.38,2.016 -1.491,1.664 -2.095,-0.665 -2.046,-3.141 0.057,-2.939 1.102,0.107 1.323,0.304 1.434,1.275 m 39.936,0.118 c -0.482,0.481 -0.279,1.243 0.4,1.503 0.367,0.141 0.823,0.1 1.013,-0.09 0.19,-0.19 0.231,-0.646 0.09,-1.013 -0.26,-0.679 -1.022,-0.882 -1.503,-0.4 m -62.4,4.8 c -1.338,1.337 0.976,5.333 3.088,5.333 0.607,0 1.189,0.322 1.445,0.8 0.274,0.512 0.838,0.8 1.565,0.8 0.727,0 1.348,0.317 1.72,0.877 0.474,0.714 0.965,0.877 2.648,0.877 1.26,0 2.067,0.175 2.067,0.448 0,0.846 2.231,2.598 3.308,2.598 0.63,0 1.227,0.305 1.464,0.748 0.464,0.867 4.296,1.434 5.128,0.76 0.357,-0.29 0.5,-2.003 0.5,-5.978 v -5.572 l -1.168,-0.407 c -0.642,-0.224 -1.267,-0.664 -1.387,-0.979 -0.232,-0.605 -19.786,-0.898 -20.378,-0.305 m 29.057,0.513 c -0.386,0.451 -0.937,0.82 -1.225,0.82 -0.288,0 -0.642,0.315 -0.785,0.7 -0.144,0.385 -0.588,0.935 -0.988,1.223 -1.328,0.955 -1.059,9.085 0.349,10.555 2.146,2.24 4.772,1.703 8.139,-1.664 1.532,-1.533 2.786,-2.929 2.786,-3.104 0,-0.175 0.36,-0.542 0.8,-0.817 1.314,-0.821 1.187,-6.366 -0.158,-6.877 -0.527,-0.2 -1.022,-0.53 -1.1,-0.733 -0.341,-0.885 -7.072,-0.974 -7.818,-0.103 m -9.499,0.061 c 0.15,0.242 0.881,0.695 1.624,1.005 l 1.351,0.565 -0.006,5.094 c -0.003,2.802 -0.139,5.303 -0.3,5.557 -0.475,0.746 -4.043,0.181 -4.523,-0.716 -0.248,-0.464 -0.836,-0.746 -1.554,-0.746 -0.845,0 -1.512,-0.416 -2.486,-1.548 -1.176,-1.368 -1.538,-1.548 -3.112,-1.546 -1.378,0.002 -1.91,-0.191 -2.349,-0.851 -0.358,-0.54 -0.987,-0.855 -1.705,-0.855 -0.727,0 -1.291,-0.288 -1.565,-0.8 -0.256,-0.478 -0.838,-0.8 -1.445,-0.8 -1.924,0 -4.233,-3.389 -3.088,-4.533 0.478,-0.478 18.858,-0.311 19.158,0.174 m 14.629,-0.036 c 2.93,-0.065 4.346,1.293 4.346,4.168 v 2.494 l -3.557,3.666 c -5.881,6.064 -9.245,5.134 -9.241,-2.555 l 0.002,-3.978 1.36,-1.4 c 2.402,-2.474 3.117,-2.868 4.636,-2.563 0.55,0.11 1.654,0.186 2.454,0.168 m 60.721,0.42 c -1.57,1.57 -0.908,2.558 1.808,2.697 4.48,0.231 5.779,-1.109 2.633,-2.714 -2.019,-1.03 -3.399,-1.025 -4.441,0.017 m 4.238,0.555 c 2.553,1.066 1.289,1.983 -2.408,1.745 -2.106,-0.136 -2.608,-0.664 -1.594,-1.679 0.801,-0.801 2.189,-0.824 4.002,-0.066 m -41.84,1.588 c 0.271,0.326 0.419,1.47 0.349,2.694 l -0.122,2.128 -1.6,0.324 c -0.88,0.178 -2.05,0.412 -2.6,0.521 -1.897,0.374 -3.6,-1.142 -3.6,-3.206 0,-2.159 0.232,-2.321 3.793,-2.651 1.544,-0.144 2.92,-0.287 3.058,-0.319 0.138,-0.033 0.463,0.196 0.722,0.509 m 30.488,3.558 c -1.153,1.39 -0.023,3.274 1.964,3.274 h 1.775 l -0.047,-1.513 c -0.056,-1.821 -0.092,-1.862 -1.822,-2.143 -0.949,-0.154 -1.522,-0.037 -1.87,0.382 m 2.764,0.699 c 1.165,1.165 0.854,2.147 -0.729,2.3 -1.093,0.106 -1.361,-0.043 -1.705,-0.948 -0.75,-1.972 0.898,-2.888 2.434,-1.352 m 3.675,6.72 c -2.162,1.851 -2.368,1.535 7.777,11.887 4.911,5.012 5.479,5.274 7.354,3.399 1.93,-1.931 1.72,-2.292 -5.625,-9.637 -7.231,-7.231 -7.483,-7.38 -9.506,-5.649 m 9.106,6.049 c 6.483,6.484 7.891,8.406 6.157,8.406 -0.351,0 -0.732,0.36 -0.847,0.8 -0.429,1.638 -1.774,0.771 -7.031,-4.533 -8.034,-8.106 -9.421,-9.867 -7.774,-9.867 0.281,0 0.819,-0.36 1.196,-0.8 1.059,-1.237 1.088,-1.216 8.299,5.994 m -70.261,-4.579 c -2.611,1.145 -2.006,5.385 0.769,5.385 1.109,0 3.086,-1.922 3.086,-3 0,-0.729 -1.904,-3.062 -2.422,-2.967 -0.098,0.018 -0.743,0.28 -1.433,0.582 m 2.324,0.847 c 1.397,1.264 0.425,3.738 -1.469,3.738 -2.163,0 -2.874,-3.193 -0.888,-3.992 1.276,-0.514 1.54,-0.485 2.357,0.254 m 75.627,14.043 c -0.717,0.602 -1.299,1.455 -1.293,1.895 0.006,0.508 0.118,0.628 0.308,0.33 0.165,-0.259 1.017,-0.529 1.894,-0.6 1.475,-0.12 1.595,-0.22 1.595,-1.325 0,-1.579 -0.858,-1.682 -2.504,-0.3 m 2.232,0.195 c -0.092,0.644 -0.44,0.936 -1.228,1.027 -1.335,0.153 -1.389,-0.157 -0.2,-1.15 1.196,-0.997 1.582,-0.964 1.428,0.123"
       inkscape:connector-curvature="0"
       style="fill:#6c6c6c;fill-rule:evenodd;stroke:none" />
    <path
       id="path3"
       d="m 207.254,185.251 c -0.03,0.579 0.26,1.297 0.646,1.6 0.609,0.478 0.64,0.471 0.238,-0.051 -0.254,-0.33 -0.544,-1.05 -0.645,-1.6 l -0.184,-1 -0.055,1.051 m 17.051,0.632 c 0.497,0.096 1.217,0.092 1.6,-0.008 0.382,-0.1 -0.025,-0.179 -0.905,-0.174 -0.88,0.004 -1.193,0.086 -0.695,0.182 m 53.009,2.237 c 0.487,0.506 0.96,0.867 1.05,0.803 0.234,-0.168 -1.222,-1.723 -1.612,-1.723 -0.178,0 0.075,0.414 0.562,0.92 M 154.8,192.832 c -0.467,0.327 -0.396,0.363 0.319,0.161 0.537,-0.151 1.203,-0.037 1.6,0.274 0.613,0.48 0.626,0.463 0.132,-0.167 -0.626,-0.798 -1.189,-0.871 -2.051,-0.268 m 112.224,3.381 c -0.428,0.323 -0.599,0.587 -0.38,0.587 0.218,0 0.604,-0.208 0.859,-0.463 0.351,-0.351 0.637,-0.327 1.18,0.1 0.654,0.513 0.668,0.501 0.168,-0.137 -0.658,-0.839 -0.823,-0.847 -1.827,-0.087 m 5.924,8.187 c 0,2.31 0.066,3.255 0.147,2.1 0.081,-1.155 0.081,-3.045 0,-4.2 -0.081,-1.155 -0.147,-0.21 -0.147,2.1 M 148.8,204.2 c -1.306,0.747 -0.849,0.755 0.854,0.016 0.74,-0.322 1.076,-0.585 0.746,-0.586 -0.33,-0.001 -1.05,0.256 -1.6,0.57 m 9.862,-0.3 c -0.102,0.165 0.246,0.326 0.774,0.358 0.527,0.031 0.859,-0.104 0.738,-0.3 -0.269,-0.435 -1.256,-0.473 -1.512,-0.058 m 41.738,0.09 c 0,0.252 0.18,0.346 0.4,0.21 0.234,-0.145 0.4,0.27 0.4,1 0,0.73 -0.166,1.145 -0.4,1 -0.23,-0.142 -0.4,0.223 -0.4,0.856 0,0.838 0.112,0.992 0.464,0.64 0.64,-0.64 0.668,-3.769 0.036,-3.989 -0.275,-0.095 -0.5,0.032 -0.5,0.283 m -40.956,3.377 c -0.182,0.727 -0.445,0.943 -0.948,0.781 -0.589,-0.189 -0.603,-0.157 -0.096,0.208 0.33,0.238 0.715,0.435 0.857,0.438 0.308,0.007 0.855,-2.015 0.611,-2.26 -0.095,-0.094 -0.285,0.281 -0.424,0.833 m 16.718,0.533 c 0.419,0.495 1.139,0.879 1.6,0.854 0.806,-0.045 0.807,-0.054 0.038,-0.242 -0.44,-0.107 -1.16,-0.491 -1.6,-0.853 -0.793,-0.654 -0.794,-0.652 -0.038,0.241 m 25.038,0.833 c 0,0.477 -0.18,0.867 -0.4,0.867 -0.22,0 -0.4,0.18 -0.4,0.4 0,0.22 0.177,0.4 0.392,0.4 0.464,0 1.016,-1.925 0.656,-2.285 -0.136,-0.137 -0.248,0.142 -0.248,0.618 m 16.5,0.343 c 0.385,0.1 1.015,0.1 1.4,0 0.385,-0.101 0.07,-0.183 -0.7,-0.183 -0.77,0 -1.085,0.082 -0.7,0.183 m -101.6,3.6 c 0.385,0.1 1.015,0.1 1.4,0 0.385,-0.101 0.07,-0.183 -0.7,-0.183 -0.77,0 -1.085,0.082 -0.7,0.183 m 157.366,1.817 c -0.256,0.163 3.637,0.239 8.651,0.168 5.014,-0.071 9.21,0.022 9.325,0.206 0.21,0.341 2.125,0.037 2.638,-0.419 0.403,-0.357 -20.055,-0.313 -20.614,0.045 m -63.561,11.79 c 0.497,0.096 1.217,0.092 1.6,-0.008 0.382,-0.1 -0.025,-0.179 -0.905,-0.174 -0.88,0.004 -1.193,0.086 -0.695,0.182 m 62.195,0.393 c 0.385,0.1 1.015,0.1 1.4,0 0.385,-0.101 0.07,-0.183 -0.7,-0.183 -0.77,0 -1.085,0.082 -0.7,0.183 m 2.9,0.602 c 0.44,0.249 0.932,0.649 1.094,0.888 0.202,0.299 0.296,0.283 0.3,-0.052 0.003,-0.267 -0.342,-0.672 -0.768,-0.9 -1.052,-0.563 -1.629,-0.505 -0.626,0.064 m -22.825,2.822 -1.175,1.3 1.3,-1.175 c 1.212,-1.095 1.484,-1.425 1.175,-1.425 -0.069,0 -0.654,0.585 -1.3,1.3 m -10.623,1.587 c 0.185,1.111 0.241,1.168 0.367,0.367 0.082,-0.521 -0.016,-1.111 -0.218,-1.313 -0.222,-0.222 -0.28,0.152 -0.149,0.946 m -27.52,0.282 c -0.018,0.312 -0.34,0.942 -0.717,1.4 -0.646,0.784 -0.632,0.782 0.247,-0.027 0.513,-0.472 0.835,-1.102 0.717,-1.4 -0.175,-0.439 -0.222,-0.434 -0.247,0.027 m -2.525,11.057 c 0.12,0.626 -0.09,1.334 -0.558,1.888 l -0.749,0.886 0.9,-0.762 c 0.891,-0.755 1.218,-2.394 0.558,-2.802 -0.188,-0.117 -0.256,0.239 -0.151,0.79 m -3.867,0.412 c -0.044,0.925 1.102,2.165 1.991,2.156 0.313,-0.003 0.127,-0.23 -0.414,-0.503 -0.54,-0.274 -1.107,-0.946 -1.26,-1.494 -0.24,-0.864 -0.283,-0.886 -0.317,-0.159 m -6.74,5.638 c 0.385,0.1 1.015,0.1 1.4,0 0.385,-0.101 0.07,-0.183 -0.7,-0.183 -0.77,0 -1.085,0.082 -0.7,0.183 m 5.411,0.417 c 0.94,0.085 2.38,0.084 3.2,-0.002 0.819,-0.086 0.049,-0.155 -1.711,-0.154 -1.76,0.002 -2.43,0.072 -1.489,0.156 m 78.917,8.407 c -0.029,0.943 0.35,1.149 0.992,0.539 0.209,-0.199 0.74,-0.448 1.18,-0.554 0.605,-0.145 0.531,-0.204 -0.3,-0.239 -0.625,-0.026 -1.112,0.17 -1.128,0.454 -0.016,0.275 -0.183,0.14 -0.372,-0.3 -0.328,-0.763 -0.345,-0.759 -0.372,0.1"
       inkscape:connector-curvature="0"
       style="fill:#848484;fill-rule:evenodd;stroke:none" />
    <path
       id="path4"
       d="m 221.095,179.597 c -0.562,0.441 -1.173,0.805 -1.358,0.807 -0.185,0.002 -0.967,0.72 -1.737,1.596 l -1.4,1.592 -4.62,0.004 c -5.015,0.004 -5.58,0.215 -5.58,2.084 v 1.12 h -3.533 c -3.922,0 -4.389,-0.181 -3.373,-1.304 0.792,-0.875 -0.064,-1.896 -1.589,-1.896 -1.538,0 -4.767,3.84 -4.629,5.505 l 0.124,1.495 2.248,0.118 c 1.771,0.094 2.441,0.325 3.162,1.093 l 0.915,0.973 -0.965,0.966 c -1.259,1.259 -3.887,1.586 -9.548,1.188 -2.332,-0.164 -3.105,-0.378 -3.522,-0.974 -0.457,-0.652 -1.044,-0.764 -4.016,-0.764 -3.048,0 -3.544,-0.1 -3.981,-0.8 -0.435,-0.696 -0.933,-0.8 -3.848,-0.8 -2.913,0 -3.419,-0.105 -3.896,-0.809 -0.866,-1.277 -15.769,-1.305 -17.386,-0.033 -0.654,0.514 -1.652,0.842 -2.563,0.842 -0.866,0 -1.902,0.322 -2.47,0.769 -0.537,0.423 -1.597,0.828 -2.354,0.9 -1.166,0.111 -1.376,0.283 -1.376,1.131 0,1.372 4.661,1.781 5.362,0.471 0.338,-0.632 0.991,-0.801 3.724,-0.964 5.105,-0.305 6.303,0.565 3.98,2.888 l -1.133,1.134 -6.767,0.226 c -3.721,0.124 -7.33,0.232 -8.02,0.239 -0.69,0.008 -1.477,0.282 -1.749,0.61 -0.867,1.045 -13.427,0.862 -13.997,-0.204 -0.373,-0.697 -0.838,-0.8 -3.6,-0.8 -2.762,0 -3.227,0.103 -3.6,0.8 -0.396,0.741 -0.838,0.8 -5.952,0.8 -5.016,0 -5.591,-0.074 -6.248,-0.8 -0.649,-0.717 -1.232,-0.8 -5.631,-0.8 h -4.907 l -1.369,-1.6 -1.37,-1.6 H 83.052 73.58 l -0.348,0.916 c -0.192,0.504 -0.637,1.157 -0.99,1.449 -0.385,0.32 -0.642,1.147 -0.642,2.07 0,1.127 -0.213,1.651 -0.8,1.965 -1.183,0.633 -1.183,5.929 0,7 0.566,0.512 0.8,1.232 0.8,2.459 0,1.301 0.2,1.859 0.8,2.234 0.44,0.275 0.8,0.65 0.8,0.834 0,0.439 2.24,2.673 2.68,2.673 1.077,0 1.929,1.929 2.12,4.8 l 0.2,3 5.508,0.111 5.507,0.112 1.993,-1.993 c 1.332,-1.332 1.992,-2.325 1.992,-2.997 0,-0.595 0.326,-1.179 0.8,-1.433 0.551,-0.295 0.8,-0.838 0.8,-1.744 0,-2.547 4.422,-4.357 6,-2.456 0.628,0.756 1.967,0.751 2.976,-0.013 1.161,-0.878 18.694,-0.866 19.424,0.013 0.645,0.777 2.559,0.772 3.207,-0.009 0.425,-0.512 1.682,-0.591 7.949,-0.5 l 7.444,0.109 0.2,1.4 0.2,1.4 2.659,0.2 c 1.746,0.131 2.924,0.44 3.432,0.9 0.424,0.385 1.303,0.7 1.952,0.7 0.684,0 1.467,0.336 1.864,0.8 0.377,0.44 1.113,0.8 1.635,0.8 0.523,0 1.408,0.36 1.967,0.8 0.896,0.704 1.623,0.8 6.085,0.8 h 5.068 l 1.169,1.169 c 1.369,1.369 1.482,2.236 0.369,2.831 -0.984,0.527 -1.173,4.77 -0.253,5.69 0.301,0.301 0.683,0.974 0.849,1.496 0.492,1.552 4.014,4.814 5.198,4.814 0.567,0 1.133,0.265 1.257,0.589 0.419,1.091 4.325,2.611 6.709,2.611 2.047,0 2.326,0.118 3.793,1.6 1.022,1.032 1.945,1.6 2.602,1.6 0.607,0 1.189,0.322 1.445,0.8 0.279,0.521 0.838,0.8 1.6,0.8 0.762,0 1.321,0.279 1.6,0.8 0.235,0.44 0.652,0.8 0.925,0.8 0.274,0 0.805,0.36 1.182,0.8 0.377,0.44 1.078,0.8 1.558,0.8 0.479,0 1.218,0.313 1.641,0.696 0.656,0.593 1.824,0.718 7.937,0.845 8.449,0.175 8.357,0.211 8.357,-3.251 0,-2.294 0.077,-2.484 1.57,-3.862 0.864,-0.797 1.693,-1.94 1.843,-2.539 0.151,-0.599 0.44,-1.089 0.643,-1.089 0.203,0 0.488,-0.315 0.633,-0.7 1.205,-3.192 6.896,-4.204 7.311,-1.3 l 0.2,1.4 2.889,0.117 c 2.5,0.102 2.983,0.007 3.589,-0.7 0.385,-0.449 0.854,-0.817 1.042,-0.817 0.768,0 2.68,-2.393 2.68,-3.355 0,-0.607 0.322,-1.189 0.8,-1.445 0.44,-0.235 0.8,-0.692 0.8,-1.014 0,-1.333 2.338,-0.696 2.475,0.674 0.165,1.664 1.215,2.344 2.218,1.437 0.662,-0.599 0.857,-0.608 1.869,-0.083 2.336,1.212 3.706,0.814 6.238,-1.814 l 2.312,-2.4 h 2.444 c 2.655,0 3.587,1.36 1.644,2.4 -2.869,1.535 0.143,5.6 4.149,5.6 1.929,0 2.701,0.16 2.954,0.613 0.189,0.337 0.963,0.922 1.72,1.3 1.12,0.559 1.4,0.948 1.502,2.087 0.091,1.016 0.557,1.812 1.7,2.899 0.866,0.825 1.575,1.593 1.575,1.708 0,0.961 10.49,10.552 11.664,10.665 1.163,0.111 1.338,0.274 1.355,1.254 0.027,1.61 0.858,1.955 2.555,1.063 0.784,-0.412 1.751,-0.847 2.149,-0.966 1.641,-0.49 0.73,-3.638 -1.023,-3.535 -1.463,0.086 -1.5,0.054 -1.5,-1.306 0,-2.097 -12.853,-14.982 -14.945,-14.982 -0.962,0 -1.534,0.262 -1.962,0.9 -0.333,0.495 -0.73,0.78 -0.882,0.634 -0.343,-0.33 0.517,-2.022 1.247,-2.454 0.805,-0.475 0.656,-1.791 -0.258,-2.28 -0.617,-0.33 -0.8,-0.838 -0.8,-2.214 V 230.8 h 6.186 c 5.776,0 6.214,-0.053 6.614,-0.8 0.36,-0.673 0.838,-0.8 3.011,-0.8 2.149,0 2.666,-0.134 3.082,-0.8 0.396,-0.634 0.933,-0.8 2.589,-0.8 1.68,0 2.174,-0.157 2.518,-0.8 0.238,-0.446 0.838,-0.8 1.352,-0.8 0.508,0 1.25,-0.36 1.648,-0.8 0.398,-0.44 1.058,-0.8 1.466,-0.8 0.408,0 1.05,-0.36 1.427,-0.8 0.598,-0.698 1.18,-0.8 4.576,-0.8 2.847,0 3.977,-0.145 4.211,-0.541 0.176,-0.298 0.86,-0.718 1.52,-0.934 l 1.2,-0.391 0.106,-11.892 0.106,-11.892 -1.175,-1.175 -1.175,-1.175 h -6.062 -6.062 l -1.169,1.169 c -0.643,0.643 -1.169,1.453 -1.169,1.8 0,0.972 -0.728,0.747 -0.872,-0.269 l -0.128,-0.9 -9.624,-0.107 -9.624,-0.107 -0.906,0.965 c -1.424,1.516 -1.404,14.657 0.024,15.847 l 0.93,0.775 -1.5,0.014 -1.5,0.013 v -8.61 -8.61 l -1,-0.38 c -0.55,-0.209 -1,-0.565 -1,-0.79 0,-0.625 -1.437,-0.488 -2,0.19 -0.44,0.53 -3.6,0.9 -3.6,0.421 0,-0.593 2.036,-2.221 2.777,-2.221 2.771,0 4.838,-7.507 2.423,-8.8 -0.44,-0.235 -0.8,-0.775 -0.8,-1.198 0,-0.424 -0.345,-1.093 -0.767,-1.486 -0.423,-0.394 -0.828,-1.346 -0.9,-2.116 L 265.8,179 243.958,178.897 c -21.348,-0.101 -21.865,-0.086 -22.863,0.7 m 44.439,0.984 c 0.074,0.649 0.479,1.618 0.9,2.154 0.421,0.535 0.766,1.191 0.766,1.457 0,0.266 0.36,0.81 0.8,1.208 2.145,1.941 0.398,8.2 -2.289,8.2 -0.828,0 -2.911,1.948 -2.911,2.722 0,0.708 3.253,0.596 4.315,-0.148 0.826,-0.578 0.974,-0.562 1.963,0.216 l 1.069,0.841 -0.105,8.094 c -0.118,9.102 0.117,9.927 2.644,9.295 0.613,-0.153 5.704,-0.311 11.314,-0.349 l 10.2,-0.071 0.079,-8.357 0.08,-8.356 1.095,-1.144 1.096,-1.143 h 5.85 5.85 l 1.081,1.128 1.082,1.129 -0.107,11.538 -0.106,11.539 -1.2,0.391 c -0.66,0.216 -1.344,0.636 -1.52,0.934 -0.232,0.393 -1.337,0.541 -4.046,0.541 -3.026,0 -3.905,0.14 -4.68,0.745 -0.525,0.41 -1.343,0.867 -1.818,1.015 -0.475,0.149 -1.082,0.534 -1.349,0.855 -0.267,0.322 -0.795,0.585 -1.174,0.585 -0.379,0 -1.015,0.36 -1.413,0.8 -0.517,0.571 -1.232,0.8 -2.499,0.8 -1.169,0 -2.122,0.273 -2.792,0.8 -0.721,0.568 -1.623,0.8 -3.101,0.8 -1.576,0 -2.26,0.195 -2.808,0.8 -0.662,0.731 -1.232,0.8 -6.638,0.8 -4.264,0 -6,0.138 -6.22,0.494 -0.53,0.858 -0.106,3.271 0.733,4.176 l 0.807,0.869 -1.141,1.431 c -1.35,1.692 -2.069,1.776 -3.668,0.43 -0.969,-0.815 -1.617,-1 -3.509,-1 -3.824,0 -6.165,-3.259 -3.564,-4.963 2.224,-1.458 0.98,-3.037 -2.393,-3.037 h -2.432 l -2.375,2.4 c -2.952,2.983 -4.321,3.208 -6.083,1 -1.37,-1.717 -2.117,-1.795 -2.117,-0.224 0,2.093 -1.354,1.812 -1.662,-0.345 -0.156,-1.093 -2.364,-2.154 -2.656,-1.276 -0.087,0.261 -0.591,0.989 -1.12,1.618 -0.529,0.628 -0.962,1.488 -0.962,1.91 0,0.789 -1.208,2.043 -3.51,3.645 -1.948,1.355 -5.825,1.144 -6.028,-0.328 -0.412,-2.977 -4.653,-2.966 -7.402,0.019 -1.023,1.11 -1.86,2.288 -1.86,2.617 0,0.329 -0.81,1.464 -1.8,2.523 -1.684,1.8 -1.8,2.067 -1.8,4.134 0,3.238 -0.099,3.278 -7.339,2.979 -7.463,-0.308 -12.575,-1.867 -14.074,-4.293 -0.129,-0.209 -0.646,-0.379 -1.149,-0.379 -0.503,0 -1.24,-0.36 -1.638,-0.8 -0.398,-0.44 -1.137,-0.8 -1.642,-0.8 -0.505,0 -1.062,-0.228 -1.238,-0.507 -0.952,-1.507 -3.037,-2.693 -4.736,-2.693 -1.99,0 -5.576,-1.28 -6.81,-2.43 -0.454,-0.424 -1.181,-0.77 -1.615,-0.77 -1.021,0 -4.429,-3.481 -4.769,-4.871 -0.144,-0.589 -0.516,-1.168 -0.826,-1.288 -0.934,-0.358 -0.755,-4.344 0.236,-5.241 1.112,-1.007 1.004,-1.752 -0.478,-3.281 l -1.279,-1.319 h -5.072 c -3.921,0 -5.181,-0.13 -5.55,-0.574 -0.262,-0.316 -1.049,-0.7 -1.749,-0.852 -0.699,-0.153 -1.701,-0.615 -2.226,-1.026 -0.525,-0.411 -1.41,-0.748 -1.968,-0.748 -0.558,0 -1.363,-0.315 -1.787,-0.7 -0.508,-0.46 -1.686,-0.769 -3.432,-0.9 -2.527,-0.19 -2.665,-0.253 -2.783,-1.271 -0.219,-1.894 -0.639,-1.979 -8.738,-1.764 -4.146,0.11 -8.168,0.215 -8.938,0.235 -0.77,0.019 -4.01,-0.162 -7.2,-0.404 -4.329,-0.328 -6.967,-0.32 -10.4,0.03 -4.885,0.498 -4.953,0.499 -8.482,0.136 -2.689,-0.276 -4.318,0.84 -4.318,2.958 0,0.648 -0.351,1.474 -0.8,1.88 -0.44,0.398 -0.8,1.074 -0.8,1.502 0,0.429 -0.85,1.666 -1.888,2.749 l -1.889,1.971 -5.211,-0.111 -5.212,-0.111 -0.12,-2.769 -0.12,-2.769 -3.18,-3.13 C 72.294,212.292 72,211.86 72,210.455 c 0,-0.941 -0.313,-1.945 -0.8,-2.564 -1.138,-1.446 -1.138,-5.424 0,-6.398 0.44,-0.377 0.8,-1.15 0.8,-1.718 0,-0.568 0.467,-1.83 1.038,-2.804 l 1.038,-1.771 h 9.023 9.024 l 1.477,1.6 1.477,1.6 h 4.698 c 4.093,0 4.83,0.103 5.716,0.8 0.905,0.712 1.623,0.8 6.501,0.8 4.976,0 5.551,-0.074 6.208,-0.8 1.063,-1.175 5.748,-1.163 6.816,0.018 1.024,1.131 16.663,0.846 18.858,-0.344 0.555,-0.301 2.915,-0.474 6.469,-0.474 h 5.595 l 1.231,-1.231 c 2.16,-2.16 0.427,-5.004 -2.44,-4.004 -0.687,0.239 -2.205,0.435 -3.375,0.435 -1.734,0 -2.207,0.151 -2.565,0.82 -0.37,0.693 -0.761,0.801 -2.514,0.7 -2.699,-0.156 -2.899,-1.157 -0.319,-1.598 0.966,-0.165 2.046,-0.551 2.4,-0.858 0.354,-0.307 1.423,-0.657 2.375,-0.778 0.952,-0.12 2.06,-0.516 2.462,-0.88 1.21,-1.094 15.41,-0.931 16.605,0.192 0.698,0.656 1.402,0.802 3.866,0.802 2.504,0 3.134,0.135 3.736,0.8 0.605,0.668 1.232,0.8 3.808,0.8 2.478,0 3.284,0.157 4.101,0.8 0.718,0.564 1.623,0.8 3.074,0.8 1.131,0 2.615,0.289 3.298,0.642 1.138,0.589 1.27,0.589 1.6,0 0.261,-0.468 0.955,-0.642 2.557,-0.642 2.633,0 4.421,-1.319 3.942,-2.907 -0.425,-1.407 -0.777,-1.595 -3.459,-1.852 -2.416,-0.231 -2.527,-0.289 -2.653,-1.395 -0.135,-1.182 3.057,-5.046 4.168,-5.046 0.77,0 1.354,0.969 0.964,1.6 -0.723,1.169 0.367,1.6 4.049,1.6 3.513,0 5.133,1.018 2.951,1.855 -0.833,0.32 -0.75,0.934 0.275,2.025 l 0.875,0.931 1.325,-1.284 c 1.644,-1.593 1.725,-2.892 0.225,-3.609 -1.211,-0.579 -1.705,-2.215 -0.835,-2.767 0.294,-0.186 2.43,-0.342 4.746,-0.345 l 4.21,-0.006 1.59,-1.587 c 0.874,-0.873 1.794,-1.593 2.045,-1.6 0.25,-0.007 0.88,-0.368 1.4,-0.802 0.917,-0.766 1.562,-0.786 22.344,-0.7 l 21.4,0.089 0.134,1.181 m -37.854,0.699 c -0.858,0.858 -0.513,2.094 0.899,3.22 l 1.378,1.1 h 12.561 12.56 l 1.926,-1.743 c 3.434,-3.109 3.665,-3.057 -13.711,-3.057 -11.237,0 -15.257,0.124 -15.613,0.48 m 30.707,0.22 c -0.023,0.509 -1.491,2.1 -1.937,2.1 -0.232,0 -0.615,0.36 -0.85,0.8 -0.414,0.774 -0.838,0.8 -13.045,0.8 h -12.617 l -1.169,-1.169 c -1.136,-1.137 -1.447,-2.02 -0.902,-2.564 0.37,-0.371 30.536,-0.338 30.52,0.033 m -36.161,2.302 -1.069,1.401 0.921,0.334 c 1.173,0.424 4.435,0.104 4.798,-0.471 0.343,-0.541 -1.97,-2.666 -2.901,-2.666 -0.374,0 -1.161,0.631 -1.749,1.402 m 3.228,0.019 c 1.262,1.361 1.248,1.379 -1.054,1.379 -1.1,0 -2,-0.078 -2,-0.174 0,-2.077 1.645,-2.726 3.054,-1.205 m 34.226,2.259 c -1.478,1.478 -0.144,2.72 2.92,2.72 2.609,0 3.4,-0.427 3.4,-1.837 0,-1.364 -5.124,-2.079 -6.32,-0.883 m 5.52,1.12 v 1.2 h -2.613 c -2.695,0 -3.369,-0.427 -2.842,-1.8 0.172,-0.449 0.889,-0.6 2.842,-0.6 h 2.613 v 1.2 m 5.067,-0.133 c -0.407,0.406 -0.318,3.254 0.109,3.518 0.207,0.128 1.287,0.297 2.4,0.375 1.113,0.078 2.297,0.369 2.631,0.646 0.494,0.409 0.738,0.392 1.301,-0.09 0.38,-0.327 1.007,-0.706 1.392,-0.843 0.892,-0.316 0.937,-2.378 0.071,-3.244 -0.647,-0.647 -7.314,-0.953 -7.904,-0.362 m -61.634,0.533 c 0.959,0 0.629,1.599 -0.579,2.808 l -1.147,1.146 -0.472,-1.038 c -0.33,-0.723 -0.346,-1.165 -0.054,-1.457 0.23,-0.23 0.419,-0.762 0.419,-1.182 0,-0.531 0.192,-0.689 0.633,-0.52 0.348,0.134 0.888,0.243 1.2,0.243 m 69.036,0.262 c 1.98,1.793 0.304,3.065 -3.675,2.788 -3.401,-0.236 -4.869,-1.641 -3.327,-3.183 0.598,-0.599 6.256,-0.279 7.002,0.395 m -114.466,4.527 c -0.731,0.463 -0.229,1.008 1.251,1.355 1.299,0.306 2.482,-0.76 1.52,-1.368 -0.743,-0.471 -2.015,-0.464 -2.771,0.013 m 2.597,0.411 c 0.144,0.233 -0.263,0.4 -0.976,0.4 -0.673,0 -1.224,-0.18 -1.224,-0.4 0,-0.22 0.439,-0.4 0.976,-0.4 0.537,0 1.088,0.18 1.224,0.4 m 126.85,4.48 c 0.418,0.677 0.174,15.241 -0.263,15.687 -0.541,0.55 -18.148,0.389 -19.052,-0.175 -0.848,-0.529 -0.991,-12.748 -0.174,-14.892 l 0.419,-1.1 h 9.386 c 6.871,0 9.466,0.129 9.684,0.48 M 294,207 c 0,6.163 -0.077,7 -0.643,7 -0.448,0 -0.561,-0.211 -0.372,-0.7 0.149,-0.385 0.254,-3.535 0.234,-7 -0.024,-4.051 0.109,-6.3 0.372,-6.3 0.263,0 0.409,2.496 0.409,7 m -136.573,-5.104 c -0.865,0.088 -1.94,0.418 -2.389,0.733 -0.449,0.314 -1.142,0.571 -1.54,0.571 -1.061,0 -5.656,1.608 -5.949,2.082 -0.858,1.389 1.06,3.009 3.562,3.009 1.018,0 1.997,0.264 2.429,0.654 0.398,0.36 1.102,0.655 1.565,0.655 0.464,0 1.35,0.201 1.969,0.447 1.773,0.704 3.612,1.073 3.995,0.802 1.152,-0.819 1.624,-2.399 1.557,-5.205 -0.096,-4.004 -0.42,-4.238 -5.199,-3.748 m 3.773,0.751 c 0,0.475 -0.238,0.582 -0.9,0.405 -0.495,-0.133 -1.08,-0.246 -1.3,-0.253 -0.22,-0.006 -0.13,-0.186 0.2,-0.399 0.93,-0.601 2,-0.469 2,0.247 M 158,203.6 c 0,0.22 -0.518,0.4 -1.151,0.4 -1.39,0 -1.892,0.544 -2.244,2.427 l -0.267,1.427 -2.406,-0.099 c -3.658,-0.149 -5.481,-2.24 -2.432,-2.789 0.825,-0.149 1.753,-0.472 2.061,-0.718 0.474,-0.378 2.386,-0.708 5.739,-0.989 0.385,-0.033 0.7,0.121 0.7,0.341 m 18.223,0.489 c -1.285,1.834 -0.327,4.311 1.666,4.311 0.998,0 1.311,-0.713 1.311,-2.99 0,-2.331 -1.732,-3.099 -2.977,-1.321 m -16.139,1.117 c -0.242,2.908 -0.519,3.669 -1.222,3.357 -0.364,-0.161 -1.337,-0.372 -2.162,-0.47 -1.532,-0.181 -1.652,-0.348 -1.503,-2.093 0.101,-1.186 0.622,-1.586 2.079,-1.594 0.592,-0.003 1.194,-0.196 1.338,-0.428 0.612,-0.991 1.587,-0.177 1.47,1.228 m 18.638,0.494 c 0.12,1.879 0.108,1.9 -1.1,1.9 -1.229,0 -1.466,-0.455 -1.25,-2.4 0.284,-2.574 2.179,-2.171 2.35,0.5 m 21.897,-1.2 c -0.167,0.385 -0.167,1.015 0,1.4 0.29,0.667 0.313,0.667 0.472,0 0.283,-1.181 -0.088,-2.281 -0.472,-1.4 m -39.408,5.096 c -0.148,0.552 -0.391,0.959 -0.54,0.904 -0.149,-0.055 -0.586,-0.105 -0.971,-0.112 -0.667,-0.012 -0.667,-0.032 0,-0.42 0.512,-0.298 0.7,-0.921 0.7,-2.321 0,-1.053 0.135,-2.05 0.3,-2.216 0.422,-0.425 0.836,2.951 0.511,4.165 m 39.456,-1.729 c -0.415,0.415 -0.314,1.733 0.133,1.733 0.22,0 0.4,-0.45 0.4,-1 0,-1.047 -0.092,-1.174 -0.533,-0.733 M 157.8,208.8 c 0.32,0.518 -2.198,0.518 -3,0 -0.44,-0.284 -0.153,-0.389 1.076,-0.394 0.922,-0.003 1.788,0.174 1.924,0.394 m 58.672,0.913 c -0.85,1.025 0.148,1.515 3.361,1.65 4.066,0.172 5.367,-0.062 5.367,-0.966 0,-1.234 -7.767,-1.842 -8.728,-0.684 m 8.328,0.687 c 0,0.24 -1.592,0.4 -3.976,0.4 -2.22,0 -4.086,-0.177 -4.224,-0.4 -0.159,-0.257 1.263,-0.4 3.976,-0.4 2.549,0 4.224,0.159 4.224,0.4 m -43.519,9.279 c -0.372,0.372 -0.241,0.728 0.588,1.593 1.195,1.248 2.131,0.95 2.131,-0.678 0,-1.295 -1.75,-1.884 -2.719,-0.915 m 14.333,0.104 c -0.714,0.86 1.343,2.917 2.203,2.203 0.321,-0.266 0.583,-0.786 0.583,-1.155 0,-1.475 -1.853,-2.172 -2.786,-1.048 m -12.159,0.417 c 0.528,1.375 -0.199,1.938 -1.226,0.95 -0.531,-0.511 -0.879,-1.069 -0.774,-1.24 0.335,-0.541 1.761,-0.334 2,0.29 m 14.4,0 c 0.534,1.389 -0.209,1.983 -1.253,1.002 -0.538,-0.505 -0.882,-1.072 -0.766,-1.26 0.35,-0.567 1.773,-0.385 2.019,0.258 m -21.375,5.88 c -1.109,1.109 1.105,4.32 2.977,4.32 0.45,0 1.145,0.36 1.543,0.8 0.398,0.44 1.118,0.8 1.6,0.8 0.482,0 1.202,0.36 1.6,0.8 0.532,0.587 1.232,0.8 2.635,0.8 1.551,0 1.958,0.149 2.162,0.79 0.34,1.072 2.113,2.41 3.195,2.41 0.486,0 1.21,0.36 1.608,0.8 1.089,1.204 4.101,1.135 4.409,-0.1 0.593,-2.386 0.012,-9.604 -0.809,-10.041 -0.44,-0.235 -1.288,-0.749 -1.884,-1.143 -1.352,-0.893 -18.17,-1.102 -19.036,-0.236 m 18.61,0.692 c 0.265,0.425 0.983,0.83 1.596,0.9 l 1.114,0.128 v 5 5 l -1.674,0.122 c -1.354,0.098 -1.759,-0.036 -2.114,-0.7 -0.282,-0.526 -0.84,-0.822 -1.551,-0.822 -2.931,0 -3.895,-3.364 -1.208,-4.217 0.961,-0.305 1,-1.789 0.047,-1.768 -0.385,0.009 -1.063,0.594 -1.506,1.3 -1.046,1.668 -4.618,2.136 -5.383,0.705 -0.289,-0.54 -0.839,-0.82 -1.611,-0.82 -0.762,0 -1.321,-0.279 -1.6,-0.8 -0.256,-0.478 -0.838,-0.8 -1.445,-0.8 -1.703,0 -4.02,-2.801 -3.088,-3.733 0.749,-0.75 17.933,-0.278 18.423,0.505 m 8.707,1.051 -1.972,1.863 -0.156,3.883 -0.156,3.882 1.274,1.275 c 2.309,2.308 3.679,1.923 7.568,-2.128 3.502,-3.647 4.045,-4.586 4.045,-6.997 0,-2.212 -1.292,-3.016 -5.415,-3.367 l -3.215,-0.274 -1.973,1.863 M 207.8,226.8 c 0.136,0.22 1.125,0.4 2.198,0.4 3.979,0 5.454,2.446 3.202,5.309 -0.44,0.56 -0.8,1.13 -0.8,1.268 0,0.138 -1.254,1.504 -2.786,3.037 -3.293,3.293 -4.657,3.629 -6.58,1.621 -1.394,-1.455 -1.494,-8.122 -0.134,-8.883 0.385,-0.216 0.7,-0.638 0.7,-0.939 0,-1.001 3.712,-2.603 4.2,-1.813 m 63.09,0.47 c -1.15,1.15 1.587,1.981 4.21,1.278 1.175,-0.315 1.138,-0.711 -0.119,-1.284 -1.315,-0.599 -3.489,-0.596 -4.091,0.006 m 3.343,0.33 c 0.312,0 0.567,0.18 0.567,0.4 0,0.22 -0.81,0.4 -1.8,0.4 -0.99,0 -1.8,-0.167 -1.8,-0.371 0,-0.441 1.181,-0.797 1.933,-0.581 0.293,0.083 0.788,0.152 1.1,0.152 m -47.433,1.327 c -3.047,1.57 -0.446,5.317 3.391,4.883 3.272,-0.37 4.276,-1.885 3.166,-4.777 -0.308,-0.803 -5.057,-0.879 -6.557,-0.106 m 6.4,2.049 c 0,2.157 -0.109,2.233 -3.257,2.277 -2.735,0.039 -3.943,-0.767 -3.943,-2.631 0,-1.33 0.249,-1.422 3.867,-1.422 h 3.333 v 1.776 m 31.3,1.311 c -0.637,0.229 -0.65,1.803 -0.02,2.433 0.608,0.608 1.624,0.616 2.221,0.019 0.866,-0.866 -0.958,-2.897 -2.201,-2.452 m 2.064,2.171 c -0.739,1.195 -2.518,-0.158 -1.996,-1.518 0.223,-0.581 0.369,-0.55 1.23,0.258 0.538,0.505 0.882,1.072 0.766,1.26 m 13.132,10.638 c 7.327,7.318 7.666,7.906 5.686,9.886 -2.018,2.017 -2.603,1.673 -9.912,-5.818 -6.949,-7.122 -7.949,-8.704 -5.907,-9.352 0.42,-0.133 0.864,-0.506 0.987,-0.827 0.687,-1.79 2.343,-0.684 9.146,6.111 m -70.618,-3.424 c -0.949,0.346 -1.104,0.603 -1,1.66 0.249,2.549 3.522,2.581 3.522,0.035 0,-0.714 -0.98,-2.289 -1.329,-2.135 -0.039,0.017 -0.576,0.215 -1.193,0.44 m 1.816,1.307 c 0.103,0.539 0.025,1.142 -0.174,1.341 -0.686,0.686 -2.32,0.052 -2.32,-0.9 0,-1.743 2.172,-2.127 2.494,-0.441 m 78.506,13.042 c 0,1.201 -0.157,1.4 -1.4,1.766 -0.77,0.227 -1.637,0.566 -1.927,0.753 -1.784,1.152 -0.822,-1.764 1.014,-3.07 1.844,-1.313 2.313,-1.201 2.313,0.551"
       inkscape:connector-curvature="0"
       style="fill:#9e9e9e;fill-rule:evenodd;stroke:none" />
  </g>
</svg>
