<svg id="svg" version="1.1" xmlns="http://www.w3.org/2000/svg" xmlns:xlink="http://www.w3.org/1999/xlink" width="400" height="400" viewBox="0, 0, 400,400"><g id="svgg"><path id="path0" d="M222.298 180.393 C 221.919 180.837,221.343 181.200,221.019 181.200 C 220.696 181.200,219.718 181.920,218.847 182.800 L 217.263 184.400 212.855 184.400 C 210.322 184.400,208.341 184.572,208.198 184.804 C 207.836 185.389,208.368 186.800,208.951 186.800 C 210.264 186.800,210.880 187.786,210.335 189.016 C 209.622 190.627,207.826 192.400,206.907 192.400 C 204.972 192.400,203.671 189.662,205.163 188.730 C 206.607 187.828,206.113 187.632,202.100 187.514 L 198.200 187.400 197.994 185.800 C 197.797 184.271,197.765 184.240,197.280 185.100 C 197.000 185.595,196.606 186.000,196.404 186.000 C 195.623 186.000,193.958 188.104,194.078 188.941 C 194.186 189.700,194.517 189.823,196.915 190.000 C 199.907 190.220,200.384 190.590,200.394 192.700 C 200.403 194.721,199.243 195.600,196.564 195.600 C 194.732 195.600,194.194 195.763,193.585 196.500 L 192.841 197.400 191.241 196.500 C 190.202 195.916,188.968 195.599,187.721 195.597 C 186.477 195.596,185.377 195.315,184.600 194.800 C 183.692 194.199,182.718 194.004,180.600 194.000 C 178.482 193.996,177.508 193.801,176.600 193.200 C 175.682 192.592,174.721 192.405,172.514 192.403 C 170.039 192.400,169.567 192.286,169.200 191.600 C 168.612 190.501,154.000 190.336,154.000 191.429 C 154.000 191.866,154.303 192.018,154.997 191.929 C 157.966 191.545,159.783 195.479,157.631 197.631 L 156.462 198.800 151.029 198.800 C 146.417 198.800,145.378 198.917,144.149 199.576 C 141.879 200.793,125.469 200.820,124.712 199.608 C 123.971 198.422,119.434 198.416,118.800 199.600 C 118.400 200.347,117.962 200.400,112.149 200.400 C 106.532 200.400,105.827 200.322,104.909 199.600 C 104.023 198.903,103.286 198.800,99.177 198.800 L 94.462 198.800 93.093 197.200 L 91.723 195.600 83.067 195.600 L 74.411 195.600 73.846 196.951 C 73.536 197.694,73.083 198.425,72.841 198.575 C 72.598 198.725,72.400 199.427,72.400 200.135 C 72.400 200.927,72.092 201.686,71.600 202.107 C 70.505 203.045,70.505 205.917,71.600 207.309 C 72.040 207.869,72.400 208.817,72.400 209.416 C 72.400 211.089,75.532 215.600,76.693 215.600 C 78.036 215.600,78.604 216.804,78.800 220.067 L 79.000 223.400 83.734 223.513 L 88.468 223.626 90.434 221.564 C 91.643 220.297,92.400 219.142,92.400 218.566 C 92.400 218.038,92.749 217.441,93.200 217.200 C 93.764 216.898,94.000 216.362,94.000 215.386 C 94.000 212.716,94.754 212.422,101.591 212.424 C 105.533 212.426,107.912 212.260,108.502 211.943 C 109.559 211.374,115.300 211.386,117.501 211.962 C 119.134 212.389,122.022 212.474,134.200 212.454 C 142.807 212.440,142.674 212.413,142.869 214.200 C 142.999 215.389,143.026 215.401,145.708 215.518 C 147.882 215.614,148.513 215.791,148.904 216.418 C 149.243 216.960,149.837 217.200,150.842 217.200 C 151.686 217.200,152.717 217.534,153.309 218.000 C 153.869 218.440,154.705 218.800,155.167 218.800 C 155.629 218.800,156.316 219.160,156.693 219.600 C 157.312 220.323,157.873 220.400,162.520 220.400 L 167.662 220.400 168.831 221.569 C 170.278 223.016,170.470 225.321,169.200 226.000 C 168.594 226.324,168.400 226.838,168.400 228.118 C 168.400 229.374,168.605 229.936,169.200 230.307 C 169.640 230.582,170.000 231.174,170.000 231.622 C 170.000 232.817,173.725 236.400,174.967 236.400 C 175.562 236.400,176.146 236.726,176.400 237.200 C 176.635 237.640,177.154 238.000,177.551 238.000 C 177.949 238.000,179.321 238.360,180.600 238.800 C 181.879 239.240,183.436 239.600,184.059 239.600 C 184.760 239.600,185.384 239.906,185.693 240.400 C 185.968 240.840,186.413 241.200,186.682 241.200 C 186.951 241.200,187.365 241.560,187.600 242.000 C 187.879 242.521,188.438 242.800,189.200 242.800 C 189.962 242.800,190.521 243.079,190.800 243.600 C 191.038 244.046,191.638 244.400,192.152 244.400 C 192.660 244.400,193.402 244.760,193.800 245.200 C 194.198 245.640,194.742 246.000,195.008 246.000 C 195.274 246.000,195.937 246.350,196.481 246.778 C 197.040 247.217,198.410 247.659,199.635 247.793 C 200.826 247.925,203.150 248.197,204.800 248.399 C 213.745 249.492,213.997 249.417,214.004 245.671 C 214.008 243.526,214.096 243.322,215.600 242.000 C 216.561 241.155,217.194 240.244,217.196 239.703 C 217.198 239.210,217.560 238.582,218.000 238.307 C 218.440 238.032,218.800 237.657,218.800 237.473 C 218.800 235.978,221.199 234.800,224.269 234.787 L 227.400 234.775 226.300 233.954 C 224.418 232.550,224.661 229.038,226.700 228.178 C 231.641 226.096,234.117 227.168,233.919 231.304 L 233.800 233.789 232.280 234.035 C 231.443 234.170,230.552 234.488,230.300 234.740 C 230.047 234.993,229.325 235.200,228.695 235.200 C 227.643 235.200,227.560 235.307,227.675 236.500 C 227.838 238.192,230.497 238.611,232.261 237.223 C 232.837 236.771,233.477 236.400,233.685 236.400 C 234.375 236.400,236.400 234.073,236.400 233.280 C 236.400 232.850,236.680 232.265,237.023 231.981 C 237.366 231.696,237.897 230.864,238.203 230.132 C 238.869 228.537,239.149 228.505,241.189 229.793 C 242.106 230.372,242.863 230.622,243.004 230.393 C 243.526 229.548,244.742 230.073,245.800 231.600 C 247.302 233.767,248.058 233.646,250.800 230.800 L 253.112 228.400 256.067 228.400 C 260.553 228.400,262.317 230.588,259.150 232.226 C 256.453 233.620,258.987 236.400,262.955 236.400 C 265.162 236.400,265.639 236.525,266.000 237.200 C 266.429 238.002,268.400 238.354,268.400 237.629 C 268.400 237.424,268.703 236.955,269.072 236.585 C 269.702 235.955,269.702 235.889,269.072 235.536 C 268.667 235.309,268.400 234.665,268.400 233.912 C 268.400 233.225,268.137 232.372,267.815 232.017 C 266.110 230.133,267.166 229.791,274.263 229.927 C 280.581 230.049,280.913 230.017,281.466 229.227 C 281.915 228.586,282.478 228.400,283.969 228.400 C 285.286 228.400,286.212 228.148,286.909 227.600 C 287.622 227.040,288.532 226.800,289.949 226.800 C 291.562 226.800,292.059 226.638,292.400 226.000 C 292.635 225.560,293.158 225.200,293.560 225.200 C 293.963 225.200,294.750 224.840,295.309 224.400 C 295.869 223.960,296.449 223.600,296.600 223.600 C 296.751 223.600,297.331 223.240,297.891 222.800 C 298.748 222.126,299.514 222.000,302.758 222.000 C 306.128 222.000,306.668 221.904,307.090 221.228 C 307.355 220.803,308.073 220.398,308.686 220.328 C 309.691 220.213,309.790 220.063,309.702 218.800 C 309.648 218.030,309.627 217.040,309.655 216.600 C 309.683 216.160,309.746 211.755,309.795 206.811 L 309.884 197.823 308.773 196.711 C 307.670 195.609,307.620 195.600,302.400 195.600 L 297.138 195.600 295.985 196.753 L 294.832 197.907 294.831 206.053 C 294.831 216.845,296.176 215.816,282.095 215.807 L 271.218 215.800 270.123 214.705 L 269.027 213.609 269.059 206.480 C 269.080 201.830,269.255 199.044,269.563 198.469 C 270.194 197.291,269.585 197.079,265.448 197.035 C 262.636 197.005,262.195 196.904,262.070 196.260 C 261.902 195.396,264.211 193.241,265.331 193.216 C 267.065 193.178,268.450 190.998,268.320 188.510 C 268.202 186.237,267.523 185.331,267.271 187.110 C 267.065 188.562,265.384 189.392,262.769 189.331 C 259.123 189.248,258.736 189.022,258.879 187.066 L 259.000 185.400 262.724 185.343 C 266.904 185.278,267.239 185.148,266.189 183.988 C 265.783 183.539,265.349 182.413,265.225 181.486 L 265.000 179.800 245.200 179.849 C 234.310 179.875,225.130 179.946,224.800 180.006 C 224.470 180.066,223.928 179.997,223.594 179.851 C 223.230 179.692,222.715 179.907,222.298 180.393 M259.210 181.012 C 259.891 181.832,259.211 183.318,257.718 184.273 C 257.103 184.667,256.390 185.261,256.132 185.594 C 255.731 186.114,253.773 186.200,242.410 186.200 L 229.154 186.200 228.386 185.200 C 227.815 184.457,227.616 184.367,227.609 184.851 C 227.583 186.756,222.100 187.535,220.960 185.795 C 220.261 184.728,220.263 184.678,221.040 184.048 C 221.479 183.692,221.960 183.085,222.107 182.700 C 222.458 181.783,225.511 181.702,225.855 182.600 C 226.237 183.594,226.800 183.276,226.800 182.067 C 226.800 181.443,226.920 180.813,227.067 180.667 C 227.695 180.038,258.678 180.371,259.210 181.012 M270.945 188.200 C 270.392 189.639,271.069 190.000,274.321 190.000 C 277.956 190.000,278.331 189.804,277.134 188.530 C 276.054 187.380,271.355 187.130,270.945 188.200 M166.784 192.181 C 167.477 193.015,166.914 194.356,165.749 194.649 C 164.572 194.944,161.600 193.733,161.600 192.959 C 161.600 191.669,165.832 191.033,166.784 192.181 M247.958 192.149 C 249.038 193.450,246.898 194.738,245.680 193.520 C 244.977 192.817,245.088 192.419,246.100 192.012 C 247.335 191.516,247.439 191.524,247.958 192.149 M149.200 192.800 C 149.200 193.020,150.089 193.200,151.176 193.200 C 152.263 193.200,153.264 193.020,153.400 192.800 C 153.553 192.552,152.804 192.400,151.424 192.400 C 150.201 192.400,149.200 192.580,149.200 192.800 M144.800 194.400 C 144.800 194.620,145.509 194.800,146.376 194.800 C 147.243 194.800,148.064 194.620,148.200 194.400 C 148.351 194.156,147.737 194.000,146.624 194.000 C 145.621 194.000,144.800 194.180,144.800 194.400 M273.812 198.538 C 273.696 199.232,273.646 202.590,273.701 206.000 L 273.800 212.200 283.109 212.307 L 292.418 212.415 292.309 204.956 L 292.200 197.496 283.111 197.386 L 274.022 197.275 273.812 198.538 M162.400 201.586 C 163.896 202.736,163.918 208.984,162.430 210.568 C 161.351 211.716,159.311 211.947,157.326 211.145 C 156.707 210.894,155.786 210.713,155.280 210.742 C 154.774 210.771,153.841 210.411,153.207 209.942 C 152.351 209.309,151.731 209.154,150.800 209.340 C 149.804 209.539,149.264 209.366,148.173 208.495 C 145.406 206.288,146.871 203.480,151.066 202.949 C 152.130 202.814,153.434 202.433,153.965 202.101 C 154.903 201.513,157.772 200.942,160.200 200.859 C 160.860 200.836,161.850 201.163,162.400 201.586 M179.519 205.491 C 179.657 208.390,179.159 209.600,177.827 209.600 C 176.016 209.600,173.533 205.783,174.825 204.985 C 175.058 204.840,175.418 204.279,175.624 203.738 C 175.952 202.874,176.205 202.769,177.699 202.877 L 179.400 203.000 179.519 205.491 M201.818 203.207 C 202.773 203.570,202.858 203.754,202.604 204.907 C 202.447 205.618,202.330 206.989,202.344 207.954 C 202.385 210.750,201.003 212.291,200.059 210.500 C 199.304 209.066,199.734 202.800,200.588 202.800 C 200.676 202.800,201.230 202.983,201.818 203.207 M155.600 206.400 C 155.600 207.895,158.039 208.222,158.786 206.826 C 159.503 205.487,159.259 205.200,157.400 205.200 C 155.667 205.200,155.600 205.244,155.600 206.400 M224.700 208.796 C 227.484 210.493,225.551 212.423,221.120 212.370 C 216.520 212.314,214.420 210.767,216.230 208.767 C 217.247 207.643,222.841 207.662,224.700 208.796 M184.200 220.800 C 184.200 222.947,182.745 223.545,181.224 222.024 C 179.512 220.312,180.208 218.706,182.585 218.881 L 184.200 219.000 184.200 220.800 M198.600 220.800 C 198.600 222.947,197.145 223.545,195.624 222.024 C 193.912 220.312,194.608 218.706,196.985 218.881 L 198.600 219.000 198.600 220.800 M239.770 221.067 C 239.911 221.434,239.870 221.890,239.680 222.080 C 239.227 222.533,238.000 222.054,238.000 221.424 C 238.000 220.283,239.364 220.008,239.770 221.067 M196.245 225.772 C 196.365 226.087,196.990 226.527,197.632 226.751 L 198.800 227.158 198.800 232.730 C 198.800 236.705,198.657 238.418,198.300 238.708 C 197.468 239.382,193.636 238.815,193.172 237.948 C 192.935 237.505,192.338 237.200,191.708 237.200 C 190.631 237.200,188.400 235.448,188.400 234.602 C 188.400 234.329,187.593 234.154,186.333 234.154 C 184.650 234.154,184.159 233.991,183.685 233.277 C 183.313 232.717,182.692 232.400,181.965 232.400 C 181.238 232.400,180.674 232.112,180.400 231.600 C 180.144 231.122,179.562 230.800,178.955 230.800 C 176.843 230.800,174.529 226.804,175.867 225.467 C 176.459 224.874,196.013 225.167,196.245 225.772 M212.742 226.083 C 212.820 226.286,213.315 226.616,213.842 226.816 C 215.187 227.327,215.314 232.872,214.000 233.693 C 213.560 233.968,213.200 234.335,213.200 234.510 C 213.200 234.685,211.946 236.081,210.414 237.614 C 207.047 240.981,204.421 241.518,202.275 239.278 C 200.867 237.808,200.598 229.678,201.926 228.723 C 202.326 228.435,202.770 227.885,202.914 227.500 C 203.057 227.115,203.411 226.800,203.699 226.800 C 203.987 226.800,204.538 226.431,204.924 225.980 C 205.670 225.109,212.401 225.198,212.742 226.083 M275.216 226.408 C 278.362 228.013,277.063 229.353,272.583 229.122 C 269.867 228.983,269.205 227.995,270.775 226.425 C 271.817 225.383,273.197 225.378,275.216 226.408 M267.103 232.169 C 267.215 232.281,267.327 233.054,267.353 233.887 L 267.400 235.400 265.625 235.400 C 263.638 235.400,262.508 233.516,263.661 232.126 C 264.129 231.562,266.525 231.592,267.103 232.169 M270.907 239.600 C 270.530 240.040,269.992 240.400,269.711 240.400 C 268.064 240.400,269.451 242.161,277.485 250.267 C 282.742 255.571,284.087 256.438,284.516 254.800 C 284.631 254.360,285.012 254.000,285.363 254.000 C 287.097 254.000,285.689 252.078,279.206 245.594 C 271.995 238.384,271.966 238.363,270.907 239.600 M211.678 241.475 C 213.488 243.209,212.216 246.400,209.714 246.400 C 206.096 246.400,206.685 241.109,210.378 240.433 C 210.476 240.415,211.061 240.884,211.678 241.475 M287.700 255.977 C 286.511 256.970,286.565 257.280,287.900 257.127 C 288.688 257.036,289.036 256.744,289.128 256.100 C 289.282 255.013,288.896 254.980,287.700 255.977 " stroke="none" fill="#080808" fill-rule="evenodd"></path><path id="path1" d="M0.000 200.000 L 0.000 400.000 200.000 400.000 L 400.000 400.000 400.000 200.000 L 400.000 0.000 200.000 0.000 L 0.000 0.000 0.000 200.000 M265.933 180.400 C 266.005 181.170,266.410 182.122,266.833 182.516 C 267.255 182.909,267.600 183.578,267.600 184.002 C 267.600 184.425,267.960 184.965,268.400 185.200 C 270.815 186.493,268.748 194.000,265.977 194.000 C 265.236 194.000,263.200 195.628,263.200 196.221 C 263.200 196.700,266.360 196.330,266.800 195.800 C 267.363 195.122,268.800 194.985,268.800 195.610 C 268.800 195.835,269.250 196.191,269.800 196.400 L 270.800 196.780 270.800 205.390 L 270.800 214.000 272.300 213.987 L 273.800 213.973 272.870 213.198 C 271.442 212.008,271.422 198.867,272.846 197.351 L 273.752 196.386 283.376 196.493 L 293.000 196.600 293.128 197.500 C 293.272 198.516,294.000 198.741,294.000 197.769 C 294.000 197.422,294.526 196.612,295.169 195.969 L 296.338 194.800 302.400 194.800 L 308.462 194.800 309.637 195.975 L 310.812 197.150 310.706 209.042 L 310.600 220.934 309.400 221.325 C 308.740 221.541,308.056 221.961,307.880 222.259 C 307.646 222.655,306.516 222.800,303.669 222.800 C 300.273 222.800,299.691 222.902,299.093 223.600 C 298.716 224.040,298.074 224.400,297.666 224.400 C 297.258 224.400,296.598 224.760,296.200 225.200 C 295.802 225.640,295.060 226.000,294.552 226.000 C 294.038 226.000,293.438 226.354,293.200 226.800 C 292.856 227.443,292.362 227.600,290.682 227.600 C 289.026 227.600,288.489 227.766,288.093 228.400 C 287.677 229.066,287.160 229.200,285.011 229.200 C 282.838 229.200,282.360 229.327,282.000 230.000 C 281.600 230.747,281.162 230.800,275.386 230.800 L 269.200 230.800 269.200 232.586 C 269.200 233.962,269.383 234.470,270.000 234.800 C 270.914 235.289,271.063 236.605,270.258 237.080 C 269.528 237.512,268.668 239.204,269.011 239.534 C 269.163 239.680,269.560 239.395,269.893 238.900 C 270.321 238.262,270.893 238.000,271.855 238.000 C 273.947 238.000,286.800 250.885,286.800 252.982 C 286.800 254.342,286.837 254.374,288.300 254.288 C 290.053 254.185,290.964 257.333,289.323 257.823 C 288.925 257.942,287.958 258.377,287.174 258.789 C 285.477 259.681,284.646 259.336,284.619 257.726 C 284.602 256.746,284.427 256.583,283.264 256.472 C 282.090 256.359,271.600 246.768,271.600 245.807 C 271.600 245.692,270.891 244.924,270.025 244.099 C 268.882 243.012,268.416 242.216,268.325 241.200 C 268.223 240.061,267.943 239.672,266.823 239.113 C 266.066 238.735,265.292 238.150,265.103 237.813 C 264.850 237.360,264.078 237.200,262.149 237.200 C 258.143 237.200,255.131 233.135,258.000 231.600 C 259.943 230.560,259.011 229.200,256.356 229.200 L 253.912 229.200 251.600 231.600 C 249.068 234.228,247.698 234.626,245.362 233.414 C 244.350 232.889,244.155 232.898,243.493 233.497 C 242.490 234.404,241.440 233.724,241.275 232.060 C 241.138 230.690,238.800 230.053,238.800 231.386 C 238.800 231.708,238.440 232.165,238.000 232.400 C 237.522 232.656,237.200 233.238,237.200 233.845 C 237.200 234.807,235.288 237.200,234.520 237.200 C 234.332 237.200,233.863 237.568,233.478 238.017 C 232.872 238.724,232.389 238.819,229.889 238.717 L 227.000 238.600 226.800 237.200 C 226.385 234.296,220.694 235.308,219.489 238.500 C 219.344 238.885,219.059 239.200,218.856 239.200 C 218.653 239.200,218.364 239.690,218.213 240.289 C 218.063 240.888,217.234 242.031,216.370 242.828 C 214.877 244.206,214.800 244.396,214.800 246.690 C 214.800 250.152,214.892 250.116,206.443 249.941 C 200.330 249.814,199.162 249.689,198.506 249.096 C 198.083 248.713,197.344 248.400,196.865 248.400 C 196.385 248.400,195.684 248.040,195.307 247.600 C 194.930 247.160,194.399 246.800,194.125 246.800 C 193.852 246.800,193.435 246.440,193.200 246.000 C 192.921 245.479,192.362 245.200,191.600 245.200 C 190.838 245.200,190.279 244.921,190.000 244.400 C 189.744 243.922,189.162 243.600,188.555 243.600 C 187.898 243.600,186.975 243.032,185.953 242.000 C 184.486 240.518,184.207 240.400,182.160 240.400 C 179.776 240.400,175.870 238.880,175.451 237.789 C 175.327 237.465,174.761 237.200,174.194 237.200 C 173.010 237.200,169.488 233.938,168.996 232.386 C 168.830 231.864,168.448 231.191,168.147 230.890 C 167.227 229.970,167.416 225.727,168.400 225.200 C 169.513 224.605,169.400 223.738,168.031 222.369 L 166.862 221.200 161.794 221.200 C 157.332 221.200,156.605 221.104,155.709 220.400 C 155.150 219.960,154.265 219.600,153.742 219.600 C 153.220 219.600,152.484 219.240,152.107 218.800 C 151.710 218.336,150.927 218.000,150.243 218.000 C 149.594 218.000,148.715 217.685,148.291 217.300 C 147.783 216.840,146.605 216.531,144.859 216.400 L 142.200 216.200 142.000 214.800 L 141.800 213.400 134.356 213.291 C 128.089 213.200,126.832 213.279,126.407 213.791 C 125.759 214.572,123.845 214.577,123.200 213.800 C 122.470 212.921,104.937 212.909,103.776 213.787 C 102.767 214.551,101.428 214.556,100.800 213.800 C 99.222 211.899,94.800 213.709,94.800 216.256 C 94.800 217.162,94.551 217.705,94.000 218.000 C 93.526 218.254,93.200 218.838,93.200 219.433 C 93.200 220.105,92.540 221.098,91.208 222.430 L 89.215 224.423 83.708 224.311 L 78.200 224.200 78.000 221.200 C 77.809 218.329,76.957 216.400,75.880 216.400 C 75.440 216.400,73.200 214.166,73.200 213.727 C 73.200 213.543,72.840 213.168,72.400 212.893 C 71.800 212.518,71.600 211.960,71.600 210.659 C 71.600 209.432,71.366 208.712,70.800 208.200 C 69.617 207.129,69.617 201.833,70.800 201.200 C 71.387 200.886,71.600 200.362,71.600 199.235 C 71.600 198.312,71.857 197.485,72.242 197.165 C 72.595 196.873,73.040 196.220,73.232 195.716 L 73.580 194.800 83.052 194.800 L 92.523 194.800 93.893 196.400 L 95.262 198.000 100.169 198.000 C 104.568 198.000,105.151 198.083,105.800 198.800 C 106.457 199.526,107.032 199.600,112.048 199.600 C 117.162 199.600,117.604 199.541,118.000 198.800 C 118.373 198.103,118.838 198.000,121.600 198.000 C 124.362 198.000,124.827 198.103,125.200 198.800 C 125.770 199.866,138.330 200.049,139.197 199.004 C 139.469 198.676,140.256 198.402,140.946 198.394 C 141.636 198.387,145.245 198.279,148.966 198.155 L 155.733 197.929 156.866 196.795 C 159.189 194.472,157.991 193.602,152.886 193.907 C 150.153 194.070,149.500 194.239,149.162 194.871 C 148.461 196.181,143.800 195.772,143.800 194.400 C 143.800 193.552,144.010 193.380,145.176 193.269 C 145.933 193.197,146.993 192.792,147.530 192.369 C 148.098 191.922,149.134 191.600,150.000 191.600 C 150.911 191.600,151.909 191.272,152.563 190.758 C 154.180 189.486,169.083 189.514,169.949 190.791 C 170.426 191.495,170.932 191.600,173.845 191.600 C 176.760 191.600,177.258 191.704,177.693 192.400 C 178.130 193.100,178.626 193.200,181.674 193.200 C 184.646 193.200,185.233 193.312,185.690 193.964 C 186.107 194.560,186.880 194.774,189.212 194.938 C 194.873 195.336,197.501 195.009,198.760 193.750 L 199.725 192.784 198.810 191.811 C 198.089 191.043,197.419 190.812,195.648 190.718 L 193.400 190.600 193.276 189.105 C 193.138 187.440,196.367 183.600,197.905 183.600 C 199.430 183.600,200.286 184.621,199.494 185.496 C 198.478 186.619,198.945 186.800,202.867 186.800 L 206.400 186.800 206.400 185.680 C 206.400 183.811,206.965 183.600,211.980 183.596 L 216.600 183.592 218.000 182.000 C 218.770 181.124,219.552 180.406,219.737 180.404 C 219.922 180.402,220.533 180.038,221.095 179.597 C 222.093 178.811,222.610 178.796,243.958 178.897 L 265.800 179.000 265.933 180.400 M227.867 181.467 C 227.322 182.011,227.633 182.894,228.769 184.031 L 229.938 185.200 242.555 185.200 C 254.762 185.200,255.186 185.174,255.600 184.400 C 255.835 183.960,256.218 183.600,256.450 183.600 C 256.896 183.600,258.364 182.009,258.387 181.500 C 258.403 181.129,228.237 181.096,227.867 181.467 M222.790 183.826 C 222.576 184.390,222.400 184.930,222.400 185.026 C 222.400 185.122,223.300 185.200,224.400 185.200 C 226.702 185.200,226.716 185.182,225.454 183.821 C 224.248 182.520,223.286 182.522,222.790 183.826 M259.745 186.600 C 259.218 187.973,259.892 188.400,262.587 188.400 L 265.200 188.400 265.200 187.200 L 265.200 186.000 262.587 186.000 C 260.634 186.000,259.917 186.151,259.745 186.600 M278.171 187.429 C 279.037 188.295,278.992 190.357,278.100 190.673 C 277.715 190.810,277.088 191.189,276.708 191.516 C 276.145 191.998,275.901 192.015,275.407 191.606 C 275.073 191.329,273.889 191.038,272.776 190.960 C 271.663 190.882,270.583 190.713,270.376 190.585 C 269.949 190.321,269.860 187.473,270.267 187.067 C 270.857 186.476,277.524 186.782,278.171 187.429 M206.800 187.877 C 206.800 188.297,206.611 188.829,206.381 189.059 C 206.089 189.351,206.105 189.793,206.435 190.516 L 206.907 191.554 208.054 190.408 C 209.262 189.199,209.592 187.600,208.633 187.600 C 208.321 187.600,207.781 187.491,207.433 187.357 C 206.992 187.188,206.800 187.346,206.800 187.877 M163.600 192.800 C 163.600 193.020,164.151 193.200,164.824 193.200 C 165.537 193.200,165.944 193.033,165.800 192.800 C 165.664 192.580,165.113 192.400,164.576 192.400 C 164.039 192.400,163.600 192.580,163.600 192.800 M293.219 206.300 C 293.239 209.765,293.134 212.915,292.985 213.300 C 292.796 213.789,292.909 214.000,293.357 214.000 C 293.923 214.000,294.000 213.163,294.000 207.000 C 294.000 202.496,293.854 200.000,293.591 200.000 C 293.328 200.000,293.195 202.249,293.219 206.300 M159.200 202.400 C 158.870 202.613,158.780 202.793,159.000 202.799 C 159.220 202.806,159.805 202.919,160.300 203.052 C 160.962 203.229,161.200 203.122,161.200 202.647 C 161.200 201.931,160.130 201.799,159.200 202.400 M154.361 203.559 C 153.130 203.691,151.870 204.002,151.561 204.248 C 151.253 204.494,150.325 204.817,149.500 204.966 C 146.451 205.515,148.274 207.606,151.932 207.755 L 154.338 207.854 154.605 206.427 C 154.957 204.544,155.459 204.000,156.849 204.000 C 157.482 204.000,158.000 203.820,158.000 203.600 C 158.000 203.178,157.903 203.177,154.361 203.559 M176.617 204.072 C 175.879 206.248,176.264 207.600,177.622 207.600 C 178.830 207.600,178.842 207.579,178.722 205.700 C 178.599 203.789,177.105 202.633,176.617 204.072 M160.700 205.431 C 160.535 205.597,160.400 206.594,160.400 207.647 C 160.400 209.047,160.212 209.670,159.700 209.968 C 159.033 210.356,159.033 210.376,159.700 210.388 C 160.085 210.395,160.522 210.445,160.671 210.500 C 160.820 210.555,161.063 210.148,161.211 209.596 C 161.536 208.382,161.122 205.006,160.700 205.431 M154.800 208.800 C 155.602 209.318,158.120 209.318,157.800 208.800 C 157.664 208.580,156.798 208.403,155.876 208.406 C 154.647 208.411,154.360 208.516,154.800 208.800 M216.600 210.400 C 216.738 210.623,218.604 210.800,220.824 210.800 C 223.208 210.800,224.800 210.640,224.800 210.400 C 224.800 210.159,223.125 210.000,220.576 210.000 C 217.863 210.000,216.441 210.143,216.600 210.400 M181.455 219.910 C 181.350 220.081,181.698 220.639,182.229 221.150 C 183.060 221.949,183.229 221.989,183.440 221.439 C 183.947 220.120,182.171 218.752,181.455 219.910 M195.836 219.942 C 195.720 220.130,196.064 220.697,196.602 221.202 C 197.463 222.010,197.609 222.041,197.832 221.460 C 198.354 220.100,196.575 218.747,195.836 219.942 M176.667 226.267 C 175.735 227.199,178.052 230.000,179.755 230.000 C 180.362 230.000,180.944 230.322,181.200 230.800 C 181.479 231.321,182.038 231.600,182.800 231.600 C 183.572 231.600,184.122 231.880,184.411 232.420 C 185.176 233.851,188.748 233.383,189.794 231.715 C 190.237 231.009,190.915 230.424,191.300 230.415 C 192.253 230.394,192.214 231.878,191.253 232.183 C 188.566 233.036,189.530 236.400,192.461 236.400 C 193.172 236.400,193.730 236.696,194.012 237.222 C 194.367 237.886,194.772 238.020,196.126 237.922 L 197.800 237.800 197.800 232.800 L 197.800 227.800 196.686 227.672 C 196.073 227.602,195.355 227.197,195.090 226.772 C 194.600 225.989,177.416 225.517,176.667 226.267 M205.100 227.285 C 204.275 227.715,203.600 228.312,203.600 228.613 C 203.600 228.914,203.285 229.336,202.900 229.552 C 201.540 230.313,201.640 236.980,203.034 238.435 C 204.957 240.443,206.321 240.107,209.614 236.814 C 211.146 235.281,212.400 233.915,212.400 233.777 C 212.400 233.639,212.760 233.069,213.200 232.509 C 215.452 229.646,213.977 227.200,209.998 227.200 C 208.925 227.200,207.936 227.020,207.800 226.800 C 207.465 226.257,206.869 226.364,205.100 227.285 M271.900 227.477 C 270.542 227.829,271.222 228.400,273.000 228.400 C 273.990 228.400,274.800 228.220,274.800 228.000 C 274.800 227.780,274.545 227.600,274.233 227.600 C 273.921 227.600,273.426 227.531,273.133 227.448 C 272.840 227.364,272.285 227.377,271.900 227.477 M226.267 229.467 C 224.691 231.042,226.880 233.296,229.943 233.253 C 233.091 233.209,233.200 233.133,233.200 230.976 L 233.200 229.200 229.867 229.200 C 228.033 229.200,226.413 229.320,226.267 229.467 M264.568 232.940 C 264.193 233.916,264.666 234.800,265.564 234.800 C 266.784 234.800,266.871 234.206,265.798 233.198 C 264.937 232.390,264.791 232.359,264.568 232.940 M208.667 242.267 C 208.520 242.413,208.400 242.932,208.400 243.420 C 208.400 244.372,210.034 245.006,210.720 244.320 C 211.406 243.634,210.772 242.000,209.820 242.000 C 209.332 242.000,208.813 242.120,208.667 242.267 " stroke="none" fill="#fbfbfb" fill-rule="evenodd"></path><path id="path2" d="M221.967 180.029 C 221.478 180.453,220.871 180.800,220.619 180.800 C 220.367 180.800,219.412 181.520,218.496 182.400 L 216.831 184.000 212.848 184.000 C 207.341 184.000,205.625 185.326,208.812 187.119 C 210.285 187.947,210.161 189.100,208.410 190.851 C 206.375 192.886,203.945 190.849,205.871 188.722 C 206.906 187.578,206.144 187.245,202.197 187.117 L 198.600 187.000 198.696 185.741 C 198.854 183.667,197.814 183.748,195.577 185.985 C 192.634 188.928,192.992 190.400,196.651 190.400 C 198.993 190.400,200.000 191.070,200.000 192.629 C 200.000 194.297,198.682 195.200,196.249 195.200 C 194.825 195.200,193.930 195.403,193.600 195.800 C 192.976 196.552,192.029 196.547,191.024 195.787 C 190.563 195.439,189.367 195.200,188.087 195.200 C 186.532 195.200,185.641 194.976,184.909 194.400 C 184.110 193.771,183.284 193.599,181.046 193.597 C 178.879 193.595,177.914 193.405,177.000 192.800 C 176.082 192.192,175.121 192.005,172.914 192.003 C 170.439 192.000,169.967 191.886,169.600 191.200 C 169.195 190.444,168.762 190.400,161.749 190.400 C 154.932 190.400,154.243 190.465,153.309 191.200 C 152.698 191.681,151.686 192.000,150.775 192.000 C 149.873 192.000,148.978 192.279,148.569 192.688 C 148.190 193.067,147.053 193.472,146.040 193.588 C 143.452 193.886,143.482 194.954,146.083 195.121 C 147.628 195.221,148.059 195.095,148.480 194.421 C 148.891 193.763,149.408 193.600,151.083 193.600 C 152.232 193.600,153.786 193.308,154.535 192.950 C 157.466 191.553,159.656 195.047,157.278 197.325 C 156.170 198.387,156.088 198.400,150.567 198.400 C 146.048 198.400,144.800 198.525,144.047 199.052 C 142.378 200.221,125.443 200.402,124.830 199.257 C 124.165 198.013,119.059 197.968,118.400 199.200 C 118.002 199.944,117.562 200.000,112.149 200.000 C 106.932 200.000,106.220 199.917,105.309 199.200 C 104.423 198.503,103.686 198.400,99.577 198.400 L 94.862 198.400 93.493 196.800 L 92.123 195.200 83.262 195.200 L 74.401 195.200 73.208 197.100 C 72.552 198.145,72.012 199.467,72.008 200.038 C 72.003 200.609,71.640 201.402,71.200 201.800 C 70.080 202.813,70.080 206.286,71.200 207.709 C 71.640 208.269,72.000 209.217,72.000 209.816 C 72.000 211.494,75.133 216.000,76.300 216.000 C 77.507 216.000,78.364 217.888,78.481 220.805 L 78.600 223.800 83.751 223.912 L 88.902 224.025 90.849 221.912 C 91.950 220.717,92.796 219.416,92.798 218.914 C 92.799 218.427,93.160 217.835,93.600 217.600 C 94.164 217.298,94.400 216.762,94.400 215.786 C 94.400 213.269,95.428 212.725,99.929 212.856 C 102.058 212.918,106.500 212.828,109.800 212.656 C 113.670 212.454,117.220 212.501,119.800 212.788 C 124.897 213.356,125.502 213.369,127.200 212.947 C 127.970 212.756,131.660 212.690,135.400 212.800 L 142.200 213.000 142.400 214.400 L 142.600 215.800 145.254 215.917 C 147.279 216.007,148.075 216.220,148.616 216.817 C 149.005 217.248,149.832 217.600,150.452 217.600 C 151.073 217.600,152.170 217.959,152.890 218.399 C 153.611 218.838,154.491 219.198,154.846 219.199 C 155.201 219.199,155.950 219.560,156.509 220.000 C 157.400 220.700,158.132 220.800,162.394 220.800 C 167.241 220.800,167.267 220.805,168.431 221.969 C 169.807 223.345,169.972 224.973,168.800 225.600 C 167.660 226.210,167.660 229.569,168.800 230.600 C 169.240 230.998,169.600 231.665,169.600 232.081 C 169.600 233.231,173.357 236.800,174.567 236.800 C 175.162 236.800,175.746 237.126,176.000 237.600 C 176.235 238.040,176.737 238.401,177.114 238.402 C 177.491 238.404,178.299 238.665,178.910 238.984 C 179.520 239.302,181.130 239.688,182.488 239.842 C 184.624 240.083,185.173 240.329,186.559 241.661 C 187.455 242.521,188.560 243.200,189.067 243.200 C 189.564 243.200,190.165 243.560,190.400 244.000 C 190.682 244.527,191.238 244.800,192.027 244.800 C 192.732 244.800,193.321 245.051,193.459 245.410 C 194.239 247.442,200.682 249.082,208.666 249.279 C 214.305 249.419,214.098 249.529,214.326 246.292 C 214.487 244.011,214.633 243.678,216.051 242.361 C 216.903 241.570,217.601 240.580,217.602 240.161 C 217.604 239.743,218.484 238.446,219.558 237.281 L 221.511 235.161 224.255 235.281 L 227.000 235.400 227.200 236.800 C 227.693 240.248,236.800 237.088,236.800 233.468 C 236.800 232.838,237.115 232.260,237.600 232.000 C 238.040 231.765,238.400 231.330,238.400 231.035 C 238.400 229.973,239.334 229.640,240.700 230.215 C 241.774 230.666,242.000 230.980,242.000 232.014 C 242.000 232.840,242.170 233.209,242.500 233.096 C 242.775 233.002,242.948 232.565,242.885 232.124 C 242.620 230.274,243.935 230.180,245.443 231.941 C 247.467 234.306,248.366 234.186,251.156 231.180 L 253.402 228.761 256.401 228.880 L 259.400 229.000 259.520 230.227 C 259.616 231.214,259.440 231.544,258.620 231.918 C 255.681 233.257,258.537 236.800,262.555 236.800 C 264.706 236.800,265.243 236.934,265.574 237.551 C 266.269 238.851,267.799 238.826,268.965 237.497 C 270.168 236.126,270.181 236.066,269.438 235.231 C 269.129 234.884,268.814 233.700,268.738 232.600 L 268.600 230.600 274.891 230.490 C 280.685 230.388,281.216 230.317,281.605 229.590 C 281.945 228.955,282.447 228.800,284.160 228.800 C 285.686 228.800,286.581 228.573,287.309 228.000 C 288.022 227.440,288.932 227.200,290.349 227.200 C 291.962 227.200,292.459 227.038,292.800 226.400 C 293.035 225.960,293.558 225.600,293.960 225.600 C 294.363 225.600,295.121 225.274,295.646 224.876 C 298.420 222.772,299.548 222.400,303.161 222.400 C 306.168 222.400,306.781 222.284,307.400 221.600 C 307.798 221.160,308.434 220.800,308.813 220.800 C 310.221 220.800,310.327 219.956,310.341 208.647 L 310.355 197.494 309.208 196.347 L 308.062 195.200 302.400 195.200 L 296.738 195.200 295.577 196.361 L 294.416 197.522 294.308 206.033 L 294.200 214.543 293.010 214.861 C 292.355 215.036,291.674 215.034,291.497 214.857 C 291.320 214.680,286.662 214.601,281.145 214.681 C 273.704 214.789,270.963 214.702,270.531 214.343 C 270.050 213.943,269.963 212.408,270.033 205.503 L 270.118 197.146 268.991 196.561 C 268.218 196.160,267.734 196.106,267.452 196.388 C 266.920 196.920,262.925 196.926,262.597 196.396 C 262.273 195.870,264.541 193.600,265.391 193.600 C 268.221 193.600,270.409 186.889,268.000 185.600 C 267.560 185.365,267.200 184.932,267.200 184.640 C 267.200 184.347,266.854 183.668,266.431 183.130 C 266.008 182.593,265.603 181.533,265.531 180.776 L 265.400 179.400 244.128 179.329 C 223.638 179.260,222.824 179.286,221.967 180.029 M224.800 180.006 C 225.130 179.946,234.310 179.875,245.200 179.849 L 265.000 179.800 265.225 181.486 C 265.349 182.413,265.783 183.539,266.189 183.988 C 267.239 185.148,266.904 185.278,262.724 185.343 L 259.000 185.400 258.879 187.066 C 258.736 189.022,259.123 189.248,262.769 189.331 C 265.384 189.392,267.065 188.562,267.271 187.110 C 267.523 185.331,268.202 186.237,268.320 188.510 C 268.450 190.998,267.065 193.178,265.331 193.216 C 264.211 193.241,261.902 195.396,262.070 196.260 C 262.195 196.904,262.636 197.005,265.448 197.035 C 269.585 197.079,270.194 197.291,269.563 198.469 C 269.255 199.044,269.080 201.830,269.059 206.480 L 269.027 213.609 270.123 214.705 L 271.218 215.800 282.095 215.807 C 296.176 215.816,294.831 216.845,294.831 206.053 L 294.832 197.907 295.985 196.753 L 297.138 195.600 302.400 195.600 C 307.620 195.600,307.670 195.609,308.773 196.711 L 309.884 197.823 309.795 206.811 C 309.746 211.755,309.683 216.160,309.655 216.600 C 309.627 217.040,309.648 218.030,309.702 218.800 C 309.790 220.063,309.691 220.213,308.686 220.328 C 308.073 220.398,307.355 220.803,307.090 221.228 C 306.668 221.904,306.128 222.000,302.758 222.000 C 299.514 222.000,298.748 222.126,297.891 222.800 C 297.331 223.240,296.751 223.600,296.600 223.600 C 296.449 223.600,295.869 223.960,295.309 224.400 C 294.750 224.840,293.963 225.200,293.560 225.200 C 293.158 225.200,292.635 225.560,292.400 226.000 C 292.059 226.638,291.562 226.800,289.949 226.800 C 288.532 226.800,287.622 227.040,286.909 227.600 C 286.212 228.148,285.286 228.400,283.969 228.400 C 282.478 228.400,281.915 228.586,281.466 229.227 C 280.913 230.017,280.581 230.049,274.263 229.927 C 267.166 229.791,266.110 230.133,267.815 232.017 C 268.137 232.372,268.400 233.225,268.400 233.912 C 268.400 234.665,268.667 235.309,269.072 235.536 C 269.702 235.889,269.702 235.955,269.072 236.585 C 268.703 236.955,268.400 237.424,268.400 237.629 C 268.400 238.354,266.429 238.002,266.000 237.200 C 265.639 236.525,265.162 236.400,262.955 236.400 C 258.987 236.400,256.453 233.620,259.150 232.226 C 262.317 230.588,260.553 228.400,256.067 228.400 L 253.112 228.400 250.800 230.800 C 248.058 233.646,247.302 233.767,245.800 231.600 C 244.742 230.073,243.526 229.548,243.004 230.393 C 242.863 230.622,242.106 230.372,241.189 229.793 C 239.149 228.505,238.869 228.537,238.203 230.132 C 237.897 230.864,237.366 231.696,237.023 231.981 C 236.680 232.265,236.400 232.850,236.400 233.280 C 236.400 234.073,234.375 236.400,233.685 236.400 C 233.477 236.400,232.837 236.771,232.261 237.223 C 230.497 238.611,227.838 238.192,227.675 236.500 C 227.560 235.307,227.643 235.200,228.695 235.200 C 229.325 235.200,230.047 234.993,230.300 234.740 C 230.552 234.488,231.443 234.170,232.280 234.035 L 233.800 233.789 233.919 231.304 C 234.117 227.168,231.641 226.096,226.700 228.178 C 224.661 229.038,224.418 232.550,226.300 233.954 L 227.400 234.775 224.269 234.787 C 221.199 234.800,218.800 235.978,218.800 237.473 C 218.800 237.657,218.440 238.032,218.000 238.307 C 217.560 238.582,217.198 239.210,217.196 239.703 C 217.194 240.244,216.561 241.155,215.600 242.000 C 214.096 243.322,214.008 243.526,214.004 245.671 C 213.997 249.417,213.745 249.492,204.800 248.399 C 203.150 248.197,200.826 247.925,199.635 247.793 C 198.410 247.659,197.040 247.217,196.481 246.778 C 195.937 246.350,195.274 246.000,195.008 246.000 C 194.742 246.000,194.198 245.640,193.800 245.200 C 193.402 244.760,192.660 244.400,192.152 244.400 C 191.638 244.400,191.038 244.046,190.800 243.600 C 190.521 243.079,189.962 242.800,189.200 242.800 C 188.438 242.800,187.879 242.521,187.600 242.000 C 187.365 241.560,186.951 241.200,186.682 241.200 C 186.413 241.200,185.968 240.840,185.693 240.400 C 185.384 239.906,184.760 239.600,184.059 239.600 C 183.436 239.600,181.879 239.240,180.600 238.800 C 179.321 238.360,177.949 238.000,177.551 238.000 C 177.154 238.000,176.635 237.640,176.400 237.200 C 176.146 236.726,175.562 236.400,174.967 236.400 C 173.725 236.400,170.000 232.817,170.000 231.622 C 170.000 231.174,169.640 230.582,169.200 230.307 C 168.605 229.936,168.400 229.374,168.400 228.118 C 168.400 226.838,168.594 226.324,169.200 226.000 C 170.470 225.321,170.278 223.016,168.831 221.569 L 167.662 220.400 162.520 220.400 C 157.873 220.400,157.312 220.323,156.693 219.600 C 156.316 219.160,155.629 218.800,155.167 218.800 C 154.705 218.800,153.869 218.440,153.309 218.000 C 152.717 217.534,151.686 217.200,150.842 217.200 C 149.837 217.200,149.243 216.960,148.904 216.418 C 148.513 215.791,147.882 215.614,145.708 215.518 C 143.026 215.401,142.999 215.389,142.869 214.200 C 142.674 212.413,142.807 212.440,134.200 212.454 C 122.022 212.474,119.134 212.389,117.501 211.962 C 115.300 211.386,109.559 211.374,108.502 211.943 C 107.912 212.260,105.533 212.426,101.591 212.424 C 94.754 212.422,94.000 212.716,94.000 215.386 C 94.000 216.362,93.764 216.898,93.200 217.200 C 92.749 217.441,92.400 218.038,92.400 218.566 C 92.400 219.142,91.643 220.297,90.434 221.564 L 88.468 223.626 83.734 223.513 L 79.000 223.400 78.800 220.067 C 78.604 216.804,78.036 215.600,76.693 215.600 C 75.532 215.600,72.400 211.089,72.400 209.416 C 72.400 208.817,72.040 207.869,71.600 207.309 C 70.505 205.917,70.505 203.045,71.600 202.107 C 72.092 201.686,72.400 200.927,72.400 200.135 C 72.400 199.427,72.598 198.725,72.841 198.575 C 73.083 198.425,73.536 197.694,73.846 196.951 L 74.411 195.600 83.067 195.600 L 91.723 195.600 93.093 197.200 L 94.462 198.800 99.177 198.800 C 103.286 198.800,104.023 198.903,104.909 199.600 C 105.827 200.322,106.532 200.400,112.149 200.400 C 117.962 200.400,118.400 200.347,118.800 199.600 C 119.434 198.416,123.971 198.422,124.712 199.608 C 125.469 200.820,141.879 200.793,144.149 199.576 C 145.378 198.917,146.417 198.800,151.029 198.800 L 156.462 198.800 157.631 197.631 C 159.783 195.479,157.966 191.545,154.997 191.929 C 154.303 192.018,154.000 191.866,154.000 191.429 C 154.000 190.336,168.612 190.501,169.200 191.600 C 169.567 192.286,170.039 192.400,172.514 192.403 C 174.721 192.405,175.682 192.592,176.600 193.200 C 177.508 193.801,178.482 193.996,180.600 194.000 C 182.718 194.004,183.692 194.199,184.600 194.800 C 185.377 195.315,186.477 195.596,187.721 195.597 C 188.968 195.599,190.202 195.916,191.241 196.500 L 192.841 197.400 193.585 196.500 C 194.194 195.763,194.732 195.600,196.564 195.600 C 199.243 195.600,200.403 194.721,200.394 192.700 C 200.384 190.590,199.907 190.220,196.915 190.000 C 194.517 189.823,194.186 189.700,194.078 188.941 C 193.958 188.104,195.623 186.000,196.404 186.000 C 196.606 186.000,197.000 185.595,197.280 185.100 C 197.765 184.240,197.797 184.271,197.994 185.800 L 198.200 187.400 202.100 187.514 C 206.113 187.632,206.607 187.828,205.163 188.730 C 203.671 189.662,204.972 192.400,206.907 192.400 C 207.826 192.400,209.622 190.627,210.335 189.016 C 210.880 187.786,210.264 186.800,208.951 186.800 C 208.368 186.800,207.836 185.389,208.198 184.804 C 208.341 184.572,210.322 184.400,212.855 184.400 L 217.263 184.400 218.847 182.800 C 219.718 181.920,220.696 181.200,221.019 181.200 C 221.343 181.200,221.919 180.837,222.298 180.393 C 222.715 179.907,223.230 179.692,223.594 179.851 C 223.928 179.997,224.470 180.066,224.800 180.006 M227.067 180.667 C 226.920 180.813,226.800 181.443,226.800 182.067 C 226.800 183.276,226.237 183.594,225.855 182.600 C 225.511 181.702,222.458 181.783,222.107 182.700 C 221.960 183.085,221.479 183.692,221.040 184.048 C 220.263 184.678,220.261 184.728,220.960 185.795 C 222.100 187.535,227.583 186.756,227.609 184.851 C 227.616 184.367,227.815 184.457,228.386 185.200 L 229.154 186.200 242.410 186.200 C 253.773 186.200,255.731 186.114,256.132 185.594 C 256.390 185.261,257.103 184.667,257.718 184.273 C 259.211 183.318,259.891 181.832,259.210 181.012 C 258.678 180.371,227.695 180.038,227.067 180.667 M258.978 181.164 C 259.377 181.810,258.768 182.730,256.962 184.210 L 255.195 185.657 242.342 185.685 L 229.488 185.712 228.739 184.756 L 227.990 183.800 227.162 184.900 C 226.090 186.323,221.200 186.521,221.200 185.141 C 221.200 183.066,224.435 181.692,225.791 183.191 C 226.679 184.172,227.200 183.895,227.200 182.443 C 227.200 181.833,227.320 181.213,227.467 181.067 C 227.881 180.653,258.721 180.748,258.978 181.164 M265.985 185.983 C 266.976 186.609,266.038 188.519,264.594 188.814 C 261.003 189.548,258.537 188.304,259.356 186.171 C 259.610 185.508,264.993 185.355,265.985 185.983 M270.556 187.771 C 269.856 189.594,270.491 190.191,273.396 190.440 C 277.961 190.831,279.320 190.084,277.448 188.211 C 276.239 187.003,270.980 186.667,270.556 187.771 M277.134 188.530 C 278.331 189.804,277.956 190.000,274.321 190.000 C 271.069 190.000,270.392 189.639,270.945 188.200 C 271.355 187.130,276.054 187.380,277.134 188.530 M162.300 192.032 C 161.181 192.684,161.481 193.425,163.175 194.189 C 165.713 195.333,168.236 193.930,166.784 192.181 C 166.228 191.511,163.358 191.416,162.300 192.032 M246.100 192.012 C 245.088 192.419,244.977 192.817,245.680 193.520 C 246.898 194.738,249.038 193.450,247.958 192.149 C 247.439 191.524,247.335 191.516,246.100 192.012 M166.200 193.000 C 166.200 194.028,164.149 194.301,163.000 193.425 C 161.929 192.609,162.823 191.948,164.800 192.096 C 165.899 192.178,166.200 192.372,166.200 193.000 M153.400 192.800 C 153.264 193.020,152.263 193.200,151.176 193.200 C 150.089 193.200,149.200 193.020,149.200 192.800 C 149.200 192.580,150.201 192.400,151.424 192.400 C 152.804 192.400,153.553 192.552,153.400 192.800 M247.523 192.830 C 247.445 193.067,247.209 193.260,247.000 193.260 C 246.791 193.260,246.555 193.067,246.477 192.830 C 246.398 192.594,246.633 192.400,247.000 192.400 C 247.367 192.400,247.602 192.594,247.523 192.830 M148.200 194.400 C 148.064 194.620,147.243 194.800,146.376 194.800 C 145.509 194.800,144.800 194.620,144.800 194.400 C 144.800 194.180,145.621 194.000,146.624 194.000 C 147.737 194.000,148.351 194.156,148.200 194.400 M273.607 197.392 C 272.818 198.342,272.779 212.088,273.563 212.687 C 274.540 213.435,291.737 213.399,292.360 212.648 C 292.677 212.266,292.785 209.777,292.709 204.548 L 292.600 197.000 283.328 196.925 C 275.949 196.866,273.964 196.961,273.607 197.392 M292.309 204.956 L 292.418 212.415 283.109 212.307 L 273.800 212.200 273.701 206.000 C 273.646 202.590,273.696 199.232,273.812 198.538 L 274.022 197.275 283.111 197.386 L 292.200 197.496 292.309 204.956 M156.965 201.198 C 155.845 201.363,154.495 201.769,153.965 202.101 C 153.434 202.433,152.130 202.814,151.066 202.949 C 146.871 203.480,145.406 206.288,148.173 208.495 C 149.264 209.366,149.804 209.539,150.800 209.340 C 151.731 209.154,152.351 209.309,153.207 209.942 C 153.841 210.411,154.774 210.771,155.280 210.742 C 155.786 210.713,156.707 210.894,157.326 211.145 C 161.426 212.802,163.400 211.112,163.400 205.945 C 163.400 200.930,162.636 200.366,156.965 201.198 M161.925 202.016 C 162.926 202.949,162.921 202.924,162.805 206.396 C 162.663 210.615,160.830 212.218,158.000 210.600 C 157.450 210.286,156.481 210.022,155.847 210.014 C 155.213 210.006,154.082 209.621,153.332 209.158 C 152.351 208.552,151.610 208.384,150.681 208.558 C 149.192 208.838,147.200 207.361,147.200 205.978 C 147.200 204.938,149.199 203.751,151.541 203.400 C 152.564 203.246,153.760 202.927,154.200 202.690 C 154.937 202.292,158.964 201.359,160.425 201.248 C 160.768 201.221,161.443 201.567,161.925 202.016 M175.624 203.738 C 175.418 204.279,175.058 204.840,174.825 204.985 C 173.533 205.783,176.016 209.600,177.827 209.600 C 179.159 209.600,179.657 208.390,179.519 205.491 L 179.400 203.000 177.699 202.877 C 176.205 202.769,175.952 202.874,175.624 203.738 M200.059 203.500 C 199.071 205.377,199.782 211.200,201.000 211.200 C 201.849 211.200,202.373 209.933,202.344 207.954 C 202.330 206.989,202.447 205.618,202.604 204.907 C 202.858 203.754,202.773 203.570,201.818 203.207 C 200.446 202.685,200.493 202.678,200.059 203.500 M179.000 205.756 C 179.000 208.393,178.246 209.400,176.900 208.558 C 174.451 207.028,175.062 203.020,177.705 203.275 L 179.000 203.400 179.000 205.756 M201.444 206.434 C 201.494 209.338,201.314 210.400,200.773 210.400 C 200.568 210.400,200.400 208.855,200.400 206.967 C 200.400 204.397,200.526 203.576,200.900 203.701 C 201.224 203.810,201.416 204.772,201.444 206.434 M158.671 204.262 C 158.527 204.406,157.732 204.635,156.904 204.769 C 154.319 205.189,154.632 207.712,157.308 208.019 L 159.216 208.239 159.662 206.749 C 160.251 204.786,159.651 203.282,158.671 204.262 M159.200 205.626 C 159.200 206.812,158.316 207.600,156.986 207.600 C 155.713 207.600,155.600 207.502,155.600 206.400 C 155.600 205.244,155.667 205.200,157.400 205.200 C 158.407 205.200,159.200 205.388,159.200 205.626 M216.230 208.767 C 214.420 210.767,216.520 212.314,221.120 212.370 C 225.551 212.423,227.484 210.493,224.700 208.796 C 222.841 207.662,217.247 207.643,216.230 208.767 M225.115 209.744 C 226.371 210.999,225.080 211.600,221.125 211.600 C 216.571 211.600,214.492 210.493,216.700 209.244 C 217.807 208.617,224.379 209.008,225.115 209.744 M180.685 219.048 C 179.518 220.215,181.321 222.932,183.124 222.724 C 184.114 222.610,184.200 222.456,184.200 220.800 L 184.200 219.000 182.585 218.881 C 181.698 218.816,180.843 218.891,180.685 219.048 M195.085 219.048 C 193.918 220.215,195.721 222.932,197.524 222.724 C 198.514 222.610,198.600 222.456,198.600 220.800 L 198.600 219.000 196.985 218.881 C 196.098 218.816,195.243 218.891,195.085 219.048 M183.926 220.703 C 184.097 222.486,183.070 222.852,181.709 221.491 C 180.348 220.130,180.714 219.103,182.497 219.274 C 183.644 219.385,183.815 219.556,183.926 220.703 M198.331 220.549 C 198.493 221.961,197.951 222.565,196.840 222.213 C 194.745 221.548,194.794 219.072,196.897 219.274 C 197.999 219.381,198.220 219.578,198.331 220.549 M238.267 220.667 C 237.785 221.148,237.988 221.910,238.667 222.170 C 239.034 222.311,239.490 222.270,239.680 222.080 C 239.870 221.890,239.911 221.434,239.770 221.067 C 239.510 220.388,238.748 220.185,238.267 220.667 M175.867 225.467 C 174.529 226.804,176.843 230.800,178.955 230.800 C 179.562 230.800,180.144 231.122,180.400 231.600 C 180.674 232.112,181.238 232.400,181.965 232.400 C 182.692 232.400,183.313 232.717,183.685 233.277 C 184.159 233.991,184.650 234.154,186.333 234.154 C 187.593 234.154,188.400 234.329,188.400 234.602 C 188.400 235.448,190.631 237.200,191.708 237.200 C 192.338 237.200,192.935 237.505,193.172 237.948 C 193.636 238.815,197.468 239.382,198.300 238.708 C 198.657 238.418,198.800 236.705,198.800 232.730 L 198.800 227.158 197.632 226.751 C 196.990 226.527,196.365 226.087,196.245 225.772 C 196.013 225.167,176.459 224.874,175.867 225.467 M204.924 225.980 C 204.538 226.431,203.987 226.800,203.699 226.800 C 203.411 226.800,203.057 227.115,202.914 227.500 C 202.770 227.885,202.326 228.435,201.926 228.723 C 200.598 229.678,200.867 237.808,202.275 239.278 C 204.421 241.518,207.047 240.981,210.414 237.614 C 211.946 236.081,213.200 234.685,213.200 234.510 C 213.200 234.335,213.560 233.968,214.000 233.693 C 215.314 232.872,215.187 227.327,213.842 226.816 C 213.315 226.616,212.820 226.286,212.742 226.083 C 212.401 225.198,205.670 225.109,204.924 225.980 M195.425 226.041 C 195.575 226.283,196.306 226.736,197.049 227.046 L 198.400 227.611 198.394 232.705 C 198.391 235.507,198.255 238.008,198.094 238.262 C 197.619 239.008,194.051 238.443,193.571 237.546 C 193.323 237.082,192.735 236.800,192.017 236.800 C 191.172 236.800,190.505 236.384,189.531 235.252 C 188.355 233.884,187.993 233.704,186.419 233.706 C 185.041 233.708,184.509 233.515,184.070 232.855 C 183.712 232.315,183.083 232.000,182.365 232.000 C 181.638 232.000,181.074 231.712,180.800 231.200 C 180.544 230.722,179.962 230.400,179.355 230.400 C 177.431 230.400,175.122 227.011,176.267 225.867 C 176.745 225.389,195.125 225.556,195.425 226.041 M210.054 226.005 C 212.984 225.940,214.400 227.298,214.400 230.173 L 214.400 232.667 210.843 236.333 C 204.962 242.397,201.598 241.467,201.602 233.778 L 201.604 229.800 202.964 228.400 C 205.366 225.926,206.081 225.532,207.600 225.837 C 208.150 225.947,209.254 226.023,210.054 226.005 M270.775 226.425 C 269.205 227.995,269.867 228.983,272.583 229.122 C 277.063 229.353,278.362 228.013,275.216 226.408 C 273.197 225.378,271.817 225.383,270.775 226.425 M275.013 226.980 C 277.566 228.046,276.302 228.963,272.605 228.725 C 270.499 228.589,269.997 228.061,271.011 227.046 C 271.812 226.245,273.200 226.222,275.013 226.980 M233.173 228.568 C 233.444 228.894,233.592 230.038,233.522 231.262 L 233.400 233.390 231.800 233.714 C 230.920 233.892,229.750 234.126,229.200 234.235 C 227.303 234.609,225.600 233.093,225.600 231.029 C 225.600 228.870,225.832 228.708,229.393 228.378 C 230.937 228.234,232.313 228.091,232.451 228.059 C 232.589 228.026,232.914 228.255,233.173 228.568 M263.661 232.126 C 262.508 233.516,263.638 235.400,265.625 235.400 L 267.400 235.400 267.353 233.887 C 267.297 232.066,267.261 232.025,265.531 231.744 C 264.582 231.590,264.009 231.707,263.661 232.126 M266.425 232.825 C 267.590 233.990,267.279 234.972,265.696 235.125 C 264.603 235.231,264.335 235.082,263.991 234.177 C 263.241 232.205,264.889 231.289,266.425 232.825 M270.100 239.545 C 267.938 241.396,267.732 241.080,277.877 251.432 C 282.788 256.444,283.356 256.706,285.231 254.831 C 287.161 252.900,286.951 252.539,279.606 245.194 C 272.375 237.963,272.123 237.814,270.100 239.545 M279.206 245.594 C 285.689 252.078,287.097 254.000,285.363 254.000 C 285.012 254.000,284.631 254.360,284.516 254.800 C 284.087 256.438,282.742 255.571,277.485 250.267 C 269.451 242.161,268.064 240.400,269.711 240.400 C 269.992 240.400,270.530 240.040,270.907 239.600 C 271.966 238.363,271.995 238.384,279.206 245.594 M208.945 241.015 C 206.334 242.160,206.939 246.400,209.714 246.400 C 210.823 246.400,212.800 244.478,212.800 243.400 C 212.800 242.671,210.896 240.338,210.378 240.433 C 210.280 240.451,209.635 240.713,208.945 241.015 M211.269 241.862 C 212.666 243.126,211.694 245.600,209.800 245.600 C 207.637 245.600,206.926 242.407,208.912 241.608 C 210.188 241.094,210.452 241.123,211.269 241.862 M286.896 255.905 C 286.179 256.507,285.597 257.360,285.603 257.800 C 285.609 258.308,285.721 258.428,285.911 258.130 C 286.076 257.871,286.928 257.601,287.805 257.530 C 289.280 257.410,289.400 257.310,289.400 256.205 C 289.400 254.626,288.542 254.523,286.896 255.905 M289.128 256.100 C 289.036 256.744,288.688 257.036,287.900 257.127 C 286.565 257.280,286.511 256.970,287.700 255.977 C 288.896 254.980,289.282 255.013,289.128 256.100 " stroke="none" fill="#6c6c6c" fill-rule="evenodd"></path><path id="path3" d="M207.254 185.251 C 207.224 185.830,207.514 186.548,207.900 186.851 C 208.509 187.329,208.540 187.322,208.138 186.800 C 207.884 186.470,207.594 185.750,207.493 185.200 L 207.309 184.200 207.254 185.251 M224.305 185.883 C 224.802 185.979,225.522 185.975,225.905 185.875 C 226.287 185.775,225.880 185.696,225.000 185.701 C 224.120 185.705,223.807 185.787,224.305 185.883 M277.314 188.120 C 277.801 188.626,278.274 188.987,278.364 188.923 C 278.598 188.755,277.142 187.200,276.752 187.200 C 276.574 187.200,276.827 187.614,277.314 188.120 M154.800 192.832 C 154.333 193.159,154.404 193.195,155.119 192.993 C 155.656 192.842,156.322 192.956,156.719 193.267 C 157.332 193.747,157.345 193.730,156.851 193.100 C 156.225 192.302,155.662 192.229,154.800 192.832 M267.024 196.213 C 266.596 196.536,266.425 196.800,266.644 196.800 C 266.862 196.800,267.248 196.592,267.503 196.337 C 267.854 195.986,268.140 196.010,268.683 196.437 C 269.337 196.950,269.351 196.938,268.851 196.300 C 268.193 195.461,268.028 195.453,267.024 196.213 M272.948 204.400 C 272.948 206.710,273.014 207.655,273.095 206.500 C 273.176 205.345,273.176 203.455,273.095 202.300 C 273.014 201.145,272.948 202.090,272.948 204.400 M148.800 204.200 C 147.494 204.947,147.951 204.955,149.654 204.216 C 150.394 203.894,150.730 203.631,150.400 203.630 C 150.070 203.629,149.350 203.886,148.800 204.200 M158.662 203.900 C 158.560 204.065,158.908 204.226,159.436 204.258 C 159.963 204.289,160.295 204.154,160.174 203.958 C 159.905 203.523,158.918 203.485,158.662 203.900 M200.400 203.990 C 200.400 204.242,200.580 204.336,200.800 204.200 C 201.034 204.055,201.200 204.470,201.200 205.200 C 201.200 205.930,201.034 206.345,200.800 206.200 C 200.570 206.058,200.400 206.423,200.400 207.056 C 200.400 207.894,200.512 208.048,200.864 207.696 C 201.504 207.056,201.532 203.927,200.900 203.707 C 200.625 203.612,200.400 203.739,200.400 203.990 M159.444 207.367 C 159.262 208.094,158.999 208.310,158.496 208.148 C 157.907 207.959,157.893 207.991,158.400 208.356 C 158.730 208.594,159.115 208.791,159.257 208.794 C 159.565 208.801,160.112 206.779,159.868 206.534 C 159.773 206.440,159.583 206.815,159.444 207.367 M176.162 207.900 C 176.581 208.395,177.301 208.779,177.762 208.754 C 178.568 208.709,178.569 208.700,177.800 208.512 C 177.360 208.405,176.640 208.021,176.200 207.659 C 175.407 207.005,175.406 207.007,176.162 207.900 M201.200 208.733 C 201.200 209.210,201.020 209.600,200.800 209.600 C 200.580 209.600,200.400 209.780,200.400 210.000 C 200.400 210.220,200.577 210.400,200.792 210.400 C 201.256 210.400,201.808 208.475,201.448 208.115 C 201.312 207.978,201.200 208.257,201.200 208.733 M217.700 209.076 C 218.085 209.176,218.715 209.176,219.100 209.076 C 219.485 208.975,219.170 208.893,218.400 208.893 C 217.630 208.893,217.315 208.975,217.700 209.076 M116.100 212.676 C 116.485 212.776,117.115 212.776,117.500 212.676 C 117.885 212.575,117.570 212.493,116.800 212.493 C 116.030 212.493,115.715 212.575,116.100 212.676 M273.466 214.493 C 273.210 214.656,277.103 214.732,282.117 214.661 C 287.131 214.590,291.327 214.683,291.442 214.867 C 291.652 215.208,293.567 214.904,294.080 214.448 C 294.483 214.091,274.025 214.135,273.466 214.493 M209.905 226.283 C 210.402 226.379,211.122 226.375,211.505 226.275 C 211.887 226.175,211.480 226.096,210.600 226.101 C 209.720 226.105,209.407 226.187,209.905 226.283 M272.100 226.676 C 272.485 226.776,273.115 226.776,273.500 226.676 C 273.885 226.575,273.570 226.493,272.800 226.493 C 272.030 226.493,271.715 226.575,272.100 226.676 M275.000 227.278 C 275.440 227.527,275.932 227.927,276.094 228.166 C 276.296 228.465,276.390 228.449,276.394 228.114 C 276.397 227.847,276.052 227.442,275.626 227.214 C 274.574 226.651,273.997 226.709,275.000 227.278 M252.175 230.100 L 251.000 231.400 252.300 230.225 C 253.512 229.130,253.784 228.800,253.475 228.800 C 253.406 228.800,252.821 229.385,252.175 230.100 M241.552 231.687 C 241.737 232.798,241.793 232.855,241.919 232.054 C 242.001 231.533,241.903 230.943,241.701 230.741 C 241.479 230.519,241.421 230.893,241.552 231.687 M214.032 231.969 C 214.014 232.281,213.692 232.911,213.315 233.369 C 212.669 234.153,212.683 234.151,213.562 233.342 C 214.075 232.870,214.397 232.240,214.279 231.942 C 214.104 231.503,214.057 231.508,214.032 231.969 M211.507 243.026 C 211.627 243.652,211.417 244.360,210.949 244.914 L 210.200 245.800 211.100 245.038 C 211.991 244.283,212.318 242.644,211.658 242.236 C 211.470 242.119,211.402 242.475,211.507 243.026 M207.640 243.438 C 207.596 244.363,208.742 245.603,209.631 245.594 C 209.944 245.591,209.758 245.364,209.217 245.091 C 208.677 244.817,208.110 244.145,207.957 243.597 C 207.717 242.733,207.674 242.711,207.640 243.438 M200.900 249.076 C 201.285 249.176,201.915 249.176,202.300 249.076 C 202.685 248.975,202.370 248.893,201.600 248.893 C 200.830 248.893,200.515 248.975,200.900 249.076 M206.311 249.493 C 207.251 249.578,208.691 249.577,209.511 249.491 C 210.330 249.405,209.560 249.336,207.800 249.337 C 206.040 249.339,205.370 249.409,206.311 249.493 M285.228 257.900 C 285.199 258.843,285.578 259.049,286.220 258.439 C 286.429 258.240,286.960 257.991,287.400 257.885 C 288.005 257.740,287.931 257.681,287.100 257.646 C 286.475 257.620,285.988 257.816,285.972 258.100 C 285.956 258.375,285.789 258.240,285.600 257.800 C 285.272 257.037,285.255 257.041,285.228 257.900 " stroke="none" fill="#848484" fill-rule="evenodd"></path><path id="path4" d="M221.095 179.597 C 220.533 180.038,219.922 180.402,219.737 180.404 C 219.552 180.406,218.770 181.124,218.000 182.000 L 216.600 183.592 211.980 183.596 C 206.965 183.600,206.400 183.811,206.400 185.680 L 206.400 186.800 202.867 186.800 C 198.945 186.800,198.478 186.619,199.494 185.496 C 200.286 184.621,199.430 183.600,197.905 183.600 C 196.367 183.600,193.138 187.440,193.276 189.105 L 193.400 190.600 195.648 190.718 C 197.419 190.812,198.089 191.043,198.810 191.811 L 199.725 192.784 198.760 193.750 C 197.501 195.009,194.873 195.336,189.212 194.938 C 186.880 194.774,186.107 194.560,185.690 193.964 C 185.233 193.312,184.646 193.200,181.674 193.200 C 178.626 193.200,178.130 193.100,177.693 192.400 C 177.258 191.704,176.760 191.600,173.845 191.600 C 170.932 191.600,170.426 191.495,169.949 190.791 C 169.083 189.514,154.180 189.486,152.563 190.758 C 151.909 191.272,150.911 191.600,150.000 191.600 C 149.134 191.600,148.098 191.922,147.530 192.369 C 146.993 192.792,145.933 193.197,145.176 193.269 C 144.010 193.380,143.800 193.552,143.800 194.400 C 143.800 195.772,148.461 196.181,149.162 194.871 C 149.500 194.239,150.153 194.070,152.886 193.907 C 157.991 193.602,159.189 194.472,156.866 196.795 L 155.733 197.929 148.966 198.155 C 145.245 198.279,141.636 198.387,140.946 198.394 C 140.256 198.402,139.469 198.676,139.197 199.004 C 138.330 200.049,125.770 199.866,125.200 198.800 C 124.827 198.103,124.362 198.000,121.600 198.000 C 118.838 198.000,118.373 198.103,118.000 198.800 C 117.604 199.541,117.162 199.600,112.048 199.600 C 107.032 199.600,106.457 199.526,105.800 198.800 C 105.151 198.083,104.568 198.000,100.169 198.000 L 95.262 198.000 93.893 196.400 L 92.523 194.800 83.052 194.800 L 73.580 194.800 73.232 195.716 C 73.040 196.220,72.595 196.873,72.242 197.165 C 71.857 197.485,71.600 198.312,71.600 199.235 C 71.600 200.362,71.387 200.886,70.800 201.200 C 69.617 201.833,69.617 207.129,70.800 208.200 C 71.366 208.712,71.600 209.432,71.600 210.659 C 71.600 211.960,71.800 212.518,72.400 212.893 C 72.840 213.168,73.200 213.543,73.200 213.727 C 73.200 214.166,75.440 216.400,75.880 216.400 C 76.957 216.400,77.809 218.329,78.000 221.200 L 78.200 224.200 83.708 224.311 L 89.215 224.423 91.208 222.430 C 92.540 221.098,93.200 220.105,93.200 219.433 C 93.200 218.838,93.526 218.254,94.000 218.000 C 94.551 217.705,94.800 217.162,94.800 216.256 C 94.800 213.709,99.222 211.899,100.800 213.800 C 101.428 214.556,102.767 214.551,103.776 213.787 C 104.937 212.909,122.470 212.921,123.200 213.800 C 123.845 214.577,125.759 214.572,126.407 213.791 C 126.832 213.279,128.089 213.200,134.356 213.291 L 141.800 213.400 142.000 214.800 L 142.200 216.200 144.859 216.400 C 146.605 216.531,147.783 216.840,148.291 217.300 C 148.715 217.685,149.594 218.000,150.243 218.000 C 150.927 218.000,151.710 218.336,152.107 218.800 C 152.484 219.240,153.220 219.600,153.742 219.600 C 154.265 219.600,155.150 219.960,155.709 220.400 C 156.605 221.104,157.332 221.200,161.794 221.200 L 166.862 221.200 168.031 222.369 C 169.400 223.738,169.513 224.605,168.400 225.200 C 167.416 225.727,167.227 229.970,168.147 230.890 C 168.448 231.191,168.830 231.864,168.996 232.386 C 169.488 233.938,173.010 237.200,174.194 237.200 C 174.761 237.200,175.327 237.465,175.451 237.789 C 175.870 238.880,179.776 240.400,182.160 240.400 C 184.207 240.400,184.486 240.518,185.953 242.000 C 186.975 243.032,187.898 243.600,188.555 243.600 C 189.162 243.600,189.744 243.922,190.000 244.400 C 190.279 244.921,190.838 245.200,191.600 245.200 C 192.362 245.200,192.921 245.479,193.200 246.000 C 193.435 246.440,193.852 246.800,194.125 246.800 C 194.399 246.800,194.930 247.160,195.307 247.600 C 195.684 248.040,196.385 248.400,196.865 248.400 C 197.344 248.400,198.083 248.713,198.506 249.096 C 199.162 249.689,200.330 249.814,206.443 249.941 C 214.892 250.116,214.800 250.152,214.800 246.690 C 214.800 244.396,214.877 244.206,216.370 242.828 C 217.234 242.031,218.063 240.888,218.213 240.289 C 218.364 239.690,218.653 239.200,218.856 239.200 C 219.059 239.200,219.344 238.885,219.489 238.500 C 220.694 235.308,226.385 234.296,226.800 237.200 L 227.000 238.600 229.889 238.717 C 232.389 238.819,232.872 238.724,233.478 238.017 C 233.863 237.568,234.332 237.200,234.520 237.200 C 235.288 237.200,237.200 234.807,237.200 233.845 C 237.200 233.238,237.522 232.656,238.000 232.400 C 238.440 232.165,238.800 231.708,238.800 231.386 C 238.800 230.053,241.138 230.690,241.275 232.060 C 241.440 233.724,242.490 234.404,243.493 233.497 C 244.155 232.898,244.350 232.889,245.362 233.414 C 247.698 234.626,249.068 234.228,251.600 231.600 L 253.912 229.200 256.356 229.200 C 259.011 229.200,259.943 230.560,258.000 231.600 C 255.131 233.135,258.143 237.200,262.149 237.200 C 264.078 237.200,264.850 237.360,265.103 237.813 C 265.292 238.150,266.066 238.735,266.823 239.113 C 267.943 239.672,268.223 240.061,268.325 241.200 C 268.416 242.216,268.882 243.012,270.025 244.099 C 270.891 244.924,271.600 245.692,271.600 245.807 C 271.600 246.768,282.090 256.359,283.264 256.472 C 284.427 256.583,284.602 256.746,284.619 257.726 C 284.646 259.336,285.477 259.681,287.174 258.789 C 287.958 258.377,288.925 257.942,289.323 257.823 C 290.964 257.333,290.053 254.185,288.300 254.288 C 286.837 254.374,286.800 254.342,286.800 252.982 C 286.800 250.885,273.947 238.000,271.855 238.000 C 270.893 238.000,270.321 238.262,269.893 238.900 C 269.560 239.395,269.163 239.680,269.011 239.534 C 268.668 239.204,269.528 237.512,270.258 237.080 C 271.063 236.605,270.914 235.289,270.000 234.800 C 269.383 234.470,269.200 233.962,269.200 232.586 L 269.200 230.800 275.386 230.800 C 281.162 230.800,281.600 230.747,282.000 230.000 C 282.360 229.327,282.838 229.200,285.011 229.200 C 287.160 229.200,287.677 229.066,288.093 228.400 C 288.489 227.766,289.026 227.600,290.682 227.600 C 292.362 227.600,292.856 227.443,293.200 226.800 C 293.438 226.354,294.038 226.000,294.552 226.000 C 295.060 226.000,295.802 225.640,296.200 225.200 C 296.598 224.760,297.258 224.400,297.666 224.400 C 298.074 224.400,298.716 224.040,299.093 223.600 C 299.691 222.902,300.273 222.800,303.669 222.800 C 306.516 222.800,307.646 222.655,307.880 222.259 C 308.056 221.961,308.740 221.541,309.400 221.325 L 310.600 220.934 310.706 209.042 L 310.812 197.150 309.637 195.975 L 308.462 194.800 302.400 194.800 L 296.338 194.800 295.169 195.969 C 294.526 196.612,294.000 197.422,294.000 197.769 C 294.000 198.741,293.272 198.516,293.128 197.500 L 293.000 196.600 283.376 196.493 L 273.752 196.386 272.846 197.351 C 271.422 198.867,271.442 212.008,272.870 213.198 L 273.800 213.973 272.300 213.987 L 270.800 214.000 270.800 205.390 L 270.800 196.780 269.800 196.400 C 269.250 196.191,268.800 195.835,268.800 195.610 C 268.800 194.985,267.363 195.122,266.800 195.800 C 266.360 196.330,263.200 196.700,263.200 196.221 C 263.200 195.628,265.236 194.000,265.977 194.000 C 268.748 194.000,270.815 186.493,268.400 185.200 C 267.960 184.965,267.600 184.425,267.600 184.002 C 267.600 183.578,267.255 182.909,266.833 182.516 C 266.410 182.122,266.005 181.170,265.933 180.400 L 265.800 179.000 243.958 178.897 C 222.610 178.796,222.093 178.811,221.095 179.597 M265.534 180.581 C 265.608 181.230,266.013 182.199,266.434 182.735 C 266.855 183.270,267.200 183.926,267.200 184.192 C 267.200 184.458,267.560 185.002,268.000 185.400 C 270.145 187.341,268.398 193.600,265.711 193.600 C 264.883 193.600,262.800 195.548,262.800 196.322 C 262.800 197.030,266.053 196.918,267.115 196.174 C 267.941 195.596,268.089 195.612,269.078 196.390 L 270.147 197.231 270.042 205.325 C 269.924 214.427,270.159 215.252,272.686 214.620 C 273.299 214.467,278.390 214.309,284.000 214.271 L 294.200 214.200 294.279 205.843 L 294.359 197.487 295.454 196.343 L 296.550 195.200 302.400 195.200 L 308.250 195.200 309.331 196.328 L 310.413 197.457 310.306 208.995 L 310.200 220.534 309.000 220.925 C 308.340 221.141,307.656 221.561,307.480 221.859 C 307.248 222.252,306.143 222.400,303.434 222.400 C 300.408 222.400,299.529 222.540,298.754 223.145 C 298.229 223.555,297.411 224.012,296.936 224.160 C 296.461 224.309,295.854 224.694,295.587 225.015 C 295.320 225.337,294.792 225.600,294.413 225.600 C 294.034 225.600,293.398 225.960,293.000 226.400 C 292.483 226.971,291.768 227.200,290.501 227.200 C 289.332 227.200,288.379 227.473,287.709 228.000 C 286.988 228.568,286.086 228.800,284.608 228.800 C 283.032 228.800,282.348 228.995,281.800 229.600 C 281.138 230.331,280.568 230.400,275.162 230.400 C 270.898 230.400,269.162 230.538,268.942 230.894 C 268.412 231.752,268.836 234.165,269.675 235.070 L 270.482 235.939 269.341 237.370 C 267.991 239.062,267.272 239.146,265.673 237.800 C 264.704 236.985,264.056 236.800,262.164 236.800 C 258.340 236.800,255.999 233.541,258.600 231.837 C 260.824 230.379,259.580 228.800,256.207 228.800 L 253.775 228.800 251.400 231.200 C 248.448 234.183,247.079 234.408,245.317 232.200 C 243.947 230.483,243.200 230.405,243.200 231.976 C 243.200 234.069,241.846 233.788,241.538 231.631 C 241.382 230.538,239.174 229.477,238.882 230.355 C 238.795 230.616,238.291 231.344,237.762 231.973 C 237.233 232.601,236.800 233.461,236.800 233.883 C 236.800 234.672,235.592 235.926,233.290 237.528 C 231.342 238.883,227.465 238.672,227.262 237.200 C 226.850 234.223,222.609 234.234,219.860 237.219 C 218.837 238.329,218.000 239.507,218.000 239.836 C 218.000 240.165,217.190 241.300,216.200 242.359 C 214.516 244.159,214.400 244.426,214.400 246.493 C 214.400 249.731,214.301 249.771,207.061 249.472 C 199.598 249.164,194.486 247.605,192.987 245.179 C 192.858 244.970,192.341 244.800,191.838 244.800 C 191.335 244.800,190.598 244.440,190.200 244.000 C 189.802 243.560,189.063 243.200,188.558 243.200 C 188.053 243.200,187.496 242.972,187.320 242.693 C 186.368 241.186,184.283 240.000,182.584 240.000 C 180.594 240.000,177.008 238.720,175.774 237.570 C 175.320 237.146,174.593 236.800,174.159 236.800 C 173.138 236.800,169.730 233.319,169.390 231.929 C 169.246 231.340,168.874 230.761,168.564 230.641 C 167.630 230.283,167.809 226.297,168.800 225.400 C 169.912 224.393,169.804 223.648,168.322 222.119 L 167.043 220.800 161.971 220.800 C 158.050 220.800,156.790 220.670,156.421 220.226 C 156.159 219.910,155.372 219.526,154.672 219.374 C 153.973 219.221,152.971 218.759,152.446 218.348 C 151.921 217.937,151.036 217.600,150.478 217.600 C 149.920 217.600,149.115 217.285,148.691 216.900 C 148.183 216.440,147.005 216.131,145.259 216.000 C 142.732 215.810,142.594 215.747,142.476 214.729 C 142.257 212.835,141.837 212.750,133.738 212.965 C 129.592 213.075,125.570 213.180,124.800 213.200 C 124.030 213.219,120.790 213.038,117.600 212.796 C 113.271 212.468,110.633 212.476,107.200 212.826 C 102.315 213.324,102.247 213.325,98.718 212.962 C 96.029 212.686,94.400 213.802,94.400 215.920 C 94.400 216.568,94.049 217.394,93.600 217.800 C 93.160 218.198,92.800 218.874,92.800 219.302 C 92.800 219.731,91.950 220.968,90.912 222.051 L 89.023 224.022 83.812 223.911 L 78.600 223.800 78.480 221.031 L 78.360 218.262 75.180 215.132 C 72.294 212.292,72.000 211.860,72.000 210.455 C 72.000 209.514,71.687 208.510,71.200 207.891 C 70.062 206.445,70.062 202.467,71.200 201.493 C 71.640 201.116,72.000 200.343,72.000 199.775 C 72.000 199.207,72.467 197.945,73.038 196.971 L 74.076 195.200 83.099 195.200 L 92.123 195.200 93.600 196.800 L 95.077 198.400 99.775 198.400 C 103.868 198.400,104.605 198.503,105.491 199.200 C 106.396 199.912,107.114 200.000,111.992 200.000 C 116.968 200.000,117.543 199.926,118.200 199.200 C 119.263 198.025,123.948 198.037,125.016 199.218 C 126.040 200.349,141.679 200.064,143.874 198.874 C 144.429 198.573,146.789 198.400,150.343 198.400 L 155.938 198.400 157.169 197.169 C 159.329 195.009,157.596 192.165,154.729 193.165 C 154.042 193.404,152.524 193.600,151.354 193.600 C 149.620 193.600,149.147 193.751,148.789 194.420 C 148.419 195.113,148.028 195.221,146.275 195.120 C 143.576 194.964,143.376 193.963,145.956 193.522 C 146.922 193.357,148.002 192.971,148.356 192.664 C 148.710 192.357,149.779 192.007,150.731 191.886 C 151.683 191.766,152.791 191.370,153.193 191.006 C 154.403 189.912,168.603 190.075,169.798 191.198 C 170.496 191.854,171.200 192.000,173.664 192.000 C 176.168 192.000,176.798 192.135,177.400 192.800 C 178.005 193.468,178.632 193.600,181.208 193.600 C 183.686 193.600,184.492 193.757,185.309 194.400 C 186.027 194.964,186.932 195.200,188.383 195.200 C 189.514 195.200,190.998 195.489,191.681 195.842 C 192.819 196.431,192.951 196.431,193.281 195.842 C 193.542 195.374,194.236 195.200,195.838 195.200 C 198.471 195.200,200.259 193.881,199.780 192.293 C 199.355 190.886,199.003 190.698,196.321 190.441 C 193.905 190.210,193.794 190.152,193.668 189.046 C 193.533 187.864,196.725 184.000,197.836 184.000 C 198.606 184.000,199.190 184.969,198.800 185.600 C 198.077 186.769,199.167 187.200,202.849 187.200 C 206.362 187.200,207.982 188.218,205.800 189.055 C 204.967 189.375,205.050 189.989,206.075 191.080 L 206.950 192.011 208.275 190.727 C 209.919 189.134,210.000 187.835,208.500 187.118 C 207.289 186.539,206.795 184.903,207.665 184.351 C 207.959 184.165,210.095 184.009,212.411 184.006 L 216.621 184.000 218.211 182.413 C 219.085 181.540,220.005 180.820,220.256 180.813 C 220.506 180.806,221.136 180.445,221.656 180.011 C 222.573 179.245,223.218 179.225,244.000 179.311 L 265.400 179.400 265.534 180.581 M227.680 181.280 C 226.822 182.138,227.167 183.374,228.579 184.500 L 229.957 185.600 242.518 185.600 L 255.078 185.600 257.004 183.857 C 260.438 180.748,260.669 180.800,243.293 180.800 C 232.056 180.800,228.036 180.924,227.680 181.280 M258.387 181.500 C 258.364 182.009,256.896 183.600,256.450 183.600 C 256.218 183.600,255.835 183.960,255.600 184.400 C 255.186 185.174,254.762 185.200,242.555 185.200 L 229.938 185.200 228.769 184.031 C 227.633 182.894,227.322 182.011,227.867 181.467 C 228.237 181.096,258.403 181.129,258.387 181.500 M222.226 183.802 L 221.157 185.203 222.078 185.537 C 223.251 185.961,226.513 185.641,226.876 185.066 C 227.219 184.525,224.906 182.400,223.975 182.400 C 223.601 182.400,222.814 183.031,222.226 183.802 M225.454 183.821 C 226.716 185.182,226.702 185.200,224.400 185.200 C 223.300 185.200,222.400 185.122,222.400 185.026 C 222.400 182.949,224.045 182.300,225.454 183.821 M259.680 186.080 C 258.202 187.558,259.536 188.800,262.600 188.800 C 265.209 188.800,266.000 188.373,266.000 186.963 C 266.000 185.599,260.876 184.884,259.680 186.080 M265.200 187.200 L 265.200 188.400 262.587 188.400 C 259.892 188.400,259.218 187.973,259.745 186.600 C 259.917 186.151,260.634 186.000,262.587 186.000 L 265.200 186.000 265.200 187.200 M270.267 187.067 C 269.860 187.473,269.949 190.321,270.376 190.585 C 270.583 190.713,271.663 190.882,272.776 190.960 C 273.889 191.038,275.073 191.329,275.407 191.606 C 275.901 192.015,276.145 191.998,276.708 191.516 C 277.088 191.189,277.715 190.810,278.100 190.673 C 278.992 190.357,279.037 188.295,278.171 187.429 C 277.524 186.782,270.857 186.476,270.267 187.067 M208.633 187.600 C 209.592 187.600,209.262 189.199,208.054 190.408 L 206.907 191.554 206.435 190.516 C 206.105 189.793,206.089 189.351,206.381 189.059 C 206.611 188.829,206.800 188.297,206.800 187.877 C 206.800 187.346,206.992 187.188,207.433 187.357 C 207.781 187.491,208.321 187.600,208.633 187.600 M277.669 187.862 C 279.649 189.655,277.973 190.927,273.994 190.650 C 270.593 190.414,269.125 189.009,270.667 187.467 C 271.265 186.868,276.923 187.188,277.669 187.862 M163.203 192.389 C 162.472 192.852,162.974 193.397,164.454 193.744 C 165.753 194.050,166.936 192.984,165.974 192.376 C 165.231 191.905,163.959 191.912,163.203 192.389 M165.800 192.800 C 165.944 193.033,165.537 193.200,164.824 193.200 C 164.151 193.200,163.600 193.020,163.600 192.800 C 163.600 192.580,164.039 192.400,164.576 192.400 C 165.113 192.400,165.664 192.580,165.800 192.800 M292.650 197.280 C 293.068 197.957,292.824 212.521,292.387 212.967 C 291.846 213.517,274.239 213.356,273.335 212.792 C 272.487 212.263,272.344 200.044,273.161 197.900 L 273.580 196.800 282.966 196.800 C 289.837 196.800,292.432 196.929,292.650 197.280 M294.000 207.000 C 294.000 213.163,293.923 214.000,293.357 214.000 C 292.909 214.000,292.796 213.789,292.985 213.300 C 293.134 212.915,293.239 209.765,293.219 206.300 C 293.195 202.249,293.328 200.000,293.591 200.000 C 293.854 200.000,294.000 202.496,294.000 207.000 M157.427 201.896 C 156.562 201.984,155.487 202.314,155.038 202.629 C 154.589 202.943,153.896 203.200,153.498 203.200 C 152.437 203.200,147.842 204.808,147.549 205.282 C 146.691 206.671,148.609 208.291,151.111 208.291 C 152.129 208.291,153.108 208.555,153.540 208.945 C 153.938 209.305,154.642 209.600,155.105 209.600 C 155.569 209.600,156.455 209.801,157.074 210.047 C 158.847 210.751,160.686 211.120,161.069 210.849 C 162.221 210.030,162.693 208.450,162.626 205.644 C 162.530 201.640,162.206 201.406,157.427 201.896 M161.200 202.647 C 161.200 203.122,160.962 203.229,160.300 203.052 C 159.805 202.919,159.220 202.806,159.000 202.799 C 158.780 202.793,158.870 202.613,159.200 202.400 C 160.130 201.799,161.200 201.931,161.200 202.647 M158.000 203.600 C 158.000 203.820,157.482 204.000,156.849 204.000 C 155.459 204.000,154.957 204.544,154.605 206.427 L 154.338 207.854 151.932 207.755 C 148.274 207.606,146.451 205.515,149.500 204.966 C 150.325 204.817,151.253 204.494,151.561 204.248 C 152.035 203.870,153.947 203.540,157.300 203.259 C 157.685 203.226,158.000 203.380,158.000 203.600 M176.223 204.089 C 174.938 205.923,175.896 208.400,177.889 208.400 C 178.887 208.400,179.200 207.687,179.200 205.410 C 179.200 203.079,177.468 202.311,176.223 204.089 M160.084 205.206 C 159.842 208.114,159.565 208.875,158.862 208.563 C 158.498 208.402,157.525 208.191,156.700 208.093 C 155.168 207.912,155.048 207.745,155.197 206.000 C 155.298 204.814,155.819 204.414,157.276 204.406 C 157.868 204.403,158.470 204.210,158.614 203.978 C 159.226 202.987,160.201 203.801,160.084 205.206 M178.722 205.700 C 178.842 207.579,178.830 207.600,177.622 207.600 C 176.393 207.600,176.156 207.145,176.372 205.200 C 176.656 202.626,178.551 203.029,178.722 205.700 M200.619 204.500 C 200.452 204.885,200.452 205.515,200.619 205.900 C 200.909 206.567,200.932 206.567,201.091 205.900 C 201.374 204.719,201.003 203.619,200.619 204.500 M161.211 209.596 C 161.063 210.148,160.820 210.555,160.671 210.500 C 160.522 210.445,160.085 210.395,159.700 210.388 C 159.033 210.376,159.033 210.356,159.700 209.968 C 160.212 209.670,160.400 209.047,160.400 207.647 C 160.400 206.594,160.535 205.597,160.700 205.431 C 161.122 205.006,161.536 208.382,161.211 209.596 M200.667 207.867 C 200.252 208.282,200.353 209.600,200.800 209.600 C 201.020 209.600,201.200 209.150,201.200 208.600 C 201.200 207.553,201.108 207.426,200.667 207.867 M157.800 208.800 C 158.120 209.318,155.602 209.318,154.800 208.800 C 154.360 208.516,154.647 208.411,155.876 208.406 C 156.798 208.403,157.664 208.580,157.800 208.800 M216.472 209.713 C 215.622 210.738,216.620 211.228,219.833 211.363 C 223.899 211.535,225.200 211.301,225.200 210.397 C 225.200 209.163,217.433 208.555,216.472 209.713 M224.800 210.400 C 224.800 210.640,223.208 210.800,220.824 210.800 C 218.604 210.800,216.738 210.623,216.600 210.400 C 216.441 210.143,217.863 210.000,220.576 210.000 C 223.125 210.000,224.800 210.159,224.800 210.400 M181.281 219.679 C 180.909 220.051,181.040 220.407,181.869 221.272 C 183.064 222.520,184.000 222.222,184.000 220.594 C 184.000 219.299,182.250 218.710,181.281 219.679 M195.614 219.783 C 194.900 220.643,196.957 222.700,197.817 221.986 C 198.138 221.720,198.400 221.200,198.400 220.831 C 198.400 219.356,196.547 218.659,195.614 219.783 M183.455 220.200 C 183.983 221.575,183.256 222.138,182.229 221.150 C 181.698 220.639,181.350 220.081,181.455 219.910 C 181.790 219.369,183.216 219.576,183.455 220.200 M197.855 220.200 C 198.389 221.589,197.646 222.183,196.602 221.202 C 196.064 220.697,195.720 220.130,195.836 219.942 C 196.186 219.375,197.609 219.557,197.855 220.200 M176.480 226.080 C 175.371 227.189,177.585 230.400,179.457 230.400 C 179.907 230.400,180.602 230.760,181.000 231.200 C 181.398 231.640,182.118 232.000,182.600 232.000 C 183.082 232.000,183.802 232.360,184.200 232.800 C 184.732 233.387,185.432 233.600,186.835 233.600 C 188.386 233.600,188.793 233.749,188.997 234.390 C 189.337 235.462,191.110 236.800,192.192 236.800 C 192.678 236.800,193.402 237.160,193.800 237.600 C 194.889 238.804,197.901 238.735,198.209 237.500 C 198.802 235.114,198.221 227.896,197.400 227.459 C 196.960 227.224,196.112 226.710,195.516 226.316 C 194.164 225.423,177.346 225.214,176.480 226.080 M195.090 226.772 C 195.355 227.197,196.073 227.602,196.686 227.672 L 197.800 227.800 197.800 232.800 L 197.800 237.800 196.126 237.922 C 194.772 238.020,194.367 237.886,194.012 237.222 C 193.730 236.696,193.172 236.400,192.461 236.400 C 189.530 236.400,188.566 233.036,191.253 232.183 C 192.214 231.878,192.253 230.394,191.300 230.415 C 190.915 230.424,190.237 231.009,189.794 231.715 C 188.748 233.383,185.176 233.851,184.411 232.420 C 184.122 231.880,183.572 231.600,182.800 231.600 C 182.038 231.600,181.479 231.321,181.200 230.800 C 180.944 230.322,180.362 230.000,179.755 230.000 C 178.052 230.000,175.735 227.199,176.667 226.267 C 177.416 225.517,194.600 225.989,195.090 226.772 M203.797 227.823 L 201.825 229.686 201.669 233.569 L 201.513 237.451 202.787 238.726 C 205.096 241.034,206.466 240.649,210.355 236.598 C 213.857 232.951,214.400 232.012,214.400 229.601 C 214.400 227.389,213.108 226.585,208.985 226.234 L 205.770 225.960 203.797 227.823 M207.800 226.800 C 207.936 227.020,208.925 227.200,209.998 227.200 C 213.977 227.200,215.452 229.646,213.200 232.509 C 212.760 233.069,212.400 233.639,212.400 233.777 C 212.400 233.915,211.146 235.281,209.614 236.814 C 206.321 240.107,204.957 240.443,203.034 238.435 C 201.640 236.980,201.540 230.313,202.900 229.552 C 203.285 229.336,203.600 228.914,203.600 228.613 C 203.600 227.612,207.312 226.010,207.800 226.800 M270.890 227.270 C 269.740 228.420,272.477 229.251,275.100 228.548 C 276.275 228.233,276.238 227.837,274.981 227.264 C 273.666 226.665,271.492 226.668,270.890 227.270 M274.233 227.600 C 274.545 227.600,274.800 227.780,274.800 228.000 C 274.800 228.220,273.990 228.400,273.000 228.400 C 272.010 228.400,271.200 228.233,271.200 228.029 C 271.200 227.588,272.381 227.232,273.133 227.448 C 273.426 227.531,273.921 227.600,274.233 227.600 M226.800 228.927 C 223.753 230.497,226.354 234.244,230.191 233.810 C 233.463 233.440,234.467 231.925,233.357 229.033 C 233.049 228.230,228.300 228.154,226.800 228.927 M233.200 230.976 C 233.200 233.133,233.091 233.209,229.943 233.253 C 227.208 233.292,226.000 232.486,226.000 230.622 C 226.000 229.292,226.249 229.200,229.867 229.200 L 233.200 229.200 233.200 230.976 M264.500 232.287 C 263.863 232.516,263.850 234.090,264.480 234.720 C 265.088 235.328,266.104 235.336,266.701 234.739 C 267.567 233.873,265.743 231.842,264.500 232.287 M266.564 234.458 C 265.825 235.653,264.046 234.300,264.568 232.940 C 264.791 232.359,264.937 232.390,265.798 233.198 C 266.336 233.703,266.680 234.270,266.564 234.458 M279.696 245.096 C 287.023 252.414,287.362 253.002,285.382 254.982 C 283.364 256.999,282.779 256.655,275.470 249.164 C 268.521 242.042,267.521 240.460,269.563 239.812 C 269.983 239.679,270.427 239.306,270.550 238.985 C 271.237 237.195,272.893 238.301,279.696 245.096 M209.078 241.672 C 208.129 242.018,207.974 242.275,208.078 243.332 C 208.327 245.881,211.600 245.913,211.600 243.367 C 211.600 242.653,210.620 241.078,210.271 241.232 C 210.232 241.249,209.695 241.447,209.078 241.672 M210.894 242.979 C 210.997 243.518,210.919 244.121,210.720 244.320 C 210.034 245.006,208.400 244.372,208.400 243.420 C 208.400 241.677,210.572 241.293,210.894 242.979 M289.400 256.021 C 289.400 257.222,289.243 257.421,288.000 257.787 C 287.230 258.014,286.363 258.353,286.073 258.540 C 284.289 259.692,285.251 256.776,287.087 255.470 C 288.931 254.157,289.400 254.269,289.400 256.021 " stroke="none" fill="#9e9e9e" fill-rule="evenodd"></path></g></svg>