<?xml version="1.0" encoding="UTF-8" standalone="no"?>
<svg
   xmlns:dc="http://purl.org/dc/elements/1.1/"
   xmlns:cc="http://creativecommons.org/ns#"
   xmlns:rdf="http://www.w3.org/1999/02/22-rdf-syntax-ns#"
   xmlns:svg="http://www.w3.org/2000/svg"
   xmlns="http://www.w3.org/2000/svg"
   xmlns:sodipodi="http://sodipodi.sourceforge.net/DTD/sodipodi-0.dtd"
   xmlns:inkscape="http://www.inkscape.org/namespaces/inkscape"
   id="svg"
   version="1.1"
   width="400"
   height="400"
   viewBox="0, 0, 400,400"
   sodipodi:docname="ScoutRifle.svg"
   inkscape:version="0.92.4 (5da689c313, 2019-01-14)">
  <metadata
     id="metadata208">
    <rdf:RDF>
      <cc:Work
         rdf:about="">
        <dc:format>image/svg+xml</dc:format>
        <dc:type
           rdf:resource="http://purl.org/dc/dcmitype/StillImage" />
      </cc:Work>
    </rdf:RDF>
  </metadata>
  <defs
     id="defs206" />
  <sodipodi:namedview
     pagecolor="#ffffff"
     bordercolor="#666666"
     borderopacity="1"
     objecttolerance="10"
     gridtolerance="10"
     guidetolerance="10"
     inkscape:pageopacity="0"
     inkscape:pageshadow="2"
     inkscape:window-width="640"
     inkscape:window-height="480"
     id="namedview204"
     showgrid="false"
     inkscape:zoom="0.59"
     inkscape:cx="200"
     inkscape:cy="200"
     inkscape:window-x="0"
     inkscape:window-y="0"
     inkscape:window-maximized="0"
     inkscape:current-layer="svg" />
  <g
     id="svgg"
     transform="translate(0,154.23729)">
    <path
       id="path0"
       d="m 186,187.153 c 0,1.126 1.201,1.941 2.069,1.404 0.984,-0.608 0.321,-2.557 -0.869,-2.557 -1.056,0 -1.2,0.139 -1.2,1.153 m -9,2.874 c -0.774,0.496 -1.913,0.77 -3.211,0.771 -1.514,0.001 -2.18,0.2 -2.696,0.802 -0.669,0.781 -1.18,0.8 -21.593,0.8 -20.474,0 -20.918,0.017 -21.407,0.8 -0.29,0.465 -0.933,0.8 -1.533,0.8 -0.569,0 -1.491,0.36 -2.051,0.8 -0.559,0.44 -1.369,0.8 -1.8,0.8 -0.43,0 -1.24,0.36 -1.8,0.8 -0.559,0.44 -1.242,0.8 -1.517,0.8 -0.275,0 -1.016,0.269 -1.646,0.598 -1.444,0.753 -1.923,0.753 -2.546,0.002 -0.353,-0.426 -1.288,-0.6 -3.22,-0.6 h -2.722 l -0.006,14.8 -0.006,14.8 h 2.115 c 2.727,0 3.439,-0.721 3.439,-3.483 0,-2.754 0.289,-2.904 5.738,-2.961 2.564,-0.027 4.662,-0.193 4.662,-0.369 0,-0.505 -0.89,-0.697 -2.259,-0.488 -1.022,0.156 -1.309,0.033 -1.527,-0.653 -0.238,-0.751 -0.571,-0.846 -2.961,-0.846 -3.203,0 -3.653,-0.345 -3.653,-2.8 0,-2.722 2.423,-4.034 3.693,-2 0.301,0.482 0.933,0.8 1.588,0.8 0.598,0 1.421,0.358 1.828,0.795 0.459,0.492 1.396,0.846 2.461,0.931 1.085,0.086 1.859,0.383 2.095,0.805 0.447,0.797 1.766,0.887 2.052,0.14 0.161,-0.418 1.62,-0.499 6.943,-0.386 3.707,0.079 7.565,0.141 8.573,0.137 1.516,-0.005 2.03,0.2 2.975,1.186 l 1.142,1.192 h -3.455 c -2.726,0 -3.53,-0.133 -3.807,-0.629 -0.28,-0.499 -1.292,-0.66 -4.92,-0.78 -2.512,-0.083 -4.838,-0.188 -5.168,-0.234 -1.583,-0.219 -2.4,0.068 -2.4,0.843 0,0.514 0.267,0.8 0.746,0.8 0.41,0 1.204,0.36 1.763,0.8 0.56,0.44 1.15,0.8 1.313,0.8 0.162,0 1.257,0.638 2.433,1.419 1.175,0.78 2.769,1.682 3.541,2.005 0.772,0.323 1.404,0.745 1.404,0.938 0,0.193 0.495,0.475 1.1,0.627 0.605,0.152 1.422,0.621 1.816,1.043 0.393,0.423 1.04,0.768 1.438,0.768 0.397,0 1.048,0.36 1.446,0.8 0.398,0.44 0.968,0.8 1.266,0.8 0.298,0 0.85,0.36 1.227,0.8 0.377,0.44 0.991,0.8 1.365,0.8 0.749,0 3.142,1.855 3.142,2.436 0,0.577 -1.453,0.423 -1.979,-0.21 -0.651,-0.785 -2.734,-1.196 -3.373,-0.666 -0.397,0.329 -0.748,0.078 -1.487,-1.064 -0.635,-0.98 -1.476,-1.661 -2.447,-1.979 -0.813,-0.267 -2.203,-0.942 -3.089,-1.501 -2.153,-1.36 -2.332,-1.307 -2.646,0.781 -0.378,2.528 0.061,4.406 1.206,5.156 0.625,0.41 1.007,1.09 1.089,1.939 l 0.126,1.308 h 3.525 c 2.941,0 3.591,0.116 3.92,0.7 0.75,1.33 4.355,0.647 4.355,-0.825 0,-1.694 2.392,-2.989 4.583,-2.48 1.109,0.257 2.737,0.567 3.617,0.687 0.88,0.121 2.029,0.557 2.554,0.969 0.636,0.499 1.604,0.749 2.904,0.749 1.455,0 2.124,0.203 2.635,0.8 0.511,0.597 1.18,0.8 2.633,0.8 1.342,0 2.264,0.249 2.965,0.8 2.402,1.889 11.709,0.762 11.709,-1.418 0,-0.553 -1.99,-0.056 -2.636,0.658 -0.963,1.064 -5.238,0.96 -6.473,-0.158 -0.469,-0.424 -1.422,-0.684 -2.522,-0.686 -3.221,-0.008 -5.634,-3.72 -3.569,-5.489 0.44,-0.377 0.8,-1.093 0.8,-1.593 0,-0.499 0.36,-1.132 0.8,-1.407 0.44,-0.275 0.8,-0.792 0.8,-1.149 0,-0.358 0.36,-1.108 0.8,-1.667 0.44,-0.56 0.802,-1.439 0.804,-1.954 0.006,-1.281 2.39,-3.537 3.739,-3.537 1.259,0 1.357,-0.42 0.257,-1.107 -0.94,-0.587 -1.187,-5.546 -0.32,-6.413 0.823,-0.823 3.163,-0.603 3.404,0.32 0.286,1.092 0.778,1.005 1.077,-0.188 0.515,-2.049 8.223,-3.175 9.725,-1.42 0.38,0.444 0.867,0.808 1.081,0.808 1.795,0 2.997,2.812 1.833,4.291 -0.858,1.091 -1.051,2.109 -0.4,2.109 0.22,0 0.4,-0.225 0.4,-0.5 0,-0.74 2.624,-2.7 3.615,-2.7 0.471,0 1.177,-0.395 1.568,-0.879 l 0.712,-0.879 21.814,0.104 c 15.061,0.071 21.895,-0.028 22.076,-0.321 0.173,-0.281 -0.501,-0.425 -1.981,-0.425 -1.287,0 -2.779,-0.277 -3.498,-0.649 -0.751,-0.388 -2.631,-0.72 -4.681,-0.827 -2.411,-0.126 -3.721,-0.389 -4.425,-0.888 -0.669,-0.475 -2.07,-0.783 -4.239,-0.931 -1.781,-0.121 -3.797,-0.51 -4.48,-0.863 -1.429,-0.739 -5.328,-0.859 -6.557,-0.202 -0.452,0.243 -2.71,0.517 -5.017,0.61 -2.307,0.093 -4.556,0.362 -4.997,0.598 -0.453,0.243 -1.533,0.319 -2.485,0.177 -1.529,-0.23 -1.726,-0.16 -2.146,0.761 -0.254,0.558 -0.623,1.014 -0.82,1.014 -0.198,0 -0.467,0.54 -0.599,1.2 -0.244,1.22 -1.807,1.794 -1.904,0.7 -0.302,-3.411 1.723,-5.964 4.994,-6.294 1.445,-0.146 2.077,-0.393 2.164,-0.847 0.157,-0.823 -4.231,-1.201 -8.914,-0.768 -1.76,0.163 -4.793,0.13 -6.739,-0.074 -3.035,-0.317 -3.64,-0.279 -4.248,0.272 -0.587,0.531 -0.89,0.559 -1.761,0.162 -1.404,-0.64 -1.326,-1 0.348,-1.605 1.063,-0.385 1.4,-0.734 1.4,-1.454 0,-1.247 1.624,-1.093 2.195,0.208 0.491,1.119 1.842,1.173 2.512,0.1 0.44,-0.704 0.933,-0.8 4.096,-0.8 2.131,0 3.597,-0.163 3.597,-0.4 0,-0.22 -0.585,-0.406 -1.3,-0.413 -1.658,-0.016 -3.166,-0.999 -2.028,-1.322 0.915,-0.259 7.278,-0.25 8.257,0.012 0.667,0.179 0.676,0.255 0.099,0.892 -0.346,0.383 -0.509,0.816 -0.362,0.963 0.425,0.425 2.06,0.311 2.354,-0.164 0.578,-0.935 3.78,0.66 3.78,1.883 0,0.289 -0.585,0.68 -1.3,0.869 -1.997,0.527 2.786,0.945 5.9,0.516 1.32,-0.182 1.855,-0.355 1.189,-0.384 -1.684,-0.072 -3.172,-1.149 -2.578,-1.865 0.574,-0.692 5.079,-0.696 6.189,-0.005 0.44,0.273 1.459,0.713 2.265,0.977 0.805,0.264 1.565,0.741 1.687,1.06 0.136,0.354 0.767,0.581 1.612,0.581 1.538,0 2.296,-0.676 1.161,-1.035 -2.275,-0.721 -2.615,-0.974 -2.117,-1.575 0.766,-0.923 3.469,-0.768 4.002,0.229 0.77,1.438 2.293,1.739 8.99,1.775 4.339,0.023 6.692,0.197 7.307,0.538 0.749,0.416 1.057,0.398 1.773,-0.103 0.637,-0.446 1.004,-0.491 1.391,-0.17 0.381,0.316 1.041,0.307 2.391,-0.033 1.088,-0.274 1.963,-0.319 2.101,-0.108 0.13,0.199 0.642,0.576 1.137,0.836 0.593,0.312 0.902,0.845 0.905,1.56 0.009,1.687 0.436,2.886 1.028,2.886 0.296,0 0.732,0.36 0.967,0.8 0.25,0.468 0.838,0.8 1.414,0.8 1.345,0 1.24,-0.529 -0.214,-1.078 -1.419,-0.535 -1.58,-1.975 -0.438,-3.922 l 0.704,-1.2 18.952,-0.046 c 18.132,-0.043 18.97,-0.078 19.367,-0.8 0.228,-0.414 0.455,-0.824 0.505,-0.911 0.049,-0.086 0.421,0.252 0.825,0.751 0.581,0.718 0.939,0.839 1.71,0.58 0.536,-0.18 1.262,-0.286 1.614,-0.236 0.747,0.107 1.734,-0.934 1.399,-1.476 -0.137,-0.222 -9.089,-0.398 -22.115,-0.436 -14.945,-0.043 -22.05,-0.2 -22.404,-0.494 -0.904,-0.75 -0.653,-4.062 0.381,-5.032 1.967,-1.846 2.155,-2.5 0.717,-2.5 -0.358,0 -1.296,-0.703 -2.087,-1.562 l -1.436,-1.563 -20.147,-0.152 c -17.941,-0.136 -20.317,-0.228 -21.696,-0.838 -2.005,-0.887 -2.72,-0.864 -3.558,0.115 -0.591,0.69 -1.18,0.8 -4.286,0.8 -3.167,0 -3.66,-0.096 -4.1,-0.8 -0.438,-0.701 -0.933,-0.8 -4.007,-0.8 -2.938,0 -3.612,-0.122 -4.152,-0.752 -0.63,-0.736 -0.66,-0.736 -1.396,0 -0.975,0.975 -2.185,0.956 -3.045,-0.048 -0.976,-1.14 -6.914,-1.121 -8.707,0.027 m -9.769,4.342 c 1.459,1.459 1.463,2 0.027,3.375 l -1.141,1.094 -10.639,-0.119 c -6.401,-0.072 -10.795,-0.278 -11.03,-0.519 -1.049,-1.073 -0.917,-2.47 0.354,-3.741 l 1.26,-1.259 h 10 10 l 1.169,1.169 m 13.743,-0.779 c 1.25,0.475 1.328,1.42 0.167,2.042 -1.034,0.553 -3.941,-0.161 -3.941,-0.968 0,-1.333 1.768,-1.836 3.774,-1.074 m 14.146,0.09 c 1.246,1.246 0.066,3.52 -1.827,3.52 -1.06,0 -3.293,-1.759 -3.293,-2.595 0,-1.316 4.005,-2.04 5.12,-0.925 m 45.615,4.418 c 1.577,0.752 1.704,3.099 0.247,4.557 l -1.066,1.066 -6.058,-0.265 c -8.495,-0.371 -9.992,-1.118 -8.315,-4.147 0.991,-1.791 12.117,-2.678 15.192,-1.211 m 11.194,1.426 c 2.9,2.406 0.984,4.076 -4.675,4.076 -3.801,0 -4.454,-0.298 -4.454,-2.031 0,-1.386 0.493,-1.726 3.4,-2.347 1.32,-0.282 2.58,-0.568 2.8,-0.635 1.001,-0.309 1.694,-0.087 2.929,0.937 m -112.511,1.04 c 0.521,0.381 0.993,0.444 1.458,0.195 0.378,-0.202 2.091,-0.297 3.806,-0.211 3.73,0.188 33.179,0.348 37.008,0.202 5.268,-0.202 3.767,1.719 -1.595,2.04 l -3.495,0.21 -0.133,1.398 c -0.26,2.744 -3.162,3.452 -5.207,1.27 -0.965,-1.029 -1.164,-1.089 -2.215,-0.657 -2.105,0.864 -6.686,0.302 -7.74,-0.949 L 160.41,203 143.505,202.912 c -9.298,-0.049 -18.748,-0.105 -21.001,-0.126 -2.253,-0.021 -4.274,0.072 -4.492,0.206 -1.002,0.62 -2.045,-0.569 -1.385,-1.577 0.69,-1.053 5.976,-1.392 7.443,-0.477 0.475,0.295 0.977,0.278 1.719,-0.06 1.313,-0.599 6.7,-0.629 7.288,-0.041 0.316,0.316 0.67,0.312 1.28,-0.014 0.626,-0.335 1.061,-0.335 1.69,0.002 0.674,0.361 0.976,0.323 1.485,-0.186 0.781,-0.781 0.914,-0.786 1.886,-0.075 m 70.858,0.082 c 0.868,0.233 0.867,0.242 -0.2,1.165 l -1.076,0.93 -0.904,-0.844 c -1.287,-1.202 -0.124,-1.869 2.18,-1.251 m 11.741,0.372 c 0.017,0.638 -5.168,1.121 -5.861,0.545 -0.477,-0.395 -0.491,-0.556 -0.075,-0.816 0.71,-0.442 5.923,-0.205 5.936,0.271 M 198.8,202.6 c 0,0.673 0.073,0.7 0.967,0.357 0.894,-0.343 0.787,-0.957 -0.167,-0.957 -0.444,0 -0.8,0.267 -0.8,0.6 m -1.508,1.475 c 0.247,0.742 1.108,0.865 1.108,0.158 0,-0.348 -0.285,-0.633 -0.633,-0.633 -0.349,0 -0.562,0.214 -0.475,0.475 m 103.418,-0.252 c -0.805,0.805 1.878,3.377 3.523,3.377 0.727,0 1.471,-1.844 1.15,-2.853 -0.231,-0.727 -4.042,-1.154 -4.673,-0.524 m -121.21,3.754 c 1.365,1.139 0.404,3.168 -1.52,3.21 -1.636,0.035 -2.008,-1.622 -0.68,-3.024 1.076,-1.135 1.063,-1.134 2.2,-0.186 m 45.839,-0.323 c 0.529,0.307 0.863,0.304 1.18,-0.013 0.321,-0.321 0.122,-0.438 -0.739,-0.429 -1.034,0.011 -1.089,0.065 -0.441,0.442 m -108.513,0.76 c 0.997,0.534 0.979,1.215 -0.061,2.331 -0.624,0.67 -0.965,0.787 -1.356,0.462 -1.673,-1.388 -0.453,-3.794 1.417,-2.793 m 20.734,0.137 c 0.827,0.997 -0.135,2.649 -1.542,2.649 -1.263,0 -1.983,-1.271 -1.474,-2.599 0.291,-0.758 2.399,-0.792 3.016,-0.05 m 16.372,0.582 c 0.187,1.322 -1.009,2.561 -1.973,2.045 -1.246,-0.667 -1.655,-1.825 -0.908,-2.572 0.956,-0.956 2.717,-0.634 2.881,0.527 M 238,207.959 c -4.852,0.278 -5.546,0.936 -1.333,1.264 1.576,0.123 3.142,0.453 3.48,0.733 0.34,0.283 0.979,0.395 1.43,0.251 0.449,-0.142 1.042,-0.112 1.319,0.067 0.277,0.179 1.133,0.512 1.902,0.738 1.106,0.327 1.441,0.661 1.604,1.6 0.192,1.11 0.323,1.188 2.002,1.188 2.023,0 2.683,-1.17 1.389,-2.464 -0.376,-0.376 -0.587,-1.055 -0.488,-1.573 0.349,-1.824 -2.639,-2.301 -11.305,-1.804 m -72.967,2.501 c 3.149,0.611 3.367,0.835 3.367,3.467 0,4.348 -3.755,7.59 -6.899,5.959 -2.672,-1.386 -3.501,-2.703 -3.501,-5.561 0,-2.878 0.096,-3.029 2.4,-3.783 1.866,-0.611 1.909,-0.611 4.633,-0.082 m -14.06,9.782 c 1.165,0.974 1.885,1.981 2.216,3.1 0.269,0.912 0.722,1.928 1.006,2.258 0.284,0.33 0.64,1.184 0.792,1.898 0.151,0.713 0.517,1.433 0.812,1.6 0.878,0.494 1.225,2.502 0.432,2.502 -0.361,0 -0.723,-0.225 -0.805,-0.5 -0.292,-0.98 -0.655,-1.722 -1.615,-3.3 -0.535,-0.88 -1.18,-2.05 -1.434,-2.6 -0.255,-0.55 -0.63,-1.27 -0.834,-1.6 -0.205,-0.33 -0.58,-1.082 -0.834,-1.671 -0.254,-0.589 -0.878,-1.26 -1.386,-1.491 -0.93,-0.424 -1.148,-0.88 -0.656,-1.371 0.401,-0.402 0.449,-0.377 2.306,1.175 M 192.4,221 c 0,0.55 0.18,1 0.4,1 0.22,0 0.4,-0.45 0.4,-1 0,-0.55 -0.18,-1 -0.4,-1 -0.22,0 -0.4,0.45 -0.4,1 m -64,1.4 c 0,0.686 0.214,1.206 0.5,1.214 0.275,0.008 1.022,0.442 1.66,0.963 l 1.16,0.949 -0.083,5.346 c -0.091,5.905 0.502,7.39 2.824,7.061 0.927,-0.131 0.939,-0.194 0.951,-5.133 0.007,-2.75 0.146,-5.277 0.31,-5.615 0.504,-1.04 -1.712,-2.829 -3.339,-2.696 -1.03,0.085 -1.387,-0.059 -1.499,-0.603 -0.136,-0.654 -1.877,-2.686 -2.302,-2.686 -0.1,0 -0.182,0.54 -0.182,1.2 m 62.4,2.624 c 0,0.58 0.173,0.916 0.4,0.776 0.22,-0.136 0.4,-0.597 0.4,-1.024 0,-0.427 -0.18,-0.776 -0.4,-0.776 -0.22,0 -0.4,0.461 -0.4,1.024 m -1.6,3.776 c 0,0.66 0.18,1.2 0.4,1.2 0.22,0 0.4,-0.54 0.4,-1.2 0,-0.66 -0.18,-1.2 -0.4,-1.2 -0.22,0 -0.4,0.54 -0.4,1.2 m -1.6,3.2 c 0,0.66 0.18,1.2 0.4,1.2 0.22,0 0.4,-0.54 0.4,-1.2 0,-0.66 -0.18,-1.2 -0.4,-1.2 -0.22,0 -0.4,0.54 -0.4,1.2 m -40.8,2.224 c 0,0.317 -0.18,0.576 -0.4,0.576 -0.22,0 -0.4,-0.371 -0.4,-0.824 0,-0.453 0.18,-0.712 0.4,-0.576 0.22,0.136 0.4,0.507 0.4,0.824 M 186,235.2 c 0,0.66 0.18,1.2 0.4,1.2 0.22,0 0.4,-0.54 0.4,-1.2 0,-0.66 -0.18,-1.2 -0.4,-1.2 -0.22,0 -0.4,0.54 -0.4,1.2"
       inkscape:connector-curvature="0"
       style="fill:#141414;fill-rule:evenodd;stroke:none" />
    <path
       id="path1"
       d="m -415.25424,186.44068 v 200 h 200 200.000003 v -200 -200.000002 h -200.000003 -200 V 186.44068 m 189.126,-13.292 c 0.241,2.505 1.599,3.292 5.678,3.292 3.158,0 3.617,0.092 3.996,0.8 0.665,1.243 6.557,1.189 7.575,-0.069 0.74,-0.913 4.184,-0.78 11.225,0.432 1.21,0.208 9.58,0.394 18.6,0.412 l 16.4,0.033 1.4,1.592 c 0.802,0.912 1.763,1.594 2.251,1.596 1.487,0.007 2.083,1.166 1.036,2.014 -0.488,0.395 -0.887,0.908 -0.887,1.14 0,0.232 -0.37,0.62 -0.822,0.862 -0.664,0.355 -0.798,0.76 -0.7,2.114 l 0.122,1.674 25.385,0.2 25.384,0.2 0.601,1.071 c 1.502,2.676 -1.755,5.269 -4.493,3.577 -1.358,-0.84 -8.394,-0.83 -8.914,0.012 -0.354,0.572 -2.834,0.378 -3.367,-0.264 -0.435,-0.525 -2.744,-0.591 -17.549,-0.5 l -17.047,0.104 -0.12,1.848 c -0.104,1.601 -0.006,1.878 0.732,2.071 0.617,0.161 0.815,0.478 0.72,1.152 -0.15,1.056 -2.727,1.563 -3.728,0.733 -0.421,-0.35 -0.657,-0.203 -1.077,0.674 l -0.538,1.122 -24.994,0.101 c -24.481,0.098 -25.006,0.117 -25.544,0.9 -0.331,0.481 -0.999,0.799 -1.682,0.799 -1.134,0 -2.817,1.306 -3.298,2.56 -0.135,0.352 -0.522,0.64 -0.858,0.64 -0.445,0 -0.613,0.424 -0.613,1.546 0,0.94 -0.313,1.945 -0.8,2.563 -0.44,0.56 -0.8,1.482 -0.8,2.051 0,0.6 -0.335,1.243 -0.8,1.533 -0.542,0.338 -0.8,0.933 -0.8,1.841 0,1.004 -0.201,1.393 -0.8,1.55 -0.606,0.159 -0.8,0.546 -0.8,1.6 0,1.054 -0.194,1.441 -0.8,1.6 -0.606,0.159 -0.8,0.546 -0.8,1.6 0,1.054 -0.194,1.441 -0.8,1.6 -0.44,0.115 -0.8,0.382 -0.8,0.593 0,2.556 -11.149,4.194 -13.093,1.923 -0.511,-0.597 -1.18,-0.8 -2.633,-0.8 -1.342,0 -2.264,-0.249 -2.965,-0.8 -0.729,-0.574 -1.623,-0.8 -3.16,-0.8 -1.709,0 -2.243,-0.162 -2.642,-0.8 -0.735,-1.178 -5.907,-1.207 -5.907,-0.033 0,2.254 -1.84,2.932 -2.26,0.833 -0.282,-1.412 -0.94,-1.608 -0.94,-0.28 0,1.904 -3.974,2.751 -5.678,1.21 -0.66,-0.598 -1.075,-0.618 -3.829,-0.19 -3.533,0.549 -4.093,0.244 -4.093,-2.229 0,-1.019 -0.214,-1.418 -0.9,-1.677 -1.29,-0.487 -1.5,-0.22 -1.5,1.91 0,2.244 -0.492,2.856 -2.298,2.856 -2.75,0 -3.302,-1.197 -3.302,-7.164 0,-5.503 -0.353,-6.518 -2.56,-7.365 -1.212,-0.465 -0.874,-3.871 0.384,-3.871 0.58,0 0.916,-0.173 0.776,-0.4 -0.38,-0.615 -1.454,-0.476 -2.309,0.3 -0.624,0.567 -1.774,0.738 -6.031,0.9 l -5.26,0.2 -0.118,2.454 c -0.16,3.34 -0.73,3.822 -4.335,3.665 l -2.747,-0.119 -0.105,-15.311 c -0.096,-14.136 -0.052,-15.331 0.58,-15.573 0.726,-0.279 1.137,-0.285 6.627,-0.093 3.171,0.111 3.58,0.04 4.316,-0.75 0.447,-0.48 1.183,-0.873 1.634,-0.873 0.452,0 1.279,-0.36 1.839,-0.8 0.559,-0.44 1.616,-0.8 2.349,-0.8 0.922,0 1.463,-0.246 1.76,-0.8 0.42,-0.784 0.838,-0.8 21.16,-0.8 20.126,0 20.762,-0.023 21.749,-0.8 0.688,-0.541 1.623,-0.8 2.891,-0.8 1.268,0 2.203,-0.259 2.891,-0.8 0.861,-0.677 1.623,-0.8 4.963,-0.8 h 3.946 v -1.333 c 0,-2.489 3.688,-2.826 3.926,-0.359 m -43.855,8.377 -0.93,1.001 0.899,0.957 0.899,0.957 9.831,-0.007 9.83,-0.007 0.912,-0.962 0.913,-0.963 -1.031,-1.03 -1.03,-1.031 -9.682,0.042 -9.682,0.042 -0.929,1.001 m 45.784,-0.775 c -0.368,0.596 1.685,2.163 2.496,1.905 0.837,-0.265 1.39,-1.263 1.027,-1.851 -0.274,-0.443 -3.254,-0.488 -3.523,-0.054 m 35.72,5.315 c -1.287,1.287 -0.766,1.753 2.256,2.015 1.523,0.131 3.398,0.446 4.166,0.7 4.098,1.35 8.003,0.147 8.003,-2.466 v -1.074 h -6.8 c -6.335,0 -6.856,0.056 -7.625,0.825 m 19.625,0.728 c -2.441,0.232 -2.6,0.308 -2.6,1.247 0,1.577 6.341,1.753 7.785,0.216 0.523,-0.557 0.869,-1.095 0.768,-1.196 -0.371,-0.371 -3.425,-0.508 -5.953,-0.267 m -73.931,2.45 c -1.157,0.964 -0.999,1.981 0.43,2.783 1.982,1.112 3.616,-1.112 2.071,-2.819 -0.863,-0.954 -1.321,-0.948 -2.501,0.036 m 45.131,3.597 c 0,0.444 0.267,0.8 0.6,0.8 0.333,0 0.6,-0.356 0.6,-0.8 0,-0.444 -0.267,-0.8 -0.6,-0.8 -0.333,0 -0.6,0.356 -0.6,0.8 m -17,2.4 c -0.152,0.247 0.529,0.4 1.776,0.4 1.113,0 2.024,-0.18 2.024,-0.4 0,-0.22 -0.799,-0.4 -1.776,-0.4 -0.977,0 -1.888,0.18 -2.024,0.4 m 25,0 c 0,0.509 1.612,0.509 2.4,0 0.446,-0.288 0.216,-0.389 -0.9,-0.394 -0.825,-0.003 -1.5,0.174 -1.5,0.394 m 9.8,1.6 c -0.147,0.238 0.329,0.4 1.176,0.4 0.783,0 1.424,-0.18 1.424,-0.4 0,-0.22 -0.529,-0.4 -1.176,-0.4 -0.647,0 -1.288,0.18 -1.424,0.4 m -74.6,1.2 -1.8,0.2 -0.12,2.31 c -0.109,2.081 -0.008,2.423 1.004,3.436 3.248,3.247 7.986,0.732 7.639,-4.056 l -0.123,-1.69 -2.4,-0.2 c -1.32,-0.11 -3.21,-0.11 -4.2,0 m 79.866,0.426 c 0.289,0.289 0.857,0.301 1.78,0.036 l 1.354,-0.39 -1.78,-0.036 c -1.258,-0.025 -1.655,0.089 -1.354,0.39 m -56.953,0.688 c -0.388,0.283 -0.893,1.183 -1.122,2 -0.546,1.946 -1.481,1.93 -1.966,-0.033 -0.326,-1.318 -0.512,-1.504 -1.4,-1.4 -1.455,0.169 -1.805,4.781 -0.419,5.522 1.29,0.691 0.907,2.163 -0.606,2.328 -1.492,0.163 -3.4,1.916 -3.4,3.123 0,1.102 -1.816,4.611 -2.619,5.06 -0.319,0.179 -0.581,0.765 -0.581,1.302 0,0.544 -0.355,1.199 -0.8,1.477 -2.089,1.304 0.362,4.307 3.515,4.307 1.371,0 2.289,0.245 2.994,0.8 1.384,1.088 4.308,1.105 4.981,0.028 0.265,-0.425 0.983,-0.83 1.596,-0.9 0.941,-0.108 1.134,-0.337 1.243,-1.473 0.088,-0.926 0.369,-1.408 0.9,-1.547 0.568,-0.148 0.771,-0.554 0.771,-1.541 0,-0.929 0.245,-1.47 0.8,-1.767 0.48,-0.257 0.8,-0.838 0.8,-1.451 0,-0.563 0.36,-1.48 0.8,-2.04 0.44,-0.559 0.8,-1.534 0.8,-2.167 0,-0.655 0.344,-1.445 0.8,-1.835 0.443,-0.379 0.8,-1.18 0.8,-1.793 0,-0.674 0.313,-1.303 0.8,-1.607 0.479,-0.299 0.8,-0.933 0.8,-1.581 0,-0.639 0.338,-1.317 0.826,-1.659 0.82,-0.575 -0.432,-2.667 -1.595,-2.667 -0.183,0 -0.551,-0.262 -0.817,-0.583 -0.622,-0.749 -6.845,-0.672 -7.901,0.097 m -67.954,1.048 c -0.118,0.309 -0.158,1.164 -0.087,1.9 l 0.128,1.338 2.919,0.118 c 2.105,0.085 2.982,0.28 3.143,0.7 0.297,0.774 1.191,0.742 1.497,-0.054 0.303,-0.79 -0.025,-1.364 -0.779,-1.364 -0.315,0 -0.798,-0.36 -1.073,-0.8 -0.332,-0.531 -0.933,-0.8 -1.789,-0.8 -0.88,0 -1.426,-0.254 -1.718,-0.8 -0.492,-0.919 -1.921,-1.071 -2.241,-0.238 m 9.296,3.316 c -0.687,0.688 -0.189,1.641 0.945,1.807 0.66,0.097 1.197,0.073 1.193,-0.054 -0.014,-0.463 -1.89,-2.001 -2.138,-1.753 m 5.134,4.139 c -0.116,0.189 0.154,0.538 0.6,0.777 0.446,0.239 0.811,0.698 0.811,1.02 0,0.675 2.201,0.832 2.6,0.186 0.136,-0.22 0.064,-0.4 -0.161,-0.4 -0.224,0 -0.73,-0.333 -1.123,-0.741 -0.825,-0.853 -2.416,-1.344 -2.727,-0.842 m 6.011,3.583 c 0.136,0.22 0.507,0.4 0.824,0.4 0.317,0 0.576,-0.18 0.576,-0.4 0,-0.22 -0.371,-0.4 -0.824,-0.4 -0.453,0 -0.712,0.18 -0.576,0.4"
       inkscape:connector-curvature="0"
       style="fill:#fcfcfc;fill-rule:evenodd;stroke:none" />
    <path
       id="path2"
       d="m 185.886,185.848 c -0.157,0.157 -0.286,0.885 -0.286,1.619 v 1.333 l -3.7,0.003 c -3.02,0.002 -3.921,0.148 -4.9,0.797 -0.801,0.531 -1.877,0.796 -3.238,0.797 -1.528,0.002 -2.219,0.203 -2.762,0.803 -0.706,0.781 -1.232,0.8 -21.648,0.8 -20.514,0 -20.932,0.016 -21.352,0.8 -0.266,0.497 -0.839,0.801 -1.514,0.803 -0.597,0.001 -1.626,0.36 -2.286,0.797 -0.66,0.437 -1.491,0.796 -1.846,0.797 -0.355,0.002 -1.075,0.329 -1.6,0.727 -1.562,1.186 -4.259,1.812 -5.533,1.285 -0.598,-0.248 -2.242,-0.396 -3.654,-0.33 L 109,197 l -0.11,5.4 c -0.06,2.97 0.041,6.66 0.226,8.2 0.226,1.887 0.276,0.158 0.152,-5.3 l -0.184,-8.1 h 2.809 c 2.009,0 2.951,0.171 3.307,0.6 0.623,0.751 1.102,0.751 2.546,-0.002 0.63,-0.329 1.371,-0.598 1.646,-0.598 0.275,0 0.958,-0.36 1.517,-0.8 0.56,-0.44 1.37,-0.8 1.8,-0.8 0.431,0 1.241,-0.36 1.8,-0.8 0.56,-0.44 1.482,-0.8 2.051,-0.8 0.6,0 1.243,-0.335 1.533,-0.8 0.489,-0.783 0.933,-0.8 21.407,-0.8 20.413,0 20.924,-0.019 21.593,-0.8 0.516,-0.603 1.181,-0.8 2.696,-0.801 1.304,-0.001 2.472,-0.283 3.321,-0.8 1.908,-1.164 7.601,-1.163 8.597,0.001 0.86,1.004 2.07,1.023 3.045,0.048 0.736,-0.736 0.766,-0.736 1.396,0 0.54,0.63 1.214,0.752 4.152,0.752 3.074,0 3.569,0.099 4.007,0.8 0.44,0.704 0.933,0.8 4.1,0.8 3.106,0 3.695,-0.11 4.286,-0.8 0.838,-0.979 1.553,-1.002 3.558,-0.115 1.379,0.61 3.755,0.702 21.696,0.838 l 20.147,0.152 1.436,1.563 c 0.791,0.859 1.729,1.562 2.087,1.562 1.438,0 1.25,0.654 -0.717,2.5 -1.034,0.97 -1.285,4.282 -0.381,5.032 0.354,0.294 7.459,0.451 22.404,0.494 13.026,0.038 21.978,0.214 22.115,0.436 0.335,0.542 -0.652,1.583 -1.399,1.476 -0.352,-0.05 -1.078,0.056 -1.614,0.236 -0.771,0.259 -1.129,0.138 -1.71,-0.58 -0.404,-0.499 -0.776,-0.837 -0.825,-0.751 -0.05,0.087 -0.277,0.497 -0.505,0.911 -0.397,0.722 -1.235,0.757 -19.367,0.8 l -18.952,0.046 -0.704,1.2 c -1.142,1.947 -0.981,3.387 0.438,3.922 1.454,0.549 1.559,1.078 0.214,1.078 -0.576,0 -1.164,-0.332 -1.414,-0.8 -0.235,-0.44 -0.671,-0.8 -0.967,-0.8 -0.592,0 -1.019,-1.199 -1.028,-2.886 -0.003,-0.715 -0.312,-1.248 -0.905,-1.56 -0.495,-0.26 -1.007,-0.637 -1.137,-0.836 -0.138,-0.211 -1.013,-0.166 -2.101,0.108 -1.35,0.34 -2.01,0.349 -2.391,0.033 -0.387,-0.321 -0.754,-0.276 -1.391,0.17 -0.716,0.501 -1.024,0.519 -1.773,0.103 -0.615,-0.341 -2.968,-0.515 -7.307,-0.538 -6.697,-0.036 -8.22,-0.337 -8.99,-1.775 -0.533,-0.997 -3.236,-1.152 -4.002,-0.229 -0.498,0.601 -0.158,0.854 2.117,1.575 1.135,0.359 0.377,1.035 -1.161,1.035 -0.845,0 -1.476,-0.227 -1.612,-0.581 -0.122,-0.319 -0.882,-0.796 -1.687,-1.06 -0.806,-0.264 -1.825,-0.704 -2.265,-0.977 -1.11,-0.691 -5.615,-0.687 -6.189,0.005 -0.594,0.716 0.894,1.793 2.578,1.865 0.666,0.029 0.131,0.202 -1.189,0.384 -3.114,0.429 -7.897,0.011 -5.9,-0.516 0.715,-0.189 1.3,-0.58 1.3,-0.869 0,-1.223 -3.202,-2.818 -3.78,-1.883 -0.294,0.475 -1.929,0.589 -2.354,0.164 -0.147,-0.147 0.016,-0.58 0.362,-0.963 0.577,-0.637 0.568,-0.713 -0.099,-0.892 -0.979,-0.262 -7.342,-0.271 -8.257,-0.012 -1.138,0.323 0.37,1.306 2.028,1.322 0.715,0.007 1.3,0.193 1.3,0.413 0,0.237 -1.466,0.4 -3.597,0.4 -3.163,0 -3.656,0.096 -4.096,0.8 -0.67,1.073 -2.021,1.019 -2.512,-0.1 -0.571,-1.301 -2.195,-1.455 -2.195,-0.208 0,0.72 -0.337,1.069 -1.4,1.454 -1.674,0.605 -1.752,0.965 -0.348,1.605 0.871,0.397 1.174,0.369 1.761,-0.162 0.608,-0.551 1.213,-0.589 4.248,-0.272 1.946,0.204 4.979,0.237 6.739,0.074 4.683,-0.433 9.071,-0.055 8.914,0.768 -0.087,0.454 -0.719,0.701 -2.164,0.847 -3.271,0.33 -5.296,2.883 -4.994,6.294 0.097,1.094 1.66,0.52 1.904,-0.7 0.132,-0.66 0.401,-1.2 0.599,-1.2 0.197,0 0.566,-0.456 0.82,-1.014 0.42,-0.921 0.617,-0.991 2.146,-0.761 0.952,0.142 2.032,0.066 2.485,-0.177 0.441,-0.236 2.69,-0.505 4.997,-0.598 2.307,-0.093 4.565,-0.367 5.017,-0.61 1.229,-0.657 5.128,-0.537 6.557,0.202 0.683,0.353 2.699,0.742 4.48,0.863 2.169,0.148 3.57,0.456 4.239,0.931 0.704,0.499 2.014,0.762 4.425,0.888 2.05,0.107 3.93,0.439 4.681,0.827 0.719,0.372 2.211,0.649 3.498,0.649 1.48,0 2.154,0.144 1.981,0.425 -0.181,0.293 -7.015,0.392 -22.076,0.321 l -21.814,-0.104 -0.712,0.879 c -0.391,0.484 -1.097,0.879 -1.568,0.879 -0.991,0 -3.615,1.96 -3.615,2.7 0,0.275 -0.18,0.5 -0.4,0.5 -0.651,0 -0.458,-1.018 0.4,-2.109 1.147,-1.459 -0.032,-4.291 -1.786,-4.291 -0.24,0 -0.748,-0.364 -1.128,-0.808 -1.502,-1.755 -9.21,-0.629 -9.725,1.42 -0.299,1.193 -0.791,1.28 -1.077,0.188 -0.241,-0.923 -2.581,-1.143 -3.404,-0.32 -0.867,0.867 -0.62,5.826 0.32,6.413 1.1,0.687 1.002,1.107 -0.257,1.107 -1.349,0 -3.733,2.256 -3.739,3.537 -0.002,0.515 -0.364,1.394 -0.804,1.954 -0.44,0.559 -0.8,1.309 -0.8,1.667 0,0.357 -0.36,0.874 -0.8,1.149 -0.44,0.275 -0.8,0.908 -0.8,1.407 0,0.5 -0.36,1.216 -0.8,1.593 -2.065,1.769 0.348,5.481 3.569,5.489 1.1,0.002 2.053,0.262 2.522,0.686 1.235,1.118 5.51,1.222 6.473,0.158 0.646,-0.714 2.636,-1.211 2.636,-0.658 0,2.18 -9.307,3.307 -11.709,1.418 -0.701,-0.551 -1.623,-0.8 -2.965,-0.8 -1.453,0 -2.122,-0.203 -2.633,-0.8 -0.511,-0.597 -1.18,-0.8 -2.635,-0.8 -1.3,0 -2.268,-0.25 -2.904,-0.749 -0.525,-0.412 -1.674,-0.848 -2.554,-0.969 -0.88,-0.12 -2.508,-0.43 -3.617,-0.687 -2.191,-0.509 -4.583,0.786 -4.583,2.48 0,1.472 -3.605,2.155 -4.355,0.825 -0.329,-0.584 -0.979,-0.7 -3.92,-0.7 H 139.8 l -0.126,-1.308 c -0.082,-0.849 -0.464,-1.529 -1.089,-1.939 -1.145,-0.75 -1.584,-2.628 -1.206,-5.156 0.314,-2.088 0.493,-2.141 2.646,-0.781 0.886,0.559 2.276,1.234 3.089,1.501 0.971,0.318 1.812,0.999 2.447,1.979 0.739,1.142 1.09,1.393 1.487,1.064 0.639,-0.53 2.722,-0.119 3.373,0.666 0.526,0.633 1.979,0.787 1.979,0.21 0,-0.581 -2.393,-2.436 -3.142,-2.436 -0.374,0 -0.988,-0.36 -1.365,-0.8 -0.377,-0.44 -0.929,-0.8 -1.227,-0.8 -0.298,0 -0.868,-0.36 -1.266,-0.8 -0.398,-0.44 -1.049,-0.8 -1.446,-0.8 -0.398,0 -1.045,-0.345 -1.438,-0.768 -0.394,-0.422 -1.211,-0.891 -1.816,-1.043 -0.605,-0.152 -1.1,-0.434 -1.1,-0.627 0,-0.193 -0.632,-0.615 -1.404,-0.938 -0.772,-0.323 -2.366,-1.225 -3.541,-2.005 -1.176,-0.781 -2.271,-1.419 -2.433,-1.419 -0.163,0 -0.753,-0.36 -1.313,-0.8 -0.559,-0.44 -1.353,-0.8 -1.763,-0.8 -0.479,0 -0.746,-0.286 -0.746,-0.8 0,-0.775 0.817,-1.062 2.4,-0.843 0.33,0.046 2.656,0.151 5.168,0.234 3.628,0.12 4.64,0.281 4.92,0.78 0.277,0.496 1.081,0.629 3.807,0.629 h 3.455 l -1.142,-1.192 c -0.945,-0.986 -1.459,-1.191 -2.975,-1.186 -1.008,0.004 -4.866,-0.058 -8.573,-0.137 -5.323,-0.113 -6.782,-0.032 -6.943,0.386 -0.286,0.747 -1.605,0.657 -2.052,-0.14 -0.236,-0.422 -1.01,-0.719 -2.095,-0.805 -1.065,-0.085 -2.002,-0.439 -2.461,-0.931 -0.407,-0.437 -1.23,-0.795 -1.828,-0.795 -0.655,0 -1.287,-0.318 -1.588,-0.8 -1.27,-2.034 -3.693,-0.722 -3.693,2 0,2.455 0.45,2.8 3.653,2.8 2.39,0 2.723,0.095 2.961,0.846 0.218,0.686 0.505,0.809 1.527,0.653 1.369,-0.209 2.259,-0.017 2.259,0.488 0,0.176 -2.098,0.342 -4.662,0.369 -5.473,0.057 -5.738,0.197 -5.738,3.031 0,2.71 -0.725,3.413 -3.522,3.413 h -2.059 l -0.125,-6.7 -0.125,-6.7 0.016,6.8 0.015,6.8 2.281,0.119 c 3.074,0.161 3.919,-0.635 3.919,-3.695 0,-2.698 -0.201,-2.593 5.044,-2.646 4.493,-0.046 5.756,-0.208 5.756,-0.741 0,-0.554 -1.83,-1.159 -2.892,-0.956 -0.765,0.147 -1.153,-0.017 -1.477,-0.624 -0.372,-0.694 -0.892,-0.84 -3.336,-0.94 L 115.4,217.4 v -2.2 c 0,-2.5 1.951,-3.56 2.987,-1.623 0.275,0.513 0.841,0.823 1.501,0.823 0.583,0 1.473,0.387 1.977,0.861 0.525,0.494 1.531,0.898 2.356,0.949 1.045,0.063 1.847,0.485 2.926,1.538 0.818,0.799 1.767,1.452 2.109,1.452 0.342,0 1.037,0.36 1.544,0.8 0.507,0.44 1.074,0.8 1.26,0.8 0.186,0 1.194,0.6 2.239,1.334 1.046,0.734 2.493,1.569 3.216,1.855 1.508,0.597 1.491,1.244 -0.046,1.788 -0.902,0.318 -1.244,0.205 -2.225,-0.735 -0.784,-0.751 -1.487,-1.067 -2.172,-0.978 -0.773,0.102 -1.394,-0.279 -2.617,-1.605 -1.73,-1.873 -2.455,-1.888 -2.455,-0.049 0,0.786 0.283,1.313 0.875,1.63 2.325,1.244 2.416,1.515 2.349,6.989 -0.061,5.036 -0.05,5.1 1.032,6.23 2.059,2.149 3.741,1.325 3.75,-1.839 0.007,-2.141 0.564,-3.557 1.094,-2.78 0.165,0.242 0.705,0.654 1.2,0.914 0.571,0.301 0.9,0.844 0.9,1.486 0,2.209 0.448,2.451 3.819,2.059 2.824,-0.329 3.137,-0.292 3.95,0.472 1.597,1.5 4.468,0.969 4.957,-0.917 0.446,-1.722 1.606,-1.893 1.928,-0.284 0.135,0.676 0.404,1.23 0.596,1.23 0.489,0 0.44,-2.297 -0.057,-2.604 -0.69,-0.427 -0.004,-1.03 0.731,-0.643 0.372,0.195 1.846,0.485 3.276,0.644 1.43,0.159 2.922,0.573 3.315,0.921 0.414,0.367 1.709,0.705 3.08,0.804 1.65,0.12 2.572,0.399 3.047,0.925 0.479,0.528 1.23,0.754 2.52,0.756 1.161,0.001 2.28,0.295 3.038,0.797 3.119,2.066 12.2,0.635 12.2,-1.923 0,-0.211 0.36,-0.478 0.8,-0.593 0.606,-0.159 0.8,-0.546 0.8,-1.6 0,-1.054 0.194,-1.441 0.8,-1.6 0.606,-0.159 0.8,-0.546 0.8,-1.6 0,-1.054 0.194,-1.441 0.8,-1.6 0.794,-0.208 1.188,-2.563 0.537,-3.214 -0.522,-0.522 -1.337,0.656 -1.337,1.932 0,0.968 -0.206,1.359 -0.8,1.514 -0.606,0.159 -0.8,0.546 -0.8,1.6 0,1.054 -0.194,1.441 -0.8,1.6 -0.613,0.16 -0.8,0.546 -0.8,1.647 0,1.313 -0.098,1.437 -1.138,1.437 -0.63,0 -1.461,0.357 -1.862,0.8 -0.998,1.103 -4.335,1.103 -6,0 -0.666,-0.441 -1.877,-0.796 -2.721,-0.797 -3.184,-0.006 -5.431,-3.237 -3.479,-5.003 0.44,-0.398 0.8,-1.14 0.8,-1.648 0,-0.514 0.354,-1.114 0.8,-1.352 0.44,-0.235 0.8,-0.758 0.8,-1.16 0,-0.403 0.36,-1.19 0.8,-1.749 0.44,-0.56 0.8,-1.408 0.8,-1.885 0,-1.192 2.102,-3.206 3.346,-3.206 1.398,0 1.741,-0.78 0.691,-1.572 -0.78,-0.588 -0.864,-0.971 -0.757,-3.445 l 0.12,-2.783 1.297,-0.125 c 1.066,-0.103 1.381,0.058 1.764,0.9 0.606,1.329 0.967,1.294 1.468,-0.144 0.565,-1.621 1.531,-2.019 5.352,-2.205 l 3.309,-0.161 2.105,1.799 c 2.281,1.948 2.399,2.185 1.525,3.059 -0.812,0.812 -1.185,2.528 -0.625,2.874 0.27,0.167 1.037,-0.392 1.863,-1.357 1.024,-1.195 1.708,-1.64 2.524,-1.64 0.711,0 1.334,-0.322 1.705,-0.88 l 0.584,-0.88 21.471,0.105 c 21.757,0.106 23.058,0.051 23.058,-0.972 0,-0.431 -0.572,-0.573 -2.311,-0.573 -1.558,0 -2.633,-0.228 -3.3,-0.7 -0.958,-0.678 -1.523,-0.764 -6.525,-1 -1.577,-0.074 -2.487,-0.317 -2.802,-0.748 -0.336,-0.459 -1.363,-0.691 -3.664,-0.827 -1.939,-0.115 -3.73,-0.467 -4.549,-0.894 -1.125,-0.587 -1.997,-0.666 -5.2,-0.475 -2.117,0.126 -5.485,0.299 -7.483,0.385 -2.575,0.109 -3.945,0.358 -4.699,0.852 -0.78,0.511 -1.453,0.624 -2.527,0.422 -1.281,-0.24 -1.571,-0.139 -2.335,0.82 -0.508,0.637 -1.067,0.974 -1.339,0.806 -1.538,-0.951 0.757,-3.069 3.766,-3.478 1.232,-0.167 2.553,-0.587 2.935,-0.933 0.546,-0.494 1.661,-0.63 5.168,-0.63 3.978,0 4.549,-0.089 5.158,-0.8 0.446,-0.522 1.18,-0.8 2.107,-0.8 0.927,0 1.661,0.278 2.107,0.8 0.39,0.456 1.18,0.8 1.835,0.8 0.633,0 1.608,0.36 2.167,0.8 1.313,1.032 2.61,1.015 3.743,-0.049 1.174,-1.103 2.829,-0.763 3.185,0.655 0.193,0.766 0.51,0.994 1.383,0.994 0.623,0 1.244,0.18 1.38,0.4 0.136,0.22 1.272,0.401 2.524,0.402 1.252,0.002 2.735,0.242 3.296,0.535 0.561,0.293 1.833,0.644 2.828,0.78 2.919,0.4 4.046,0.957 3.76,1.859 -0.305,0.961 0.791,1.627 2.666,1.618 1.696,-0.008 2.198,-0.343 2.538,-1.698 0.317,-1.263 0.644,-1.34 1.979,-0.465 1.075,0.704 2.659,0.634 2.91,-0.129 0.09,-0.273 -0.301,-0.674 -0.868,-0.89 -1.135,-0.431 -1.376,-1.858 -0.64,-3.794 l 0.393,-1.034 17.507,0.132 c 9.629,0.073 18.008,0.279 18.621,0.458 0.823,0.24 1.307,0.15 1.853,-0.344 0.486,-0.44 1.079,-0.583 1.733,-0.419 0.547,0.137 2.018,0.06 3.27,-0.172 2.124,-0.392 2.383,-0.353 3.882,0.594 2.28,1.439 3.64,1.204 4.114,-0.713 0.68,-2.756 2.169,-2.6 -25.638,-2.683 -13.786,-0.041 -25.215,-0.167 -25.397,-0.28 -0.972,-0.601 -0.317,-3.811 1.069,-5.238 1.688,-1.738 1.724,-2.025 0.3,-2.371 -0.605,-0.147 -1.747,-0.961 -2.539,-1.808 l -1.438,-1.54 -17.362,-0.007 c -16.946,-0.007 -18.764,-0.106 -25.966,-1.412 -1.121,-0.203 -1.557,-0.086 -2.162,0.582 -1.115,1.232 -7.578,1.261 -8.233,0.037 -0.377,-0.704 -0.845,-0.802 -3.914,-0.813 -4.079,-0.014 -5.526,-0.83 -5.757,-3.243 -0.128,-1.33 -1.97,-2.17 -2.843,-1.296 m 2.514,1.328 c 0,1.374 -0.335,1.671 -1.531,1.358 -1.495,-0.391 -1.216,-2.534 0.331,-2.534 1.061,0 1.2,0.136 1.2,1.176 m 0,2.424 c 0,0.447 -1.981,0.755 -2.233,0.346 -0.391,-0.632 0.2,-1.041 1.223,-0.846 0.556,0.106 1.01,0.331 1.01,0.5 m -43.598,4.859 c -1.271,1.271 -1.403,2.668 -0.354,3.741 0.235,0.241 4.629,0.447 11.03,0.519 l 10.639,0.119 1.141,-1.094 c 1.436,-1.375 1.432,-1.916 -0.027,-3.375 l -1.169,-1.169 h -10 -10 l -1.26,1.259 m 32.878,-0.779 c -0.854,0.854 -0.514,1.478 1.061,1.95 1.72,0.515 3.259,0.018 3.259,-1.054 0,-1.14 -3.376,-1.84 -4.32,-0.896 m 12.8,0 c -1.06,1.06 0.906,3.52 2.813,3.52 1.893,0 3.073,-2.274 1.827,-3.52 -0.622,-0.622 -4.018,-0.622 -4.64,0 m -23.519,1.079 c 1.216,1.27 1.028,2.391 -0.544,3.232 -1.618,0.866 -20.705,0.521 -21.617,-0.391 -1.056,-1.056 -1.01,-1.537 0.275,-2.878 l 1.075,-1.122 h 9.85 9.85 l 1.111,1.159 m 13.839,-0.745 c 0.525,0.351 0.512,0.469 -0.1,0.938 -0.744,0.57 -2.546,0.421 -2.957,-0.244 -0.562,-0.909 1.901,-1.468 3.057,-0.694 m 14.2,0.942 c 0,2.157 -2.714,2.463 -4.029,0.455 -0.924,-1.41 -0.404,-1.868 1.965,-1.731 1.982,0.115 2.064,0.166 2.064,1.276 M 227.627,198 c -1.948,0.691 -2.527,1.5 -2.352,3.282 0.163,1.656 0.883,1.838 8.583,2.174 l 6.058,0.265 1.066,-1.066 c 1.457,-1.458 1.33,-3.805 -0.247,-4.557 -1.635,-0.78 -10.988,-0.85 -13.108,-0.098 m 12.947,0.39 c 1.337,0.508 1.419,2.54 0.156,3.884 -1.232,1.312 -12.374,0.982 -14.665,-0.434 -1.21,-0.748 -0.346,-2.91 1.369,-3.423 1.615,-0.483 11.885,-0.504 13.14,-0.027 m 8.426,0.197 c -0.22,0.067 -1.48,0.353 -2.8,0.635 -3.327,0.71 -4.518,2.3 -2.92,3.898 0.576,0.576 6.996,0.659 8.443,0.109 2.846,-1.082 0.224,-5.552 -2.723,-4.642 m 2.62,1.223 c 3.129,1.618 0.722,3.453 -4.334,3.304 L 243.4,203 l -0.126,-1.303 c -0.153,-1.597 0.534,-1.85 6.646,-2.446 0.286,-0.028 1.051,0.224 1.7,0.559 m -114.088,0.829 c -0.509,0.509 -0.811,0.547 -1.485,0.186 -0.629,-0.337 -1.064,-0.337 -1.69,-0.002 -0.61,0.326 -0.964,0.33 -1.28,0.014 -0.588,-0.588 -5.975,-0.558 -7.288,0.041 -0.742,0.338 -1.244,0.355 -1.719,0.06 -1.467,-0.915 -6.753,-0.576 -7.443,0.477 -0.66,1.008 0.383,2.197 1.385,1.577 0.218,-0.134 2.239,-0.227 4.492,-0.206 2.253,0.021 11.703,0.077 21.001,0.126 l 16.905,0.088 0.895,1.062 c 1.054,1.251 5.635,1.813 7.74,0.949 1.051,-0.432 1.25,-0.372 2.215,0.657 2.045,2.182 4.947,1.474 5.207,-1.27 L 176.6,203 l 3.495,-0.21 c 5.362,-0.321 6.863,-2.242 1.595,-2.04 -3.829,0.146 -33.278,-0.014 -37.008,-0.202 -1.715,-0.086 -3.428,0.009 -3.806,0.211 -0.465,0.249 -0.937,0.186 -1.458,-0.195 -0.972,-0.711 -1.105,-0.706 -1.886,0.075 m 70.164,0.093 c -0.379,0.24 -0.279,0.531 0.4,1.165 l 0.904,0.844 1.076,-0.93 c 1.331,-1.152 -0.767,-2.103 -2.38,-1.079 m 8.385,0.015 c -0.416,0.26 -0.402,0.421 0.075,0.816 0.693,0.576 5.878,0.093 5.861,-0.545 -0.013,-0.476 -5.226,-0.713 -5.936,-0.271 m -40.489,1.239 c 0.666,0.422 0.613,3.075 -0.078,3.914 -1.198,1.455 -4.714,-0.351 -4.714,-2.421 0,-1.513 3.189,-2.506 4.792,-1.493 m -7.594,0.779 c 3.281,0.633 1.952,1.635 -2.169,1.635 -3.788,0 -3.829,-0.01 -3.829,-0.972 0,-1.372 1.474,-1.535 5.998,-0.663 m 32.402,-0.408 c 0,0.197 -0.285,0.467 -0.633,0.6 -0.894,0.343 -0.967,0.316 -0.967,-0.357 0,-0.333 0.356,-0.6 0.8,-0.6 0.44,0 0.8,0.161 0.8,0.357 m -2,1.876 c 0,0.707 -0.861,0.584 -1.108,-0.158 -0.087,-0.261 0.126,-0.475 0.475,-0.475 0.348,0 0.633,0.285 0.633,0.633 m 106.983,0.114 c 0.321,1.009 -0.423,2.853 -1.15,2.853 -1.645,0 -4.328,-2.572 -3.523,-3.377 0.631,-0.63 4.442,-0.203 4.673,0.524 M 183.8,205.6 c -0.136,0.22 -0.507,0.4 -0.824,0.4 -0.317,0 -0.576,-0.18 -0.576,-0.4 0,-0.22 0.371,-0.4 0.824,-0.4 0.453,0 0.712,0.18 0.576,0.4 m 43.2,0 c 0.136,0.22 -0.123,0.4 -0.576,0.4 -0.453,0 -0.824,-0.18 -0.824,-0.4 0,-0.22 0.259,-0.4 0.576,-0.4 0.317,0 0.688,0.18 0.824,0.4 m 14.324,1.184 c 0.178,0.009 0.221,0.181 0.097,0.383 -0.251,0.404 -3.586,0.523 -4.774,0.17 -1.376,-0.41 0.172,-0.891 2.331,-0.725 1.112,0.086 2.168,0.163 2.346,0.172 m 7.976,0.037 c 1.344,0.373 1.506,0.56 1.56,1.798 0.033,0.759 0.078,1.606 0.1,1.881 0.022,0.275 -0.23,0.5 -0.56,0.5 -0.433,0 -0.6,-0.444 -0.6,-1.6 0,-1.596 -0.004,-1.6 -1.7,-1.723 -1.649,-0.119 -2.22,-0.601 -1.2,-1.012 0.739,-0.298 0.773,-0.296 2.4,0.156 m -72,0.942 c -1.994,2.103 -0.03,4.12 2.2,2.26 1.202,-1.003 0.464,-3.153 -1.1,-3.203 -0.11,-0.003 -0.605,0.421 -1.1,0.943 m 49.219,-0.522 c -0.317,0.317 -0.651,0.32 -1.18,0.013 -0.648,-0.377 -0.593,-0.431 0.441,-0.442 0.861,-0.009 1.06,0.108 0.739,0.429 m -111.455,0.952 c -0.648,0.648 -0.479,1.931 0.345,2.614 0.391,0.325 0.732,0.208 1.356,-0.462 1.04,-1.116 1.058,-1.797 0.061,-2.331 -0.995,-0.533 -1.056,-0.526 -1.762,0.179 m 19.48,0.008 c -0.509,1.328 0.211,2.599 1.474,2.599 1.407,0 2.369,-1.652 1.542,-2.649 -0.617,-0.742 -2.725,-0.708 -3.016,0.05 m 16.507,0.005 c -0.747,0.747 -0.338,1.905 0.908,2.572 0.964,0.516 2.16,-0.723 1.973,-2.045 -0.164,-1.161 -1.925,-1.483 -2.881,-0.527 m 98.189,0.263 c 0.131,0.21 0.161,0.793 0.065,1.294 -0.099,0.518 0.112,1.197 0.488,1.573 1.294,1.294 0.634,2.464 -1.389,2.464 -1.679,0 -1.81,-0.078 -2.002,-1.188 -0.163,-0.939 -0.498,-1.273 -1.604,-1.6 -0.769,-0.226 -1.625,-0.559 -1.902,-0.738 -0.277,-0.179 -0.87,-0.209 -1.319,-0.067 -0.451,0.144 -1.09,0.032 -1.43,-0.251 -0.338,-0.28 -1.904,-0.61 -3.48,-0.733 -1.577,-0.123 -2.867,-0.403 -2.867,-0.623 0,-0.896 14.882,-1.023 15.44,-0.131 m -132.503,-0.116 c 0.448,0.283 0.448,0.481 0.004,1.193 -0.665,1.064 -1.016,1.079 -1.34,0.058 -0.419,-1.32 0.246,-1.943 1.336,-1.251 M 137,209.005 c 0,0.52 -0.312,0.839 -0.902,0.923 -1.067,0.152 -1.707,-1.021 -0.856,-1.568 0.868,-0.558 1.758,-0.231 1.758,0.645 m 16.467,-0.374 c 0.46,1.198 -0.807,1.92 -1.678,0.957 -0.647,-0.715 -0.672,-0.891 -0.173,-1.206 0.874,-0.553 1.58,-0.458 1.851,0.249 m 6.933,1.911 c -2.304,0.754 -2.4,0.905 -2.4,3.783 0,2.858 0.829,4.175 3.501,5.561 3.144,1.631 6.899,-1.611 6.899,-5.959 0,-2.632 -0.218,-2.856 -3.367,-3.467 -2.724,-0.529 -2.767,-0.529 -4.633,0.082 m 7.163,0.835 c 0.24,0.149 0.437,1.285 0.437,2.525 0,5.24 -4.921,7.638 -8.445,4.115 -1.66,-1.661 -1.63,-6.38 0.045,-6.886 1.151,-0.348 7.31,-0.158 7.963,0.246 M 198,212.8 c 0,0.66 -0.18,1.2 -0.4,1.2 -0.445,0 -0.552,-1.715 -0.133,-2.133 0.452,-0.452 0.533,-0.31 0.533,0.933 m -49.333,6.267 c -0.492,0.491 -0.274,0.947 0.656,1.371 0.508,0.231 1.132,0.902 1.386,1.491 0.254,0.589 0.629,1.341 0.834,1.671 0.204,0.33 0.579,1.05 0.834,1.6 0.254,0.55 0.899,1.72 1.434,2.6 0.96,1.578 1.323,2.32 1.615,3.3 0.082,0.275 0.444,0.5 0.805,0.5 0.793,0 0.446,-2.008 -0.432,-2.502 -0.295,-0.167 -0.661,-0.887 -0.812,-1.6 -0.152,-0.714 -0.508,-1.568 -0.792,-1.898 -0.284,-0.33 -0.737,-1.346 -1.006,-2.258 -0.593,-2.005 -3.78,-5.018 -4.522,-4.275 m 43.608,0.791 c -0.151,0.152 -0.275,0.785 -0.275,1.409 0,0.623 -0.36,1.493 -0.8,1.933 -0.852,0.852 -1.084,2.977 -0.373,3.416 0.601,0.372 0.774,0.097 1.047,-1.666 0.132,-0.853 0.584,-1.882 1.006,-2.287 0.462,-0.445 0.717,-1.146 0.643,-1.769 -0.124,-1.038 -0.737,-1.547 -1.248,-1.036 M 193.2,221 c 0,0.55 -0.18,1 -0.4,1 -0.22,0 -0.4,-0.45 -0.4,-1 0,-0.55 0.18,-1 0.4,-1 0.22,0 0.4,0.45 0.4,1 m -63.45,1.186 c 0.542,0.543 1.052,1.308 1.134,1.7 0.112,0.544 0.469,0.688 1.499,0.603 1.627,-0.133 3.843,1.656 3.339,2.696 -0.164,0.338 -0.303,2.865 -0.31,5.615 -0.012,4.939 -0.024,5.002 -0.951,5.133 -2.322,0.329 -2.915,-1.156 -2.824,-7.061 l 0.083,-5.346 -1.16,-0.949 c -0.638,-0.521 -1.385,-0.955 -1.66,-0.963 -0.45,-0.013 -0.767,-2.414 -0.318,-2.414 0.1,0 0.625,0.444 1.168,0.986 m 61.85,2.59 c 0,0.427 -0.18,0.888 -0.4,1.024 -0.227,0.14 -0.4,-0.196 -0.4,-0.776 0,-0.563 0.18,-1.024 0.4,-1.024 0.22,0 0.4,0.349 0.4,0.776 M 141.233,226 c 0.202,0 0.367,0.18 0.367,0.4 0,0.488 -1.868,0.536 -2.166,0.056 -0.309,-0.501 0.234,-0.915 0.878,-0.668 0.304,0.116 0.719,0.212 0.921,0.212 m 2.767,2 c 0,0.22 -0.36,0.4 -0.8,0.4 -0.44,0 -0.8,-0.18 -0.8,-0.4 0,-0.22 0.36,-0.4 0.8,-0.4 0.44,0 0.8,0.18 0.8,0.4 m 46,0.8 c 0,0.66 -0.18,1.2 -0.4,1.2 -0.22,0 -0.4,-0.54 -0.4,-1.2 0,-0.66 0.18,-1.2 0.4,-1.2 0.22,0 0.4,0.54 0.4,1.2 m -43.179,1 c -0.031,0.594 -0.926,0.485 -1.134,-0.138 -0.112,-0.337 0.071,-0.487 0.488,-0.4 0.367,0.076 0.658,0.318 0.646,0.538 M 188.4,232 c 0,0.66 -0.18,1.2 -0.4,1.2 -0.22,0 -0.4,-0.54 -0.4,-1.2 0,-0.66 0.18,-1.2 0.4,-1.2 0.22,0 0.4,0.54 0.4,1.2 m -42.4,1.976 c 0,0.453 0.18,0.824 0.4,0.824 0.22,0 0.4,-0.259 0.4,-0.576 0,-0.317 -0.18,-0.688 -0.4,-0.824 -0.22,-0.136 -0.4,0.123 -0.4,0.576 m 40.8,1.224 c 0,0.66 -0.18,1.2 -0.4,1.2 -0.22,0 -0.4,-0.54 -0.4,-1.2 0,-0.66 0.18,-1.2 0.4,-1.2 0.22,0 0.4,0.54 0.4,1.2"
       inkscape:connector-curvature="0"
       style="fill:#747474;fill-rule:evenodd;stroke:none" />
    <path
       id="path3"
       d="m 185.485,185.448 c -0.157,0.157 -0.285,0.885 -0.285,1.619 v 1.333 h -3.946 c -3.34,0 -4.102,0.123 -4.963,0.8 -0.688,0.541 -1.623,0.8 -2.891,0.8 -1.268,0 -2.203,0.259 -2.891,0.8 -0.987,0.777 -1.623,0.8 -21.749,0.8 -20.322,0 -20.74,0.016 -21.16,0.8 -0.297,0.554 -0.838,0.8 -1.76,0.8 -0.733,0 -1.79,0.36 -2.349,0.8 -0.56,0.44 -1.387,0.8 -1.839,0.8 -0.451,0 -1.187,0.393 -1.634,0.873 -0.736,0.79 -1.145,0.861 -4.316,0.75 -5.49,-0.192 -5.901,-0.186 -6.627,0.093 -0.632,0.242 -0.676,1.437 -0.58,15.573 l 0.105,15.311 2.747,0.119 c 3.605,0.157 4.175,-0.325 4.335,-3.665 l 0.118,-2.454 5.26,-0.2 c 4.257,-0.162 5.407,-0.333 6.031,-0.9 0.855,-0.776 1.929,-0.915 2.309,-0.3 0.14,0.227 -0.196,0.4 -0.776,0.4 -1.258,0 -1.596,3.406 -0.384,3.871 2.207,0.847 2.56,1.862 2.56,7.365 0,5.967 0.552,7.164 3.302,7.164 1.806,0 2.298,-0.612 2.298,-2.856 0,-2.13 0.21,-2.397 1.5,-1.91 0.686,0.259 0.9,0.658 0.9,1.677 0,2.473 0.56,2.778 4.093,2.229 2.754,-0.428 3.169,-0.408 3.829,0.19 1.704,1.541 5.678,0.694 5.678,-1.21 0,-1.328 0.658,-1.132 0.94,0.28 0.42,2.099 2.26,1.421 2.26,-0.833 0,-1.174 5.172,-1.145 5.907,0.033 0.399,0.638 0.933,0.8 2.642,0.8 1.537,0 2.431,0.226 3.16,0.8 0.701,0.551 1.623,0.8 2.965,0.8 1.453,0 2.122,0.203 2.633,0.8 1.944,2.271 13.093,0.633 13.093,-1.923 0,-0.211 0.36,-0.478 0.8,-0.593 0.606,-0.159 0.8,-0.546 0.8,-1.6 0,-1.054 0.194,-1.441 0.8,-1.6 0.606,-0.159 0.8,-0.546 0.8,-1.6 0,-1.054 0.194,-1.441 0.8,-1.6 0.599,-0.157 0.8,-0.546 0.8,-1.55 0,-0.908 0.258,-1.503 0.8,-1.841 0.465,-0.29 0.8,-0.933 0.8,-1.533 0,-0.569 0.36,-1.491 0.8,-2.051 0.487,-0.618 0.8,-1.623 0.8,-2.563 0,-1.122 0.168,-1.546 0.613,-1.546 0.336,0 0.723,-0.288 0.858,-0.64 0.481,-1.254 2.164,-2.56 3.298,-2.56 0.683,0 1.351,-0.318 1.682,-0.799 0.538,-0.783 1.063,-0.802 25.544,-0.9 l 24.994,-0.101 0.538,-1.122 c 0.42,-0.877 0.656,-1.024 1.077,-0.674 1.001,0.83 3.578,0.323 3.728,-0.733 0.095,-0.674 -0.103,-0.991 -0.72,-1.152 -0.738,-0.193 -0.836,-0.47 -0.732,-2.071 L 255,207 l 17.047,-0.104 c 14.805,-0.091 17.114,-0.025 17.549,0.5 0.533,0.642 3.013,0.836 3.367,0.264 0.52,-0.842 7.556,-0.852 8.914,-0.012 2.738,1.692 5.995,-0.901 4.493,-3.577 L 305.769,203 280.385,202.8 255,202.6 l -0.122,-1.674 c -0.098,-1.354 0.036,-1.759 0.7,-2.114 0.452,-0.242 0.822,-0.63 0.822,-0.862 0,-0.232 0.399,-0.745 0.887,-1.14 1.047,-0.848 0.451,-2.007 -1.036,-2.014 -0.488,-0.002 -1.449,-0.684 -2.251,-1.596 l -1.4,-1.592 -16.4,-0.033 c -9.02,-0.018 -17.39,-0.204 -18.6,-0.412 -7.041,-1.212 -10.485,-1.345 -11.225,-0.432 -1.018,1.258 -6.91,1.312 -7.575,0.069 -0.379,-0.708 -0.838,-0.8 -3.996,-0.8 -4.079,0 -5.437,-0.787 -5.678,-3.292 -0.125,-1.297 -2.709,-2.191 -3.641,-1.26 m 3.248,1.515 c 0.277,2.435 1.975,3.437 5.822,3.437 3.007,0 3.468,0.096 3.845,0.8 0.659,1.232 6.935,1.189 8.26,-0.056 l 0.911,-0.857 3.915,0.723 c 3.304,0.61 6.78,0.749 22.305,0.889 l 18.391,0.165 1.41,1.527 c 0.775,0.84 1.845,1.591 2.378,1.668 1.445,0.211 1.404,0.839 -0.16,2.45 -1.402,1.443 -2.054,4.646 -1.07,5.254 0.188,0.116 11.573,0.233 25.3,0.26 26.29,0.051 25.96,0.027 25.96,1.937 0,2.752 -1.66,3.211 -4.769,1.319 -1.026,-0.625 -1.554,-0.734 -2.112,-0.436 -0.409,0.219 -1.901,0.361 -3.315,0.315 -1.607,-0.052 -2.801,0.108 -3.184,0.425 -0.412,0.343 -1.039,0.407 -1.916,0.197 -0.717,-0.171 -9.092,-0.375 -18.611,-0.454 l -17.306,-0.143 -0.394,1.035 c -0.716,1.884 -0.489,3.21 0.638,3.724 0.568,0.258 0.959,0.692 0.87,0.964 -0.255,0.777 -2.285,0.832 -3.111,0.085 -0.834,-0.755 -1.59,-0.492 -1.59,0.553 0,1.527 -3.865,2.431 -5.103,1.193 -0.351,-0.351 -0.603,-0.347 -1.039,0.015 -0.432,0.359 -6.02,0.462 -22.504,0.418 -21.907,-0.06 -21.93,-0.059 -22.491,0.785 -0.332,0.501 -0.989,0.847 -1.612,0.849 -0.721,0.003 -1.49,0.503 -2.451,1.596 -2.216,2.521 -3.6,1.234 -1.519,-1.412 l 0.881,-1.121 -1.97,-1.733 -1.97,-1.734 -3.611,0.013 c -4.002,0.014 -4.756,0.337 -5.452,2.332 -0.551,1.58 -0.965,1.588 -1.508,0.029 -0.375,-1.077 -0.588,-1.211 -1.739,-1.1 L 177.8,213 l -0.12,2.783 c -0.107,2.474 -0.023,2.857 0.757,3.445 1.05,0.792 0.707,1.572 -0.691,1.572 -1.216,0 -3.346,2.004 -3.346,3.148 0,1.028 -1.85,4.536 -2.619,4.966 -0.319,0.179 -0.581,0.739 -0.581,1.244 0,0.505 -0.36,1.244 -0.8,1.642 -2.016,1.824 0.3,5 3.647,5 1.025,0 1.984,0.266 2.436,0.676 1.216,1.1 5.322,1.236 5.879,0.195 0.275,-0.513 0.926,-0.867 1.739,-0.946 1.147,-0.11 1.322,-0.288 1.499,-1.52 0.13,-0.91 0.444,-1.443 0.9,-1.53 1.096,-0.209 0.999,2.722 -0.1,3.009 -0.44,0.115 -0.8,0.382 -0.8,0.593 0,2.561 -9.786,4.065 -12.509,1.923 -0.649,-0.511 -1.623,-0.8 -2.691,-0.8 -1.068,0 -2.042,-0.289 -2.691,-0.8 -0.685,-0.539 -1.623,-0.8 -2.874,-0.8 -1.125,0 -2.247,-0.276 -2.846,-0.7 -0.558,-0.395 -2.382,-0.877 -4.189,-1.107 l -3.2,-0.407 0.14,1.707 c 0.087,1.06 -0.026,1.707 -0.3,1.707 -0.242,0 -0.44,-0.282 -0.44,-0.626 0,-0.345 -0.193,-0.986 -0.428,-1.426 -0.508,-0.95 -1.572,-0.35 -1.572,0.887 0,1.321 -3.907,2.287 -4.615,1.14 -0.526,-0.85 -2.122,-1.105 -4.821,-0.771 -3.069,0.381 -3.348,0.224 -3.358,-1.894 -0.005,-1.034 -0.251,-1.416 -1.243,-1.929 -1.574,-0.814 -1.721,-0.639 -1.963,2.352 -0.198,2.44 -0.214,2.468 -1.493,2.592 -2.697,0.26 -3.306,-1.062 -3.316,-7.207 l -0.01,-5.318 -1.59,-1.177 c -1.183,-0.875 -1.591,-1.458 -1.591,-2.276 0,-1.82 0.822,-1.825 2.428,-0.016 1.217,1.372 1.736,1.669 2.912,1.669 1.006,0 1.555,0.23 1.846,0.773 0.584,1.091 1.848,1.388 2.868,0.674 0.853,-0.597 0.845,-0.612 -0.696,-1.315 -0.857,-0.39 -2.188,-1.183 -2.958,-1.762 -1.386,-1.041 -2.676,-1.795 -5,-2.924 -0.66,-0.321 -1.74,-1.109 -2.4,-1.752 -0.724,-0.706 -1.817,-1.267 -2.757,-1.416 -0.857,-0.135 -1.949,-0.613 -2.426,-1.062 -0.478,-0.449 -1.346,-0.816 -1.929,-0.816 -0.66,0 -1.226,-0.31 -1.501,-0.823 -1.036,-1.937 -2.987,-0.877 -2.987,1.623 v 2.2 l 2.8,0.109 c 2.25,0.088 2.935,0.27 3.489,0.931 0.48,0.573 0.943,0.74 1.529,0.554 0.894,-0.283 3.182,0.469 3.182,1.047 0,0.554 -1.505,0.756 -6.4,0.861 l -4.6,0.098 -0.202,2.533 c -0.253,3.183 -0.885,3.749 -3.998,3.584 L 109,227 108.895,212.225 c -0.067,-9.382 0.04,-14.92 0.292,-15.172 0.474,-0.474 5.424,-0.398 6.309,0.097 0.749,0.419 4.046,-0.384 5.362,-1.306 0.506,-0.354 1.216,-0.644 1.577,-0.644 0.361,0 1.115,-0.36 1.674,-0.8 0.56,-0.44 1.567,-0.8 2.24,-0.8 0.813,0 1.366,-0.268 1.651,-0.8 0.42,-0.784 0.838,-0.8 21.16,-0.8 20.126,0 20.762,-0.023 21.749,-0.8 0.665,-0.523 1.623,-0.8 2.765,-0.8 1.021,0 2.159,-0.291 2.737,-0.7 0.722,-0.511 2.07,-0.754 4.989,-0.9 3.906,-0.195 4.003,-0.223 4.12,-1.2 0.219,-1.834 0.424,-2.056 1.777,-1.926 1.106,0.107 1.323,0.302 1.436,1.289 M 186,189.6 c 0,0.22 0.439,0.4 0.976,0.4 0.537,0 1.088,-0.18 1.224,-0.4 0.144,-0.233 -0.263,-0.4 -0.976,-0.4 -0.673,0 -1.224,0.18 -1.224,0.4 m -40.939,5.137 c -0.913,0.952 -1.027,1.3 -0.706,2.145 0.544,1.431 1.139,1.506 11.87,1.513 l 9.625,0.005 1.15,-1.2 1.15,-1.2 -1.15,-1.2 -1.15,-1.2 H 156 146.15 l -1.089,1.137 m 45.513,-0.695 c -0.51,0.825 2.019,2.897 3.181,2.605 1.047,-0.263 1.778,-1.785 1.259,-2.624 -0.347,-0.562 -4.091,-0.545 -4.44,0.019 m -23.98,0.989 1.031,1.03 -0.913,0.963 -0.912,0.962 -9.83,0.007 -9.831,0.007 -0.899,-0.957 -0.899,-0.957 0.93,-1.001 0.929,-1.001 9.682,-0.042 9.682,-0.042 1.03,1.031 M 178,194.413 c 0,0.226 0.27,0.516 0.601,0.643 0.836,0.321 2.684,-0.195 2.392,-0.668 -0.322,-0.52 -2.993,-0.499 -2.993,0.025 m 16.578,-0.049 c 0.363,0.588 -0.19,1.586 -1.027,1.851 -0.811,0.258 -2.864,-1.309 -2.496,-1.905 0.269,-0.434 3.249,-0.389 3.523,0.054 m 33.131,4.074 c -2.851,0.84 -2.709,3.38 0.211,3.77 1.034,0.138 2.858,0.418 4.053,0.621 4.249,0.725 7.542,0.492 8.645,-0.611 1.035,-1.035 1.343,-3.148 0.532,-3.649 -0.714,-0.441 -12.013,-0.551 -13.441,-0.131 m 13.491,1.436 c 0,2.613 -3.905,3.816 -8.003,2.466 -0.768,-0.254 -2.643,-0.569 -4.166,-0.7 -3.022,-0.262 -3.543,-0.728 -2.256,-2.015 0.769,-0.769 1.29,-0.825 7.625,-0.825 h 6.8 v 1.074 m 5.4,-0.124 -3.2,0.45 v 1.4 1.4 h 4.081 c 4.175,0 4.633,-0.151 5.094,-1.679 0.252,-0.834 -1.41,-2.235 -2.455,-2.071 -0.176,0.028 -1.76,0.253 -3.52,0.5 m 5.753,0.87 c 0.101,0.101 -0.245,0.639 -0.768,1.196 -1.444,1.537 -7.785,1.361 -7.785,-0.216 0,-1.268 7.415,-2.118 8.553,-0.98 m -80.453,1.609 c -1.371,0.744 -1.414,1.894 -0.118,3.189 1.986,1.986 4.218,1.112 4.218,-1.651 0,-2.202 -1.701,-2.84 -4.1,-1.538 m 3.07,0.538 c 1.545,1.707 -0.089,3.931 -2.071,2.819 -1.429,-0.802 -1.587,-1.819 -0.43,-2.783 1.18,-0.984 1.638,-0.99 2.501,-0.036 m -12.27,0.065 c -1.838,1.071 -0.797,1.603 2.903,1.484 3.11,-0.1 5.118,-0.837 2.597,-0.953 -0.44,-0.02 -1.52,-0.244 -2.4,-0.498 -1.926,-0.555 -2.199,-0.558 -3.1,-0.033 m 53.212,2.729 c -0.456,0.652 -1.245,0.797 -5.508,1.015 -2.782,0.141 -5.09,0.439 -5.236,0.676 -0.144,0.232 -1.359,0.552 -2.7,0.71 -2.584,0.305 -4.068,1.217 -4.068,2.5 0,0.996 1.221,0.945 1.484,-0.062 0.177,-0.675 0.546,-0.8 2.367,-0.8 1.641,0 2.316,-0.186 2.822,-0.777 0.512,-0.597 0.838,-0.685 1.411,-0.378 0.411,0.22 1.083,0.292 1.495,0.162 2.835,-0.9 12.854,-0.827 14.596,0.106 0.857,0.459 2.218,0.654 4.525,0.648 2.834,-0.007 3.3,0.087 3.3,0.668 0,0.573 0.641,0.719 4.241,0.965 3.374,0.229 4.397,0.444 5,1.047 0.937,0.937 5.959,1.135 5.959,0.235 0,-0.58 -3.731,-1.689 -4.365,-1.298 -0.217,0.135 -1.077,-0.12 -1.909,-0.567 -1.014,-0.543 -2.268,-0.811 -3.796,-0.811 -1.256,0 -2.39,-0.174 -2.522,-0.387 -0.131,-0.213 -0.758,-0.283 -1.393,-0.156 -1.037,0.207 -1.167,0.115 -1.284,-0.913 -0.157,-1.374 -1.448,-1.728 -2.814,-0.771 -1.137,0.796 -3.466,0.825 -3.765,0.046 -0.123,-0.319 -1.006,-0.698 -1.963,-0.842 -0.957,-0.143 -2.049,-0.602 -2.427,-1.019 -0.889,-0.982 -2.761,-0.981 -3.45,0.003 m 2.888,0.839 c 0,0.444 -0.267,0.8 -0.6,0.8 -0.333,0 -0.6,-0.356 -0.6,-0.8 0,-0.444 0.267,-0.8 0.6,-0.8 0.333,0 0.6,0.356 0.6,0.8 m 18.1,0.832 c 0.475,0.277 0.925,0.277 1.4,0 0.571,-0.333 0.442,-0.408 -0.7,-0.408 -1.142,0 -1.271,0.075 -0.7,0.408 m 9.9,-0.032 c 0,0.469 0.307,0.469 1.4,0 0.709,-0.305 0.675,-0.347 -0.3,-0.372 -0.605,-0.015 -1.1,0.152 -1.1,0.372 m 3.206,1.676 c -0.003,1.032 0.174,1.988 0.394,2.124 0.52,0.321 0.52,-2.596 0,-3.4 -0.281,-0.435 -0.389,-0.083 -0.394,1.276 m -134.672,-0.249 c -0.333,0.869 0.513,1.686 1.119,1.08 0.512,-0.512 0.195,-1.707 -0.453,-1.707 -0.234,0 -0.533,0.282 -0.666,0.627 m 36.412,-0.03 c -0.139,0.361 -0.06,0.849 0.174,1.083 0.609,0.609 1.764,0.052 1.605,-0.774 -0.177,-0.921 -1.459,-1.143 -1.779,-0.309 m -16.748,0.206 c -0.263,0.426 1.388,1.229 1.902,0.926 0.165,-0.097 0.3,-0.436 0.3,-0.753 0,-0.66 -1.813,-0.802 -2.202,-0.173 M 204.4,208.8 c 0,0.22 -0.911,0.4 -2.024,0.4 -1.247,0 -1.928,-0.153 -1.776,-0.4 0.136,-0.22 1.047,-0.4 2.024,-0.4 0.977,0 1.776,0.18 1.776,0.4 m 23.6,0 c -0.788,0.509 -2.4,0.509 -2.4,0 0,-0.22 0.675,-0.397 1.5,-0.394 1.116,0.005 1.346,0.106 0.9,0.394 m 10,1.6 c 0,0.22 -0.641,0.4 -1.424,0.4 -0.847,0 -1.323,-0.162 -1.176,-0.4 0.136,-0.22 0.777,-0.4 1.424,-0.4 0.647,0 1.176,0.18 1.176,0.4 m -78.2,0.725 c -1.873,0.437 -2.038,5.098 -0.245,6.892 3.539,3.539 8.445,1.003 8.445,-4.365 0,-1.102 -0.152,-2.099 -0.338,-2.214 -0.591,-0.365 -6.612,-0.604 -7.862,-0.313 m 7.723,2.365 c 0.347,4.788 -4.391,7.303 -7.639,4.056 -1.012,-1.013 -1.113,-1.355 -1.004,-3.436 l 0.12,-2.31 1.8,-0.2 c 0.99,-0.11 2.88,-0.11 4.2,0 l 2.4,0.2 0.123,1.69 m 74.923,-1.428 c -0.923,0.265 -1.491,0.253 -1.78,-0.036 -0.301,-0.301 0.096,-0.415 1.354,-0.39 l 1.78,0.036 -1.354,0.39 m -50.832,0.555 c 0.266,0.321 0.634,0.583 0.817,0.583 1.163,0 2.415,2.092 1.595,2.667 -0.488,0.342 -0.826,1.02 -0.826,1.659 0,0.648 -0.321,1.282 -0.8,1.581 -0.487,0.304 -0.8,0.933 -0.8,1.607 0,0.613 -0.357,1.414 -0.8,1.793 -0.456,0.39 -0.8,1.18 -0.8,1.835 0,0.633 -0.36,1.608 -0.8,2.167 -0.44,0.56 -0.8,1.477 -0.8,2.04 0,0.613 -0.32,1.194 -0.8,1.451 -0.555,0.297 -0.8,0.838 -0.8,1.767 0,0.987 -0.203,1.393 -0.771,1.541 -0.531,0.139 -0.812,0.621 -0.9,1.547 -0.109,1.136 -0.302,1.365 -1.243,1.473 -0.613,0.07 -1.331,0.475 -1.596,0.9 -0.673,1.077 -3.597,1.06 -4.981,-0.028 -0.705,-0.555 -1.623,-0.8 -2.994,-0.8 -3.153,0 -5.604,-3.003 -3.515,-4.307 0.445,-0.278 0.8,-0.933 0.8,-1.477 0,-0.537 0.262,-1.123 0.581,-1.302 0.803,-0.449 2.619,-3.958 2.619,-5.06 0,-1.207 1.908,-2.96 3.4,-3.123 1.513,-0.165 1.896,-1.637 0.606,-2.328 -1.386,-0.741 -1.036,-5.353 0.419,-5.522 0.888,-0.104 1.074,0.082 1.4,1.4 0.485,1.963 1.42,1.979 1.966,0.033 0.229,-0.817 0.734,-1.717 1.122,-2 1.056,-0.769 7.279,-0.846 7.901,-0.097 m 5.853,-0.35 c -0.415,0.415 -0.314,1.733 0.133,1.733 0.22,0 0.4,-0.45 0.4,-1 0,-1.047 -0.092,-1.174 -0.533,-0.733 M 118,214 c 0.292,0.546 0.838,0.8 1.718,0.8 0.856,0 1.457,0.269 1.789,0.8 0.275,0.44 0.758,0.8 1.073,0.8 0.754,0 1.082,0.574 0.779,1.364 -0.306,0.796 -1.2,0.828 -1.497,0.054 -0.161,-0.42 -1.038,-0.615 -3.143,-0.7 L 115.8,217 l -0.128,-1.338 c -0.231,-2.411 1.331,-3.525 2.328,-1.662 m 9.193,4.831 c 0.004,0.127 -0.533,0.151 -1.193,0.054 -1.134,-0.166 -1.632,-1.119 -0.945,-1.807 0.248,-0.248 2.124,1.29 2.138,1.753 m 66.407,2.131 c 0,0.806 -0.309,1.594 -0.8,2.038 -0.44,0.398 -0.8,1.131 -0.8,1.629 0,1.322 -0.408,2.171 -1.043,2.171 -0.385,0 -0.557,0.504 -0.557,1.637 0,1.286 -0.167,1.682 -0.778,1.841 -0.559,0.146 -0.813,0.615 -0.9,1.66 -0.085,1.008 -0.337,1.496 -0.822,1.588 -1.096,0.208 -0.999,-2.723 0.1,-3.01 0.601,-0.157 0.8,-0.546 0.8,-1.559 0,-0.917 0.257,-1.511 0.8,-1.85 0.57,-0.356 0.8,-0.933 0.8,-2.007 0,-1.013 0.263,-1.733 0.8,-2.193 0.44,-0.377 0.8,-1.149 0.8,-1.716 0,-1.105 0.713,-2.092 1.264,-1.751 0.185,0.114 0.336,0.799 0.336,1.522 m -60.684,1.097 c 0.393,0.408 0.899,0.741 1.123,0.741 0.225,0 0.297,0.18 0.161,0.4 -0.399,0.646 -2.6,0.489 -2.6,-0.186 0,-0.322 -0.365,-0.781 -0.811,-1.02 -0.446,-0.239 -0.716,-0.588 -0.6,-0.777 0.311,-0.502 1.902,-0.011 2.727,0.842 m 4.684,2.741 c 0,0.22 -0.259,0.4 -0.576,0.4 -0.317,0 -0.688,-0.18 -0.824,-0.4 -0.136,-0.22 0.123,-0.4 0.576,-0.4 0.453,0 0.824,0.18 0.824,0.4 m 2,1.6 c 0,0.22 0.461,0.4 1.024,0.4 0.58,0 0.916,-0.173 0.776,-0.4 -0.136,-0.22 -0.597,-0.4 -1.024,-0.4 -0.427,0 -0.776,0.18 -0.776,0.4"
       inkscape:connector-curvature="0"
       style="fill:#8c8c8c;fill-rule:evenodd;stroke:none" />
    <path
       id="path4"
       d="m 165.8,202.821 c 1.417,0.494 3.898,0.715 3.486,0.31 -0.157,-0.155 -1.276,-0.382 -2.486,-0.505 -1.859,-0.188 -2.014,-0.158 -1,0.195 m 40.705,3.866 c 0.609,0.092 1.509,0.09 2,-0.005 0.492,-0.095 -0.005,-0.171 -1.105,-0.168 -1.1,0.003 -1.503,0.081 -0.895,0.173 m 21.044,0.413 c -0.477,0.609 -0.471,0.64 0.051,0.243 0.33,-0.251 0.96,-0.545 1.4,-0.654 0.76,-0.186 0.757,-0.199 -0.051,-0.243 -0.468,-0.025 -1.098,0.269 -1.4,0.654 m 10.867,0.082 c -0.423,0.267 -0.222,0.359 0.724,0.332 0.858,-0.024 1.128,-0.151 0.784,-0.369 -0.661,-0.419 -0.792,-0.416 -1.508,0.037 m 9.785,-0.014 c -0.683,0.267 -0.61,0.34 0.5,0.503 0.908,0.133 1.299,0.031 1.299,-0.34 0,-0.586 -0.581,-0.638 -1.799,-0.163 m -32.901,0.708 c 0.385,0.1 1.015,0.1 1.4,0 0.385,-0.101 0.07,-0.183 -0.7,-0.183 -0.77,0 -1.085,0.082 -0.7,0.183 m 15.146,0.424 c -0.035,0.692 -0.301,0.911 -1.146,0.946 -0.843,0.036 -0.913,0.093 -0.3,0.247 0.44,0.11 0.932,0.404 1.094,0.653 0.186,0.288 0.296,0.198 0.3,-0.246 0.004,-0.443 0.336,-0.717 0.906,-0.746 0.638,-0.033 0.703,-0.099 0.225,-0.225 -0.372,-0.098 -0.756,-0.482 -0.854,-0.854 -0.126,-0.478 -0.192,-0.413 -0.225,0.225 m -121.526,3.3 c 0,1.21 0.075,1.705 0.167,1.1 0.091,-0.605 0.091,-1.595 0,-2.2 -0.092,-0.605 -0.167,-0.11 -0.167,1.1 m 80.38,-0.124 c 0.385,0.1 1.015,0.1 1.4,0 0.385,-0.101 0.07,-0.183 -0.7,-0.183 -0.77,0 -1.085,0.082 -0.7,0.183 m -35.094,22.914 c -0.315,0.51 0.34,0.814 0.947,0.439 0.401,-0.248 0.378,-0.37 -0.107,-0.556 -0.341,-0.131 -0.719,-0.078 -0.84,0.117"
       inkscape:connector-curvature="0"
       style="fill:#7c7c7c;fill-rule:evenodd;stroke:none" />
  </g>
</svg>
