<svg id="svg" version="1.1" xmlns="http://www.w3.org/2000/svg" xmlns:xlink="http://www.w3.org/1999/xlink" width="400" height="400" viewBox="0, 0, 400,400"><g id="svgg"><path id="path0" d="M186.000 187.153 C 186.000 188.279,187.201 189.094,188.069 188.557 C 189.053 187.949,188.390 186.000,187.200 186.000 C 186.144 186.000,186.000 186.139,186.000 187.153 M177.000 190.027 C 176.226 190.523,175.087 190.797,173.789 190.798 C 172.275 190.799,171.609 190.998,171.093 191.600 C 170.424 192.381,169.913 192.400,149.500 192.400 C 129.026 192.400,128.582 192.417,128.093 193.200 C 127.803 193.665,127.160 194.000,126.560 194.000 C 125.991 194.000,125.069 194.360,124.509 194.800 C 123.950 195.240,123.140 195.600,122.709 195.600 C 122.279 195.600,121.469 195.960,120.909 196.400 C 120.350 196.840,119.667 197.200,119.392 197.200 C 119.117 197.200,118.376 197.469,117.746 197.798 C 116.302 198.551,115.823 198.551,115.200 197.800 C 114.847 197.374,113.912 197.200,111.980 197.200 L 109.258 197.200 109.252 212.000 L 109.246 226.800 111.361 226.800 C 114.088 226.800,114.800 226.079,114.800 223.317 C 114.800 220.563,115.089 220.413,120.538 220.356 C 123.102 220.329,125.200 220.163,125.200 219.987 C 125.200 219.482,124.310 219.290,122.941 219.499 C 121.919 219.655,121.632 219.532,121.414 218.846 C 121.176 218.095,120.843 218.000,118.453 218.000 C 115.250 218.000,114.800 217.655,114.800 215.200 C 114.800 212.478,117.223 211.166,118.493 213.200 C 118.794 213.682,119.426 214.000,120.081 214.000 C 120.679 214.000,121.502 214.358,121.909 214.795 C 122.368 215.287,123.305 215.641,124.370 215.726 C 125.455 215.812,126.229 216.109,126.465 216.531 C 126.912 217.328,128.231 217.418,128.517 216.671 C 128.678 216.253,130.137 216.172,135.460 216.285 C 139.167 216.364,143.025 216.426,144.033 216.422 C 145.549 216.417,146.063 216.622,147.008 217.608 L 148.150 218.800 144.695 218.800 C 141.969 218.800,141.165 218.667,140.888 218.171 C 140.608 217.672,139.596 217.511,135.968 217.391 C 133.456 217.308,131.130 217.203,130.800 217.157 C 129.217 216.938,128.400 217.225,128.400 218.000 C 128.400 218.514,128.667 218.800,129.146 218.800 C 129.556 218.800,130.350 219.160,130.909 219.600 C 131.469 220.040,132.059 220.400,132.222 220.400 C 132.384 220.400,133.479 221.038,134.655 221.819 C 135.830 222.599,137.424 223.501,138.196 223.824 C 138.968 224.147,139.600 224.569,139.600 224.762 C 139.600 224.955,140.095 225.237,140.700 225.389 C 141.305 225.541,142.122 226.010,142.516 226.432 C 142.909 226.855,143.556 227.200,143.954 227.200 C 144.351 227.200,145.002 227.560,145.400 228.000 C 145.798 228.440,146.368 228.800,146.666 228.800 C 146.964 228.800,147.516 229.160,147.893 229.600 C 148.270 230.040,148.884 230.400,149.258 230.400 C 150.007 230.400,152.400 232.255,152.400 232.836 C 152.400 233.413,150.947 233.259,150.421 232.626 C 149.770 231.841,147.687 231.430,147.048 231.960 C 146.651 232.289,146.300 232.038,145.561 230.896 C 144.926 229.916,144.085 229.235,143.114 228.917 C 142.301 228.650,140.911 227.975,140.025 227.416 C 137.872 226.056,137.693 226.109,137.379 228.197 C 137.001 230.725,137.440 232.603,138.585 233.353 C 139.210 233.763,139.592 234.443,139.674 235.292 L 139.800 236.600 143.325 236.600 C 146.266 236.600,146.916 236.716,147.245 237.300 C 147.995 238.630,151.600 237.947,151.600 236.475 C 151.600 234.781,153.992 233.486,156.183 233.995 C 157.292 234.252,158.920 234.562,159.800 234.682 C 160.680 234.803,161.829 235.239,162.354 235.651 C 162.990 236.150,163.958 236.400,165.258 236.400 C 166.713 236.400,167.382 236.603,167.893 237.200 C 168.404 237.797,169.073 238.000,170.526 238.000 C 171.868 238.000,172.790 238.249,173.491 238.800 C 175.893 240.689,185.200 239.562,185.200 237.382 C 185.200 236.829,183.210 237.326,182.564 238.040 C 181.601 239.104,177.326 239.000,176.091 237.882 C 175.622 237.458,174.669 237.198,173.569 237.196 C 170.348 237.188,167.935 233.476,170.000 231.707 C 170.440 231.330,170.800 230.614,170.800 230.114 C 170.800 229.615,171.160 228.982,171.600 228.707 C 172.040 228.432,172.400 227.915,172.400 227.558 C 172.400 227.200,172.760 226.450,173.200 225.891 C 173.640 225.331,174.002 224.452,174.004 223.937 C 174.010 222.656,176.394 220.400,177.743 220.400 C 179.002 220.400,179.100 219.980,178.000 219.293 C 177.060 218.706,176.813 213.747,177.680 212.880 C 178.503 212.057,180.843 212.277,181.084 213.200 C 181.370 214.292,181.862 214.205,182.161 213.012 C 182.676 210.963,190.384 209.837,191.886 211.592 C 192.266 212.036,192.753 212.400,192.967 212.400 C 194.762 212.400,195.964 215.212,194.800 216.691 C 193.942 217.782,193.749 218.800,194.400 218.800 C 194.620 218.800,194.800 218.575,194.800 218.300 C 194.800 217.560,197.424 215.600,198.415 215.600 C 198.886 215.600,199.592 215.205,199.983 214.721 L 200.695 213.842 222.509 213.946 C 237.570 214.017,244.404 213.918,244.585 213.625 C 244.758 213.344,244.084 213.200,242.604 213.200 C 241.317 213.200,239.825 212.923,239.106 212.551 C 238.355 212.163,236.475 211.831,234.425 211.724 C 232.014 211.598,230.704 211.335,230.000 210.836 C 229.331 210.361,227.930 210.053,225.761 209.905 C 223.980 209.784,221.964 209.395,221.281 209.042 C 219.852 208.303,215.953 208.183,214.724 208.840 C 214.272 209.083,212.014 209.357,209.707 209.450 C 207.400 209.543,205.151 209.812,204.710 210.048 C 204.257 210.291,203.177 210.367,202.225 210.225 C 200.696 209.995,200.499 210.065,200.079 210.986 C 199.825 211.544,199.456 212.000,199.259 212.000 C 199.061 212.000,198.792 212.540,198.660 213.200 C 198.416 214.420,196.853 214.994,196.756 213.900 C 196.454 210.489,198.479 207.936,201.750 207.606 C 203.195 207.460,203.827 207.213,203.914 206.759 C 204.071 205.936,199.683 205.558,195.000 205.991 C 193.240 206.154,190.207 206.121,188.261 205.917 C 185.226 205.600,184.621 205.638,184.013 206.189 C 183.426 206.720,183.123 206.748,182.252 206.351 C 180.848 205.711,180.926 205.351,182.600 204.746 C 183.663 204.361,184.000 204.012,184.000 203.292 C 184.000 202.045,185.624 202.199,186.195 203.500 C 186.686 204.619,188.037 204.673,188.707 203.600 C 189.147 202.896,189.640 202.800,192.803 202.800 C 194.934 202.800,196.400 202.637,196.400 202.400 C 196.400 202.180,195.815 201.994,195.100 201.987 C 193.442 201.971,191.934 200.988,193.072 200.665 C 193.987 200.406,200.350 200.415,201.329 200.677 C 201.996 200.856,202.005 200.932,201.428 201.569 C 201.082 201.952,200.919 202.385,201.066 202.532 C 201.491 202.957,203.126 202.843,203.420 202.368 C 203.998 201.433,207.200 203.028,207.200 204.251 C 207.200 204.540,206.615 204.931,205.900 205.120 C 203.903 205.647,208.686 206.065,211.800 205.636 C 213.120 205.454,213.655 205.281,212.989 205.252 C 211.305 205.180,209.817 204.103,210.411 203.387 C 210.985 202.695,215.490 202.691,216.600 203.382 C 217.040 203.655,218.059 204.095,218.865 204.359 C 219.670 204.623,220.430 205.100,220.552 205.419 C 220.688 205.773,221.319 206.000,222.164 206.000 C 223.702 206.000,224.460 205.324,223.325 204.965 C 221.050 204.244,220.710 203.991,221.208 203.390 C 221.974 202.467,224.677 202.622,225.210 203.619 C 225.980 205.057,227.503 205.358,234.200 205.394 C 238.539 205.417,240.892 205.591,241.507 205.932 C 242.256 206.348,242.564 206.330,243.280 205.829 C 243.917 205.383,244.284 205.338,244.671 205.659 C 245.052 205.975,245.712 205.966,247.062 205.626 C 248.150 205.352,249.025 205.307,249.163 205.518 C 249.293 205.717,249.805 206.094,250.300 206.354 C 250.893 206.666,251.202 207.199,251.205 207.914 C 251.214 209.601,251.641 210.800,252.233 210.800 C 252.529 210.800,252.965 211.160,253.200 211.600 C 253.450 212.068,254.038 212.400,254.614 212.400 C 255.959 212.400,255.854 211.871,254.400 211.322 C 252.981 210.787,252.820 209.347,253.962 207.400 L 254.666 206.200 273.618 206.154 C 291.750 206.111,292.588 206.076,292.985 205.354 C 293.213 204.940,293.440 204.530,293.490 204.443 C 293.539 204.357,293.911 204.695,294.315 205.194 C 294.896 205.912,295.254 206.033,296.025 205.774 C 296.561 205.594,297.287 205.488,297.639 205.538 C 298.386 205.645,299.373 204.604,299.038 204.062 C 298.901 203.840,289.949 203.664,276.923 203.626 C 261.978 203.583,254.873 203.426,254.519 203.132 C 253.615 202.382,253.866 199.070,254.900 198.100 C 256.867 196.254,257.055 195.600,255.617 195.600 C 255.259 195.600,254.321 194.897,253.530 194.038 L 252.094 192.475 231.947 192.323 C 214.006 192.187,211.630 192.095,210.251 191.485 C 208.246 190.598,207.531 190.621,206.693 191.600 C 206.102 192.290,205.513 192.400,202.407 192.400 C 199.240 192.400,198.747 192.304,198.307 191.600 C 197.869 190.899,197.374 190.800,194.300 190.800 C 191.362 190.800,190.688 190.678,190.148 190.048 C 189.518 189.312,189.488 189.312,188.752 190.048 C 187.777 191.023,186.567 191.004,185.707 190.000 C 184.731 188.860,178.793 188.879,177.000 190.027 M167.231 194.369 C 168.690 195.828,168.694 196.369,167.258 197.744 L 166.117 198.838 155.478 198.719 C 149.077 198.647,144.683 198.441,144.448 198.200 C 143.399 197.127,143.531 195.730,144.802 194.459 L 146.062 193.200 156.062 193.200 L 166.062 193.200 167.231 194.369 M180.974 193.590 C 182.224 194.065,182.302 195.010,181.141 195.632 C 180.107 196.185,177.200 195.471,177.200 194.664 C 177.200 193.331,178.968 192.828,180.974 193.590 M195.120 193.680 C 196.366 194.926,195.186 197.200,193.293 197.200 C 192.233 197.200,190.000 195.441,190.000 194.605 C 190.000 193.289,194.005 192.565,195.120 193.680 M240.735 198.098 C 242.312 198.850,242.439 201.197,240.982 202.655 L 239.916 203.721 233.858 203.456 C 225.363 203.085,223.866 202.338,225.543 199.309 C 226.534 197.518,237.660 196.631,240.735 198.098 M251.929 199.524 C 254.829 201.930,252.913 203.600,247.254 203.600 C 243.453 203.600,242.800 203.302,242.800 201.569 C 242.800 200.183,243.293 199.843,246.200 199.222 C 247.520 198.940,248.780 198.654,249.000 198.587 C 250.001 198.278,250.694 198.500,251.929 199.524 M139.418 200.564 C 139.939 200.945,140.411 201.008,140.876 200.759 C 141.254 200.557,142.967 200.462,144.682 200.548 C 148.412 200.736,177.861 200.896,181.690 200.750 C 186.958 200.548,185.457 202.469,180.095 202.790 L 176.600 203.000 176.467 204.398 C 176.207 207.142,173.305 207.850,171.260 205.668 C 170.295 204.639,170.096 204.579,169.045 205.011 C 166.940 205.875,162.359 205.313,161.305 204.062 L 160.410 203.000 143.505 202.912 C 134.207 202.863,124.757 202.807,122.504 202.786 C 120.251 202.765,118.230 202.858,118.012 202.992 C 117.010 203.612,115.967 202.423,116.627 201.415 C 117.317 200.362,122.603 200.023,124.070 200.938 C 124.545 201.233,125.047 201.216,125.789 200.878 C 127.102 200.279,132.489 200.249,133.077 200.837 C 133.393 201.153,133.747 201.149,134.357 200.823 C 134.983 200.488,135.418 200.488,136.047 200.825 C 136.721 201.186,137.023 201.148,137.532 200.639 C 138.313 199.858,138.446 199.853,139.418 200.564 M210.276 200.646 C 211.144 200.879,211.143 200.888,210.076 201.811 L 209.000 202.741 208.096 201.897 C 206.809 200.695,207.972 200.028,210.276 200.646 M222.017 201.018 C 222.034 201.656,216.849 202.139,216.156 201.563 C 215.679 201.168,215.665 201.007,216.081 200.747 C 216.791 200.305,222.004 200.542,222.017 201.018 M198.800 202.600 C 198.800 203.273,198.873 203.300,199.767 202.957 C 200.661 202.614,200.554 202.000,199.600 202.000 C 199.156 202.000,198.800 202.267,198.800 202.600 M197.292 204.075 C 197.539 204.817,198.400 204.940,198.400 204.233 C 198.400 203.885,198.115 203.600,197.767 203.600 C 197.418 203.600,197.205 203.814,197.292 204.075 M300.710 203.823 C 299.905 204.628,302.588 207.200,304.233 207.200 C 304.960 207.200,305.704 205.356,305.383 204.347 C 305.152 203.620,301.341 203.193,300.710 203.823 M179.500 207.577 C 180.865 208.716,179.904 210.745,177.980 210.787 C 176.344 210.822,175.972 209.165,177.300 207.763 C 178.376 206.628,178.363 206.629,179.500 207.577 M225.339 207.254 C 225.868 207.561,226.202 207.558,226.519 207.241 C 226.840 206.920,226.641 206.803,225.780 206.812 C 224.746 206.823,224.691 206.877,225.339 207.254 M116.826 208.014 C 117.823 208.548,117.805 209.229,116.765 210.345 C 116.141 211.015,115.800 211.132,115.409 210.807 C 113.736 209.419,114.956 207.013,116.826 208.014 M137.560 208.151 C 138.387 209.148,137.425 210.800,136.018 210.800 C 134.755 210.800,134.035 209.529,134.544 208.201 C 134.835 207.443,136.943 207.409,137.560 208.151 M153.932 208.733 C 154.119 210.055,152.923 211.294,151.959 210.778 C 150.713 210.111,150.304 208.953,151.051 208.206 C 152.007 207.250,153.768 207.572,153.932 208.733 M238.000 207.959 C 233.148 208.237,232.454 208.895,236.667 209.223 C 238.243 209.346,239.809 209.676,240.147 209.956 C 240.487 210.239,241.126 210.351,241.577 210.207 C 242.026 210.065,242.619 210.095,242.896 210.274 C 243.173 210.453,244.029 210.786,244.798 211.012 C 245.904 211.339,246.239 211.673,246.402 212.612 C 246.594 213.722,246.725 213.800,248.404 213.800 C 250.427 213.800,251.087 212.630,249.793 211.336 C 249.417 210.960,249.206 210.281,249.305 209.763 C 249.654 207.939,246.666 207.462,238.000 207.959 M165.033 210.460 C 168.182 211.071,168.400 211.295,168.400 213.927 C 168.400 218.275,164.645 221.517,161.501 219.886 C 158.829 218.500,158.000 217.183,158.000 214.325 C 158.000 211.447,158.096 211.296,160.400 210.542 C 162.266 209.931,162.309 209.931,165.033 210.460 M150.973 220.242 C 152.138 221.216,152.858 222.223,153.189 223.342 C 153.458 224.254,153.911 225.270,154.195 225.600 C 154.479 225.930,154.835 226.784,154.987 227.498 C 155.138 228.211,155.504 228.931,155.799 229.098 C 156.677 229.592,157.024 231.600,156.231 231.600 C 155.870 231.600,155.508 231.375,155.426 231.100 C 155.134 230.120,154.771 229.378,153.811 227.800 C 153.276 226.920,152.631 225.750,152.377 225.200 C 152.122 224.650,151.747 223.930,151.543 223.600 C 151.338 223.270,150.963 222.518,150.709 221.929 C 150.455 221.340,149.831 220.669,149.323 220.438 C 148.393 220.014,148.175 219.558,148.667 219.067 C 149.068 218.665,149.116 218.690,150.973 220.242 M192.400 221.000 C 192.400 221.550,192.580 222.000,192.800 222.000 C 193.020 222.000,193.200 221.550,193.200 221.000 C 193.200 220.450,193.020 220.000,192.800 220.000 C 192.580 220.000,192.400 220.450,192.400 221.000 M128.400 222.400 C 128.400 223.086,128.614 223.606,128.900 223.614 C 129.175 223.622,129.922 224.056,130.560 224.577 L 131.720 225.526 131.637 230.872 C 131.546 236.777,132.139 238.262,134.461 237.933 C 135.388 237.802,135.400 237.739,135.412 232.800 C 135.419 230.050,135.558 227.523,135.722 227.185 C 136.226 226.145,134.010 224.356,132.383 224.489 C 131.353 224.574,130.996 224.430,130.884 223.886 C 130.748 223.232,129.007 221.200,128.582 221.200 C 128.482 221.200,128.400 221.740,128.400 222.400 M190.800 225.024 C 190.800 225.604,190.973 225.940,191.200 225.800 C 191.420 225.664,191.600 225.203,191.600 224.776 C 191.600 224.349,191.420 224.000,191.200 224.000 C 190.980 224.000,190.800 224.461,190.800 225.024 M189.200 228.800 C 189.200 229.460,189.380 230.000,189.600 230.000 C 189.820 230.000,190.000 229.460,190.000 228.800 C 190.000 228.140,189.820 227.600,189.600 227.600 C 189.380 227.600,189.200 228.140,189.200 228.800 M187.600 232.000 C 187.600 232.660,187.780 233.200,188.000 233.200 C 188.220 233.200,188.400 232.660,188.400 232.000 C 188.400 231.340,188.220 230.800,188.000 230.800 C 187.780 230.800,187.600 231.340,187.600 232.000 M146.800 234.224 C 146.800 234.541,146.620 234.800,146.400 234.800 C 146.180 234.800,146.000 234.429,146.000 233.976 C 146.000 233.523,146.180 233.264,146.400 233.400 C 146.620 233.536,146.800 233.907,146.800 234.224 M186.000 235.200 C 186.000 235.860,186.180 236.400,186.400 236.400 C 186.620 236.400,186.800 235.860,186.800 235.200 C 186.800 234.540,186.620 234.000,186.400 234.000 C 186.180 234.000,186.000 234.540,186.000 235.200 " stroke="none" fill="#141414" fill-rule="evenodd"></path><path id="path1" d="M0.000 200.000 L 0.000 400.000 200.000 400.000 L 400.000 400.000 400.000 200.000 L 400.000 0.000 200.000 0.000 L 0.000 0.000 0.000 200.000 M189.126 186.708 C 189.367 189.213,190.725 190.000,194.804 190.000 C 197.962 190.000,198.421 190.092,198.800 190.800 C 199.465 192.043,205.357 191.989,206.375 190.731 C 207.115 189.818,210.559 189.951,217.600 191.163 C 218.810 191.371,227.180 191.557,236.200 191.575 L 252.600 191.608 254.000 193.200 C 254.802 194.112,255.763 194.794,256.251 194.796 C 257.738 194.803,258.334 195.962,257.287 196.810 C 256.799 197.205,256.400 197.718,256.400 197.950 C 256.400 198.182,256.030 198.570,255.578 198.812 C 254.914 199.167,254.780 199.572,254.878 200.926 L 255.000 202.600 280.385 202.800 L 305.769 203.000 306.370 204.071 C 307.872 206.747,304.615 209.340,301.877 207.648 C 300.519 206.808,293.483 206.818,292.963 207.660 C 292.609 208.232,290.129 208.038,289.596 207.396 C 289.161 206.871,286.852 206.805,272.047 206.896 L 255.000 207.000 254.880 208.848 C 254.776 210.449,254.874 210.726,255.612 210.919 C 256.229 211.080,256.427 211.397,256.332 212.071 C 256.182 213.127,253.605 213.634,252.604 212.804 C 252.183 212.454,251.947 212.601,251.527 213.478 L 250.989 214.600 225.995 214.701 C 201.514 214.799,200.989 214.818,200.451 215.601 C 200.120 216.082,199.452 216.400,198.769 216.400 C 197.635 216.400,195.952 217.706,195.471 218.960 C 195.336 219.312,194.949 219.600,194.613 219.600 C 194.168 219.600,194.000 220.024,194.000 221.146 C 194.000 222.086,193.687 223.091,193.200 223.709 C 192.760 224.269,192.400 225.191,192.400 225.760 C 192.400 226.360,192.065 227.003,191.600 227.293 C 191.058 227.631,190.800 228.226,190.800 229.134 C 190.800 230.138,190.599 230.527,190.000 230.684 C 189.394 230.843,189.200 231.230,189.200 232.284 C 189.200 233.338,189.006 233.725,188.400 233.884 C 187.794 234.043,187.600 234.430,187.600 235.484 C 187.600 236.538,187.406 236.925,186.800 237.084 C 186.360 237.199,186.000 237.466,186.000 237.677 C 186.000 240.233,174.851 241.871,172.907 239.600 C 172.396 239.003,171.727 238.800,170.274 238.800 C 168.932 238.800,168.010 238.551,167.309 238.000 C 166.580 237.426,165.686 237.200,164.149 237.200 C 162.440 237.200,161.906 237.038,161.507 236.400 C 160.772 235.222,155.600 235.193,155.600 236.367 C 155.600 238.621,153.760 239.299,153.340 237.200 C 153.058 235.788,152.400 235.592,152.400 236.920 C 152.400 238.824,148.426 239.671,146.722 238.130 C 146.062 237.532,145.647 237.512,142.893 237.940 C 139.360 238.489,138.800 238.184,138.800 235.711 C 138.800 234.692,138.586 234.293,137.900 234.034 C 136.610 233.547,136.400 233.814,136.400 235.944 C 136.400 238.188,135.908 238.800,134.102 238.800 C 131.352 238.800,130.800 237.603,130.800 231.636 C 130.800 226.133,130.447 225.118,128.240 224.271 C 127.028 223.806,127.366 220.400,128.624 220.400 C 129.204 220.400,129.540 220.227,129.400 220.000 C 129.020 219.385,127.946 219.524,127.091 220.300 C 126.467 220.867,125.317 221.038,121.060 221.200 L 115.800 221.400 115.682 223.854 C 115.522 227.194,114.952 227.676,111.347 227.519 L 108.600 227.400 108.495 212.089 C 108.399 197.953,108.443 196.758,109.075 196.516 C 109.801 196.237,110.212 196.231,115.702 196.423 C 118.873 196.534,119.282 196.463,120.018 195.673 C 120.465 195.193,121.201 194.800,121.652 194.800 C 122.104 194.800,122.931 194.440,123.491 194.000 C 124.050 193.560,125.107 193.200,125.840 193.200 C 126.762 193.200,127.303 192.954,127.600 192.400 C 128.020 191.616,128.438 191.600,148.760 191.600 C 168.886 191.600,169.522 191.577,170.509 190.800 C 171.197 190.259,172.132 190.000,173.400 190.000 C 174.668 190.000,175.603 189.741,176.291 189.200 C 177.152 188.523,177.914 188.400,181.254 188.400 L 185.200 188.400 185.200 187.067 C 185.200 184.578,188.888 184.241,189.126 186.708 M145.271 195.085 L 144.341 196.086 145.240 197.043 L 146.139 198.000 155.970 197.993 L 165.800 197.986 166.712 197.024 L 167.625 196.061 166.594 195.031 L 165.564 194.000 155.882 194.042 L 146.200 194.084 145.271 195.085 M191.055 194.310 C 190.687 194.906,192.740 196.473,193.551 196.215 C 194.388 195.950,194.941 194.952,194.578 194.364 C 194.304 193.921,191.324 193.876,191.055 194.310 M226.775 199.625 C 225.488 200.912,226.009 201.378,229.031 201.640 C 230.554 201.771,232.429 202.086,233.197 202.340 C 237.295 203.690,241.200 202.487,241.200 199.874 L 241.200 198.800 234.400 198.800 C 228.065 198.800,227.544 198.856,226.775 199.625 M246.400 200.353 C 243.959 200.585,243.800 200.661,243.800 201.600 C 243.800 203.177,250.141 203.353,251.585 201.816 C 252.108 201.259,252.454 200.721,252.353 200.620 C 251.982 200.249,248.928 200.112,246.400 200.353 M172.469 202.803 C 171.312 203.767,171.470 204.784,172.899 205.586 C 174.881 206.698,176.515 204.474,174.970 202.767 C 174.107 201.813,173.649 201.819,172.469 202.803 M217.600 206.400 C 217.600 206.844,217.867 207.200,218.200 207.200 C 218.533 207.200,218.800 206.844,218.800 206.400 C 218.800 205.956,218.533 205.600,218.200 205.600 C 217.867 205.600,217.600 205.956,217.600 206.400 M200.600 208.800 C 200.448 209.047,201.129 209.200,202.376 209.200 C 203.489 209.200,204.400 209.020,204.400 208.800 C 204.400 208.580,203.601 208.400,202.624 208.400 C 201.647 208.400,200.736 208.580,200.600 208.800 M225.600 208.800 C 225.600 209.309,227.212 209.309,228.000 208.800 C 228.446 208.512,228.216 208.411,227.100 208.406 C 226.275 208.403,225.600 208.580,225.600 208.800 M235.400 210.400 C 235.253 210.638,235.729 210.800,236.576 210.800 C 237.359 210.800,238.000 210.620,238.000 210.400 C 238.000 210.180,237.471 210.000,236.824 210.000 C 236.177 210.000,235.536 210.180,235.400 210.400 M160.800 211.600 L 159.000 211.800 158.880 214.110 C 158.771 216.191,158.872 216.533,159.884 217.546 C 163.132 220.793,167.870 218.278,167.523 213.490 L 167.400 211.800 165.000 211.600 C 163.680 211.490,161.790 211.490,160.800 211.600 M240.666 212.026 C 240.955 212.315,241.523 212.327,242.446 212.062 L 243.800 211.672 242.020 211.636 C 240.762 211.611,240.365 211.725,240.666 212.026 M183.713 212.714 C 183.325 212.997,182.820 213.897,182.591 214.714 C 182.045 216.660,181.110 216.644,180.625 214.681 C 180.299 213.363,180.113 213.177,179.225 213.281 C 177.770 213.450,177.420 218.062,178.806 218.803 C 180.096 219.494,179.713 220.966,178.200 221.131 C 176.708 221.294,174.800 223.047,174.800 224.254 C 174.800 225.356,172.984 228.865,172.181 229.314 C 171.862 229.493,171.600 230.079,171.600 230.616 C 171.600 231.160,171.245 231.815,170.800 232.093 C 168.711 233.397,171.162 236.400,174.315 236.400 C 175.686 236.400,176.604 236.645,177.309 237.200 C 178.693 238.288,181.617 238.305,182.290 237.228 C 182.555 236.803,183.273 236.398,183.886 236.328 C 184.827 236.220,185.020 235.991,185.129 234.855 C 185.217 233.929,185.498 233.447,186.029 233.308 C 186.597 233.160,186.800 232.754,186.800 231.767 C 186.800 230.838,187.045 230.297,187.600 230.000 C 188.080 229.743,188.400 229.162,188.400 228.549 C 188.400 227.986,188.760 227.069,189.200 226.509 C 189.640 225.950,190.000 224.975,190.000 224.342 C 190.000 223.687,190.344 222.897,190.800 222.507 C 191.243 222.128,191.600 221.327,191.600 220.714 C 191.600 220.040,191.913 219.411,192.400 219.107 C 192.879 218.808,193.200 218.174,193.200 217.526 C 193.200 216.887,193.538 216.209,194.026 215.867 C 194.846 215.292,193.594 213.200,192.431 213.200 C 192.248 213.200,191.880 212.938,191.614 212.617 C 190.992 211.868,184.769 211.945,183.713 212.714 M115.759 213.762 C 115.641 214.071,115.601 214.926,115.672 215.662 L 115.800 217.000 118.719 217.118 C 120.824 217.203,121.701 217.398,121.862 217.818 C 122.159 218.592,123.053 218.560,123.359 217.764 C 123.662 216.974,123.334 216.400,122.580 216.400 C 122.265 216.400,121.782 216.040,121.507 215.600 C 121.175 215.069,120.574 214.800,119.718 214.800 C 118.838 214.800,118.292 214.546,118.000 214.000 C 117.508 213.081,116.079 212.929,115.759 213.762 M125.055 217.078 C 124.368 217.766,124.866 218.719,126.000 218.885 C 126.660 218.982,127.197 218.958,127.193 218.831 C 127.179 218.368,125.303 216.830,125.055 217.078 M130.189 221.217 C 130.073 221.406,130.343 221.755,130.789 221.994 C 131.235 222.233,131.600 222.692,131.600 223.014 C 131.600 223.689,133.801 223.846,134.200 223.200 C 134.336 222.980,134.264 222.800,134.039 222.800 C 133.815 222.800,133.309 222.467,132.916 222.059 C 132.091 221.206,130.500 220.715,130.189 221.217 M136.200 224.800 C 136.336 225.020,136.707 225.200,137.024 225.200 C 137.341 225.200,137.600 225.020,137.600 224.800 C 137.600 224.580,137.229 224.400,136.776 224.400 C 136.323 224.400,136.064 224.580,136.200 224.800 " stroke="none" fill="#fcfcfc" fill-rule="evenodd"></path><path id="path2" d="M185.886 185.848 C 185.729 186.005,185.600 186.733,185.600 187.467 L 185.600 188.800 181.900 188.803 C 178.880 188.805,177.979 188.951,177.000 189.600 C 176.199 190.131,175.123 190.396,173.762 190.397 C 172.234 190.399,171.543 190.600,171.000 191.200 C 170.294 191.981,169.768 192.000,149.352 192.000 C 128.838 192.000,128.420 192.016,128.000 192.800 C 127.734 193.297,127.161 193.601,126.486 193.603 C 125.889 193.604,124.860 193.963,124.200 194.400 C 123.540 194.837,122.709 195.196,122.354 195.197 C 121.999 195.199,121.279 195.526,120.754 195.924 C 119.192 197.110,116.495 197.736,115.221 197.209 C 114.623 196.961,112.979 196.813,111.567 196.879 L 109.000 197.000 108.890 202.400 C 108.830 205.370,108.931 209.060,109.116 210.600 C 109.342 212.487,109.392 210.758,109.268 205.300 L 109.084 197.200 111.893 197.200 C 113.902 197.200,114.844 197.371,115.200 197.800 C 115.823 198.551,116.302 198.551,117.746 197.798 C 118.376 197.469,119.117 197.200,119.392 197.200 C 119.667 197.200,120.350 196.840,120.909 196.400 C 121.469 195.960,122.279 195.600,122.709 195.600 C 123.140 195.600,123.950 195.240,124.509 194.800 C 125.069 194.360,125.991 194.000,126.560 194.000 C 127.160 194.000,127.803 193.665,128.093 193.200 C 128.582 192.417,129.026 192.400,149.500 192.400 C 169.913 192.400,170.424 192.381,171.093 191.600 C 171.609 190.997,172.274 190.800,173.789 190.799 C 175.093 190.798,176.261 190.516,177.110 189.999 C 179.018 188.835,184.711 188.836,185.707 190.000 C 186.567 191.004,187.777 191.023,188.752 190.048 C 189.488 189.312,189.518 189.312,190.148 190.048 C 190.688 190.678,191.362 190.800,194.300 190.800 C 197.374 190.800,197.869 190.899,198.307 191.600 C 198.747 192.304,199.240 192.400,202.407 192.400 C 205.513 192.400,206.102 192.290,206.693 191.600 C 207.531 190.621,208.246 190.598,210.251 191.485 C 211.630 192.095,214.006 192.187,231.947 192.323 L 252.094 192.475 253.530 194.038 C 254.321 194.897,255.259 195.600,255.617 195.600 C 257.055 195.600,256.867 196.254,254.900 198.100 C 253.866 199.070,253.615 202.382,254.519 203.132 C 254.873 203.426,261.978 203.583,276.923 203.626 C 289.949 203.664,298.901 203.840,299.038 204.062 C 299.373 204.604,298.386 205.645,297.639 205.538 C 297.287 205.488,296.561 205.594,296.025 205.774 C 295.254 206.033,294.896 205.912,294.315 205.194 C 293.911 204.695,293.539 204.357,293.490 204.443 C 293.440 204.530,293.213 204.940,292.985 205.354 C 292.588 206.076,291.750 206.111,273.618 206.154 L 254.666 206.200 253.962 207.400 C 252.820 209.347,252.981 210.787,254.400 211.322 C 255.854 211.871,255.959 212.400,254.614 212.400 C 254.038 212.400,253.450 212.068,253.200 211.600 C 252.965 211.160,252.529 210.800,252.233 210.800 C 251.641 210.800,251.214 209.601,251.205 207.914 C 251.202 207.199,250.893 206.666,250.300 206.354 C 249.805 206.094,249.293 205.717,249.163 205.518 C 249.025 205.307,248.150 205.352,247.062 205.626 C 245.712 205.966,245.052 205.975,244.671 205.659 C 244.284 205.338,243.917 205.383,243.280 205.829 C 242.564 206.330,242.256 206.348,241.507 205.932 C 240.892 205.591,238.539 205.417,234.200 205.394 C 227.503 205.358,225.980 205.057,225.210 203.619 C 224.677 202.622,221.974 202.467,221.208 203.390 C 220.710 203.991,221.050 204.244,223.325 204.965 C 224.460 205.324,223.702 206.000,222.164 206.000 C 221.319 206.000,220.688 205.773,220.552 205.419 C 220.430 205.100,219.670 204.623,218.865 204.359 C 218.059 204.095,217.040 203.655,216.600 203.382 C 215.490 202.691,210.985 202.695,210.411 203.387 C 209.817 204.103,211.305 205.180,212.989 205.252 C 213.655 205.281,213.120 205.454,211.800 205.636 C 208.686 206.065,203.903 205.647,205.900 205.120 C 206.615 204.931,207.200 204.540,207.200 204.251 C 207.200 203.028,203.998 201.433,203.420 202.368 C 203.126 202.843,201.491 202.957,201.066 202.532 C 200.919 202.385,201.082 201.952,201.428 201.569 C 202.005 200.932,201.996 200.856,201.329 200.677 C 200.350 200.415,193.987 200.406,193.072 200.665 C 191.934 200.988,193.442 201.971,195.100 201.987 C 195.815 201.994,196.400 202.180,196.400 202.400 C 196.400 202.637,194.934 202.800,192.803 202.800 C 189.640 202.800,189.147 202.896,188.707 203.600 C 188.037 204.673,186.686 204.619,186.195 203.500 C 185.624 202.199,184.000 202.045,184.000 203.292 C 184.000 204.012,183.663 204.361,182.600 204.746 C 180.926 205.351,180.848 205.711,182.252 206.351 C 183.123 206.748,183.426 206.720,184.013 206.189 C 184.621 205.638,185.226 205.600,188.261 205.917 C 190.207 206.121,193.240 206.154,195.000 205.991 C 199.683 205.558,204.071 205.936,203.914 206.759 C 203.827 207.213,203.195 207.460,201.750 207.606 C 198.479 207.936,196.454 210.489,196.756 213.900 C 196.853 214.994,198.416 214.420,198.660 213.200 C 198.792 212.540,199.061 212.000,199.259 212.000 C 199.456 212.000,199.825 211.544,200.079 210.986 C 200.499 210.065,200.696 209.995,202.225 210.225 C 203.177 210.367,204.257 210.291,204.710 210.048 C 205.151 209.812,207.400 209.543,209.707 209.450 C 212.014 209.357,214.272 209.083,214.724 208.840 C 215.953 208.183,219.852 208.303,221.281 209.042 C 221.964 209.395,223.980 209.784,225.761 209.905 C 227.930 210.053,229.331 210.361,230.000 210.836 C 230.704 211.335,232.014 211.598,234.425 211.724 C 236.475 211.831,238.355 212.163,239.106 212.551 C 239.825 212.923,241.317 213.200,242.604 213.200 C 244.084 213.200,244.758 213.344,244.585 213.625 C 244.404 213.918,237.570 214.017,222.509 213.946 L 200.695 213.842 199.983 214.721 C 199.592 215.205,198.886 215.600,198.415 215.600 C 197.424 215.600,194.800 217.560,194.800 218.300 C 194.800 218.575,194.620 218.800,194.400 218.800 C 193.749 218.800,193.942 217.782,194.800 216.691 C 195.947 215.232,194.768 212.400,193.014 212.400 C 192.774 212.400,192.266 212.036,191.886 211.592 C 190.384 209.837,182.676 210.963,182.161 213.012 C 181.862 214.205,181.370 214.292,181.084 213.200 C 180.843 212.277,178.503 212.057,177.680 212.880 C 176.813 213.747,177.060 218.706,178.000 219.293 C 179.100 219.980,179.002 220.400,177.743 220.400 C 176.394 220.400,174.010 222.656,174.004 223.937 C 174.002 224.452,173.640 225.331,173.200 225.891 C 172.760 226.450,172.400 227.200,172.400 227.558 C 172.400 227.915,172.040 228.432,171.600 228.707 C 171.160 228.982,170.800 229.615,170.800 230.114 C 170.800 230.614,170.440 231.330,170.000 231.707 C 167.935 233.476,170.348 237.188,173.569 237.196 C 174.669 237.198,175.622 237.458,176.091 237.882 C 177.326 239.000,181.601 239.104,182.564 238.040 C 183.210 237.326,185.200 236.829,185.200 237.382 C 185.200 239.562,175.893 240.689,173.491 238.800 C 172.790 238.249,171.868 238.000,170.526 238.000 C 169.073 238.000,168.404 237.797,167.893 237.200 C 167.382 236.603,166.713 236.400,165.258 236.400 C 163.958 236.400,162.990 236.150,162.354 235.651 C 161.829 235.239,160.680 234.803,159.800 234.682 C 158.920 234.562,157.292 234.252,156.183 233.995 C 153.992 233.486,151.600 234.781,151.600 236.475 C 151.600 237.947,147.995 238.630,147.245 237.300 C 146.916 236.716,146.266 236.600,143.325 236.600 L 139.800 236.600 139.674 235.292 C 139.592 234.443,139.210 233.763,138.585 233.353 C 137.440 232.603,137.001 230.725,137.379 228.197 C 137.693 226.109,137.872 226.056,140.025 227.416 C 140.911 227.975,142.301 228.650,143.114 228.917 C 144.085 229.235,144.926 229.916,145.561 230.896 C 146.300 232.038,146.651 232.289,147.048 231.960 C 147.687 231.430,149.770 231.841,150.421 232.626 C 150.947 233.259,152.400 233.413,152.400 232.836 C 152.400 232.255,150.007 230.400,149.258 230.400 C 148.884 230.400,148.270 230.040,147.893 229.600 C 147.516 229.160,146.964 228.800,146.666 228.800 C 146.368 228.800,145.798 228.440,145.400 228.000 C 145.002 227.560,144.351 227.200,143.954 227.200 C 143.556 227.200,142.909 226.855,142.516 226.432 C 142.122 226.010,141.305 225.541,140.700 225.389 C 140.095 225.237,139.600 224.955,139.600 224.762 C 139.600 224.569,138.968 224.147,138.196 223.824 C 137.424 223.501,135.830 222.599,134.655 221.819 C 133.479 221.038,132.384 220.400,132.222 220.400 C 132.059 220.400,131.469 220.040,130.909 219.600 C 130.350 219.160,129.556 218.800,129.146 218.800 C 128.667 218.800,128.400 218.514,128.400 218.000 C 128.400 217.225,129.217 216.938,130.800 217.157 C 131.130 217.203,133.456 217.308,135.968 217.391 C 139.596 217.511,140.608 217.672,140.888 218.171 C 141.165 218.667,141.969 218.800,144.695 218.800 L 148.150 218.800 147.008 217.608 C 146.063 216.622,145.549 216.417,144.033 216.422 C 143.025 216.426,139.167 216.364,135.460 216.285 C 130.137 216.172,128.678 216.253,128.517 216.671 C 128.231 217.418,126.912 217.328,126.465 216.531 C 126.229 216.109,125.455 215.812,124.370 215.726 C 123.305 215.641,122.368 215.287,121.909 214.795 C 121.502 214.358,120.679 214.000,120.081 214.000 C 119.426 214.000,118.794 213.682,118.493 213.200 C 117.223 211.166,114.800 212.478,114.800 215.200 C 114.800 217.655,115.250 218.000,118.453 218.000 C 120.843 218.000,121.176 218.095,121.414 218.846 C 121.632 219.532,121.919 219.655,122.941 219.499 C 124.310 219.290,125.200 219.482,125.200 219.987 C 125.200 220.163,123.102 220.329,120.538 220.356 C 115.065 220.413,114.800 220.553,114.800 223.387 C 114.800 226.097,114.075 226.800,111.278 226.800 L 109.219 226.800 109.094 220.100 L 108.969 213.400 108.985 220.200 L 109.000 227.000 111.281 227.119 C 114.355 227.280,115.200 226.484,115.200 223.424 C 115.200 220.726,114.999 220.831,120.244 220.778 C 124.737 220.732,126.000 220.570,126.000 220.037 C 126.000 219.483,124.170 218.878,123.108 219.081 C 122.343 219.228,121.955 219.064,121.631 218.457 C 121.259 217.763,120.739 217.617,118.295 217.517 L 115.400 217.400 115.400 215.200 C 115.400 212.700,117.351 211.640,118.387 213.577 C 118.662 214.090,119.228 214.400,119.888 214.400 C 120.471 214.400,121.361 214.787,121.865 215.261 C 122.390 215.755,123.396 216.159,124.221 216.210 C 125.266 216.273,126.068 216.695,127.147 217.748 C 127.965 218.547,128.914 219.200,129.256 219.200 C 129.598 219.200,130.293 219.560,130.800 220.000 C 131.307 220.440,131.874 220.800,132.060 220.800 C 132.246 220.800,133.254 221.400,134.299 222.134 C 135.345 222.868,136.792 223.703,137.515 223.989 C 139.023 224.586,139.006 225.233,137.469 225.777 C 136.567 226.095,136.225 225.982,135.244 225.042 C 134.460 224.291,133.757 223.975,133.072 224.064 C 132.299 224.166,131.678 223.785,130.455 222.459 C 128.725 220.586,128.000 220.571,128.000 222.410 C 128.000 223.196,128.283 223.723,128.875 224.040 C 131.200 225.284,131.291 225.555,131.224 231.029 C 131.163 236.065,131.174 236.129,132.256 237.259 C 134.315 239.408,135.997 238.584,136.006 235.420 C 136.013 233.279,136.570 231.863,137.100 232.640 C 137.265 232.882,137.805 233.294,138.300 233.554 C 138.871 233.855,139.200 234.398,139.200 235.040 C 139.200 237.249,139.648 237.491,143.019 237.099 C 145.843 236.770,146.156 236.807,146.969 237.571 C 148.566 239.071,151.437 238.540,151.926 236.654 C 152.372 234.932,153.532 234.761,153.854 236.370 C 153.989 237.046,154.258 237.600,154.450 237.600 C 154.939 237.600,154.890 235.303,154.393 234.996 C 153.703 234.569,154.389 233.966,155.124 234.353 C 155.496 234.548,156.970 234.838,158.400 234.997 C 159.830 235.156,161.322 235.570,161.715 235.918 C 162.129 236.285,163.424 236.623,164.795 236.722 C 166.445 236.842,167.367 237.121,167.842 237.647 C 168.321 238.175,169.072 238.401,170.362 238.403 C 171.523 238.404,172.642 238.698,173.400 239.200 C 176.519 241.266,185.600 239.835,185.600 237.277 C 185.600 237.066,185.960 236.799,186.400 236.684 C 187.006 236.525,187.200 236.138,187.200 235.084 C 187.200 234.030,187.394 233.643,188.000 233.484 C 188.606 233.325,188.800 232.938,188.800 231.884 C 188.800 230.830,188.994 230.443,189.600 230.284 C 190.394 230.076,190.788 227.721,190.137 227.070 C 189.615 226.548,188.800 227.726,188.800 229.002 C 188.800 229.970,188.594 230.361,188.000 230.516 C 187.394 230.675,187.200 231.062,187.200 232.116 C 187.200 233.170,187.006 233.557,186.400 233.716 C 185.787 233.876,185.600 234.262,185.600 235.363 C 185.600 236.676,185.502 236.800,184.462 236.800 C 183.832 236.800,183.001 237.157,182.600 237.600 C 181.602 238.703,178.265 238.703,176.600 237.600 C 175.934 237.159,174.723 236.804,173.879 236.803 C 170.695 236.797,168.448 233.566,170.400 231.800 C 170.840 231.402,171.200 230.660,171.200 230.152 C 171.200 229.638,171.554 229.038,172.000 228.800 C 172.440 228.565,172.800 228.042,172.800 227.640 C 172.800 227.237,173.160 226.450,173.600 225.891 C 174.040 225.331,174.400 224.483,174.400 224.006 C 174.400 222.814,176.502 220.800,177.746 220.800 C 179.144 220.800,179.487 220.020,178.437 219.228 C 177.657 218.640,177.573 218.257,177.680 215.783 L 177.800 213.000 179.097 212.875 C 180.163 212.772,180.478 212.933,180.861 213.775 C 181.467 215.104,181.828 215.069,182.329 213.631 C 182.894 212.010,183.860 211.612,187.681 211.426 L 190.990 211.265 193.095 213.064 C 195.376 215.012,195.494 215.249,194.620 216.123 C 193.808 216.935,193.435 218.651,193.995 218.997 C 194.265 219.164,195.032 218.605,195.858 217.640 C 196.882 216.445,197.566 216.000,198.382 216.000 C 199.093 216.000,199.716 215.678,200.087 215.120 L 200.671 214.240 222.142 214.345 C 243.899 214.451,245.200 214.396,245.200 213.373 C 245.200 212.942,244.628 212.800,242.889 212.800 C 241.331 212.800,240.256 212.572,239.589 212.100 C 238.631 211.422,238.066 211.336,233.064 211.100 C 231.487 211.026,230.577 210.783,230.262 210.352 C 229.926 209.893,228.899 209.661,226.598 209.525 C 224.659 209.410,222.868 209.058,222.049 208.631 C 220.924 208.044,220.052 207.965,216.849 208.156 C 214.732 208.282,211.364 208.455,209.366 208.541 C 206.791 208.650,205.421 208.899,204.667 209.393 C 203.887 209.904,203.214 210.017,202.140 209.815 C 200.859 209.575,200.569 209.676,199.805 210.635 C 199.297 211.272,198.738 211.609,198.466 211.441 C 196.928 210.490,199.223 208.372,202.232 207.963 C 203.464 207.796,204.785 207.376,205.167 207.030 C 205.713 206.536,206.828 206.400,210.335 206.400 C 214.313 206.400,214.884 206.311,215.493 205.600 C 215.939 205.078,216.673 204.800,217.600 204.800 C 218.527 204.800,219.261 205.078,219.707 205.600 C 220.097 206.056,220.887 206.400,221.542 206.400 C 222.175 206.400,223.150 206.760,223.709 207.200 C 225.022 208.232,226.319 208.215,227.452 207.151 C 228.626 206.048,230.281 206.388,230.637 207.806 C 230.830 208.572,231.147 208.800,232.020 208.800 C 232.643 208.800,233.264 208.980,233.400 209.200 C 233.536 209.420,234.672 209.601,235.924 209.602 C 237.176 209.604,238.659 209.844,239.220 210.137 C 239.781 210.430,241.053 210.781,242.048 210.917 C 244.967 211.317,246.094 211.874,245.808 212.776 C 245.503 213.737,246.599 214.403,248.474 214.394 C 250.170 214.386,250.672 214.051,251.012 212.696 C 251.329 211.433,251.656 211.356,252.991 212.231 C 254.066 212.935,255.650 212.865,255.901 212.102 C 255.991 211.829,255.600 211.428,255.033 211.212 C 253.898 210.781,253.657 209.354,254.393 207.418 L 254.786 206.384 272.293 206.516 C 281.922 206.589,290.301 206.795,290.914 206.974 C 291.737 207.214,292.221 207.124,292.767 206.630 C 293.253 206.190,293.846 206.047,294.500 206.211 C 295.047 206.348,296.518 206.271,297.770 206.039 C 299.894 205.647,300.153 205.686,301.652 206.633 C 303.932 208.072,305.292 207.837,305.766 205.920 C 306.446 203.164,307.935 203.320,280.128 203.237 C 266.342 203.196,254.913 203.070,254.731 202.957 C 253.759 202.356,254.414 199.146,255.800 197.719 C 257.488 195.981,257.524 195.694,256.100 195.348 C 255.495 195.201,254.353 194.387,253.561 193.540 L 252.123 192.000 234.761 191.993 C 217.815 191.986,215.997 191.887,208.795 190.581 C 207.674 190.378,207.238 190.495,206.633 191.163 C 205.518 192.395,199.055 192.424,198.400 191.200 C 198.023 190.496,197.555 190.398,194.486 190.387 C 190.407 190.373,188.960 189.557,188.729 187.144 C 188.601 185.814,186.759 184.974,185.886 185.848 M188.400 187.176 C 188.400 188.550,188.065 188.847,186.869 188.534 C 185.374 188.143,185.653 186.000,187.200 186.000 C 188.261 186.000,188.400 186.136,188.400 187.176 M188.400 189.600 C 188.400 190.047,186.419 190.355,186.167 189.946 C 185.776 189.314,186.367 188.905,187.390 189.100 C 187.946 189.206,188.400 189.431,188.400 189.600 M144.802 194.459 C 143.531 195.730,143.399 197.127,144.448 198.200 C 144.683 198.441,149.077 198.647,155.478 198.719 L 166.117 198.838 167.258 197.744 C 168.694 196.369,168.690 195.828,167.231 194.369 L 166.062 193.200 156.062 193.200 L 146.062 193.200 144.802 194.459 M177.680 193.680 C 176.826 194.534,177.166 195.158,178.741 195.630 C 180.461 196.145,182.000 195.648,182.000 194.576 C 182.000 193.436,178.624 192.736,177.680 193.680 M190.480 193.680 C 189.420 194.740,191.386 197.200,193.293 197.200 C 195.186 197.200,196.366 194.926,195.120 193.680 C 194.498 193.058,191.102 193.058,190.480 193.680 M166.961 194.759 C 168.177 196.029,167.989 197.150,166.417 197.991 C 164.799 198.857,145.712 198.512,144.800 197.600 C 143.744 196.544,143.790 196.063,145.075 194.722 L 146.150 193.600 156.000 193.600 L 165.850 193.600 166.961 194.759 M180.800 194.014 C 181.325 194.365,181.312 194.483,180.700 194.952 C 179.956 195.522,178.154 195.373,177.743 194.708 C 177.181 193.799,179.644 193.240,180.800 194.014 M195.000 194.956 C 195.000 197.113,192.286 197.419,190.971 195.411 C 190.047 194.001,190.567 193.543,192.936 193.680 C 194.918 193.795,195.000 193.846,195.000 194.956 M227.627 198.000 C 225.679 198.691,225.100 199.500,225.275 201.282 C 225.438 202.938,226.158 203.120,233.858 203.456 L 239.916 203.721 240.982 202.655 C 242.439 201.197,242.312 198.850,240.735 198.098 C 239.100 197.318,229.747 197.248,227.627 198.000 M240.574 198.390 C 241.911 198.898,241.993 200.930,240.730 202.274 C 239.498 203.586,228.356 203.256,226.065 201.840 C 224.855 201.092,225.719 198.930,227.434 198.417 C 229.049 197.934,239.319 197.913,240.574 198.390 M249.000 198.587 C 248.780 198.654,247.520 198.940,246.200 199.222 C 242.873 199.932,241.682 201.522,243.280 203.120 C 243.856 203.696,250.276 203.779,251.723 203.229 C 254.569 202.147,251.947 197.677,249.000 198.587 M251.620 199.810 C 254.749 201.428,252.342 203.263,247.286 203.114 L 243.400 203.000 243.274 201.697 C 243.121 200.100,243.808 199.847,249.920 199.251 C 250.206 199.223,250.971 199.475,251.620 199.810 M137.532 200.639 C 137.023 201.148,136.721 201.186,136.047 200.825 C 135.418 200.488,134.983 200.488,134.357 200.823 C 133.747 201.149,133.393 201.153,133.077 200.837 C 132.489 200.249,127.102 200.279,125.789 200.878 C 125.047 201.216,124.545 201.233,124.070 200.938 C 122.603 200.023,117.317 200.362,116.627 201.415 C 115.967 202.423,117.010 203.612,118.012 202.992 C 118.230 202.858,120.251 202.765,122.504 202.786 C 124.757 202.807,134.207 202.863,143.505 202.912 L 160.410 203.000 161.305 204.062 C 162.359 205.313,166.940 205.875,169.045 205.011 C 170.096 204.579,170.295 204.639,171.260 205.668 C 173.305 207.850,176.207 207.142,176.467 204.398 L 176.600 203.000 180.095 202.790 C 185.457 202.469,186.958 200.548,181.690 200.750 C 177.861 200.896,148.412 200.736,144.682 200.548 C 142.967 200.462,141.254 200.557,140.876 200.759 C 140.411 201.008,139.939 200.945,139.418 200.564 C 138.446 199.853,138.313 199.858,137.532 200.639 M207.696 200.732 C 207.317 200.972,207.417 201.263,208.096 201.897 L 209.000 202.741 210.076 201.811 C 211.407 200.659,209.309 199.708,207.696 200.732 M216.081 200.747 C 215.665 201.007,215.679 201.168,216.156 201.563 C 216.849 202.139,222.034 201.656,222.017 201.018 C 222.004 200.542,216.791 200.305,216.081 200.747 M175.592 201.986 C 176.258 202.408,176.205 205.061,175.514 205.900 C 174.316 207.355,170.800 205.549,170.800 203.479 C 170.800 201.966,173.989 200.973,175.592 201.986 M167.998 202.765 C 171.279 203.398,169.950 204.400,165.829 204.400 C 162.041 204.400,162.000 204.390,162.000 203.428 C 162.000 202.056,163.474 201.893,167.998 202.765 M200.400 202.357 C 200.400 202.554,200.115 202.824,199.767 202.957 C 198.873 203.300,198.800 203.273,198.800 202.600 C 198.800 202.267,199.156 202.000,199.600 202.000 C 200.040 202.000,200.400 202.161,200.400 202.357 M198.400 204.233 C 198.400 204.940,197.539 204.817,197.292 204.075 C 197.205 203.814,197.418 203.600,197.767 203.600 C 198.115 203.600,198.400 203.885,198.400 204.233 M305.383 204.347 C 305.704 205.356,304.960 207.200,304.233 207.200 C 302.588 207.200,299.905 204.628,300.710 203.823 C 301.341 203.193,305.152 203.620,305.383 204.347 M183.800 205.600 C 183.664 205.820,183.293 206.000,182.976 206.000 C 182.659 206.000,182.400 205.820,182.400 205.600 C 182.400 205.380,182.771 205.200,183.224 205.200 C 183.677 205.200,183.936 205.380,183.800 205.600 M227.000 205.600 C 227.136 205.820,226.877 206.000,226.424 206.000 C 225.971 206.000,225.600 205.820,225.600 205.600 C 225.600 205.380,225.859 205.200,226.176 205.200 C 226.493 205.200,226.864 205.380,227.000 205.600 M241.324 206.784 C 241.502 206.793,241.545 206.965,241.421 207.167 C 241.170 207.571,237.835 207.690,236.647 207.337 C 235.271 206.927,236.819 206.446,238.978 206.612 C 240.090 206.698,241.146 206.775,241.324 206.784 M249.300 206.821 C 250.644 207.194,250.806 207.381,250.860 208.619 C 250.893 209.378,250.938 210.225,250.960 210.500 C 250.982 210.775,250.730 211.000,250.400 211.000 C 249.967 211.000,249.800 210.556,249.800 209.400 C 249.800 207.804,249.796 207.800,248.100 207.677 C 246.451 207.558,245.880 207.076,246.900 206.665 C 247.639 206.367,247.673 206.369,249.300 206.821 M177.300 207.763 C 175.306 209.866,177.270 211.883,179.500 210.023 C 180.702 209.020,179.964 206.870,178.400 206.820 C 178.290 206.817,177.795 207.241,177.300 207.763 M226.519 207.241 C 226.202 207.558,225.868 207.561,225.339 207.254 C 224.691 206.877,224.746 206.823,225.780 206.812 C 226.641 206.803,226.840 206.920,226.519 207.241 M115.064 208.193 C 114.416 208.841,114.585 210.124,115.409 210.807 C 115.800 211.132,116.141 211.015,116.765 210.345 C 117.805 209.229,117.823 208.548,116.826 208.014 C 115.831 207.481,115.770 207.488,115.064 208.193 M134.544 208.201 C 134.035 209.529,134.755 210.800,136.018 210.800 C 137.425 210.800,138.387 209.148,137.560 208.151 C 136.943 207.409,134.835 207.443,134.544 208.201 M151.051 208.206 C 150.304 208.953,150.713 210.111,151.959 210.778 C 152.923 211.294,154.119 210.055,153.932 208.733 C 153.768 207.572,152.007 207.250,151.051 208.206 M249.240 208.469 C 249.371 208.679,249.401 209.262,249.305 209.763 C 249.206 210.281,249.417 210.960,249.793 211.336 C 251.087 212.630,250.427 213.800,248.404 213.800 C 246.725 213.800,246.594 213.722,246.402 212.612 C 246.239 211.673,245.904 211.339,244.798 211.012 C 244.029 210.786,243.173 210.453,242.896 210.274 C 242.619 210.095,242.026 210.065,241.577 210.207 C 241.126 210.351,240.487 210.239,240.147 209.956 C 239.809 209.676,238.243 209.346,236.667 209.223 C 235.090 209.100,233.800 208.820,233.800 208.600 C 233.800 207.704,248.682 207.577,249.240 208.469 M116.737 208.353 C 117.185 208.636,117.185 208.834,116.741 209.546 C 116.076 210.610,115.725 210.625,115.401 209.604 C 114.982 208.284,115.647 207.661,116.737 208.353 M137.000 209.005 C 137.000 209.525,136.688 209.844,136.098 209.928 C 135.031 210.080,134.391 208.907,135.242 208.360 C 136.110 207.802,137.000 208.129,137.000 209.005 M153.467 208.631 C 153.927 209.829,152.660 210.551,151.789 209.588 C 151.142 208.873,151.117 208.697,151.616 208.382 C 152.490 207.829,153.196 207.924,153.467 208.631 M160.400 210.542 C 158.096 211.296,158.000 211.447,158.000 214.325 C 158.000 217.183,158.829 218.500,161.501 219.886 C 164.645 221.517,168.400 218.275,168.400 213.927 C 168.400 211.295,168.182 211.071,165.033 210.460 C 162.309 209.931,162.266 209.931,160.400 210.542 M167.563 211.377 C 167.803 211.526,168.000 212.662,168.000 213.902 C 168.000 219.142,163.079 221.540,159.555 218.017 C 157.895 216.356,157.925 211.637,159.600 211.131 C 160.751 210.783,166.910 210.973,167.563 211.377 M198.000 212.800 C 198.000 213.460,197.820 214.000,197.600 214.000 C 197.155 214.000,197.048 212.285,197.467 211.867 C 197.919 211.415,198.000 211.557,198.000 212.800 M148.667 219.067 C 148.175 219.558,148.393 220.014,149.323 220.438 C 149.831 220.669,150.455 221.340,150.709 221.929 C 150.963 222.518,151.338 223.270,151.543 223.600 C 151.747 223.930,152.122 224.650,152.377 225.200 C 152.631 225.750,153.276 226.920,153.811 227.800 C 154.771 229.378,155.134 230.120,155.426 231.100 C 155.508 231.375,155.870 231.600,156.231 231.600 C 157.024 231.600,156.677 229.592,155.799 229.098 C 155.504 228.931,155.138 228.211,154.987 227.498 C 154.835 226.784,154.479 225.930,154.195 225.600 C 153.911 225.270,153.458 224.254,153.189 223.342 C 152.596 221.337,149.409 218.324,148.667 219.067 M192.275 219.858 C 192.124 220.010,192.000 220.643,192.000 221.267 C 192.000 221.890,191.640 222.760,191.200 223.200 C 190.348 224.052,190.116 226.177,190.827 226.616 C 191.428 226.988,191.601 226.713,191.874 224.950 C 192.006 224.097,192.458 223.068,192.880 222.663 C 193.342 222.218,193.597 221.517,193.523 220.894 C 193.399 219.856,192.786 219.347,192.275 219.858 M193.200 221.000 C 193.200 221.550,193.020 222.000,192.800 222.000 C 192.580 222.000,192.400 221.550,192.400 221.000 C 192.400 220.450,192.580 220.000,192.800 220.000 C 193.020 220.000,193.200 220.450,193.200 221.000 M129.750 222.186 C 130.292 222.729,130.802 223.494,130.884 223.886 C 130.996 224.430,131.353 224.574,132.383 224.489 C 134.010 224.356,136.226 226.145,135.722 227.185 C 135.558 227.523,135.419 230.050,135.412 232.800 C 135.400 237.739,135.388 237.802,134.461 237.933 C 132.139 238.262,131.546 236.777,131.637 230.872 L 131.720 225.526 130.560 224.577 C 129.922 224.056,129.175 223.622,128.900 223.614 C 128.450 223.601,128.133 221.200,128.582 221.200 C 128.682 221.200,129.207 221.644,129.750 222.186 M191.600 224.776 C 191.600 225.203,191.420 225.664,191.200 225.800 C 190.973 225.940,190.800 225.604,190.800 225.024 C 190.800 224.461,190.980 224.000,191.200 224.000 C 191.420 224.000,191.600 224.349,191.600 224.776 M141.233 226.000 C 141.435 226.000,141.600 226.180,141.600 226.400 C 141.600 226.888,139.732 226.936,139.434 226.456 C 139.125 225.955,139.668 225.541,140.312 225.788 C 140.616 225.904,141.031 226.000,141.233 226.000 M144.000 228.000 C 144.000 228.220,143.640 228.400,143.200 228.400 C 142.760 228.400,142.400 228.220,142.400 228.000 C 142.400 227.780,142.760 227.600,143.200 227.600 C 143.640 227.600,144.000 227.780,144.000 228.000 M190.000 228.800 C 190.000 229.460,189.820 230.000,189.600 230.000 C 189.380 230.000,189.200 229.460,189.200 228.800 C 189.200 228.140,189.380 227.600,189.600 227.600 C 189.820 227.600,190.000 228.140,190.000 228.800 M146.821 229.800 C 146.790 230.394,145.895 230.285,145.687 229.662 C 145.575 229.325,145.758 229.175,146.175 229.262 C 146.542 229.338,146.833 229.580,146.821 229.800 M188.400 232.000 C 188.400 232.660,188.220 233.200,188.000 233.200 C 187.780 233.200,187.600 232.660,187.600 232.000 C 187.600 231.340,187.780 230.800,188.000 230.800 C 188.220 230.800,188.400 231.340,188.400 232.000 M146.000 233.976 C 146.000 234.429,146.180 234.800,146.400 234.800 C 146.620 234.800,146.800 234.541,146.800 234.224 C 146.800 233.907,146.620 233.536,146.400 233.400 C 146.180 233.264,146.000 233.523,146.000 233.976 M186.800 235.200 C 186.800 235.860,186.620 236.400,186.400 236.400 C 186.180 236.400,186.000 235.860,186.000 235.200 C 186.000 234.540,186.180 234.000,186.400 234.000 C 186.620 234.000,186.800 234.540,186.800 235.200 " stroke="none" fill="#747474" fill-rule="evenodd"></path><path id="path3" d="M185.485 185.448 C 185.328 185.605,185.200 186.333,185.200 187.067 L 185.200 188.400 181.254 188.400 C 177.914 188.400,177.152 188.523,176.291 189.200 C 175.603 189.741,174.668 190.000,173.400 190.000 C 172.132 190.000,171.197 190.259,170.509 190.800 C 169.522 191.577,168.886 191.600,148.760 191.600 C 128.438 191.600,128.020 191.616,127.600 192.400 C 127.303 192.954,126.762 193.200,125.840 193.200 C 125.107 193.200,124.050 193.560,123.491 194.000 C 122.931 194.440,122.104 194.800,121.652 194.800 C 121.201 194.800,120.465 195.193,120.018 195.673 C 119.282 196.463,118.873 196.534,115.702 196.423 C 110.212 196.231,109.801 196.237,109.075 196.516 C 108.443 196.758,108.399 197.953,108.495 212.089 L 108.600 227.400 111.347 227.519 C 114.952 227.676,115.522 227.194,115.682 223.854 L 115.800 221.400 121.060 221.200 C 125.317 221.038,126.467 220.867,127.091 220.300 C 127.946 219.524,129.020 219.385,129.400 220.000 C 129.540 220.227,129.204 220.400,128.624 220.400 C 127.366 220.400,127.028 223.806,128.240 224.271 C 130.447 225.118,130.800 226.133,130.800 231.636 C 130.800 237.603,131.352 238.800,134.102 238.800 C 135.908 238.800,136.400 238.188,136.400 235.944 C 136.400 233.814,136.610 233.547,137.900 234.034 C 138.586 234.293,138.800 234.692,138.800 235.711 C 138.800 238.184,139.360 238.489,142.893 237.940 C 145.647 237.512,146.062 237.532,146.722 238.130 C 148.426 239.671,152.400 238.824,152.400 236.920 C 152.400 235.592,153.058 235.788,153.340 237.200 C 153.760 239.299,155.600 238.621,155.600 236.367 C 155.600 235.193,160.772 235.222,161.507 236.400 C 161.906 237.038,162.440 237.200,164.149 237.200 C 165.686 237.200,166.580 237.426,167.309 238.000 C 168.010 238.551,168.932 238.800,170.274 238.800 C 171.727 238.800,172.396 239.003,172.907 239.600 C 174.851 241.871,186.000 240.233,186.000 237.677 C 186.000 237.466,186.360 237.199,186.800 237.084 C 187.406 236.925,187.600 236.538,187.600 235.484 C 187.600 234.430,187.794 234.043,188.400 233.884 C 189.006 233.725,189.200 233.338,189.200 232.284 C 189.200 231.230,189.394 230.843,190.000 230.684 C 190.599 230.527,190.800 230.138,190.800 229.134 C 190.800 228.226,191.058 227.631,191.600 227.293 C 192.065 227.003,192.400 226.360,192.400 225.760 C 192.400 225.191,192.760 224.269,193.200 223.709 C 193.687 223.091,194.000 222.086,194.000 221.146 C 194.000 220.024,194.168 219.600,194.613 219.600 C 194.949 219.600,195.336 219.312,195.471 218.960 C 195.952 217.706,197.635 216.400,198.769 216.400 C 199.452 216.400,200.120 216.082,200.451 215.601 C 200.989 214.818,201.514 214.799,225.995 214.701 L 250.989 214.600 251.527 213.478 C 251.947 212.601,252.183 212.454,252.604 212.804 C 253.605 213.634,256.182 213.127,256.332 212.071 C 256.427 211.397,256.229 211.080,255.612 210.919 C 254.874 210.726,254.776 210.449,254.880 208.848 L 255.000 207.000 272.047 206.896 C 286.852 206.805,289.161 206.871,289.596 207.396 C 290.129 208.038,292.609 208.232,292.963 207.660 C 293.483 206.818,300.519 206.808,301.877 207.648 C 304.615 209.340,307.872 206.747,306.370 204.071 L 305.769 203.000 280.385 202.800 L 255.000 202.600 254.878 200.926 C 254.780 199.572,254.914 199.167,255.578 198.812 C 256.030 198.570,256.400 198.182,256.400 197.950 C 256.400 197.718,256.799 197.205,257.287 196.810 C 258.334 195.962,257.738 194.803,256.251 194.796 C 255.763 194.794,254.802 194.112,254.000 193.200 L 252.600 191.608 236.200 191.575 C 227.180 191.557,218.810 191.371,217.600 191.163 C 210.559 189.951,207.115 189.818,206.375 190.731 C 205.357 191.989,199.465 192.043,198.800 190.800 C 198.421 190.092,197.962 190.000,194.804 190.000 C 190.725 190.000,189.367 189.213,189.126 186.708 C 189.001 185.411,186.417 184.517,185.485 185.448 M188.733 186.963 C 189.010 189.398,190.708 190.400,194.555 190.400 C 197.562 190.400,198.023 190.496,198.400 191.200 C 199.059 192.432,205.335 192.389,206.660 191.144 L 207.571 190.287 211.486 191.010 C 214.790 191.620,218.266 191.759,233.791 191.899 L 252.182 192.064 253.592 193.591 C 254.367 194.431,255.437 195.182,255.970 195.259 C 257.415 195.470,257.374 196.098,255.810 197.709 C 254.408 199.152,253.756 202.355,254.740 202.963 C 254.928 203.079,266.313 203.196,280.040 203.223 C 306.330 203.274,306.000 203.250,306.000 205.160 C 306.000 207.912,304.340 208.371,301.231 206.479 C 300.205 205.854,299.677 205.745,299.119 206.043 C 298.710 206.262,297.218 206.404,295.804 206.358 C 294.197 206.306,293.003 206.466,292.620 206.783 C 292.208 207.126,291.581 207.190,290.704 206.980 C 289.987 206.809,281.612 206.605,272.093 206.526 L 254.787 206.383 254.393 207.418 C 253.677 209.302,253.904 210.628,255.031 211.142 C 255.599 211.400,255.990 211.834,255.901 212.106 C 255.646 212.883,253.616 212.938,252.790 212.191 C 251.956 211.436,251.200 211.699,251.200 212.744 C 251.200 214.271,247.335 215.175,246.097 213.937 C 245.746 213.586,245.494 213.590,245.058 213.952 C 244.626 214.311,239.038 214.414,222.554 214.370 C 200.647 214.310,200.624 214.311,200.063 215.155 C 199.731 215.656,199.074 216.002,198.451 216.004 C 197.730 216.007,196.961 216.507,196.000 217.600 C 193.784 220.121,192.400 218.834,194.481 216.188 L 195.362 215.067 193.392 213.334 L 191.422 211.600 187.811 211.613 C 183.809 211.627,183.055 211.950,182.359 213.945 C 181.808 215.525,181.394 215.533,180.851 213.974 C 180.476 212.897,180.263 212.763,179.112 212.874 L 177.800 213.000 177.680 215.783 C 177.573 218.257,177.657 218.640,178.437 219.228 C 179.487 220.020,179.144 220.800,177.746 220.800 C 176.530 220.800,174.400 222.804,174.400 223.948 C 174.400 224.976,172.550 228.484,171.781 228.914 C 171.462 229.093,171.200 229.653,171.200 230.158 C 171.200 230.663,170.840 231.402,170.400 231.800 C 168.384 233.624,170.700 236.800,174.047 236.800 C 175.072 236.800,176.031 237.066,176.483 237.476 C 177.699 238.576,181.805 238.712,182.362 237.671 C 182.637 237.158,183.288 236.804,184.101 236.725 C 185.248 236.615,185.423 236.437,185.600 235.205 C 185.730 234.295,186.044 233.762,186.500 233.675 C 187.596 233.466,187.499 236.397,186.400 236.684 C 185.960 236.799,185.600 237.066,185.600 237.277 C 185.600 239.838,175.814 241.342,173.091 239.200 C 172.442 238.689,171.468 238.400,170.400 238.400 C 169.332 238.400,168.358 238.111,167.709 237.600 C 167.024 237.061,166.086 236.800,164.835 236.800 C 163.710 236.800,162.588 236.524,161.989 236.100 C 161.431 235.705,159.607 235.223,157.800 234.993 L 154.600 234.586 154.740 236.293 C 154.827 237.353,154.714 238.000,154.440 238.000 C 154.198 238.000,154.000 237.718,154.000 237.374 C 154.000 237.029,153.807 236.388,153.572 235.948 C 153.064 234.998,152.000 235.598,152.000 236.835 C 152.000 238.156,148.093 239.122,147.385 237.975 C 146.859 237.125,145.263 236.870,142.564 237.204 C 139.495 237.585,139.216 237.428,139.206 235.310 C 139.201 234.276,138.955 233.894,137.963 233.381 C 136.389 232.567,136.242 232.742,136.000 235.733 C 135.802 238.173,135.786 238.201,134.507 238.325 C 131.810 238.585,131.201 237.263,131.191 231.118 L 131.181 225.800 129.591 224.623 C 128.408 223.748,128.000 223.165,128.000 222.347 C 128.000 220.527,128.822 220.522,130.428 222.331 C 131.645 223.703,132.164 224.000,133.340 224.000 C 134.346 224.000,134.895 224.230,135.186 224.773 C 135.770 225.864,137.034 226.161,138.054 225.447 C 138.907 224.850,138.899 224.835,137.358 224.132 C 136.501 223.742,135.170 222.949,134.400 222.370 C 133.014 221.329,131.724 220.575,129.400 219.446 C 128.740 219.125,127.660 218.337,127.000 217.694 C 126.276 216.988,125.183 216.427,124.243 216.278 C 123.386 216.143,122.294 215.665,121.817 215.216 C 121.339 214.767,120.471 214.400,119.888 214.400 C 119.228 214.400,118.662 214.090,118.387 213.577 C 117.351 211.640,115.400 212.700,115.400 215.200 L 115.400 217.400 118.200 217.509 C 120.450 217.597,121.135 217.779,121.689 218.440 C 122.169 219.013,122.632 219.180,123.218 218.994 C 124.112 218.711,126.400 219.463,126.400 220.041 C 126.400 220.595,124.895 220.797,120.000 220.902 L 115.400 221.000 115.198 223.533 C 114.945 226.716,114.313 227.282,111.200 227.117 L 109.000 227.000 108.895 212.225 C 108.828 202.843,108.935 197.305,109.187 197.053 C 109.661 196.579,114.611 196.655,115.496 197.150 C 116.245 197.569,119.542 196.766,120.858 195.844 C 121.364 195.490,122.074 195.200,122.435 195.200 C 122.796 195.200,123.550 194.840,124.109 194.400 C 124.669 193.960,125.676 193.600,126.349 193.600 C 127.162 193.600,127.715 193.332,128.000 192.800 C 128.420 192.016,128.838 192.000,149.160 192.000 C 169.286 192.000,169.922 191.977,170.909 191.200 C 171.574 190.677,172.532 190.400,173.674 190.400 C 174.695 190.400,175.833 190.109,176.411 189.700 C 177.133 189.189,178.481 188.946,181.400 188.800 C 185.306 188.605,185.403 188.577,185.520 187.600 C 185.739 185.766,185.944 185.544,187.297 185.674 C 188.403 185.781,188.620 185.976,188.733 186.963 M186.000 189.600 C 186.000 189.820,186.439 190.000,186.976 190.000 C 187.513 190.000,188.064 189.820,188.200 189.600 C 188.344 189.367,187.937 189.200,187.224 189.200 C 186.551 189.200,186.000 189.380,186.000 189.600 M145.061 194.737 C 144.148 195.689,144.034 196.037,144.355 196.882 C 144.899 198.313,145.494 198.388,156.225 198.395 L 165.850 198.400 167.000 197.200 L 168.150 196.000 167.000 194.800 L 165.850 193.600 156.000 193.600 L 146.150 193.600 145.061 194.737 M190.574 194.042 C 190.064 194.867,192.593 196.939,193.755 196.647 C 194.802 196.384,195.533 194.862,195.014 194.023 C 194.667 193.461,190.923 193.478,190.574 194.042 M166.594 195.031 L 167.625 196.061 166.712 197.024 L 165.800 197.986 155.970 197.993 L 146.139 198.000 145.240 197.043 L 144.341 196.086 145.271 195.085 L 146.200 194.084 155.882 194.042 L 165.564 194.000 166.594 195.031 M178.000 194.413 C 178.000 194.639,178.270 194.929,178.601 195.056 C 179.437 195.377,181.285 194.861,180.993 194.388 C 180.671 193.868,178.000 193.889,178.000 194.413 M194.578 194.364 C 194.941 194.952,194.388 195.950,193.551 196.215 C 192.740 196.473,190.687 194.906,191.055 194.310 C 191.324 193.876,194.304 193.921,194.578 194.364 M227.709 198.438 C 224.858 199.278,225.000 201.818,227.920 202.208 C 228.954 202.346,230.778 202.626,231.973 202.829 C 236.222 203.554,239.515 203.321,240.618 202.218 C 241.653 201.183,241.961 199.070,241.150 198.569 C 240.436 198.128,229.137 198.018,227.709 198.438 M241.200 199.874 C 241.200 202.487,237.295 203.690,233.197 202.340 C 232.429 202.086,230.554 201.771,229.031 201.640 C 226.009 201.378,225.488 200.912,226.775 199.625 C 227.544 198.856,228.065 198.800,234.400 198.800 L 241.200 198.800 241.200 199.874 M246.600 199.750 L 243.400 200.200 243.400 201.600 L 243.400 203.000 247.481 203.000 C 251.656 203.000,252.114 202.849,252.575 201.321 C 252.827 200.487,251.165 199.086,250.120 199.250 C 249.944 199.278,248.360 199.503,246.600 199.750 M252.353 200.620 C 252.454 200.721,252.108 201.259,251.585 201.816 C 250.141 203.353,243.800 203.177,243.800 201.600 C 243.800 200.332,251.215 199.482,252.353 200.620 M171.900 202.229 C 170.529 202.973,170.486 204.123,171.782 205.418 C 173.768 207.404,176.000 206.530,176.000 203.767 C 176.000 201.565,174.299 200.927,171.900 202.229 M174.970 202.767 C 176.515 204.474,174.881 206.698,172.899 205.586 C 171.470 204.784,171.312 203.767,172.469 202.803 C 173.649 201.819,174.107 201.813,174.970 202.767 M162.700 202.832 C 160.862 203.903,161.903 204.435,165.603 204.316 C 168.713 204.216,170.721 203.479,168.200 203.363 C 167.760 203.343,166.680 203.119,165.800 202.865 C 163.874 202.310,163.601 202.307,162.700 202.832 M215.912 205.561 C 215.456 206.213,214.667 206.358,210.404 206.576 C 207.622 206.717,205.314 207.015,205.168 207.252 C 205.024 207.484,203.809 207.804,202.468 207.962 C 199.884 208.267,198.400 209.179,198.400 210.462 C 198.400 211.458,199.621 211.407,199.884 210.400 C 200.061 209.725,200.430 209.600,202.251 209.600 C 203.892 209.600,204.567 209.414,205.073 208.823 C 205.585 208.226,205.911 208.138,206.484 208.445 C 206.895 208.665,207.567 208.737,207.979 208.607 C 210.814 207.707,220.833 207.780,222.575 208.713 C 223.432 209.172,224.793 209.367,227.100 209.361 C 229.934 209.354,230.400 209.448,230.400 210.029 C 230.400 210.602,231.041 210.748,234.641 210.994 C 238.015 211.223,239.038 211.438,239.641 212.041 C 240.578 212.978,245.600 213.176,245.600 212.276 C 245.600 211.696,241.869 210.587,241.235 210.978 C 241.018 211.113,240.158 210.858,239.326 210.411 C 238.312 209.868,237.058 209.600,235.530 209.600 C 234.274 209.600,233.140 209.426,233.008 209.213 C 232.877 209.000,232.250 208.930,231.615 209.057 C 230.578 209.264,230.448 209.172,230.331 208.144 C 230.174 206.770,228.883 206.416,227.517 207.373 C 226.380 208.169,224.051 208.198,223.752 207.419 C 223.629 207.100,222.746 206.721,221.789 206.577 C 220.832 206.434,219.740 205.975,219.362 205.558 C 218.473 204.576,216.601 204.577,215.912 205.561 M218.800 206.400 C 218.800 206.844,218.533 207.200,218.200 207.200 C 217.867 207.200,217.600 206.844,217.600 206.400 C 217.600 205.956,217.867 205.600,218.200 205.600 C 218.533 205.600,218.800 205.956,218.800 206.400 M236.900 207.232 C 237.375 207.509,237.825 207.509,238.300 207.232 C 238.871 206.899,238.742 206.824,237.600 206.824 C 236.458 206.824,236.329 206.899,236.900 207.232 M246.800 207.200 C 246.800 207.669,247.107 207.669,248.200 207.200 C 248.909 206.895,248.875 206.853,247.900 206.828 C 247.295 206.813,246.800 206.980,246.800 207.200 M250.006 208.876 C 250.003 209.908,250.180 210.864,250.400 211.000 C 250.920 211.321,250.920 208.404,250.400 207.600 C 250.119 207.165,250.011 207.517,250.006 208.876 M115.334 208.627 C 115.001 209.496,115.847 210.313,116.453 209.707 C 116.965 209.195,116.648 208.000,116.000 208.000 C 115.766 208.000,115.467 208.282,115.334 208.627 M151.746 208.597 C 151.607 208.958,151.686 209.446,151.920 209.680 C 152.529 210.289,153.684 209.732,153.525 208.906 C 153.348 207.985,152.066 207.763,151.746 208.597 M134.998 208.803 C 134.735 209.229,136.386 210.032,136.900 209.729 C 137.065 209.632,137.200 209.293,137.200 208.976 C 137.200 208.316,135.387 208.174,134.998 208.803 M204.400 208.800 C 204.400 209.020,203.489 209.200,202.376 209.200 C 201.129 209.200,200.448 209.047,200.600 208.800 C 200.736 208.580,201.647 208.400,202.624 208.400 C 203.601 208.400,204.400 208.580,204.400 208.800 M228.000 208.800 C 227.212 209.309,225.600 209.309,225.600 208.800 C 225.600 208.580,226.275 208.403,227.100 208.406 C 228.216 208.411,228.446 208.512,228.000 208.800 M238.000 210.400 C 238.000 210.620,237.359 210.800,236.576 210.800 C 235.729 210.800,235.253 210.638,235.400 210.400 C 235.536 210.180,236.177 210.000,236.824 210.000 C 237.471 210.000,238.000 210.180,238.000 210.400 M159.800 211.125 C 157.927 211.562,157.762 216.223,159.555 218.017 C 163.094 221.556,168.000 219.020,168.000 213.652 C 168.000 212.550,167.848 211.553,167.662 211.438 C 167.071 211.073,161.050 210.834,159.800 211.125 M167.523 213.490 C 167.870 218.278,163.132 220.793,159.884 217.546 C 158.872 216.533,158.771 216.191,158.880 214.110 L 159.000 211.800 160.800 211.600 C 161.790 211.490,163.680 211.490,165.000 211.600 L 167.400 211.800 167.523 213.490 M242.446 212.062 C 241.523 212.327,240.955 212.315,240.666 212.026 C 240.365 211.725,240.762 211.611,242.020 211.636 L 243.800 211.672 242.446 212.062 M191.614 212.617 C 191.880 212.938,192.248 213.200,192.431 213.200 C 193.594 213.200,194.846 215.292,194.026 215.867 C 193.538 216.209,193.200 216.887,193.200 217.526 C 193.200 218.174,192.879 218.808,192.400 219.107 C 191.913 219.411,191.600 220.040,191.600 220.714 C 191.600 221.327,191.243 222.128,190.800 222.507 C 190.344 222.897,190.000 223.687,190.000 224.342 C 190.000 224.975,189.640 225.950,189.200 226.509 C 188.760 227.069,188.400 227.986,188.400 228.549 C 188.400 229.162,188.080 229.743,187.600 230.000 C 187.045 230.297,186.800 230.838,186.800 231.767 C 186.800 232.754,186.597 233.160,186.029 233.308 C 185.498 233.447,185.217 233.929,185.129 234.855 C 185.020 235.991,184.827 236.220,183.886 236.328 C 183.273 236.398,182.555 236.803,182.290 237.228 C 181.617 238.305,178.693 238.288,177.309 237.200 C 176.604 236.645,175.686 236.400,174.315 236.400 C 171.162 236.400,168.711 233.397,170.800 232.093 C 171.245 231.815,171.600 231.160,171.600 230.616 C 171.600 230.079,171.862 229.493,172.181 229.314 C 172.984 228.865,174.800 225.356,174.800 224.254 C 174.800 223.047,176.708 221.294,178.200 221.131 C 179.713 220.966,180.096 219.494,178.806 218.803 C 177.420 218.062,177.770 213.450,179.225 213.281 C 180.113 213.177,180.299 213.363,180.625 214.681 C 181.110 216.644,182.045 216.660,182.591 214.714 C 182.820 213.897,183.325 212.997,183.713 212.714 C 184.769 211.945,190.992 211.868,191.614 212.617 M197.467 212.267 C 197.052 212.682,197.153 214.000,197.600 214.000 C 197.820 214.000,198.000 213.550,198.000 213.000 C 198.000 211.953,197.908 211.826,197.467 212.267 M118.000 214.000 C 118.292 214.546,118.838 214.800,119.718 214.800 C 120.574 214.800,121.175 215.069,121.507 215.600 C 121.782 216.040,122.265 216.400,122.580 216.400 C 123.334 216.400,123.662 216.974,123.359 217.764 C 123.053 218.560,122.159 218.592,121.862 217.818 C 121.701 217.398,120.824 217.203,118.719 217.118 L 115.800 217.000 115.672 215.662 C 115.441 213.251,117.003 212.137,118.000 214.000 M127.193 218.831 C 127.197 218.958,126.660 218.982,126.000 218.885 C 124.866 218.719,124.368 217.766,125.055 217.078 C 125.303 216.830,127.179 218.368,127.193 218.831 M193.600 220.962 C 193.600 221.768,193.291 222.556,192.800 223.000 C 192.360 223.398,192.000 224.131,192.000 224.629 C 192.000 225.951,191.592 226.800,190.957 226.800 C 190.572 226.800,190.400 227.304,190.400 228.437 C 190.400 229.723,190.233 230.119,189.622 230.278 C 189.063 230.424,188.809 230.893,188.722 231.938 C 188.637 232.946,188.385 233.434,187.900 233.526 C 186.804 233.734,186.901 230.803,188.000 230.516 C 188.601 230.359,188.800 229.970,188.800 228.957 C 188.800 228.040,189.057 227.446,189.600 227.107 C 190.170 226.751,190.400 226.174,190.400 225.100 C 190.400 224.087,190.663 223.367,191.200 222.907 C 191.640 222.530,192.000 221.758,192.000 221.191 C 192.000 220.086,192.713 219.099,193.264 219.440 C 193.449 219.554,193.600 220.239,193.600 220.962 M132.916 222.059 C 133.309 222.467,133.815 222.800,134.039 222.800 C 134.264 222.800,134.336 222.980,134.200 223.200 C 133.801 223.846,131.600 223.689,131.600 223.014 C 131.600 222.692,131.235 222.233,130.789 221.994 C 130.343 221.755,130.073 221.406,130.189 221.217 C 130.500 220.715,132.091 221.206,132.916 222.059 M137.600 224.800 C 137.600 225.020,137.341 225.200,137.024 225.200 C 136.707 225.200,136.336 225.020,136.200 224.800 C 136.064 224.580,136.323 224.400,136.776 224.400 C 137.229 224.400,137.600 224.580,137.600 224.800 M139.600 226.400 C 139.600 226.620,140.061 226.800,140.624 226.800 C 141.204 226.800,141.540 226.627,141.400 226.400 C 141.264 226.180,140.803 226.000,140.376 226.000 C 139.949 226.000,139.600 226.180,139.600 226.400 " stroke="none" fill="#8c8c8c" fill-rule="evenodd"></path><path id="path4" d="M165.800 202.821 C 167.217 203.315,169.698 203.536,169.286 203.131 C 169.129 202.976,168.010 202.749,166.800 202.626 C 164.941 202.438,164.786 202.468,165.800 202.821 M206.505 206.687 C 207.114 206.779,208.014 206.777,208.505 206.682 C 208.997 206.587,208.500 206.511,207.400 206.514 C 206.300 206.517,205.897 206.595,206.505 206.687 M227.549 207.100 C 227.072 207.709,227.078 207.740,227.600 207.343 C 227.930 207.092,228.560 206.798,229.000 206.689 C 229.760 206.503,229.757 206.490,228.949 206.446 C 228.481 206.421,227.851 206.715,227.549 207.100 M238.416 207.182 C 237.993 207.449,238.194 207.541,239.140 207.514 C 239.998 207.490,240.268 207.363,239.924 207.145 C 239.263 206.726,239.132 206.729,238.416 207.182 M248.201 207.168 C 247.518 207.435,247.591 207.508,248.701 207.671 C 249.609 207.804,250.000 207.702,250.000 207.331 C 250.000 206.745,249.419 206.693,248.201 207.168 M215.300 207.876 C 215.685 207.976,216.315 207.976,216.700 207.876 C 217.085 207.775,216.770 207.693,216.000 207.693 C 215.230 207.693,214.915 207.775,215.300 207.876 M230.446 208.300 C 230.411 208.992,230.145 209.211,229.300 209.246 C 228.457 209.282,228.387 209.339,229.000 209.493 C 229.440 209.603,229.932 209.897,230.094 210.146 C 230.280 210.434,230.390 210.344,230.394 209.900 C 230.398 209.457,230.730 209.183,231.300 209.154 C 231.938 209.121,232.003 209.055,231.525 208.929 C 231.153 208.831,230.769 208.447,230.671 208.075 C 230.545 207.597,230.479 207.662,230.446 208.300 M108.920 211.600 C 108.920 212.810,108.995 213.305,109.087 212.700 C 109.178 212.095,109.178 211.105,109.087 210.500 C 108.995 209.895,108.920 210.390,108.920 211.600 M189.300 211.476 C 189.685 211.576,190.315 211.576,190.700 211.476 C 191.085 211.375,190.770 211.293,190.000 211.293 C 189.230 211.293,188.915 211.375,189.300 211.476 M154.206 234.390 C 153.891 234.900,154.546 235.204,155.153 234.829 C 155.554 234.581,155.531 234.459,155.046 234.273 C 154.705 234.142,154.327 234.195,154.206 234.390 " stroke="none" fill="#7c7c7c" fill-rule="evenodd"></path></g></svg>