<?xml version="1.0" encoding="UTF-8" standalone="no"?>
<svg
   xmlns:dc="http://purl.org/dc/elements/1.1/"
   xmlns:cc="http://creativecommons.org/ns#"
   xmlns:rdf="http://www.w3.org/1999/02/22-rdf-syntax-ns#"
   xmlns:svg="http://www.w3.org/2000/svg"
   xmlns="http://www.w3.org/2000/svg"
   xmlns:sodipodi="http://sodipodi.sourceforge.net/DTD/sodipodi-0.dtd"
   xmlns:inkscape="http://www.inkscape.org/namespaces/inkscape"
   id="svg"
   version="1.1"
   width="400"
   height="400"
   viewBox="0, 0, 400,400"
   sodipodi:docname="shotgun.svg"
   inkscape:version="0.92.4 (5da689c313, 2019-01-14)">
  <metadata
     id="metadata234">
    <rdf:RDF>
      <cc:Work
         rdf:about="">
        <dc:format>image/svg+xml</dc:format>
        <dc:type
           rdf:resource="http://purl.org/dc/dcmitype/StillImage" />
      </cc:Work>
    </rdf:RDF>
  </metadata>
  <defs
     id="defs232" />
  <sodipodi:namedview
     pagecolor="#ffffff"
     bordercolor="#666666"
     borderopacity="1"
     objecttolerance="10"
     gridtolerance="10"
     guidetolerance="10"
     inkscape:pageopacity="0"
     inkscape:pageshadow="2"
     inkscape:window-width="640"
     inkscape:window-height="480"
     id="namedview230"
     showgrid="false"
     inkscape:zoom="0.59"
     inkscape:cx="200"
     inkscape:cy="200"
     inkscape:window-x="0"
     inkscape:window-y="0"
     inkscape:window-maximized="0"
     inkscape:current-layer="svg" />
  <g
     id="svgg">
    <path
       id="path0"
       d="m -411.86441,196.61017 v 200 h 200 200.000003 v -200 -200.0000005 h -200.000003 -200 V 196.61017 m 159.125,6.811 1.325,0.808 1.029,-0.81 c 1.414,-1.112 5.15,-1.117 7.217,-0.009 0.991,0.532 2.256,0.8 3.77,0.8 2.058,0 2.291,0.087 2.406,0.9 0.165,1.164 1.758,1.467 2.097,0.399 0.347,-1.095 3.183,-2.26 4.189,-1.721 0.434,0.232 1.52,0.422 2.412,0.422 1.19,0 1.757,0.214 2.123,0.8 0.724,1.16 21.146,1.251 22.417,0.1 0.725,-0.656 3.46,-0.708 43.191,-0.829 l 42.417,-0.128 0.695,-0.859 c 0.856,-1.056 1.868,-0.446 2.063,1.245 0.092,0.796 0.381,1.107 1.124,1.209 1.9,0.263 2,0.596 2,6.695 0,5.371 -0.055,5.787 -0.868,6.545 -0.815,0.759 -0.827,0.853 -0.2,1.547 0.861,0.951 0.906,4.18 0.068,4.875 -0.33,0.274 -0.6,0.712 -0.6,0.974 0,1.793 -2.126,2.626 -6.702,2.626 -3.692,0 -4.52,0.111 -4.821,0.647 -0.284,0.509 -0.739,0.595 -2.119,0.402 -0.967,-0.136 -2.252,-0.245 -2.856,-0.242 -0.604,0.003 -1.751,-0.267 -2.549,-0.601 -0.798,-0.333 -1.519,-0.606 -1.602,-0.606 -0.083,0 -0.151,0.968 -0.151,2.151 0,2.61 -0.569,3.273 -2.251,2.622 -1.523,-0.589 -6.254,-0.753 -29.349,-1.016 -20.933,-0.239 -21.898,-0.344 -19.7,-2.147 0.495,-0.406 0.9,-0.844 0.9,-0.974 0,-0.13 -11.34,-0.236 -25.2,-0.236 h -25.2 v 1.951 c 0,1.246 -0.217,2.131 -0.6,2.449 -1.022,0.849 -1.8,-0.209 -1.8,-2.449 0,-1.901 -0.031,-1.951 -1.2,-1.951 -1.066,0 -1.2,0.134 -1.2,1.197 0,0.763 -0.29,1.377 -0.8,1.696 -0.908,0.567 -1.125,2.707 -0.275,2.707 0.289,0 1.049,0.547 1.689,1.215 1.578,1.647 1.041,2.537 -1.635,2.71 -1.366,0.088 -2.099,0.354 -2.482,0.9 -0.298,0.426 -0.789,0.775 -1.091,0.775 -0.423,0 -0.498,0.486 -0.328,2.135 l 0.221,2.136 -2.067,1.764 c -1.849,1.579 -2.044,1.895 -1.844,2.998 0.168,0.93 0.018,1.418 -0.611,1.987 -0.654,0.592 -0.779,1.041 -0.584,2.085 0.578,3.081 -3.995,4.444 -6.358,1.895 -0.51,-0.55 -1.122,-1 -1.36,-1 -0.239,0 -0.919,0.45 -1.513,1 -1.114,1.032 -2.886,1.316 -3.621,0.581 -0.564,-0.564 -0.188,-4.414 0.508,-5.212 0.303,-0.348 0.551,-1.381 0.551,-2.297 0,-1.232 0.208,-1.795 0.8,-2.165 0.523,-0.326 0.8,-0.933 0.8,-1.749 0,-0.688 0.36,-1.708 0.8,-2.267 0.44,-0.56 0.8,-1.276 0.8,-1.592 0,-0.316 0.36,-0.901 0.8,-1.299 0.44,-0.398 0.8,-1.018 0.8,-1.378 0,-0.36 0.72,-1.317 1.6,-2.126 2.395,-2.202 2.322,-4.304 -0.231,-6.597 l -1.83,-1.645 -6.403,-0.127 c -5.544,-0.11 -6.471,-0.221 -6.913,-0.827 -0.79,-1.082 -6.545,-1.009 -7.823,0.1 -0.717,0.622 -1.497,0.8 -3.498,0.8 -1.97,0 -2.815,0.188 -3.593,0.8 -0.764,0.601 -1.625,0.801 -3.463,0.803 -1.768,0.002 -2.779,0.223 -3.646,0.797 -0.888,0.588 -1.878,0.795 -3.811,0.797 -2.114,0.002 -2.742,0.155 -3.296,0.803 -0.557,0.65 -1.18,0.8 -3.326,0.8 -2.035,0 -2.874,0.183 -3.658,0.8 -0.749,0.589 -1.623,0.8 -3.314,0.8 -1.527,0 -2.46,0.196 -2.782,0.585 -2.899,3.492 -6.412,-3.414 -4.013,-7.889 1.05,-1.959 1.219,-14.789 0.213,-16.12 -0.866,-1.144 -0.743,-1.984 0.487,-3.329 l 1.1,-1.203 16.444,-0.031 c 14.438,-0.027 16.506,0.045 16.961,0.593 0.332,0.4 1.108,0.606 2.157,0.573 1.949,-0.062 3.999,0.525 4.867,1.393 0.631,0.631 2.294,0.81 5.921,0.639 1.699,-0.08 2.133,-0.292 3.383,-1.651 0.947,-1.031 1.78,-1.56 2.454,-1.56 0.587,0 1.233,-0.34 1.52,-0.8 0.391,-0.626 0.933,-0.8 2.487,-0.8 1.281,0 2.452,-0.283 3.296,-0.799 1.596,-0.973 1.423,-0.973 3.035,0.01 m -1.036,1.282 c -1.14,0.549 -0.94,1.307 0.344,1.307 0.698,0 1.003,-0.25 1.095,-0.9 0.141,-0.993 -0.088,-1.058 -1.439,-0.407 m -57.435,7.02 c -0.107,0.172 -0.092,1.432 0.032,2.8 l 0.225,2.487 h 1.345 1.344 v -2.8 -2.8 h -1.376 c -0.757,0 -1.464,0.141 -1.57,0.313 m 63.346,1.687 c 0,0.22 0.54,0.4 1.2,0.4 0.66,0 1.2,-0.18 1.2,-0.4 0,-0.22 -0.54,-0.4 -1.2,-0.4 -0.66,0 -1.2,0.18 -1.2,0.4 m 4,0 c 0,0.22 0.45,0.4 1,0.4 0.55,0 1,-0.18 1,-0.4 0,-0.22 -0.45,-0.4 -1,-0.4 -0.55,0 -1,0.18 -1,0.4 m 2.8,0 c 0,0.22 0.72,0.4 1.6,0.4 0.88,0 1.6,-0.18 1.6,-0.4 0,-0.22 -0.72,-0.4 -1.6,-0.4 -0.88,0 -1.6,0.18 -1.6,0.4 m 48.889,0.068 c 0.072,0.215 0.261,0.379 0.421,0.362 0.16,-0.017 2.36,-0.03 4.89,-0.03 2.764,0 4.6,-0.158 4.6,-0.395 0,-0.241 -1.958,-0.383 -5.021,-0.363 -3.089,0.021 -4.97,0.184 -4.89,0.426 m -73.618,8.184 c 0.274,1.386 1.697,1.845 2.866,0.926 1.543,-1.214 1.32,-1.578 -0.966,-1.578 -1.663,0 -2.006,0.118 -1.9,0.652 m 64.004,0.043 c 0.167,0.867 1.511,1.17 1.971,0.444 0.577,-0.911 0.402,-1.139 -0.875,-1.139 -0.953,0 -1.199,0.157 -1.096,0.695 m 79.025,1.737 c -1.627,0.947 -0.796,1.568 2.1,1.568 1.54,0 2.8,-0.152 2.8,-0.338 0,-1.333 -3.3,-2.162 -4.9,-1.23"
       inkscape:connector-curvature="0"
       style="fill:#fbfbfb;fill-rule:evenodd;stroke:none" />
    <path
       id="path1"
       d="M162.024 207.782 C 161.292 208.322,160.353 209.324,159.937 210.008 C 158.885 211.737,157.190 211.578,156.655 209.700 C 156.182 208.043,151.455 207.659,150.493 209.200 C 150.218 209.640,149.663 210.000,149.259 210.000 C 148.855 210.000,148.198 210.360,147.800 210.800 C 147.402 211.240,146.877 211.600,146.634 211.600 C 146.391 211.600,145.981 211.939,145.722 212.353 C 144.622 214.115,136.904 214.002,135.901 212.209 C 135.589 211.651,135.024 211.555,132.700 211.662 C 130.095 211.783,129.847 211.723,129.475 210.891 L 129.073 209.990 115.037 210.095 L 101.000 210.200 101.000 212.000 C 101.000 213.730,101.050 213.805,102.270 213.923 C 104.135 214.104,104.452 214.744,104.318 218.063 L 104.200 221.000 102.800 221.129 C 100.918 221.301,100.558 221.758,101.534 222.734 L 102.348 223.548 101.179 223.805 C 100.535 223.946,99.896 224.245,99.757 224.470 C 99.455 224.958,99.549 233.401,99.865 234.225 C 100.021 234.631,99.791 234.800,99.086 234.800 C 97.708 234.800,97.571 234.216,97.542 228.224 C 97.529 225.351,97.431 220.779,97.325 218.064 C 97.105 212.451,97.272 211.358,98.407 210.998 C 99.493 210.653,99.013 209.999,97.676 210.003 C 96.308 210.007,95.459 211.576,96.022 213.059 C 96.820 215.158,96.487 229.250,95.600 230.904 C 94.490 232.975,94.490 236.248,95.600 236.600 C 96.040 236.740,96.400 237.022,96.400 237.227 C 96.400 237.432,96.670 237.600,97.000 237.600 C 97.330 237.600,97.600 237.438,97.600 237.239 C 97.600 236.626,99.713 236.128,101.529 236.313 C 102.915 236.455,103.413 236.322,104.044 235.645 C 104.690 234.951,105.300 234.800,107.452 234.800 C 109.468 234.800,110.309 234.615,111.091 234.000 C 111.855 233.399,112.716 233.199,114.554 233.197 C 116.322 233.195,117.333 232.974,118.200 232.400 C 119.057 231.833,120.078 231.605,121.769 231.603 C 123.445 231.601,124.359 231.399,124.898 230.911 C 125.422 230.437,126.553 230.172,128.529 230.061 C 130.542 229.948,131.685 229.675,132.354 229.150 C 133.028 228.620,133.968 228.399,135.554 228.397 C 142.483 228.387,145.630 227.538,145.293 225.772 C 145.005 224.270,145.841 223.600,148.000 223.600 C 151.939 223.600,151.927 227.307,147.987 227.516 C 146.572 227.591,145.631 227.855,145.320 228.265 C 144.993 228.696,144.516 228.816,143.820 228.641 C 143.094 228.458,142.800 228.545,142.800 228.940 C 142.800 229.704,144.896 229.990,150.537 229.996 C 154.937 230.000,155.290 230.057,155.484 230.800 C 155.599 231.240,155.950 231.600,156.265 231.600 C 159.129 231.600,159.776 236.935,157.200 239.304 C 156.145 240.274,155.600 241.119,155.600 241.784 C 155.600 242.360,155.257 243.008,154.800 243.293 C 154.360 243.568,154.000 244.201,154.000 244.700 C 154.000 245.199,153.640 245.916,153.200 246.293 C 152.760 246.670,152.400 247.468,152.400 248.066 C 152.400 248.667,152.070 249.389,151.664 249.677 C 150.788 250.300,150.089 255.600,150.884 255.600 C 151.133 255.600,151.670 255.902,152.078 256.271 C 152.646 256.785,152.929 256.831,153.289 256.471 C 154.118 255.642,155.131 255.962,156.227 257.400 C 157.157 258.619,157.518 258.800,159.024 258.800 C 160.992 258.800,161.495 258.352,160.569 257.426 C 159.988 256.845,159.986 256.595,160.544 254.693 C 160.881 253.542,161.262 251.942,161.390 251.139 C 161.616 249.714,162.174 249.207,163.533 249.193 C 164.516 249.183,166.000 247.438,166.000 246.292 C 166.000 245.716,165.621 245.029,165.100 244.660 C 164.051 243.916,164.939 242.800,166.580 242.800 C 167.035 242.800,167.632 242.440,167.907 242.000 C 168.298 241.374,168.840 241.200,170.403 241.200 C 172.811 241.200,172.819 241.160,170.800 239.304 C 168.951 237.604,168.648 235.823,170.000 234.600 C 170.440 234.202,170.800 233.580,170.800 233.218 C 170.800 232.257,171.613 231.600,172.800 231.600 C 174.307 231.600,174.800 232.310,174.800 234.480 C 174.800 235.536,174.980 236.400,175.200 236.400 C 175.420 236.400,175.600 235.522,175.600 234.449 C 175.600 231.443,174.011 231.620,201.290 231.585 C 225.140 231.554,225.941 231.528,226.621 230.776 C 227.008 230.349,227.466 230.000,227.640 230.000 C 227.813 230.000,228.634 229.379,229.462 228.620 C 231.352 226.889,233.419 226.394,238.600 226.433 C 240.800 226.449,243.140 226.437,243.800 226.405 C 244.460 226.374,252.261 226.405,261.135 226.474 L 277.271 226.600 278.035 227.544 C 278.495 228.112,278.800 229.108,278.800 230.044 C 278.800 231.247,278.959 231.607,279.500 231.632 C 279.885 231.649,281.190 231.753,282.400 231.862 C 283.610 231.971,284.870 232.034,285.200 232.001 C 285.530 231.968,287.951 231.853,290.580 231.745 C 296.953 231.484,297.400 231.110,297.400 226.053 C 297.400 224.154,297.565 222.344,297.766 222.031 C 298.233 221.306,298.335 220.450,298.638 214.700 L 298.886 210.000 297.723 210.000 C 296.260 210.000,295.600 209.353,295.600 207.920 C 295.600 206.621,295.191 206.482,294.522 207.553 C 294.083 208.256,293.171 208.324,280.726 208.585 C 265.877 208.896,267.013 208.896,249.530 208.579 C 238.351 208.376,236.712 208.425,235.610 208.995 C 234.894 209.365,234.007 209.529,233.533 209.379 C 231.919 208.866,210.328 208.967,208.817 209.494 C 206.122 210.434,186.150 210.184,185.307 209.200 C 184.731 208.528,184.127 208.400,181.516 208.400 L 178.411 208.400 177.814 209.827 C 177.015 211.740,175.311 211.675,174.400 209.697 L 173.800 208.393 171.140 208.644 C 168.587 208.885,168.453 208.853,167.794 207.848 C 166.840 206.390,163.955 206.358,162.024 207.782 M187.200 212.800 C 187.742 214.110,189.277 214.407,191.374 213.610 C 192.045 213.355,193.474 213.360,195.500 213.624 C 199.848 214.190,204.063 213.753,205.833 212.552 C 207.575 211.370,207.600 211.371,207.600 212.636 C 207.600 213.217,207.117 214.183,206.501 214.836 L 205.403 216.000 196.480 216.000 L 187.557 216.000 186.179 214.900 C 184.376 213.462,184.286 211.600,186.018 211.600 C 186.402 211.600,186.921 212.128,187.200 212.800 M131.042 213.424 C 131.498 215.242,130.931 217.732,129.864 218.599 C 127.007 220.922,127.229 220.853,122.928 220.751 C 120.464 220.693,118.648 220.825,118.328 221.086 C 117.813 221.507,116.325 221.731,110.616 222.248 C 108.785 222.414,107.466 222.771,106.762 223.292 C 105.684 224.088,103.200 224.012,103.200 223.182 C 103.200 222.271,107.752 220.810,110.611 220.804 C 111.717 220.802,112.977 220.552,113.411 220.248 C 114.234 219.673,118.385 219.200,123.734 219.074 C 127.677 218.981,128.625 218.161,128.269 215.156 C 127.950 212.456,130.413 210.918,131.042 213.424 M174.494 216.148 C 175.449 217.617,174.470 217.958,169.059 218.038 C 163.541 218.120,161.998 217.649,163.168 216.238 C 163.992 215.246,173.856 215.167,174.494 216.148 M230.379 216.174 C 230.970 216.887,230.338 218.262,229.300 218.519 C 226.684 219.168,219.927 218.803,218.727 217.948 L 217.483 217.062 218.386 216.331 C 219.589 215.357,229.592 215.226,230.379 216.174 M252.000 218.992 C 256.730 218.989,267.530 218.945,276.000 218.895 C 292.876 218.794,297.424 219.110,296.233 220.300 C 296.068 220.465,283.783 220.628,268.934 220.662 C 240.442 220.727,239.723 220.759,238.593 222.008 C 238.199 222.444,237.544 222.800,237.138 222.800 C 236.014 222.800,236.207 221.271,237.400 220.727 C 237.950 220.477,238.400 220.112,238.400 219.916 C 238.400 219.214,240.966 218.392,242.200 218.698 C 242.860 218.862,247.270 218.994,252.000 218.992 M212.987 224.500 C 213.099 224.995,213.147 225.754,213.095 226.186 C 213.028 226.739,213.297 227.036,214.000 227.186 C 215.282 227.460,217.600 229.192,217.600 229.875 C 217.600 230.515,216.156 230.575,215.770 229.951 C 215.588 229.657,214.760 229.589,213.370 229.752 C 212.086 229.903,211.149 229.841,210.996 229.594 C 210.858 229.370,210.532 229.320,210.272 229.483 C 210.013 229.646,200.789 229.798,189.775 229.820 C 178.761 229.842,169.568 229.972,169.346 230.110 C 169.124 230.247,168.428 230.092,167.800 229.766 C 166.896 229.297,166.233 229.256,164.628 229.569 C 159.561 230.559,158.246 230.540,155.919 229.439 C 154.711 228.868,153.155 228.400,152.461 228.400 C 150.212 228.400,151.128 227.700,153.700 227.454 C 155.075 227.323,168.064 227.221,182.564 227.228 C 209.153 227.240,210.136 227.191,209.336 225.896 C 209.220 225.708,209.235 225.115,209.370 224.577 C 209.721 223.178,212.676 223.115,212.987 224.500 M287.805 224.674 C 288.170 225.174,288.808 225.324,290.279 225.257 C 292.871 225.139,294.313 225.713,294.633 226.991 C 295.065 228.711,294.254 229.200,290.975 229.200 C 289.365 229.200,287.936 229.380,287.800 229.600 C 287.231 230.520,286.995 229.829,286.912 226.998 C 286.820 223.900,286.964 223.525,287.805 224.674 M237.617 229.113 C 234.145 229.192,232.447 229.390,232.017 229.766 C 231.678 230.063,230.998 230.428,230.507 230.577 C 229.671 230.832,225.820 234.354,226.086 234.620 C 226.153 234.687,237.114 234.799,250.443 234.871 C 269.575 234.973,274.809 235.109,275.303 235.519 C 275.663 235.818,276.027 235.880,276.159 235.666 C 276.459 235.181,276.607 229.673,276.327 229.393 C 276.089 229.156,245.507 228.934,237.617 229.113 M149.800 258.400 C 149.936 258.620,150.397 258.800,150.824 258.800 C 151.251 258.800,151.600 258.620,151.600 258.400 C 151.600 258.180,151.139 258.000,150.576 258.000 C 149.996 258.000,149.660 258.173,149.800 258.400 "
       stroke="none"
       fill="#0e0e0e"
       fill-rule="evenodd" />
    <path
       id="path2"
       d="M193.705 215.087 C 194.314 215.179,195.214 215.177,195.705 215.082 C 196.197 214.987,195.700 214.911,194.600 214.914 C 193.500 214.917,193.097 214.995,193.705 215.087 M124.800 220.000 C 124.800 220.220,125.070 220.400,125.400 220.400 C 125.730 220.400,126.000 220.220,126.000 220.000 C 126.000 219.780,125.730 219.600,125.400 219.600 C 125.070 219.600,124.800 219.780,124.800 220.000 M261.695 220.067 C 261.973 220.244,263.730 220.385,265.600 220.382 C 267.690 220.378,268.769 220.244,268.400 220.033 C 267.641 219.600,261.012 219.634,261.695 220.067 M270.400 220.000 C 269.950 220.291,270.150 220.388,271.200 220.388 C 272.250 220.388,272.450 220.291,272.000 220.000 C 271.670 219.787,271.310 219.612,271.200 219.612 C 271.090 219.612,270.730 219.787,270.400 220.000 M279.100 220.282 C 279.595 220.378,280.405 220.378,280.900 220.282 C 281.395 220.187,280.990 220.109,280.000 220.109 C 279.010 220.109,278.605 220.187,279.100 220.282 M98.051 229.188 C 98.015 230.751,98.142 231.559,98.397 231.402 C 98.886 231.100,98.923 228.013,98.447 227.262 C 98.235 226.928,98.085 227.658,98.051 229.188 M156.500 228.276 C 156.885 228.376,157.515 228.376,157.900 228.276 C 158.285 228.175,157.970 228.093,157.200 228.093 C 156.430 228.093,156.115 228.175,156.500 228.276 M187.105 228.283 C 187.602 228.379,188.322 228.375,188.705 228.275 C 189.087 228.175,188.680 228.096,187.800 228.101 C 186.920 228.105,186.607 228.187,187.105 228.283 M248.518 228.698 C 250.233 228.773,252.933 228.772,254.518 228.697 C 256.103 228.621,254.700 228.559,251.400 228.560 C 248.100 228.561,246.803 228.622,248.518 228.698 M268.305 228.683 C 268.802 228.779,269.522 228.775,269.905 228.675 C 270.287 228.575,269.880 228.496,269.000 228.501 C 268.120 228.505,267.807 228.587,268.305 228.683 M257.300 235.476 C 257.685 235.576,258.315 235.576,258.700 235.476 C 259.085 235.375,258.770 235.293,258.000 235.293 C 257.230 235.293,256.915 235.375,257.300 235.476 "
       stroke="none"
       fill="#7c7c7c"
       fill-rule="evenodd" />
    <path
       id="path3"
       d="M162.800 206.691 C 161.760 207.087,160.279 208.390,159.821 209.312 C 159.313 210.335,157.651 210.723,157.151 209.935 C 156.590 209.049,156.744 207.600,157.400 207.600 C 157.730 207.600,158.000 207.420,158.000 207.200 C 158.000 206.677,157.901 206.691,156.546 207.398 C 155.916 207.726,154.371 207.996,153.114 207.998 C 151.293 207.999,150.747 208.152,150.428 208.747 C 150.208 209.158,149.523 209.595,148.904 209.719 C 148.286 209.843,147.081 210.624,146.225 211.454 C 144.159 213.461,138.703 213.768,136.334 212.011 C 135.240 211.199,134.575 211.031,132.634 211.074 C 130.737 211.116,130.143 210.972,129.634 210.350 C 129.080 209.672,106.334 209.374,100.000 209.962 C 99.670 209.993,98.741 209.906,97.935 209.769 C 96.673 209.555,96.402 209.650,95.975 210.460 C 95.703 210.977,95.303 211.515,95.087 211.656 C 94.847 211.813,94.948 212.276,95.347 212.845 C 96.421 214.379,96.304 228.636,95.200 230.696 C 93.891 233.137,94.091 236.021,95.647 237.172 L 96.895 238.094 98.347 237.306 C 99.374 236.748,100.294 236.570,101.485 236.699 C 102.781 236.839,103.418 236.687,104.239 236.041 C 105.065 235.391,105.873 235.200,107.800 235.200 C 109.686 235.200,110.539 235.006,111.309 234.400 C 112.061 233.808,112.935 233.599,114.663 233.597 C 116.322 233.595,117.348 233.364,118.200 232.800 C 119.059 232.231,120.081 232.004,121.800 232.000 C 123.519 231.996,124.541 231.769,125.400 231.200 C 126.263 230.629,127.278 230.405,129.011 230.403 C 130.655 230.401,131.737 230.178,132.411 229.703 C 134.087 228.521,140.351 228.246,141.495 229.303 C 142.298 230.045,143.027 230.149,148.610 230.319 C 154.158 230.488,154.873 230.589,155.229 231.254 C 155.448 231.664,155.860 232.000,156.144 232.000 C 158.783 232.000,159.243 237.051,156.800 239.200 C 155.902 239.989,155.206 240.965,155.204 241.438 C 155.202 241.899,154.840 242.602,154.400 243.000 C 153.960 243.398,153.600 244.032,153.600 244.408 C 153.600 244.784,153.240 245.550,152.800 246.109 C 152.360 246.669,152.000 247.586,152.000 248.149 C 152.000 248.762,151.680 249.343,151.200 249.600 C 150.573 249.936,150.400 250.438,150.400 251.925 C 150.400 252.997,150.128 254.210,149.775 254.714 C 149.200 255.536,149.208 255.624,149.875 255.832 C 151.904 256.464,152.292 257.400,150.526 257.400 C 149.350 257.400,148.802 258.302,149.651 258.840 C 150.600 259.441,151.667 259.231,151.884 258.400 C 151.999 257.960,152.283 257.600,152.515 257.600 C 152.747 257.600,153.270 257.299,153.677 256.931 C 154.376 256.297,154.489 256.340,155.762 257.731 C 156.976 259.056,157.308 259.200,159.154 259.200 C 161.378 259.200,161.308 259.297,161.208 256.335 C 161.161 254.958,161.320 254.372,161.818 254.094 C 162.338 253.803,162.398 253.543,162.083 252.954 C 161.477 251.822,161.940 250.000,162.833 250.000 C 165.180 250.000,167.181 246.326,165.716 244.707 C 164.961 243.873,165.472 243.219,166.886 243.206 C 167.263 243.203,167.765 242.840,168.000 242.400 C 168.339 241.767,168.838 241.600,170.390 241.600 C 173.061 241.600,173.290 240.966,171.269 239.172 C 169.492 237.596,169.095 236.117,170.202 235.199 C 170.532 234.924,170.949 234.137,171.127 233.450 C 171.411 232.355,171.622 232.200,172.825 232.200 L 174.200 232.200 174.400 234.400 C 174.671 237.385,175.743 237.525,175.924 234.600 C 175.992 233.500,176.178 232.469,176.336 232.308 C 176.494 232.148,187.723 232.002,201.288 231.985 C 225.071 231.954,225.987 231.925,226.939 231.176 C 229.283 229.333,229.438 230.734,227.126 232.868 C 226.120 233.797,225.602 234.553,225.826 234.764 C 226.032 234.956,237.000 235.193,250.200 235.289 C 269.704 235.431,274.365 235.567,275.082 236.017 C 276.281 236.769,276.517 236.405,276.838 233.300 C 277.178 230.013,276.826 228.951,275.329 228.741 C 271.037 228.141,232.307 228.639,231.824 229.300 C 231.542 229.685,230.837 230.000,230.256 230.000 C 229.014 230.000,228.851 229.365,230.000 229.000 C 230.440 228.860,230.800 228.574,230.800 228.363 C 230.800 227.377,233.525 227.185,246.749 227.237 C 254.367 227.267,264.320 227.254,268.866 227.208 L 277.133 227.126 277.815 228.167 C 278.253 228.836,278.416 229.618,278.270 230.350 C 277.997 231.717,279.104 232.400,281.593 232.400 C 282.448 232.400,283.623 232.581,284.204 232.802 C 285.005 233.106,285.468 233.058,286.119 232.602 C 286.752 232.158,288.091 232.000,291.214 232.000 C 297.381 232.000,299.610 229.217,297.814 223.760 C 297.634 223.213,297.767 222.690,298.195 222.263 C 298.737 221.721,298.864 220.575,298.926 215.703 L 299.000 209.800 297.600 209.600 C 296.395 209.428,296.182 209.233,296.069 208.200 C 295.875 206.418,295.285 206.031,294.448 207.137 L 293.740 208.075 264.570 208.190 C 248.527 208.254,229.447 208.316,222.170 208.327 C 210.677 208.346,208.872 208.431,208.421 208.975 C 207.542 210.033,186.573 209.900,185.426 208.828 C 183.692 207.208,177.874 207.652,177.426 209.440 C 177.070 210.857,175.218 210.645,174.482 209.102 C 173.983 208.057,173.837 208.009,171.404 208.102 C 169.198 208.187,168.734 208.077,168.009 207.300 C 167.175 206.407,164.401 206.083,162.800 206.691 M167.794 207.848 C 168.453 208.853,168.587 208.885,171.140 208.644 L 173.800 208.393 174.400 209.697 C 175.311 211.675,177.015 211.740,177.814 209.827 L 178.411 208.400 181.516 208.400 C 184.127 208.400,184.731 208.528,185.307 209.200 C 186.150 210.184,206.122 210.434,208.817 209.494 C 210.328 208.967,231.919 208.866,233.533 209.379 C 234.007 209.529,234.894 209.365,235.610 208.995 C 236.712 208.425,238.351 208.376,249.530 208.579 C 267.013 208.896,265.877 208.896,280.726 208.585 C 293.171 208.324,294.083 208.256,294.522 207.553 C 295.191 206.482,295.600 206.621,295.600 207.920 C 295.600 209.353,296.260 210.000,297.723 210.000 L 298.886 210.000 298.638 214.700 C 298.335 220.450,298.233 221.306,297.766 222.031 C 297.565 222.344,297.400 224.154,297.400 226.053 C 297.400 231.110,296.953 231.484,290.580 231.745 C 287.951 231.853,285.530 231.968,285.200 232.001 C 284.870 232.034,283.610 231.971,282.400 231.862 C 281.190 231.753,279.885 231.649,279.500 231.632 C 278.959 231.607,278.800 231.247,278.800 230.044 C 278.800 229.108,278.495 228.112,278.035 227.544 L 277.271 226.600 261.135 226.474 C 252.261 226.405,244.460 226.374,243.800 226.405 C 243.140 226.437,240.800 226.449,238.600 226.433 C 233.419 226.394,231.352 226.889,229.462 228.620 C 228.634 229.379,227.813 230.000,227.640 230.000 C 227.466 230.000,227.008 230.349,226.621 230.776 C 225.941 231.528,225.140 231.554,201.290 231.585 C 174.011 231.620,175.600 231.443,175.600 234.449 C 175.600 235.522,175.420 236.400,175.200 236.400 C 174.980 236.400,174.800 235.536,174.800 234.480 C 174.800 232.310,174.307 231.600,172.800 231.600 C 171.613 231.600,170.800 232.257,170.800 233.218 C 170.800 233.580,170.440 234.202,170.000 234.600 C 168.648 235.823,168.951 237.604,170.800 239.304 C 172.819 241.160,172.811 241.200,170.403 241.200 C 168.840 241.200,168.298 241.374,167.907 242.000 C 167.632 242.440,167.035 242.800,166.580 242.800 C 164.939 242.800,164.051 243.916,165.100 244.660 C 166.713 245.803,165.548 249.172,163.533 249.193 C 162.174 249.207,161.616 249.714,161.390 251.139 C 161.262 251.942,160.881 253.542,160.544 254.693 C 159.986 256.595,159.988 256.845,160.569 257.426 C 161.495 258.352,160.992 258.800,159.024 258.800 C 157.518 258.800,157.157 258.619,156.227 257.400 C 155.131 255.962,154.118 255.642,153.289 256.471 C 152.929 256.831,152.646 256.785,152.078 256.271 C 151.670 255.902,151.133 255.600,150.884 255.600 C 150.089 255.600,150.788 250.300,151.664 249.677 C 152.070 249.389,152.400 248.667,152.400 248.066 C 152.400 247.468,152.760 246.670,153.200 246.293 C 153.640 245.916,154.000 245.199,154.000 244.700 C 154.000 244.201,154.360 243.568,154.800 243.293 C 155.257 243.008,155.600 242.360,155.600 241.784 C 155.600 241.119,156.145 240.274,157.200 239.304 C 159.776 236.935,159.129 231.600,156.265 231.600 C 155.950 231.600,155.599 231.240,155.484 230.800 C 155.290 230.057,154.937 230.000,150.537 229.996 C 144.896 229.990,142.800 229.704,142.800 228.940 C 142.800 228.545,143.094 228.458,143.820 228.641 C 144.516 228.816,144.993 228.696,145.320 228.265 C 145.631 227.855,146.572 227.591,147.987 227.516 C 151.927 227.307,151.939 223.600,148.000 223.600 C 145.841 223.600,145.005 224.270,145.293 225.772 C 145.630 227.538,142.483 228.387,135.554 228.397 C 133.968 228.399,133.028 228.620,132.354 229.150 C 131.685 229.675,130.542 229.948,128.529 230.061 C 126.553 230.172,125.422 230.437,124.898 230.911 C 124.359 231.399,123.445 231.601,121.769 231.603 C 120.078 231.605,119.057 231.833,118.200 232.400 C 117.333 232.974,116.322 233.195,114.554 233.197 C 112.716 233.199,111.855 233.399,111.091 234.000 C 110.309 234.615,109.468 234.800,107.452 234.800 C 105.300 234.800,104.690 234.951,104.044 235.645 C 103.413 236.322,102.915 236.455,101.529 236.313 C 99.713 236.128,97.600 236.626,97.600 237.239 C 97.600 237.438,97.330 237.600,97.000 237.600 C 96.670 237.600,96.400 237.432,96.400 237.227 C 96.400 237.022,96.040 236.740,95.600 236.600 C 94.490 236.248,94.490 232.975,95.600 230.904 C 96.487 229.250,96.820 215.158,96.022 213.059 C 95.459 211.576,96.308 210.007,97.676 210.003 C 99.013 209.999,99.493 210.653,98.407 210.998 C 97.272 211.358,97.105 212.451,97.325 218.064 C 97.431 220.779,97.529 225.351,97.542 228.224 C 97.571 234.216,97.708 234.800,99.086 234.800 C 99.791 234.800,100.021 234.631,99.865 234.225 C 99.549 233.401,99.455 224.958,99.757 224.470 C 99.896 224.245,100.535 223.946,101.179 223.805 L 102.348 223.548 101.534 222.734 C 100.558 221.758,100.918 221.301,102.800 221.129 L 104.200 221.000 104.318 218.063 C 104.452 214.744,104.135 214.104,102.270 213.923 C 101.050 213.805,101.000 213.730,101.000 212.000 L 101.000 210.200 115.037 210.095 L 129.073 209.990 129.475 210.891 C 129.847 211.723,130.095 211.783,132.700 211.662 C 135.024 211.555,135.589 211.651,135.901 212.209 C 136.904 214.002,144.622 214.115,145.722 212.353 C 145.981 211.939,146.391 211.600,146.634 211.600 C 146.877 211.600,147.402 211.240,147.800 210.800 C 148.198 210.360,148.855 210.000,149.259 210.000 C 149.663 210.000,150.218 209.640,150.493 209.200 C 151.455 207.659,156.182 208.043,156.655 209.700 C 157.190 211.578,158.885 211.737,159.937 210.008 C 161.870 206.829,166.324 205.604,167.794 207.848 M100.400 212.616 C 100.400 214.021,100.532 214.117,103.000 214.490 C 103.718 214.599,103.800 214.918,103.800 217.605 L 103.800 220.600 102.216 220.800 C 100.938 220.961,100.585 221.193,100.388 222.000 C 100.166 222.903,98.754 223.287,98.092 222.625 C 97.275 221.808,97.888 211.780,98.781 211.334 C 100.063 210.696,100.400 210.963,100.400 212.616 M185.067 211.867 C 184.407 212.526,184.905 213.884,186.179 214.900 L 187.557 216.000 196.480 216.000 L 205.403 216.000 206.501 214.836 C 207.117 214.183,207.600 213.217,207.600 212.636 C 207.600 211.371,207.575 211.370,205.833 212.552 C 204.063 213.753,199.848 214.190,195.500 213.624 C 193.474 213.360,192.045 213.355,191.374 213.610 C 189.277 214.407,187.742 214.110,187.200 212.800 C 186.738 211.685,185.702 211.232,185.067 211.867 M128.505 212.855 C 128.227 213.133,128.135 214.024,128.269 215.156 C 128.625 218.161,127.677 218.981,123.734 219.074 C 118.385 219.200,114.234 219.673,113.411 220.248 C 112.977 220.552,111.717 220.802,110.611 220.804 C 107.752 220.810,103.200 222.271,103.200 223.182 C 103.200 224.012,105.684 224.088,106.762 223.292 C 107.466 222.771,108.785 222.414,110.616 222.248 C 116.325 221.731,117.813 221.507,118.328 221.086 C 118.648 220.825,120.464 220.693,122.928 220.751 C 127.229 220.853,127.007 220.922,129.864 218.599 C 130.931 217.732,131.498 215.242,131.042 213.424 C 130.764 212.319,129.357 212.003,128.505 212.855 M188.800 215.200 C 188.800 215.420,188.530 215.600,188.200 215.600 C 187.870 215.600,187.600 215.420,187.600 215.200 C 187.600 214.980,187.870 214.800,188.200 214.800 C 188.530 214.800,188.800 214.980,188.800 215.200 M195.705 215.082 C 195.214 215.177,194.314 215.179,193.705 215.087 C 193.097 214.995,193.500 214.917,194.600 214.914 C 195.700 214.911,196.197 214.987,195.705 215.082 M204.500 215.288 C 203.853 215.600,203.347 215.600,202.700 215.288 C 201.910 214.907,202.020 214.854,203.600 214.854 C 205.180 214.854,205.290 214.907,204.500 215.288 M166.134 215.518 C 163.299 215.654,162.226 216.397,163.306 217.477 C 164.113 218.284,173.969 218.288,174.482 217.481 C 175.530 215.832,172.832 215.197,166.134 215.518 M174.180 216.442 C 175.027 217.240,173.584 217.566,168.877 217.640 C 164.046 217.715,162.473 217.364,163.420 216.422 C 164.164 215.681,173.391 215.698,174.180 216.442 M218.386 216.331 L 217.483 217.062 218.727 217.948 C 219.927 218.803,226.684 219.168,229.300 218.519 C 230.338 218.262,230.970 216.887,230.379 216.174 C 229.592 215.226,219.589 215.357,218.386 216.331 M230.211 216.418 C 230.936 217.591,229.516 218.000,224.725 218.000 C 219.678 218.000,217.979 217.589,218.823 216.572 C 219.407 215.869,229.785 215.728,230.211 216.418 M239.700 218.981 C 238.985 219.300,238.400 219.721,238.400 219.916 C 238.400 220.112,237.950 220.477,237.400 220.727 C 236.207 221.271,236.014 222.800,237.138 222.800 C 237.544 222.800,238.199 222.444,238.593 222.008 C 239.723 220.759,240.442 220.727,268.934 220.662 C 283.783 220.628,296.068 220.465,296.233 220.300 C 297.424 219.110,292.876 218.794,276.000 218.895 C 250.228 219.049,243.452 219.009,242.200 218.698 C 241.421 218.505,240.544 218.604,239.700 218.981 M242.481 220.079 C 242.274 220.286,241.407 220.390,240.553 220.310 C 239.089 220.174,239.055 220.142,239.964 219.750 C 241.099 219.261,243.045 219.515,242.481 220.079 M285.833 219.600 C 286.365 219.600,286.800 219.780,286.800 220.000 C 286.800 220.472,262.875 220.568,261.733 220.100 C 261.074 219.830,283.052 219.242,284.333 219.495 C 284.626 219.553,285.301 219.600,285.833 219.600 M126.000 220.000 C 126.000 220.220,125.730 220.400,125.400 220.400 C 125.070 220.400,124.800 220.220,124.800 220.000 C 124.800 219.780,125.070 219.600,125.400 219.600 C 125.730 219.600,126.000 219.780,126.000 220.000 M111.800 221.600 C 111.664 221.820,110.923 222.000,110.153 222.000 C 109.321 222.000,108.853 221.838,109.000 221.600 C 109.136 221.380,109.877 221.200,110.647 221.200 C 111.479 221.200,111.947 221.362,111.800 221.600 M209.370 224.577 C 209.235 225.115,209.220 225.708,209.336 225.896 C 210.136 227.191,209.153 227.240,182.564 227.228 C 168.064 227.221,155.075 227.323,153.700 227.454 C 151.128 227.700,150.212 228.400,152.461 228.400 C 153.155 228.400,154.711 228.868,155.919 229.439 C 158.246 230.540,159.561 230.559,164.628 229.569 C 166.233 229.256,166.896 229.297,167.800 229.766 C 168.428 230.092,169.124 230.247,169.346 230.110 C 169.568 229.972,178.761 229.842,189.775 229.820 C 200.789 229.798,210.013 229.646,210.272 229.483 C 210.532 229.320,210.858 229.370,210.996 229.594 C 211.149 229.841,212.086 229.903,213.370 229.752 C 214.760 229.589,215.588 229.657,215.770 229.951 C 216.156 230.575,217.600 230.515,217.600 229.875 C 217.600 229.192,215.282 227.460,214.000 227.186 C 213.297 227.036,213.028 226.739,213.095 226.186 C 213.409 223.578,209.991 222.102,209.370 224.577 M150.243 224.569 C 150.806 226.036,148.860 227.503,146.977 227.030 C 145.995 226.784,145.286 225.232,145.786 224.423 C 146.193 223.765,149.982 223.889,150.243 224.569 M212.487 225.584 C 212.303 227.841,210.570 228.311,209.895 226.287 C 209.337 224.611,209.770 223.927,211.297 224.074 C 212.518 224.192,212.593 224.287,212.487 225.584 M286.912 226.998 C 286.995 229.829,287.231 230.520,287.800 229.600 C 287.936 229.380,289.365 229.200,290.975 229.200 C 294.254 229.200,295.065 228.711,294.633 226.991 C 294.313 225.713,292.871 225.139,290.279 225.257 C 288.808 225.324,288.170 225.174,287.805 224.674 C 286.964 223.525,286.820 223.900,286.912 226.998 M98.800 229.400 C 98.800 231.951,98.642 233.600,98.397 233.600 C 98.001 233.600,97.876 226.125,98.262 225.500 C 98.708 224.778,98.800 225.447,98.800 229.400 M293.898 226.666 C 294.987 228.156,294.393 228.592,291.107 228.717 C 288.076 228.831,288.019 228.816,287.761 227.787 C 287.232 225.681,292.476 224.722,293.898 226.666 M157.900 228.276 C 157.515 228.376,156.885 228.376,156.500 228.276 C 156.115 228.175,156.430 228.093,157.200 228.093 C 157.970 228.093,158.285 228.175,157.900 228.276 M188.705 228.275 C 188.322 228.375,187.602 228.379,187.105 228.283 C 186.607 228.187,186.920 228.105,187.800 228.101 C 188.680 228.096,189.087 228.175,188.705 228.275 M276.327 229.393 C 276.607 229.673,276.459 235.181,276.159 235.666 C 276.027 235.880,275.663 235.818,275.303 235.519 C 274.809 235.109,269.575 234.973,250.443 234.871 C 237.114 234.799,226.153 234.687,226.086 234.620 C 225.820 234.354,229.671 230.832,230.507 230.577 C 230.998 230.428,231.678 230.063,232.017 229.766 C 232.447 229.390,234.145 229.192,237.617 229.113 C 245.507 228.934,276.089 229.156,276.327 229.393 M151.600 258.400 C 151.600 258.620,151.251 258.800,150.824 258.800 C 150.397 258.800,149.936 258.620,149.800 258.400 C 149.660 258.173,149.996 258.000,150.576 258.000 C 151.139 258.000,151.600 258.180,151.600 258.400 "
       stroke="none"
       fill="#747474"
       fill-rule="evenodd" />
    <path
       id="path4"
       d="M156.090 206.801 C 155.246 207.317,154.075 207.600,152.794 207.600 C 151.240 207.600,150.698 207.774,150.307 208.400 C 150.020 208.860,149.374 209.200,148.787 209.200 C 148.113 209.200,147.280 209.729,146.333 210.760 C 145.083 212.119,144.649 212.331,142.950 212.411 C 139.323 212.582,137.660 212.403,137.029 211.772 C 136.161 210.904,134.111 210.317,132.162 210.379 C 131.113 210.412,130.337 210.206,130.005 209.806 C 129.550 209.258,127.482 209.186,113.044 209.213 L 96.600 209.244 95.500 210.447 C 94.270 211.792,94.147 212.632,95.013 213.776 C 96.019 215.107,95.850 227.937,94.800 229.896 C 92.401 234.371,95.914 241.277,98.813 237.785 C 99.135 237.396,100.068 237.200,101.595 237.200 C 103.286 237.200,104.160 236.989,104.909 236.400 C 105.693 235.783,106.532 235.600,108.567 235.600 C 110.713 235.600,111.336 235.450,111.893 234.800 C 112.447 234.152,113.075 233.999,115.189 233.997 C 117.122 233.995,118.112 233.788,119.000 233.200 C 119.867 232.626,120.878 232.405,122.646 232.403 C 124.484 232.401,125.345 232.201,126.109 231.600 C 126.887 230.988,127.732 230.800,129.702 230.800 C 131.703 230.800,132.483 230.622,133.200 230.000 C 134.478 228.891,140.233 228.818,141.023 229.900 C 141.465 230.506,142.392 230.617,147.936 230.727 L 154.339 230.854 156.169 232.499 C 158.722 234.792,158.795 236.894,156.400 239.096 C 155.520 239.905,154.800 240.862,154.800 241.222 C 154.800 241.582,154.440 242.202,154.000 242.600 C 153.560 242.998,153.200 243.583,153.200 243.899 C 153.200 244.215,152.840 244.931,152.400 245.491 C 151.960 246.050,151.600 247.070,151.600 247.758 C 151.600 248.574,151.323 249.181,150.800 249.507 C 150.208 249.877,150.000 250.440,150.000 251.672 C 150.000 252.588,149.752 253.621,149.449 253.969 C 148.753 254.767,148.377 258.617,148.941 259.181 C 149.676 259.916,151.448 259.632,152.562 258.600 C 153.156 258.050,153.836 257.600,154.075 257.600 C 154.313 257.600,154.925 258.050,155.435 258.600 C 157.798 261.149,162.371 259.786,161.793 256.705 C 161.598 255.661,161.723 255.212,162.377 254.620 C 163.006 254.051,163.156 253.563,162.988 252.633 C 162.788 251.530,162.983 251.214,164.832 249.635 L 166.899 247.871 166.678 245.735 C 166.508 244.086,166.583 243.600,167.006 243.600 C 167.308 243.600,167.799 243.251,168.097 242.825 C 168.480 242.279,169.213 242.013,170.579 241.925 C 173.255 241.752,173.792 240.862,172.214 239.215 C 171.574 238.547,170.814 238.000,170.525 238.000 C 169.675 238.000,169.892 235.860,170.800 235.293 C 171.310 234.974,171.600 234.360,171.600 233.597 C 171.600 232.534,171.734 232.400,172.800 232.400 C 173.969 232.400,174.000 232.450,174.000 234.351 C 174.000 235.597,174.217 236.482,174.600 236.800 C 175.622 237.649,176.400 236.591,176.400 234.351 L 176.400 232.400 201.600 232.400 C 215.460 232.400,226.800 232.506,226.800 232.636 C 226.800 232.766,226.395 233.204,225.900 233.610 C 223.702 235.413,224.667 235.518,245.600 235.757 C 268.695 236.020,273.426 236.184,274.949 236.773 C 276.631 237.424,277.200 236.761,277.200 234.151 C 277.200 232.968,277.268 232.000,277.351 232.000 C 277.434 232.000,278.155 232.273,278.953 232.606 C 279.751 232.940,280.898 233.210,281.502 233.207 C 282.106 233.204,283.391 233.313,284.358 233.449 C 285.738 233.642,286.193 233.556,286.477 233.047 C 286.778 232.511,287.606 232.400,291.298 232.400 C 295.874 232.400,298.000 231.567,298.000 229.774 C 298.000 229.512,298.270 229.074,298.600 228.800 C 299.438 228.105,299.393 224.876,298.532 223.925 C 297.905 223.231,297.917 223.137,298.732 222.378 C 299.545 221.620,299.600 221.204,299.600 215.833 C 299.600 209.734,299.500 209.401,297.600 209.138 C 296.857 209.036,296.568 208.725,296.476 207.929 C 296.281 206.238,295.269 205.628,294.413 206.684 L 293.718 207.543 251.301 207.671 C 211.570 207.792,208.835 207.844,208.110 208.500 C 206.839 209.651,186.417 209.560,185.693 208.400 C 185.327 207.814,184.760 207.600,183.570 207.600 C 182.678 207.600,181.592 207.410,181.158 207.178 C 180.152 206.639,177.316 207.804,176.969 208.899 C 176.630 209.967,175.037 209.664,174.872 208.500 C 174.757 207.687,174.524 207.600,172.466 207.600 C 170.952 207.600,169.687 207.332,168.696 206.800 C 166.629 205.692,162.893 205.697,161.479 206.809 L 160.450 207.619 159.125 206.811 C 157.513 205.828,157.686 205.828,156.090 206.801 M168.000 207.200 C 168.635 207.835,169.333 208.000,171.390 208.000 C 173.863 208.000,174.007 208.054,174.600 209.200 C 175.430 210.806,176.861 210.834,177.456 209.257 C 178.137 207.453,183.917 207.161,185.449 208.854 C 186.376 209.878,206.913 210.012,208.224 209.002 C 209.072 208.348,205.471 208.401,264.375 208.175 L 293.749 208.063 294.453 207.131 C 295.285 206.031,295.875 206.421,296.069 208.200 C 296.182 209.233,296.395 209.428,297.600 209.600 L 299.000 209.800 298.939 215.725 C 298.888 220.677,298.767 221.774,298.200 222.400 C 297.799 222.843,297.651 223.359,297.837 223.660 C 298.569 224.844,298.706 227.771,298.077 228.790 C 296.204 231.826,295.830 232.000,291.154 232.000 C 287.677 232.000,286.730 232.127,286.191 232.667 C 285.629 233.228,285.320 233.260,284.234 232.867 C 283.524 232.610,282.179 232.400,281.245 232.400 C 278.684 232.400,277.918 231.846,278.223 230.216 C 278.723 227.550,277.793 227.193,270.500 227.247 C 259.627 227.329,258.828 228.300,269.481 228.487 C 277.247 228.622,277.043 228.506,276.885 232.717 C 276.751 236.269,276.469 236.743,274.911 236.031 C 274.071 235.647,268.003 235.473,250.000 235.317 C 226.056 235.109,224.407 234.997,226.300 233.713 C 226.795 233.377,227.200 232.867,227.200 232.578 C 227.200 232.290,227.560 231.940,228.000 231.800 C 228.879 231.521,229.039 230.995,228.369 230.581 C 228.133 230.435,227.591 230.688,227.167 231.144 C 226.402 231.964,226.155 231.972,201.513 231.991 C 187.828 232.001,176.500 232.142,176.339 232.305 C 176.179 232.467,175.992 233.500,175.924 234.600 C 175.743 237.525,174.671 237.385,174.400 234.400 L 174.200 232.200 172.825 232.200 C 171.622 232.200,171.411 232.355,171.127 233.450 C 170.949 234.137,170.532 234.924,170.202 235.199 C 169.095 236.117,169.492 237.596,171.269 239.172 C 173.290 240.966,173.061 241.600,170.390 241.600 C 168.865 241.600,168.337 241.771,168.017 242.367 C 167.791 242.790,167.065 243.254,166.403 243.399 C 165.030 243.701,164.970 243.827,165.800 244.657 C 167.226 246.083,165.392 249.629,163.000 250.072 C 162.339 250.195,162.200 250.536,162.200 252.046 C 162.200 253.049,161.959 254.162,161.665 254.518 C 161.332 254.921,161.181 255.889,161.265 257.083 L 161.400 259.000 159.119 259.119 C 156.818 259.240,155.618 258.655,155.124 257.171 C 154.880 256.441,152.528 257.413,151.958 258.479 C 151.388 259.543,149.400 259.326,149.400 258.200 C 149.400 257.625,149.709 257.364,150.500 257.273 C 151.730 257.132,152.022 256.400,150.849 256.400 C 149.563 256.400,149.029 255.379,149.765 254.328 C 150.114 253.830,150.400 252.658,150.400 251.725 C 150.400 250.438,150.593 249.925,151.200 249.600 C 151.717 249.323,152.000 248.762,152.000 248.014 C 152.000 247.378,152.261 246.596,152.580 246.277 C 152.899 245.958,153.276 245.238,153.416 244.678 C 153.557 244.117,154.016 243.348,154.436 242.967 C 154.856 242.587,155.202 241.899,155.204 241.438 C 155.206 240.965,155.902 239.989,156.800 239.200 C 158.892 237.360,159.114 234.603,157.300 232.978 C 156.695 232.436,155.821 231.634,155.358 231.196 C 154.597 230.477,153.957 230.400,148.712 230.400 C 143.343 230.400,142.824 230.334,141.793 229.523 C 140.294 228.344,134.527 228.411,132.553 229.630 C 131.729 230.139,130.575 230.401,129.153 230.403 C 127.678 230.404,126.622 230.655,125.800 231.200 C 124.941 231.769,123.919 231.996,122.200 232.000 C 120.481 232.004,119.459 232.231,118.600 232.800 C 117.737 233.371,116.722 233.595,114.989 233.597 C 113.348 233.599,112.262 233.822,111.589 234.296 C 110.988 234.718,109.477 235.084,107.740 235.227 C 105.854 235.383,104.652 235.691,104.211 236.131 C 103.750 236.593,102.866 236.800,101.355 236.800 C 99.747 236.800,98.861 237.027,98.009 237.656 L 96.851 238.513 95.626 237.287 C 94.101 235.763,93.924 232.901,95.200 230.400 C 96.266 228.311,96.410 215.154,95.389 213.179 C 94.819 212.077,94.836 211.919,95.637 210.836 L 96.496 209.674 112.773 209.623 C 128.641 209.573,129.069 209.592,129.783 210.381 C 130.366 211.026,130.822 211.142,132.017 210.951 C 133.545 210.706,136.400 211.388,136.400 211.998 C 136.400 213.778,144.396 213.231,146.367 211.316 C 147.145 210.561,148.286 209.843,148.904 209.719 C 149.523 209.595,150.208 209.158,150.428 208.747 C 150.740 208.165,151.288 207.999,152.914 207.998 C 154.061 207.996,155.516 207.726,156.146 207.398 C 156.776 207.069,157.541 206.800,157.846 206.800 C 158.689 206.800,158.507 207.479,157.600 207.716 C 156.675 207.958,156.573 208.736,157.330 209.773 C 157.970 210.648,159.442 210.327,159.788 209.237 C 160.563 206.795,166.197 205.397,168.000 207.200 M159.528 208.500 C 159.436 209.150,159.131 209.400,158.433 209.400 C 157.149 209.400,156.949 208.642,158.089 208.093 C 159.440 207.442,159.669 207.507,159.528 208.500 M98.488 211.532 C 97.482 212.181,98.005 222.572,99.051 222.721 C 99.676 222.811,99.969 222.577,100.153 221.844 C 100.364 221.004,100.673 220.826,102.102 220.723 L 103.800 220.600 103.800 217.600 L 103.800 214.600 102.200 214.400 C 100.727 214.216,100.584 214.089,100.400 212.805 C 100.198 211.393,99.462 210.903,98.488 211.532 M103.600 217.600 L 103.600 220.400 102.256 220.400 L 100.911 220.400 100.686 217.913 C 100.414 214.921,100.474 214.800,102.224 214.800 L 103.600 214.800 103.600 217.600 M202.800 214.957 C 202.800 215.346,203.927 215.492,204.436 215.169 C 204.847 214.909,204.701 214.811,203.900 214.806 C 203.295 214.803,202.800 214.871,202.800 214.957 M163.407 216.389 C 162.822 217.336,163.877 217.544,168.907 217.474 C 173.312 217.412,174.200 217.299,174.200 216.800 C 174.200 216.067,163.850 215.673,163.407 216.389 M219.226 216.369 C 218.745 216.679,218.738 216.844,219.184 217.381 C 220.079 218.459,229.800 218.111,229.800 217.000 C 229.800 216.114,220.484 215.559,219.226 216.369 M166.400 216.800 C 166.400 217.020,165.860 217.200,165.200 217.200 C 164.540 217.200,164.000 217.020,164.000 216.800 C 164.000 216.580,164.540 216.400,165.200 216.400 C 165.860 216.400,166.400 216.580,166.400 216.800 M170.000 216.800 C 170.000 217.020,169.550 217.200,169.000 217.200 C 168.450 217.200,168.000 217.020,168.000 216.800 C 168.000 216.580,168.450 216.400,169.000 216.400 C 169.550 216.400,170.000 216.580,170.000 216.800 M174.000 216.800 C 174.000 217.020,173.280 217.200,172.400 217.200 C 171.520 217.200,170.800 217.020,170.800 216.800 C 170.800 216.580,171.520 216.400,172.400 216.400 C 173.280 216.400,174.000 216.580,174.000 216.800 M229.600 216.805 C 229.600 217.042,227.764 217.200,225.000 217.200 C 222.470 217.200,220.270 217.213,220.110 217.230 C 219.950 217.247,219.761 217.083,219.689 216.868 C 219.609 216.626,221.490 216.463,224.579 216.442 C 227.642 216.422,229.600 216.564,229.600 216.805 M239.800 220.000 C 239.483 220.513,241.207 220.513,242.000 220.000 C 242.457 219.705,242.295 219.611,241.324 219.606 C 240.622 219.603,239.936 219.780,239.800 220.000 M268.541 220.055 C 269.058 220.356,269.541 220.360,270.141 220.070 C 270.890 219.707,270.796 219.652,269.400 219.639 C 268.069 219.627,267.925 219.697,268.541 220.055 M271.971 219.973 C 272.687 220.426,285.958 220.391,286.240 219.935 C 286.354 219.751,283.062 219.603,278.924 219.606 C 274.292 219.610,271.619 219.751,271.971 219.973 M109.400 221.600 C 109.260 221.826,109.588 222.000,110.153 222.000 C 110.703 222.000,111.264 221.820,111.400 221.600 C 111.540 221.374,111.212 221.200,110.647 221.200 C 110.097 221.200,109.536 221.380,109.400 221.600 M145.811 224.382 C 145.259 225.276,146.086 226.755,147.286 227.019 C 148.714 227.333,150.696 225.748,150.269 224.635 C 149.994 223.919,146.229 223.705,145.811 224.382 M209.825 224.359 C 209.262 225.271,210.100 227.200,211.060 227.200 C 212.073 227.200,213.029 225.574,212.629 224.531 C 212.401 223.937,210.171 223.800,209.825 224.359 M150.000 224.771 C 150.000 225.766,147.891 226.825,147.037 226.259 C 145.366 225.152,145.744 224.400,147.971 224.400 C 149.087 224.400,150.000 224.567,150.000 224.771 M212.394 224.700 C 212.366 226.065,210.329 226.413,210.075 225.095 C 209.972 224.557,210.218 224.400,211.171 224.400 C 211.847 224.400,212.397 224.535,212.394 224.700 M289.600 225.939 C 288.369 226.168,288.200 226.345,288.200 227.400 L 288.200 228.600 291.195 228.600 C 293.555 228.600,294.214 228.471,294.306 227.992 C 294.619 226.367,292.428 225.411,289.600 225.939 M98.006 226.300 C 98.024 227.177,98.788 227.759,98.794 226.900 C 98.797 226.405,98.620 226.000,98.400 226.000 C 98.180 226.000,98.003 226.135,98.006 226.300 M293.269 227.062 C 294.487 228.165,294.123 228.400,291.200 228.400 C 289.020 228.400,288.400 228.271,288.400 227.820 C 288.400 226.431,291.959 225.877,293.269 227.062 M232.226 227.508 C 231.800 227.606,230.931 228.208,230.295 228.844 L 229.138 230.000 230.149 230.000 C 230.705 230.000,231.336 229.685,231.552 229.300 C 231.911 228.657,233.108 228.591,246.272 228.492 C 260.488 228.384,262.614 228.253,261.000 227.581 C 260.190 227.244,233.653 227.176,232.226 227.508 M98.267 231.467 C 97.852 231.882,97.953 233.200,98.400 233.200 C 98.620 233.200,98.800 232.750,98.800 232.200 C 98.800 231.153,98.708 231.026,98.267 231.467 "
       stroke="none"
       fill="#848484"
       fill-rule="evenodd" />
  </g>
</svg>
