<?xml version="1.0" encoding="UTF-8" standalone="no"?>
<svg
   xmlns:dc="http://purl.org/dc/elements/1.1/"
   xmlns:cc="http://creativecommons.org/ns#"
   xmlns:rdf="http://www.w3.org/1999/02/22-rdf-syntax-ns#"
   xmlns:svg="http://www.w3.org/2000/svg"
   xmlns="http://www.w3.org/2000/svg"
   xmlns:sodipodi="http://sodipodi.sourceforge.net/DTD/sodipodi-0.dtd"
   xmlns:inkscape="http://www.inkscape.org/namespaces/inkscape"
   id="svg"
   version="1.1"
   width="400"
   height="400"
   viewBox="0, 0, 400,400"
   sodipodi:docname="shotgun.svg"
   inkscape:version="0.92.4 (5da689c313, 2019-01-14)">
  <metadata
     id="metadata234">
    <rdf:RDF>
      <cc:Work
         rdf:about="">
        <dc:format>image/svg+xml</dc:format>
        <dc:type
           rdf:resource="http://purl.org/dc/dcmitype/StillImage" />
      </cc:Work>
    </rdf:RDF>
  </metadata>
  <defs
     id="defs232" />
  <sodipodi:namedview
     pagecolor="#ffffff"
     bordercolor="#666666"
     borderopacity="1"
     objecttolerance="10"
     gridtolerance="10"
     guidetolerance="10"
     inkscape:pageopacity="0"
     inkscape:pageshadow="2"
     inkscape:window-width="640"
     inkscape:window-height="480"
     id="namedview230"
     showgrid="false"
     inkscape:zoom="0.59"
     inkscape:cx="200"
     inkscape:cy="200"
     inkscape:window-x="0"
     inkscape:window-y="0"
     inkscape:window-maximized="0"
     inkscape:current-layer="svg" />
  <g
     id="svgg"
     transform="translate(0,138.98305)">
    <path
       id="path0"
       d="m -411.86441,196.61017 v 200 h 200 200.000003 v -200 -200.0000005 h -200.000003 -200 V 196.61017 m 159.125,6.811 1.325,0.808 1.029,-0.81 c 1.414,-1.112 5.15,-1.117 7.217,-0.009 0.991,0.532 2.256,0.8 3.77,0.8 2.058,0 2.291,0.087 2.406,0.9 0.165,1.164 1.758,1.467 2.097,0.399 0.347,-1.095 3.183,-2.26 4.189,-1.721 0.434,0.232 1.52,0.422 2.412,0.422 1.19,0 1.757,0.214 2.123,0.8 0.724,1.16 21.146,1.251 22.417,0.1 0.725,-0.656 3.46,-0.708 43.191,-0.829 l 42.417,-0.128 0.695,-0.859 c 0.856,-1.056 1.868,-0.446 2.063,1.245 0.092,0.796 0.381,1.107 1.124,1.209 1.9,0.263 2,0.596 2,6.695 0,5.371 -0.055,5.787 -0.868,6.545 -0.815,0.759 -0.827,0.853 -0.2,1.547 0.861,0.951 0.906,4.18 0.068,4.875 -0.33,0.274 -0.6,0.712 -0.6,0.974 0,1.793 -2.126,2.626 -6.702,2.626 -3.692,0 -4.52,0.111 -4.821,0.647 -0.284,0.509 -0.739,0.595 -2.119,0.402 -0.967,-0.136 -2.252,-0.245 -2.856,-0.242 -0.604,0.003 -1.751,-0.267 -2.549,-0.601 -0.798,-0.333 -1.519,-0.606 -1.602,-0.606 -0.083,0 -0.151,0.968 -0.151,2.151 0,2.61 -0.569,3.273 -2.251,2.622 -1.523,-0.589 -6.254,-0.753 -29.349,-1.016 -20.933,-0.239 -21.898,-0.344 -19.7,-2.147 0.495,-0.406 0.9,-0.844 0.9,-0.974 0,-0.13 -11.34,-0.236 -25.2,-0.236 h -25.2 v 1.951 c 0,1.246 -0.217,2.131 -0.6,2.449 -1.022,0.849 -1.8,-0.209 -1.8,-2.449 0,-1.901 -0.031,-1.951 -1.2,-1.951 -1.066,0 -1.2,0.134 -1.2,1.197 0,0.763 -0.29,1.377 -0.8,1.696 -0.908,0.567 -1.125,2.707 -0.275,2.707 0.289,0 1.049,0.547 1.689,1.215 1.578,1.647 1.041,2.537 -1.635,2.71 -1.366,0.088 -2.099,0.354 -2.482,0.9 -0.298,0.426 -0.789,0.775 -1.091,0.775 -0.423,0 -0.498,0.486 -0.328,2.135 l 0.221,2.136 -2.067,1.764 c -1.849,1.579 -2.044,1.895 -1.844,2.998 0.168,0.93 0.018,1.418 -0.611,1.987 -0.654,0.592 -0.779,1.041 -0.584,2.085 0.578,3.081 -3.995,4.444 -6.358,1.895 -0.51,-0.55 -1.122,-1 -1.36,-1 -0.239,0 -0.919,0.45 -1.513,1 -1.114,1.032 -2.886,1.316 -3.621,0.581 -0.564,-0.564 -0.188,-4.414 0.508,-5.212 0.303,-0.348 0.551,-1.381 0.551,-2.297 0,-1.232 0.208,-1.795 0.8,-2.165 0.523,-0.326 0.8,-0.933 0.8,-1.749 0,-0.688 0.36,-1.708 0.8,-2.267 0.44,-0.56 0.8,-1.276 0.8,-1.592 0,-0.316 0.36,-0.901 0.8,-1.299 0.44,-0.398 0.8,-1.018 0.8,-1.378 0,-0.36 0.72,-1.317 1.6,-2.126 2.395,-2.202 2.322,-4.304 -0.231,-6.597 l -1.83,-1.645 -6.403,-0.127 c -5.544,-0.11 -6.471,-0.221 -6.913,-0.827 -0.79,-1.082 -6.545,-1.009 -7.823,0.1 -0.717,0.622 -1.497,0.8 -3.498,0.8 -1.97,0 -2.815,0.188 -3.593,0.8 -0.764,0.601 -1.625,0.801 -3.463,0.803 -1.768,0.002 -2.779,0.223 -3.646,0.797 -0.888,0.588 -1.878,0.795 -3.811,0.797 -2.114,0.002 -2.742,0.155 -3.296,0.803 -0.557,0.65 -1.18,0.8 -3.326,0.8 -2.035,0 -2.874,0.183 -3.658,0.8 -0.749,0.589 -1.623,0.8 -3.314,0.8 -1.527,0 -2.46,0.196 -2.782,0.585 -2.899,3.492 -6.412,-3.414 -4.013,-7.889 1.05,-1.959 1.219,-14.789 0.213,-16.12 -0.866,-1.144 -0.743,-1.984 0.487,-3.329 l 1.1,-1.203 16.444,-0.031 c 14.438,-0.027 16.506,0.045 16.961,0.593 0.332,0.4 1.108,0.606 2.157,0.573 1.949,-0.062 3.999,0.525 4.867,1.393 0.631,0.631 2.294,0.81 5.921,0.639 1.699,-0.08 2.133,-0.292 3.383,-1.651 0.947,-1.031 1.78,-1.56 2.454,-1.56 0.587,0 1.233,-0.34 1.52,-0.8 0.391,-0.626 0.933,-0.8 2.487,-0.8 1.281,0 2.452,-0.283 3.296,-0.799 1.596,-0.973 1.423,-0.973 3.035,0.01 m -1.036,1.282 c -1.14,0.549 -0.94,1.307 0.344,1.307 0.698,0 1.003,-0.25 1.095,-0.9 0.141,-0.993 -0.088,-1.058 -1.439,-0.407 m -57.435,7.02 c -0.107,0.172 -0.092,1.432 0.032,2.8 l 0.225,2.487 h 1.345 1.344 v -2.8 -2.8 h -1.376 c -0.757,0 -1.464,0.141 -1.57,0.313 m 63.346,1.687 c 0,0.22 0.54,0.4 1.2,0.4 0.66,0 1.2,-0.18 1.2,-0.4 0,-0.22 -0.54,-0.4 -1.2,-0.4 -0.66,0 -1.2,0.18 -1.2,0.4 m 4,0 c 0,0.22 0.45,0.4 1,0.4 0.55,0 1,-0.18 1,-0.4 0,-0.22 -0.45,-0.4 -1,-0.4 -0.55,0 -1,0.18 -1,0.4 m 2.8,0 c 0,0.22 0.72,0.4 1.6,0.4 0.88,0 1.6,-0.18 1.6,-0.4 0,-0.22 -0.72,-0.4 -1.6,-0.4 -0.88,0 -1.6,0.18 -1.6,0.4 m 48.889,0.068 c 0.072,0.215 0.261,0.379 0.421,0.362 0.16,-0.017 2.36,-0.03 4.89,-0.03 2.764,0 4.6,-0.158 4.6,-0.395 0,-0.241 -1.958,-0.383 -5.021,-0.363 -3.089,0.021 -4.97,0.184 -4.89,0.426 m -73.618,8.184 c 0.274,1.386 1.697,1.845 2.866,0.926 1.543,-1.214 1.32,-1.578 -0.966,-1.578 -1.663,0 -2.006,0.118 -1.9,0.652 m 64.004,0.043 c 0.167,0.867 1.511,1.17 1.971,0.444 0.577,-0.911 0.402,-1.139 -0.875,-1.139 -0.953,0 -1.199,0.157 -1.096,0.695 m 79.025,1.737 c -1.627,0.947 -0.796,1.568 2.1,1.568 1.54,0 2.8,-0.152 2.8,-0.338 0,-1.333 -3.3,-2.162 -4.9,-1.23"
       inkscape:connector-curvature="0"
       style="fill:#fbfbfb;fill-rule:evenodd;stroke:none" />
    <path
       id="path1"
       d="m 162.024,207.782 c -0.732,0.54 -1.671,1.542 -2.087,2.226 -1.052,1.729 -2.747,1.57 -3.282,-0.308 -0.473,-1.657 -5.2,-2.041 -6.162,-0.5 -0.275,0.44 -0.83,0.8 -1.234,0.8 -0.404,0 -1.061,0.36 -1.459,0.8 -0.398,0.44 -0.923,0.8 -1.166,0.8 -0.243,0 -0.653,0.339 -0.912,0.753 -1.1,1.762 -8.818,1.649 -9.821,-0.144 -0.312,-0.558 -0.877,-0.654 -3.201,-0.547 -2.605,0.121 -2.853,0.061 -3.225,-0.771 l -0.402,-0.901 -14.036,0.105 L 101,210.2 v 1.8 c 0,1.73 0.05,1.805 1.27,1.923 1.865,0.181 2.182,0.821 2.048,4.14 L 104.2,221 l -1.4,0.129 c -1.882,0.172 -2.242,0.629 -1.266,1.605 l 0.814,0.814 -1.169,0.257 c -0.644,0.141 -1.283,0.44 -1.422,0.665 -0.302,0.488 -0.208,8.931 0.108,9.755 0.156,0.406 -0.074,0.575 -0.779,0.575 -1.378,0 -1.515,-0.584 -1.544,-6.576 -0.013,-2.873 -0.111,-7.445 -0.217,-10.16 -0.22,-5.613 -0.053,-6.706 1.082,-7.066 1.086,-0.345 0.606,-0.999 -0.731,-0.995 -1.368,0.004 -2.217,1.573 -1.654,3.056 0.798,2.099 0.465,16.191 -0.422,17.845 -1.11,2.071 -1.11,5.344 0,5.696 0.44,0.14 0.8,0.422 0.8,0.627 0,0.205 0.27,0.373 0.6,0.373 0.33,0 0.6,-0.162 0.6,-0.361 0,-0.613 2.113,-1.111 3.929,-0.926 1.386,0.142 1.884,0.009 2.515,-0.668 0.646,-0.694 1.256,-0.845 3.408,-0.845 2.016,0 2.857,-0.185 3.639,-0.8 0.764,-0.601 1.625,-0.801 3.463,-0.803 1.768,-0.002 2.779,-0.223 3.646,-0.797 0.857,-0.567 1.878,-0.795 3.569,-0.797 1.676,-0.002 2.59,-0.204 3.129,-0.692 0.524,-0.474 1.655,-0.739 3.631,-0.85 2.013,-0.113 3.156,-0.386 3.825,-0.911 0.674,-0.53 1.614,-0.751 3.2,-0.753 6.929,-0.01 10.076,-0.859 9.739,-2.625 -0.288,-1.502 0.548,-2.172 2.707,-2.172 3.939,0 3.927,3.707 -0.013,3.916 -1.415,0.075 -2.356,0.339 -2.667,0.749 -0.327,0.431 -0.804,0.551 -1.5,0.376 -0.726,-0.183 -1.02,-0.096 -1.02,0.299 0,0.764 2.096,1.05 7.737,1.056 4.4,0.004 4.753,0.061 4.947,0.804 0.115,0.44 0.466,0.8 0.781,0.8 2.864,0 3.511,5.335 0.935,7.704 -1.055,0.97 -1.6,1.815 -1.6,2.48 0,0.576 -0.343,1.224 -0.8,1.509 -0.44,0.275 -0.8,0.908 -0.8,1.407 0,0.499 -0.36,1.216 -0.8,1.593 -0.44,0.377 -0.8,1.175 -0.8,1.773 0,0.601 -0.33,1.323 -0.736,1.611 -0.876,0.623 -1.575,5.923 -0.78,5.923 0.249,0 0.786,0.302 1.194,0.671 0.568,0.514 0.851,0.56 1.211,0.2 0.829,-0.829 1.842,-0.509 2.938,0.929 0.93,1.219 1.291,1.4 2.797,1.4 1.968,0 2.471,-0.448 1.545,-1.374 -0.581,-0.581 -0.583,-0.831 -0.025,-2.733 0.337,-1.151 0.718,-2.751 0.846,-3.554 0.226,-1.425 0.784,-1.932 2.143,-1.946 0.983,-0.01 2.467,-1.755 2.467,-2.901 0,-0.576 -0.379,-1.263 -0.9,-1.632 -1.049,-0.744 -0.161,-1.86 1.48,-1.86 0.455,0 1.052,-0.36 1.327,-0.8 0.391,-0.626 0.933,-0.8 2.496,-0.8 2.408,0 2.416,-0.04 0.397,-1.896 -1.849,-1.7 -2.152,-3.481 -0.8,-4.704 0.44,-0.398 0.8,-1.02 0.8,-1.382 0,-0.961 0.813,-1.618 2,-1.618 1.507,0 2,0.71 2,2.88 0,1.056 0.18,1.92 0.4,1.92 0.22,0 0.4,-0.878 0.4,-1.951 0,-3.006 -1.589,-2.829 25.69,-2.864 23.85,-0.031 24.651,-0.057 25.331,-0.809 0.387,-0.427 0.845,-0.776 1.019,-0.776 0.173,0 0.994,-0.621 1.822,-1.38 1.89,-1.731 3.957,-2.226 9.138,-2.187 2.2,0.016 4.54,0.004 5.2,-0.028 0.66,-0.031 8.461,0 17.335,0.069 l 16.136,0.126 0.764,0.944 c 0.46,0.568 0.765,1.564 0.765,2.5 0,1.203 0.159,1.563 0.7,1.588 0.385,0.017 1.69,0.121 2.9,0.23 1.21,0.109 2.47,0.172 2.8,0.139 0.33,-0.033 2.751,-0.148 5.38,-0.256 6.373,-0.261 6.82,-0.635 6.82,-5.692 0,-1.899 0.165,-3.709 0.366,-4.022 0.467,-0.725 0.569,-1.581 0.872,-7.331 l 0.248,-4.7 h -1.163 c -1.463,0 -2.123,-0.647 -2.123,-2.08 0,-1.299 -0.409,-1.438 -1.078,-0.367 -0.439,0.703 -1.351,0.771 -13.796,1.032 -14.849,0.311 -13.713,0.311 -31.196,-0.006 -11.179,-0.203 -12.818,-0.154 -13.92,0.416 -0.716,0.37 -1.603,0.534 -2.077,0.384 -1.614,-0.513 -23.205,-0.412 -24.716,0.115 -2.695,0.94 -22.667,0.69 -23.51,-0.294 -0.576,-0.672 -1.18,-0.8 -3.791,-0.8 h -3.105 l -0.597,1.427 c -0.799,1.913 -2.503,1.848 -3.414,-0.13 l -0.6,-1.304 -2.66,0.251 c -2.553,0.241 -2.687,0.209 -3.346,-0.796 -0.954,-1.458 -3.839,-1.49 -5.77,-0.066 M 187.2,212.8 c 0.542,1.31 2.077,1.607 4.174,0.81 0.671,-0.255 2.1,-0.25 4.126,0.014 4.348,0.566 8.563,0.129 10.333,-1.072 1.742,-1.182 1.767,-1.181 1.767,0.084 0,0.581 -0.483,1.547 -1.099,2.2 L 205.403,216 h -8.923 -8.923 l -1.378,-1.1 c -1.803,-1.438 -1.893,-3.3 -0.161,-3.3 0.384,0 0.903,0.528 1.182,1.2 m -56.158,0.624 c 0.456,1.818 -0.111,4.308 -1.178,5.175 -2.857,2.323 -2.635,2.254 -6.936,2.152 -2.464,-0.058 -4.28,0.074 -4.6,0.335 -0.515,0.421 -2.003,0.645 -7.712,1.162 -1.831,0.166 -3.15,0.523 -3.854,1.044 -1.078,0.796 -3.562,0.72 -3.562,-0.11 0,-0.911 4.552,-2.372 7.411,-2.378 1.106,-0.002 2.366,-0.252 2.8,-0.556 0.823,-0.575 4.974,-1.048 10.323,-1.174 3.943,-0.093 4.891,-0.913 4.535,-3.918 -0.319,-2.7 2.144,-4.238 2.773,-1.732 m 43.452,2.724 c 0.955,1.469 -0.024,1.81 -5.435,1.89 -5.518,0.082 -7.061,-0.389 -5.891,-1.8 0.824,-0.992 10.688,-1.071 11.326,-0.09 m 55.885,0.026 c 0.591,0.713 -0.041,2.088 -1.079,2.345 -2.616,0.649 -9.373,0.284 -10.573,-0.571 l -1.244,-0.886 0.903,-0.731 c 1.203,-0.974 11.206,-1.105 11.993,-0.157 M 252,218.992 c 4.73,-0.003 15.53,-0.047 24,-0.097 16.876,-0.101 21.424,0.215 20.233,1.405 -0.165,0.165 -12.45,0.328 -27.299,0.362 -28.492,0.065 -29.211,0.097 -30.341,1.346 -0.394,0.436 -1.049,0.792 -1.455,0.792 -1.124,0 -0.931,-1.529 0.262,-2.073 0.55,-0.25 1,-0.615 1,-0.811 0,-0.702 2.566,-1.524 3.8,-1.218 0.66,0.164 5.07,0.296 9.8,0.294 m -39.013,5.508 c 0.112,0.495 0.16,1.254 0.108,1.686 -0.067,0.553 0.202,0.85 0.905,1 1.282,0.274 3.6,2.006 3.6,2.689 0,0.64 -1.444,0.7 -1.83,0.076 -0.182,-0.294 -1.01,-0.362 -2.4,-0.199 -1.284,0.151 -2.221,0.089 -2.374,-0.158 -0.138,-0.224 -0.464,-0.274 -0.724,-0.111 -0.259,0.163 -9.483,0.315 -20.497,0.337 -11.014,0.022 -20.207,0.152 -20.429,0.29 -0.222,0.137 -0.918,-0.018 -1.546,-0.344 -0.904,-0.469 -1.567,-0.51 -3.172,-0.197 -5.067,0.99 -6.382,0.971 -8.709,-0.13 -1.208,-0.571 -2.764,-1.039 -3.458,-1.039 -2.249,0 -1.333,-0.7 1.239,-0.946 1.375,-0.131 14.364,-0.233 28.864,-0.226 26.589,0.012 27.572,-0.037 26.772,-1.332 -0.116,-0.188 -0.101,-0.781 0.034,-1.319 0.351,-1.399 3.306,-1.462 3.617,-0.077 m 74.818,0.174 c 0.365,0.5 1.003,0.65 2.474,0.583 2.592,-0.118 4.034,0.456 4.354,1.734 0.432,1.72 -0.379,2.209 -3.658,2.209 -1.61,0 -3.039,0.18 -3.175,0.4 -0.569,0.92 -0.805,0.229 -0.888,-2.602 -0.092,-3.098 0.052,-3.473 0.893,-2.324 m -50.188,4.439 c -3.472,0.079 -5.17,0.277 -5.6,0.653 -0.339,0.297 -1.019,0.662 -1.51,0.811 -0.836,0.255 -4.687,3.777 -4.421,4.043 0.067,0.067 11.028,0.179 24.357,0.251 19.132,0.102 24.366,0.238 24.86,0.648 0.36,0.299 0.724,0.361 0.856,0.147 0.3,-0.485 0.448,-5.993 0.168,-6.273 -0.238,-0.237 -30.82,-0.459 -38.71,-0.28 M 149.8,258.4 c 0.136,0.22 0.597,0.4 1.024,0.4 0.427,0 0.776,-0.18 0.776,-0.4 0,-0.22 -0.461,-0.4 -1.024,-0.4 -0.58,0 -0.916,0.173 -0.776,0.4"
       inkscape:connector-curvature="0"
       style="fill:#0e0e0e;fill-rule:evenodd;stroke:none" />
    <path
       id="path2"
       d="m 193.705,215.087 c 0.609,0.092 1.509,0.09 2,-0.005 0.492,-0.095 -0.005,-0.171 -1.105,-0.168 -1.1,0.003 -1.503,0.081 -0.895,0.173 M 124.8,220 c 0,0.22 0.27,0.4 0.6,0.4 0.33,0 0.6,-0.18 0.6,-0.4 0,-0.22 -0.27,-0.4 -0.6,-0.4 -0.33,0 -0.6,0.18 -0.6,0.4 m 136.895,0.067 c 0.278,0.177 2.035,0.318 3.905,0.315 2.09,-0.004 3.169,-0.138 2.8,-0.349 -0.759,-0.433 -7.388,-0.399 -6.705,0.034 M 270.4,220 c -0.45,0.291 -0.25,0.388 0.8,0.388 1.05,0 1.25,-0.097 0.8,-0.388 -0.33,-0.213 -0.69,-0.388 -0.8,-0.388 -0.11,0 -0.47,0.175 -0.8,0.388 m 8.7,0.282 c 0.495,0.096 1.305,0.096 1.8,0 0.495,-0.095 0.09,-0.173 -0.9,-0.173 -0.99,0 -1.395,0.078 -0.9,0.173 m -181.049,8.906 c -0.036,1.563 0.091,2.371 0.346,2.214 0.489,-0.302 0.526,-3.389 0.05,-4.14 -0.212,-0.334 -0.362,0.396 -0.396,1.926 m 58.449,-0.912 c 0.385,0.1 1.015,0.1 1.4,0 0.385,-0.101 0.07,-0.183 -0.7,-0.183 -0.77,0 -1.085,0.082 -0.7,0.183 m 30.605,0.007 c 0.497,0.096 1.217,0.092 1.6,-0.008 0.382,-0.1 -0.025,-0.179 -0.905,-0.174 -0.88,0.004 -1.193,0.086 -0.695,0.182 m 61.413,0.415 c 1.715,0.075 4.415,0.074 6,-0.001 1.585,-0.076 0.182,-0.138 -3.118,-0.137 -3.3,0.001 -4.597,0.062 -2.882,0.138 m 19.787,-0.015 c 0.497,0.096 1.217,0.092 1.6,-0.008 0.382,-0.1 -0.025,-0.179 -0.905,-0.174 -0.88,0.004 -1.193,0.086 -0.695,0.182 m -11.005,6.793 c 0.385,0.1 1.015,0.1 1.4,0 0.385,-0.101 0.07,-0.183 -0.7,-0.183 -0.77,0 -1.085,0.082 -0.7,0.183"
       inkscape:connector-curvature="0"
       style="fill:#7c7c7c;fill-rule:evenodd;stroke:none" />
    <path
       id="path3"
       d="m 162.8,206.691 c -1.04,0.396 -2.521,1.699 -2.979,2.621 -0.508,1.023 -2.17,1.411 -2.67,0.623 -0.561,-0.886 -0.407,-2.335 0.249,-2.335 0.33,0 0.6,-0.18 0.6,-0.4 0,-0.523 -0.099,-0.509 -1.454,0.198 -0.63,0.328 -2.175,0.598 -3.432,0.6 -1.821,0.001 -2.367,0.154 -2.686,0.749 -0.22,0.411 -0.905,0.848 -1.524,0.972 -0.618,0.124 -1.823,0.905 -2.679,1.735 -2.066,2.007 -7.522,2.314 -9.891,0.557 -1.094,-0.812 -1.759,-0.98 -3.7,-0.937 -1.897,0.042 -2.491,-0.102 -3,-0.724 -0.554,-0.678 -23.3,-0.976 -29.634,-0.388 -0.33,0.031 -1.259,-0.056 -2.065,-0.193 -1.262,-0.214 -1.533,-0.119 -1.96,0.691 -0.272,0.517 -0.672,1.055 -0.888,1.196 -0.24,0.157 -0.139,0.62 0.26,1.189 1.074,1.534 0.957,15.791 -0.147,17.851 -1.309,2.441 -1.109,5.325 0.447,6.476 l 1.248,0.922 1.452,-0.788 c 1.027,-0.558 1.947,-0.736 3.138,-0.607 1.296,0.14 1.933,-0.012 2.754,-0.658 0.826,-0.65 1.634,-0.841 3.561,-0.841 1.886,0 2.739,-0.194 3.509,-0.8 0.752,-0.592 1.626,-0.801 3.354,-0.803 1.659,-0.002 2.685,-0.233 3.537,-0.797 0.859,-0.569 1.881,-0.796 3.6,-0.8 1.719,-0.004 2.741,-0.231 3.6,-0.8 0.863,-0.571 1.878,-0.795 3.611,-0.797 1.644,-0.002 2.726,-0.225 3.4,-0.7 1.676,-1.182 7.94,-1.457 9.084,-0.4 0.803,0.742 1.532,0.846 7.115,1.016 5.548,0.169 6.263,0.27 6.619,0.935 0.219,0.41 0.631,0.746 0.915,0.746 2.639,0 3.099,5.051 0.656,7.2 -0.898,0.789 -1.594,1.765 -1.596,2.238 -0.002,0.461 -0.364,1.164 -0.804,1.562 -0.44,0.398 -0.8,1.032 -0.8,1.408 0,0.376 -0.36,1.142 -0.8,1.701 -0.44,0.56 -0.8,1.477 -0.8,2.04 0,0.613 -0.32,1.194 -0.8,1.451 -0.627,0.336 -0.8,0.838 -0.8,2.325 0,1.072 -0.272,2.285 -0.625,2.789 -0.575,0.822 -0.567,0.91 0.1,1.118 2.029,0.632 2.417,1.568 0.651,1.568 -1.176,0 -1.724,0.902 -0.875,1.44 0.949,0.601 2.016,0.391 2.233,-0.44 0.115,-0.44 0.399,-0.8 0.631,-0.8 0.232,0 0.755,-0.301 1.162,-0.669 0.699,-0.634 0.812,-0.591 2.085,0.8 1.214,1.325 1.546,1.469 3.392,1.469 2.224,0 2.154,0.097 2.054,-2.865 -0.047,-1.377 0.112,-1.963 0.61,-2.241 0.52,-0.291 0.58,-0.551 0.265,-1.14 -0.606,-1.132 -0.143,-2.954 0.75,-2.954 2.347,0 4.348,-3.674 2.883,-5.293 -0.755,-0.834 -0.244,-1.488 1.17,-1.501 0.377,-0.003 0.879,-0.366 1.114,-0.806 0.339,-0.633 0.838,-0.8 2.39,-0.8 2.671,0 2.9,-0.634 0.879,-2.428 -1.777,-1.576 -2.174,-3.055 -1.067,-3.973 0.33,-0.275 0.747,-1.062 0.925,-1.749 0.284,-1.095 0.495,-1.25 1.698,-1.25 h 1.375 l 0.2,2.2 c 0.271,2.985 1.343,3.125 1.524,0.2 0.068,-1.1 0.254,-2.131 0.412,-2.292 0.158,-0.16 11.387,-0.306 24.952,-0.323 23.783,-0.031 24.699,-0.06 25.651,-0.809 2.344,-1.843 2.499,-0.442 0.187,1.692 -1.006,0.929 -1.524,1.685 -1.3,1.896 0.206,0.192 11.174,0.429 24.374,0.525 19.504,0.142 24.165,0.278 24.882,0.728 1.199,0.752 1.435,0.388 1.756,-2.717 0.34,-3.287 -0.012,-4.349 -1.509,-4.559 -4.292,-0.6 -43.022,-0.102 -43.505,0.559 -0.282,0.385 -0.987,0.7 -1.568,0.7 -1.242,0 -1.405,-0.635 -0.256,-1 0.44,-0.14 0.8,-0.426 0.8,-0.637 0,-0.986 2.725,-1.178 15.949,-1.126 7.618,0.03 17.571,0.017 22.117,-0.029 l 8.267,-0.082 0.682,1.041 c 0.438,0.669 0.601,1.451 0.455,2.183 -0.273,1.367 0.834,2.05 3.323,2.05 0.855,0 2.03,0.181 2.611,0.402 0.801,0.304 1.264,0.256 1.915,-0.2 0.633,-0.444 1.972,-0.602 5.095,-0.602 6.167,0 8.396,-2.783 6.6,-8.24 -0.18,-0.547 -0.047,-1.07 0.381,-1.497 0.542,-0.542 0.669,-1.688 0.731,-6.56 L 299,209.8 l -1.4,-0.2 c -1.205,-0.172 -1.418,-0.367 -1.531,-1.4 -0.194,-1.782 -0.784,-2.169 -1.621,-1.063 l -0.708,0.938 -29.17,0.115 c -16.043,0.064 -35.123,0.126 -42.4,0.137 -11.493,0.019 -13.298,0.104 -13.749,0.648 -0.879,1.058 -21.848,0.925 -22.995,-0.147 -1.734,-1.62 -7.552,-1.176 -8,0.612 -0.356,1.417 -2.208,1.205 -2.944,-0.338 -0.499,-1.045 -0.645,-1.093 -3.078,-1 -2.206,0.085 -2.67,-0.025 -3.395,-0.802 -0.834,-0.893 -3.608,-1.217 -5.209,-0.609 m 4.994,1.157 c 0.659,1.005 0.793,1.037 3.346,0.796 l 2.66,-0.251 0.6,1.304 c 0.911,1.978 2.615,2.043 3.414,0.13 l 0.597,-1.427 h 3.105 c 2.611,0 3.215,0.128 3.791,0.8 0.843,0.984 20.815,1.234 23.51,0.294 1.511,-0.527 23.102,-0.628 24.716,-0.115 0.474,0.15 1.361,-0.014 2.077,-0.384 1.102,-0.57 2.741,-0.619 13.92,-0.416 17.483,0.317 16.347,0.317 31.196,0.006 12.445,-0.261 13.357,-0.329 13.796,-1.032 0.669,-1.071 1.078,-0.932 1.078,0.367 0,1.433 0.66,2.08 2.123,2.08 h 1.163 l -0.248,4.7 c -0.303,5.75 -0.405,6.606 -0.872,7.331 -0.201,0.313 -0.366,2.123 -0.366,4.022 0,5.057 -0.447,5.431 -6.82,5.692 -2.629,0.108 -5.05,0.223 -5.38,0.256 -0.33,0.033 -1.59,-0.03 -2.8,-0.139 -1.21,-0.109 -2.515,-0.213 -2.9,-0.23 -0.541,-0.025 -0.7,-0.385 -0.7,-1.588 0,-0.936 -0.305,-1.932 -0.765,-2.5 l -0.764,-0.944 -16.136,-0.126 c -8.874,-0.069 -16.675,-0.1 -17.335,-0.069 -0.66,0.032 -3,0.044 -5.2,0.028 -5.181,-0.039 -7.248,0.456 -9.138,2.187 -0.828,0.759 -1.649,1.38 -1.822,1.38 -0.174,0 -0.632,0.349 -1.019,0.776 -0.68,0.752 -1.481,0.778 -25.331,0.809 -27.279,0.035 -25.69,-0.142 -25.69,2.864 0,1.073 -0.18,1.951 -0.4,1.951 -0.22,0 -0.4,-0.864 -0.4,-1.92 0,-2.17 -0.493,-2.88 -2,-2.88 -1.187,0 -2,0.657 -2,1.618 0,0.362 -0.36,0.984 -0.8,1.382 -1.352,1.223 -1.049,3.004 0.8,4.704 2.019,1.856 2.011,1.896 -0.397,1.896 -1.563,0 -2.105,0.174 -2.496,0.8 -0.275,0.44 -0.872,0.8 -1.327,0.8 -1.641,0 -2.529,1.116 -1.48,1.86 1.613,1.143 0.448,4.512 -1.567,4.533 -1.359,0.014 -1.917,0.521 -2.143,1.946 -0.128,0.803 -0.509,2.403 -0.846,3.554 -0.558,1.902 -0.556,2.152 0.025,2.733 0.926,0.926 0.423,1.374 -1.545,1.374 -1.506,0 -1.867,-0.181 -2.797,-1.4 -1.096,-1.438 -2.109,-1.758 -2.938,-0.929 -0.36,0.36 -0.643,0.314 -1.211,-0.2 -0.408,-0.369 -0.945,-0.671 -1.194,-0.671 -0.795,0 -0.096,-5.3 0.78,-5.923 0.406,-0.288 0.736,-1.01 0.736,-1.611 0,-0.598 0.36,-1.396 0.8,-1.773 0.44,-0.377 0.8,-1.094 0.8,-1.593 0,-0.499 0.36,-1.132 0.8,-1.407 0.457,-0.285 0.8,-0.933 0.8,-1.509 0,-0.665 0.545,-1.51 1.6,-2.48 2.576,-2.369 1.929,-7.704 -0.935,-7.704 -0.315,0 -0.666,-0.36 -0.781,-0.8 -0.194,-0.743 -0.547,-0.8 -4.947,-0.804 -5.641,-0.006 -7.737,-0.292 -7.737,-1.056 0,-0.395 0.294,-0.482 1.02,-0.299 0.696,0.175 1.173,0.055 1.5,-0.376 0.311,-0.41 1.252,-0.674 2.667,-0.749 3.94,-0.209 3.952,-3.916 0.013,-3.916 -2.159,0 -2.995,0.67 -2.707,2.172 0.337,1.766 -2.81,2.615 -9.739,2.625 -1.586,0.002 -2.526,0.223 -3.2,0.753 -0.669,0.525 -1.812,0.798 -3.825,0.911 -1.976,0.111 -3.107,0.376 -3.631,0.85 -0.539,0.488 -1.453,0.69 -3.129,0.692 -1.691,0.002 -2.712,0.23 -3.569,0.797 -0.867,0.574 -1.878,0.795 -3.646,0.797 -1.838,0.002 -2.699,0.202 -3.463,0.803 -0.782,0.615 -1.623,0.8 -3.639,0.8 -2.152,0 -2.762,0.151 -3.408,0.845 -0.631,0.677 -1.129,0.81 -2.515,0.668 -1.816,-0.185 -3.929,0.313 -3.929,0.926 0,0.199 -0.27,0.361 -0.6,0.361 -0.33,0 -0.6,-0.168 -0.6,-0.373 0,-0.205 -0.36,-0.487 -0.8,-0.627 -1.11,-0.352 -1.11,-3.625 0,-5.696 0.887,-1.654 1.22,-15.746 0.422,-17.845 -0.563,-1.483 0.286,-3.052 1.654,-3.056 1.337,-0.004 1.817,0.65 0.731,0.995 -1.135,0.36 -1.302,1.453 -1.082,7.066 0.106,2.715 0.204,7.287 0.217,10.16 0.029,5.992 0.166,6.576 1.544,6.576 0.705,0 0.935,-0.169 0.779,-0.575 -0.316,-0.824 -0.41,-9.267 -0.108,-9.755 0.139,-0.225 0.778,-0.524 1.422,-0.665 l 1.169,-0.257 -0.814,-0.814 c -0.976,-0.976 -0.616,-1.433 1.266,-1.605 l 1.4,-0.129 0.118,-2.937 c 0.134,-3.319 -0.183,-3.959 -2.048,-4.14 C 101.05,213.805 101,213.73 101,212 v -1.8 l 14.037,-0.105 14.036,-0.105 0.402,0.901 c 0.372,0.832 0.62,0.892 3.225,0.771 2.324,-0.107 2.889,-0.011 3.201,0.547 1.003,1.793 8.721,1.906 9.821,0.144 0.259,-0.414 0.669,-0.753 0.912,-0.753 0.243,0 0.768,-0.36 1.166,-0.8 0.398,-0.44 1.055,-0.8 1.459,-0.8 0.404,0 0.959,-0.36 1.234,-0.8 0.962,-1.541 5.689,-1.157 6.162,0.5 0.535,1.878 2.23,2.037 3.282,0.308 1.933,-3.179 6.387,-4.404 7.857,-2.16 m -67.394,4.768 c 0,1.405 0.132,1.501 2.6,1.874 0.718,0.109 0.8,0.428 0.8,3.115 v 2.995 l -1.584,0.2 c -1.278,0.161 -1.631,0.393 -1.828,1.2 -0.222,0.903 -1.634,1.287 -2.296,0.625 -0.817,-0.817 -0.204,-10.845 0.689,-11.291 1.282,-0.638 1.619,-0.371 1.619,1.282 m 84.667,-0.749 c -0.66,0.659 -0.162,2.017 1.112,3.033 l 1.378,1.1 h 8.923 8.923 l 1.098,-1.164 c 0.616,-0.653 1.099,-1.619 1.099,-2.2 0,-1.265 -0.025,-1.266 -1.767,-0.084 -1.77,1.201 -5.985,1.638 -10.333,1.072 -2.026,-0.264 -3.455,-0.269 -4.126,-0.014 -2.097,0.797 -3.632,0.5 -4.174,-0.81 -0.462,-1.115 -1.498,-1.568 -2.133,-0.933 m -56.562,0.988 c -0.278,0.278 -0.37,1.169 -0.236,2.301 0.356,3.005 -0.592,3.825 -4.535,3.918 -5.349,0.126 -9.5,0.599 -10.323,1.174 -0.434,0.304 -1.694,0.554 -2.8,0.556 -2.859,0.006 -7.411,1.467 -7.411,2.378 0,0.83 2.484,0.906 3.562,0.11 0.704,-0.521 2.023,-0.878 3.854,-1.044 5.709,-0.517 7.197,-0.741 7.712,-1.162 0.32,-0.261 2.136,-0.393 4.6,-0.335 4.301,0.102 4.079,0.171 6.936,-2.152 1.067,-0.867 1.634,-3.357 1.178,-5.175 -0.278,-1.105 -1.685,-1.421 -2.537,-0.569 M 188.8,215.2 c 0,0.22 -0.27,0.4 -0.6,0.4 -0.33,0 -0.6,-0.18 -0.6,-0.4 0,-0.22 0.27,-0.4 0.6,-0.4 0.33,0 0.6,0.18 0.6,0.4 m 6.905,-0.118 c -0.491,0.095 -1.391,0.097 -2,0.005 -0.608,-0.092 -0.205,-0.17 0.895,-0.173 1.1,-0.003 1.597,0.073 1.105,0.168 m 8.795,0.206 c -0.647,0.312 -1.153,0.312 -1.8,0 -0.79,-0.381 -0.68,-0.434 0.9,-0.434 1.58,0 1.69,0.053 0.9,0.434 m -38.366,0.23 c -2.835,0.136 -3.908,0.879 -2.828,1.959 0.807,0.807 10.663,0.811 11.176,0.004 1.048,-1.649 -1.65,-2.284 -8.348,-1.963 m 8.046,0.924 c 0.847,0.798 -0.596,1.124 -5.303,1.198 -4.831,0.075 -6.404,-0.276 -5.457,-1.218 0.744,-0.741 9.971,-0.724 10.76,0.02 m 44.206,-0.111 -0.903,0.731 1.244,0.886 c 1.2,0.855 7.957,1.22 10.573,0.571 1.038,-0.257 1.67,-1.632 1.079,-2.345 -0.787,-0.948 -10.79,-0.817 -11.993,0.157 m 11.825,0.087 c 0.725,1.173 -0.695,1.582 -5.486,1.582 -5.047,0 -6.746,-0.411 -5.902,-1.428 0.584,-0.703 10.962,-0.844 11.388,-0.154 m 9.489,2.563 c -0.715,0.319 -1.3,0.74 -1.3,0.935 0,0.196 -0.45,0.561 -1,0.811 -1.193,0.544 -1.386,2.073 -0.262,2.073 0.406,0 1.061,-0.356 1.455,-0.792 1.13,-1.249 1.849,-1.281 30.341,-1.346 14.849,-0.034 27.134,-0.197 27.299,-0.362 1.191,-1.19 -3.357,-1.506 -20.233,-1.405 -25.772,0.154 -32.548,0.114 -33.8,-0.197 -0.779,-0.193 -1.656,-0.094 -2.5,0.283 m 2.781,1.098 c -0.207,0.207 -1.074,0.311 -1.928,0.231 -1.464,-0.136 -1.498,-0.168 -0.589,-0.56 1.135,-0.489 3.081,-0.235 2.517,0.329 m 43.352,-0.479 c 0.532,0 0.967,0.18 0.967,0.4 0,0.472 -23.925,0.568 -25.067,0.1 -0.659,-0.27 21.319,-0.858 22.6,-0.605 0.293,0.058 0.968,0.105 1.5,0.105 M 126,220 c 0,0.22 -0.27,0.4 -0.6,0.4 -0.33,0 -0.6,-0.18 -0.6,-0.4 0,-0.22 0.27,-0.4 0.6,-0.4 0.33,0 0.6,0.18 0.6,0.4 m -14.2,1.6 c -0.136,0.22 -0.877,0.4 -1.647,0.4 -0.832,0 -1.3,-0.162 -1.153,-0.4 0.136,-0.22 0.877,-0.4 1.647,-0.4 0.832,0 1.3,0.162 1.153,0.4 m 97.57,2.977 c -0.135,0.538 -0.15,1.131 -0.034,1.319 0.8,1.295 -0.183,1.344 -26.772,1.332 -14.5,-0.007 -27.489,0.095 -28.864,0.226 -2.572,0.246 -3.488,0.946 -1.239,0.946 0.694,0 2.25,0.468 3.458,1.039 2.327,1.101 3.642,1.12 8.709,0.13 1.605,-0.313 2.268,-0.272 3.172,0.197 0.628,0.326 1.324,0.481 1.546,0.344 0.222,-0.138 9.415,-0.268 20.429,-0.29 11.014,-0.022 20.238,-0.174 20.497,-0.337 0.26,-0.163 0.586,-0.113 0.724,0.111 0.153,0.247 1.09,0.309 2.374,0.158 1.39,-0.163 2.218,-0.095 2.4,0.199 0.386,0.624 1.83,0.564 1.83,-0.076 0,-0.683 -2.318,-2.415 -3.6,-2.689 -0.703,-0.15 -0.972,-0.447 -0.905,-1 0.314,-2.608 -3.104,-4.084 -3.725,-1.609 m -59.127,-0.008 c 0.563,1.467 -1.383,2.934 -3.266,2.461 -0.982,-0.246 -1.691,-1.798 -1.191,-2.607 0.407,-0.658 4.196,-0.534 4.457,0.146 m 62.244,1.015 c -0.184,2.257 -1.917,2.727 -2.592,0.703 -0.558,-1.676 -0.125,-2.36 1.402,-2.213 1.221,0.118 1.296,0.213 1.19,1.51 m 74.425,1.414 c 0.083,2.831 0.319,3.522 0.888,2.602 0.136,-0.22 1.565,-0.4 3.175,-0.4 3.279,0 4.09,-0.489 3.658,-2.209 -0.32,-1.278 -1.762,-1.852 -4.354,-1.734 -1.471,0.067 -2.109,-0.083 -2.474,-0.583 -0.841,-1.149 -0.985,-0.774 -0.893,2.324 M 98.8,229.4 c 0,2.551 -0.158,4.2 -0.403,4.2 -0.396,0 -0.521,-7.475 -0.135,-8.1 0.446,-0.722 0.538,-0.053 0.538,3.9 m 195.098,-2.734 c 1.089,1.49 0.495,1.926 -2.791,2.051 -3.031,0.114 -3.088,0.099 -3.346,-0.93 -0.529,-2.106 4.715,-3.065 6.137,-1.121 m -135.998,1.61 c -0.385,0.1 -1.015,0.1 -1.4,0 -0.385,-0.101 -0.07,-0.183 0.7,-0.183 0.77,0 1.085,0.082 0.7,0.183 m 30.805,-0.001 c -0.383,0.1 -1.103,0.104 -1.6,0.008 -0.498,-0.096 -0.185,-0.178 0.695,-0.182 0.88,-0.005 1.287,0.074 0.905,0.174 m 87.622,1.118 c 0.28,0.28 0.132,5.788 -0.168,6.273 -0.132,0.214 -0.496,0.152 -0.856,-0.147 -0.494,-0.41 -5.728,-0.546 -24.86,-0.648 -13.329,-0.072 -24.29,-0.184 -24.357,-0.251 -0.266,-0.266 3.585,-3.788 4.421,-4.043 0.491,-0.149 1.171,-0.514 1.51,-0.811 0.43,-0.376 2.128,-0.574 5.6,-0.653 7.89,-0.179 38.472,0.043 38.71,0.28 M 151.6,258.4 c 0,0.22 -0.349,0.4 -0.776,0.4 -0.427,0 -0.888,-0.18 -1.024,-0.4 -0.14,-0.227 0.196,-0.4 0.776,-0.4 0.563,0 1.024,0.18 1.024,0.4"
       inkscape:connector-curvature="0"
       style="fill:#747474;fill-rule:evenodd;stroke:none" />
    <path
       id="path4"
       d="m 156.09,206.801 c -0.844,0.516 -2.015,0.799 -3.296,0.799 -1.554,0 -2.096,0.174 -2.487,0.8 -0.287,0.46 -0.933,0.8 -1.52,0.8 -0.674,0 -1.507,0.529 -2.454,1.56 -1.25,1.359 -1.684,1.571 -3.383,1.651 -3.627,0.171 -5.29,-0.008 -5.921,-0.639 -0.868,-0.868 -2.918,-1.455 -4.867,-1.393 -1.049,0.033 -1.825,-0.173 -2.157,-0.573 -0.455,-0.548 -2.523,-0.62 -16.961,-0.593 l -16.444,0.031 -1.1,1.203 c -1.23,1.345 -1.353,2.185 -0.487,3.329 1.006,1.331 0.837,14.161 -0.213,16.12 -2.399,4.475 1.114,11.381 4.013,7.889 0.322,-0.389 1.255,-0.585 2.782,-0.585 1.691,0 2.565,-0.211 3.314,-0.8 0.784,-0.617 1.623,-0.8 3.658,-0.8 2.146,0 2.769,-0.15 3.326,-0.8 0.554,-0.648 1.182,-0.801 3.296,-0.803 1.933,-0.002 2.923,-0.209 3.811,-0.797 0.867,-0.574 1.878,-0.795 3.646,-0.797 1.838,-0.002 2.699,-0.202 3.463,-0.803 0.778,-0.612 1.623,-0.8 3.593,-0.8 2.001,0 2.781,-0.178 3.498,-0.8 1.278,-1.109 7.033,-1.182 7.823,-0.1 0.442,0.606 1.369,0.717 6.913,0.827 l 6.403,0.127 1.83,1.645 c 2.553,2.293 2.626,4.395 0.231,6.597 -0.88,0.809 -1.6,1.766 -1.6,2.126 0,0.36 -0.36,0.98 -0.8,1.378 -0.44,0.398 -0.8,0.983 -0.8,1.299 0,0.316 -0.36,1.032 -0.8,1.592 -0.44,0.559 -0.8,1.579 -0.8,2.267 0,0.816 -0.277,1.423 -0.8,1.749 -0.592,0.37 -0.8,0.933 -0.8,2.165 0,0.916 -0.248,1.949 -0.551,2.297 -0.696,0.798 -1.072,4.648 -0.508,5.212 0.735,0.735 2.507,0.451 3.621,-0.581 0.594,-0.55 1.274,-1 1.513,-1 0.238,0 0.85,0.45 1.36,1 2.363,2.549 6.936,1.186 6.358,-1.895 -0.195,-1.044 -0.07,-1.493 0.584,-2.085 0.629,-0.569 0.779,-1.057 0.611,-1.987 -0.2,-1.103 -0.005,-1.419 1.844,-2.998 l 2.067,-1.764 -0.221,-2.136 c -0.17,-1.649 -0.095,-2.135 0.328,-2.135 0.302,0 0.793,-0.349 1.091,-0.775 0.383,-0.546 1.116,-0.812 2.482,-0.9 2.676,-0.173 3.213,-1.063 1.635,-2.71 -0.64,-0.668 -1.4,-1.215 -1.689,-1.215 -0.85,0 -0.633,-2.14 0.275,-2.707 0.51,-0.319 0.8,-0.933 0.8,-1.696 0,-1.063 0.134,-1.197 1.2,-1.197 1.169,0 1.2,0.05 1.2,1.951 0,1.246 0.217,2.131 0.6,2.449 1.022,0.849 1.8,-0.209 1.8,-2.449 V 232.4 h 25.2 c 13.86,0 25.2,0.106 25.2,0.236 0,0.13 -0.405,0.568 -0.9,0.974 -2.198,1.803 -1.233,1.908 19.7,2.147 23.095,0.263 27.826,0.427 29.349,1.016 1.682,0.651 2.251,-0.012 2.251,-2.622 0,-1.183 0.068,-2.151 0.151,-2.151 0.083,0 0.804,0.273 1.602,0.606 0.798,0.334 1.945,0.604 2.549,0.601 0.604,-0.003 1.889,0.106 2.856,0.242 1.38,0.193 1.835,0.107 2.119,-0.402 0.301,-0.536 1.129,-0.647 4.821,-0.647 4.576,0 6.702,-0.833 6.702,-2.626 0,-0.262 0.27,-0.7 0.6,-0.974 0.838,-0.695 0.793,-3.924 -0.068,-4.875 -0.627,-0.694 -0.615,-0.788 0.2,-1.547 0.813,-0.758 0.868,-1.174 0.868,-6.545 0,-6.099 -0.1,-6.432 -2,-6.695 -0.743,-0.102 -1.032,-0.413 -1.124,-1.209 -0.195,-1.691 -1.207,-2.301 -2.063,-1.245 l -0.695,0.859 -42.417,0.128 c -39.731,0.121 -42.466,0.173 -43.191,0.829 -1.271,1.151 -21.693,1.06 -22.417,-0.1 -0.366,-0.586 -0.933,-0.8 -2.123,-0.8 -0.892,0 -1.978,-0.19 -2.412,-0.422 -1.006,-0.539 -3.842,0.626 -4.189,1.721 -0.339,1.068 -1.932,0.765 -2.097,-0.399 -0.115,-0.813 -0.348,-0.9 -2.406,-0.9 -1.514,0 -2.779,-0.268 -3.77,-0.8 -2.067,-1.108 -5.803,-1.103 -7.217,0.009 l -1.029,0.81 -1.325,-0.808 c -1.612,-0.983 -1.439,-0.983 -3.035,-0.01 M 168,207.2 c 0.635,0.635 1.333,0.8 3.39,0.8 2.473,0 2.617,0.054 3.21,1.2 0.83,1.606 2.261,1.634 2.856,0.057 0.681,-1.804 6.461,-2.096 7.993,-0.403 0.927,1.024 21.464,1.158 22.775,0.148 0.848,-0.654 -2.753,-0.601 56.151,-0.827 l 29.374,-0.112 0.704,-0.932 c 0.832,-1.1 1.422,-0.71 1.616,1.069 0.113,1.033 0.326,1.228 1.531,1.4 l 1.4,0.2 -0.061,5.925 c -0.051,4.952 -0.172,6.049 -0.739,6.675 -0.401,0.443 -0.549,0.959 -0.363,1.26 0.732,1.184 0.869,4.111 0.24,5.13 -1.873,3.036 -2.247,3.21 -6.923,3.21 -3.477,0 -4.424,0.127 -4.963,0.667 -0.562,0.561 -0.871,0.593 -1.957,0.2 -0.71,-0.257 -2.055,-0.467 -2.989,-0.467 -2.561,0 -3.327,-0.554 -3.022,-2.184 0.5,-2.666 -0.43,-3.023 -7.723,-2.969 -10.873,0.082 -11.672,1.053 -1.019,1.24 7.766,0.135 7.562,0.019 7.404,4.23 -0.134,3.552 -0.416,4.026 -1.974,3.314 -0.84,-0.384 -6.908,-0.558 -24.911,-0.714 -23.944,-0.208 -25.593,-0.32 -23.7,-1.604 0.495,-0.336 0.9,-0.846 0.9,-1.135 0,-0.288 0.36,-0.638 0.8,-0.778 0.879,-0.279 1.039,-0.805 0.369,-1.219 -0.236,-0.146 -0.778,0.107 -1.202,0.563 -0.765,0.82 -1.012,0.828 -25.654,0.847 -13.685,0.01 -25.013,0.151 -25.174,0.314 -0.16,0.162 -0.347,1.195 -0.415,2.295 -0.181,2.925 -1.253,2.785 -1.524,-0.2 l -0.2,-2.2 h -1.375 c -1.203,0 -1.414,0.155 -1.698,1.25 -0.178,0.687 -0.595,1.474 -0.925,1.749 -1.107,0.918 -0.71,2.397 1.067,3.973 2.021,1.794 1.792,2.428 -0.879,2.428 -1.525,0 -2.053,0.171 -2.373,0.767 -0.226,0.423 -0.952,0.887 -1.614,1.032 -1.373,0.302 -1.433,0.428 -0.603,1.258 1.426,1.426 -0.408,4.972 -2.8,5.415 -0.661,0.123 -0.8,0.464 -0.8,1.974 0,1.003 -0.241,2.116 -0.535,2.472 -0.333,0.403 -0.484,1.371 -0.4,2.565 l 0.135,1.917 -2.281,0.119 c -2.301,0.121 -3.501,-0.464 -3.995,-1.948 -0.244,-0.73 -2.596,0.242 -3.166,1.308 -0.57,1.064 -2.558,0.847 -2.558,-0.279 0,-0.575 0.309,-0.836 1.1,-0.927 1.23,-0.141 1.522,-0.873 0.349,-0.873 -1.286,0 -1.82,-1.021 -1.084,-2.072 0.349,-0.498 0.635,-1.67 0.635,-2.603 0,-1.287 0.193,-1.8 0.8,-2.125 0.517,-0.277 0.8,-0.838 0.8,-1.586 0,-0.636 0.261,-1.418 0.58,-1.737 0.319,-0.319 0.696,-1.039 0.836,-1.599 0.141,-0.561 0.6,-1.33 1.02,-1.711 0.42,-0.38 0.766,-1.068 0.768,-1.529 0.002,-0.473 0.698,-1.449 1.596,-2.238 2.092,-1.84 2.314,-4.597 0.5,-6.222 -0.605,-0.542 -1.479,-1.344 -1.942,-1.782 -0.761,-0.719 -1.401,-0.796 -6.646,-0.796 -5.369,0 -5.888,-0.066 -6.919,-0.877 -1.499,-1.179 -7.266,-1.112 -9.24,0.107 -0.824,0.509 -1.978,0.771 -3.4,0.773 -1.475,0.001 -2.531,0.252 -3.353,0.797 -0.859,0.569 -1.881,0.796 -3.6,0.8 -1.719,0.004 -2.741,0.231 -3.6,0.8 -0.863,0.571 -1.878,0.795 -3.611,0.797 -1.641,0.002 -2.727,0.225 -3.4,0.699 -0.601,0.422 -2.112,0.788 -3.849,0.931 -1.886,0.156 -3.088,0.464 -3.529,0.904 -0.461,0.462 -1.345,0.669 -2.856,0.669 -1.608,0 -2.494,0.227 -3.346,0.856 l -1.158,0.857 -1.225,-1.226 c -1.525,-1.524 -1.702,-4.386 -0.426,-6.887 1.066,-2.089 1.21,-15.246 0.189,-17.221 -0.57,-1.102 -0.553,-1.26 0.248,-2.343 l 0.859,-1.162 16.277,-0.051 c 15.868,-0.05 16.296,-0.031 17.01,0.758 0.583,0.645 1.039,0.761 2.234,0.57 1.528,-0.245 4.383,0.437 4.383,1.047 0,1.78 7.996,1.233 9.967,-0.682 0.778,-0.755 1.919,-1.473 2.537,-1.597 0.619,-0.124 1.304,-0.561 1.524,-0.972 0.312,-0.582 0.86,-0.748 2.486,-0.749 1.147,-0.002 2.602,-0.272 3.232,-0.6 0.63,-0.329 1.395,-0.598 1.7,-0.598 0.843,0 0.661,0.679 -0.246,0.916 -0.925,0.242 -1.027,1.02 -0.27,2.057 0.64,0.875 2.112,0.554 2.458,-0.536 0.775,-2.442 6.409,-3.84 8.212,-2.037 m -8.472,1.3 c -0.092,0.65 -0.397,0.9 -1.095,0.9 -1.284,0 -1.484,-0.758 -0.344,-1.307 1.351,-0.651 1.58,-0.586 1.439,0.407 m -61.04,3.032 c -1.006,0.649 -0.483,11.04 0.563,11.189 0.625,0.09 0.918,-0.144 1.102,-0.877 0.211,-0.84 0.52,-1.018 1.949,-1.121 L 103.8,220.6 v -3 -3 l -1.6,-0.2 c -1.473,-0.184 -1.616,-0.311 -1.8,-1.595 -0.202,-1.412 -0.938,-1.902 -1.912,-1.273 m 5.112,6.068 v 2.8 h -1.344 -1.345 l -0.225,-2.487 c -0.272,-2.992 -0.212,-3.113 1.538,-3.113 h 1.376 v 2.8 m 99.2,-2.643 c 0,0.389 1.127,0.535 1.636,0.212 0.411,-0.26 0.265,-0.358 -0.536,-0.363 -0.605,-0.003 -1.1,0.065 -1.1,0.151 m -39.393,1.432 c -0.585,0.947 0.47,1.155 5.5,1.085 4.405,-0.062 5.293,-0.175 5.293,-0.674 0,-0.733 -10.35,-1.127 -10.793,-0.411 m 55.819,-0.02 c -0.481,0.31 -0.488,0.475 -0.042,1.012 0.895,1.078 10.616,0.73 10.616,-0.381 0,-0.886 -9.316,-1.441 -10.574,-0.631 M 166.4,216.8 c 0,0.22 -0.54,0.4 -1.2,0.4 -0.66,0 -1.2,-0.18 -1.2,-0.4 0,-0.22 0.54,-0.4 1.2,-0.4 0.66,0 1.2,0.18 1.2,0.4 m 3.6,0 c 0,0.22 -0.45,0.4 -1,0.4 -0.55,0 -1,-0.18 -1,-0.4 0,-0.22 0.45,-0.4 1,-0.4 0.55,0 1,0.18 1,0.4 m 4,0 c 0,0.22 -0.72,0.4 -1.6,0.4 -0.88,0 -1.6,-0.18 -1.6,-0.4 0,-0.22 0.72,-0.4 1.6,-0.4 0.88,0 1.6,0.18 1.6,0.4 m 55.6,0.005 c 0,0.237 -1.836,0.395 -4.6,0.395 -2.53,0 -4.73,0.013 -4.89,0.03 -0.16,0.017 -0.349,-0.147 -0.421,-0.362 -0.08,-0.242 1.801,-0.405 4.89,-0.426 3.063,-0.02 5.021,0.122 5.021,0.363 M 239.8,220 c -0.317,0.513 1.407,0.513 2.2,0 0.457,-0.295 0.295,-0.389 -0.676,-0.394 -0.702,-0.003 -1.388,0.174 -1.524,0.394 m 28.741,0.055 c 0.517,0.301 1,0.305 1.6,0.015 0.749,-0.363 0.655,-0.418 -0.741,-0.431 -1.331,-0.012 -1.475,0.058 -0.859,0.416 m 3.43,-0.082 c 0.716,0.453 13.987,0.418 14.269,-0.038 0.114,-0.184 -3.178,-0.332 -7.316,-0.329 -4.632,0.004 -7.305,0.145 -6.953,0.367 M 109.4,221.6 c -0.14,0.226 0.188,0.4 0.753,0.4 0.55,0 1.111,-0.18 1.247,-0.4 0.14,-0.226 -0.188,-0.4 -0.753,-0.4 -0.55,0 -1.111,0.18 -1.247,0.4 m 36.411,2.782 c -0.552,0.894 0.275,2.373 1.475,2.637 1.428,0.314 3.41,-1.271 2.983,-2.384 -0.275,-0.716 -4.04,-0.93 -4.458,-0.253 m 64.014,-0.023 c -0.563,0.912 0.275,2.841 1.235,2.841 1.013,0 1.969,-1.626 1.569,-2.669 -0.228,-0.594 -2.458,-0.731 -2.804,-0.172 M 150,224.771 c 0,0.995 -2.109,2.054 -2.963,1.488 -1.671,-1.107 -1.293,-1.859 0.934,-1.859 1.116,0 2.029,0.167 2.029,0.371 m 62.394,-0.071 c -0.028,1.365 -2.065,1.713 -2.319,0.395 -0.103,-0.538 0.143,-0.695 1.096,-0.695 0.676,0 1.226,0.135 1.223,0.3 m 77.206,1.239 c -1.231,0.229 -1.4,0.406 -1.4,1.461 v 1.2 h 2.995 c 2.36,0 3.019,-0.129 3.111,-0.608 0.313,-1.625 -1.878,-2.581 -4.706,-2.053 M 98.006,226.3 c 0.018,0.877 0.782,1.459 0.788,0.6 0.003,-0.495 -0.174,-0.9 -0.394,-0.9 -0.22,0 -0.397,0.135 -0.394,0.3 m 195.263,0.762 c 1.218,1.103 0.854,1.338 -2.069,1.338 -2.18,0 -2.8,-0.129 -2.8,-0.58 0,-1.389 3.559,-1.943 4.869,-0.758 m -61.043,0.446 c -0.426,0.098 -1.295,0.7 -1.931,1.336 L 229.138,230 h 1.011 c 0.556,0 1.187,-0.315 1.403,-0.7 0.359,-0.643 1.556,-0.709 14.72,-0.808 14.216,-0.108 16.342,-0.239 14.728,-0.911 -0.81,-0.337 -27.347,-0.405 -28.774,-0.073 m -133.959,3.959 c -0.415,0.415 -0.314,1.733 0.133,1.733 0.22,0 0.4,-0.45 0.4,-1 0,-1.047 -0.092,-1.174 -0.533,-0.733"
       inkscape:connector-curvature="0"
       style="fill:#848484;fill-rule:evenodd;stroke:none" />
  </g>
</svg>
