<?xml version="1.0" encoding="UTF-8" standalone="no"?>
<svg
   xmlns:dc="http://purl.org/dc/elements/1.1/"
   xmlns:cc="http://creativecommons.org/ns#"
   xmlns:rdf="http://www.w3.org/1999/02/22-rdf-syntax-ns#"
   xmlns:svg="http://www.w3.org/2000/svg"
   xmlns="http://www.w3.org/2000/svg"
   xmlns:sodipodi="http://sodipodi.sourceforge.net/DTD/sodipodi-0.dtd"
   xmlns:inkscape="http://www.inkscape.org/namespaces/inkscape"
   id="svg"
   version="1.1"
   width="60.172955"
   height="45.666439"
   viewBox="0 0 60.172955 45.666439"
   sodipodi:docname="Sidearm.svg"
   inkscape:version="0.92.4 (5da689c313, 2019-01-14)">
  <metadata
     id="metadata260">
    <rdf:RDF>
      <cc:Work
         rdf:about="">
        <dc:format>image/svg+xml</dc:format>
        <dc:type
           rdf:resource="http://purl.org/dc/dcmitype/StillImage" />
      </cc:Work>
    </rdf:RDF>
  </metadata>
  <defs
     id="defs258" />
  <sodipodi:namedview
     pagecolor="#ffffff"
     bordercolor="#666666"
     borderopacity="1"
     objecttolerance="10"
     gridtolerance="10"
     guidetolerance="10"
     inkscape:pageopacity="0"
     inkscape:pageshadow="2"
     inkscape:window-width="640"
     inkscape:window-height="480"
     id="namedview256"
     showgrid="false"
     inkscape:zoom="0.59"
     inkscape:cx="29.372953"
     inkscape:cy="193.79426"
     inkscape:window-x="0"
     inkscape:window-y="0"
     inkscape:window-maximized="0"
     inkscape:current-layer="svg" />
  <g
     id="svgg"
     transform="translate(-170.62705,-180.33121)">
    <path
       id="path0"
       d="m 180.7,181.871 c -0.369,0.369 -1.442,0.774 -2.385,0.9 L 176.6,183 l -0.121,2.558 c -0.154,3.282 0.038,3.822 1.149,3.227 0.548,-0.293 3.778,-0.444 9.306,-0.434 4.656,0.009 9.163,-0.169 10.015,-0.396 0.852,-0.227 2.517,-0.379 3.7,-0.338 3.581,0.124 4.372,0.119 15.151,-0.085 11.297,-0.213 11.977,-0.165 11.593,0.821 -0.451,1.158 -0.404,1.397 0.307,1.553 0.48,0.105 0.7,-0.093 0.7,-0.63 0,-0.446 0.344,-0.873 0.8,-0.992 1.379,-0.36 1.158,-4.814 -0.3,-6.069 -0.787,-0.677 -1.241,-0.83 -1.595,-0.536 -0.272,0.226 -0.954,0.295 -1.516,0.154 -0.639,-0.16 -1.347,-0.028 -1.894,0.355 -0.746,0.523 -3.063,0.612 -15.895,0.612 -13.121,0 -15.138,0.081 -15.935,0.64 -0.845,0.591 -0.974,0.585 -1.705,-0.076 -0.579,-0.524 -1.321,-0.687 -2.774,-0.61 -1.513,0.08 -2.235,-0.092 -3.039,-0.724 -1.275,-1.003 -2.934,-1.071 -3.847,-0.159 m -5.5,10.929 c 0,0.22 0.606,0.4 1.346,0.4 0.74,0 1.804,0.36 2.363,0.8 0.56,0.44 1.138,0.8 1.285,0.8 1.848,0 3.329,4.342 1.806,5.293 -0.503,0.314 -0.8,0.933 -0.8,1.665 0,0.832 -0.436,1.576 -1.526,2.603 -1.671,1.575 -3.274,3.991 -3.274,4.932 0,0.33 -0.36,1.057 -0.8,1.616 -1.09,1.386 -1.095,4.261 -0.008,5.191 0.756,0.648 0.734,1.9 -0.035,1.9 -1.418,0 0.086,0.734 1.884,0.919 1.233,0.128 2.552,0.513 2.932,0.856 0.379,0.344 1.158,0.625 1.73,0.625 1.263,0 2.351,0.993 2.024,1.847 -0.193,0.502 -0.788,0.597 -3.044,0.488 -1.987,-0.096 -2.855,0.011 -2.977,0.365 -0.127,0.369 0.562,0.5 2.628,0.5 1.54,0 3.085,0.109 3.433,0.243 0.4,0.153 0.633,0.027 0.633,-0.344 0,-0.323 0.45,-1.25 1,-2.061 0.55,-0.81 1,-1.978 1,-2.595 0,-0.616 0.36,-1.536 0.8,-2.043 0.44,-0.507 0.8,-1.249 0.8,-1.647 0,-0.399 0.36,-0.918 0.8,-1.153 0.467,-0.25 0.8,-0.838 0.8,-1.411 0,-0.549 0.353,-1.202 0.8,-1.482 0.452,-0.282 0.802,-0.936 0.804,-1.503 0.005,-1.235 2.331,-3.604 3.539,-3.604 0.983,0 1.148,-0.603 0.257,-0.945 -0.33,-0.126 -0.6,-0.499 -0.6,-0.829 0,-0.329 -0.3,-1.228 -0.667,-1.998 -0.608,-1.275 -0.613,-1.533 -0.051,-2.914 0.339,-0.833 0.778,-2.051 0.975,-2.707 0.68,-2.271 3.743,-2.45 3.743,-0.22 0,1.626 0.716,1.555 0.875,-0.087 l 0.125,-1.3 7.691,-0.109 c 7.193,-0.101 7.717,-0.159 8.114,-0.9 0.396,-0.74 0.857,-0.791 7.209,-0.791 4.257,0 6.786,-0.149 6.786,-0.4 0,-0.263 -9.333,-0.4 -27.2,-0.4 -17.867,0 -27.2,0.137 -27.2,0.4 m -3.391,27.185 c -0.131,0.212 0.128,0.752 0.576,1.2 0.871,0.871 4.815,1.211 4.815,0.415 0,-0.22 -0.512,-0.4 -1.138,-0.4 -0.63,0 -1.461,-0.357 -1.862,-0.8 -0.766,-0.847 -1.993,-1.059 -2.391,-0.415"
       inkscape:connector-curvature="0"
       style="fill:#0f0f0f;fill-rule:evenodd;stroke:none" />
    <path
       id="path1"
       d="m -433.89831,198.30508 v 200 h 200 200.000005 v -200 -199.9999953 h -200.000005 -200 V 198.30508 m 185.838,-18.764 c 0.863,0.81 0.934,0.815 2.338,0.149 1.339,-0.636 1.502,-0.638 2.167,-0.036 0.923,0.834 2.393,0.833 3.318,-0.004 0.588,-0.532 0.837,-0.561 1.328,-0.154 1.004,0.833 26.673,0.691 27.88,-0.155 1.467,-1.027 5.543,-0.863 6.869,0.277 1.304,1.12 1.627,6.92 0.44,7.905 -1.354,1.124 -1.482,1.962 -0.366,2.386 0.769,0.293 1.01,0.634 0.916,1.297 -0.126,0.887 -0.217,0.9 -7.019,1.008 -6.367,0.102 -6.923,0.169 -7.309,0.892 -0.39,0.728 -0.948,0.789 -8.109,0.89 l -7.691,0.109 -0.116,1.2 c -0.384,3.966 -2.484,4.14 -2.484,0.205 0,-1.56 -0.44,-1.729 -1.538,-0.588 -1.348,1.4 -1.389,6.782 -0.059,7.785 1.289,0.972 0.914,2.167 -0.729,2.325 -0.753,0.073 -1.426,0.403 -1.566,0.769 -0.136,0.354 -0.576,0.972 -0.977,1.373 -0.402,0.402 -0.731,1.108 -0.731,1.568 0,0.46 -0.36,1.294 -0.8,1.854 -0.44,0.559 -0.8,1.256 -0.8,1.549 0,0.292 -0.36,0.725 -0.8,0.96 -0.446,0.238 -0.8,0.838 -0.8,1.352 0,0.508 -0.36,1.25 -0.8,1.648 -0.536,0.485 -0.8,1.232 -0.8,2.266 0,1.047 -0.257,1.762 -0.8,2.227 -0.44,0.377 -0.8,1.149 -0.8,1.716 0,1.991 -2.173,2.732 -3.493,1.191 -0.523,-0.611 -1.18,-0.8 -2.782,-0.8 -1.687,0 -2.18,-0.156 -2.525,-0.8 -0.359,-0.671 -0.838,-0.8 -2.965,-0.8 -3.781,0 -5.141,-3.081 -1.835,-4.155 1.317,-0.428 1.402,-0.56 1.428,-2.25 0.086,-5.405 0.173,-6.004 0.972,-6.688 0.44,-0.377 0.8,-1.157 0.8,-1.733 0,-0.742 0.703,-1.769 2.4,-3.509 1.622,-1.663 2.4,-2.781 2.4,-3.449 0,-0.578 0.331,-1.165 0.8,-1.416 1.421,-0.761 -0.323,-4 -2.154,-4 -0.338,0 -0.937,-0.345 -1.33,-0.767 -0.394,-0.423 -1.346,-0.828 -2.116,-0.9 -1.732,-0.164 -2.258,-1.715 -0.768,-2.266 0.843,-0.312 0.89,-0.561 0.928,-4.898 l 0.04,-4.569 1.258,-0.122 c 0.692,-0.067 1.575,-0.472 1.962,-0.9 1.047,-1.157 5.566,-1.118 6.818,0.058 m -4.838,9.6 c -1.466,0.329 0.135,0.371 23.121,0.603 11.17,0.113 17.767,0.034 18.2,-0.219 0.643,-0.374 -3.693,-0.456 -32.721,-0.613 -4.07,-0.022 -7.94,0.081 -8.6,0.229 m 42.8,0.364 c 0.136,0.22 0.586,0.4 1,0.4 0.414,0 0.864,-0.18 1,-0.4 0.145,-0.234 -0.27,-0.4 -1,-0.4 -0.73,0 -1.145,0.166 -1,0.4"
       inkscape:connector-curvature="0"
       style="fill:#fcfcfc;fill-rule:evenodd;stroke:none" />
    <path
       id="path2"
       d="m 189.046,181.526 c -0.108,0.175 0.332,0.517 0.979,0.761 1.432,0.54 1.49,0.411 0.196,-0.437 -0.539,-0.352 -1.068,-0.498 -1.175,-0.324 m -2.546,0.75 c 0.385,0.1 1.015,0.1 1.4,0 0.385,-0.101 0.07,-0.183 -0.7,-0.183 -0.77,0 -1.085,0.082 -0.7,0.183 m 15.574,0.023 c 3.671,0.066 9.791,0.066 13.6,0 3.809,-0.065 0.806,-0.119 -6.674,-0.119 -7.48,-0.001 -10.597,0.053 -6.926,0.119 m -26.346,3.301 c 0,1.43 0.073,2.015 0.161,1.3 0.089,-0.715 0.089,-1.885 0,-2.6 -0.088,-0.715 -0.161,-0.13 -0.161,1.3 m 54.786,-0.6 c 0.003,1.1 0.081,1.503 0.173,0.895 0.092,-0.609 0.09,-1.509 -0.005,-2 -0.095,-0.492 -0.171,0.005 -0.168,1.105 m -47.114,4.229 c -2.691,0.221 -2.722,0.235 -0.8,0.363 1.1,0.074 2.27,0.101 2.6,0.06 2.281,-0.281 11.603,-0.051 12.526,0.309 0.757,0.295 5.673,0.409 15,0.349 l 13.874,-0.09 -14.2,-0.21 c -7.81,-0.116 -14.435,-0.362 -14.723,-0.548 -0.622,-0.401 -10.292,-0.559 -14.277,-0.233 m -6,0.798 c -0.66,0.423 -0.93,0.769 -0.6,0.768 0.33,0 1.14,-0.358 1.8,-0.795 0.66,-0.437 0.93,-0.783 0.6,-0.768 -0.33,0.015 -1.14,0.372 -1.8,0.795 m 51.02,0.149 c -0.265,0.32 -0.772,0.464 -1.136,0.324 -0.58,-0.223 -0.589,-0.179 -0.074,0.373 0.523,0.56 1.99,-0.277 1.99,-1.134 0,-0.295 -0.322,-0.115 -0.78,0.437 M 190.7,191.9 c 6.655,0.061 17.545,0.061 24.2,0 6.655,-0.062 1.21,-0.112 -12.1,-0.112 -13.31,0 -18.755,0.05 -12.1,0.112 m -14.536,1.993 c 0.64,0.095 1.63,0.449 2.2,0.787 l 1.036,0.615 -1,-0.839 c -0.58,-0.486 -1.504,-0.817 -2.2,-0.787 l -1.2,0.051 1.164,0.173 m 39.598,0.607 c -0.759,0.897 -0.759,0.898 0.057,0.211 0.679,-0.57 1.846,-0.71 6.8,-0.811 l 5.981,-0.123 -6.038,-0.089 c -5.823,-0.085 -6.065,-0.056 -6.8,0.812 m -19.68,1.612 c -0.485,0.517 -0.882,1.087 -0.882,1.268 0,0.18 0.373,-0.146 0.829,-0.726 0.855,-1.088 1.752,-1.361 2.108,-0.644 0.112,0.226 0.157,0.181 0.1,-0.1 -0.177,-0.876 -1.234,-0.777 -2.155,0.202 m 4.185,-0.645 c -0.147,0.146 -0.264,0.461 -0.261,0.7 0.004,0.264 0.128,0.242 0.318,-0.057 0.22,-0.347 2.291,-0.525 7.093,-0.61 l 6.783,-0.121 -6.833,-0.089 c -3.759,-0.05 -6.954,0.03 -7.1,0.177 M 181.8,198.4 c 0,0.838 0.135,1.44 0.3,1.338 0.165,-0.102 0.3,-0.704 0.3,-1.338 0,-0.634 -0.135,-1.236 -0.3,-1.338 -0.165,-0.102 -0.3,0.5 -0.3,1.338 m 12.829,1.429 c -0.148,0.586 -0.191,1.143 -0.097,1.237 0.095,0.094 0.292,-0.308 0.439,-0.895 0.148,-0.586 0.191,-1.143 0.097,-1.237 -0.095,-0.094 -0.292,0.308 -0.439,0.895 m -14.277,2.084 c -0.131,0.794 -0.073,1.168 0.149,0.946 0.202,-0.202 0.3,-0.792 0.218,-1.313 -0.126,-0.801 -0.182,-0.744 -0.367,0.367 m 13.07,5.587 c -0.666,1.094 -0.665,1.095 0.089,0.236 0.417,-0.475 1.193,-0.945 1.724,-1.045 0.944,-0.178 0.942,-0.183 -0.089,-0.237 -0.754,-0.039 -1.244,0.259 -1.724,1.046 m -19.308,6.3 c 0.003,1.1 0.081,1.503 0.173,0.895 0.092,-0.609 0.09,-1.509 -0.005,-2 -0.095,-0.492 -0.171,0.005 -0.168,1.105 m 0.483,3.804 c -0.429,0.638 -1.234,1.232 -1.788,1.318 l -1.009,0.158 1.025,0.06 c 0.92,0.054 3.174,-2.075 2.699,-2.55 -0.081,-0.08 -0.498,0.376 -0.927,1.014 M 175.8,220 c -0.143,0.231 0.236,0.4 0.896,0.4 0.629,0 1.357,0.213 1.617,0.473 0.59,0.59 1.067,0.172 0.749,-0.656 -0.268,-0.698 -2.858,-0.871 -3.262,-0.217 m 4.827,1.159 c -0.536,0.21 -0.627,0.394 -0.297,0.598 0.262,0.161 0.758,0.013 1.102,-0.331 0.671,-0.671 0.43,-0.751 -0.805,-0.267 M 174,222.623 c 1.486,0.324 3.526,0.38 3.348,0.093 -0.107,-0.174 -1.04,-0.295 -2.072,-0.27 -1.032,0.026 -1.606,0.106 -1.276,0.177 m 6,1.659 c 0.99,0.078 2.361,0.434 3.048,0.793 1.424,0.743 2.574,0.485 2.506,-0.562 -0.044,-0.668 -0.058,-0.669 -0.23,-0.013 -0.221,0.847 -1.245,0.886 -2.3,0.087 -0.483,-0.365 -1.543,-0.561 -2.8,-0.517 l -2.024,0.07 1.8,0.142"
       inkscape:connector-curvature="0"
       style="fill:#9c9c9c;fill-rule:evenodd;stroke:none" />
    <path
       id="path3"
       d="m 180.014,181.475 c -0.53,0.371 -1.605,0.781 -2.389,0.909 l -1.425,0.234 v 3.659 c 0,4.128 0.164,4.501 1.576,3.575 1.26,-0.825 18.65,-1.095 20.114,-0.311 0.597,0.319 4.992,0.459 14.458,0.459 7.569,0 14.041,0.168 14.594,0.378 2.885,1.097 4.898,-6.106 2.358,-8.438 -1.319,-1.211 -3.918,-1.292 -6.025,-0.188 -1.189,0.623 -19.769,1.014 -31.675,0.666 -0.77,-0.023 -2.279,-0.036 -3.353,-0.029 -1.271,0.007 -2.404,-0.268 -3.247,-0.789 -1.581,-0.977 -3.693,-1.03 -4.986,-0.125 m 4.533,0.555 c 0.804,0.632 1.526,0.804 3.039,0.724 1.453,-0.077 2.195,0.086 2.774,0.61 0.731,0.661 0.86,0.667 1.705,0.076 0.797,-0.559 2.814,-0.64 15.935,-0.64 12.832,0 15.149,-0.089 15.895,-0.612 0.547,-0.383 1.255,-0.515 1.894,-0.355 0.562,0.141 1.244,0.072 1.516,-0.154 0.354,-0.294 0.808,-0.141 1.595,0.536 1.458,1.255 1.679,5.709 0.3,6.069 -0.456,0.119 -0.8,0.546 -0.8,0.992 0,0.537 -0.22,0.735 -0.7,0.63 -0.711,-0.156 -0.758,-0.395 -0.307,-1.553 0.384,-0.986 -0.296,-1.034 -11.593,-0.821 -10.779,0.204 -11.57,0.209 -15.151,0.085 -1.183,-0.041 -2.848,0.111 -3.7,0.338 -0.852,0.227 -5.359,0.405 -10.015,0.396 -5.528,-0.01 -8.758,0.141 -9.306,0.434 -1.111,0.595 -1.303,0.055 -1.149,-3.227 L 176.6,183 l 1.715,-0.229 c 0.943,-0.126 2.016,-0.531 2.385,-0.9 0.913,-0.912 2.572,-0.844 3.847,0.159 m -9.024,9.988 c -1.448,0.342 -1.138,1.362 0.459,1.513 0.761,0.073 1.869,0.478 2.462,0.9 0.594,0.423 1.201,0.769 1.349,0.769 1.738,0 3.254,4.026 1.807,4.8 -0.487,0.261 -0.8,0.838 -0.8,1.476 0,0.695 -0.513,1.53 -1.526,2.485 -1.591,1.5 -3.274,3.98 -3.274,4.823 0,0.269 -0.36,0.947 -0.8,1.507 -1.059,1.346 -1.15,5.473 -0.134,6.042 0.998,0.559 -0.706,2.599 -2.397,2.871 -1.108,0.178 -1.259,0.349 -1.187,1.349 0.111,1.549 0.18,1.588 3.145,1.776 2.024,0.129 2.684,0.331 2.998,0.918 0.317,0.591 0.857,0.753 2.513,0.753 1.235,0 2.431,0.243 2.886,0.587 1.287,0.974 2.083,0.746 2.396,-0.687 0.156,-0.715 0.621,-1.729 1.032,-2.254 0.411,-0.525 0.748,-1.486 0.748,-2.137 0,-0.65 0.36,-1.64 0.8,-2.2 0.44,-0.559 0.8,-1.346 0.8,-1.749 0,-0.402 0.36,-0.925 0.8,-1.16 0.44,-0.235 0.8,-0.758 0.8,-1.16 0,-0.403 0.36,-1.19 0.8,-1.749 0.44,-0.56 0.8,-1.313 0.8,-1.675 0,-1.215 2.111,-3.416 3.276,-3.416 1.385,0 1.857,-0.767 0.903,-1.465 -1.199,-0.877 -1.803,-3.966 -1.221,-6.247 0.831,-3.254 3.433,-4.764 3.448,-2.001 0.014,2.578 1.154,2.736 1.563,0.217 l 0.244,-1.504 7.439,-0.109 c 6.827,-0.099 7.499,-0.173 8.156,-0.9 0.659,-0.728 1.248,-0.791 7.43,-0.791 6.506,0 7.875,-0.247 6.879,-1.243 -0.398,-0.398 -52.966,-0.724 -54.594,-0.339 M 229.6,192.8 c 0,0.251 -2.529,0.4 -6.786,0.4 -6.352,0 -6.813,0.051 -7.209,0.791 -0.397,0.741 -0.921,0.799 -8.114,0.9 L 199.8,195 l -0.125,1.3 c -0.159,1.642 -0.875,1.713 -0.875,0.087 0,-2.23 -3.063,-2.051 -3.743,0.22 -0.197,0.656 -0.636,1.874 -0.975,2.707 -0.562,1.381 -0.557,1.639 0.051,2.914 0.367,0.77 0.667,1.669 0.667,1.998 0,0.33 0.27,0.703 0.6,0.829 0.891,0.342 0.726,0.945 -0.257,0.945 -1.208,0 -3.534,2.369 -3.539,3.604 -0.002,0.567 -0.352,1.221 -0.804,1.503 -0.447,0.28 -0.8,0.933 -0.8,1.482 0,0.573 -0.333,1.161 -0.8,1.411 -0.44,0.235 -0.8,0.754 -0.8,1.153 0,0.398 -0.36,1.14 -0.8,1.647 -0.44,0.507 -0.8,1.427 -0.8,2.043 0,0.617 -0.45,1.785 -1,2.595 -0.55,0.811 -1,1.738 -1,2.061 0,0.371 -0.233,0.497 -0.633,0.344 -0.348,-0.134 -1.893,-0.243 -3.433,-0.243 -2.066,0 -2.755,-0.131 -2.628,-0.5 0.122,-0.354 0.99,-0.461 2.977,-0.365 2.256,0.109 2.851,0.014 3.044,-0.488 0.327,-0.854 -0.761,-1.847 -2.024,-1.847 -0.572,0 -1.351,-0.281 -1.73,-0.625 -0.38,-0.343 -1.699,-0.728 -2.932,-0.856 -1.798,-0.185 -3.302,-0.919 -1.884,-0.919 0.769,0 0.791,-1.252 0.035,-1.9 -1.087,-0.93 -1.082,-3.805 0.008,-5.191 0.44,-0.559 0.8,-1.286 0.8,-1.616 0,-0.941 1.603,-3.357 3.274,-4.932 1.09,-1.027 1.526,-1.771 1.526,-2.603 0,-0.732 0.297,-1.351 0.8,-1.665 1.523,-0.951 0.042,-5.293 -1.806,-5.293 -0.147,0 -0.725,-0.36 -1.285,-0.8 -0.559,-0.44 -1.623,-0.8 -2.363,-0.8 -0.74,0 -1.346,-0.18 -1.346,-0.4 0,-0.263 9.333,-0.4 27.2,-0.4 17.867,0 27.2,0.137 27.2,0.4 m -50.475,27.7 c 0.143,0.75 -0.515,0.963 -0.925,0.3 -0.136,-0.22 -0.957,-0.4 -1.824,-0.4 -1.409,0 -1.925,-0.317 -1.389,-0.853 0.514,-0.514 4.011,0.291 4.138,0.953 m -4.925,-0.1 c 0.401,0.443 1.232,0.8 1.862,0.8 0.626,0 1.138,0.18 1.138,0.4 0,0.796 -3.944,0.456 -4.815,-0.415 -0.448,-0.448 -0.707,-0.988 -0.576,-1.2 0.398,-0.644 1.625,-0.432 2.391,0.415 m 8.833,0.8 c 0.873,0 0.671,0.679 -0.276,0.927 -1.299,0.34 -3.228,-0.504 -2.157,-0.943 0.44,-0.18 1.04,-0.251 1.333,-0.156 0.293,0.095 0.788,0.172 1.1,0.172"
       inkscape:connector-curvature="0"
       style="fill:#646464;fill-rule:evenodd;stroke:none" />
    <path
       id="path4"
       d="m 179,181.2 c -0.398,0.44 -0.538,0.8 -0.311,0.8 0.227,0 0.628,-0.259 0.891,-0.576 0.263,-0.317 0.87,-0.652 1.349,-0.746 0.755,-0.146 0.733,-0.176 -0.167,-0.224 -0.586,-0.03 -1.353,0.294 -1.762,0.746 m 4.871,-0.522 c 0.479,0.094 1.086,0.429 1.349,0.746 0.263,0.317 0.664,0.576 0.891,0.576 0.227,0 0.087,-0.36 -0.311,-0.8 -0.409,-0.452 -1.176,-0.776 -1.762,-0.746 -0.9,0.048 -0.922,0.078 -0.167,0.224 m 39.074,0.306 c -0.533,0.373 -2.114,0.632 -4.389,0.717 l -3.556,0.134 3.8,0.07 c 2.808,0.051 4.003,-0.084 4.576,-0.518 1.519,-1.148 5.192,-0.778 6.388,0.644 0.57,0.677 1.036,0.997 1.036,0.712 0,-1.973 -5.72,-3.255 -7.855,-1.759 M 188,181.433 c -0.963,0.534 -0.967,0.555 -0.124,0.561 0.482,0.003 0.99,-0.177 1.128,-0.401 0.157,-0.254 0.657,-0.122 1.324,0.347 0.732,0.515 1.326,0.653 1.872,0.435 0.71,-0.283 0.682,-0.322 -0.251,-0.347 -0.578,-0.015 -1.275,-0.298 -1.549,-0.628 -0.593,-0.714 -1.065,-0.708 -2.4,0.033 m 5.652,-0.096 c -0.369,0.444 0.332,0.535 4.051,0.526 3.788,-0.009 3.962,-0.033 1.1,-0.154 -1.868,-0.079 -3.569,-0.315 -3.78,-0.526 -0.519,-0.519 -0.843,-0.482 -1.371,0.154 m 10.848,0.539 c 0.385,0.1 1.015,0.1 1.4,0 0.385,-0.101 0.07,-0.183 -0.7,-0.183 -0.77,0 -1.085,0.082 -0.7,0.183 m 4.8,0.015 c 0.825,0.087 2.175,0.087 3,0 0.825,-0.086 0.15,-0.157 -1.5,-0.157 -1.65,0 -2.325,0.071 -1.5,0.157 m 21.154,5.609 c -0.029,0.495 -0.369,1.247 -0.754,1.671 -1.89,2.083 -2.043,2.429 -1.076,2.429 0.343,0 0.521,-0.165 0.397,-0.366 -0.125,-0.202 0.238,-0.918 0.805,-1.592 0.66,-0.785 0.969,-1.553 0.857,-2.134 l -0.174,-0.908 -0.055,0.9 m -54.725,2.173 0.071,1.872 8.4,-0.051 8.4,-0.051 -6.4,-0.222 c -8.113,-0.28 -5.641,-0.729 3.6,-0.654 3.74,0.031 12.74,0.098 20,0.15 8.702,0.063 12.996,0.227 12.6,0.483 -0.466,0.301 -0.349,0.389 0.524,0.394 0.648,0.003 1.019,-0.163 0.876,-0.394 -0.145,-0.234 0.27,-0.4 1,-0.4 0.73,0 1.145,0.166 1,0.4 -0.14,0.227 0.196,0.4 0.776,0.4 1.137,0 1.374,-0.58 0.391,-0.957 -0.348,-0.134 -6.816,-0.243 -14.374,-0.243 -9.023,0 -14.127,-0.151 -14.867,-0.439 -1.099,-0.428 -11.71,-0.652 -12.386,-0.261 -0.187,0.108 -1.501,0.055 -2.92,-0.118 -2.257,-0.274 -2.767,-0.206 -4.073,0.546 -1.676,0.964 -1.904,0.867 -2.364,-1.008 -0.297,-1.208 -0.318,-1.161 -0.254,0.553 m 19.371,1.809 c 0.495,0.096 1.305,0.096 1.8,0 0.495,-0.095 0.09,-0.173 -0.9,-0.173 -0.99,0 -1.395,0.078 -0.9,0.173 m -20.955,0.718 c -0.31,0.808 0.11,1.807 0.742,1.768 0.402,-0.024 0.405,-0.075 0.013,-0.233 -0.275,-0.111 -0.5,-0.532 -0.5,-0.935 0,-0.403 0.225,-0.824 0.5,-0.935 0.392,-0.158 0.389,-0.209 -0.013,-0.233 -0.281,-0.018 -0.616,0.238 -0.742,0.568 m 55.818,-0.048 c 0.617,0.747 0.313,1.245 -0.963,1.581 -0.478,0.126 -0.317,0.182 0.4,0.139 1.324,-0.079 1.795,-1.809 0.6,-2.204 -0.52,-0.172 -0.525,-0.107 -0.037,0.484 m -52.476,2.53 c 0.118,0.307 0.747,0.665 1.398,0.795 0.651,0.13 1.279,0.486 1.396,0.791 0.117,0.305 0.597,0.756 1.066,1.002 0.697,0.366 0.656,0.249 -0.224,-0.642 -1.362,-1.379 -3.95,-2.765 -3.636,-1.946 m 38.533,-0.106 c -0.263,0.317 -0.87,0.652 -1.349,0.746 -0.721,0.14 -0.684,0.178 0.215,0.224 0.714,0.035 1.232,-0.22 1.514,-0.746 0.5,-0.934 0.305,-1.049 -0.38,-0.224 m -17.979,2.705 c -0.043,1.135 0.694,3.119 1.159,3.119 0.465,0 1.202,-1.984 1.159,-3.119 -0.038,-1.006 -0.063,-0.989 -0.354,0.239 -0.172,0.726 -0.423,1.431 -0.559,1.567 -0.377,0.377 -0.708,-0.115 -1.051,-1.567 -0.291,-1.228 -0.316,-1.245 -0.354,-0.239 m -2.95,1.919 c -0.322,2.402 0.111,4.795 0.966,5.328 0.803,0.502 0.998,1.679 0.333,2.009 -0.225,0.112 -0.18,0.157 0.1,0.1 0.888,-0.18 0.835,-1.539 -0.087,-2.235 -0.777,-0.586 -0.88,-1.03 -0.87,-3.733 0.014,-3.417 -0.121,-3.864 -0.442,-1.469 m -17.317,5.481 c -1.533,1.608 -2.162,2.581 -2.134,3.3 0.034,0.884 0.074,0.913 0.3,0.219 0.397,-1.222 1.71,-3.039 3.243,-4.491 0.761,-0.72 1.244,-1.309 1.074,-1.309 -0.17,0 -1.287,1.026 -2.483,2.281 m 15.325,3.496 c -0.384,0.281 -0.699,0.716 -0.699,0.967 0,0.251 0.375,0.081 0.833,-0.377 0.969,-0.969 0.885,-1.335 -0.134,-0.59 m -18.47,1.652 c -0.346,0.345 -0.618,1.02 -0.604,1.5 0.024,0.829 0.045,0.824 0.416,-0.107 0.215,-0.539 0.586,-1.214 0.824,-1.5 0.609,-0.734 0.122,-0.652 -0.636,0.107 m 16.871,1.583 c -0.995,1.334 -0.872,2.115 0.132,0.838 0.458,-0.582 0.773,-1.219 0.7,-1.417 -0.073,-0.197 -0.447,0.063 -0.832,0.579 m -1.8,3.154 c -0.495,0.474 -0.9,1.266 -0.9,1.761 0,0.494 -0.27,1.002 -0.6,1.128 -0.33,0.127 -0.6,0.419 -0.6,0.65 0,0.23 0.36,0.093 0.8,-0.305 0.44,-0.398 0.8,-1.124 0.8,-1.613 0,-0.489 0.405,-1.162 0.9,-1.494 0.495,-0.333 0.81,-0.692 0.7,-0.797 -0.11,-0.106 -0.605,0.196 -1.1,0.67 m -15.856,1.492 c 0.194,1.539 0.107,1.932 -0.505,2.288 -0.55,0.32 -0.586,0.43 -0.139,0.429 0.821,0 2.241,-1.979 1.672,-2.331 -0.238,-0.146 -0.619,-0.712 -0.847,-1.255 -0.338,-0.805 -0.372,-0.644 -0.181,0.869 m -2.777,3.009 c -1.131,1.131 0.091,3.76 1.713,3.687 0.83,-0.038 0.871,-0.083 0.22,-0.243 -1.28,-0.315 -1.8,-0.929 -1.8,-2.127 0,-0.614 0.225,-1.208 0.5,-1.319 0.279,-0.113 0.309,-0.216 0.067,-0.233 -0.239,-0.018 -0.554,0.088 -0.7,0.235 m 16.133,1.671 c 0,0.406 -0.36,1.064 -0.8,1.462 -0.447,0.404 -0.8,1.232 -0.8,1.875 0,1.457 -0.976,1.868 -2.442,1.027 -0.905,-0.519 -1.067,-0.531 -0.889,-0.065 0.645,1.68 3.446,1.01 3.666,-0.877 0.074,-0.638 0.479,-1.482 0.9,-1.876 0.679,-0.635 1.087,-2.284 0.565,-2.284 -0.11,0 -0.2,0.332 -0.2,0.738 m -6,0.862 c 0,0.22 0.461,0.4 1.024,0.4 0.58,0 0.916,-0.173 0.776,-0.4 -0.136,-0.22 -0.597,-0.4 -1.024,-0.4 -0.427,0 -0.776,0.18 -0.776,0.4"
       inkscape:connector-curvature="0"
       style="fill:#a4a4a4;fill-rule:evenodd;stroke:none" />
  </g>
</svg>
