<?xml version="1.0" encoding="UTF-8" standalone="no"?>
<svg
   xmlns:dc="http://purl.org/dc/elements/1.1/"
   xmlns:cc="http://creativecommons.org/ns#"
   xmlns:rdf="http://www.w3.org/1999/02/22-rdf-syntax-ns#"
   xmlns:svg="http://www.w3.org/2000/svg"
   xmlns="http://www.w3.org/2000/svg"
   xmlns:sodipodi="http://sodipodi.sourceforge.net/DTD/sodipodi-0.dtd"
   xmlns:inkscape="http://www.inkscape.org/namespaces/inkscape"
   id="svg"
   version="1.1"
   width="400"
   height="400"
   viewBox="0, 0, 400,400"
   sodipodi:docname="Sidearm.svg"
   inkscape:version="0.92.4 (5da689c313, 2019-01-14)">
  <metadata
     id="metadata260">
    <rdf:RDF>
      <cc:Work
         rdf:about="">
        <dc:format>image/svg+xml</dc:format>
        <dc:type
           rdf:resource="http://purl.org/dc/dcmitype/StillImage" />
      </cc:Work>
    </rdf:RDF>
  </metadata>
  <defs
     id="defs258" />
  <sodipodi:namedview
     pagecolor="#ffffff"
     bordercolor="#666666"
     borderopacity="1"
     objecttolerance="10"
     gridtolerance="10"
     guidetolerance="10"
     inkscape:pageopacity="0"
     inkscape:pageshadow="2"
     inkscape:window-width="640"
     inkscape:window-height="480"
     id="namedview256"
     showgrid="false"
     inkscape:zoom="0.59"
     inkscape:cx="200"
     inkscape:cy="200"
     inkscape:window-x="0"
     inkscape:window-y="0"
     inkscape:window-maximized="0"
     inkscape:current-layer="svg" />
  <g
     id="svgg">
    <path
       id="path0"
       d="M180.700 181.871 C 180.331 182.240,179.258 182.645,178.315 182.771 L 176.600 183.000 176.479 185.558 C 176.325 188.840,176.517 189.380,177.628 188.785 C 178.176 188.492,181.406 188.341,186.934 188.351 C 191.590 188.360,196.097 188.182,196.949 187.955 C 197.801 187.728,199.466 187.576,200.649 187.617 C 204.230 187.741,205.021 187.736,215.800 187.532 C 227.097 187.319,227.777 187.367,227.393 188.353 C 226.942 189.511,226.989 189.750,227.700 189.906 C 228.180 190.011,228.400 189.813,228.400 189.276 C 228.400 188.830,228.744 188.403,229.200 188.284 C 230.579 187.924,230.358 183.470,228.900 182.215 C 228.113 181.538,227.659 181.385,227.305 181.679 C 227.033 181.905,226.351 181.974,225.789 181.833 C 225.150 181.673,224.442 181.805,223.895 182.188 C 223.149 182.711,220.832 182.800,208.000 182.800 C 194.879 182.800,192.862 182.881,192.065 183.440 C 191.220 184.031,191.091 184.025,190.360 183.364 C 189.781 182.840,189.039 182.677,187.586 182.754 C 186.073 182.834,185.351 182.662,184.547 182.030 C 183.272 181.027,181.613 180.959,180.700 181.871 M175.200 192.800 C 175.200 193.020,175.806 193.200,176.546 193.200 C 177.286 193.200,178.350 193.560,178.909 194.000 C 179.469 194.440,180.047 194.800,180.194 194.800 C 182.042 194.800,183.523 199.142,182.000 200.093 C 181.497 200.407,181.200 201.026,181.200 201.758 C 181.200 202.590,180.764 203.334,179.674 204.361 C 178.003 205.936,176.400 208.352,176.400 209.293 C 176.400 209.623,176.040 210.350,175.600 210.909 C 174.510 212.295,174.505 215.170,175.592 216.100 C 176.348 216.748,176.326 218.000,175.557 218.000 C 174.139 218.000,175.643 218.734,177.441 218.919 C 178.674 219.047,179.993 219.432,180.373 219.775 C 180.752 220.119,181.531 220.400,182.103 220.400 C 183.366 220.400,184.454 221.393,184.127 222.247 C 183.934 222.749,183.339 222.844,181.083 222.735 C 179.096 222.639,178.228 222.746,178.106 223.100 C 177.979 223.469,178.668 223.600,180.734 223.600 C 182.274 223.600,183.819 223.709,184.167 223.843 C 184.567 223.996,184.800 223.870,184.800 223.499 C 184.800 223.176,185.250 222.249,185.800 221.438 C 186.350 220.628,186.800 219.460,186.800 218.843 C 186.800 218.227,187.160 217.307,187.600 216.800 C 188.040 216.293,188.400 215.551,188.400 215.153 C 188.400 214.754,188.760 214.235,189.200 214.000 C 189.667 213.750,190.000 213.162,190.000 212.589 C 190.000 212.040,190.353 211.387,190.800 211.107 C 191.252 210.825,191.602 210.171,191.604 209.604 C 191.609 208.369,193.935 206.000,195.143 206.000 C 196.126 206.000,196.291 205.397,195.400 205.055 C 195.070 204.929,194.800 204.556,194.800 204.226 C 194.800 203.897,194.500 202.998,194.133 202.228 C 193.525 200.953,193.520 200.695,194.082 199.314 C 194.421 198.481,194.860 197.263,195.057 196.607 C 195.737 194.336,198.800 194.157,198.800 196.387 C 198.800 198.013,199.516 197.942,199.675 196.300 L 199.800 195.000 207.491 194.891 C 214.684 194.790,215.208 194.732,215.605 193.991 C 216.001 193.251,216.462 193.200,222.814 193.200 C 227.071 193.200,229.600 193.051,229.600 192.800 C 229.600 192.537,220.267 192.400,202.400 192.400 C 184.533 192.400,175.200 192.537,175.200 192.800 M171.809 219.985 C 171.678 220.197,171.937 220.737,172.385 221.185 C 173.256 222.056,177.200 222.396,177.200 221.600 C 177.200 221.380,176.688 221.200,176.062 221.200 C 175.432 221.200,174.601 220.843,174.200 220.400 C 173.434 219.553,172.207 219.341,171.809 219.985 "
       stroke="none"
       fill="#0f0f0f"
       fill-rule="evenodd" />
    <path
       id="path1"
       d="m -433.89831,198.30508 v 200 h 200 200.000005 v -200 -199.9999953 h -200.000005 -200 V 198.30508 m 185.838,-18.764 c 0.863,0.81 0.934,0.815 2.338,0.149 1.339,-0.636 1.502,-0.638 2.167,-0.036 0.923,0.834 2.393,0.833 3.318,-0.004 0.588,-0.532 0.837,-0.561 1.328,-0.154 1.004,0.833 26.673,0.691 27.88,-0.155 1.467,-1.027 5.543,-0.863 6.869,0.277 1.304,1.12 1.627,6.92 0.44,7.905 -1.354,1.124 -1.482,1.962 -0.366,2.386 0.769,0.293 1.01,0.634 0.916,1.297 -0.126,0.887 -0.217,0.9 -7.019,1.008 -6.367,0.102 -6.923,0.169 -7.309,0.892 -0.39,0.728 -0.948,0.789 -8.109,0.89 l -7.691,0.109 -0.116,1.2 c -0.384,3.966 -2.484,4.14 -2.484,0.205 0,-1.56 -0.44,-1.729 -1.538,-0.588 -1.348,1.4 -1.389,6.782 -0.059,7.785 1.289,0.972 0.914,2.167 -0.729,2.325 -0.753,0.073 -1.426,0.403 -1.566,0.769 -0.136,0.354 -0.576,0.972 -0.977,1.373 -0.402,0.402 -0.731,1.108 -0.731,1.568 0,0.46 -0.36,1.294 -0.8,1.854 -0.44,0.559 -0.8,1.256 -0.8,1.549 0,0.292 -0.36,0.725 -0.8,0.96 -0.446,0.238 -0.8,0.838 -0.8,1.352 0,0.508 -0.36,1.25 -0.8,1.648 -0.536,0.485 -0.8,1.232 -0.8,2.266 0,1.047 -0.257,1.762 -0.8,2.227 -0.44,0.377 -0.8,1.149 -0.8,1.716 0,1.991 -2.173,2.732 -3.493,1.191 -0.523,-0.611 -1.18,-0.8 -2.782,-0.8 -1.687,0 -2.18,-0.156 -2.525,-0.8 -0.359,-0.671 -0.838,-0.8 -2.965,-0.8 -3.781,0 -5.141,-3.081 -1.835,-4.155 1.317,-0.428 1.402,-0.56 1.428,-2.25 0.086,-5.405 0.173,-6.004 0.972,-6.688 0.44,-0.377 0.8,-1.157 0.8,-1.733 0,-0.742 0.703,-1.769 2.4,-3.509 1.622,-1.663 2.4,-2.781 2.4,-3.449 0,-0.578 0.331,-1.165 0.8,-1.416 1.421,-0.761 -0.323,-4 -2.154,-4 -0.338,0 -0.937,-0.345 -1.33,-0.767 -0.394,-0.423 -1.346,-0.828 -2.116,-0.9 -1.732,-0.164 -2.258,-1.715 -0.768,-2.266 0.843,-0.312 0.89,-0.561 0.928,-4.898 l 0.04,-4.569 1.258,-0.122 c 0.692,-0.067 1.575,-0.472 1.962,-0.9 1.047,-1.157 5.566,-1.118 6.818,0.058 m -4.838,9.6 c -1.466,0.329 0.135,0.371 23.121,0.603 11.17,0.113 17.767,0.034 18.2,-0.219 0.643,-0.374 -3.693,-0.456 -32.721,-0.613 -4.07,-0.022 -7.94,0.081 -8.6,0.229 m 42.8,0.364 c 0.136,0.22 0.586,0.4 1,0.4 0.414,0 0.864,-0.18 1,-0.4 0.145,-0.234 -0.27,-0.4 -1,-0.4 -0.73,0 -1.145,0.166 -1,0.4"
       inkscape:connector-curvature="0"
       style="fill:#fcfcfc;fill-rule:evenodd;stroke:none" />
    <path
       id="path2"
       d="M189.046 181.526 C 188.938 181.701,189.378 182.043,190.025 182.287 C 191.457 182.827,191.515 182.698,190.221 181.850 C 189.682 181.498,189.153 181.352,189.046 181.526 M186.500 182.276 C 186.885 182.376,187.515 182.376,187.900 182.276 C 188.285 182.175,187.970 182.093,187.200 182.093 C 186.430 182.093,186.115 182.175,186.500 182.276 M202.074 182.299 C 205.745 182.365,211.865 182.365,215.674 182.299 C 219.483 182.234,216.480 182.180,209.000 182.180 C 201.520 182.179,198.403 182.233,202.074 182.299 M175.728 185.600 C 175.728 187.030,175.801 187.615,175.889 186.900 C 175.978 186.185,175.978 185.015,175.889 184.300 C 175.801 183.585,175.728 184.170,175.728 185.600 M230.514 185.000 C 230.517 186.100,230.595 186.503,230.687 185.895 C 230.779 185.286,230.777 184.386,230.682 183.895 C 230.587 183.403,230.511 183.900,230.514 185.000 M183.400 189.229 C 180.709 189.450,180.678 189.464,182.600 189.592 C 183.700 189.666,184.870 189.693,185.200 189.652 C 187.481 189.371,196.803 189.601,197.726 189.961 C 198.483 190.256,203.399 190.370,212.726 190.310 L 226.600 190.220 212.400 190.010 C 204.590 189.894,197.965 189.648,197.677 189.462 C 197.055 189.061,187.385 188.903,183.400 189.229 M177.400 190.027 C 176.740 190.450,176.470 190.796,176.800 190.795 C 177.130 190.795,177.940 190.437,178.600 190.000 C 179.260 189.563,179.530 189.217,179.200 189.232 C 178.870 189.247,178.060 189.604,177.400 190.027 M228.420 190.176 C 228.155 190.496,227.648 190.640,227.284 190.500 C 226.704 190.277,226.695 190.321,227.210 190.873 C 227.733 191.433,229.200 190.596,229.200 189.739 C 229.200 189.444,228.878 189.624,228.420 190.176 M190.700 191.900 C 197.355 191.961,208.245 191.961,214.900 191.900 C 221.555 191.838,216.110 191.788,202.800 191.788 C 189.490 191.788,184.045 191.838,190.700 191.900 M176.164 193.893 C 176.804 193.988,177.794 194.342,178.364 194.680 L 179.400 195.295 178.400 194.456 C 177.820 193.970,176.896 193.639,176.200 193.669 L 175.000 193.720 176.164 193.893 M215.762 194.500 C 215.003 195.397,215.003 195.398,215.819 194.711 C 216.498 194.141,217.665 194.001,222.619 193.900 L 228.600 193.777 222.562 193.688 C 216.739 193.603,216.497 193.632,215.762 194.500 M196.082 196.112 C 195.597 196.629,195.200 197.199,195.200 197.380 C 195.200 197.560,195.573 197.234,196.029 196.654 C 196.884 195.566,197.781 195.293,198.137 196.010 C 198.249 196.236,198.294 196.191,198.237 195.910 C 198.060 195.034,197.003 195.133,196.082 196.112 M200.267 195.467 C 200.120 195.613,200.003 195.928,200.006 196.167 C 200.010 196.431,200.134 196.409,200.324 196.110 C 200.544 195.763,202.615 195.585,207.417 195.500 L 214.200 195.379 207.367 195.290 C 203.608 195.240,200.413 195.320,200.267 195.467 M181.800 198.400 C 181.800 199.238,181.935 199.840,182.100 199.738 C 182.265 199.636,182.400 199.034,182.400 198.400 C 182.400 197.766,182.265 197.164,182.100 197.062 C 181.935 196.960,181.800 197.562,181.800 198.400 M194.629 199.829 C 194.481 200.415,194.438 200.972,194.532 201.066 C 194.627 201.160,194.824 200.758,194.971 200.171 C 195.119 199.585,195.162 199.028,195.068 198.934 C 194.973 198.840,194.776 199.242,194.629 199.829 M180.352 201.913 C 180.221 202.707,180.279 203.081,180.501 202.859 C 180.703 202.657,180.801 202.067,180.719 201.546 C 180.593 200.745,180.537 200.802,180.352 201.913 M193.422 207.500 C 192.756 208.594,192.757 208.595,193.511 207.736 C 193.928 207.261,194.704 206.791,195.235 206.691 C 196.179 206.513,196.177 206.508,195.146 206.454 C 194.392 206.415,193.902 206.713,193.422 207.500 M174.114 213.800 C 174.117 214.900,174.195 215.303,174.287 214.695 C 174.379 214.086,174.377 213.186,174.282 212.695 C 174.187 212.203,174.111 212.700,174.114 213.800 M174.597 217.604 C 174.168 218.242,173.363 218.836,172.809 218.922 L 171.800 219.080 172.825 219.140 C 173.745 219.194,175.999 217.065,175.524 216.590 C 175.443 216.510,175.026 216.966,174.597 217.604 M175.800 220.000 C 175.657 220.231,176.036 220.400,176.696 220.400 C 177.325 220.400,178.053 220.613,178.313 220.873 C 178.903 221.463,179.380 221.045,179.062 220.217 C 178.794 219.519,176.204 219.346,175.800 220.000 M180.627 221.159 C 180.091 221.369,180.000 221.553,180.330 221.757 C 180.592 221.918,181.088 221.770,181.432 221.426 C 182.103 220.755,181.862 220.675,180.627 221.159 M174.000 222.623 C 175.486 222.947,177.526 223.003,177.348 222.716 C 177.241 222.542,176.308 222.421,175.276 222.446 C 174.244 222.472,173.670 222.552,174.000 222.623 M180.000 224.282 C 180.990 224.360,182.361 224.716,183.048 225.075 C 184.472 225.818,185.622 225.560,185.554 224.513 C 185.510 223.845,185.496 223.844,185.324 224.500 C 185.103 225.347,184.079 225.386,183.024 224.587 C 182.541 224.222,181.481 224.026,180.224 224.070 L 178.200 224.140 180.000 224.282 "
       stroke="none"
       fill="#9c9c9c"
       fill-rule="evenodd" />
    <path
       id="path3"
       d="M180.014 181.475 C 179.484 181.846,178.409 182.256,177.625 182.384 L 176.200 182.618 176.200 186.277 C 176.200 190.405,176.364 190.778,177.776 189.852 C 179.036 189.027,196.426 188.757,197.890 189.541 C 198.487 189.860,202.882 190.000,212.348 190.000 C 219.917 190.000,226.389 190.168,226.942 190.378 C 229.827 191.475,231.840 184.272,229.300 181.940 C 227.981 180.729,225.382 180.648,223.275 181.752 C 222.086 182.375,203.506 182.766,191.600 182.418 C 190.830 182.395,189.321 182.382,188.247 182.389 C 186.976 182.396,185.843 182.121,185.000 181.600 C 183.419 180.623,181.307 180.570,180.014 181.475 M184.547 182.030 C 185.351 182.662,186.073 182.834,187.586 182.754 C 189.039 182.677,189.781 182.840,190.360 183.364 C 191.091 184.025,191.220 184.031,192.065 183.440 C 192.862 182.881,194.879 182.800,208.000 182.800 C 220.832 182.800,223.149 182.711,223.895 182.188 C 224.442 181.805,225.150 181.673,225.789 181.833 C 226.351 181.974,227.033 181.905,227.305 181.679 C 227.659 181.385,228.113 181.538,228.900 182.215 C 230.358 183.470,230.579 187.924,229.200 188.284 C 228.744 188.403,228.400 188.830,228.400 189.276 C 228.400 189.813,228.180 190.011,227.700 189.906 C 226.989 189.750,226.942 189.511,227.393 188.353 C 227.777 187.367,227.097 187.319,215.800 187.532 C 205.021 187.736,204.230 187.741,200.649 187.617 C 199.466 187.576,197.801 187.728,196.949 187.955 C 196.097 188.182,191.590 188.360,186.934 188.351 C 181.406 188.341,178.176 188.492,177.628 188.785 C 176.517 189.380,176.325 188.840,176.479 185.558 L 176.600 183.000 178.315 182.771 C 179.258 182.645,180.331 182.240,180.700 181.871 C 181.613 180.959,183.272 181.027,184.547 182.030 M175.523 192.018 C 174.075 192.360,174.385 193.380,175.982 193.531 C 176.743 193.604,177.851 194.009,178.444 194.431 C 179.038 194.854,179.645 195.200,179.793 195.200 C 181.531 195.200,183.047 199.226,181.600 200.000 C 181.113 200.261,180.800 200.838,180.800 201.476 C 180.800 202.171,180.287 203.006,179.274 203.961 C 177.683 205.461,176.000 207.941,176.000 208.784 C 176.000 209.053,175.640 209.731,175.200 210.291 C 174.141 211.637,174.050 215.764,175.066 216.333 C 176.064 216.892,174.360 218.932,172.669 219.204 C 171.561 219.382,171.410 219.553,171.482 220.553 C 171.593 222.102,171.662 222.141,174.627 222.329 C 176.651 222.458,177.311 222.660,177.625 223.247 C 177.942 223.838,178.482 224.000,180.138 224.000 C 181.373 224.000,182.569 224.243,183.024 224.587 C 184.311 225.561,185.107 225.333,185.420 223.900 C 185.576 223.185,186.041 222.171,186.452 221.646 C 186.863 221.121,187.200 220.160,187.200 219.509 C 187.200 218.859,187.560 217.869,188.000 217.309 C 188.440 216.750,188.800 215.963,188.800 215.560 C 188.800 215.158,189.160 214.635,189.600 214.400 C 190.040 214.165,190.400 213.642,190.400 213.240 C 190.400 212.837,190.760 212.050,191.200 211.491 C 191.640 210.931,192.000 210.178,192.000 209.816 C 192.000 208.601,194.111 206.400,195.276 206.400 C 196.661 206.400,197.133 205.633,196.179 204.935 C 194.980 204.058,194.376 200.969,194.958 198.688 C 195.789 195.434,198.391 193.924,198.406 196.687 C 198.420 199.265,199.560 199.423,199.969 196.904 L 200.213 195.400 207.652 195.291 C 214.479 195.192,215.151 195.118,215.808 194.391 C 216.467 193.663,217.056 193.600,223.238 193.600 C 229.744 193.600,231.113 193.353,230.117 192.357 C 229.719 191.959,177.151 191.633,175.523 192.018 M229.600 192.800 C 229.600 193.051,227.071 193.200,222.814 193.200 C 216.462 193.200,216.001 193.251,215.605 193.991 C 215.208 194.732,214.684 194.790,207.491 194.891 L 199.800 195.000 199.675 196.300 C 199.516 197.942,198.800 198.013,198.800 196.387 C 198.800 194.157,195.737 194.336,195.057 196.607 C 194.860 197.263,194.421 198.481,194.082 199.314 C 193.520 200.695,193.525 200.953,194.133 202.228 C 194.500 202.998,194.800 203.897,194.800 204.226 C 194.800 204.556,195.070 204.929,195.400 205.055 C 196.291 205.397,196.126 206.000,195.143 206.000 C 193.935 206.000,191.609 208.369,191.604 209.604 C 191.602 210.171,191.252 210.825,190.800 211.107 C 190.353 211.387,190.000 212.040,190.000 212.589 C 190.000 213.162,189.667 213.750,189.200 214.000 C 188.760 214.235,188.400 214.754,188.400 215.153 C 188.400 215.551,188.040 216.293,187.600 216.800 C 187.160 217.307,186.800 218.227,186.800 218.843 C 186.800 219.460,186.350 220.628,185.800 221.438 C 185.250 222.249,184.800 223.176,184.800 223.499 C 184.800 223.870,184.567 223.996,184.167 223.843 C 183.819 223.709,182.274 223.600,180.734 223.600 C 178.668 223.600,177.979 223.469,178.106 223.100 C 178.228 222.746,179.096 222.639,181.083 222.735 C 183.339 222.844,183.934 222.749,184.127 222.247 C 184.454 221.393,183.366 220.400,182.103 220.400 C 181.531 220.400,180.752 220.119,180.373 219.775 C 179.993 219.432,178.674 219.047,177.441 218.919 C 175.643 218.734,174.139 218.000,175.557 218.000 C 176.326 218.000,176.348 216.748,175.592 216.100 C 174.505 215.170,174.510 212.295,175.600 210.909 C 176.040 210.350,176.400 209.623,176.400 209.293 C 176.400 208.352,178.003 205.936,179.674 204.361 C 180.764 203.334,181.200 202.590,181.200 201.758 C 181.200 201.026,181.497 200.407,182.000 200.093 C 183.523 199.142,182.042 194.800,180.194 194.800 C 180.047 194.800,179.469 194.440,178.909 194.000 C 178.350 193.560,177.286 193.200,176.546 193.200 C 175.806 193.200,175.200 193.020,175.200 192.800 C 175.200 192.537,184.533 192.400,202.400 192.400 C 220.267 192.400,229.600 192.537,229.600 192.800 M179.125 220.500 C 179.268 221.250,178.610 221.463,178.200 220.800 C 178.064 220.580,177.243 220.400,176.376 220.400 C 174.967 220.400,174.451 220.083,174.987 219.547 C 175.501 219.033,178.998 219.838,179.125 220.500 M174.200 220.400 C 174.601 220.843,175.432 221.200,176.062 221.200 C 176.688 221.200,177.200 221.380,177.200 221.600 C 177.200 222.396,173.256 222.056,172.385 221.185 C 171.937 220.737,171.678 220.197,171.809 219.985 C 172.207 219.341,173.434 219.553,174.200 220.400 M183.033 221.200 C 183.906 221.200,183.704 221.879,182.757 222.127 C 181.458 222.467,179.529 221.623,180.600 221.184 C 181.040 221.004,181.640 220.933,181.933 221.028 C 182.226 221.123,182.721 221.200,183.033 221.200 "
       stroke="none"
       fill="#646464"
       fill-rule="evenodd" />
    <path
       id="path4"
       d="M179.000 181.200 C 178.602 181.640,178.462 182.000,178.689 182.000 C 178.916 182.000,179.317 181.741,179.580 181.424 C 179.843 181.107,180.450 180.772,180.929 180.678 C 181.684 180.532,181.662 180.502,180.762 180.454 C 180.176 180.424,179.409 180.748,179.000 181.200 M183.871 180.678 C 184.350 180.772,184.957 181.107,185.220 181.424 C 185.483 181.741,185.884 182.000,186.111 182.000 C 186.338 182.000,186.198 181.640,185.800 181.200 C 185.391 180.748,184.624 180.424,184.038 180.454 C 183.138 180.502,183.116 180.532,183.871 180.678 M222.945 180.984 C 222.412 181.357,220.831 181.616,218.556 181.701 L 215.000 181.835 218.800 181.905 C 221.608 181.956,222.803 181.821,223.376 181.387 C 224.895 180.239,228.568 180.609,229.764 182.031 C 230.334 182.708,230.800 183.028,230.800 182.743 C 230.800 180.770,225.080 179.488,222.945 180.984 M188.000 181.433 C 187.037 181.967,187.033 181.988,187.876 181.994 C 188.358 181.997,188.866 181.817,189.004 181.593 C 189.161 181.339,189.661 181.471,190.328 181.940 C 191.060 182.455,191.654 182.593,192.200 182.375 C 192.910 182.092,192.882 182.053,191.949 182.028 C 191.371 182.013,190.674 181.730,190.400 181.400 C 189.807 180.686,189.335 180.692,188.000 181.433 M193.652 181.337 C 193.283 181.781,193.984 181.872,197.703 181.863 C 201.491 181.854,201.665 181.830,198.803 181.709 C 196.935 181.630,195.234 181.394,195.023 181.183 C 194.504 180.664,194.180 180.701,193.652 181.337 M204.500 181.876 C 204.885 181.976,205.515 181.976,205.900 181.876 C 206.285 181.775,205.970 181.693,205.200 181.693 C 204.430 181.693,204.115 181.775,204.500 181.876 M209.300 181.891 C 210.125 181.978,211.475 181.978,212.300 181.891 C 213.125 181.805,212.450 181.734,210.800 181.734 C 209.150 181.734,208.475 181.805,209.300 181.891 M230.454 187.500 C 230.425 187.995,230.085 188.747,229.700 189.171 C 227.810 191.254,227.657 191.600,228.624 191.600 C 228.967 191.600,229.145 191.435,229.021 191.234 C 228.896 191.032,229.259 190.316,229.826 189.642 C 230.486 188.857,230.795 188.089,230.683 187.508 L 230.509 186.600 230.454 187.500 M175.729 189.673 L 175.800 191.545 184.200 191.494 L 192.600 191.443 186.200 191.221 C 178.087 190.941,180.559 190.492,189.800 190.567 C 193.540 190.598,202.540 190.665,209.800 190.717 C 218.502 190.780,222.796 190.944,222.400 191.200 C 221.934 191.501,222.051 191.589,222.924 191.594 C 223.572 191.597,223.943 191.431,223.800 191.200 C 223.655 190.966,224.070 190.800,224.800 190.800 C 225.530 190.800,225.945 190.966,225.800 191.200 C 225.660 191.427,225.996 191.600,226.576 191.600 C 227.713 191.600,227.950 191.020,226.967 190.643 C 226.619 190.509,220.151 190.400,212.593 190.400 C 203.570 190.400,198.466 190.249,197.726 189.961 C 196.627 189.533,186.016 189.309,185.340 189.700 C 185.153 189.808,183.839 189.755,182.420 189.582 C 180.163 189.308,179.653 189.376,178.347 190.128 C 176.671 191.092,176.443 190.995,175.983 189.120 C 175.686 187.912,175.665 187.959,175.729 189.673 M195.100 191.482 C 195.595 191.578,196.405 191.578,196.900 191.482 C 197.395 191.387,196.990 191.309,196.000 191.309 C 195.010 191.309,194.605 191.387,195.100 191.482 M174.145 192.200 C 173.835 193.008,174.255 194.007,174.887 193.968 C 175.289 193.944,175.292 193.893,174.900 193.735 C 174.625 193.624,174.400 193.203,174.400 192.800 C 174.400 192.397,174.625 191.976,174.900 191.865 C 175.292 191.707,175.289 191.656,174.887 191.632 C 174.606 191.614,174.271 191.870,174.145 192.200 M229.963 192.152 C 230.580 192.899,230.276 193.397,229.000 193.733 C 228.522 193.859,228.683 193.915,229.400 193.872 C 230.724 193.793,231.195 192.063,230.000 191.668 C 229.480 191.496,229.475 191.561,229.963 192.152 M177.487 194.682 C 177.605 194.989,178.234 195.347,178.885 195.477 C 179.536 195.607,180.164 195.963,180.281 196.268 C 180.398 196.573,180.878 197.024,181.347 197.270 C 182.044 197.636,182.003 197.519,181.123 196.628 C 179.761 195.249,177.173 193.863,177.487 194.682 M216.020 194.576 C 215.757 194.893,215.150 195.228,214.671 195.322 C 213.950 195.462,213.987 195.500,214.886 195.546 C 215.600 195.581,216.118 195.326,216.400 194.800 C 216.900 193.866,216.705 193.751,216.020 194.576 M198.041 197.281 C 197.998 198.416,198.735 200.400,199.200 200.400 C 199.665 200.400,200.402 198.416,200.359 197.281 C 200.321 196.275,200.296 196.292,200.005 197.520 C 199.833 198.246,199.582 198.951,199.446 199.087 C 199.069 199.464,198.738 198.972,198.395 197.520 C 198.104 196.292,198.079 196.275,198.041 197.281 M195.091 199.200 C 194.769 201.602,195.202 203.995,196.057 204.528 C 196.860 205.030,197.055 206.207,196.390 206.537 C 196.165 206.649,196.210 206.694,196.490 206.637 C 197.378 206.457,197.325 205.098,196.403 204.402 C 195.626 203.816,195.523 203.372,195.533 200.669 C 195.547 197.252,195.412 196.805,195.091 199.200 M177.774 204.681 C 176.241 206.289,175.612 207.262,175.640 207.981 C 175.674 208.865,175.714 208.894,175.940 208.200 C 176.337 206.978,177.650 205.161,179.183 203.709 C 179.944 202.989,180.427 202.400,180.257 202.400 C 180.087 202.400,178.970 203.426,177.774 204.681 M193.099 208.177 C 192.715 208.458,192.400 208.893,192.400 209.144 C 192.400 209.395,192.775 209.225,193.233 208.767 C 194.202 207.798,194.118 207.432,193.099 208.177 M174.629 209.829 C 174.283 210.174,174.011 210.849,174.025 211.329 C 174.049 212.158,174.070 212.153,174.441 211.222 C 174.656 210.683,175.027 210.008,175.265 209.722 C 175.874 208.988,175.387 209.070,174.629 209.829 M191.500 211.412 C 190.505 212.746,190.628 213.527,191.632 212.250 C 192.090 211.668,192.405 211.031,192.332 210.833 C 192.259 210.636,191.885 210.896,191.500 211.412 M189.700 214.566 C 189.205 215.040,188.800 215.832,188.800 216.327 C 188.800 216.821,188.530 217.329,188.200 217.455 C 187.870 217.582,187.600 217.874,187.600 218.105 C 187.600 218.335,187.960 218.198,188.400 217.800 C 188.840 217.402,189.200 216.676,189.200 216.187 C 189.200 215.698,189.605 215.025,190.100 214.693 C 190.595 214.360,190.910 214.001,190.800 213.896 C 190.690 213.790,190.195 214.092,189.700 214.566 M173.844 216.058 C 174.038 217.597,173.951 217.990,173.339 218.346 C 172.789 218.666,172.753 218.776,173.200 218.775 C 174.021 218.775,175.441 216.796,174.872 216.444 C 174.634 216.298,174.253 215.732,174.025 215.189 C 173.687 214.384,173.653 214.545,173.844 216.058 M171.067 219.067 C 169.936 220.198,171.158 222.827,172.780 222.754 C 173.610 222.716,173.651 222.671,173.000 222.511 C 171.720 222.196,171.200 221.582,171.200 220.384 C 171.200 219.770,171.425 219.176,171.700 219.065 C 171.979 218.952,172.009 218.849,171.767 218.832 C 171.528 218.814,171.213 218.920,171.067 219.067 M187.200 220.738 C 187.200 221.144,186.840 221.802,186.400 222.200 C 185.953 222.604,185.600 223.432,185.600 224.075 C 185.600 225.532,184.624 225.943,183.158 225.102 C 182.253 224.583,182.091 224.571,182.269 225.037 C 182.914 226.717,185.715 226.047,185.935 224.160 C 186.009 223.522,186.414 222.678,186.835 222.284 C 187.514 221.649,187.922 220.000,187.400 220.000 C 187.290 220.000,187.200 220.332,187.200 220.738 M181.200 221.600 C 181.200 221.820,181.661 222.000,182.224 222.000 C 182.804 222.000,183.140 221.827,183.000 221.600 C 182.864 221.380,182.403 221.200,181.976 221.200 C 181.549 221.200,181.200 221.380,181.200 221.600 "
       stroke="none"
       fill="#a4a4a4"
       fill-rule="evenodd" />
  </g>
</svg>
