<?xml version="1.0" encoding="UTF-8" standalone="no"?>
<svg
   xmlns:dc="http://purl.org/dc/elements/1.1/"
   xmlns:cc="http://creativecommons.org/ns#"
   xmlns:rdf="http://www.w3.org/1999/02/22-rdf-syntax-ns#"
   xmlns:svg="http://www.w3.org/2000/svg"
   xmlns="http://www.w3.org/2000/svg"
   xmlns:sodipodi="http://sodipodi.sourceforge.net/DTD/sodipodi-0.dtd"
   xmlns:inkscape="http://www.inkscape.org/namespaces/inkscape"
   id="svg"
   version="1.1"
   width="269.53156"
   height="45.670509"
   viewBox="0 0 269.53156 45.670509"
   sodipodi:docname="sniper.svg"
   inkscape:version="0.92.4 (5da689c313, 2019-01-14)">
  <metadata
     id="metadata304">
    <rdf:RDF>
      <cc:Work
         rdf:about="">
        <dc:format>image/svg+xml</dc:format>
        <dc:type
           rdf:resource="http://purl.org/dc/dcmitype/StillImage" />
      </cc:Work>
    </rdf:RDF>
  </metadata>
  <defs
     id="defs302" />
  <sodipodi:namedview
     pagecolor="#ffffff"
     bordercolor="#666666"
     borderopacity="1"
     objecttolerance="10"
     gridtolerance="10"
     guidetolerance="10"
     inkscape:pageopacity="0"
     inkscape:pageshadow="2"
     inkscape:window-width="640"
     inkscape:window-height="480"
     id="namedview300"
     showgrid="false"
     inkscape:zoom="0.59"
     inkscape:cx="125.97403"
     inkscape:cy="197.6891"
     inkscape:window-x="0"
     inkscape:window-y="0"
     inkscape:window-maximized="0"
     inkscape:current-layer="svg" />
  <g
     id="svgg"
     transform="translate(-62.068435,-174.0525)">
    <path
       id="path0"
       d="m 108.413,175.385 c -0.267,0.321 -0.835,0.695 -1.262,0.831 -0.912,0.289 -2.53,1.83 -2.88,2.744 -0.135,0.352 -0.432,0.64 -0.658,0.64 -1.265,0 -0.131,0.728 1.403,0.901 0.999,0.112 2.138,0.496 2.532,0.852 1.014,0.918 14.851,0.955 16.598,0.045 1.628,-0.85 13.131,-0.869 13.833,-0.023 0.71,0.855 13.04,0.879 15.073,0.029 1.88,-0.785 6.482,-0.78 7.524,0.009 0.885,0.669 5.424,0.825 5.424,0.187 0,-0.22 -0.996,-0.4 -2.213,-0.4 -1.741,0 -2.268,-0.149 -2.473,-0.7 -0.144,-0.385 -0.588,-0.935 -0.988,-1.223 -0.533,-0.383 -0.726,-1.048 -0.726,-2.5 V 174.8 h -25.351 c -21.748,0 -25.42,0.083 -25.836,0.585 m 10.899,2.576 c 0.924,0.94 -1.128,2.095 -3.479,1.958 -2.064,-0.121 -3.157,-1.501 -1.835,-2.317 0.743,-0.46 4.778,-0.187 5.314,0.359 m 6.103,5.158 c -0.118,0.118 -0.215,0.598 -0.215,1.068 0,1.501 -0.767,1.813 -4.456,1.813 -1.923,0 -3.608,0.18 -3.744,0.4 -0.253,0.409 1.082,0.593 3.124,0.431 0.619,-0.049 1.37,0.115 1.669,0.363 0.407,0.338 0.747,0.325 1.346,-0.049 2.1,-1.311 3.672,1.362 1.879,3.196 -0.642,0.657 -2.218,0.253 -2.218,-0.568 0,-0.315 -0.18,-0.573 -0.4,-0.573 -0.22,0 -0.4,0.258 -0.4,0.573 0,0.786 -1.508,1.201 -2.219,0.611 -0.454,-0.377 -0.711,-0.374 -1.177,0.012 -1.193,0.991 -3.339,0.157 -3.633,-1.411 l -0.26,-1.385 h -2.902 c -2.295,0 -3.113,0.167 -3.918,0.8 -0.583,0.459 -1.623,0.8 -2.437,0.8 -1.101,0 -1.804,0.357 -3.137,1.595 l -1.717,1.595 -15.471,0.005 C 69.159,192.4 68.4,192.328 68.4,190.8 c 0,-1.572 -3.452,-2.148 -4.8,-0.8 -0.977,0.977 -0.984,1.162 -0.1,2.411 0.613,0.866 0.7,2.032 0.7,9.389 0,7.357 -0.087,8.523 -0.7,9.389 -1.434,2.026 0.268,5.408 1.814,3.603 0.373,-0.435 1.177,-0.792 1.786,-0.792 0.674,0 1.303,-0.313 1.607,-0.8 0.309,-0.495 0.933,-0.8 1.634,-0.8 0.627,0 1.459,0.358 1.859,0.8 0.618,0.683 1.232,0.8 4.208,0.8 2.878,0 3.661,0.139 4.501,0.8 0.835,0.657 1.623,0.8 4.4,0.8 2.777,0 3.565,0.143 4.4,0.8 0.835,0.657 1.623,0.8 4.4,0.8 2.777,0 3.565,0.143 4.4,0.8 0.848,0.667 1.623,0.8 4.654,0.8 h 3.637 v -1.197 c 0,-0.763 0.29,-1.377 0.8,-1.696 0.485,-0.303 0.8,-0.933 0.8,-1.6 0,-0.667 0.315,-1.297 0.8,-1.6 0.507,-0.316 0.8,-0.933 0.8,-1.681 0,-1.24 1.707,-3.426 2.675,-3.426 0.772,0 0.639,-0.536 -0.275,-1.107 -1.569,-0.98 -0.755,-3.849 1.832,-6.457 0.09,-0.091 0.51,0.149 0.933,0.532 0.734,0.665 0.808,0.659 1.602,-0.135 2.033,-2.033 3.633,-0.821 3.633,2.751 0,2.19 0.132,2.706 0.8,3.123 0.51,0.319 0.8,0.933 0.8,1.696 0,0.982 0.165,1.197 0.92,1.197 1.229,0 1.88,0.72 1.88,2.08 0,1 0.141,1.12 1.32,1.12 2.06,0 3.163,2.157 1.8,3.52 -1.372,1.372 -3.52,0.259 -3.52,-1.824 0,-0.793 -0.164,-1.242 -0.4,-1.096 -0.22,0.136 -0.4,1.137 -0.4,2.224 v 1.976 h 8.4 8.4 v -5.92 c 0,-4.071 0.15,-6.07 0.48,-6.4 0.365,-0.365 7.828,-0.48 31.146,-0.48 29.733,0 30.696,-0.024 31.652,-0.775 0.542,-0.427 1.462,-0.895 2.046,-1.042 1.354,-0.34 0.821,-1.638 -0.836,-2.033 -2.519,-0.602 -2.947,-2.956 -0.857,-4.714 1.48,-1.246 1.811,-1.278 2.462,-0.236 0.665,1.066 11.843,1.242 12.707,0.2 0.91,-1.096 41.137,-0.88 42.546,0.229 0.58,0.456 1.054,1.086 1.054,1.4 0,0.535 6.721,0.913 7.233,0.406 0.092,-0.091 0.109,-1.711 0.038,-3.6 l -0.13,-3.435 h -3.383 c -2.591,0 -3.435,0.136 -3.606,0.582 -0.424,1.103 -2.862,2.232 -3.939,1.823 -0.542,-0.206 -2.998,-0.263 -5.496,-0.128 -4.917,0.267 -4.847,0.266 -12.717,0.15 -6.748,-0.099 -6.079,-0.098 -14.261,-0.031 -4.476,0.036 -6.951,-0.093 -7.123,-0.37 -0.475,-0.769 -12.208,-0.557 -13.085,0.236 -0.68,0.616 -0.782,0.616 -1.462,0 -0.513,-0.464 -1.463,-0.662 -3.172,-0.662 -3.009,0 -3.697,-0.564 -3.697,-3.029 0,-2.009 0.033,-1.994 -2.4,-1.093 -3.159,1.168 -30.15,1.311 -30.867,0.163 -0.448,-0.717 -0.915,-0.841 -3.18,-0.841 -3.611,0 -4.504,-1.354 -2.441,-3.702 0.801,-0.914 0.335,-1.359 -0.813,-0.776 -0.494,0.251 -1.619,0.506 -2.499,0.567 -1.511,0.105 -1.607,0.189 -1.733,1.509 -0.219,2.313 -0.447,2.402 -6.153,2.402 -4.582,0 -5.307,-0.093 -6.205,-0.8 -0.559,-0.44 -1.587,-0.8 -2.283,-0.8 -1.474,0 -2.226,-0.612 -2.226,-1.813 0,-1.141 -0.404,-1.481 -1.087,-0.915 -0.786,0.652 -7.186,0.748 -8.998,0.134 -0.817,-0.276 -1.582,-0.406 -1.7,-0.287 m 150.154,7.981 c -0.018,0.165 -0.031,1.74 -0.031,3.5 l 10e-4,3.2 16.43,0.104 16.431,0.105 V 194.404 190.8 H 292 c -9.02,0 -16.414,0.135 -16.431,0.3 m 36.29,0.371 c -1.656,0.867 -1.394,5.327 0.341,5.799 3.219,0.874 16.716,0.578 17.682,-0.388 1.315,-1.315 1.26,-3.704 -0.117,-5.081 l -1.035,-1.034 -7.929,0.086 c -5.664,0.063 -8.219,0.239 -8.942,0.618 M 113.8,193.6 v 1.8 l -2.132,0.122 c -2.439,0.14 -3.268,-0.34 -3.268,-1.891 0,-1.64 0.721,-2.08 3.197,-1.948 l 2.203,0.117 v 1.8 m 18.385,-1.213 c 1.176,0.775 1.191,0.775 1.916,-0.003 0.907,-0.973 4.531,-1.098 5.723,-0.197 0.999,0.756 1.686,0.76 2.433,0.013 0.814,-0.814 1.005,-0.773 2.471,0.536 2.652,2.367 1.582,4.464 -2.277,4.464 -1.792,0 -2.802,0.193 -3.283,0.629 -0.633,0.573 -0.81,0.57 -1.976,-0.033 -0.961,-0.497 -1.894,-0.607 -3.737,-0.441 -4.956,0.447 -10.229,-0.002 -10.545,-0.899 -0.127,-0.361 -0.507,-0.977 -0.844,-1.368 -0.854,-0.994 0.07,-1.875 2.279,-2.171 0.91,-0.122 1.655,-0.365 1.655,-0.54 0,-0.987 4.685,-0.979 6.185,0.01 M 70.32,194.48 c 0.264,0.264 0.48,1.524 0.48,2.8 v 2.32 h 16.967 c 9.332,0 17.252,0.109 17.6,0.243 1.015,0.389 0.882,4.395 -0.167,5.05 -0.44,0.275 -0.8,0.891 -0.8,1.371 0,0.479 -0.709,1.608 -1.575,2.51 -1.038,1.081 -1.618,2.08 -1.7,2.933 -0.322,3.332 -4.114,1.768 -10.001,-4.124 -4.76,-4.763 -3.975,-4.473 -11.924,-4.402 -8.869,0.08 -8.341,-0.128 -8.483,3.354 -0.099,2.426 -0.23,2.878 -0.869,3 -1.258,0.24 -1.436,-0.679 -1.442,-7.461 -0.007,-7.33 0.433,-9.075 1.914,-7.594 m 137.317,6.82 c -0.648,1.734 2.335,2.149 3.863,0.537 1.266,-1.336 1.174,-1.437 -1.313,-1.437 -1.928,0 -2.256,0.116 -2.55,0.9"
       inkscape:connector-curvature="0"
       style="fill:#0a0a0a;fill-rule:evenodd;stroke:none" />
    <path
       id="path1"
       d="m -428.81356,201.69492 v 200 h 200 200.000001 v -200 V 1.6949153 h -200.000001 -200 V 201.69492 m 160.325,-23.823 c 0.167,2.633 1.47,3.918 4.275,4.213 3.175,0.334 3.019,2.154 -0.2,2.331 -1.963,0.108 -2.381,0.299 -3.883,1.766 -2.104,2.057 -1.939,2.313 1.493,2.313 2.352,0 2.825,0.119 3.19,0.8 0.623,1.164 24.229,1.257 25.224,0.1 0.494,-0.575 1.278,-0.7 4.389,-0.7 h 3.787 l 0.221,1.928 c 0.32,2.779 -0.806,2.656 24.579,2.703 39.468,0.075 38.233,0.099 38.848,-0.778 0.515,-0.735 1.343,-0.76 23.643,-0.707 l 23.109,0.054 v 4.2 4.2 l -16.8,0.106 c -18.704,0.117 -20.079,-0.027 -18.2,-1.906 1.932,-1.932 0.675,-5.024 -1.92,-4.725 -1.48,0.171 -1.873,3.948 -0.5,4.805 0.451,0.282 0.82,0.62 0.82,0.752 0,1.343 -9.928,1.731 -10.275,0.402 -0.11,-0.421 -0.607,-0.868 -1.104,-0.993 -1.063,-0.267 -36.328,-0.232 -46.933,0.045 -5.097,0.134 -7.476,0.056 -7.855,-0.259 -0.856,-0.71 -2.633,0.269 -2.633,1.45 0,1.265 0.116,1.289 6.8,1.414 l 5.8,0.109 0.12,1.234 c 0.182,1.856 -0.956,2.656 -1.98,1.392 l -0.768,-0.949 -1.108,1.061 c -1.001,0.96 -1.402,1.062 -4.166,1.062 -2.497,0 -3.13,0.129 -3.45,0.7 -0.366,0.655 -2.43,0.713 -31.92,0.9 l -31.528,0.2 -0.2,6.316 c -0.201,6.348 -0.525,7.578 -1.781,6.758 -0.23,-0.151 -4.019,-0.364 -8.419,-0.474 l -8,-0.2 -0.008,-3.757 c -0.008,-3.517 -0.065,-3.778 -0.9,-4.087 -0.651,-0.241 -0.892,-0.654 -0.892,-1.529 0,-0.781 -0.273,-1.345 -0.783,-1.618 -0.646,-0.346 -0.803,-0.921 -0.9,-3.314 -0.131,-3.248 -0.739,-3.644 -2.483,-1.616 -0.781,0.907 -0.976,0.964 -1.723,0.497 -0.741,-0.462 -0.967,-0.408 -1.87,0.449 -1.232,1.17 -1.34,2.587 -0.241,3.175 0.958,0.513 1.058,1.926 0.16,2.271 -1.274,0.489 -2.56,2.163 -2.56,3.333 0,0.758 -0.28,1.318 -0.8,1.596 -0.521,0.279 -0.8,0.838 -0.8,1.6 0,0.762 -0.279,1.321 -0.8,1.6 -0.512,0.274 -0.8,0.838 -0.8,1.565 0,1.734 -0.593,1.92 -5.333,1.666 -3.488,-0.186 -4.433,-0.368 -4.844,-0.931 -0.419,-0.574 -1.139,-0.7 -4.004,-0.7 -2.887,0 -3.669,-0.139 -4.51,-0.8 -0.84,-0.661 -1.623,-0.8 -4.509,-0.8 -2.886,0 -3.669,-0.139 -4.509,-0.8 -0.839,-0.66 -1.623,-0.8 -4.467,-0.8 -2.697,0 -3.499,-0.131 -3.679,-0.6 -0.129,-0.335 -0.723,-0.6 -1.345,-0.6 -0.622,0 -1.216,0.265 -1.345,0.6 -0.13,0.341 -0.727,0.6 -1.38,0.6 -0.643,0 -1.471,0.353 -1.875,0.8 -2.735,3.022 -5.068,-2.815 -2.844,-7.115 0.925,-1.789 0.936,-12.29 0.014,-13.606 -0.994,-1.42 -1.221,-4.971 -0.372,-5.82 1.164,-1.164 5.822,-0.78 6.475,0.534 1.003,2.019 0.909,2.007 16.416,2.007 h 14.536 l 1.471,-1.6 c 1.303,-1.417 1.68,-1.6 3.291,-1.6 1.387,0 1.939,-0.19 2.32,-0.8 0.439,-0.703 0.933,-0.8 4.077,-0.8 2.99,0 3.64,-0.115 3.967,-0.7 0.322,-0.578 1.145,-0.735 4.72,-0.9 l 4.329,-0.2 0.127,-1.1 0.126,-1.1 h -8.413 c -7.11,0 -8.635,-0.106 -9.847,-0.684 -1.217,-0.58 -1.561,-0.603 -2.284,-0.152 -0.736,0.46 -0.921,0.434 -1.38,-0.193 -0.759,-1.039 -0.653,-2.087 0.271,-2.664 0.44,-0.275 0.8,-0.65 0.8,-0.834 0,-0.439 2.24,-2.673 2.68,-2.673 0.188,0 0.652,-0.361 1.03,-0.803 0.677,-0.791 1.086,-0.801 26.789,-0.7 l 26.101,0.103 0.125,1.977 m -22.252,7.723 c 0.116,1.007 0.288,1.11 2.019,1.222 1.338,0.086 2.055,0.353 2.447,0.912 0.509,0.727 0.955,0.782 5.508,0.679 l 4.953,-0.113 0.122,-1.9 0.122,-1.9 h -7.649 -7.648 l 0.126,1.1 m -22.073,4.238 c 0,0.54 1.229,1.862 1.731,1.862 0.148,0 0.269,-0.54 0.269,-1.2 0,-1.013 -0.156,-1.2 -1,-1.2 -0.571,0 -1,0.231 -1,0.538 m 4.4,0.686 c 0,0.713 0.167,1.12 0.4,0.976 0.22,-0.136 0.4,-0.687 0.4,-1.224 0,-0.537 -0.18,-0.976 -0.4,-0.976 -0.22,0 -0.4,0.551 -0.4,1.224 m 3.2,-0.248 c 0,0.537 0.18,1.088 0.4,1.224 0.233,0.144 0.4,-0.263 0.4,-0.976 0,-0.673 -0.18,-1.224 -0.4,-1.224 -0.22,0 -0.4,0.439 -0.4,0.976 m 206.831001,2.593 c 0.99,0.99 1.169,1.486 1.169,3.231 0,1.745 -0.179,2.241 -1.169,3.231 l -1.169,1.169 h -9.003001 c -10.753,0 -10.259,0.212 -10.259,-4.4 0,-4.612 -0.494,-4.4 10.259,-4.4 h 9.003001 l 1.169,1.169 m -221.077001,1.808 c -0.496,1.292 0.153,1.876 1.942,1.746 1.518,-0.11 1.704,-0.232 1.704,-1.123 0,-1.234 -3.202,-1.781 -3.646,-0.623 m 17.776,0.192 c -0.537,0.423 -1.597,0.828 -2.354,0.9 -1.346,0.128 -1.732,1.079 -0.824,2.029 0.342,0.358 20.275,0.456 20.847,0.102 0.505,-0.312 0.53,-2.2 0.03,-2.2 -0.205,0 -0.655,-0.283 -1,-0.629 -0.572,-0.571 -0.686,-0.571 -1.258,0 -0.869,0.87 -2.444,0.787 -3.264,-0.171 -0.485,-0.567 -1.18,-0.8 -2.382,-0.8 -1.287,0 -1.8,0.193 -2.125,0.8 -0.281,0.525 -0.838,0.8 -1.618,0.8 -0.695,0 -1.475,-0.333 -1.875,-0.8 -0.879,-1.027 -2.891,-1.042 -4.177,-0.031 m -57.93,8.407 c 0,3.553 0.162,6.077 0.4,6.224 0.25,0.154 0.4,-0.653 0.4,-2.149 0,-3.697 0.465,-3.907 9.125,-4.128 6.386,-0.162 6.956,-0.119 7.314,0.551 0.214,0.399 0.575,0.726 0.803,0.726 0.227,0 2.189,1.8 4.358,4 2.169,2.2 4.22,4 4.557,4 0.336,0 0.961,0.375 1.388,0.833 1.148,1.232 2.621,0.897 2.78,-0.633 0.069,-0.66 0.409,-1.418 0.755,-1.685 0.671,-0.515 1.328,-1.537 2.294,-3.566 0.328,-0.689 0.883,-1.362 1.234,-1.497 0.476,-0.182 0.607,-0.679 0.515,-1.948 l -0.123,-1.704 -17.4,-0.2 -17.4,-0.2 -0.12,-2.3 c -0.25,-4.791 -0.88,-2.159 -0.88,3.676 m 56.155,12.196 c -0.398,1.038 0.16,1.896 1.143,1.756 0.661,-0.094 0.902,-0.395 0.902,-1.128 0,-1.181 -1.639,-1.684 -2.045,-0.628"
       inkscape:connector-curvature="0"
       style="fill:#fcfcfc;fill-rule:evenodd;stroke:none" />
    <path
       id="path2"
       d="m 107.561,175.311 c -3.621,2.236 -6.127,6.253 -3.549,5.686 0.862,-0.189 1.688,-0.017 2.863,0.595 1.551,0.809 2.146,0.856 9.689,0.773 l 8.036,-0.089 v 1.562 1.562 l -3.4,0.1 c -4.994,0.148 -6.919,0.874 -4.1,1.548 0.605,0.144 1.311,0.428 1.569,0.63 0.293,0.231 0.767,0.182 1.267,-0.131 1.47,-0.918 2.63,0.725 1.553,2.198 -0.634,0.868 -1.889,0.478 -1.889,-0.588 0,-0.416 -0.18,-0.757 -0.4,-0.757 -0.22,0 -0.4,0.348 -0.4,0.773 0,1.89 -2.825,1.28 -3.537,-0.765 -0.535,-1.534 -5.914,-1.861 -7.709,-0.468 -0.525,0.407 -1.674,0.835 -2.554,0.951 -1.094,0.144 -2.099,0.668 -3.178,1.66 L 100.244,192 H 85.15 c -16.119,0 -15.907,0.025 -16.537,-1.959 -0.253,-0.799 -1.32,-1.227 -3.08,-1.236 -2.775,-0.014 -3.506,1.422 -2.29,4.5 1.099,2.784 0.98,15.659 -0.164,17.695 -0.956,1.702 -0.842,2.887 0.387,4.026 l 1.067,0.989 0.859,-0.808 c 0.473,-0.444 1.315,-0.807 1.872,-0.807 0.557,0 1.338,-0.36 1.736,-0.8 0.398,-0.44 1.106,-0.8 1.573,-0.8 0.467,0 1.157,0.36 1.534,0.8 0.582,0.68 1.182,0.8 3.989,0.803 2.624,0.002 3.551,0.166 4.504,0.797 0.956,0.633 1.88,0.795 4.537,0.797 2.729,0.003 3.522,0.149 4.354,0.803 0.824,0.649 1.623,0.8 4.216,0.8 2.521,0 3.478,0.173 4.518,0.815 1.125,0.696 1.867,0.799 5.047,0.7 L 107,219 l 0.125,-1.299 c 0.076,-0.784 0.433,-1.464 0.9,-1.715 0.496,-0.265 0.775,-0.836 0.775,-1.586 0,-0.762 0.279,-1.321 0.8,-1.6 0.52,-0.278 0.8,-0.838 0.8,-1.596 0,-1.13 0.944,-2.378 2.647,-3.501 0.727,-0.479 0.722,-0.519 -0.147,-1.148 -1.201,-0.871 -1.147,-2.355 0.154,-4.233 1.2,-1.731 1.235,-1.746 2.172,-0.898 0.631,0.571 0.78,0.534 1.74,-0.427 1.93,-1.93 2.814,-1.302 2.951,2.098 0.097,2.393 0.254,2.968 0.9,3.314 0.506,0.271 0.783,0.837 0.783,1.6 0,0.972 0.248,1.284 1.404,1.767 l 1.404,0.587 -0.628,1.57 c -0.362,0.906 -0.575,2.394 -0.504,3.518 l 0.124,1.949 8.2,0.2 c 4.51,0.11 8.42,0.047 8.69,-0.141 0.341,-0.237 0.523,-2.18 0.6,-6.4 L 141,205 l 31.258,-0.2 c 30.551,-0.195 31.278,-0.218 32.145,-1 0.724,-0.653 1.374,-0.785 3.542,-0.717 2.415,0.075 2.781,-0.024 4.055,-1.095 1.957,-1.646 1.191,-2.088 -3.2,-1.847 -4.357,0.238 -5.361,-0.034 -5.531,-1.498 -0.231,-1.992 2.037,-3.761 3.131,-2.443 0.686,0.827 11.502,0.871 13.12,0.054 0.866,-0.437 5.023,-0.552 20.985,-0.581 l 19.905,-0.037 1.382,1.382 c 1.357,1.358 6.061,2.027 8.275,1.178 0.548,-0.211 0.658,-6.547 0.129,-7.403 -0.59,-0.955 -6.69,-0.452 -7.836,0.645 l -1.083,1.038 -14.738,-0.019 c -8.107,-0.01 -20.409,-0.056 -27.339,-0.101 -6.93,-0.045 -12.96,-0.06 -13.4,-0.033 -5.147,0.312 -7.4,-0.586 -7.4,-2.948 0,-0.95 -0.138,-1.813 -0.307,-1.917 -0.431,-0.267 -6.547,0.546 -7.388,0.982 -1.589,0.824 -25.437,0.435 -25.896,-0.423 -0.346,-0.646 -0.921,-0.803 -3.31,-0.9 -3.497,-0.142 -3.757,-0.604 -1.696,-3.012 1.357,-1.586 1.549,-1.673 3.912,-1.786 3.217,-0.154 3.619,-1.247 0.53,-1.443 -2.714,-0.173 -4.148,-1.607 -4.321,-4.321 l -0.124,-1.955 -25.4,-0.089 -25.4,-0.089 -1.439,0.889 m 52.039,1.466 c 0,1.452 0.193,2.117 0.726,2.5 0.4,0.288 0.844,0.838 0.988,1.223 0.205,0.551 0.732,0.7 2.473,0.7 1.217,0 2.213,0.18 2.213,0.4 0,0.638 -4.539,0.482 -5.424,-0.187 -1.042,-0.789 -5.644,-0.794 -7.524,-0.009 -2.033,0.85 -14.363,0.826 -15.073,-0.029 -0.702,-0.846 -12.205,-0.827 -13.833,0.023 -1.747,0.91 -15.584,0.873 -16.598,-0.045 -0.394,-0.356 -1.533,-0.74 -2.532,-0.852 -1.534,-0.173 -2.668,-0.901 -1.403,-0.901 0.226,0 0.523,-0.288 0.658,-0.64 0.35,-0.914 1.968,-2.455 2.88,-2.744 0.427,-0.136 0.995,-0.51 1.262,-0.831 0.416,-0.502 4.088,-0.585 25.836,-0.585 H 159.6 v 1.977 m -45.602,0.825 c -1.322,0.816 -0.229,2.196 1.835,2.317 2.351,0.137 4.403,-1.018 3.479,-1.958 -0.536,-0.546 -4.571,-0.819 -5.314,-0.359 m 4.302,0.898 c -0.103,0.308 -0.909,0.5 -2.1,0.5 -1.191,0 -1.997,-0.192 -2.1,-0.5 -0.12,-0.361 0.464,-0.5 2.1,-0.5 1.636,0 2.22,0.139 2.1,0.5 m 40.4,3.376 c -0.385,0.1 -1.015,0.1 -1.4,0 -0.385,-0.101 -0.07,-0.183 0.7,-0.183 0.77,0 1.085,0.082 0.7,0.183 m -4.921,2.424 c -0.153,1.265 -0.357,2.435 -0.453,2.6 -0.392,0.678 -10.224,0.335 -11.019,-0.384 -0.416,-0.377 -1.6,-0.782 -2.632,-0.9 -1.831,-0.211 -1.878,-0.251 -1.999,-1.707 l -0.123,-1.491 7.523,-0.118 c 4.138,-0.066 7.852,-0.16 8.253,-0.209 0.658,-0.082 0.702,0.13 0.45,2.209 m -21.703,-0.476 c 1.926,-0.048 3.726,-0.294 4.037,-0.552 0.683,-0.566 1.087,-0.226 1.087,0.915 0,1.201 0.752,1.813 2.226,1.813 0.696,0 1.724,0.36 2.283,0.8 0.898,0.707 1.623,0.8 6.205,0.8 5.706,0 5.934,-0.089 6.153,-2.402 0.126,-1.32 0.222,-1.404 1.733,-1.509 0.88,-0.061 2.005,-0.316 2.499,-0.567 1.148,-0.583 1.614,-0.138 0.813,0.776 -2.063,2.348 -1.17,3.702 2.441,3.702 2.265,0 2.732,0.124 3.18,0.841 0.717,1.148 27.708,1.005 30.867,-0.163 2.433,-0.901 2.4,-0.916 2.4,1.093 0,2.465 0.688,3.029 3.697,3.029 1.709,0 2.659,0.198 3.172,0.662 0.68,0.616 0.782,0.616 1.462,0 0.877,-0.793 12.61,-1.005 13.085,-0.236 0.172,0.277 2.647,0.406 7.123,0.37 8.182,-0.067 7.513,-0.068 14.261,0.031 7.87,0.116 7.8,0.117 12.717,-0.15 2.498,-0.135 4.954,-0.078 5.496,0.128 1.077,0.409 3.515,-0.72 3.939,-1.823 0.171,-0.446 1.015,-0.582 3.606,-0.582 h 3.383 l 0.13,3.435 c 0.071,1.889 0.054,3.509 -0.038,3.6 -0.512,0.507 -7.233,0.129 -7.233,-0.406 0,-0.314 -0.474,-0.944 -1.054,-1.4 -1.409,-1.109 -41.636,-1.325 -42.546,-0.229 -0.864,1.042 -12.042,0.866 -12.707,-0.2 -0.651,-1.042 -0.982,-1.01 -2.462,0.236 -2.09,1.758 -1.662,4.112 0.857,4.714 1.657,0.395 2.19,1.693 0.836,2.033 -0.584,0.147 -1.504,0.615 -2.046,1.042 -0.956,0.751 -1.919,0.775 -31.652,0.775 -23.318,0 -30.781,0.115 -31.146,0.48 -0.33,0.33 -0.48,2.329 -0.48,6.4 v 5.92 h -8.4 -8.4 v -1.976 c 0,-1.087 0.18,-2.088 0.4,-2.224 0.236,-0.146 0.4,0.303 0.4,1.096 0,1.613 0.6,2.304 2,2.304 1.322,0 2,-0.678 2,-2 0,-1.395 -0.69,-2 -2.28,-2 -1.179,0 -1.32,-0.12 -1.32,-1.12 0,-1.36 -0.651,-2.08 -1.88,-2.08 -0.755,0 -0.92,-0.215 -0.92,-1.197 0,-0.763 -0.29,-1.377 -0.8,-1.696 -0.668,-0.417 -0.8,-0.933 -0.8,-3.123 0,-3.572 -1.6,-4.784 -3.633,-2.751 -0.794,0.794 -0.868,0.8 -1.602,0.135 -0.423,-0.383 -0.843,-0.623 -0.933,-0.532 -2.587,2.608 -3.401,5.477 -1.832,6.457 0.914,0.571 1.047,1.107 0.275,1.107 -0.968,0 -2.675,2.186 -2.675,3.426 0,0.748 -0.293,1.365 -0.8,1.681 -0.485,0.303 -0.8,0.933 -0.8,1.6 0,0.667 -0.315,1.297 -0.8,1.6 -0.51,0.319 -0.8,0.933 -0.8,1.696 v 1.197 h -3.637 c -3.031,0 -3.806,-0.133 -4.654,-0.8 -0.835,-0.657 -1.623,-0.8 -4.4,-0.8 -2.777,0 -3.565,-0.143 -4.4,-0.8 -0.835,-0.657 -1.623,-0.8 -4.4,-0.8 -2.777,0 -3.565,-0.143 -4.4,-0.8 -0.84,-0.661 -1.623,-0.8 -4.501,-0.8 -2.976,0 -3.59,-0.117 -4.208,-0.8 -0.4,-0.442 -1.232,-0.8 -1.859,-0.8 -0.701,0 -1.325,0.305 -1.634,0.8 -0.304,0.487 -0.933,0.8 -1.607,0.8 -0.609,0 -1.413,0.357 -1.786,0.792 -1.546,1.805 -3.248,-1.577 -1.814,-3.603 0.613,-0.866 0.7,-2.032 0.7,-9.389 0,-7.357 -0.087,-8.523 -0.7,-9.389 -0.884,-1.249 -0.877,-1.434 0.1,-2.411 1.348,-1.348 4.8,-0.772 4.8,0.8 0,1.528 0.759,1.6 16.729,1.595 l 15.471,-0.005 1.717,-1.595 c 1.333,-1.238 2.036,-1.595 3.137,-1.595 0.814,0 1.854,-0.341 2.437,-0.8 0.805,-0.633 1.623,-0.8 3.918,-0.8 h 2.902 l 0.26,1.385 c 0.294,1.568 2.44,2.402 3.633,1.411 0.466,-0.386 0.723,-0.389 1.177,-0.012 0.711,0.59 2.219,0.175 2.219,-0.611 0,-0.315 0.18,-0.573 0.4,-0.573 0.22,0 0.4,0.258 0.4,0.573 0,0.821 1.576,1.225 2.218,0.568 1.793,-1.834 0.221,-4.507 -1.879,-3.196 -0.599,0.374 -0.939,0.387 -1.346,0.049 -0.299,-0.248 -1.05,-0.412 -1.669,-0.363 -2.042,0.162 -3.377,-0.022 -3.124,-0.431 0.136,-0.22 1.821,-0.4 3.744,-0.4 3.689,0 4.456,-0.312 4.456,-1.813 0,-1.236 0.258,-1.341 1.915,-0.781 0.844,0.286 2.986,0.466 4.961,0.418 m -7.509,3.619 c 0.821,0.315 0.815,1.908 -0.01,2.593 -1.118,0.928 -2.328,-1.305 -1.277,-2.356 0.561,-0.561 0.482,-0.546 1.287,-0.237 m 150.833,3.261 c -0.844,0.625 -0.489,7.309 0.4,7.525 0.44,0.106 8,0.143 16.8,0.082 l 16,-0.111 v -3.8 -3.8 l -16.4,-0.096 c -9.02,-0.053 -16.58,0.037 -16.8,0.2 m 36.699,0.008 c -1.222,0.195 -1.602,1.075 -1.619,3.757 -0.022,3.646 -0.36,3.52 9.72,3.652 l 8.8,0.116 1.1,-1.088 c 1.583,-1.565 1.547,-3.964 -0.085,-5.596 l -1.185,-1.185 -7.915,0.1 c -4.353,0.056 -8.32,0.165 -8.816,0.244 m -3.699,3.692 v 3.605 l -16.431,-0.105 -16.43,-0.104 -10e-4,-3.2 c 0,-1.76 0.013,-3.335 0.031,-3.5 0.017,-0.165 7.411,-0.3 16.431,-0.3 h 16.4 v 3.604 m 21.365,-2.603 c 1.377,1.377 1.432,3.766 0.117,5.081 -0.902,0.902 -1.052,0.916 -8.7,0.816 -10.306,-0.135 -10.161,-0.09 -10.259,-3.226 -0.107,-3.471 0,-3.51 9.878,-3.619 l 7.929,-0.086 1.035,1.034 m -220.868,0.262 c -1.702,1.702 -0.161,3.627 2.771,3.459 L 113.8,195.4 v -1.8 -1.8 l -2.203,-0.117 c -1.368,-0.073 -2.391,0.071 -2.7,0.38 m 17.803,-0.187 c -0.385,0.1 -0.7,0.326 -0.7,0.501 0,0.175 -0.745,0.418 -1.655,0.54 -2.209,0.296 -3.133,1.177 -2.279,2.171 0.337,0.391 0.717,1.007 0.844,1.368 0.316,0.897 5.589,1.346 10.545,0.899 1.843,-0.166 2.776,-0.056 3.737,0.441 1.166,0.603 1.343,0.606 1.976,0.033 0.481,-0.436 1.491,-0.629 3.283,-0.629 3.859,0 4.929,-2.097 2.277,-4.464 -1.466,-1.309 -1.657,-1.35 -2.471,-0.536 -0.747,0.747 -1.434,0.743 -2.433,-0.013 -1.192,-0.901 -4.816,-0.776 -5.723,0.197 -0.725,0.778 -0.74,0.778 -1.916,0.003 -1.129,-0.745 -3.681,-0.983 -5.485,-0.511 m -13.3,1.724 v 1.4 h -2.2 c -1.997,0 -2.212,-0.086 -2.332,-0.929 -0.252,-1.783 0.162,-2.122 2.428,-1.992 l 2.104,0.121 v 1.4 m 18.483,-0.807 c 1.476,0.791 1.482,0.791 2.324,0 1.026,-0.963 4.057,-1.083 5.217,-0.206 1.033,0.782 2.149,0.761 3.051,-0.055 0.696,-0.63 0.808,-0.602 1.95,0.492 2.875,2.755 0.454,4.316 -6.425,4.142 -0.55,-0.014 -2.8,-0.072 -5,-0.129 -2.2,-0.057 -5.21,-0.133 -6.69,-0.17 -4.089,-0.102 -5.514,-3.604 -1.486,-3.654 0.562,-0.007 1.372,-0.277 1.8,-0.6 1.1,-0.833 3.524,-0.749 5.259,0.18 m -63.069,1.981 c -0.499,0.933 -0.552,13.589 -0.06,14.365 0.946,1.493 1.844,0.302 1.963,-2.604 0.142,-3.482 -0.386,-3.274 8.483,-3.354 7.949,-0.071 7.164,-0.361 11.924,4.402 5.887,5.892 9.679,7.456 10.001,4.124 0.082,-0.853 0.662,-1.852 1.7,-2.933 0.866,-0.902 1.575,-2.031 1.575,-2.51 0,-0.48 0.36,-1.096 0.8,-1.371 1.049,-0.655 1.182,-4.661 0.167,-5.05 -0.348,-0.134 -8.268,-0.243 -17.6,-0.243 H 70.8 v -2.32 c 0,-2.932 -1.049,-4.256 -1.986,-2.506 m 1.586,2.657 0.2,2.369 17.4,0.2 17.4,0.2 0.12,2.075 c 0.099,1.711 -0.015,2.148 -0.647,2.486 -0.422,0.226 -0.868,0.916 -0.992,1.535 -0.124,0.618 -0.853,1.771 -1.621,2.561 -0.782,0.805 -1.455,1.945 -1.528,2.591 -0.174,1.52 -2.2,1.829 -3.79,0.578 -0.578,-0.454 -1.218,-0.826 -1.424,-0.826 -0.205,0 -2.116,-1.757 -4.246,-3.904 -5.239,-5.283 -5.131,-5.226 -9.272,-4.853 -1.87,0.169 -4.66,0.244 -6.2,0.169 -4.551,-0.225 -5.4,0.332 -5.4,3.544 0,2.562 -0.541,3.696 -1.239,2.595 -0.396,-0.625 -0.494,-12.339 -0.112,-13.335 0.495,-1.29 1.155,-0.305 1.351,2.015 m 144,2.961 c -0.524,0.331 -0.509,0.47 0.114,1.094 0.624,0.623 0.763,0.638 1.094,0.114 0.706,-1.117 -0.091,-1.914 -1.208,-1.208 m -2,0.252 c 0,0.759 -1.937,2.142 -3,2.143 -1.685,0.001 -2.167,-0.406 -1.763,-1.487 0.32,-0.853 4.763,-1.466 4.763,-0.656 M 127.8,214.4 c 0,1.794 -2.683,2.225 -2.932,0.471 -0.226,-1.599 0.21,-2.133 1.629,-1.997 1.199,0.116 1.303,0.238 1.303,1.526"
       inkscape:connector-curvature="0"
       style="fill:#747474;fill-rule:evenodd;stroke:none" />
    <path
       id="path3"
       d="m 115.105,179.083 c 0.497,0.096 1.217,0.092 1.6,-0.008 0.382,-0.1 -0.025,-0.179 -0.905,-0.174 -0.88,0.004 -1.193,0.086 -0.695,0.182 m 42.195,2.793 c 0.385,0.1 1.015,0.1 1.4,0 0.385,-0.101 0.07,-0.183 -0.7,-0.183 -0.77,0 -1.085,0.082 -0.7,0.183 m 2.875,1.824 -1.175,1.3 1.3,-1.175 c 1.212,-1.095 1.484,-1.425 1.175,-1.425 -0.069,0 -0.654,0.585 -1.3,1.3 m 31.725,4.182 c 0.495,0.096 1.305,0.096 1.8,0 0.495,-0.095 0.09,-0.173 -0.9,-0.173 -0.99,0 -1.395,0.078 -0.9,0.173 m 45.605,4.401 c 0.497,0.096 1.217,0.092 1.6,-0.008 0.382,-0.1 -0.025,-0.179 -0.905,-0.174 -0.88,0.004 -1.193,0.086 -0.695,0.182 m 18.595,-0.007 c 0.385,0.1 1.015,0.1 1.4,0 0.385,-0.101 0.07,-0.183 -0.7,-0.183 -0.77,0 -1.085,0.082 -0.7,0.183 m -9.2,0.4 c 0.385,0.1 1.015,0.1 1.4,0 0.385,-0.101 0.07,-0.183 -0.7,-0.183 -0.77,0 -1.085,0.082 -0.7,0.183 m -20.195,3.207 c 0.497,0.096 1.217,0.092 1.6,-0.008 0.382,-0.1 -0.025,-0.179 -0.905,-0.174 -0.88,0.004 -1.193,0.086 -0.695,0.182 m 10.619,0.016 c 3.038,0.068 7.898,0.068 10.8,0 2.902,-0.068 0.416,-0.124 -5.524,-0.124 -5.94,0 -8.314,0.056 -5.276,0.124 m 79.991,2.397 c 1.273,0.08 3.253,0.079 4.4,-0.002 1.147,-0.08 0.105,-0.145 -2.315,-0.144 -2.42,0.001 -3.358,0.066 -2.085,0.146 M 77.5,202.682 c 0.495,0.096 1.305,0.096 1.8,0 0.495,-0.095 0.09,-0.173 -0.9,-0.173 -0.99,0 -1.395,0.078 -0.9,0.173"
       inkscape:connector-curvature="0"
       style="fill:#7c7c7c;fill-rule:evenodd;stroke:none" />
    <path
       id="path4"
       d="m 107.31,174.797 c -0.378,0.442 -0.842,0.803 -1.03,0.803 -0.44,0 -2.68,2.234 -2.68,2.673 0,0.184 -0.36,0.559 -0.8,0.834 -0.924,0.577 -1.03,1.625 -0.271,2.664 0.459,0.627 0.644,0.653 1.38,0.193 0.723,-0.451 1.067,-0.428 2.284,0.152 1.212,0.578 2.737,0.684 9.847,0.684 h 8.413 l -0.126,1.1 -0.127,1.1 -4.329,0.2 c -3.575,0.165 -4.398,0.322 -4.72,0.9 -0.327,0.585 -0.977,0.7 -3.967,0.7 -3.144,0 -3.638,0.097 -4.077,0.8 -0.381,0.61 -0.933,0.8 -2.32,0.8 -1.611,0 -1.988,0.183 -3.291,1.6 l -1.471,1.6 H 85.489 c -15.507,0 -15.413,0.012 -16.416,-2.007 -0.653,-1.314 -5.311,-1.698 -6.475,-0.534 -0.849,0.849 -0.622,4.4 0.372,5.82 0.922,1.316 0.911,11.817 -0.014,13.606 -2.224,4.3 0.109,10.137 2.844,7.115 0.404,-0.447 1.232,-0.8 1.875,-0.8 0.653,0 1.25,-0.259 1.38,-0.6 0.129,-0.335 0.723,-0.6 1.345,-0.6 0.622,0 1.216,0.265 1.345,0.6 0.18,0.469 0.982,0.6 3.679,0.6 2.844,0 3.628,0.14 4.467,0.8 0.84,0.661 1.623,0.8 4.509,0.8 2.886,0 3.669,0.139 4.509,0.8 0.841,0.661 1.623,0.8 4.51,0.8 2.865,0 3.585,0.126 4.004,0.7 0.411,0.563 1.356,0.745 4.844,0.931 4.74,0.254 5.333,0.068 5.333,-1.666 0,-0.727 0.288,-1.291 0.8,-1.565 0.521,-0.279 0.8,-0.838 0.8,-1.6 0,-0.762 0.279,-1.321 0.8,-1.6 0.52,-0.278 0.8,-0.838 0.8,-1.596 0,-1.17 1.286,-2.844 2.56,-3.333 0.898,-0.345 0.798,-1.758 -0.16,-2.271 -1.099,-0.588 -0.991,-2.005 0.241,-3.175 0.903,-0.857 1.129,-0.911 1.87,-0.449 0.747,0.467 0.942,0.41 1.723,-0.497 1.744,-2.028 2.352,-1.632 2.483,1.616 0.097,2.393 0.254,2.968 0.9,3.314 0.51,0.273 0.783,0.837 0.783,1.618 0,0.875 0.241,1.288 0.892,1.529 0.835,0.309 0.892,0.57 0.9,4.087 l 0.008,3.757 8,0.2 c 4.4,0.11 8.189,0.323 8.419,0.474 1.256,0.82 1.58,-0.41 1.781,-6.758 l 0.2,-6.316 31.528,-0.2 c 29.49,-0.187 31.554,-0.245 31.92,-0.9 0.32,-0.571 0.953,-0.7 3.45,-0.7 2.764,0 3.165,-0.102 4.166,-1.062 l 1.108,-1.061 0.768,0.949 c 1.024,1.264 2.162,0.464 1.98,-1.392 l -0.12,-1.234 -5.8,-0.109 c -6.684,-0.125 -6.8,-0.149 -6.8,-1.414 0,-1.181 1.777,-2.16 2.633,-1.45 0.379,0.315 2.758,0.393 7.855,0.259 10.605,-0.277 45.87,-0.312 46.933,-0.045 0.497,0.125 0.994,0.572 1.104,0.993 0.347,1.329 10.275,0.941 10.275,-0.402 0,-0.132 -0.369,-0.47 -0.82,-0.752 -1.373,-0.857 -0.98,-4.634 0.5,-4.805 2.595,-0.299 3.852,2.793 1.92,4.725 -1.879,1.879 -0.504,2.023 18.2,1.906 L 309,198.6 v -4.2 -4.2 l -23.109,-0.054 c -22.3,-0.053 -23.128,-0.028 -23.643,0.707 -0.615,0.877 0.62,0.853 -38.848,0.778 -25.385,-0.047 -24.259,0.076 -24.579,-2.703 L 198.6,187 h -3.787 c -3.111,0 -3.895,0.125 -4.389,0.7 -0.995,1.157 -24.601,1.064 -25.224,-0.1 -0.365,-0.681 -0.838,-0.8 -3.19,-0.8 -3.432,0 -3.597,-0.256 -1.493,-2.313 1.502,-1.467 1.92,-1.658 3.883,-1.766 3.219,-0.177 3.375,-1.997 0.2,-2.331 -2.805,-0.295 -4.108,-1.58 -4.275,-4.213 L 160.2,174.2 134.099,174.097 c -25.703,-0.101 -26.112,-0.091 -26.789,0.7 m 52.69,1.849 c 0.255,2.607 1.751,4.036 4.426,4.227 2.791,0.2 2.419,1.293 -0.493,1.446 -2.112,0.111 -2.379,0.241 -3.926,1.92 -2.179,2.364 -1.983,2.735 1.52,2.878 2.361,0.097 2.937,0.255 3.282,0.9 0.547,1.021 24.365,1.235 25.802,0.232 1.192,-0.832 7.544,-1.039 7.653,-0.249 0.618,4.478 -2.86,4.031 32.849,4.229 l 30.128,0.168 0.94,-1.014 c 0.894,-0.965 1.12,-1.008 4.667,-0.899 l 3.728,0.116 v 3.8 3.8 l -3.867,0.114 c -3.528,0.104 -3.903,0.044 -4.296,-0.691 -0.237,-0.442 -0.811,-1.008 -1.274,-1.256 -1.118,-0.598 -40.4,-0.576 -41.521,0.023 -1.344,0.719 -12.428,0.525 -13.265,-0.233 -1.034,-0.935 -3.153,0.574 -3.153,2.247 0,1.62 0.434,1.758 5.262,1.673 4.847,-0.086 5.389,0.2 3.707,1.956 -1.033,1.077 -1.34,1.167 -3.99,1.167 -2.262,0 -3.086,0.169 -3.885,0.798 -0.991,0.779 -1.732,0.799 -32.154,0.9 L 141,205 l -0.2,6.268 c -0.11,3.448 -0.29,6.338 -0.4,6.424 -0.11,0.086 -3.98,0.055 -8.6,-0.068 l -8.4,-0.224 0.012,-2.6 c 0.007,-1.43 0.156,-3.073 0.331,-3.65 0.283,-0.932 0.18,-1.099 -0.912,-1.479 -1.008,-0.352 -1.231,-0.648 -1.231,-1.636 0,-0.797 -0.271,-1.352 -0.8,-1.635 -0.671,-0.359 -0.8,-0.838 -0.8,-2.965 0,-3.473 -1.404,-4.399 -3.235,-2.133 -0.56,0.693 -0.739,0.722 -1.521,0.242 -1.99,-1.221 -4.288,3.651 -2.344,4.968 l 0.9,0.61 -1.7,1.47 c -1.268,1.097 -1.7,1.764 -1.7,2.625 0,0.745 -0.284,1.307 -0.8,1.583 -0.521,0.279 -0.8,0.838 -0.8,1.6 0,0.762 -0.279,1.321 -0.8,1.6 -0.518,0.277 -0.8,0.838 -0.8,1.59 0,1.594 -0.369,1.728 -4.549,1.649 -2.917,-0.056 -3.869,-0.228 -4.735,-0.854 -0.867,-0.628 -1.74,-0.785 -4.368,-0.785 -2.552,0 -3.456,-0.154 -4.049,-0.692 -0.571,-0.516 -1.743,-0.744 -4.632,-0.9 -2.779,-0.149 -4.145,-0.405 -4.856,-0.908 -0.746,-0.528 -1.787,-0.7 -4.238,-0.7 -2.741,0 -3.362,-0.125 -3.973,-0.8 -0.398,-0.44 -1.028,-0.8 -1.4,-0.8 -0.372,0 -1.002,0.36 -1.4,0.8 -0.398,0.44 -1.214,0.8 -1.813,0.8 -0.684,0 -1.315,0.335 -1.694,0.9 l -0.605,0.9 -1.144,-0.84 c -1.461,-1.071 -1.588,-2.262 -0.566,-5.296 1.203,-3.571 1.202,-13.47 -0.002,-16.525 -1.364,-3.461 -0.406,-4.889 3.128,-4.66 1.536,0.099 1.966,0.301 2.37,1.114 1.003,2.021 0.886,2.007 16.721,2.007 h 14.843 l 1.562,-1.6 c 1.326,-1.358 1.813,-1.6 3.219,-1.6 1.149,0 1.879,-0.245 2.381,-0.8 0.62,-0.685 1.232,-0.8 4.272,-0.8 h 3.548 l 0.246,1.231 c 0.459,2.295 3.334,2.411 3.334,0.135 0,-0.755 -0.313,-1.019 -1.63,-1.374 -2.899,-0.781 -1.363,-1.546 3.368,-1.678 l 4.062,-0.114 0.124,-1.5 0.124,-1.5 h -8.412 c -7.726,0 -8.541,-0.067 -9.999,-0.827 -1.236,-0.645 -1.764,-0.733 -2.386,-0.4 -3.244,1.736 -0.586,-3.01 3.291,-5.876 l 1.221,-0.903 25.619,0.103 25.618,0.103 0.2,2.046 m -45.775,1.714 c -0.122,0.198 0.584,0.424 1.569,0.502 2.051,0.163 2.708,0.026 2.385,-0.496 -0.292,-0.473 -3.662,-0.478 -3.954,-0.006 m 23.451,5.54 c 0.122,1.471 0.159,1.502 1.924,1.627 1.097,0.077 2.128,0.433 2.639,0.912 0.759,0.711 1.332,0.775 6,0.673 L 153.4,187 l 0.243,-2 c 0.334,-2.75 0.8,-2.6 -8.091,-2.6 h -8 l 0.124,1.5 m 15.446,0.8 -0.122,1.9 -4.953,0.113 c -4.553,0.103 -4.999,0.048 -5.508,-0.679 -0.392,-0.559 -1.109,-0.826 -2.447,-0.912 -1.731,-0.112 -1.903,-0.215 -2.019,-1.222 l -0.126,-1.1 h 7.648 7.649 l -0.122,1.9 m -33.022,2.767 c -0.7,0.28 -0.624,1.932 0.117,2.547 0.841,0.698 1.482,-0.002 1.314,-1.434 -0.134,-1.145 -0.548,-1.467 -1.431,-1.113 m 3.256,0.304 c -0.333,0.867 -0.018,2.346 0.538,2.529 0.796,0.262 1.534,-1.744 0.916,-2.488 -0.636,-0.766 -1.17,-0.781 -1.454,-0.041 M 118,188.8 c 0,1.371 -0.237,1.471 -1.269,0.538 -1.037,-0.939 -0.914,-1.738 0.269,-1.738 0.844,0 1,0.187 1,1.2 m 3.2,-0.224 c 0,0.537 -0.18,1.088 -0.4,1.224 -0.233,0.144 -0.4,-0.263 -0.4,-0.976 0,-0.673 0.18,-1.224 0.4,-1.224 0.22,0 0.4,0.439 0.4,0.976 m 3.2,0.248 c 0,0.713 -0.167,1.12 -0.4,0.976 -0.22,-0.136 -0.4,-0.687 -0.4,-1.224 0,-0.537 0.18,-0.976 0.4,-0.976 0.22,0 0.4,0.551 0.4,1.224 m 186.229,1.805 c -0.465,0.464 -0.629,1.447 -0.629,3.771 0,4.612 -0.494,4.4 10.259,4.4 h 9.003 l 1.169,-1.169 c 0.99,-0.99 1.169,-1.486 1.169,-3.231 0,-1.745 -0.179,-2.241 -1.169,-3.231 L 329.262,190 h -9.003 c -7.65,0 -9.096,0.094 -9.63,0.629 M 308.6,194.4 v 3.8 H 291.8 275 l 0.129,-2.4 c 0.071,-1.32 -0.071,-2.925 -0.315,-3.567 -0.694,-1.819 -0.565,-1.832 17.186,-1.729 l 16.6,0.096 v 3.8 m 21.431,-2.831 c 1.664,1.664 1.647,4.014 -0.039,5.701 l -1.209,1.208 -8.806,-0.139 c -10.102,-0.159 -9.565,0.062 -9.565,-3.939 0,-4.126 -0.505,-3.928 10.119,-3.968 l 8.331,-0.032 1.169,1.169 m -221.067,0.981 c -0.678,1.767 -0.055,2.45 2.236,2.45 h 2.2 v -1.4 -1.4 l -2.104,-0.121 c -1.571,-0.09 -2.163,0.029 -2.332,0.471 M 127,192.659 c -0.66,0.36 -1.83,0.771 -2.6,0.914 -1.411,0.263 -1.908,1.879 -0.891,2.896 0.255,0.255 9.028,0.66 14.691,0.677 6.7,0.021 9.015,-1.358 6.379,-3.8 -1.189,-1.103 -1.993,-1.207 -2.34,-0.304 -0.285,0.744 -2.016,0.477 -3.07,-0.473 -0.97,-0.873 -3.838,-0.731 -4.662,0.231 -0.377,0.44 -0.981,0.8 -1.342,0.8 -0.361,0 -1.115,-0.36 -1.674,-0.8 -1.232,-0.969 -2.877,-1.021 -4.491,-0.141 m -14,0.941 c 0,1.234 -3.202,1.781 -3.646,0.623 -0.496,-1.292 0.153,-1.876 1.942,-1.746 1.518,0.11 1.704,0.232 1.704,1.123 m 18.307,-0.4 c 0.4,0.467 1.18,0.8 1.875,0.8 0.78,0 1.337,-0.275 1.618,-0.8 0.325,-0.607 0.838,-0.8 2.125,-0.8 1.202,0 1.897,0.233 2.382,0.8 0.82,0.958 2.395,1.041 3.264,0.171 0.572,-0.571 0.686,-0.571 1.258,0 0.345,0.346 0.795,0.629 1,0.629 0.5,0 0.475,1.888 -0.03,2.2 -0.572,0.354 -20.505,0.256 -20.847,-0.102 -0.908,-0.95 -0.522,-1.901 0.824,-2.029 0.757,-0.072 1.817,-0.477 2.354,-0.9 1.286,-1.011 3.298,-0.996 4.177,0.031 m -62.232,2.258 c -0.42,0.42 -0.315,12.259 0.114,12.939 0.64,1.012 1.159,-0.031 1.289,-2.593 0.162,-3.179 0.411,-3.277 8.861,-3.492 l 6.738,-0.171 4.462,4.414 c 6.484,6.417 10.261,8.031 10.261,4.385 0,-0.495 0.283,-1.059 0.629,-1.252 0.648,-0.363 1.306,-1.356 2.345,-3.539 0.328,-0.689 0.882,-1.362 1.232,-1.496 0.493,-0.189 0.609,-0.717 0.515,-2.349 L 105.4,200.2 88,200 70.6,199.8 70.4,197.631 c -0.186,-2.022 -0.675,-2.823 -1.325,-2.173 m 1.005,2.442 0.12,2.3 17.4,0.2 17.4,0.2 0.123,1.704 c 0.092,1.269 -0.039,1.766 -0.515,1.948 -0.351,0.135 -0.906,0.808 -1.234,1.497 -0.966,2.029 -1.623,3.051 -2.294,3.566 -0.346,0.267 -0.686,1.025 -0.755,1.685 -0.159,1.53 -1.632,1.865 -2.78,0.633 -0.427,-0.458 -1.052,-0.833 -1.388,-0.833 -0.337,0 -2.388,-1.8 -4.557,-4 -2.169,-2.2 -4.131,-4 -4.358,-4 -0.228,0 -0.589,-0.327 -0.803,-0.726 -0.358,-0.67 -0.928,-0.713 -7.314,-0.551 -8.66,0.221 -9.125,0.431 -9.125,4.128 0,1.496 -0.15,2.303 -0.4,2.149 -0.521,-0.322 -0.541,-12.2 -0.02,-12.2 0.209,0 0.434,1.035 0.5,2.3 m 145.722,2.504 c 0.317,0.513 -0.14,1.996 -0.615,1.996 -0.515,0 -1.269,-1.543 -0.982,-2.008 0.316,-0.511 1.279,-0.504 1.597,0.012 m -90.846,12.967 c -0.565,1.473 0.003,2.429 1.444,2.429 1.537,0 2.149,-1.256 1.182,-2.422 -0.618,-0.744 -2.342,-0.748 -2.626,-0.007 m 2.444,1.029 c 0,0.733 -0.241,1.034 -0.902,1.128 -0.983,0.14 -1.541,-0.718 -1.143,-1.756 0.406,-1.056 2.045,-0.553 2.045,0.628"
       inkscape:connector-curvature="0"
       style="fill:#929292;fill-rule:evenodd;stroke:none" />
  </g>
</svg>
