<svg id="svg" version="1.1" xmlns="http://www.w3.org/2000/svg" xmlns:xlink="http://www.w3.org/1999/xlink" width="400" height="400" viewBox="0, 0, 400,400"><g id="svgg"><path id="path0" d="M108.413 175.385 C 108.146 175.706,107.578 176.080,107.151 176.216 C 106.239 176.505,104.621 178.046,104.271 178.960 C 104.136 179.312,103.839 179.600,103.613 179.600 C 102.348 179.600,103.482 180.328,105.016 180.501 C 106.015 180.613,107.154 180.997,107.548 181.353 C 108.562 182.271,122.399 182.308,124.146 181.398 C 125.774 180.548,137.277 180.529,137.979 181.375 C 138.689 182.230,151.019 182.254,153.052 181.404 C 154.932 180.619,159.534 180.624,160.576 181.413 C 161.461 182.082,166.000 182.238,166.000 181.600 C 166.000 181.380,165.004 181.200,163.787 181.200 C 162.046 181.200,161.519 181.051,161.314 180.500 C 161.170 180.115,160.726 179.565,160.326 179.277 C 159.793 178.894,159.600 178.229,159.600 176.777 L 159.600 174.800 134.249 174.800 C 112.501 174.800,108.829 174.883,108.413 175.385 M119.312 177.961 C 120.236 178.901,118.184 180.056,115.833 179.919 C 113.769 179.798,112.676 178.418,113.998 177.602 C 114.741 177.142,118.776 177.415,119.312 177.961 M125.415 183.119 C 125.297 183.237,125.200 183.717,125.200 184.187 C 125.200 185.688,124.433 186.000,120.744 186.000 C 118.821 186.000,117.136 186.180,117.000 186.400 C 116.747 186.809,118.082 186.993,120.124 186.831 C 120.743 186.782,121.494 186.946,121.793 187.194 C 122.200 187.532,122.540 187.519,123.139 187.145 C 125.239 185.834,126.811 188.507,125.018 190.341 C 124.376 190.998,122.800 190.594,122.800 189.773 C 122.800 189.458,122.620 189.200,122.400 189.200 C 122.180 189.200,122.000 189.458,122.000 189.773 C 122.000 190.559,120.492 190.974,119.781 190.384 C 119.327 190.007,119.070 190.010,118.604 190.396 C 117.411 191.387,115.265 190.553,114.971 188.985 L 114.711 187.600 111.809 187.600 C 109.514 187.600,108.696 187.767,107.891 188.400 C 107.308 188.859,106.268 189.200,105.454 189.200 C 104.353 189.200,103.650 189.557,102.317 190.795 L 100.600 192.390 85.129 192.395 C 69.159 192.400,68.400 192.328,68.400 190.800 C 68.400 189.228,64.948 188.652,63.600 190.000 C 62.623 190.977,62.616 191.162,63.500 192.411 C 64.113 193.277,64.200 194.443,64.200 201.800 C 64.200 209.157,64.113 210.323,63.500 211.189 C 62.066 213.215,63.768 216.597,65.314 214.792 C 65.687 214.357,66.491 214.000,67.100 214.000 C 67.774 214.000,68.403 213.687,68.707 213.200 C 69.016 212.705,69.640 212.400,70.341 212.400 C 70.968 212.400,71.800 212.758,72.200 213.200 C 72.818 213.883,73.432 214.000,76.408 214.000 C 79.286 214.000,80.069 214.139,80.909 214.800 C 81.744 215.457,82.532 215.600,85.309 215.600 C 88.086 215.600,88.874 215.743,89.709 216.400 C 90.544 217.057,91.332 217.200,94.109 217.200 C 96.886 217.200,97.674 217.343,98.509 218.000 C 99.357 218.667,100.132 218.800,103.163 218.800 L 106.800 218.800 106.800 217.603 C 106.800 216.840,107.090 216.226,107.600 215.907 C 108.085 215.604,108.400 214.974,108.400 214.307 C 108.400 213.640,108.715 213.010,109.200 212.707 C 109.707 212.391,110.000 211.774,110.000 211.026 C 110.000 209.786,111.707 207.600,112.675 207.600 C 113.447 207.600,113.314 207.064,112.400 206.493 C 110.831 205.513,111.645 202.644,114.232 200.036 C 114.322 199.945,114.742 200.185,115.165 200.568 C 115.899 201.233,115.973 201.227,116.767 200.433 C 118.800 198.400,120.400 199.612,120.400 203.184 C 120.400 205.374,120.532 205.890,121.200 206.307 C 121.710 206.626,122.000 207.240,122.000 208.003 C 122.000 208.985,122.165 209.200,122.920 209.200 C 124.149 209.200,124.800 209.920,124.800 211.280 C 124.800 212.280,124.941 212.400,126.120 212.400 C 128.180 212.400,129.283 214.557,127.920 215.920 C 126.548 217.292,124.400 216.179,124.400 214.096 C 124.400 213.303,124.236 212.854,124.000 213.000 C 123.780 213.136,123.600 214.137,123.600 215.224 L 123.600 217.200 132.000 217.200 L 140.400 217.200 140.400 211.280 C 140.400 207.209,140.550 205.210,140.880 204.880 C 141.245 204.515,148.708 204.400,172.026 204.400 C 201.759 204.400,202.722 204.376,203.678 203.625 C 204.220 203.198,205.140 202.730,205.724 202.583 C 207.078 202.243,206.545 200.945,204.888 200.550 C 202.369 199.948,201.941 197.594,204.031 195.836 C 205.511 194.590,205.842 194.558,206.493 195.600 C 207.158 196.666,218.336 196.842,219.200 195.800 C 220.110 194.704,260.337 194.920,261.746 196.029 C 262.326 196.485,262.800 197.115,262.800 197.429 C 262.800 197.964,269.521 198.342,270.033 197.835 C 270.125 197.744,270.142 196.124,270.071 194.235 L 269.941 190.800 266.558 190.800 C 263.967 190.800,263.123 190.936,262.952 191.382 C 262.528 192.485,260.090 193.614,259.013 193.205 C 258.471 192.999,256.015 192.942,253.517 193.077 C 248.600 193.344,248.670 193.343,240.800 193.227 C 234.052 193.128,234.721 193.129,226.539 193.196 C 222.063 193.232,219.588 193.103,219.416 192.826 C 218.941 192.057,207.208 192.269,206.331 193.062 C 205.651 193.678,205.549 193.678,204.869 193.062 C 204.356 192.598,203.406 192.400,201.697 192.400 C 198.688 192.400,198.000 191.836,198.000 189.371 C 198.000 187.362,198.033 187.377,195.600 188.278 C 192.441 189.446,165.450 189.589,164.733 188.441 C 164.285 187.724,163.818 187.600,161.553 187.600 C 157.942 187.600,157.049 186.246,159.112 183.898 C 159.913 182.984,159.447 182.539,158.299 183.122 C 157.805 183.373,156.680 183.628,155.800 183.689 C 154.289 183.794,154.193 183.878,154.067 185.198 C 153.848 187.511,153.620 187.600,147.914 187.600 C 143.332 187.600,142.607 187.507,141.709 186.800 C 141.150 186.360,140.122 186.000,139.426 186.000 C 137.952 186.000,137.200 185.388,137.200 184.187 C 137.200 183.046,136.796 182.706,136.113 183.272 C 135.327 183.924,128.927 184.020,127.115 183.406 C 126.298 183.130,125.533 183.000,125.415 183.119 M275.569 191.100 C 275.551 191.265,275.538 192.840,275.538 194.600 L 275.539 197.800 291.969 197.904 L 308.400 198.009 308.400 194.404 L 308.400 190.800 292.000 190.800 C 282.980 190.800,275.586 190.935,275.569 191.100 M311.859 191.471 C 310.203 192.338,310.465 196.798,312.200 197.270 C 315.419 198.144,328.916 197.848,329.882 196.882 C 331.197 195.567,331.142 193.178,329.765 191.801 L 328.730 190.767 320.801 190.853 C 315.137 190.916,312.582 191.092,311.859 191.471 M113.800 193.600 L 113.800 195.400 111.668 195.522 C 109.229 195.662,108.400 195.182,108.400 193.631 C 108.400 191.991,109.121 191.551,111.597 191.683 L 113.800 191.800 113.800 193.600 M132.185 192.387 C 133.361 193.162,133.376 193.162,134.101 192.384 C 135.008 191.411,138.632 191.286,139.824 192.187 C 140.823 192.943,141.510 192.947,142.257 192.200 C 143.071 191.386,143.262 191.427,144.728 192.736 C 147.380 195.103,146.310 197.200,142.451 197.200 C 140.659 197.200,139.649 197.393,139.168 197.829 C 138.535 198.402,138.358 198.399,137.192 197.796 C 136.231 197.299,135.298 197.189,133.455 197.355 C 128.499 197.802,123.226 197.353,122.910 196.456 C 122.783 196.095,122.403 195.479,122.066 195.088 C 121.212 194.094,122.136 193.213,124.345 192.917 C 125.255 192.795,126.000 192.552,126.000 192.377 C 126.000 191.390,130.685 191.398,132.185 192.387 M70.320 194.480 C 70.584 194.744,70.800 196.004,70.800 197.280 L 70.800 199.600 87.767 199.600 C 97.099 199.600,105.019 199.709,105.367 199.843 C 106.382 200.232,106.249 204.238,105.200 204.893 C 104.760 205.168,104.400 205.784,104.400 206.264 C 104.400 206.743,103.691 207.872,102.825 208.774 C 101.787 209.855,101.207 210.854,101.125 211.707 C 100.803 215.039,97.011 213.475,91.124 207.583 C 86.364 202.820,87.149 203.110,79.200 203.181 C 70.331 203.261,70.859 203.053,70.717 206.535 C 70.618 208.961,70.487 209.413,69.848 209.535 C 68.590 209.775,68.412 208.856,68.406 202.074 C 68.399 194.744,68.839 192.999,70.320 194.480 M207.637 201.300 C 206.989 203.034,209.972 203.449,211.500 201.837 C 212.766 200.501,212.674 200.400,210.187 200.400 C 208.259 200.400,207.931 200.516,207.637 201.300 " stroke="none" fill="#0a0a0a" fill-rule="evenodd"></path><path id="path1" d="M0.000 200.000 L 0.000 400.000 200.000 400.000 L 400.000 400.000 400.000 200.000 L 400.000 0.000 200.000 0.000 L 0.000 0.000 0.000 200.000 M160.325 176.177 C 160.492 178.810,161.795 180.095,164.600 180.390 C 167.775 180.724,167.619 182.544,164.400 182.721 C 162.437 182.829,162.019 183.020,160.517 184.487 C 158.413 186.544,158.578 186.800,162.010 186.800 C 164.362 186.800,164.835 186.919,165.200 187.600 C 165.823 188.764,189.429 188.857,190.424 187.700 C 190.918 187.125,191.702 187.000,194.813 187.000 L 198.600 187.000 198.821 188.928 C 199.141 191.707,198.015 191.584,223.400 191.631 C 262.868 191.706,261.633 191.730,262.248 190.853 C 262.763 190.118,263.591 190.093,285.891 190.146 L 309.000 190.200 309.000 194.400 L 309.000 198.600 292.200 198.706 C 273.496 198.823,272.121 198.679,274.000 196.800 C 275.932 194.868,274.675 191.776,272.080 192.075 C 270.600 192.246,270.207 196.023,271.580 196.880 C 272.031 197.162,272.400 197.500,272.400 197.632 C 272.400 198.975,262.472 199.363,262.125 198.034 C 262.015 197.613,261.518 197.166,261.021 197.041 C 259.958 196.774,224.693 196.809,214.088 197.086 C 208.991 197.220,206.612 197.142,206.233 196.827 C 205.377 196.117,203.600 197.096,203.600 198.277 C 203.600 199.542,203.716 199.566,210.400 199.691 L 216.200 199.800 216.320 201.034 C 216.502 202.890,215.364 203.690,214.340 202.426 L 213.572 201.477 212.464 202.538 C 211.463 203.498,211.062 203.600,208.298 203.600 C 205.801 203.600,205.168 203.729,204.848 204.300 C 204.482 204.955,202.418 205.013,172.928 205.200 L 141.400 205.400 141.200 211.716 C 140.999 218.064,140.675 219.294,139.419 218.474 C 139.189 218.323,135.400 218.110,131.000 218.000 L 123.000 217.800 122.992 214.043 C 122.984 210.526,122.927 210.265,122.092 209.956 C 121.441 209.715,121.200 209.302,121.200 208.427 C 121.200 207.646,120.927 207.082,120.417 206.809 C 119.771 206.463,119.614 205.888,119.517 203.495 C 119.386 200.247,118.778 199.851,117.034 201.879 C 116.253 202.786,116.058 202.843,115.311 202.376 C 114.570 201.914,114.344 201.968,113.441 202.825 C 112.209 203.995,112.101 205.412,113.200 206.000 C 114.158 206.513,114.258 207.926,113.360 208.271 C 112.086 208.760,110.800 210.434,110.800 211.604 C 110.800 212.362,110.520 212.922,110.000 213.200 C 109.479 213.479,109.200 214.038,109.200 214.800 C 109.200 215.562,108.921 216.121,108.400 216.400 C 107.888 216.674,107.600 217.238,107.600 217.965 C 107.600 219.699,107.007 219.885,102.267 219.631 C 98.779 219.445,97.834 219.263,97.423 218.700 C 97.004 218.126,96.284 218.000,93.419 218.000 C 90.532 218.000,89.750 217.861,88.909 217.200 C 88.069 216.539,87.286 216.400,84.400 216.400 C 81.514 216.400,80.731 216.261,79.891 215.600 C 79.052 214.940,78.268 214.800,75.424 214.800 C 72.727 214.800,71.925 214.669,71.745 214.200 C 71.616 213.865,71.022 213.600,70.400 213.600 C 69.778 213.600,69.184 213.865,69.055 214.200 C 68.925 214.541,68.328 214.800,67.675 214.800 C 67.032 214.800,66.204 215.153,65.800 215.600 C 63.065 218.622,60.732 212.785,62.956 208.485 C 63.881 206.696,63.892 196.195,62.970 194.879 C 61.976 193.459,61.749 189.908,62.598 189.059 C 63.762 187.895,68.420 188.279,69.073 189.593 C 70.076 191.612,69.982 191.600,85.489 191.600 L 100.025 191.600 101.496 190.000 C 102.799 188.583,103.176 188.400,104.787 188.400 C 106.174 188.400,106.726 188.210,107.107 187.600 C 107.546 186.897,108.040 186.800,111.184 186.800 C 114.174 186.800,114.824 186.685,115.151 186.100 C 115.473 185.522,116.296 185.365,119.871 185.200 L 124.200 185.000 124.327 183.900 L 124.453 182.800 116.040 182.800 C 108.930 182.800,107.405 182.694,106.193 182.116 C 104.976 181.536,104.632 181.513,103.909 181.964 C 103.173 182.424,102.988 182.398,102.529 181.771 C 101.770 180.732,101.876 179.684,102.800 179.107 C 103.240 178.832,103.600 178.457,103.600 178.273 C 103.600 177.834,105.840 175.600,106.280 175.600 C 106.468 175.600,106.932 175.239,107.310 174.797 C 107.987 174.006,108.396 173.996,134.099 174.097 L 160.200 174.200 160.325 176.177 M138.073 183.900 C 138.189 184.907,138.361 185.010,140.092 185.122 C 141.430 185.208,142.147 185.475,142.539 186.034 C 143.048 186.761,143.494 186.816,148.047 186.713 L 153.000 186.600 153.122 184.700 L 153.244 182.800 145.595 182.800 L 137.947 182.800 138.073 183.900 M116.000 188.138 C 116.000 188.678,117.229 190.000,117.731 190.000 C 117.879 190.000,118.000 189.460,118.000 188.800 C 118.000 187.787,117.844 187.600,117.000 187.600 C 116.429 187.600,116.000 187.831,116.000 188.138 M120.400 188.824 C 120.400 189.537,120.567 189.944,120.800 189.800 C 121.020 189.664,121.200 189.113,121.200 188.576 C 121.200 188.039,121.020 187.600,120.800 187.600 C 120.580 187.600,120.400 188.151,120.400 188.824 M123.600 188.576 C 123.600 189.113,123.780 189.664,124.000 189.800 C 124.233 189.944,124.400 189.537,124.400 188.824 C 124.400 188.151,124.220 187.600,124.000 187.600 C 123.780 187.600,123.600 188.039,123.600 188.576 M330.431 191.169 C 331.421 192.159,331.600 192.655,331.600 194.400 C 331.600 196.145,331.421 196.641,330.431 197.631 L 329.262 198.800 320.259 198.800 C 309.506 198.800,310.000 199.012,310.000 194.400 C 310.000 189.788,309.506 190.000,320.259 190.000 L 329.262 190.000 330.431 191.169 M109.354 192.977 C 108.858 194.269,109.507 194.853,111.296 194.723 C 112.814 194.613,113.000 194.491,113.000 193.600 C 113.000 192.366,109.798 191.819,109.354 192.977 M127.130 193.169 C 126.593 193.592,125.533 193.997,124.776 194.069 C 123.430 194.197,123.044 195.148,123.952 196.098 C 124.294 196.456,144.227 196.554,144.799 196.200 C 145.304 195.888,145.329 194.000,144.829 194.000 C 144.624 194.000,144.174 193.717,143.829 193.371 C 143.257 192.800,143.143 192.800,142.571 193.371 C 141.702 194.241,140.127 194.158,139.307 193.200 C 138.822 192.633,138.127 192.400,136.925 192.400 C 135.638 192.400,135.125 192.593,134.800 193.200 C 134.519 193.725,133.962 194.000,133.182 194.000 C 132.487 194.000,131.707 193.667,131.307 193.200 C 130.428 192.173,128.416 192.158,127.130 193.169 M69.200 201.576 C 69.200 205.129,69.362 207.653,69.600 207.800 C 69.850 207.954,70.000 207.147,70.000 205.651 C 70.000 201.954,70.465 201.744,79.125 201.523 C 85.511 201.361,86.081 201.404,86.439 202.074 C 86.653 202.473,87.014 202.800,87.242 202.800 C 87.469 202.800,89.431 204.600,91.600 206.800 C 93.769 209.000,95.820 210.800,96.157 210.800 C 96.493 210.800,97.118 211.175,97.545 211.633 C 98.693 212.865,100.166 212.530,100.325 211.000 C 100.394 210.340,100.734 209.582,101.080 209.315 C 101.751 208.800,102.408 207.778,103.374 205.749 C 103.702 205.060,104.257 204.387,104.608 204.252 C 105.084 204.070,105.215 203.573,105.123 202.304 L 105.000 200.600 87.600 200.400 L 70.200 200.200 70.080 197.900 C 69.830 193.109,69.200 195.741,69.200 201.576 M125.355 213.772 C 124.957 214.810,125.515 215.668,126.498 215.528 C 127.159 215.434,127.400 215.133,127.400 214.400 C 127.400 213.219,125.761 212.716,125.355 213.772 " stroke="none" fill="#fcfcfc" fill-rule="evenodd"></path><path id="path2" d="M107.561 175.311 C 103.940 177.547,101.434 181.564,104.012 180.997 C 104.874 180.808,105.700 180.980,106.875 181.592 C 108.426 182.401,109.021 182.448,116.564 182.365 L 124.600 182.276 124.600 183.838 L 124.600 185.400 121.200 185.500 C 116.206 185.648,114.281 186.374,117.100 187.048 C 117.705 187.192,118.411 187.476,118.669 187.678 C 118.962 187.909,119.436 187.860,119.936 187.547 C 121.406 186.629,122.566 188.272,121.489 189.745 C 120.855 190.613,119.600 190.223,119.600 189.157 C 119.600 188.741,119.420 188.400,119.200 188.400 C 118.980 188.400,118.800 188.748,118.800 189.173 C 118.800 191.063,115.975 190.453,115.263 188.408 C 114.728 186.874,109.349 186.547,107.554 187.940 C 107.029 188.347,105.880 188.775,105.000 188.891 C 103.906 189.035,102.901 189.559,101.822 190.551 L 100.244 192.000 85.150 192.000 C 69.031 192.000,69.243 192.025,68.613 190.041 C 68.360 189.242,67.293 188.814,65.533 188.805 C 62.758 188.791,62.027 190.227,63.243 193.305 C 64.342 196.089,64.223 208.964,63.079 211.000 C 62.123 212.702,62.237 213.887,63.466 215.026 L 64.533 216.015 65.392 215.207 C 65.865 214.763,66.707 214.400,67.264 214.400 C 67.821 214.400,68.602 214.040,69.000 213.600 C 69.398 213.160,70.106 212.800,70.573 212.800 C 71.040 212.800,71.730 213.160,72.107 213.600 C 72.689 214.280,73.289 214.400,76.096 214.403 C 78.720 214.405,79.647 214.569,80.600 215.200 C 81.556 215.833,82.480 215.995,85.137 215.997 C 87.866 216.000,88.659 216.146,89.491 216.800 C 90.315 217.449,91.114 217.600,93.707 217.600 C 96.228 217.600,97.185 217.773,98.225 218.415 C 99.350 219.111,100.092 219.214,103.272 219.115 L 107.000 219.000 107.125 217.701 C 107.201 216.917,107.558 216.237,108.025 215.986 C 108.521 215.721,108.800 215.150,108.800 214.400 C 108.800 213.638,109.079 213.079,109.600 212.800 C 110.120 212.522,110.400 211.962,110.400 211.204 C 110.400 210.074,111.344 208.826,113.047 207.703 C 113.774 207.224,113.769 207.184,112.900 206.555 C 111.699 205.684,111.753 204.200,113.054 202.322 C 114.254 200.591,114.289 200.576,115.226 201.424 C 115.857 201.995,116.006 201.958,116.966 200.997 C 118.896 199.067,119.780 199.695,119.917 203.095 C 120.014 205.488,120.171 206.063,120.817 206.409 C 121.323 206.680,121.600 207.246,121.600 208.009 C 121.600 208.981,121.848 209.293,123.004 209.776 L 124.408 210.363 123.780 211.933 C 123.418 212.839,123.205 214.327,123.276 215.451 L 123.400 217.400 131.600 217.600 C 136.110 217.710,140.020 217.647,140.290 217.459 C 140.631 217.222,140.813 215.279,140.890 211.059 L 141.000 205.000 172.258 204.800 C 202.809 204.605,203.536 204.582,204.403 203.800 C 205.127 203.147,205.777 203.015,207.945 203.083 C 210.360 203.158,210.726 203.059,212.000 201.988 C 213.957 200.342,213.191 199.900,208.800 200.141 C 204.443 200.379,203.439 200.107,203.269 198.643 C 203.038 196.651,205.306 194.882,206.400 196.200 C 207.086 197.027,217.902 197.071,219.520 196.254 C 220.386 195.817,224.543 195.702,240.505 195.673 L 260.410 195.636 261.792 197.018 C 263.149 198.376,267.853 199.045,270.067 198.196 C 270.615 197.985,270.725 191.649,270.196 190.793 C 269.606 189.838,263.506 190.341,262.360 191.438 L 261.277 192.476 246.539 192.457 C 238.432 192.447,226.130 192.401,219.200 192.356 C 212.270 192.311,206.240 192.296,205.800 192.323 C 200.653 192.635,198.400 191.737,198.400 189.375 C 198.400 188.425,198.262 187.562,198.093 187.458 C 197.662 187.191,191.546 188.004,190.705 188.440 C 189.116 189.264,165.268 188.875,164.809 188.017 C 164.463 187.371,163.888 187.214,161.499 187.117 C 158.002 186.975,157.742 186.513,159.803 184.105 C 161.160 182.519,161.352 182.432,163.715 182.319 C 166.932 182.165,167.334 181.072,164.245 180.876 C 161.531 180.703,160.097 179.269,159.924 176.555 L 159.800 174.600 134.400 174.511 L 109.000 174.422 107.561 175.311 M159.600 176.777 C 159.600 178.229,159.793 178.894,160.326 179.277 C 160.726 179.565,161.170 180.115,161.314 180.500 C 161.519 181.051,162.046 181.200,163.787 181.200 C 165.004 181.200,166.000 181.380,166.000 181.600 C 166.000 182.238,161.461 182.082,160.576 181.413 C 159.534 180.624,154.932 180.619,153.052 181.404 C 151.019 182.254,138.689 182.230,137.979 181.375 C 137.277 180.529,125.774 180.548,124.146 181.398 C 122.399 182.308,108.562 182.271,107.548 181.353 C 107.154 180.997,106.015 180.613,105.016 180.501 C 103.482 180.328,102.348 179.600,103.613 179.600 C 103.839 179.600,104.136 179.312,104.271 178.960 C 104.621 178.046,106.239 176.505,107.151 176.216 C 107.578 176.080,108.146 175.706,108.413 175.385 C 108.829 174.883,112.501 174.800,134.249 174.800 L 159.600 174.800 159.600 176.777 M113.998 177.602 C 112.676 178.418,113.769 179.798,115.833 179.919 C 118.184 180.056,120.236 178.901,119.312 177.961 C 118.776 177.415,114.741 177.142,113.998 177.602 M118.300 178.500 C 118.197 178.808,117.391 179.000,116.200 179.000 C 115.009 179.000,114.203 178.808,114.100 178.500 C 113.980 178.139,114.564 178.000,116.200 178.000 C 117.836 178.000,118.420 178.139,118.300 178.500 M158.700 181.876 C 158.315 181.976,157.685 181.976,157.300 181.876 C 156.915 181.775,157.230 181.693,158.000 181.693 C 158.770 181.693,159.085 181.775,158.700 181.876 M153.779 184.300 C 153.626 185.565,153.422 186.735,153.326 186.900 C 152.934 187.578,143.102 187.235,142.307 186.516 C 141.891 186.139,140.707 185.734,139.675 185.616 C 137.844 185.405,137.797 185.365,137.676 183.909 L 137.553 182.418 145.076 182.300 C 149.214 182.234,152.928 182.140,153.329 182.091 C 153.987 182.009,154.031 182.221,153.779 184.300 M132.076 183.824 C 134.002 183.776,135.802 183.530,136.113 183.272 C 136.796 182.706,137.200 183.046,137.200 184.187 C 137.200 185.388,137.952 186.000,139.426 186.000 C 140.122 186.000,141.150 186.360,141.709 186.800 C 142.607 187.507,143.332 187.600,147.914 187.600 C 153.620 187.600,153.848 187.511,154.067 185.198 C 154.193 183.878,154.289 183.794,155.800 183.689 C 156.680 183.628,157.805 183.373,158.299 183.122 C 159.447 182.539,159.913 182.984,159.112 183.898 C 157.049 186.246,157.942 187.600,161.553 187.600 C 163.818 187.600,164.285 187.724,164.733 188.441 C 165.450 189.589,192.441 189.446,195.600 188.278 C 198.033 187.377,198.000 187.362,198.000 189.371 C 198.000 191.836,198.688 192.400,201.697 192.400 C 203.406 192.400,204.356 192.598,204.869 193.062 C 205.549 193.678,205.651 193.678,206.331 193.062 C 207.208 192.269,218.941 192.057,219.416 192.826 C 219.588 193.103,222.063 193.232,226.539 193.196 C 234.721 193.129,234.052 193.128,240.800 193.227 C 248.670 193.343,248.600 193.344,253.517 193.077 C 256.015 192.942,258.471 192.999,259.013 193.205 C 260.090 193.614,262.528 192.485,262.952 191.382 C 263.123 190.936,263.967 190.800,266.558 190.800 L 269.941 190.800 270.071 194.235 C 270.142 196.124,270.125 197.744,270.033 197.835 C 269.521 198.342,262.800 197.964,262.800 197.429 C 262.800 197.115,262.326 196.485,261.746 196.029 C 260.337 194.920,220.110 194.704,219.200 195.800 C 218.336 196.842,207.158 196.666,206.493 195.600 C 205.842 194.558,205.511 194.590,204.031 195.836 C 201.941 197.594,202.369 199.948,204.888 200.550 C 206.545 200.945,207.078 202.243,205.724 202.583 C 205.140 202.730,204.220 203.198,203.678 203.625 C 202.722 204.376,201.759 204.400,172.026 204.400 C 148.708 204.400,141.245 204.515,140.880 204.880 C 140.550 205.210,140.400 207.209,140.400 211.280 L 140.400 217.200 132.000 217.200 L 123.600 217.200 123.600 215.224 C 123.600 214.137,123.780 213.136,124.000 213.000 C 124.236 212.854,124.400 213.303,124.400 214.096 C 124.400 215.709,125.000 216.400,126.400 216.400 C 127.722 216.400,128.400 215.722,128.400 214.400 C 128.400 213.005,127.710 212.400,126.120 212.400 C 124.941 212.400,124.800 212.280,124.800 211.280 C 124.800 209.920,124.149 209.200,122.920 209.200 C 122.165 209.200,122.000 208.985,122.000 208.003 C 122.000 207.240,121.710 206.626,121.200 206.307 C 120.532 205.890,120.400 205.374,120.400 203.184 C 120.400 199.612,118.800 198.400,116.767 200.433 C 115.973 201.227,115.899 201.233,115.165 200.568 C 114.742 200.185,114.322 199.945,114.232 200.036 C 111.645 202.644,110.831 205.513,112.400 206.493 C 113.314 207.064,113.447 207.600,112.675 207.600 C 111.707 207.600,110.000 209.786,110.000 211.026 C 110.000 211.774,109.707 212.391,109.200 212.707 C 108.715 213.010,108.400 213.640,108.400 214.307 C 108.400 214.974,108.085 215.604,107.600 215.907 C 107.090 216.226,106.800 216.840,106.800 217.603 L 106.800 218.800 103.163 218.800 C 100.132 218.800,99.357 218.667,98.509 218.000 C 97.674 217.343,96.886 217.200,94.109 217.200 C 91.332 217.200,90.544 217.057,89.709 216.400 C 88.874 215.743,88.086 215.600,85.309 215.600 C 82.532 215.600,81.744 215.457,80.909 214.800 C 80.069 214.139,79.286 214.000,76.408 214.000 C 73.432 214.000,72.818 213.883,72.200 213.200 C 71.800 212.758,70.968 212.400,70.341 212.400 C 69.640 212.400,69.016 212.705,68.707 213.200 C 68.403 213.687,67.774 214.000,67.100 214.000 C 66.491 214.000,65.687 214.357,65.314 214.792 C 63.768 216.597,62.066 213.215,63.500 211.189 C 64.113 210.323,64.200 209.157,64.200 201.800 C 64.200 194.443,64.113 193.277,63.500 192.411 C 62.616 191.162,62.623 190.977,63.600 190.000 C 64.948 188.652,68.400 189.228,68.400 190.800 C 68.400 192.328,69.159 192.400,85.129 192.395 L 100.600 192.390 102.317 190.795 C 103.650 189.557,104.353 189.200,105.454 189.200 C 106.268 189.200,107.308 188.859,107.891 188.400 C 108.696 187.767,109.514 187.600,111.809 187.600 L 114.711 187.600 114.971 188.985 C 115.265 190.553,117.411 191.387,118.604 190.396 C 119.070 190.010,119.327 190.007,119.781 190.384 C 120.492 190.974,122.000 190.559,122.000 189.773 C 122.000 189.458,122.180 189.200,122.400 189.200 C 122.620 189.200,122.800 189.458,122.800 189.773 C 122.800 190.594,124.376 190.998,125.018 190.341 C 126.811 188.507,125.239 185.834,123.139 187.145 C 122.540 187.519,122.200 187.532,121.793 187.194 C 121.494 186.946,120.743 186.782,120.124 186.831 C 118.082 186.993,116.747 186.809,117.000 186.400 C 117.136 186.180,118.821 186.000,120.744 186.000 C 124.433 186.000,125.200 185.688,125.200 184.187 C 125.200 182.951,125.458 182.846,127.115 183.406 C 127.959 183.692,130.101 183.872,132.076 183.824 M124.567 187.443 C 125.388 187.758,125.382 189.351,124.557 190.036 C 123.439 190.964,122.229 188.731,123.280 187.680 C 123.841 187.119,123.762 187.134,124.567 187.443 M275.400 190.704 C 274.556 191.329,274.911 198.013,275.800 198.229 C 276.240 198.335,283.800 198.372,292.600 198.311 L 308.600 198.200 308.600 194.400 L 308.600 190.600 292.200 190.504 C 283.180 190.451,275.620 190.541,275.400 190.704 M312.099 190.712 C 310.877 190.907,310.497 191.787,310.480 194.469 C 310.458 198.115,310.120 197.989,320.200 198.121 L 329.000 198.237 330.100 197.149 C 331.683 195.584,331.647 193.185,330.015 191.553 L 328.830 190.368 320.915 190.468 C 316.562 190.524,312.595 190.633,312.099 190.712 M308.400 194.404 L 308.400 198.009 291.969 197.904 L 275.539 197.800 275.538 194.600 C 275.538 192.840,275.551 191.265,275.569 191.100 C 275.586 190.935,282.980 190.800,292.000 190.800 L 308.400 190.800 308.400 194.404 M329.765 191.801 C 331.142 193.178,331.197 195.567,329.882 196.882 C 328.980 197.784,328.830 197.798,321.182 197.698 C 310.876 197.563,311.021 197.608,310.923 194.472 C 310.816 191.001,310.923 190.962,320.801 190.853 L 328.730 190.767 329.765 191.801 M108.897 192.063 C 107.195 193.765,108.736 195.690,111.668 195.522 L 113.800 195.400 113.800 193.600 L 113.800 191.800 111.597 191.683 C 110.229 191.610,109.206 191.754,108.897 192.063 M126.700 191.876 C 126.315 191.976,126.000 192.202,126.000 192.377 C 126.000 192.552,125.255 192.795,124.345 192.917 C 122.136 193.213,121.212 194.094,122.066 195.088 C 122.403 195.479,122.783 196.095,122.910 196.456 C 123.226 197.353,128.499 197.802,133.455 197.355 C 135.298 197.189,136.231 197.299,137.192 197.796 C 138.358 198.399,138.535 198.402,139.168 197.829 C 139.649 197.393,140.659 197.200,142.451 197.200 C 146.310 197.200,147.380 195.103,144.728 192.736 C 143.262 191.427,143.071 191.386,142.257 192.200 C 141.510 192.947,140.823 192.943,139.824 192.187 C 138.632 191.286,135.008 191.411,134.101 192.384 C 133.376 193.162,133.361 193.162,132.185 192.387 C 131.056 191.642,128.504 191.404,126.700 191.876 M113.400 193.600 L 113.400 195.000 111.200 195.000 C 109.203 195.000,108.988 194.914,108.868 194.071 C 108.616 192.288,109.030 191.949,111.296 192.079 L 113.400 192.200 113.400 193.600 M131.883 192.793 C 133.359 193.584,133.365 193.584,134.207 192.793 C 135.233 191.830,138.264 191.710,139.424 192.587 C 140.457 193.369,141.573 193.348,142.475 192.532 C 143.171 191.902,143.283 191.930,144.425 193.024 C 147.300 195.779,144.879 197.340,138.000 197.166 C 137.450 197.152,135.200 197.094,133.000 197.037 C 130.800 196.980,127.790 196.904,126.310 196.867 C 122.221 196.765,120.796 193.263,124.824 193.213 C 125.386 193.206,126.196 192.936,126.624 192.613 C 127.724 191.780,130.148 191.864,131.883 192.793 M68.814 194.774 C 68.315 195.707,68.262 208.363,68.754 209.139 C 69.700 210.632,70.598 209.441,70.717 206.535 C 70.859 203.053,70.331 203.261,79.200 203.181 C 87.149 203.110,86.364 202.820,91.124 207.583 C 97.011 213.475,100.803 215.039,101.125 211.707 C 101.207 210.854,101.787 209.855,102.825 208.774 C 103.691 207.872,104.400 206.743,104.400 206.264 C 104.400 205.784,104.760 205.168,105.200 204.893 C 106.249 204.238,106.382 200.232,105.367 199.843 C 105.019 199.709,97.099 199.600,87.767 199.600 L 70.800 199.600 70.800 197.280 C 70.800 194.348,69.751 193.024,68.814 194.774 M70.400 197.431 L 70.600 199.800 88.000 200.000 L 105.400 200.200 105.520 202.275 C 105.619 203.986,105.505 204.423,104.873 204.761 C 104.451 204.987,104.005 205.677,103.881 206.296 C 103.757 206.914,103.028 208.067,102.260 208.857 C 101.478 209.662,100.805 210.802,100.732 211.448 C 100.558 212.968,98.532 213.277,96.942 212.026 C 96.364 211.572,95.724 211.200,95.518 211.200 C 95.313 211.200,93.402 209.443,91.272 207.296 C 86.033 202.013,86.141 202.070,82.000 202.443 C 80.130 202.612,77.340 202.687,75.800 202.612 C 71.249 202.387,70.400 202.944,70.400 206.156 C 70.400 208.718,69.859 209.852,69.161 208.751 C 68.765 208.126,68.667 196.412,69.049 195.416 C 69.544 194.126,70.204 195.111,70.400 197.431 M214.400 200.392 C 213.876 200.723,213.891 200.862,214.514 201.486 C 215.138 202.109,215.277 202.124,215.608 201.600 C 216.314 200.483,215.517 199.686,214.400 200.392 M212.400 200.644 C 212.400 201.403,210.463 202.786,209.400 202.787 C 207.715 202.788,207.233 202.381,207.637 201.300 C 207.957 200.447,212.400 199.834,212.400 200.644 M127.800 214.400 C 127.800 216.194,125.117 216.625,124.868 214.871 C 124.642 213.272,125.078 212.738,126.497 212.874 C 127.696 212.990,127.800 213.112,127.800 214.400 " stroke="none" fill="#747474" fill-rule="evenodd"></path><path id="path3" d="M115.105 179.083 C 115.602 179.179,116.322 179.175,116.705 179.075 C 117.087 178.975,116.680 178.896,115.800 178.901 C 114.920 178.905,114.607 178.987,115.105 179.083 M157.300 181.876 C 157.685 181.976,158.315 181.976,158.700 181.876 C 159.085 181.775,158.770 181.693,158.000 181.693 C 157.230 181.693,156.915 181.775,157.300 181.876 M160.175 183.700 L 159.000 185.000 160.300 183.825 C 161.512 182.730,161.784 182.400,161.475 182.400 C 161.406 182.400,160.821 182.985,160.175 183.700 M191.900 187.882 C 192.395 187.978,193.205 187.978,193.700 187.882 C 194.195 187.787,193.790 187.709,192.800 187.709 C 191.810 187.709,191.405 187.787,191.900 187.882 M237.505 192.283 C 238.002 192.379,238.722 192.375,239.105 192.275 C 239.487 192.175,239.080 192.096,238.200 192.101 C 237.320 192.105,237.007 192.187,237.505 192.283 M256.100 192.276 C 256.485 192.376,257.115 192.376,257.500 192.276 C 257.885 192.175,257.570 192.093,256.800 192.093 C 256.030 192.093,255.715 192.175,256.100 192.276 M246.900 192.676 C 247.285 192.776,247.915 192.776,248.300 192.676 C 248.685 192.575,248.370 192.493,247.600 192.493 C 246.830 192.493,246.515 192.575,246.900 192.676 M226.705 195.883 C 227.202 195.979,227.922 195.975,228.305 195.875 C 228.687 195.775,228.280 195.696,227.400 195.701 C 226.520 195.705,226.207 195.787,226.705 195.883 M237.324 195.899 C 240.362 195.967,245.222 195.967,248.124 195.899 C 251.026 195.831,248.540 195.775,242.600 195.775 C 236.660 195.775,234.286 195.831,237.324 195.899 M317.315 198.296 C 318.588 198.376,320.568 198.375,321.715 198.294 C 322.862 198.214,321.820 198.149,319.400 198.150 C 316.980 198.151,316.042 198.216,317.315 198.296 M77.500 202.682 C 77.995 202.778,78.805 202.778,79.300 202.682 C 79.795 202.587,79.390 202.509,78.400 202.509 C 77.410 202.509,77.005 202.587,77.500 202.682 " stroke="none" fill="#7c7c7c" fill-rule="evenodd"></path><path id="path4" d="M107.310 174.797 C 106.932 175.239,106.468 175.600,106.280 175.600 C 105.840 175.600,103.600 177.834,103.600 178.273 C 103.600 178.457,103.240 178.832,102.800 179.107 C 101.876 179.684,101.770 180.732,102.529 181.771 C 102.988 182.398,103.173 182.424,103.909 181.964 C 104.632 181.513,104.976 181.536,106.193 182.116 C 107.405 182.694,108.930 182.800,116.040 182.800 L 124.453 182.800 124.327 183.900 L 124.200 185.000 119.871 185.200 C 116.296 185.365,115.473 185.522,115.151 186.100 C 114.824 186.685,114.174 186.800,111.184 186.800 C 108.040 186.800,107.546 186.897,107.107 187.600 C 106.726 188.210,106.174 188.400,104.787 188.400 C 103.176 188.400,102.799 188.583,101.496 190.000 L 100.025 191.600 85.489 191.600 C 69.982 191.600,70.076 191.612,69.073 189.593 C 68.420 188.279,63.762 187.895,62.598 189.059 C 61.749 189.908,61.976 193.459,62.970 194.879 C 63.892 196.195,63.881 206.696,62.956 208.485 C 60.732 212.785,63.065 218.622,65.800 215.600 C 66.204 215.153,67.032 214.800,67.675 214.800 C 68.328 214.800,68.925 214.541,69.055 214.200 C 69.184 213.865,69.778 213.600,70.400 213.600 C 71.022 213.600,71.616 213.865,71.745 214.200 C 71.925 214.669,72.727 214.800,75.424 214.800 C 78.268 214.800,79.052 214.940,79.891 215.600 C 80.731 216.261,81.514 216.400,84.400 216.400 C 87.286 216.400,88.069 216.539,88.909 217.200 C 89.750 217.861,90.532 218.000,93.419 218.000 C 96.284 218.000,97.004 218.126,97.423 218.700 C 97.834 219.263,98.779 219.445,102.267 219.631 C 107.007 219.885,107.600 219.699,107.600 217.965 C 107.600 217.238,107.888 216.674,108.400 216.400 C 108.921 216.121,109.200 215.562,109.200 214.800 C 109.200 214.038,109.479 213.479,110.000 213.200 C 110.520 212.922,110.800 212.362,110.800 211.604 C 110.800 210.434,112.086 208.760,113.360 208.271 C 114.258 207.926,114.158 206.513,113.200 206.000 C 112.101 205.412,112.209 203.995,113.441 202.825 C 114.344 201.968,114.570 201.914,115.311 202.376 C 116.058 202.843,116.253 202.786,117.034 201.879 C 118.778 199.851,119.386 200.247,119.517 203.495 C 119.614 205.888,119.771 206.463,120.417 206.809 C 120.927 207.082,121.200 207.646,121.200 208.427 C 121.200 209.302,121.441 209.715,122.092 209.956 C 122.927 210.265,122.984 210.526,122.992 214.043 L 123.000 217.800 131.000 218.000 C 135.400 218.110,139.189 218.323,139.419 218.474 C 140.675 219.294,140.999 218.064,141.200 211.716 L 141.400 205.400 172.928 205.200 C 202.418 205.013,204.482 204.955,204.848 204.300 C 205.168 203.729,205.801 203.600,208.298 203.600 C 211.062 203.600,211.463 203.498,212.464 202.538 L 213.572 201.477 214.340 202.426 C 215.364 203.690,216.502 202.890,216.320 201.034 L 216.200 199.800 210.400 199.691 C 203.716 199.566,203.600 199.542,203.600 198.277 C 203.600 197.096,205.377 196.117,206.233 196.827 C 206.612 197.142,208.991 197.220,214.088 197.086 C 224.693 196.809,259.958 196.774,261.021 197.041 C 261.518 197.166,262.015 197.613,262.125 198.034 C 262.472 199.363,272.400 198.975,272.400 197.632 C 272.400 197.500,272.031 197.162,271.580 196.880 C 270.207 196.023,270.600 192.246,272.080 192.075 C 274.675 191.776,275.932 194.868,274.000 196.800 C 272.121 198.679,273.496 198.823,292.200 198.706 L 309.000 198.600 309.000 194.400 L 309.000 190.200 285.891 190.146 C 263.591 190.093,262.763 190.118,262.248 190.853 C 261.633 191.730,262.868 191.706,223.400 191.631 C 198.015 191.584,199.141 191.707,198.821 188.928 L 198.600 187.000 194.813 187.000 C 191.702 187.000,190.918 187.125,190.424 187.700 C 189.429 188.857,165.823 188.764,165.200 187.600 C 164.835 186.919,164.362 186.800,162.010 186.800 C 158.578 186.800,158.413 186.544,160.517 184.487 C 162.019 183.020,162.437 182.829,164.400 182.721 C 167.619 182.544,167.775 180.724,164.600 180.390 C 161.795 180.095,160.492 178.810,160.325 176.177 L 160.200 174.200 134.099 174.097 C 108.396 173.996,107.987 174.006,107.310 174.797 M160.000 176.646 C 160.255 179.253,161.751 180.682,164.426 180.873 C 167.217 181.073,166.845 182.166,163.933 182.319 C 161.821 182.430,161.554 182.560,160.007 184.239 C 157.828 186.603,158.024 186.974,161.527 187.117 C 163.888 187.214,164.464 187.372,164.809 188.017 C 165.356 189.038,189.174 189.252,190.611 188.249 C 191.803 187.417,198.155 187.210,198.264 188.000 C 198.882 192.478,195.404 192.031,231.113 192.229 L 261.241 192.397 262.181 191.383 C 263.075 190.418,263.301 190.375,266.848 190.484 L 270.576 190.600 270.576 194.400 L 270.576 198.200 266.709 198.314 C 263.181 198.418,262.806 198.358,262.413 197.623 C 262.176 197.181,261.602 196.615,261.139 196.367 C 260.021 195.769,220.739 195.791,219.618 196.390 C 218.274 197.109,207.190 196.915,206.353 196.157 C 205.319 195.222,203.200 196.731,203.200 198.404 C 203.200 200.024,203.634 200.162,208.462 200.077 C 213.309 199.991,213.851 200.277,212.169 202.033 C 211.136 203.110,210.829 203.200,208.179 203.200 C 205.917 203.200,205.093 203.369,204.294 203.998 C 203.303 204.777,202.562 204.797,172.140 204.898 L 141.000 205.000 140.800 211.268 C 140.690 214.716,140.510 217.606,140.400 217.692 C 140.290 217.778,136.420 217.747,131.800 217.624 L 123.400 217.400 123.412 214.800 C 123.419 213.370,123.568 211.727,123.743 211.150 C 124.026 210.218,123.923 210.051,122.831 209.671 C 121.823 209.319,121.600 209.023,121.600 208.035 C 121.600 207.238,121.329 206.683,120.800 206.400 C 120.129 206.041,120.000 205.562,120.000 203.435 C 120.000 199.962,118.596 199.036,116.765 201.302 C 116.205 201.995,116.026 202.024,115.244 201.544 C 113.254 200.323,110.956 205.195,112.900 206.512 L 113.800 207.122 112.100 208.592 C 110.832 209.689,110.400 210.356,110.400 211.217 C 110.400 211.962,110.116 212.524,109.600 212.800 C 109.079 213.079,108.800 213.638,108.800 214.400 C 108.800 215.162,108.521 215.721,108.000 216.000 C 107.482 216.277,107.200 216.838,107.200 217.590 C 107.200 219.184,106.831 219.318,102.651 219.239 C 99.734 219.183,98.782 219.011,97.916 218.385 C 97.049 217.757,96.176 217.600,93.548 217.600 C 90.996 217.600,90.092 217.446,89.499 216.908 C 88.928 216.392,87.756 216.164,84.867 216.008 C 82.088 215.859,80.722 215.603,80.011 215.100 C 79.265 214.572,78.224 214.400,75.773 214.400 C 73.032 214.400,72.411 214.275,71.800 213.600 C 71.402 213.160,70.772 212.800,70.400 212.800 C 70.028 212.800,69.398 213.160,69.000 213.600 C 68.602 214.040,67.786 214.400,67.187 214.400 C 66.503 214.400,65.872 214.735,65.493 215.300 L 64.888 216.200 63.744 215.360 C 62.283 214.289,62.156 213.098,63.178 210.064 C 64.381 206.493,64.380 196.594,63.176 193.539 C 61.812 190.078,62.770 188.650,66.304 188.879 C 67.840 188.978,68.270 189.180,68.674 189.993 C 69.677 192.014,69.560 192.000,85.395 192.000 L 100.238 192.000 101.800 190.400 C 103.126 189.042,103.613 188.800,105.019 188.800 C 106.168 188.800,106.898 188.555,107.400 188.000 C 108.020 187.315,108.632 187.200,111.672 187.200 L 115.220 187.200 115.466 188.431 C 115.925 190.726,118.800 190.842,118.800 188.566 C 118.800 187.811,118.487 187.547,117.170 187.192 C 114.271 186.411,115.807 185.646,120.538 185.514 L 124.600 185.400 124.724 183.900 L 124.848 182.400 116.436 182.400 C 108.710 182.400,107.895 182.333,106.437 181.573 C 105.201 180.928,104.673 180.840,104.051 181.173 C 100.807 182.909,103.465 178.163,107.342 175.297 L 108.563 174.394 134.182 174.497 L 159.800 174.600 160.000 176.646 M114.225 178.360 C 114.103 178.558,114.809 178.784,115.794 178.862 C 117.845 179.025,118.502 178.888,118.179 178.366 C 117.887 177.893,114.517 177.888,114.225 178.360 M137.676 183.900 C 137.798 185.371,137.835 185.402,139.600 185.527 C 140.697 185.604,141.728 185.960,142.239 186.439 C 142.998 187.150,143.571 187.214,148.239 187.112 L 153.400 187.000 153.643 185.000 C 153.977 182.250,154.443 182.400,145.552 182.400 L 137.552 182.400 137.676 183.900 M153.122 184.700 L 153.000 186.600 148.047 186.713 C 143.494 186.816,143.048 186.761,142.539 186.034 C 142.147 185.475,141.430 185.208,140.092 185.122 C 138.361 185.010,138.189 184.907,138.073 183.900 L 137.947 182.800 145.595 182.800 L 153.244 182.800 153.122 184.700 M120.100 187.467 C 119.400 187.747,119.476 189.399,120.217 190.014 C 121.058 190.712,121.699 190.012,121.531 188.580 C 121.397 187.435,120.983 187.113,120.100 187.467 M123.356 187.771 C 123.023 188.638,123.338 190.117,123.894 190.300 C 124.690 190.562,125.428 188.556,124.810 187.812 C 124.174 187.046,123.640 187.031,123.356 187.771 M118.000 188.800 C 118.000 190.171,117.763 190.271,116.731 189.338 C 115.694 188.399,115.817 187.600,117.000 187.600 C 117.844 187.600,118.000 187.787,118.000 188.800 M121.200 188.576 C 121.200 189.113,121.020 189.664,120.800 189.800 C 120.567 189.944,120.400 189.537,120.400 188.824 C 120.400 188.151,120.580 187.600,120.800 187.600 C 121.020 187.600,121.200 188.039,121.200 188.576 M124.400 188.824 C 124.400 189.537,124.233 189.944,124.000 189.800 C 123.780 189.664,123.600 189.113,123.600 188.576 C 123.600 188.039,123.780 187.600,124.000 187.600 C 124.220 187.600,124.400 188.151,124.400 188.824 M310.629 190.629 C 310.164 191.093,310.000 192.076,310.000 194.400 C 310.000 199.012,309.506 198.800,320.259 198.800 L 329.262 198.800 330.431 197.631 C 331.421 196.641,331.600 196.145,331.600 194.400 C 331.600 192.655,331.421 192.159,330.431 191.169 L 329.262 190.000 320.259 190.000 C 312.609 190.000,311.163 190.094,310.629 190.629 M308.600 194.400 L 308.600 198.200 291.800 198.200 L 275.000 198.200 275.129 195.800 C 275.200 194.480,275.058 192.875,274.814 192.233 C 274.120 190.414,274.249 190.401,292.000 190.504 L 308.600 190.600 308.600 194.400 M330.031 191.569 C 331.695 193.233,331.678 195.583,329.992 197.270 L 328.783 198.478 319.977 198.339 C 309.875 198.180,310.412 198.401,310.412 194.400 C 310.412 190.274,309.907 190.472,320.531 190.432 L 328.862 190.400 330.031 191.569 M108.964 192.550 C 108.286 194.317,108.909 195.000,111.200 195.000 L 113.400 195.000 113.400 193.600 L 113.400 192.200 111.296 192.079 C 109.725 191.989,109.133 192.108,108.964 192.550 M127.000 192.659 C 126.340 193.019,125.170 193.430,124.400 193.573 C 122.989 193.836,122.492 195.452,123.509 196.469 C 123.764 196.724,132.537 197.129,138.200 197.146 C 144.900 197.167,147.215 195.788,144.579 193.346 C 143.390 192.243,142.586 192.139,142.239 193.042 C 141.954 193.786,140.223 193.519,139.169 192.569 C 138.199 191.696,135.331 191.838,134.507 192.800 C 134.130 193.240,133.526 193.600,133.165 193.600 C 132.804 193.600,132.050 193.240,131.491 192.800 C 130.259 191.831,128.614 191.779,127.000 192.659 M113.000 193.600 C 113.000 194.834,109.798 195.381,109.354 194.223 C 108.858 192.931,109.507 192.347,111.296 192.477 C 112.814 192.587,113.000 192.709,113.000 193.600 M131.307 193.200 C 131.707 193.667,132.487 194.000,133.182 194.000 C 133.962 194.000,134.519 193.725,134.800 193.200 C 135.125 192.593,135.638 192.400,136.925 192.400 C 138.127 192.400,138.822 192.633,139.307 193.200 C 140.127 194.158,141.702 194.241,142.571 193.371 C 143.143 192.800,143.257 192.800,143.829 193.371 C 144.174 193.717,144.624 194.000,144.829 194.000 C 145.329 194.000,145.304 195.888,144.799 196.200 C 144.227 196.554,124.294 196.456,123.952 196.098 C 123.044 195.148,123.430 194.197,124.776 194.069 C 125.533 193.997,126.593 193.592,127.130 193.169 C 128.416 192.158,130.428 192.173,131.307 193.200 M69.075 195.458 C 68.655 195.878,68.760 207.717,69.189 208.397 C 69.829 209.409,70.348 208.366,70.478 205.804 C 70.640 202.625,70.889 202.527,79.339 202.312 L 86.077 202.141 90.539 206.555 C 97.023 212.972,100.800 214.586,100.800 210.940 C 100.800 210.445,101.083 209.881,101.429 209.688 C 102.077 209.325,102.735 208.332,103.774 206.149 C 104.102 205.460,104.656 204.787,105.006 204.653 C 105.499 204.464,105.615 203.936,105.521 202.304 L 105.400 200.200 88.000 200.000 L 70.600 199.800 70.400 197.631 C 70.214 195.609,69.725 194.808,69.075 195.458 M70.080 197.900 L 70.200 200.200 87.600 200.400 L 105.000 200.600 105.123 202.304 C 105.215 203.573,105.084 204.070,104.608 204.252 C 104.257 204.387,103.702 205.060,103.374 205.749 C 102.408 207.778,101.751 208.800,101.080 209.315 C 100.734 209.582,100.394 210.340,100.325 211.000 C 100.166 212.530,98.693 212.865,97.545 211.633 C 97.118 211.175,96.493 210.800,96.157 210.800 C 95.820 210.800,93.769 209.000,91.600 206.800 C 89.431 204.600,87.469 202.800,87.242 202.800 C 87.014 202.800,86.653 202.473,86.439 202.074 C 86.081 201.404,85.511 201.361,79.125 201.523 C 70.465 201.744,70.000 201.954,70.000 205.651 C 70.000 207.147,69.850 207.954,69.600 207.800 C 69.079 207.478,69.059 195.600,69.580 195.600 C 69.789 195.600,70.014 196.635,70.080 197.900 M215.802 200.404 C 216.119 200.917,215.662 202.400,215.187 202.400 C 214.672 202.400,213.918 200.857,214.205 200.392 C 214.521 199.881,215.484 199.888,215.802 200.404 M124.956 213.371 C 124.391 214.844,124.959 215.800,126.400 215.800 C 127.937 215.800,128.549 214.544,127.582 213.378 C 126.964 212.634,125.240 212.630,124.956 213.371 M127.400 214.400 C 127.400 215.133,127.159 215.434,126.498 215.528 C 125.515 215.668,124.957 214.810,125.355 213.772 C 125.761 212.716,127.400 213.219,127.400 214.400 " stroke="none" fill="#929292" fill-rule="evenodd"></path></g></svg>