<?xml version="1.0" encoding="UTF-8" standalone="no"?>
<svg
   xmlns:dc="http://purl.org/dc/elements/1.1/"
   xmlns:cc="http://creativecommons.org/ns#"
   xmlns:rdf="http://www.w3.org/1999/02/22-rdf-syntax-ns#"
   xmlns:svg="http://www.w3.org/2000/svg"
   xmlns="http://www.w3.org/2000/svg"
   xmlns:sodipodi="http://sodipodi.sourceforge.net/DTD/sodipodi-0.dtd"
   xmlns:inkscape="http://www.inkscape.org/namespaces/inkscape"
   id="svg"
   version="1.1"
   width="187.77298"
   height="233.04401"
   viewBox="0 0 187.77298 233.044"
   sodipodi:docname="Strikes.svg"
   inkscape:version="0.92.4 (5da689c313, 2019-01-14)">
  <metadata
     id="metadata35">
    <rdf:RDF>
      <cc:Work
         rdf:about="">
        <dc:format>image/svg+xml</dc:format>
        <dc:type
           rdf:resource="http://purl.org/dc/dcmitype/StillImage" />
        <dc:title></dc:title>
      </cc:Work>
    </rdf:RDF>
  </metadata>
  <defs
     id="defs33" />
  <sodipodi:namedview
     pagecolor="#ffffff"
     bordercolor="#666666"
     borderopacity="1"
     objecttolerance="10"
     gridtolerance="10"
     guidetolerance="10"
     inkscape:pageopacity="0"
     inkscape:pageshadow="2"
     inkscape:window-width="640"
     inkscape:window-height="480"
     id="namedview31"
     showgrid="false"
     inkscape:zoom="0.60044246"
     inkscape:cx="113.043"
     inkscape:cy="165.02402"
     inkscape:window-x="0"
     inkscape:window-y="0"
     inkscape:window-maximized="0"
     inkscape:current-layer="svg" />
  <g
     id="svgg"
     transform="translate(-86.957,-97.391)">
    <path
       id="path0"
       d="m 175.171,102.609 c -1.101,2.869 -0.969,7.909 0.293,11.198 1.262,3.29 1.263,4.949 0.002,3.688 -1.262,-1.262 -5.494,0.689 -9.406,4.333 -3.913,3.645 -8.442,5.806 -10.065,4.803 -1.623,-1.003 -2.952,0.094 -2.952,2.439 0,2.345 -0.913,3.35 -2.029,2.234 -1.115,-1.116 -5.086,1.028 -8.822,4.765 -3.736,3.736 -8.065,6.008 -9.618,5.048 -1.554,-0.96 -6.291,1.483 -10.528,5.43 -4.236,3.947 -9.661,7.464 -12.055,7.815 -2.393,0.352 -8.555,3.946 -13.693,7.987 l -9.341,7.348 v 51.915 c 0,54.939 2.276,62.156 20.964,66.455 2.655,0.61 11.624,5.697 19.931,11.304 8.308,5.607 16.592,10.194 18.409,10.194 1.817,0 3.304,1.658 3.304,3.684 0,2.026 1.356,2.845 3.014,1.821 1.657,-1.024 5.779,1.194 9.16,4.93 3.381,3.736 7.503,5.954 9.161,4.93 1.657,-1.024 3.013,-0.205 3.013,1.821 0,2.026 3.13,3.684 6.957,3.684 3.826,0 6.956,-1.826 6.956,-4.058 0,-2.232 0.949,-3.109 2.109,-1.949 1.161,1.16 5.311,-0.872 9.223,-4.517 3.912,-3.645 8.441,-5.806 10.064,-4.803 1.624,1.003 2.952,0.074 2.952,-2.065 0,-2.138 1.565,-2.921 3.478,-1.739 1.913,1.183 3.478,0.492 3.478,-1.534 0,-2.025 2.348,-3.683 5.218,-3.683 2.869,0 5.217,-1.658 5.217,-3.684 0,-2.026 1.565,-2.716 3.478,-1.533 1.914,1.182 3.479,0.85 3.479,-0.737 0,-1.588 7.435,-6.767 16.521,-11.51 22.447,-11.715 21.626,-9.175 21.686,-67.132 C 274.783,169.755 272.623,160 261.118,160 c -2.05,0 -3.727,-1.658 -3.727,-3.684 0,-2.025 -1.565,-2.716 -3.478,-1.533 -1.913,1.182 -3.478,0.522 -3.478,-1.468 0,-1.989 -3.913,-4.599 -8.696,-5.8 -4.782,-1.2 -8.696,-3.67 -8.696,-5.489 0,-1.818 -1.356,-2.468 -3.013,-1.444 -1.657,1.025 -5.78,-1.194 -9.16,-4.93 -3.381,-3.736 -7.504,-5.954 -9.161,-4.93 -1.657,1.024 -3.013,0.205 -3.013,-1.821 0,-2.026 -1.174,-3.41 -2.609,-3.077 -7.416,1.726 -21.532,-8.839 -17.808,-13.326 4.056,-4.888 -1.318,-15.107 -7.944,-15.107 -1.739,0 -4.063,2.348 -5.164,5.218 m -6.475,28.959 c -28.25,17.124 -43.479,25.438 -43.479,23.738 0,-2.573 46.106,-30.049 50.435,-30.057 1.913,-0.003 -1.217,2.841 -6.956,6.319 m 42.223,6.223 c 12.366,6.916 21.828,13.23 21.026,14.032 -0.802,0.802 -12.231,-4.829 -25.397,-12.512 -29.807,-17.395 -26.236,-18.636 4.371,-1.52 m -35.847,4.238 c -1.415,5.414 -11.594,9.567 -11.594,4.731 0,-1.33 10.707,-10.588 12.718,-10.997 0.299,-0.061 -0.206,2.759 -1.124,6.266 m 16.232,-3.154 c 0,1.773 2.739,3.793 6.087,4.489 5.069,1.053 4.828,1.61 -1.439,3.329 -5.501,1.509 -7.987,0.302 -9.239,-4.488 -0.943,-3.604 -0.295,-6.553 1.439,-6.553 1.734,0 3.152,1.451 3.152,3.223 m -29.306,19.637 c 5.597,-1.015 8.437,0.088 8.437,3.276 0,3.344 -5.551,5.125 -18.261,5.856 l -18.261,1.052 -0.141,44.347 c -0.078,24.392 1.188,44.348 2.814,44.348 1.625,0 2.178,1.257 1.229,2.793 -0.949,1.535 4.437,6.601 11.969,11.255 7.532,4.655 13.694,9.921 13.694,11.701 0,1.78 1.135,2.102 2.523,0.714 1.387,-1.387 4.265,2.656 6.395,8.986 5.461,16.23 13.987,16.81 16.925,1.151 1.284,-6.845 3.821,-11.527 5.637,-10.404 1.817,1.122 3.303,0.291 3.303,-1.848 0,-2.139 1.565,-2.921 3.478,-1.739 1.913,1.182 3.478,0.581 3.478,-1.337 0,-1.918 4.536,-6.166 10.08,-9.441 l 10.08,-5.954 0.514,-45.268 c 0.283,-24.897 1.318,-46.567 2.3,-48.156 0.982,-1.588 -6.916,-2.887 -17.551,-2.887 -14.868,0 -19.336,-1.206 -19.336,-5.218 0,-6.262 7.414,-6.847 13.218,-1.043 3.246,3.246 4.174,2.457 4.174,-3.549 v -7.723 l 13.913,7.098 c 7.652,3.904 13.913,8.631 13.913,10.505 0,1.874 1.174,3.098 2.608,2.719 1.435,-0.379 6.053,0.484 10.262,1.918 10.881,3.708 10.747,96.941 -0.143,99.039 -3.521,0.678 -9.448,4.278 -13.17,8.001 -3.722,3.722 -8.276,5.835 -10.119,4.696 -1.843,-1.139 -3.351,-0.751 -3.351,0.862 0,1.614 -4.696,5.708 -10.435,9.098 -5.739,3.39 -10.435,5.232 -10.435,4.092 0,-1.139 -3.425,1.121 -7.612,5.021 -8.962,8.349 -19.608,9.239 -22.434,1.875 -1.102,-2.87 -4.965,-5.218 -8.587,-5.218 -3.621,0 -9.454,-2.739 -12.961,-6.087 -3.507,-3.347 -8.594,-6.601 -11.304,-7.23 -2.711,-0.629 -7.276,-3.065 -10.145,-5.414 -2.87,-2.349 -9.568,-6.126 -14.884,-8.394 l -9.666,-4.122 0.97,-45.934 0.971,-45.933 22.609,-13.102 c 17.393,-10.08 22.869,-11.922 23.737,-7.987 0.738,3.345 4.049,4.586 9.565,3.585 m 105.048,61.655 c 1.121,58.34 5.617,50.8 -48.668,81.619 l -37.275,21.161 -36.706,-21.116 c -20.188,-11.614 -36.104,-21.718 -35.368,-22.454 0.735,-0.735 17.291,7.933 36.789,19.264 l 35.452,20.601 40.67,-23.628 40.669,-23.627 0.961,-50.513 c 0.871,-45.797 0.384,-50.705 -5.218,-52.572 -3.398,-1.133 -10.091,-5.296 -14.874,-9.251 -6.616,-5.472 -4.952,-5.062 6.957,1.714 l 15.652,8.904 0.959,49.898 M 120.28,159.547 c -1.028,1.664 -6.599,4.984 -12.379,7.379 l -10.51,4.353 v 49.317 c 0,34.799 1.28,50.606 4.348,53.697 3.486,3.512 3.142,3.921 -1.739,2.063 -5.419,-2.063 -6.087,-7.971 -6.087,-53.799 v -51.482 l 11.304,-6.988 c 12.269,-7.585 18.015,-9.317 15.063,-4.54 m 72.6,35.794 c 4.872,2.22 8.859,5.35 8.859,6.956 0,1.606 1.174,2.735 2.609,2.508 9.146,-1.444 14.294,1.158 13.854,7.002 -0.475,6.301 -0.962,6.263 -11.088,-0.869 -5.826,-4.103 -12.925,-7.977 -15.777,-8.608 -2.851,-0.632 -6.492,-2.98 -8.091,-5.218 -2.189,-3.065 -3.343,-2.991 -4.677,0.301 -0.975,2.403 -3.077,3.563 -4.673,2.577 -1.595,-0.986 -4.983,0.198 -7.529,2.632 -12.645,12.09 -23.762,17.018 -23.689,10.502 0.136,-11.938 35.52,-24.472 50.202,-17.783 m 6.649,19.309 c 9.824,5.187 18.41,9.779 19.08,10.203 10.342,6.548 -7.048,6.086 -18.262,-0.486 -18.748,-10.987 -20.34,-10.921 -40.832,1.688 -14.309,8.805 -16.875,9.472 -16.702,4.348 0.158,-4.684 26.506,-22.119 37.586,-24.871 0.697,-0.173 9.306,3.93 19.13,9.118 m -6.604,13.82 c 6.761,3.224 12.292,7.975 12.292,10.557 0,5.241 -13.456,-0.165 -18.061,-7.257 -1.595,-2.455 -7.008,-1.126 -16.008,3.933 -7.48,4.204 -14.613,6.629 -15.852,5.39 -1.239,-1.239 -2.253,-0.594 -2.253,1.433 0,2.028 -2.347,4.587 -5.217,5.688 -3.108,1.193 -5.217,0.032 -5.217,-2.871 0,-4.558 12.454,-11.044 18.261,-9.51 1.434,0.379 2.608,-0.969 2.608,-2.995 0,-2.026 1.565,-2.716 3.479,-1.534 1.913,1.183 3.478,0.4 3.478,-1.739 0,-2.139 1.565,-2.921 3.478,-1.739 1.913,1.182 3.478,0.492 3.478,-1.534 0,-4.861 1.095,-4.708 15.534,2.178 m 23.024,13.086 c 1.75,-1.082 3.181,0.425 3.181,3.347 0,3.294 -1.982,4.553 -5.217,3.311 -2.87,-1.101 -5.094,-4.573 -4.943,-7.717 0.175,-3.642 0.914,-4.13 2.036,-1.345 0.969,2.403 3.194,3.485 4.943,2.404"
       inkscape:connector-curvature="0"
       style="fill:#000000;fill-rule:evenodd;stroke:none" />
  </g>
</svg>
