<?xml version="1.0" encoding="UTF-8" standalone="no"?>
<svg
   xmlns:dc="http://purl.org/dc/elements/1.1/"
   xmlns:cc="http://creativecommons.org/ns#"
   xmlns:rdf="http://www.w3.org/1999/02/22-rdf-syntax-ns#"
   xmlns:svg="http://www.w3.org/2000/svg"
   xmlns="http://www.w3.org/2000/svg"
   xmlns:sodipodi="http://sodipodi.sourceforge.net/DTD/sodipodi-0.dtd"
   xmlns:inkscape="http://www.inkscape.org/namespaces/inkscape"
   id="svg"
   version="1.1"
   width="400"
   height="400"
   viewBox="0, 0, 400,400"
   sodipodi:docname="SubmachineGun.svg"
   inkscape:version="0.92.4 (5da689c313, 2019-01-14)">
  <metadata
     id="metadata330">
    <rdf:RDF>
      <cc:Work
         rdf:about="">
        <dc:format>image/svg+xml</dc:format>
        <dc:type
           rdf:resource="http://purl.org/dc/dcmitype/StillImage" />
      </cc:Work>
    </rdf:RDF>
  </metadata>
  <defs
     id="defs328" />
  <sodipodi:namedview
     pagecolor="#ffffff"
     bordercolor="#666666"
     borderopacity="1"
     objecttolerance="10"
     gridtolerance="10"
     guidetolerance="10"
     inkscape:pageopacity="0"
     inkscape:pageshadow="2"
     inkscape:window-width="640"
     inkscape:window-height="480"
     id="namedview326"
     showgrid="false"
     inkscape:zoom="0.59"
     inkscape:cx="200"
     inkscape:cy="200"
     inkscape:window-x="0"
     inkscape:window-y="0"
     inkscape:window-maximized="0"
     inkscape:current-layer="svg" />
  <g
     id="svgg"
     transform="translate(0,155.9322)">
    <path
       id="path0"
       d="m 204.854,182.6 c -0.803,2.222 0.063,4.2 1.839,4.2 1.484,0 2.096,0.849 1.303,1.805 -0.408,0.491 -1.931,0.595 -8.749,0.595 -7.821,0 -8.281,0.042 -8.754,0.8 -1.018,1.629 -3.693,0.594 -3.693,-1.429 0,-0.534 -0.18,-0.971 -0.4,-0.971 -0.22,0 -0.4,0.278 -0.4,0.618 0,0.34 -0.442,1.06 -0.982,1.6 l -0.982,0.982 H 164.218 144.4 v 3.751 c 0,4.354 -0.396,5.079 -2.279,4.173 -1.1,-0.53 -1.122,-0.607 -1.158,-4.132 -0.05,-4.842 -0.27,-5.392 -2.156,-5.392 -0.893,0 -1.91,-0.323 -2.516,-0.8 -0.56,-0.44 -1.484,-0.8 -2.054,-0.8 H 133.2 v 7.592 c 0,6.076 0.13,7.916 0.65,9.217 0.463,1.156 0.566,2.111 0.357,3.308 -0.161,0.926 -0.332,3.123 -0.379,4.883 -0.047,1.76 -0.229,4.235 -0.403,5.5 l -0.317,2.3 h 2.997 c 2.141,0 3.136,-0.167 3.482,-0.585 0.267,-0.321 0.822,-0.691 1.234,-0.822 1.16,-0.368 5.979,-5.375 5.979,-6.212 0,-0.41 1.061,-1.837 2.359,-3.171 1.297,-1.334 2.459,-2.828 2.583,-3.32 0.267,-1.064 3.854,-5.097 4.529,-5.093 0.331,0.002 0.405,-0.636 0.25,-2.139 -0.232,-2.25 0.573,-3.458 2.304,-3.458 1.202,0 2.208,3.962 1.168,4.604 -1.245,0.77 0.902,0.996 9.468,0.996 8.807,0 9.478,0.051 10.43,0.8 0.559,0.44 1.612,0.8 2.34,0.8 0.831,0 1.518,0.275 1.846,0.738 0.381,0.537 1.054,0.745 2.473,0.765 2.762,0.037 3.214,0.635 3.389,4.482 0.17,3.758 -0.679,6.888 -2.035,7.492 -0.799,0.357 -0.862,0.651 -0.794,3.692 0.092,4.087 -1.099,6.273 -3.171,5.818 -1.479,-0.325 -1.551,0.619 -0.099,1.293 0.764,0.354 1.614,0.372 3.262,0.067 1.225,-0.226 2.874,-0.29 3.663,-0.142 0.789,0.149 3.505,0.365 6.035,0.48 7.867,0.357 10.8,-0.159 10.8,-1.903 0,-1.685 1.107,-2.384 2.01,-1.269 0.787,0.972 1.19,1.125 1.19,0.45 0,-0.24 0.36,-0.894 0.8,-1.454 0.44,-0.559 0.8,-1.534 0.8,-2.167 0,-0.655 0.344,-1.445 0.8,-1.835 0.445,-0.381 0.8,-1.18 0.8,-1.8 0,-0.62 0.355,-1.419 0.8,-1.8 0.44,-0.377 0.812,-1.14 0.827,-1.696 0.014,-0.556 0.556,-1.911 1.203,-3.011 0.647,-1.1 1.465,-2.63 1.817,-3.4 0.351,-0.77 0.89,-1.544 1.196,-1.72 0.306,-0.176 0.56,-0.716 0.563,-1.2 0.013,-1.79 2.239,-3.023 4.146,-2.298 1.776,0.675 2.248,0.527 2.248,-0.702 0,-1.93 0.488,-2.08 6.784,-2.08 5.39,0 5.861,-0.06 6.323,-0.8 0.48,-0.768 0.933,-0.8 11.296,-0.8 5.939,0 10.794,-0.135 10.791,-0.3 -0.013,-0.62 -0.621,-1.1 -1.394,-1.1 -0.585,0 -0.806,-0.273 -0.82,-1.019 -0.056,-2.742 -0.395,-2.842 -10.043,-2.967 -9.392,-0.122 -12.263,-0.402 -12.98,-1.265 -0.352,-0.425 -1.97,-0.549 -7.183,-0.549 -6.173,0 -6.773,-0.063 -7.265,-0.765 -0.294,-0.421 -1.051,-0.826 -1.682,-0.9 -1.668,-0.196 -2.294,-1.428 -1.127,-2.221 0.775,-0.527 0.9,-0.965 0.9,-3.163 V 181.2 h -7.52 -7.519 l -0.507,1.4 m 12.677,5.952 c 0.167,1.458 -0.468,2.164 -1.314,1.462 -0.634,-0.526 -0.836,-2.062 -0.337,-2.561 0.606,-0.606 1.526,0.007 1.651,1.099 m -4.851,3.044 7.679,0.004 1.23,1.3 c 3.408,3.602 -4.01,7.864 -8.531,4.901 -0.836,-0.547 -1.087,-0.548 -2.383,-0.006 -5.929,2.477 -14.334,-0.816 -11.478,-4.497 1.137,-1.467 2.7,-2.142 4.403,-1.903 0.77,0.108 4.856,0.198 9.08,0.201 m -10.585,2.889 c 0.148,0.445 1.415,0.543 4.829,0.371 0.636,-0.032 1.016,-0.229 0.876,-0.456 -0.374,-0.605 -5.907,-0.522 -5.705,0.085 m 12.705,-0.109 c 0,0.7 0.849,0.907 2.628,0.641 C 219.91,194.644 219.639,194 217,194 c -1.21,0 -2.2,0.169 -2.2,0.376 m -66.4,1.875 c 0,0.393 -0.304,0.56 -0.869,0.477 -1.098,-0.162 -1.411,-1.008 -0.453,-1.224 0.941,-0.213 1.322,0.003 1.322,0.747 m 36.592,-0.665 c 0.602,0.976 -1.412,3.71 -2.564,3.48 -0.611,-0.123 -1.302,-0.032 -1.534,0.2 -0.298,0.298 -1.711,0.278 -4.759,-0.066 -2.384,-0.269 -5.405,-0.558 -6.712,-0.642 -2.513,-0.16 -3.642,-0.728 -2.657,-1.337 0.307,-0.19 3.794,-0.317 7.748,-0.283 7.044,0.06 7.201,0.043 7.786,-0.838 0.606,-0.913 2.251,-1.227 2.692,-0.514 m -39.472,7.694 c 0.264,0.264 0.48,0.948 0.48,1.52 0,0.572 -0.216,1.256 -0.48,1.52 -0.264,0.264 -0.948,0.48 -1.52,0.48 -0.572,0 -1.256,-0.216 -1.52,-0.48 -0.264,-0.264 -0.48,-0.948 -0.48,-1.52 0,-0.572 0.216,-1.256 0.48,-1.52 0.264,-0.264 0.948,-0.48 1.52,-0.48 0.572,0 1.256,0.216 1.52,0.48 m 65.748,0.233 c 0.293,0.407 0.847,0.857 1.232,1.001 1.081,0.403 1.002,4.491 -0.1,5.179 -0.523,0.326 -0.8,0.933 -0.8,1.749 0,0.688 -0.36,1.708 -0.8,2.267 -0.44,0.56 -0.8,1.572 -0.8,2.251 0,0.8 -0.281,1.409 -0.8,1.733 -0.524,0.327 -0.8,0.933 -0.8,1.754 0,0.69 -0.263,1.473 -0.585,1.74 -0.321,0.267 -0.705,0.874 -0.852,1.349 -0.147,0.475 -0.829,1.447 -1.516,2.16 l -1.247,1.295 -4.957,0.005 -4.958,0.004 -1.338,-1.3 -1.338,-1.3 -0.005,-8.421 -0.004,-8.421 1.235,-1.679 c 1.404,-1.91 1.435,-1.919 3.352,-1.005 1.359,0.648 1.444,0.643 2.161,-0.126 1.106,-1.187 12.091,-1.387 12.92,-0.235 M 235.2,204 c 0,0.22 0.63,0.4 1.4,0.4 0.77,0 1.4,-0.18 1.4,-0.4 0,-0.22 -0.63,-0.4 -1.4,-0.4 -0.77,0 -1.4,0.18 -1.4,0.4 m -19.387,0.84 c 0.298,0.939 -0.308,1.795 -0.978,1.382 -0.48,-0.297 -0.587,-1.537 -0.168,-1.955 0.479,-0.48 0.874,-0.282 1.146,0.573 m 9.887,0.257 c -5.06,0.241 -3.227,0.903 2.5,0.903 4.918,0 6.457,-0.309 4.767,-0.957 -0.617,-0.237 -1.255,-0.232 -7.267,0.054 m -41.3,2.707 c 0,0.552 -0.36,1.312 -0.8,1.689 -0.644,0.551 -0.8,1.18 -0.8,3.216 0,1.399 -0.253,3.02 -0.566,3.625 -0.865,1.672 -0.927,5.03 -0.108,5.849 0.371,0.371 0.674,0.931 0.674,1.246 0,0.314 0.18,0.571 0.4,0.571 0.237,0 0.402,-1.504 0.405,-3.7 0.007,-4.698 0.182,-5.295 1.838,-6.272 l 1.357,-0.801 v -3.214 -3.213 h -1.2 c -1.015,0 -1.2,0.155 -1.2,1.004 m 4.667,23.263 c -0.147,0.146 -0.267,2.09 -0.267,4.32 0,4.322 -0.262,5.013 -1.904,5.013 -0.527,0 -0.834,0.177 -0.696,0.4 0.136,0.22 1.407,0.4 2.824,0.4 h 2.576 v -5.2 -5.2 h -1.133 c -0.624,0 -1.254,0.12 -1.4,0.267"
       inkscape:connector-curvature="0"
       style="fill:#0a0a0a;fill-rule:evenodd;stroke:none" />
    <path
       id="path1"
       d="m -450.84746,206.77966 v 200 h 200 200.000002 v -200 V 6.779661 h -200.000002 -200 V 206.77966 m 221.116,-16.094 c 0.095,2.683 0,3.351 -0.5,3.543 -0.966,0.371 -0.722,0.951 0.4,0.951 0.559,0 1.504,0.357 2.1,0.793 0.986,0.721 1.77,0.796 8.684,0.828 6.795,0.032 7.685,0.114 8.4,0.773 0.726,0.668 1.77,0.749 11.315,0.871 12.098,0.155 11.344,-0.123 11.188,4.135 l -0.103,2.8 -10.683,0.2 c -9.431,0.177 -10.744,0.28 -11.2,0.879 -0.437,0.574 -1.431,0.697 -6.432,0.8 -6.143,0.126 -6.663,0.278 -6.679,1.956 -0.005,0.552 0.718,0.631 5.494,0.6 l 5.5,-0.035 v 1 c 0,0.834 -0.228,1.033 -1.376,1.2 -1.15,0.167 -1.431,0.413 -1.711,1.5 -0.373,1.445 -0.878,1.583 -2.567,0.702 -0.86,-0.448 -2.574,-0.598 -6.866,-0.6 l -5.721,-0.002 -0.556,1.332 c -0.306,0.732 -0.837,1.564 -1.18,1.849 -0.343,0.284 -0.623,0.917 -0.623,1.406 0,0.489 -0.36,1.215 -0.8,1.613 -0.44,0.398 -0.8,1.23 -0.8,1.848 0,0.714 -0.291,1.28 -0.8,1.552 -0.532,0.285 -0.8,0.838 -0.8,1.651 0,0.673 -0.36,1.68 -0.8,2.24 -0.44,0.559 -0.8,1.616 -0.8,2.349 0,0.891 -0.247,1.464 -0.747,1.732 -0.411,0.22 -0.857,0.946 -0.99,1.614 -0.339,1.695 -1.785,1.705 -2.123,0.014 -0.323,-1.616 -0.94,-1.525 -0.94,0.138 0,2.507 -0.816,2.813 -7.926,2.981 -3.451,0.081 -7.354,-0.028 -8.674,-0.242 -1.553,-0.253 -3.282,-0.253 -4.9,-0.002 -3.262,0.506 -4.9,-0.774 -4.9,-3.83 0,-1.407 -0.18,-1.913 -0.8,-2.245 -1.166,-0.624 -1.166,-6.04 0,-7.8 0.555,-0.839 0.796,-1.878 0.797,-3.451 0.002,-1.499 0.201,-2.416 0.596,-2.743 2.275,-1.888 1.402,-5.206 -1.369,-5.206 -1.586,0 -2.084,-0.164 -2.424,-0.8 -0.412,-0.77 -0.838,-0.8 -11.445,-0.8 h -11.017 l -1.169,1.169 c -0.643,0.643 -1.169,1.417 -1.169,1.719 0,0.683 -0.928,1.939 -3.006,4.067 -0.884,0.905 -1.836,2.095 -2.116,2.645 -1.107,2.173 -1.606,2.779 -5.053,6.142 l -3.573,3.485 -3.826,-0.113 -3.826,-0.114 -0.202,-16.2 c -0.111,-8.91 -0.07,-16.605 0.09,-17.1 0.401,-1.237 3.726,-1.302 5.112,-0.1 0.507,0.44 1.413,0.8 2.012,0.8 0.659,0 1.308,0.328 1.64,0.828 0.545,0.82 0.741,0.827 21.141,0.787 l 20.591,-0.041 1.108,-1.062 c 0.609,-0.584 1.108,-1.456 1.108,-1.938 0,-0.482 0.27,-1.1 0.6,-1.374 0.821,-0.681 1.8,0.145 1.8,1.517 0,1.796 2.008,3.282 2.545,1.883 0.194,-0.507 1.534,-0.6 8.642,-0.6 5.342,0 8.413,-0.146 8.413,-0.4 0,-0.22 -0.495,-0.4 -1.1,-0.4 -2.417,0 -4.096,-3.76 -2.5,-5.6 0.44,-0.507 0.8,-1.079 0.8,-1.269 0,-0.191 3.735,-0.299 8.3,-0.239 l 8.3,0.108 0.116,3.306 m -78.382,11.129 c -0.138,2.718 -0.066,3.094 0.522,2.731 0.463,-0.287 0.442,-5.366 -0.022,-5.366 -0.201,0 -0.426,1.186 -0.5,2.635 m 63.865,-2.236 c 0.137,0.221 0.756,0.401 1.376,0.401 2.339,0 2.522,1.603 0.294,2.579 -1.212,0.531 -1.112,0.557 2.231,0.588 l 3.5,0.033 v -1.32 c 0,-0.726 0.216,-1.536 0.48,-1.8 0.264,-0.264 0.399,-0.493 0.3,-0.508 -1.929,-0.302 -8.371,-0.281 -8.181,0.027 m -6.199,3.001 c 0,0.33 0.18,0.6 0.4,0.6 0.22,0 0.4,-0.27 0.4,-0.6 0,-0.33 -0.18,-0.6 -0.4,-0.6 -0.22,0 -0.4,0.27 -0.4,0.6 m -57.377,8.11 c -0.451,0.452 -0.205,1.722 0.377,1.945 0.978,0.376 1.758,-0.131 1.532,-0.994 -0.201,-0.768 -1.463,-1.397 -1.909,-0.951 m 64.177,0.102 c -1.853,0.438 -10.898,1.289 -11.898,1.121 -2.004,-0.339 -3.292,2.676 -2.253,5.273 0.599,1.497 0.599,1.678 0,2.34 -1.277,1.41 -0.92,9.606 0.487,11.182 l 1.135,1.272 h 4.495 c 4.823,0 6.834,-0.914 6.834,-3.107 0,-0.423 0.36,-1.095 0.8,-1.493 0.44,-0.398 0.8,-1.23 0.8,-1.848 0,-0.714 0.291,-1.28 0.8,-1.552 0.61,-0.326 0.8,-0.838 0.8,-2.152 0,-1.216 0.236,-1.937 0.8,-2.448 0.44,-0.398 0.8,-1.23 0.8,-1.848 0,-0.714 0.291,-1.28 0.8,-1.552 1.27,-0.679 1.078,-2.984 -0.369,-4.431 -1.217,-1.217 -1.699,-1.307 -4.031,-0.757 m 14.4,-0.012 c 0,0.508 1.214,0.508 2,0 0.455,-0.294 0.286,-0.389 -0.7,-0.394 -0.715,-0.003 -1.3,0.174 -1.3,0.394 m -34.044,1.376 c -0.348,0.344 0.114,9.028 0.469,8.808 0.47,-0.29 0.499,-8.46 0.031,-8.75 -0.19,-0.117 -0.415,-0.143 -0.5,-0.058 m -2.856,17.253 c -0.165,0.167 -0.3,0.76 -0.3,1.318 0,0.728 0.122,0.891 0.434,0.579 0.238,-0.238 0.373,-0.832 0.3,-1.318 -0.074,-0.486 -0.269,-0.747 -0.434,-0.579 m 7.5,13.371 v 5.8 h -3.4 -3.4 l -0.112,-5.345 c -0.136,-6.517 -0.193,-6.424 3.839,-6.328 l 3.073,0.073 v 5.8"
       inkscape:connector-curvature="0"
       style="fill:#fcfcfc;fill-rule:evenodd;stroke:none" />
    <path
       id="path2"
       d="m 204.2,182 c -0.341,0.66 -0.531,1.2 -0.421,1.2 0.11,0 0.48,-0.54 0.821,-1.2 0.341,-0.66 0.531,-1.2 0.421,-1.2 -0.11,0 -0.48,0.54 -0.821,1.2 m -18.325,4.258 c -0.151,0.152 -0.272,0.47 -0.269,0.709 0.003,0.238 0.183,0.163 0.4,-0.167 0.35,-0.533 0.442,-0.533 0.824,0 0.351,0.489 0.402,0.493 0.275,0.025 -0.18,-0.666 -0.831,-0.966 -1.23,-0.567 m 33.916,0.951 c -0.603,0.668 -0.639,0.896 -0.203,1.3 0.421,0.391 0.468,0.383 0.231,-0.034 -0.171,-0.302 0.001,-0.855 0.404,-1.3 0.385,-0.426 0.611,-0.775 0.501,-0.775 -0.11,0 -0.53,0.364 -0.933,0.809 m -87.282,2.391 c 0,0.99 0.078,1.395 0.173,0.9 0.096,-0.495 0.096,-1.305 0,-1.8 -0.095,-0.495 -0.173,-0.09 -0.173,0.9 m 9.304,1.2 c 0.202,0.33 0.315,0.915 0.252,1.3 -0.157,0.955 0.192,0.888 0.447,-0.085 0.117,-0.448 -0.068,-1.007 -0.43,-1.3 -0.536,-0.434 -0.578,-0.421 -0.269,0.085 m 95.171,0.079 c 0.92,0.533 3.035,0.675 2.731,0.183 -0.115,-0.185 -0.642,-0.255 -1.171,-0.153 -0.53,0.101 -1.059,0.028 -1.177,-0.163 -0.118,-0.19 -0.429,-0.341 -0.691,-0.334 -0.262,0.007 -0.123,0.217 0.308,0.467 m -32.484,1.408 c 0.605,0.091 1.595,0.091 2.2,0 0.605,-0.092 0.11,-0.167 -1.1,-0.167 -1.21,0 -1.705,0.075 -1.1,0.167 m 6.605,-0.004 c 0.497,0.096 1.217,0.092 1.6,-0.008 0.382,-0.1 -0.025,-0.179 -0.905,-0.174 -0.88,0.004 -1.193,0.086 -0.695,0.182 m 4.2,0.004 c 0.609,0.092 1.509,0.09 2,-0.005 0.492,-0.095 -0.005,-0.171 -1.105,-0.168 -1.1,0.003 -1.503,0.081 -0.895,0.173 m 4.195,-0.005 c 0.936,0.18 1.278,1.313 0.4,1.324 -0.334,0.004 -0.301,0.137 0.1,0.4 0.533,0.35 0.533,0.438 0,0.788 -0.33,0.217 -0.435,0.397 -0.234,0.4 0.202,0.003 0.669,-0.309 1.039,-0.694 0.871,-0.907 -0.026,-2.53 -1.351,-2.446 -0.822,0.053 -0.821,0.061 0.046,0.228 m 24.212,0.013 c 1.052,0.082 2.672,0.081 3.6,-0.003 0.928,-0.084 0.068,-0.151 -1.912,-0.15 -1.98,0.001 -2.74,0.07 -1.688,0.153 m 15.557,0.473 c 0.537,0.423 1.327,0.738 1.754,0.7 0.634,-0.055 0.821,0.264 1.017,1.732 l 0.24,1.8 0.06,-1.526 c 0.083,-2.099 -0.543,-3.208 -1.515,-2.687 -0.543,0.29 -0.872,0.238 -1.232,-0.195 -0.27,-0.326 -0.673,-0.592 -0.896,-0.592 -0.223,0 0.035,0.346 0.572,0.768 m -59.543,1.028 c -0.265,0.287 -0.363,0.933 -0.222,1.459 0.23,0.86 0.279,0.819 0.544,-0.452 0.338,-1.623 0.314,-1.698 -0.322,-1.007 m 3.774,-0.307 c 0.715,0.089 1.885,0.089 2.6,0 0.715,-0.088 0.13,-0.161 -1.3,-0.161 -1.43,0 -2.015,0.073 -1.3,0.161 m 12.605,-0.002 c 0.609,0.092 1.509,0.09 2,-0.005 0.492,-0.095 -0.005,-0.171 -1.105,-0.168 -1.1,0.003 -1.503,0.081 -0.895,0.173 m -14.905,0.889 c 0,0.427 0.18,0.888 0.4,1.024 0.916,0.566 0.415,1.496 -0.692,1.284 -1.039,-0.198 -1.054,-0.18 -0.3,0.371 1.281,0.937 2.432,1.063 5.704,0.62 l 3.088,-0.417 -3.5,0.207 c -3.576,0.211 -4.101,-0.007 -2.899,-1.209 0.534,-0.534 0.501,-0.614 -0.3,-0.728 -0.642,-0.091 -0.892,-0.387 -0.869,-1.028 0.017,-0.495 -0.118,-0.9 -0.3,-0.9 -0.183,0 -0.332,0.349 -0.332,0.776 m 7.2,-0.406 c 0.533,0.382 0.533,0.478 0,0.86 -0.533,0.383 -0.533,0.413 0,0.267 0.33,-0.09 0.6,-0.404 0.6,-0.697 0,-0.293 -0.27,-0.607 -0.6,-0.697 -0.533,-0.146 -0.533,-0.116 0,0.267 m 6.238,1.73 c 0.226,0.999 0.144,1.101 -0.895,1.116 l -1.143,0.015 1.346,0.585 c 0.74,0.321 2,0.558 2.8,0.527 l 1.454,-0.057 -1.6,-0.255 c -1.394,-0.223 -1.484,-0.296 -0.7,-0.57 0.495,-0.173 0.9,-0.47 0.9,-0.659 0,-0.189 0.315,-0.441 0.7,-0.56 0.385,-0.119 0.027,-0.144 -0.795,-0.055 -1.095,0.118 -1.604,-0.019 -1.905,-0.513 -0.321,-0.527 -0.357,-0.434 -0.162,0.426 m 6.385,0.522 c -0.368,0.561 -1.064,1.18 -1.546,1.374 -0.572,0.231 -0.658,0.362 -0.247,0.379 0.591,0.023 1.896,-1.148 2.534,-2.275 0.524,-0.925 -0.065,-0.51 -0.741,0.522 m -63.323,0.854 c 0.385,0.1 1.015,0.1 1.4,0 0.385,-0.101 0.07,-0.183 -0.7,-0.183 -0.77,0 -1.085,0.082 -0.7,0.183 m 24.917,0.096 c -0.273,0.442 0.358,0.92 0.727,0.55 0.381,-0.38 0.31,-0.922 -0.12,-0.922 -0.207,0 -0.48,0.168 -0.607,0.372 m -25.77,1.279 c -0.026,0.578 0.178,1.232 0.453,1.454 0.623,0.502 2.302,-0.078 2.294,-0.792 -0.005,-0.37 -0.088,-0.384 -0.3,-0.053 -0.661,1.035 -1.86,0.777 -2.134,-0.46 -0.257,-1.16 -0.267,-1.165 -0.313,-0.149 m 83.315,0.849 c -0.756,0.893 -0.755,0.895 0.038,0.241 0.44,-0.362 1.16,-0.746 1.6,-0.853 0.769,-0.188 0.768,-0.197 -0.038,-0.242 -0.461,-0.025 -1.181,0.359 -1.6,0.854 m -82.657,2.183 c 0.497,0.096 1.217,0.092 1.6,-0.008 0.382,-0.1 -0.025,-0.179 -0.905,-0.174 -0.88,0.004 -1.193,0.086 -0.695,0.182 m -14.86,2.045 c -0.112,0.18 0.328,0.249 0.976,0.154 0.649,-0.095 1.179,-0.242 1.179,-0.327 0,-0.305 -1.957,-0.148 -2.155,0.173 m 64.255,-0.052 c 0.385,0.1 1.015,0.1 1.4,0 0.385,-0.101 0.07,-0.183 -0.7,-0.183 -0.77,0 -1.085,0.082 -0.7,0.183 m 14.098,0.128 c -0.137,0.222 -0.129,0.784 0.019,1.25 0.163,0.512 0.07,0.969 -0.236,1.157 -0.316,0.196 -0.141,0.289 0.472,0.251 0.623,-0.039 0.976,-0.303 0.976,-0.733 0,-0.369 -0.187,-0.64 -0.415,-0.6 -0.228,0.039 -0.4,-0.334 -0.382,-0.829 0.035,-0.993 -0.06,-1.102 -0.434,-0.496 m -21.091,0.286 c 0.719,0.089 1.799,0.087 2.4,-0.004 0.601,-0.091 0.013,-0.164 -1.307,-0.162 -1.32,0.002 -1.812,0.077 -1.093,0.166 m 29.03,0.025 c -0.253,0.157 0.68,0.282 2.075,0.278 1.394,-0.003 2.621,-0.093 2.727,-0.2 0.312,-0.314 -4.298,-0.389 -4.802,-0.078 M 133.088,206 c 0.123,1.21 0.289,2.275 0.368,2.367 0.297,0.344 0.074,-3 -0.252,-3.767 -0.212,-0.498 -0.255,0.031 -0.116,1.4 m 12.064,-0.887 c -0.131,0.794 -0.073,1.168 0.149,0.946 0.202,-0.202 0.3,-0.792 0.218,-1.313 -0.126,-0.801 -0.182,-0.744 -0.367,0.367 m 48.712,-0.813 c -0.101,0.165 0.474,0.327 1.276,0.36 1.116,0.047 1.272,-0.017 0.66,-0.271 -1.039,-0.432 -1.708,-0.463 -1.936,-0.089 m 30.443,0.39 c 0.719,0.089 1.799,0.087 2.4,-0.004 0.601,-0.091 0.013,-0.164 -1.307,-0.162 -1.32,0.002 -1.812,0.077 -1.093,0.166 m 10.209,0.91 c -0.16,0.61 -0.546,0.8 -1.629,0.8 -1.747,0 -1.579,0.211 0.413,0.518 1.285,0.199 1.5,0.124 1.5,-0.523 0,-0.416 0.315,-0.939 0.7,-1.163 0.657,-0.383 0.655,-0.408 -0.037,-0.42 -0.408,-0.007 -0.831,0.346 -0.947,0.788 m -45.592,2.2 c 0.002,1.32 0.077,1.812 0.166,1.093 0.089,-0.719 0.087,-1.799 -0.004,-2.4 -0.091,-0.601 -0.164,-0.013 -0.162,1.307 m -55.976,5 c 0,2.31 0.066,3.255 0.147,2.1 0.081,-1.155 0.081,-3.045 0,-4.2 -0.081,-1.155 -0.147,-0.21 -0.147,2.1 m 55.953,-0.6 c 0.004,0.88 0.086,1.193 0.182,0.695 0.096,-0.497 0.092,-1.217 -0.008,-1.6 -0.1,-0.382 -0.179,0.025 -0.174,0.905 m -3.018,4.1 c -0.326,0.594 -0.263,5.283 0.082,6.181 0.238,0.618 0.318,-0.193 0.244,-2.481 -0.071,-2.195 0.049,-3.504 0.34,-3.694 0.327,-0.213 0.32,-0.295 -0.025,-0.3 -0.262,-0.003 -0.551,0.129 -0.641,0.294 m -1.79,1.7 c 0,0.77 0.082,1.085 0.183,0.7 0.1,-0.385 0.1,-1.015 0,-1.4 -0.101,-0.385 -0.183,-0.07 -0.183,0.7 m 1.759,9.916 c -0.108,0.174 0.421,0.245 1.176,0.157 0.755,-0.088 1.372,-0.231 1.372,-0.317 0,-0.301 -2.355,-0.153 -2.548,0.16 m 18.795,-0.03 c -0.158,0.158 -1.763,0.4 -3.567,0.539 l -3.28,0.251 2.6,0.056 c 1.43,0.031 3.41,-0.199 4.4,-0.511 0.99,-0.312 1.425,-0.58 0.967,-0.594 -0.459,-0.015 -0.963,0.102 -1.12,0.259 m -16.451,2.921 c -0.138,0.223 -0.389,0.321 -0.557,0.217 -0.329,-0.203 -0.325,-0.216 -0.734,2.776 l -0.274,2 -0.255,-1.8 c -0.205,-1.443 -0.268,-1.112 -0.316,1.667 -0.033,1.907 -0.174,3.797 -0.314,4.2 -0.233,0.675 -0.21,0.68 0.3,0.067 0.305,-0.367 0.914,-0.729 1.354,-0.806 0.729,-0.126 0.809,-0.492 0.898,-4.109 0.066,-2.654 0.264,-4.075 0.6,-4.288 0.367,-0.233 0.373,-0.32 0.026,-0.325 -0.262,-0.003 -0.59,0.177 -0.728,0.401"
       inkscape:connector-curvature="0"
       style="fill:#8c8c8c;fill-rule:evenodd;stroke:none" />
    <path
       id="path3"
       d="m 204.445,182.214 c -1.321,2.239 -0.343,4.62 2.048,4.986 0.806,0.123 1.307,0.43 1.307,0.8 0,0.511 -1.247,0.616 -8.4,0.707 -8.107,0.103 -8.423,0.137 -9.063,0.981 -0.993,1.31 -2.554,0.477 -3.132,-1.67 -0.535,-1.987 -1,-2.05 -1.605,-0.219 -0.89,2.697 -0.091,2.601 -21.665,2.601 -13.535,0 -19.569,0.132 -19.755,0.432 -0.147,0.238 -0.293,1.99 -0.324,3.894 -0.044,2.733 -0.182,3.484 -0.656,3.567 -1.328,0.234 -1.545,-0.412 -1.258,-3.752 0.325,-3.783 -0.667,-5.741 -2.909,-5.741 -0.61,0 -1.631,-0.371 -2.269,-0.826 -0.745,-0.53 -1.625,-0.78 -2.462,-0.7 L 133,187.4 l 0.08,8.6 c 0.043,4.73 0.051,11.3 0.017,14.6 -0.034,3.3 -0.07,6.9 -0.08,8 l -0.017,2 h 3.411 c 2.447,0 3.613,-0.17 4.127,-0.6 2.694,-2.256 6.546,-6.415 7.36,-7.946 0.533,-1.003 1.623,-2.439 2.421,-3.192 0.798,-0.753 1.683,-1.795 1.966,-2.316 1.28,-2.353 1.592,-2.817 2.644,-3.931 l 1.119,-1.184 11.257,0.119 c 10.378,0.11 11.333,0.179 12.23,0.885 0.565,0.444 1.601,0.765 2.473,0.765 1.144,0 1.65,0.229 2.132,0.964 0.543,0.83 0.855,0.934 2.242,0.748 2.504,-0.336 2.818,0.163 2.818,4.477 0,4.45 -0.457,5.972 -1.985,6.605 -1.131,0.468 -1.132,0.474 -1.004,3.781 0.106,2.738 -0.008,3.537 -0.657,4.605 -1.162,1.91 -1.98,1.09 -1.483,-1.485 0.201,-1.042 0.256,-2.666 0.121,-3.609 -0.33,-2.305 0.34,-4.133 1.825,-4.976 l 1.214,-0.691 -0.115,-3.467 c -0.153,-4.562 -2.223,-6.031 -3.198,-2.269 -0.173,0.669 -0.586,1.441 -0.916,1.716 -0.405,0.335 -0.603,1.237 -0.604,2.75 -0.002,1.286 -0.276,2.765 -0.64,3.451 -1.007,1.895 -1.009,5.4 -0.005,6.52 0.561,0.626 0.828,1.479 0.836,2.664 0.014,2.255 1.673,3.839 3.177,3.034 0.612,-0.327 1.938,-0.409 4.071,-0.251 14.053,1.04 17.745,0.597 18.163,-2.177 0.251,-1.662 1.07,-1.983 1.588,-0.623 0.453,1.194 1.124,1.343 1.493,0.333 0.14,-0.385 0.585,-1.129 0.987,-1.654 0.403,-0.525 0.732,-1.445 0.732,-2.046 0,-0.601 0.36,-1.55 0.8,-2.109 0.44,-0.56 0.8,-1.477 0.8,-2.04 0,-0.613 0.32,-1.194 0.8,-1.451 0.484,-0.259 0.81,-0.857 0.827,-1.514 0.014,-0.597 0.558,-1.986 1.209,-3.086 0.65,-1.1 1.474,-2.671 1.83,-3.491 0.357,-0.82 0.994,-1.601 1.415,-1.735 0.605,-0.192 0.715,-0.482 0.52,-1.371 C 220.67,203.3 221.235,203 224.4,203 c 2.47,0 2.607,-0.05 2.738,-1 0.263,-1.899 0.599,-2 6.649,-2 5.181,0 5.754,-0.071 6.413,-0.8 0.689,-0.761 1.232,-0.8 11.238,-0.8 5.783,0 10.601,-0.139 10.706,-0.309 0.558,-0.903 -0.367,-4.691 -1.145,-4.691 -0.44,0 -1.303,-0.341 -1.918,-0.759 -1.042,-0.706 -1.655,-0.739 -8.824,-0.478 -6.569,0.238 -7.986,0.184 -9.618,-0.37 -1.052,-0.358 -2.129,-0.567 -2.393,-0.466 -0.264,0.101 -0.821,-0.066 -1.239,-0.371 -0.574,-0.42 -2.339,-0.556 -7.221,-0.556 -5.954,0 -6.519,-0.063 -7.186,-0.8 -0.398,-0.44 -1.225,-0.8 -1.838,-0.8 -1.52,0 -1.818,-0.676 -0.783,-1.777 0.73,-0.778 0.844,-1.308 0.741,-3.471 L 220.6,181 l -7.655,-0.108 -7.656,-0.109 -0.844,1.431 m 15.955,1.537 c 0,2.198 -0.125,2.636 -0.9,3.163 -1.167,0.793 -0.541,2.025 1.127,2.221 0.631,0.074 1.388,0.479 1.682,0.9 0.492,0.702 1.092,0.765 7.265,0.765 5.213,0 6.831,0.124 7.183,0.549 0.717,0.863 3.588,1.143 12.98,1.265 9.648,0.125 9.987,0.225 10.043,2.967 0.014,0.746 0.235,1.019 0.82,1.019 0.773,0 1.381,0.48 1.394,1.1 0.003,0.165 -4.852,0.3 -10.791,0.3 -10.363,0 -10.816,0.032 -11.296,0.8 -0.462,0.74 -0.933,0.8 -6.323,0.8 -6.296,0 -6.784,0.15 -6.784,2.08 0,1.229 -0.472,1.377 -2.248,0.702 -1.907,-0.725 -4.133,0.508 -4.146,2.298 -0.003,0.484 -0.257,1.024 -0.563,1.2 -0.306,0.176 -0.845,0.95 -1.196,1.72 -0.352,0.77 -1.17,2.3 -1.817,3.4 -0.647,1.1 -1.189,2.455 -1.203,3.011 -0.015,0.556 -0.387,1.319 -0.827,1.696 -0.445,0.381 -0.8,1.18 -0.8,1.8 0,0.62 -0.355,1.419 -0.8,1.8 -0.456,0.39 -0.8,1.18 -0.8,1.835 0,0.633 -0.36,1.608 -0.8,2.167 -0.44,0.56 -0.8,1.214 -0.8,1.454 0,0.675 -0.403,0.522 -1.19,-0.45 -0.903,-1.115 -2.01,-0.416 -2.01,1.269 0,1.744 -2.933,2.26 -10.8,1.903 -2.53,-0.115 -5.246,-0.331 -6.035,-0.48 -0.789,-0.148 -2.438,-0.084 -3.663,0.142 -1.648,0.305 -2.498,0.287 -3.262,-0.067 -1.452,-0.674 -1.38,-1.618 0.099,-1.293 2.072,0.455 3.263,-1.731 3.171,-5.818 -0.068,-3.041 -0.005,-3.335 0.794,-3.692 1.356,-0.604 2.205,-3.734 2.035,-7.492 -0.175,-3.847 -0.627,-4.445 -3.389,-4.482 -1.419,-0.02 -2.092,-0.228 -2.473,-0.765 -0.328,-0.463 -1.015,-0.738 -1.846,-0.738 -0.728,0 -1.781,-0.36 -2.34,-0.8 -0.952,-0.749 -1.623,-0.8 -10.43,-0.8 -8.566,0 -10.713,-0.226 -9.468,-0.996 1.04,-0.642 0.034,-4.604 -1.168,-4.604 -1.731,0 -2.536,1.208 -2.304,3.458 0.155,1.503 0.081,2.141 -0.25,2.139 -0.675,-0.004 -4.262,4.029 -4.529,5.093 -0.124,0.492 -1.286,1.986 -2.583,3.32 -1.298,1.334 -2.359,2.761 -2.359,3.171 0,0.837 -4.819,5.844 -5.979,6.212 -0.412,0.131 -0.967,0.501 -1.234,0.822 -0.346,0.418 -1.341,0.585 -3.482,0.585 h -2.997 l 0.317,-2.3 c 0.174,-1.265 0.356,-3.74 0.403,-5.5 0.047,-1.76 0.218,-3.957 0.379,-4.883 0.209,-1.197 0.106,-2.152 -0.357,-3.308 -0.52,-1.301 -0.65,-3.141 -0.65,-9.217 V 187.6 h 1.037 c 0.57,0 1.494,0.36 2.054,0.8 0.606,0.477 1.623,0.8 2.516,0.8 1.886,0 2.106,0.55 2.156,5.392 0.036,3.525 0.058,3.602 1.158,4.132 1.883,0.906 2.279,0.181 2.279,-4.173 V 190.8 h 19.818 19.818 l 0.982,-0.982 c 0.54,-0.54 0.982,-1.26 0.982,-1.6 0,-0.34 0.18,-0.618 0.4,-0.618 0.22,0 0.4,0.437 0.4,0.971 0,2.023 2.675,3.058 3.693,1.429 0.473,-0.758 0.933,-0.8 8.754,-0.8 6.818,0 8.341,-0.104 8.749,-0.595 0.793,-0.956 0.181,-1.805 -1.303,-1.805 -1.776,0 -2.642,-1.978 -1.839,-4.2 l 0.507,-1.4 h 7.519 7.52 v 2.551 m -4.52,3.702 c -0.499,0.499 -0.297,2.035 0.337,2.561 0.846,0.702 1.481,-0.004 1.314,-1.462 -0.125,-1.092 -1.045,-1.705 -1.651,-1.099 m -14.756,4.246 c -7.105,3.309 2.123,9.199 9.551,6.096 1.296,-0.542 1.547,-0.541 2.383,0.006 4.521,2.963 11.939,-1.299 8.531,-4.901 l -1.23,-1.3 -7.679,-0.004 c -4.224,-0.003 -8.31,-0.093 -9.08,-0.201 -0.77,-0.108 -1.884,0.029 -2.476,0.304 m 20.001,1.485 c 2.553,3.453 -2.358,6.266 -7.32,4.192 -1.178,-0.492 -1.884,-0.54 -3.349,-0.225 -3.984,0.854 -7.834,0.984 -9.139,0.31 -1.47,-0.761 -2.374,-2.829 -1.609,-3.684 0.271,-0.302 0.724,-0.825 1.008,-1.163 0.437,-0.52 1.967,-0.614 10.025,-0.614 h 9.509 l 0.875,1.184 m -19.373,0.997 c -0.398,1.036 0.254,1.419 2.412,1.419 2.179,0 4.636,-0.634 4.636,-1.196 0,-0.982 -6.676,-1.193 -7.048,-0.223 m 12.853,-0.189 c -0.606,0.98 0.569,1.961 2.096,1.75 2.991,-0.415 4.5,-1.349 3.066,-1.899 -1.018,-0.391 -4.897,-0.279 -5.162,0.149 M 207.8,194.4 c 0.14,0.227 -0.24,0.424 -0.876,0.456 -3.414,0.172 -4.681,0.074 -4.829,-0.371 -0.202,-0.607 5.331,-0.69 5.705,-0.085 m 11.4,-0.025 c 0,0.462 -3.379,1.009 -3.972,0.643 C 214.237,194.405 214.942,194 217,194 c 1.21,0 2.2,0.169 2.2,0.375 m -72.122,1.129 c -0.958,0.216 -0.645,1.062 0.453,1.224 0.565,0.083 0.869,-0.084 0.869,-0.477 0,-0.744 -0.381,-0.96 -1.322,-0.747 M 182.3,196.1 c -0.585,0.881 -0.742,0.898 -7.786,0.838 -3.954,-0.034 -7.441,0.093 -7.748,0.283 -0.985,0.609 0.144,1.177 2.657,1.337 1.307,0.084 4.328,0.373 6.712,0.642 3.048,0.344 4.461,0.364 4.759,0.066 0.232,-0.232 0.923,-0.323 1.534,-0.2 1.152,0.23 3.166,-2.504 2.564,-3.48 -0.441,-0.713 -2.086,-0.399 -2.692,0.514 m -22.7,2.113 c 0,1.542 -1.3,2.498 -2.3,1.692 -1.193,-0.962 -0.405,-3.105 1.143,-3.105 1.058,0 1.157,0.121 1.157,1.413 m 24,-1.08 c 0,0.521 -0.476,0.868 -0.862,0.628 -0.414,-0.255 -0.057,-0.961 0.486,-0.961 0.207,0 0.376,0.15 0.376,0.333 m -41.12,6.147 c -0.264,0.264 -0.48,0.948 -0.48,1.52 0,0.572 0.216,1.256 0.48,1.52 0.264,0.264 0.948,0.48 1.52,0.48 0.572,0 1.256,-0.216 1.52,-0.48 0.264,-0.264 0.48,-0.948 0.48,-1.52 0,-0.572 -0.216,-1.256 -0.48,-1.52 -0.264,-0.264 -0.948,-0.48 -1.52,-0.48 -0.572,0 -1.256,0.216 -1.52,0.48 m 55.868,0.468 c -0.717,0.769 -0.802,0.774 -2.161,0.126 -1.917,-0.914 -1.948,-0.905 -3.352,1.005 l -1.235,1.679 0.004,8.421 0.005,8.421 1.338,1.3 1.338,1.3 4.958,-0.004 4.957,-0.005 1.247,-1.295 c 0.687,-0.713 1.369,-1.685 1.516,-2.16 0.147,-0.475 0.531,-1.082 0.852,-1.349 0.322,-0.267 0.585,-1.05 0.585,-1.74 0,-0.821 0.276,-1.427 0.8,-1.754 0.519,-0.324 0.8,-0.933 0.8,-1.733 0,-0.679 0.36,-1.691 0.8,-2.251 0.44,-0.559 0.8,-1.579 0.8,-2.267 0,-0.816 0.277,-1.423 0.8,-1.749 1.102,-0.688 1.181,-4.776 0.1,-5.179 -0.385,-0.144 -0.939,-0.594 -1.232,-1.001 -0.829,-1.152 -11.814,-0.952 -12.92,0.235 m -53.166,0.03 c 0.967,1.166 0.355,2.422 -1.182,2.422 -1.441,0 -2.009,-0.956 -1.444,-2.429 0.284,-0.741 2.008,-0.737 2.626,0.007 m 66.449,0.591 c 1.484,1.485 1.699,4.519 0.369,5.231 -0.497,0.266 -0.801,0.839 -0.803,1.514 -0.001,0.597 -0.36,1.626 -0.797,2.286 -0.437,0.66 -0.796,1.779 -0.797,2.486 -0.002,0.875 -0.259,1.423 -0.803,1.714 -0.48,0.257 -0.8,0.838 -0.8,1.451 0,0.563 -0.36,1.48 -0.8,2.04 -0.44,0.559 -0.8,1.276 -0.8,1.594 0,3.042 -10.55,4.426 -13.24,1.737 l -1.178,-1.179 0.059,-8.121 c 0.065,-8.999 0.753,-11.565 2.932,-10.94 2.274,0.652 2.923,0.665 3.517,0.07 0.451,-0.45 1.652,-0.657 4.366,-0.753 2.059,-0.073 4.613,-0.17 5.675,-0.216 1.659,-0.071 2.095,0.082 3.1,1.086 m 22.769,-0.692 c -0.55,0.245 -2.08,0.5 -3.4,0.568 -5.939,0.305 -8.8,0.745 -8.8,1.355 0,1.059 12.03,1.093 12.307,0.035 0.157,-0.601 0.614,-0.814 1.949,-0.91 1.228,-0.088 1.744,-0.303 1.744,-0.725 0,-0.753 -2.38,-0.956 -3.8,-0.323 M 238,204 c 0,0.22 -0.63,0.4 -1.4,0.4 -0.77,0 -1.4,-0.18 -1.4,-0.4 0,-0.22 0.63,-0.4 1.4,-0.4 0.77,0 1.4,0.18 1.4,0.4 m -23.333,0.267 c -0.419,0.418 -0.312,1.658 0.168,1.955 0.67,0.413 1.276,-0.443 0.978,-1.382 -0.272,-0.855 -0.667,-1.053 -1.146,-0.573 m 18.3,0.776 c 1.69,0.648 0.151,0.957 -4.767,0.957 -5.727,0 -7.56,-0.662 -2.5,-0.903 6.012,-0.286 6.65,-0.291 7.267,-0.054 m -46.167,4.97 v 3.214 l -1.357,0.801 c -1.656,0.977 -1.831,1.574 -1.838,6.272 -0.003,2.196 -0.168,3.7 -0.405,3.7 -0.22,0 -0.4,-0.257 -0.4,-0.571 0,-0.315 -0.303,-0.875 -0.674,-1.246 -0.819,-0.819 -0.757,-4.177 0.108,-5.849 0.313,-0.605 0.566,-2.226 0.566,-3.625 0,-2.036 0.156,-2.665 0.8,-3.216 0.44,-0.377 0.8,-1.137 0.8,-1.689 0,-0.849 0.185,-1.004 1.2,-1.004 h 1.2 v 3.213 m 2.098,20.708 c -0.335,0.219 -0.535,1.652 -0.6,4.304 -0.093,3.785 -0.141,3.981 -0.999,4.103 -1.044,0.148 -1.969,1.562 -1.396,2.135 0.207,0.207 1.618,0.322 3.137,0.257 l 2.76,-0.12 v -5.4 -5.4 l -1.2,-0.104 c -0.66,-0.058 -1.426,0.044 -1.702,0.225 m -2.756,1.288 c 0.142,0.71 0.282,1.854 0.311,2.541 0.044,1.009 0.108,0.903 0.336,-0.55 0.155,-0.99 0.356,-2.059 0.447,-2.376 0.093,-0.327 -0.165,-0.648 -0.594,-0.741 -0.66,-0.143 -0.725,0.004 -0.5,1.126 M 191.6,236 v 5.2 h -2.576 c -1.417,0 -2.688,-0.18 -2.824,-0.4 -0.138,-0.223 0.169,-0.4 0.696,-0.4 1.642,0 1.904,-0.691 1.904,-5.013 0,-4.473 0.042,-4.587 1.667,-4.587 h 1.133 v 5.2"
       inkscape:connector-curvature="0"
       style="fill:#747474;fill-rule:evenodd;stroke:none" />
    <path
       id="path4"
       d="m 204.4,180.731 c 0,0.19 -0.36,0.762 -0.8,1.269 -1.596,1.84 0.083,5.6 2.5,5.6 0.605,0 1.1,0.18 1.1,0.4 0,0.254 -3.071,0.4 -8.413,0.4 -7.108,0 -8.448,0.093 -8.642,0.6 -0.3,0.781 -0.905,0.76 -1.814,-0.062 -0.8,-0.724 -1.028,-0.195 -0.251,0.582 0.66,0.66 1.812,0.602 2.211,-0.112 0.273,-0.487 1.812,-0.61 8.72,-0.7 7.142,-0.092 8.389,-0.197 8.389,-0.708 0,-0.374 -0.453,-0.644 -1.203,-0.718 -2.143,-0.211 -3.184,-2.987 -1.987,-5.302 l 0.611,-1.18 h 7.989 7.99 v 2.869 c 0,2.066 -0.179,3.065 -0.639,3.574 -0.839,0.927 -0.403,1.557 1.075,1.557 0.688,0 1.286,0.253 1.419,0.6 0.127,0.33 0.506,0.6 0.842,0.6 0.413,0 0.281,-0.26 -0.406,-0.8 -0.56,-0.44 -1.484,-0.8 -2.054,-0.8 -1.139,0 -1.394,-0.577 -0.421,-0.951 0.5,-0.192 0.595,-0.86 0.5,-3.543 L 221,180.6 l -8.3,-0.108 c -4.565,-0.06 -8.3,0.048 -8.3,0.239 m -18.72,4.949 c -0.264,0.264 -0.48,0.86 -0.48,1.325 0,0.465 -0.499,1.323 -1.108,1.907 l -1.108,1.062 -20.591,0.041 c -20.4,0.04 -20.596,0.033 -21.141,-0.787 -0.332,-0.5 -0.981,-0.828 -1.64,-0.828 -0.599,0 -1.514,-0.368 -2.033,-0.818 -1.086,-0.942 -4.834,-0.996 -5.018,-0.072 -0.055,0.281 -0.009,0.326 0.102,0.1 0.346,-0.696 3.248,-0.453 4.627,0.389 0.721,0.439 1.805,0.799 2.41,0.8 0.605,0 1.1,0.182 1.1,0.404 0,0.221 0.437,0.783 0.972,1.247 0.801,0.697 0.906,1.018 0.598,1.829 -0.206,0.541 -0.345,1.751 -0.31,2.69 0.036,0.938 -0.058,1.904 -0.209,2.148 -0.15,0.244 0.064,0.623 0.477,0.844 1.17,0.627 1.68,-0.244 1.605,-2.741 l -0.067,-2.22 -0.233,2.308 c -0.128,1.269 -0.399,2.303 -0.603,2.297 -0.447,-0.013 -0.3,-4.912 0.156,-5.201 0.177,-0.112 0.39,-0.564 0.473,-1.004 0.149,-0.784 0.549,-0.804 20.005,-1 22.097,-0.223 21.122,-0.09 21.867,-2.967 0.386,-1.486 1.327,-1.614 1.711,-0.233 l 0.278,1 0.04,-1.02 c 0.037,-0.934 -0.576,-1.98 -1.16,-1.98 -0.132,0 -0.456,0.216 -0.72,0.48 m -53.587,3.92 c 0,0.77 0.082,1.085 0.183,0.7 0.1,-0.385 0.1,-1.015 0,-1.4 -0.101,-0.385 -0.183,-0.07 -0.183,0.7 m 98.507,0.687 c 3.3,0.067 6.27,0.237 6.6,0.378 0.33,0.142 0.914,0.219 1.297,0.172 0.384,-0.048 1.099,0.195 1.589,0.538 0.745,0.522 2.387,0.625 9.954,0.625 7.51,0 9.146,0.101 9.553,0.592 0.36,0.433 0.689,0.485 1.232,0.195 1.04,-0.557 1.575,0.592 1.575,3.38 v 2.219 l -10,0.118 -10,0.117 10.1,-0.01 10.1,-0.011 0.103,-2.8 c 0.156,-4.258 0.91,-3.98 -11.188,-4.135 -9.545,-0.122 -10.589,-0.203 -11.315,-0.871 -0.722,-0.665 -1.523,-0.732 -8.2,-0.682 -7.318,0.055 -7.334,0.057 -1.4,0.175 m -98.105,15.741 0.105,14.972 3.819,0.114 3.82,0.113 3.68,-3.57 c 2.025,-1.964 3.681,-3.703 3.681,-3.866 0,-0.163 -1.236,0.942 -2.746,2.456 -4.453,4.465 -4.719,4.604 -8.56,4.469 L 133,220.6 132.917,206.05 c -0.046,-8.002 -0.183,-14.649 -0.305,-14.771 -0.122,-0.122 -0.175,6.515 -0.117,14.749 m 68.827,-13.624 c -1.643,0.662 -1.757,4.396 -0.135,4.396 0.838,0 1.122,-0.962 0.413,-1.4 -0.619,-0.383 -0.472,-1.8 0.187,-1.8 0.358,0 0.498,-0.235 0.358,-0.6 -0.148,-0.385 0.008,-0.6 0.436,-0.6 0.366,0 0.555,0.18 0.419,0.4 -0.153,0.247 0.556,0.4 1.856,0.4 1.226,0 1.945,-0.146 1.724,-0.35 -0.578,-0.533 -4.265,-0.846 -5.258,-0.446 m 8.078,0.077 c 1.1,0.184 2.664,0.241 3.476,0.126 1.429,-0.202 2.359,0.277 1.531,0.789 -0.224,0.138 -0.407,0.871 -0.407,1.628 v 1.376 l -3.5,-0.033 c -3.343,-0.031 -3.443,-0.057 -2.231,-0.588 2.193,-0.961 2.05,-2.625 -0.218,-2.539 l -1.051,0.04 1,0.278 c 2.319,0.645 -0.775,2.775 -3.244,2.232 -0.694,-0.152 -1.28,-0.009 -1.707,0.418 -1.203,1.203 -0.779,1.52 1.694,1.261 1.289,-0.135 4.077,-0.367 6.196,-0.516 l 3.852,-0.27 -0.244,-1.522 c -0.292,-1.826 0.585,-2.232 3.874,-1.796 1.626,0.216 1.979,0.153 1.979,-0.351 0,-0.338 -0.315,-0.621 -0.7,-0.63 -9.807,-0.225 -12.091,-0.204 -10.3,0.097 m 11.279,2.057 c -0.113,0.296 -1.033,0.769 -2.043,1.052 -1.01,0.283 -1.836,0.643 -1.836,0.801 0,0.158 -0.405,0.482 -0.9,0.721 -0.919,0.443 0.736,0.737 3.1,0.552 0.865,-0.068 3,-2.309 3,-3.149 0,-0.682 -1.057,-0.664 -1.321,0.023 M 201.2,195.8 c 0,0.33 -0.18,0.6 -0.4,0.6 -0.22,0 -0.4,-0.27 -0.4,-0.6 0,-0.33 0.18,-0.6 0.4,-0.6 0.22,0 0.4,0.27 0.4,0.6 m -43.925,2.7 c 0.101,1.05 0.279,1.273 0.925,1.16 1.819,-0.318 1.971,-2.46 0.175,-2.46 -1.142,0 -1.217,0.089 -1.1,1.3 m 83.134,0.889 c -0.374,0.45 -1.72,0.617 -5.749,0.712 l -5.26,0.124 5.48,0.088 c 4.255,0.067 5.552,-0.034 5.8,-0.454 0.176,-0.298 0.59,-0.644 0.92,-0.769 0.503,-0.19 0.495,-0.232 -0.051,-0.258 -0.358,-0.018 -0.871,0.233 -1.14,0.557 m -12.803,1.711 c 0.004,0.432 0.119,0.531 0.3,0.26 0.162,-0.242 0.564,-0.543 0.894,-0.668 0.401,-0.153 0.301,-0.239 -0.3,-0.26 -0.605,-0.022 -0.898,0.198 -0.894,0.668 m -72.582,1.743 c -0.645,0.683 -1.598,2.043 -2.119,3.02 -0.52,0.978 -1.591,2.386 -2.379,3.129 -1.479,1.395 -2.919,3.344 -2.923,3.957 -0.005,0.606 1.154,-0.583 1.437,-1.475 0.149,-0.469 1.011,-1.598 1.915,-2.508 2.091,-2.105 3.045,-3.382 3.045,-4.078 0,-0.302 0.526,-1.076 1.169,-1.719 L 156.338,202 h 11.017 c 10.607,0 11.033,0.03 11.445,0.8 0.34,0.636 0.838,0.8 2.424,0.8 2.196,0 2.968,0.883 2.5,2.857 -0.21,0.883 -0.188,0.897 0.346,0.209 0.381,-0.492 0.96,-0.69 1.75,-0.6 l 1.18,0.134 0.114,3.878 c 0.109,3.688 0.07,3.903 -0.8,4.366 -0.503,0.268 -1.133,0.772 -1.401,1.121 -0.602,0.785 -0.709,7.403 -0.113,7.035 0.226,-0.14 0.4,0.188 0.4,0.753 0,1.197 -0.673,1.753 -0.911,0.753 -0.139,-0.586 -0.161,-0.575 -0.128,0.063 0.021,0.422 0.233,0.832 0.47,0.91 0.82,0.269 1.24,-1.693 1.114,-5.203 l -0.126,-3.524 1.219,-0.425 c 1.657,-0.578 2.034,-1.797 2.007,-6.482 -0.026,-4.62 0.09,-4.412 -2.392,-4.299 -1.685,0.077 -2.026,-0.045 -2.605,-0.929 -0.541,-0.826 -0.987,-1.017 -2.368,-1.017 -1.207,0 -1.901,-0.233 -2.387,-0.8 -0.655,-0.764 -1.18,-0.8 -11.79,-0.8 h -11.106 l -1.173,1.243 m 72.222,-0.343 c -0.05,0.767 -0.004,0.756 -3.446,0.841 -2.114,0.052 -2.4,0.154 -2.4,0.859 0,0.514 0.214,0.744 0.6,0.643 0.783,-0.205 6.395,-0.843 9.2,-1.046 1.21,-0.088 3.325,-0.279 4.7,-0.426 2.364,-0.253 2.5,-0.221 2.5,0.581 0,0.644 -0.247,0.848 -1.026,0.848 -1.447,0 -2.574,0.696 -2.574,1.589 0,0.65 -0.219,0.73 -1.5,0.55 l -1.5,-0.21 1.146,0.636 c 1.67,0.926 2.191,0.791 2.567,-0.665 0.28,-1.087 0.561,-1.333 1.711,-1.5 1.148,-0.167 1.376,-0.366 1.376,-1.2 v -1 l -5.483,0.035 c -4.689,0.03 -5.508,-0.057 -5.654,-0.6 -0.141,-0.526 -0.178,-0.515 -0.217,0.065 m -17.872,0.99 c 2.497,0.636 4.087,4.714 2.226,5.71 -0.509,0.272 -0.8,0.838 -0.8,1.552 0,0.618 -0.36,1.45 -0.8,1.848 -0.564,0.511 -0.8,1.232 -0.8,2.448 0,1.314 -0.19,1.826 -0.8,2.152 -0.509,0.272 -0.8,0.838 -0.8,1.552 0,0.618 -0.36,1.45 -0.8,1.848 -0.44,0.398 -0.8,1.07 -0.8,1.493 0,2.193 -2.011,3.107 -6.834,3.107 h -4.495 l -1.135,-1.272 c -0.625,-0.7 -1.136,-1.134 -1.136,-0.964 0,1.778 2.198,2.636 6.756,2.636 h 4.559 l 1.338,-1.3 c 0.736,-0.715 1.34,-1.665 1.343,-2.111 0.002,-0.446 0.364,-1.119 0.804,-1.496 0.443,-0.379 0.8,-1.18 0.8,-1.793 0,-0.674 0.313,-1.303 0.8,-1.607 0.558,-0.349 0.8,-0.933 0.8,-1.933 0,-0.828 0.338,-1.864 0.8,-2.451 0.44,-0.559 0.8,-1.489 0.8,-2.067 0,-0.616 0.33,-1.256 0.8,-1.549 1.926,-1.203 -0.21,-6.168 -2.6,-6.042 -0.77,0.04 -0.771,0.049 -0.026,0.239 m -66.85,0.764 c -0.489,1.275 1.39,2.792 2.314,1.868 0.204,-0.204 -0.11,-0.346 -0.743,-0.337 -0.935,0.013 -1.093,-0.145 -1.079,-1.085 0.018,-1.255 -0.13,-1.389 -0.492,-0.446 m 1.551,-0.383 c 0.372,0.098 0.756,0.482 0.854,0.854 0.126,0.478 0.192,0.413 0.225,-0.225 0.035,-0.693 -0.161,-0.889 -0.854,-0.854 -0.638,0.033 -0.703,0.099 -0.225,0.225 m 57.325,0.01 c -1.1,0.075 -2.396,0.338 -2.88,0.585 -0.509,0.259 -1.629,0.346 -2.655,0.205 -1.912,-0.262 -3.925,1.606 -3.825,3.551 0.038,0.753 0.048,0.752 0.3,-0.022 0.464,-1.427 2.137,-3.345 2.723,-3.121 0.652,0.251 10.079,-0.577 12.137,-1.065 1.512,-0.359 -1.485,-0.428 -5.8,-0.133 M 223.6,204 c -0.786,0.508 -2,0.508 -2,0 0,-0.22 0.585,-0.397 1.3,-0.394 0.986,0.005 1.155,0.1 0.7,0.394 m -35.2,5.8 c 0,5.67 -0.716,5.812 -0.875,0.173 -0.069,-2.444 -0.055,-4.512 0.031,-4.597 0.578,-0.573 0.844,0.82 0.844,4.424 m 31.985,-3.317 c -0.419,0.155 -0.882,0.785 -1.029,1.4 -0.148,0.614 -0.603,1.439 -1.012,1.833 -0.409,0.393 -0.744,0.995 -0.744,1.336 0,0.342 -0.36,1.079 -0.8,1.639 -0.44,0.559 -0.8,1.415 -0.8,1.901 0,0.486 -0.36,1.21 -0.8,1.608 -0.44,0.398 -0.8,1.214 -0.8,1.813 0,0.599 -0.27,1.313 -0.6,1.587 -0.33,0.274 -0.6,0.77 -0.6,1.103 0,0.403 0.268,0.265 0.8,-0.412 0.44,-0.56 0.8,-1.567 0.8,-2.24 0,-0.813 0.268,-1.366 0.8,-1.651 0.509,-0.272 0.8,-0.838 0.8,-1.552 0,-0.618 0.36,-1.45 0.8,-1.848 0.44,-0.398 0.8,-1.124 0.8,-1.613 0,-0.489 0.28,-1.122 0.623,-1.406 0.343,-0.285 0.874,-1.117 1.18,-1.849 l 0.556,-1.332 5.721,-0.064 c 6.16,-0.069 5.824,-0.246 -0.807,-0.425 -2.27,-0.061 -4.469,0.016 -4.888,0.172 m -37.685,2.129 c -0.49,0.657 -0.678,1.575 -0.628,3.063 l 0.072,2.125 0.154,-1.997 c 0.085,-1.099 0.431,-2.303 0.769,-2.677 0.338,-0.374 0.552,-0.853 0.474,-1.066 -0.078,-0.212 -0.456,0.036 -0.841,0.552 m 9.776,2.521 c 0.027,1.899 0.096,2.066 0.632,1.53 0.536,-0.536 0.533,-0.769 -0.03,-2.132 l -0.631,-1.531 0.029,2.133 m -0.326,6.667 c 0.001,2.42 0.066,3.358 0.146,2.085 0.08,-1.273 0.079,-3.253 -0.002,-4.4 -0.08,-1.147 -0.145,-0.105 -0.144,2.315 m -11.05,-2.667 c -1.067,1.814 -0.998,7.079 0.1,7.667 0.62,0.332 0.8,0.838 0.8,2.245 0,3.056 1.638,4.336 4.9,3.83 1.618,-0.251 3.347,-0.251 4.9,0.002 1.32,0.214 5.223,0.323 8.674,0.242 7.11,-0.168 7.926,-0.474 7.926,-2.981 0,-1.663 0.617,-1.754 0.94,-0.138 0.338,1.691 1.784,1.681 2.123,-0.014 0.133,-0.668 0.579,-1.394 0.99,-1.614 0.514,-0.275 0.73,-0.802 0.693,-1.686 -0.046,-1.08 -0.083,-1.126 -0.229,-0.286 -0.095,0.55 -0.424,1.195 -0.73,1.433 -0.305,0.238 -0.738,0.913 -0.961,1.5 -0.513,1.348 -1.134,1.362 -1.638,0.034 -0.52,-1.367 -1.339,-1.036 -1.588,0.642 -0.377,2.539 -8.753,3.58 -16.343,2.032 -2.167,-0.441 -4.841,-0.248 -6.195,0.448 -0.559,0.288 -0.927,0.177 -1.516,-0.455 -0.427,-0.458 -0.95,-0.834 -1.162,-0.834 -0.211,0 -0.384,-0.872 -0.384,-1.938 0,-1.43 -0.21,-2.128 -0.8,-2.662 -1.029,-0.931 -1.14,-5.136 -0.172,-6.518 0.345,-0.493 0.57,-1.177 0.5,-1.519 -0.09,-0.434 -0.339,-0.263 -0.828,0.57 m 4.509,15.456 c -0.276,0.333 -0.392,2.455 -0.321,5.866 l 0.112,5.345 h 3.4 3.4 v -5.8 -5.8 l -1.2,-0.058 c -1.14,-0.055 -1.145,-0.049 -0.1,0.127 l 1.1,0.184 v 5.59 5.591 l -3.071,-0.117 -3.071,-0.117 0.024,-5.32 c 0.026,-5.724 0.072,-5.934 1.184,-5.377 0.483,0.243 1.062,0.197 1.694,-0.134 0.897,-0.469 0.839,-0.502 -0.879,-0.502 -1.024,0 -2.03,0.231 -2.272,0.522"
       inkscape:connector-curvature="0"
       style="fill:#acacac;fill-rule:evenodd;stroke:none" />
  </g>
</svg>
