<svg id="svg" version="1.1" xmlns="http://www.w3.org/2000/svg" xmlns:xlink="http://www.w3.org/1999/xlink" width="400" height="400" viewBox="0, 0, 400,400"><g id="svgg"><path id="path0" d="M204.854 182.600 C 204.051 184.822,204.917 186.800,206.693 186.800 C 208.177 186.800,208.789 187.649,207.996 188.605 C 207.588 189.096,206.065 189.200,199.247 189.200 C 191.426 189.200,190.966 189.242,190.493 190.000 C 189.475 191.629,186.800 190.594,186.800 188.571 C 186.800 188.037,186.620 187.600,186.400 187.600 C 186.180 187.600,186.000 187.878,186.000 188.218 C 186.000 188.558,185.558 189.278,185.018 189.818 L 184.036 190.800 164.218 190.800 L 144.400 190.800 144.400 194.551 C 144.400 198.905,144.004 199.630,142.121 198.724 C 141.021 198.194,140.999 198.117,140.963 194.592 C 140.913 189.750,140.693 189.200,138.807 189.200 C 137.914 189.200,136.897 188.877,136.291 188.400 C 135.731 187.960,134.807 187.600,134.237 187.600 L 133.200 187.600 133.200 195.192 C 133.200 201.268,133.330 203.108,133.850 204.409 C 134.313 205.565,134.416 206.520,134.207 207.717 C 134.046 208.643,133.875 210.840,133.828 212.600 C 133.781 214.360,133.599 216.835,133.425 218.100 L 133.108 220.400 136.105 220.400 C 138.246 220.400,139.241 220.233,139.587 219.815 C 139.854 219.494,140.409 219.124,140.821 218.993 C 141.981 218.625,146.800 213.618,146.800 212.781 C 146.800 212.371,147.861 210.944,149.159 209.610 C 150.456 208.276,151.618 206.782,151.742 206.290 C 152.009 205.226,155.596 201.193,156.271 201.197 C 156.602 201.199,156.676 200.561,156.521 199.058 C 156.289 196.808,157.094 195.600,158.825 195.600 C 160.027 195.600,161.033 199.562,159.993 200.204 C 158.748 200.974,160.895 201.200,169.461 201.200 C 178.268 201.200,178.939 201.251,179.891 202.000 C 180.450 202.440,181.503 202.800,182.231 202.800 C 183.062 202.800,183.749 203.075,184.077 203.538 C 184.458 204.075,185.131 204.283,186.550 204.303 C 189.312 204.340,189.764 204.938,189.939 208.785 C 190.109 212.543,189.260 215.673,187.904 216.277 C 187.105 216.634,187.042 216.928,187.110 219.969 C 187.202 224.056,186.011 226.242,183.939 225.787 C 182.460 225.462,182.388 226.406,183.840 227.080 C 184.604 227.434,185.454 227.452,187.102 227.147 C 188.327 226.921,189.976 226.857,190.765 227.005 C 191.554 227.154,194.270 227.370,196.800 227.485 C 204.667 227.842,207.600 227.326,207.600 225.582 C 207.600 223.897,208.707 223.198,209.610 224.313 C 210.397 225.285,210.800 225.438,210.800 224.763 C 210.800 224.523,211.160 223.869,211.600 223.309 C 212.040 222.750,212.400 221.775,212.400 221.142 C 212.400 220.487,212.744 219.697,213.200 219.307 C 213.645 218.926,214.000 218.127,214.000 217.507 C 214.000 216.887,214.355 216.088,214.800 215.707 C 215.240 215.330,215.612 214.567,215.627 214.011 C 215.641 213.455,216.183 212.100,216.830 211.000 C 217.477 209.900,218.295 208.370,218.647 207.600 C 218.998 206.830,219.537 206.056,219.843 205.880 C 220.149 205.704,220.403 205.164,220.406 204.680 C 220.419 202.890,222.645 201.657,224.552 202.382 C 226.328 203.057,226.800 202.909,226.800 201.680 C 226.800 199.750,227.288 199.600,233.584 199.600 C 238.974 199.600,239.445 199.540,239.907 198.800 C 240.387 198.032,240.840 198.000,251.203 198.000 C 257.142 198.000,261.997 197.865,261.994 197.700 C 261.981 197.080,261.373 196.600,260.600 196.600 C 260.015 196.600,259.794 196.327,259.780 195.581 C 259.724 192.839,259.385 192.739,249.737 192.614 C 240.345 192.492,237.474 192.212,236.757 191.349 C 236.405 190.924,234.787 190.800,229.574 190.800 C 223.401 190.800,222.801 190.737,222.309 190.035 C 222.015 189.614,221.258 189.209,220.627 189.135 C 218.959 188.939,218.333 187.707,219.500 186.914 C 220.275 186.387,220.400 185.949,220.400 183.751 L 220.400 181.200 212.880 181.200 L 205.361 181.200 204.854 182.600 M217.531 188.552 C 217.698 190.010,217.063 190.716,216.217 190.014 C 215.583 189.488,215.381 187.952,215.880 187.453 C 216.486 186.847,217.406 187.460,217.531 188.552 M212.680 191.596 L 220.359 191.600 221.589 192.900 C 224.997 196.502,217.579 200.764,213.058 197.801 C 212.222 197.254,211.971 197.253,210.675 197.795 C 204.746 200.272,196.341 196.979,199.197 193.298 C 200.334 191.831,201.897 191.156,203.600 191.395 C 204.370 191.503,208.456 191.593,212.680 191.596 M202.095 194.485 C 202.243 194.930,203.510 195.028,206.924 194.856 C 207.560 194.824,207.940 194.627,207.800 194.400 C 207.426 193.795,201.893 193.878,202.095 194.485 M214.800 194.376 C 214.800 195.076,215.649 195.283,217.428 195.017 C 219.910 194.644,219.639 194.000,217.000 194.000 C 215.790 194.000,214.800 194.169,214.800 194.376 M148.400 196.251 C 148.400 196.644,148.096 196.811,147.531 196.728 C 146.433 196.566,146.120 195.720,147.078 195.504 C 148.019 195.291,148.400 195.507,148.400 196.251 M184.992 195.586 C 185.594 196.562,183.580 199.296,182.428 199.066 C 181.817 198.943,181.126 199.034,180.894 199.266 C 180.596 199.564,179.183 199.544,176.135 199.200 C 173.751 198.931,170.730 198.642,169.423 198.558 C 166.910 198.398,165.781 197.830,166.766 197.221 C 167.073 197.031,170.560 196.904,174.514 196.938 C 181.558 196.998,181.715 196.981,182.300 196.100 C 182.906 195.187,184.551 194.873,184.992 195.586 M145.520 203.280 C 145.784 203.544,146.000 204.228,146.000 204.800 C 146.000 205.372,145.784 206.056,145.520 206.320 C 145.256 206.584,144.572 206.800,144.000 206.800 C 143.428 206.800,142.744 206.584,142.480 206.320 C 142.216 206.056,142.000 205.372,142.000 204.800 C 142.000 204.228,142.216 203.544,142.480 203.280 C 142.744 203.016,143.428 202.800,144.000 202.800 C 144.572 202.800,145.256 203.016,145.520 203.280 M211.268 203.513 C 211.561 203.920,212.115 204.370,212.500 204.514 C 213.581 204.917,213.502 209.005,212.400 209.693 C 211.877 210.019,211.600 210.626,211.600 211.442 C 211.600 212.130,211.240 213.150,210.800 213.709 C 210.360 214.269,210.000 215.281,210.000 215.960 C 210.000 216.760,209.719 217.369,209.200 217.693 C 208.676 218.020,208.400 218.626,208.400 219.447 C 208.400 220.137,208.137 220.920,207.815 221.187 C 207.494 221.454,207.110 222.061,206.963 222.536 C 206.816 223.011,206.134 223.983,205.447 224.696 L 204.200 225.991 199.243 225.996 L 194.285 226.000 192.947 224.700 L 191.609 223.400 191.604 214.979 L 191.600 206.558 192.835 204.879 C 194.239 202.969,194.270 202.960,196.187 203.874 C 197.546 204.522,197.631 204.517,198.348 203.748 C 199.454 202.561,210.439 202.361,211.268 203.513 M235.200 204.000 C 235.200 204.220,235.830 204.400,236.600 204.400 C 237.370 204.400,238.000 204.220,238.000 204.000 C 238.000 203.780,237.370 203.600,236.600 203.600 C 235.830 203.600,235.200 203.780,235.200 204.000 M215.813 204.840 C 216.111 205.779,215.505 206.635,214.835 206.222 C 214.355 205.925,214.248 204.685,214.667 204.267 C 215.146 203.787,215.541 203.985,215.813 204.840 M225.700 205.097 C 220.640 205.338,222.473 206.000,228.200 206.000 C 233.118 206.000,234.657 205.691,232.967 205.043 C 232.350 204.806,231.712 204.811,225.700 205.097 M184.400 207.804 C 184.400 208.356,184.040 209.116,183.600 209.493 C 182.956 210.044,182.800 210.673,182.800 212.709 C 182.800 214.108,182.547 215.729,182.234 216.334 C 181.369 218.006,181.307 221.364,182.126 222.183 C 182.497 222.554,182.800 223.114,182.800 223.429 C 182.800 223.743,182.980 224.000,183.200 224.000 C 183.437 224.000,183.602 222.496,183.605 220.300 C 183.612 215.602,183.787 215.005,185.443 214.028 L 186.800 213.227 186.800 210.013 L 186.800 206.800 185.600 206.800 C 184.585 206.800,184.400 206.955,184.400 207.804 M189.067 231.067 C 188.920 231.213,188.800 233.157,188.800 235.387 C 188.800 239.709,188.538 240.400,186.896 240.400 C 186.369 240.400,186.062 240.577,186.200 240.800 C 186.336 241.020,187.607 241.200,189.024 241.200 L 191.600 241.200 191.600 236.000 L 191.600 230.800 190.467 230.800 C 189.843 230.800,189.213 230.920,189.067 231.067 " stroke="none" fill="#0a0a0a" fill-rule="evenodd"></path><path id="path1" d="M0.000 200.000 L 0.000 400.000 200.000 400.000 L 400.000 400.000 400.000 200.000 L 400.000 0.000 200.000 0.000 L 0.000 0.000 0.000 200.000 M221.116 183.906 C 221.211 186.589,221.116 187.257,220.616 187.449 C 219.650 187.820,219.894 188.400,221.016 188.400 C 221.575 188.400,222.520 188.757,223.116 189.193 C 224.102 189.914,224.886 189.989,231.800 190.021 C 238.595 190.053,239.485 190.135,240.200 190.794 C 240.926 191.462,241.970 191.543,251.515 191.665 C 263.613 191.820,262.859 191.542,262.703 195.800 L 262.600 198.600 251.917 198.800 C 242.486 198.977,241.173 199.080,240.717 199.679 C 240.280 200.253,239.286 200.376,234.285 200.479 C 228.142 200.605,227.622 200.757,227.606 202.435 C 227.601 202.987,228.324 203.066,233.100 203.035 L 238.600 203.000 238.600 204.000 C 238.600 204.834,238.372 205.033,237.224 205.200 C 236.074 205.367,235.793 205.613,235.513 206.700 C 235.140 208.145,234.635 208.283,232.946 207.402 C 232.086 206.954,230.372 206.804,226.080 206.802 L 220.359 206.800 219.803 208.132 C 219.497 208.864,218.966 209.696,218.623 209.981 C 218.280 210.265,218.000 210.898,218.000 211.387 C 218.000 211.876,217.640 212.602,217.200 213.000 C 216.760 213.398,216.400 214.230,216.400 214.848 C 216.400 215.562,216.109 216.128,215.600 216.400 C 215.068 216.685,214.800 217.238,214.800 218.051 C 214.800 218.724,214.440 219.731,214.000 220.291 C 213.560 220.850,213.200 221.907,213.200 222.640 C 213.200 223.531,212.953 224.104,212.453 224.372 C 212.042 224.592,211.596 225.318,211.463 225.986 C 211.124 227.681,209.678 227.691,209.340 226.000 C 209.017 224.384,208.400 224.475,208.400 226.138 C 208.400 228.645,207.584 228.951,200.474 229.119 C 197.023 229.200,193.120 229.091,191.800 228.877 C 190.247 228.624,188.518 228.624,186.900 228.875 C 183.638 229.381,182.000 228.101,182.000 225.045 C 182.000 223.638,181.820 223.132,181.200 222.800 C 180.034 222.176,180.034 216.760,181.200 215.000 C 181.755 214.161,181.996 213.122,181.997 211.549 C 181.999 210.050,182.198 209.133,182.593 208.806 C 184.868 206.918,183.995 203.600,181.224 203.600 C 179.638 203.600,179.140 203.436,178.800 202.800 C 178.388 202.030,177.962 202.000,167.355 202.000 L 156.338 202.000 155.169 203.169 C 154.526 203.812,154.000 204.586,154.000 204.888 C 154.000 205.571,153.072 206.827,150.994 208.955 C 150.110 209.860,149.158 211.050,148.878 211.600 C 147.771 213.773,147.272 214.379,143.825 217.742 L 140.252 221.227 136.426 221.114 L 132.600 221.000 132.398 204.800 C 132.287 195.890,132.328 188.195,132.488 187.700 C 132.889 186.463,136.214 186.398,137.600 187.600 C 138.107 188.040,139.013 188.400,139.612 188.400 C 140.271 188.400,140.920 188.728,141.252 189.228 C 141.797 190.048,141.993 190.055,162.393 190.015 L 182.984 189.974 184.092 188.912 C 184.701 188.328,185.200 187.456,185.200 186.974 C 185.200 186.492,185.470 185.874,185.800 185.600 C 186.621 184.919,187.600 185.745,187.600 187.117 C 187.600 188.913,189.608 190.399,190.145 189.000 C 190.339 188.493,191.679 188.400,198.787 188.400 C 204.129 188.400,207.200 188.254,207.200 188.000 C 207.200 187.780,206.705 187.600,206.100 187.600 C 203.683 187.600,202.004 183.840,203.600 182.000 C 204.040 181.493,204.400 180.921,204.400 180.731 C 204.400 180.540,208.135 180.432,212.700 180.492 L 221.000 180.600 221.116 183.906 M142.734 195.035 C 142.596 197.753,142.668 198.129,143.256 197.766 C 143.719 197.479,143.698 192.400,143.234 192.400 C 143.033 192.400,142.808 193.586,142.734 195.035 M206.599 192.799 C 206.736 193.020,207.355 193.200,207.975 193.200 C 210.314 193.200,210.497 194.803,208.269 195.779 C 207.057 196.310,207.157 196.336,210.500 196.367 L 214.000 196.400 214.000 195.080 C 214.000 194.354,214.216 193.544,214.480 193.280 C 214.744 193.016,214.879 192.787,214.780 192.772 C 212.851 192.470,206.409 192.491,206.599 192.799 M200.400 195.800 C 200.400 196.130,200.580 196.400,200.800 196.400 C 201.020 196.400,201.200 196.130,201.200 195.800 C 201.200 195.470,201.020 195.200,200.800 195.200 C 200.580 195.200,200.400 195.470,200.400 195.800 M143.023 203.910 C 142.572 204.362,142.818 205.632,143.400 205.855 C 144.378 206.231,145.158 205.724,144.932 204.861 C 144.731 204.093,143.469 203.464,143.023 203.910 M207.200 204.012 C 205.347 204.450,196.302 205.301,195.302 205.133 C 193.298 204.794,192.010 207.809,193.049 210.406 C 193.648 211.903,193.648 212.084,193.049 212.746 C 191.772 214.156,192.129 222.352,193.536 223.928 L 194.671 225.200 199.166 225.200 C 203.989 225.200,206.000 224.286,206.000 222.093 C 206.000 221.670,206.360 220.998,206.800 220.600 C 207.240 220.202,207.600 219.370,207.600 218.752 C 207.600 218.038,207.891 217.472,208.400 217.200 C 209.010 216.874,209.200 216.362,209.200 215.048 C 209.200 213.832,209.436 213.111,210.000 212.600 C 210.440 212.202,210.800 211.370,210.800 210.752 C 210.800 210.038,211.091 209.472,211.600 209.200 C 212.870 208.521,212.678 206.216,211.231 204.769 C 210.014 203.552,209.532 203.462,207.200 204.012 M221.600 204.000 C 221.600 204.508,222.814 204.508,223.600 204.000 C 224.055 203.706,223.886 203.611,222.900 203.606 C 222.185 203.603,221.600 203.780,221.600 204.000 M187.556 205.376 C 187.208 205.720,187.670 214.404,188.025 214.184 C 188.495 213.894,188.524 205.724,188.056 205.434 C 187.866 205.317,187.641 205.291,187.556 205.376 M184.700 222.629 C 184.535 222.796,184.400 223.389,184.400 223.947 C 184.400 224.675,184.522 224.838,184.834 224.526 C 185.072 224.288,185.207 223.694,185.134 223.208 C 185.060 222.722,184.865 222.461,184.700 222.629 M192.200 236.000 L 192.200 241.800 188.800 241.800 L 185.400 241.800 185.288 236.455 C 185.152 229.938,185.095 230.031,189.127 230.127 L 192.200 230.200 192.200 236.000 " stroke="none" fill="#fcfcfc" fill-rule="evenodd"></path><path id="path2" d="M204.200 182.000 C 203.859 182.660,203.669 183.200,203.779 183.200 C 203.889 183.200,204.259 182.660,204.600 182.000 C 204.941 181.340,205.131 180.800,205.021 180.800 C 204.911 180.800,204.541 181.340,204.200 182.000 M185.875 186.258 C 185.724 186.410,185.603 186.728,185.606 186.967 C 185.609 187.205,185.789 187.130,186.006 186.800 C 186.356 186.267,186.448 186.267,186.830 186.800 C 187.181 187.289,187.232 187.293,187.105 186.825 C 186.925 186.159,186.274 185.859,185.875 186.258 M219.791 187.209 C 219.188 187.877,219.152 188.105,219.588 188.509 C 220.009 188.900,220.056 188.892,219.819 188.475 C 219.648 188.173,219.820 187.620,220.223 187.175 C 220.608 186.749,220.834 186.400,220.724 186.400 C 220.614 186.400,220.194 186.764,219.791 187.209 M132.509 189.600 C 132.509 190.590,132.587 190.995,132.682 190.500 C 132.778 190.005,132.778 189.195,132.682 188.700 C 132.587 188.205,132.509 188.610,132.509 189.600 M141.813 190.800 C 142.015 191.130,142.128 191.715,142.065 192.100 C 141.908 193.055,142.257 192.988,142.512 192.015 C 142.629 191.567,142.444 191.008,142.082 190.715 C 141.546 190.281,141.504 190.294,141.813 190.800 M236.984 190.879 C 237.904 191.412,240.019 191.554,239.715 191.062 C 239.600 190.877,239.073 190.807,238.544 190.909 C 238.014 191.010,237.485 190.937,237.367 190.746 C 237.249 190.556,236.938 190.405,236.676 190.412 C 236.414 190.419,236.553 190.629,236.984 190.879 M204.500 192.287 C 205.105 192.378,206.095 192.378,206.700 192.287 C 207.305 192.195,206.810 192.120,205.600 192.120 C 204.390 192.120,203.895 192.195,204.500 192.287 M211.105 192.283 C 211.602 192.379,212.322 192.375,212.705 192.275 C 213.087 192.175,212.680 192.096,211.800 192.101 C 210.920 192.105,210.607 192.187,211.105 192.283 M215.305 192.287 C 215.914 192.379,216.814 192.377,217.305 192.282 C 217.797 192.187,217.300 192.111,216.200 192.114 C 215.100 192.117,214.697 192.195,215.305 192.287 M219.500 192.282 C 220.436 192.462,220.778 193.595,219.900 193.606 C 219.566 193.610,219.599 193.743,220.000 194.006 C 220.533 194.356,220.533 194.444,220.000 194.794 C 219.670 195.011,219.565 195.191,219.766 195.194 C 219.968 195.197,220.435 194.885,220.805 194.500 C 221.676 193.593,220.779 191.970,219.454 192.054 C 218.632 192.107,218.633 192.115,219.500 192.282 M243.712 192.295 C 244.764 192.377,246.384 192.376,247.312 192.292 C 248.240 192.208,247.380 192.141,245.400 192.142 C 243.420 192.143,242.660 192.212,243.712 192.295 M259.269 192.768 C 259.806 193.191,260.596 193.506,261.023 193.468 C 261.657 193.413,261.844 193.732,262.040 195.200 L 262.280 197.000 262.340 195.474 C 262.423 193.375,261.797 192.266,260.825 192.787 C 260.282 193.077,259.953 193.025,259.593 192.592 C 259.323 192.266,258.920 192.000,258.697 192.000 C 258.474 192.000,258.732 192.346,259.269 192.768 M199.726 193.796 C 199.461 194.083,199.363 194.729,199.504 195.255 C 199.734 196.115,199.783 196.074,200.048 194.803 C 200.386 193.180,200.362 193.105,199.726 193.796 M203.500 193.489 C 204.215 193.578,205.385 193.578,206.100 193.489 C 206.815 193.401,206.230 193.328,204.800 193.328 C 203.370 193.328,202.785 193.401,203.500 193.489 M216.105 193.487 C 216.714 193.579,217.614 193.577,218.105 193.482 C 218.597 193.387,218.100 193.311,217.000 193.314 C 215.900 193.317,215.497 193.395,216.105 193.487 M201.200 194.376 C 201.200 194.803,201.380 195.264,201.600 195.400 C 202.516 195.966,202.015 196.896,200.908 196.684 C 199.869 196.486,199.854 196.504,200.608 197.055 C 201.889 197.992,203.040 198.118,206.312 197.675 L 209.400 197.258 205.900 197.465 C 202.324 197.676,201.799 197.458,203.001 196.256 C 203.535 195.722,203.502 195.642,202.701 195.528 C 202.059 195.437,201.809 195.141,201.832 194.500 C 201.849 194.005,201.714 193.600,201.532 193.600 C 201.349 193.600,201.200 193.949,201.200 194.376 M208.400 193.970 C 208.933 194.352,208.933 194.448,208.400 194.830 C 207.867 195.213,207.867 195.243,208.400 195.097 C 208.730 195.007,209.000 194.693,209.000 194.400 C 209.000 194.107,208.730 193.793,208.400 193.703 C 207.867 193.557,207.867 193.587,208.400 193.970 M214.638 195.700 C 214.864 196.699,214.782 196.801,213.743 196.816 L 212.600 196.831 213.946 197.416 C 214.686 197.737,215.946 197.974,216.746 197.943 L 218.200 197.886 216.600 197.631 C 215.206 197.408,215.116 197.335,215.900 197.061 C 216.395 196.888,216.800 196.591,216.800 196.402 C 216.800 196.213,217.115 195.961,217.500 195.842 C 217.885 195.723,217.527 195.698,216.705 195.787 C 215.610 195.905,215.101 195.768,214.800 195.274 C 214.479 194.747,214.443 194.840,214.638 195.700 M221.023 196.222 C 220.655 196.783,219.959 197.402,219.477 197.596 C 218.905 197.827,218.819 197.958,219.230 197.975 C 219.821 197.998,221.126 196.827,221.764 195.700 C 222.288 194.775,221.699 195.190,221.023 196.222 M157.700 197.076 C 158.085 197.176,158.715 197.176,159.100 197.076 C 159.485 196.975,159.170 196.893,158.400 196.893 C 157.630 196.893,157.315 196.975,157.700 197.076 M182.617 197.172 C 182.344 197.614,182.975 198.092,183.344 197.722 C 183.725 197.342,183.654 196.800,183.224 196.800 C 183.017 196.800,182.744 196.968,182.617 197.172 M156.847 198.451 C 156.821 199.029,157.025 199.683,157.300 199.905 C 157.923 200.407,159.602 199.827,159.594 199.113 C 159.589 198.743,159.506 198.729,159.294 199.060 C 158.633 200.095,157.434 199.837,157.160 198.600 C 156.903 197.440,156.893 197.435,156.847 198.451 M240.162 199.300 C 239.406 200.193,239.407 200.195,240.200 199.541 C 240.640 199.179,241.360 198.795,241.800 198.688 C 242.569 198.500,242.568 198.491,241.762 198.446 C 241.301 198.421,240.581 198.805,240.162 199.300 M157.505 201.483 C 158.002 201.579,158.722 201.575,159.105 201.475 C 159.487 201.375,159.080 201.296,158.200 201.301 C 157.320 201.305,157.007 201.387,157.505 201.483 M142.645 203.528 C 142.533 203.708,142.973 203.777,143.621 203.682 C 144.270 203.587,144.800 203.440,144.800 203.355 C 144.800 203.050,142.843 203.207,142.645 203.528 M206.900 203.476 C 207.285 203.576,207.915 203.576,208.300 203.476 C 208.685 203.375,208.370 203.293,207.600 203.293 C 206.830 203.293,206.515 203.375,206.900 203.476 M220.998 203.604 C 220.861 203.826,220.869 204.388,221.017 204.854 C 221.180 205.366,221.087 205.823,220.781 206.011 C 220.465 206.207,220.640 206.300,221.253 206.262 C 221.876 206.223,222.229 205.959,222.229 205.529 C 222.229 205.160,222.042 204.889,221.814 204.929 C 221.586 204.968,221.414 204.595,221.432 204.100 C 221.467 203.107,221.372 202.998,220.998 203.604 M199.907 203.890 C 200.626 203.979,201.706 203.977,202.307 203.886 C 202.908 203.795,202.320 203.722,201.000 203.724 C 199.680 203.726,199.188 203.801,199.907 203.890 M228.937 203.915 C 228.684 204.072,229.617 204.197,231.012 204.193 C 232.406 204.190,233.633 204.100,233.739 203.993 C 234.051 203.679,229.441 203.604,228.937 203.915 M133.088 206.000 C 133.211 207.210,133.377 208.275,133.456 208.367 C 133.753 208.711,133.530 205.367,133.204 204.600 C 132.992 204.102,132.949 204.631,133.088 206.000 M145.152 205.113 C 145.021 205.907,145.079 206.281,145.301 206.059 C 145.503 205.857,145.601 205.267,145.519 204.746 C 145.393 203.945,145.337 204.002,145.152 205.113 M193.864 204.300 C 193.763 204.465,194.338 204.627,195.140 204.660 C 196.256 204.707,196.412 204.643,195.800 204.389 C 194.761 203.957,194.092 203.926,193.864 204.300 M224.307 204.690 C 225.026 204.779,226.106 204.777,226.707 204.686 C 227.308 204.595,226.720 204.522,225.400 204.524 C 224.080 204.526,223.588 204.601,224.307 204.690 M234.516 205.600 C 234.356 206.210,233.970 206.400,232.887 206.400 C 231.140 206.400,231.308 206.611,233.300 206.918 C 234.585 207.117,234.800 207.042,234.800 206.395 C 234.800 205.979,235.115 205.456,235.500 205.232 C 236.157 204.849,236.155 204.824,235.463 204.812 C 235.055 204.805,234.632 205.158,234.516 205.600 M188.924 207.800 C 188.926 209.120,189.001 209.612,189.090 208.893 C 189.179 208.174,189.177 207.094,189.086 206.493 C 188.995 205.892,188.922 206.480,188.924 207.800 M132.948 212.800 C 132.948 215.110,133.014 216.055,133.095 214.900 C 133.176 213.745,133.176 211.855,133.095 210.700 C 133.014 209.545,132.948 210.490,132.948 212.800 M188.901 212.200 C 188.905 213.080,188.987 213.393,189.083 212.895 C 189.179 212.398,189.175 211.678,189.075 211.295 C 188.975 210.913,188.896 211.320,188.901 212.200 M185.883 216.300 C 185.557 216.894,185.620 221.583,185.965 222.481 C 186.203 223.099,186.283 222.288,186.209 220.000 C 186.138 217.805,186.258 216.496,186.549 216.306 C 186.876 216.093,186.869 216.011,186.524 216.006 C 186.262 216.003,185.973 216.135,185.883 216.300 M184.093 218.000 C 184.093 218.770,184.175 219.085,184.276 218.700 C 184.376 218.315,184.376 217.685,184.276 217.300 C 184.175 216.915,184.093 217.230,184.093 218.000 M185.852 227.916 C 185.744 228.090,186.273 228.161,187.028 228.073 C 187.783 227.985,188.400 227.842,188.400 227.756 C 188.400 227.455,186.045 227.603,185.852 227.916 M204.647 227.886 C 204.489 228.044,202.884 228.286,201.080 228.425 L 197.800 228.676 200.400 228.732 C 201.830 228.763,203.810 228.533,204.800 228.221 C 205.790 227.909,206.225 227.641,205.767 227.627 C 205.308 227.612,204.804 227.729,204.647 227.886 M188.196 230.807 C 188.058 231.030,187.807 231.128,187.639 231.024 C 187.310 230.821,187.314 230.808,186.905 233.800 L 186.631 235.800 186.376 234.000 C 186.171 232.557,186.108 232.888,186.060 235.667 C 186.027 237.574,185.886 239.464,185.746 239.867 C 185.513 240.542,185.536 240.547,186.046 239.934 C 186.351 239.567,186.960 239.205,187.400 239.128 C 188.129 239.002,188.209 238.636,188.298 235.019 C 188.364 232.365,188.562 230.944,188.898 230.731 C 189.265 230.498,189.271 230.411,188.924 230.406 C 188.662 230.403,188.334 230.583,188.196 230.807 " stroke="none" fill="#8c8c8c" fill-rule="evenodd"></path><path id="path3" d="M204.445 182.214 C 203.124 184.453,204.102 186.834,206.493 187.200 C 207.299 187.323,207.800 187.630,207.800 188.000 C 207.800 188.511,206.553 188.616,199.400 188.707 C 191.293 188.810,190.977 188.844,190.337 189.688 C 189.344 190.998,187.783 190.165,187.205 188.018 C 186.670 186.031,186.205 185.968,185.600 187.799 C 184.710 190.496,185.509 190.400,163.935 190.400 C 150.400 190.400,144.366 190.532,144.180 190.832 C 144.033 191.070,143.887 192.822,143.856 194.726 C 143.812 197.459,143.674 198.210,143.200 198.293 C 141.872 198.527,141.655 197.881,141.942 194.541 C 142.267 190.758,141.275 188.800,139.033 188.800 C 138.423 188.800,137.402 188.429,136.764 187.974 C 136.019 187.444,135.139 187.194,134.302 187.274 L 133.000 187.400 133.080 196.000 C 133.123 200.730,133.131 207.300,133.097 210.600 C 133.063 213.900,133.027 217.500,133.017 218.600 L 133.000 220.600 136.411 220.600 C 138.858 220.600,140.024 220.430,140.538 220.000 C 143.232 217.744,147.084 213.585,147.898 212.054 C 148.431 211.051,149.521 209.615,150.319 208.862 C 151.117 208.109,152.002 207.067,152.285 206.546 C 153.565 204.193,153.877 203.729,154.929 202.615 L 156.048 201.431 167.305 201.550 C 177.683 201.660,178.638 201.729,179.535 202.435 C 180.100 202.879,181.136 203.200,182.008 203.200 C 183.152 203.200,183.658 203.429,184.140 204.164 C 184.683 204.994,184.995 205.098,186.382 204.912 C 188.886 204.576,189.200 205.075,189.200 209.389 C 189.200 213.839,188.743 215.361,187.215 215.994 C 186.084 216.462,186.083 216.468,186.211 219.775 C 186.317 222.513,186.203 223.312,185.554 224.380 C 184.392 226.290,183.574 225.470,184.071 222.895 C 184.272 221.853,184.327 220.229,184.192 219.286 C 183.862 216.981,184.532 215.153,186.017 214.310 L 187.231 213.619 187.116 210.152 C 186.963 205.590,184.893 204.121,183.918 207.883 C 183.745 208.552,183.332 209.324,183.002 209.599 C 182.597 209.934,182.399 210.836,182.398 212.349 C 182.396 213.635,182.122 215.114,181.758 215.800 C 180.751 217.695,180.749 221.200,181.753 222.320 C 182.314 222.946,182.581 223.799,182.589 224.984 C 182.603 227.239,184.262 228.823,185.766 228.018 C 186.378 227.691,187.704 227.609,189.837 227.767 C 203.890 228.807,207.582 228.364,208.000 225.590 C 208.251 223.928,209.070 223.607,209.588 224.967 C 210.041 226.161,210.712 226.310,211.081 225.300 C 211.221 224.915,211.666 224.171,212.068 223.646 C 212.471 223.121,212.800 222.201,212.800 221.600 C 212.800 220.999,213.160 220.050,213.600 219.491 C 214.040 218.931,214.400 218.014,214.400 217.451 C 214.400 216.838,214.720 216.257,215.200 216.000 C 215.684 215.741,216.010 215.143,216.027 214.486 C 216.041 213.889,216.585 212.500,217.236 211.400 C 217.886 210.300,218.710 208.729,219.066 207.909 C 219.423 207.089,220.060 206.308,220.481 206.174 C 221.086 205.982,221.196 205.692,221.001 204.803 C 220.670 203.300,221.235 203.000,224.400 203.000 C 226.870 203.000,227.007 202.950,227.138 202.000 C 227.401 200.101,227.737 200.000,233.787 200.000 C 238.968 200.000,239.541 199.929,240.200 199.200 C 240.889 198.439,241.432 198.400,251.438 198.400 C 257.221 198.400,262.039 198.261,262.144 198.091 C 262.702 197.188,261.777 193.400,260.999 193.400 C 260.559 193.400,259.696 193.059,259.081 192.641 C 258.039 191.935,257.426 191.902,250.257 192.163 C 243.688 192.401,242.271 192.347,240.639 191.793 C 239.587 191.435,238.510 191.226,238.246 191.327 C 237.982 191.428,237.425 191.261,237.007 190.956 C 236.433 190.536,234.668 190.400,229.786 190.400 C 223.832 190.400,223.267 190.337,222.600 189.600 C 222.202 189.160,221.375 188.800,220.762 188.800 C 219.242 188.800,218.944 188.124,219.979 187.023 C 220.709 186.245,220.823 185.715,220.720 183.552 L 220.600 181.000 212.945 180.892 L 205.289 180.783 204.445 182.214 M220.400 183.751 C 220.400 185.949,220.275 186.387,219.500 186.914 C 218.333 187.707,218.959 188.939,220.627 189.135 C 221.258 189.209,222.015 189.614,222.309 190.035 C 222.801 190.737,223.401 190.800,229.574 190.800 C 234.787 190.800,236.405 190.924,236.757 191.349 C 237.474 192.212,240.345 192.492,249.737 192.614 C 259.385 192.739,259.724 192.839,259.780 195.581 C 259.794 196.327,260.015 196.600,260.600 196.600 C 261.373 196.600,261.981 197.080,261.994 197.700 C 261.997 197.865,257.142 198.000,251.203 198.000 C 240.840 198.000,240.387 198.032,239.907 198.800 C 239.445 199.540,238.974 199.600,233.584 199.600 C 227.288 199.600,226.800 199.750,226.800 201.680 C 226.800 202.909,226.328 203.057,224.552 202.382 C 222.645 201.657,220.419 202.890,220.406 204.680 C 220.403 205.164,220.149 205.704,219.843 205.880 C 219.537 206.056,218.998 206.830,218.647 207.600 C 218.295 208.370,217.477 209.900,216.830 211.000 C 216.183 212.100,215.641 213.455,215.627 214.011 C 215.612 214.567,215.240 215.330,214.800 215.707 C 214.355 216.088,214.000 216.887,214.000 217.507 C 214.000 218.127,213.645 218.926,213.200 219.307 C 212.744 219.697,212.400 220.487,212.400 221.142 C 212.400 221.775,212.040 222.750,211.600 223.309 C 211.160 223.869,210.800 224.523,210.800 224.763 C 210.800 225.438,210.397 225.285,209.610 224.313 C 208.707 223.198,207.600 223.897,207.600 225.582 C 207.600 227.326,204.667 227.842,196.800 227.485 C 194.270 227.370,191.554 227.154,190.765 227.005 C 189.976 226.857,188.327 226.921,187.102 227.147 C 185.454 227.452,184.604 227.434,183.840 227.080 C 182.388 226.406,182.460 225.462,183.939 225.787 C 186.011 226.242,187.202 224.056,187.110 219.969 C 187.042 216.928,187.105 216.634,187.904 216.277 C 189.260 215.673,190.109 212.543,189.939 208.785 C 189.764 204.938,189.312 204.340,186.550 204.303 C 185.131 204.283,184.458 204.075,184.077 203.538 C 183.749 203.075,183.062 202.800,182.231 202.800 C 181.503 202.800,180.450 202.440,179.891 202.000 C 178.939 201.251,178.268 201.200,169.461 201.200 C 160.895 201.200,158.748 200.974,159.993 200.204 C 161.033 199.562,160.027 195.600,158.825 195.600 C 157.094 195.600,156.289 196.808,156.521 199.058 C 156.676 200.561,156.602 201.199,156.271 201.197 C 155.596 201.193,152.009 205.226,151.742 206.290 C 151.618 206.782,150.456 208.276,149.159 209.610 C 147.861 210.944,146.800 212.371,146.800 212.781 C 146.800 213.618,141.981 218.625,140.821 218.993 C 140.409 219.124,139.854 219.494,139.587 219.815 C 139.241 220.233,138.246 220.400,136.105 220.400 L 133.108 220.400 133.425 218.100 C 133.599 216.835,133.781 214.360,133.828 212.600 C 133.875 210.840,134.046 208.643,134.207 207.717 C 134.416 206.520,134.313 205.565,133.850 204.409 C 133.330 203.108,133.200 201.268,133.200 195.192 L 133.200 187.600 134.237 187.600 C 134.807 187.600,135.731 187.960,136.291 188.400 C 136.897 188.877,137.914 189.200,138.807 189.200 C 140.693 189.200,140.913 189.750,140.963 194.592 C 140.999 198.117,141.021 198.194,142.121 198.724 C 144.004 199.630,144.400 198.905,144.400 194.551 L 144.400 190.800 164.218 190.800 L 184.036 190.800 185.018 189.818 C 185.558 189.278,186.000 188.558,186.000 188.218 C 186.000 187.878,186.180 187.600,186.400 187.600 C 186.620 187.600,186.800 188.037,186.800 188.571 C 186.800 190.594,189.475 191.629,190.493 190.000 C 190.966 189.242,191.426 189.200,199.247 189.200 C 206.065 189.200,207.588 189.096,207.996 188.605 C 208.789 187.649,208.177 186.800,206.693 186.800 C 204.917 186.800,204.051 184.822,204.854 182.600 L 205.361 181.200 212.880 181.200 L 220.400 181.200 220.400 183.751 M215.880 187.453 C 215.381 187.952,215.583 189.488,216.217 190.014 C 217.063 190.716,217.698 190.010,217.531 188.552 C 217.406 187.460,216.486 186.847,215.880 187.453 M201.124 191.699 C 194.019 195.008,203.247 200.898,210.675 197.795 C 211.971 197.253,212.222 197.254,213.058 197.801 C 217.579 200.764,224.997 196.502,221.589 192.900 L 220.359 191.600 212.680 191.596 C 208.456 191.593,204.370 191.503,203.600 191.395 C 202.830 191.287,201.716 191.424,201.124 191.699 M221.125 193.184 C 223.678 196.637,218.767 199.450,213.805 197.376 C 212.627 196.884,211.921 196.836,210.456 197.151 C 206.472 198.005,202.622 198.135,201.317 197.461 C 199.847 196.700,198.943 194.632,199.708 193.777 C 199.979 193.475,200.432 192.952,200.716 192.614 C 201.153 192.094,202.683 192.000,210.741 192.000 L 220.250 192.000 221.125 193.184 M201.752 194.181 C 201.354 195.217,202.006 195.600,204.164 195.600 C 206.343 195.600,208.800 194.966,208.800 194.404 C 208.800 193.422,202.124 193.211,201.752 194.181 M214.605 193.992 C 213.999 194.972,215.174 195.953,216.701 195.742 C 219.692 195.327,221.201 194.393,219.767 193.843 C 218.749 193.452,214.870 193.564,214.605 193.992 M207.800 194.400 C 207.940 194.627,207.560 194.824,206.924 194.856 C 203.510 195.028,202.243 194.930,202.095 194.485 C 201.893 193.878,207.426 193.795,207.800 194.400 M219.200 194.375 C 219.200 194.837,215.821 195.384,215.228 195.018 C 214.237 194.405,214.942 194.000,217.000 194.000 C 218.210 194.000,219.200 194.169,219.200 194.375 M147.078 195.504 C 146.120 195.720,146.433 196.566,147.531 196.728 C 148.096 196.811,148.400 196.644,148.400 196.251 C 148.400 195.507,148.019 195.291,147.078 195.504 M182.300 196.100 C 181.715 196.981,181.558 196.998,174.514 196.938 C 170.560 196.904,167.073 197.031,166.766 197.221 C 165.781 197.830,166.910 198.398,169.423 198.558 C 170.730 198.642,173.751 198.931,176.135 199.200 C 179.183 199.544,180.596 199.564,180.894 199.266 C 181.126 199.034,181.817 198.943,182.428 199.066 C 183.580 199.296,185.594 196.562,184.992 195.586 C 184.551 194.873,182.906 195.187,182.300 196.100 M159.600 198.213 C 159.600 199.755,158.300 200.711,157.300 199.905 C 156.107 198.943,156.895 196.800,158.443 196.800 C 159.501 196.800,159.600 196.921,159.600 198.213 M183.600 197.133 C 183.600 197.654,183.124 198.001,182.738 197.761 C 182.324 197.506,182.681 196.800,183.224 196.800 C 183.431 196.800,183.600 196.950,183.600 197.133 M142.480 203.280 C 142.216 203.544,142.000 204.228,142.000 204.800 C 142.000 205.372,142.216 206.056,142.480 206.320 C 142.744 206.584,143.428 206.800,144.000 206.800 C 144.572 206.800,145.256 206.584,145.520 206.320 C 145.784 206.056,146.000 205.372,146.000 204.800 C 146.000 204.228,145.784 203.544,145.520 203.280 C 145.256 203.016,144.572 202.800,144.000 202.800 C 143.428 202.800,142.744 203.016,142.480 203.280 M198.348 203.748 C 197.631 204.517,197.546 204.522,196.187 203.874 C 194.270 202.960,194.239 202.969,192.835 204.879 L 191.600 206.558 191.604 214.979 L 191.609 223.400 192.947 224.700 L 194.285 226.000 199.243 225.996 L 204.200 225.991 205.447 224.696 C 206.134 223.983,206.816 223.011,206.963 222.536 C 207.110 222.061,207.494 221.454,207.815 221.187 C 208.137 220.920,208.400 220.137,208.400 219.447 C 208.400 218.626,208.676 218.020,209.200 217.693 C 209.719 217.369,210.000 216.760,210.000 215.960 C 210.000 215.281,210.360 214.269,210.800 213.709 C 211.240 213.150,211.600 212.130,211.600 211.442 C 211.600 210.626,211.877 210.019,212.400 209.693 C 213.502 209.005,213.581 204.917,212.500 204.514 C 212.115 204.370,211.561 203.920,211.268 203.513 C 210.439 202.361,199.454 202.561,198.348 203.748 M145.182 203.778 C 146.149 204.944,145.537 206.200,144.000 206.200 C 142.559 206.200,141.991 205.244,142.556 203.771 C 142.840 203.030,144.564 203.034,145.182 203.778 M211.631 204.369 C 213.115 205.854,213.330 208.888,212.000 209.600 C 211.503 209.866,211.199 210.439,211.197 211.114 C 211.196 211.711,210.837 212.740,210.400 213.400 C 209.963 214.060,209.604 215.179,209.603 215.886 C 209.601 216.761,209.344 217.309,208.800 217.600 C 208.320 217.857,208.000 218.438,208.000 219.051 C 208.000 219.614,207.640 220.531,207.200 221.091 C 206.760 221.650,206.400 222.367,206.400 222.685 C 206.400 225.727,195.850 227.111,193.160 224.422 L 191.982 223.243 192.041 215.122 C 192.106 206.123,192.794 203.557,194.973 204.182 C 197.247 204.834,197.896 204.847,198.490 204.252 C 198.941 203.802,200.142 203.595,202.856 203.499 C 204.915 203.426,207.469 203.329,208.531 203.283 C 210.190 203.212,210.626 203.365,211.631 204.369 M234.400 203.677 C 233.850 203.922,232.320 204.177,231.000 204.245 C 225.061 204.550,222.200 204.990,222.200 205.600 C 222.200 206.659,234.230 206.693,234.507 205.635 C 234.664 205.034,235.121 204.821,236.456 204.725 C 237.684 204.637,238.200 204.422,238.200 204.000 C 238.200 203.247,235.820 203.044,234.400 203.677 M238.000 204.000 C 238.000 204.220,237.370 204.400,236.600 204.400 C 235.830 204.400,235.200 204.220,235.200 204.000 C 235.200 203.780,235.830 203.600,236.600 203.600 C 237.370 203.600,238.000 203.780,238.000 204.000 M214.667 204.267 C 214.248 204.685,214.355 205.925,214.835 206.222 C 215.505 206.635,216.111 205.779,215.813 204.840 C 215.541 203.985,215.146 203.787,214.667 204.267 M232.967 205.043 C 234.657 205.691,233.118 206.000,228.200 206.000 C 222.473 206.000,220.640 205.338,225.700 205.097 C 231.712 204.811,232.350 204.806,232.967 205.043 M186.800 210.013 L 186.800 213.227 185.443 214.028 C 183.787 215.005,183.612 215.602,183.605 220.300 C 183.602 222.496,183.437 224.000,183.200 224.000 C 182.980 224.000,182.800 223.743,182.800 223.429 C 182.800 223.114,182.497 222.554,182.126 222.183 C 181.307 221.364,181.369 218.006,182.234 216.334 C 182.547 215.729,182.800 214.108,182.800 212.709 C 182.800 210.673,182.956 210.044,183.600 209.493 C 184.040 209.116,184.400 208.356,184.400 207.804 C 184.400 206.955,184.585 206.800,185.600 206.800 L 186.800 206.800 186.800 210.013 M188.898 230.721 C 188.563 230.940,188.363 232.373,188.298 235.025 C 188.205 238.810,188.157 239.006,187.299 239.128 C 186.255 239.276,185.330 240.690,185.903 241.263 C 186.110 241.470,187.521 241.585,189.040 241.520 L 191.800 241.400 191.800 236.000 L 191.800 230.600 190.600 230.496 C 189.940 230.438,189.174 230.540,188.898 230.721 M186.142 232.009 C 186.284 232.719,186.424 233.863,186.453 234.550 C 186.497 235.559,186.561 235.453,186.789 234.000 C 186.944 233.010,187.145 231.941,187.236 231.624 C 187.329 231.297,187.071 230.976,186.642 230.883 C 185.982 230.740,185.917 230.887,186.142 232.009 M191.600 236.000 L 191.600 241.200 189.024 241.200 C 187.607 241.200,186.336 241.020,186.200 240.800 C 186.062 240.577,186.369 240.400,186.896 240.400 C 188.538 240.400,188.800 239.709,188.800 235.387 C 188.800 230.914,188.842 230.800,190.467 230.800 L 191.600 230.800 191.600 236.000 " stroke="none" fill="#747474" fill-rule="evenodd"></path><path id="path4" d="M204.400 180.731 C 204.400 180.921,204.040 181.493,203.600 182.000 C 202.004 183.840,203.683 187.600,206.100 187.600 C 206.705 187.600,207.200 187.780,207.200 188.000 C 207.200 188.254,204.129 188.400,198.787 188.400 C 191.679 188.400,190.339 188.493,190.145 189.000 C 189.845 189.781,189.240 189.760,188.331 188.938 C 187.531 188.214,187.303 188.743,188.080 189.520 C 188.740 190.180,189.892 190.122,190.291 189.408 C 190.564 188.921,192.103 188.798,199.011 188.708 C 206.153 188.616,207.400 188.511,207.400 188.000 C 207.400 187.626,206.947 187.356,206.197 187.282 C 204.054 187.071,203.013 184.295,204.210 181.980 L 204.821 180.800 212.810 180.800 L 220.800 180.800 220.800 183.669 C 220.800 185.735,220.621 186.734,220.161 187.243 C 219.322 188.170,219.758 188.800,221.236 188.800 C 221.924 188.800,222.522 189.053,222.655 189.400 C 222.782 189.730,223.161 190.000,223.497 190.000 C 223.910 190.000,223.778 189.740,223.091 189.200 C 222.531 188.760,221.607 188.400,221.037 188.400 C 219.898 188.400,219.643 187.823,220.616 187.449 C 221.116 187.257,221.211 186.589,221.116 183.906 L 221.000 180.600 212.700 180.492 C 208.135 180.432,204.400 180.540,204.400 180.731 M185.680 185.680 C 185.416 185.944,185.200 186.540,185.200 187.005 C 185.200 187.470,184.701 188.328,184.092 188.912 L 182.984 189.974 162.393 190.015 C 141.993 190.055,141.797 190.048,141.252 189.228 C 140.920 188.728,140.271 188.400,139.612 188.400 C 139.013 188.400,138.098 188.032,137.579 187.582 C 136.493 186.640,132.745 186.586,132.561 187.510 C 132.506 187.791,132.552 187.836,132.663 187.610 C 133.009 186.914,135.911 187.157,137.290 187.999 C 138.011 188.438,139.095 188.798,139.700 188.799 C 140.305 188.799,140.800 188.981,140.800 189.203 C 140.800 189.424,141.237 189.986,141.772 190.450 C 142.573 191.147,142.678 191.468,142.370 192.279 C 142.164 192.820,142.025 194.030,142.060 194.969 C 142.096 195.907,142.002 196.873,141.851 197.117 C 141.701 197.361,141.915 197.740,142.328 197.961 C 143.498 198.588,144.008 197.717,143.933 195.220 L 143.866 193.000 143.633 195.308 C 143.505 196.577,143.234 197.611,143.030 197.605 C 142.583 197.592,142.730 192.693,143.186 192.404 C 143.363 192.292,143.576 191.840,143.659 191.400 C 143.808 190.616,144.208 190.596,163.664 190.400 C 185.761 190.177,184.786 190.310,185.531 187.433 C 185.917 185.947,186.858 185.819,187.242 187.200 L 187.520 188.200 187.560 187.180 C 187.597 186.246,186.984 185.200,186.400 185.200 C 186.268 185.200,185.944 185.416,185.680 185.680 M132.093 189.600 C 132.093 190.370,132.175 190.685,132.276 190.300 C 132.376 189.915,132.376 189.285,132.276 188.900 C 132.175 188.515,132.093 188.830,132.093 189.600 M230.600 190.287 C 233.900 190.354,236.870 190.524,237.200 190.665 C 237.530 190.807,238.114 190.884,238.497 190.837 C 238.881 190.789,239.596 191.032,240.086 191.375 C 240.831 191.897,242.473 192.000,250.040 192.000 C 257.550 192.000,259.186 192.101,259.593 192.592 C 259.953 193.025,260.282 193.077,260.825 192.787 C 261.865 192.230,262.400 193.379,262.400 196.167 L 262.400 198.386 252.400 198.504 L 242.400 198.621 252.500 198.611 L 262.600 198.600 262.703 195.800 C 262.859 191.542,263.613 191.820,251.515 191.665 C 241.970 191.543,240.926 191.462,240.200 190.794 C 239.478 190.129,238.677 190.062,232.000 190.112 C 224.682 190.167,224.666 190.169,230.600 190.287 M132.495 206.028 L 132.600 221.000 136.419 221.114 L 140.239 221.227 143.919 217.657 C 145.944 215.693,147.600 213.954,147.600 213.791 C 147.600 213.628,146.364 214.733,144.854 216.247 C 140.401 220.712,140.135 220.851,136.294 220.716 L 133.000 220.600 132.917 206.050 C 132.871 198.048,132.734 191.401,132.612 191.279 C 132.490 191.157,132.437 197.794,132.495 206.028 M201.322 192.404 C 199.679 193.066,199.565 196.800,201.187 196.800 C 202.025 196.800,202.309 195.838,201.600 195.400 C 200.981 195.017,201.128 193.600,201.787 193.600 C 202.145 193.600,202.285 193.365,202.145 193.000 C 201.997 192.615,202.153 192.400,202.581 192.400 C 202.947 192.400,203.136 192.580,203.000 192.800 C 202.847 193.047,203.556 193.200,204.856 193.200 C 206.082 193.200,206.801 193.054,206.580 192.850 C 206.002 192.317,202.315 192.004,201.322 192.404 M209.400 192.481 C 210.500 192.665,212.064 192.722,212.876 192.607 C 214.305 192.405,215.235 192.884,214.407 193.396 C 214.183 193.534,214.000 194.267,214.000 195.024 L 214.000 196.400 210.500 196.367 C 207.157 196.336,207.057 196.310,208.269 195.779 C 210.462 194.818,210.319 193.154,208.051 193.240 L 207.000 193.280 208.000 193.558 C 210.319 194.203,207.225 196.333,204.756 195.790 C 204.062 195.638,203.476 195.781,203.049 196.208 C 201.846 197.411,202.270 197.728,204.743 197.469 C 206.032 197.334,208.820 197.102,210.939 196.953 L 214.791 196.683 214.547 195.161 C 214.255 193.335,215.132 192.929,218.421 193.365 C 220.047 193.581,220.400 193.518,220.400 193.014 C 220.400 192.676,220.085 192.393,219.700 192.384 C 209.893 192.159,207.609 192.180,209.400 192.481 M220.679 194.538 C 220.566 194.834,219.646 195.307,218.636 195.590 C 217.626 195.873,216.800 196.233,216.800 196.391 C 216.800 196.549,216.395 196.873,215.900 197.112 C 214.981 197.555,216.636 197.849,219.000 197.664 C 219.865 197.596,222.000 195.355,222.000 194.515 C 222.000 193.833,220.943 193.851,220.679 194.538 M201.200 195.800 C 201.200 196.130,201.020 196.400,200.800 196.400 C 200.580 196.400,200.400 196.130,200.400 195.800 C 200.400 195.470,200.580 195.200,200.800 195.200 C 201.020 195.200,201.200 195.470,201.200 195.800 M157.275 198.500 C 157.376 199.550,157.554 199.773,158.200 199.660 C 160.019 199.342,160.171 197.200,158.375 197.200 C 157.233 197.200,157.158 197.289,157.275 198.500 M240.409 199.389 C 240.035 199.839,238.689 200.006,234.660 200.101 L 229.400 200.225 234.880 200.313 C 239.135 200.380,240.432 200.279,240.680 199.859 C 240.856 199.561,241.270 199.215,241.600 199.090 C 242.103 198.900,242.095 198.858,241.549 198.832 C 241.191 198.814,240.678 199.065,240.409 199.389 M227.606 201.100 C 227.610 201.532,227.725 201.631,227.906 201.360 C 228.068 201.118,228.470 200.817,228.800 200.692 C 229.201 200.539,229.101 200.453,228.500 200.432 C 227.895 200.410,227.602 200.630,227.606 201.100 M155.024 202.843 C 154.379 203.526,153.426 204.886,152.905 205.863 C 152.385 206.841,151.314 208.249,150.526 208.992 C 149.047 210.387,147.607 212.336,147.603 212.949 C 147.598 213.555,148.757 212.366,149.040 211.474 C 149.189 211.005,150.051 209.876,150.955 208.966 C 153.046 206.861,154.000 205.584,154.000 204.888 C 154.000 204.586,154.526 203.812,155.169 203.169 L 156.338 202.000 167.355 202.000 C 177.962 202.000,178.388 202.030,178.800 202.800 C 179.140 203.436,179.638 203.600,181.224 203.600 C 183.420 203.600,184.192 204.483,183.724 206.457 C 183.514 207.340,183.536 207.354,184.070 206.666 C 184.451 206.174,185.030 205.976,185.820 206.066 L 187.000 206.200 187.114 210.078 C 187.223 213.766,187.184 213.981,186.314 214.444 C 185.811 214.712,185.181 215.216,184.913 215.565 C 184.311 216.350,184.204 222.968,184.800 222.600 C 185.026 222.460,185.200 222.788,185.200 223.353 C 185.200 224.550,184.527 225.106,184.289 224.106 C 184.150 223.520,184.128 223.531,184.161 224.169 C 184.182 224.591,184.394 225.001,184.631 225.079 C 185.451 225.348,185.871 223.386,185.745 219.876 L 185.619 216.352 186.838 215.927 C 188.495 215.349,188.872 214.130,188.845 209.445 C 188.819 204.825,188.935 205.033,186.453 205.146 C 184.768 205.223,184.427 205.101,183.848 204.217 C 183.307 203.391,182.861 203.200,181.480 203.200 C 180.273 203.200,179.579 202.967,179.093 202.400 C 178.438 201.636,177.913 201.600,167.303 201.600 L 156.197 201.600 155.024 202.843 M227.246 202.500 C 227.196 203.267,227.242 203.256,223.800 203.341 C 221.686 203.393,221.400 203.495,221.400 204.200 C 221.400 204.714,221.614 204.944,222.000 204.843 C 222.783 204.638,228.395 204.000,231.200 203.797 C 232.410 203.709,234.525 203.518,235.900 203.371 C 238.264 203.118,238.400 203.150,238.400 203.952 C 238.400 204.596,238.153 204.800,237.374 204.800 C 235.927 204.800,234.800 205.496,234.800 206.389 C 234.800 207.039,234.581 207.119,233.300 206.939 L 231.800 206.729 232.946 207.365 C 234.616 208.291,235.137 208.156,235.513 206.700 C 235.793 205.613,236.074 205.367,237.224 205.200 C 238.372 205.033,238.600 204.834,238.600 204.000 L 238.600 203.000 233.117 203.035 C 228.428 203.065,227.609 202.978,227.463 202.435 C 227.322 201.909,227.285 201.920,227.246 202.500 M209.374 203.490 C 211.871 204.126,213.461 208.204,211.600 209.200 C 211.091 209.472,210.800 210.038,210.800 210.752 C 210.800 211.370,210.440 212.202,210.000 212.600 C 209.436 213.111,209.200 213.832,209.200 215.048 C 209.200 216.362,209.010 216.874,208.400 217.200 C 207.891 217.472,207.600 218.038,207.600 218.752 C 207.600 219.370,207.240 220.202,206.800 220.600 C 206.360 220.998,206.000 221.670,206.000 222.093 C 206.000 224.286,203.989 225.200,199.166 225.200 L 194.671 225.200 193.536 223.928 C 192.911 223.228,192.400 222.794,192.400 222.964 C 192.400 224.742,194.598 225.600,199.156 225.600 L 203.715 225.600 205.053 224.300 C 205.789 223.585,206.393 222.635,206.396 222.189 C 206.398 221.743,206.760 221.070,207.200 220.693 C 207.643 220.314,208.000 219.513,208.000 218.900 C 208.000 218.226,208.313 217.597,208.800 217.293 C 209.358 216.944,209.600 216.360,209.600 215.360 C 209.600 214.532,209.938 213.496,210.400 212.909 C 210.840 212.350,211.200 211.420,211.200 210.842 C 211.200 210.226,211.530 209.586,212.000 209.293 C 213.926 208.090,211.790 203.125,209.400 203.251 C 208.630 203.291,208.629 203.300,209.374 203.490 M142.524 204.254 C 142.035 205.529,143.914 207.046,144.838 206.122 C 145.042 205.918,144.728 205.776,144.095 205.785 C 143.160 205.798,143.002 205.640,143.016 204.700 C 143.034 203.445,142.886 203.311,142.524 204.254 M144.075 203.871 C 144.447 203.969,144.831 204.353,144.929 204.725 C 145.055 205.203,145.121 205.138,145.154 204.500 C 145.189 203.807,144.993 203.611,144.300 203.646 C 143.662 203.679,143.597 203.745,144.075 203.871 M201.400 203.881 C 200.300 203.956,199.004 204.219,198.520 204.466 C 198.011 204.725,196.891 204.812,195.865 204.671 C 193.953 204.409,191.940 206.277,192.040 208.222 C 192.078 208.975,192.088 208.974,192.340 208.200 C 192.804 206.773,194.477 204.855,195.063 205.079 C 195.715 205.330,205.142 204.502,207.200 204.014 C 208.712 203.655,205.715 203.586,201.400 203.881 M223.600 204.000 C 222.814 204.508,221.600 204.508,221.600 204.000 C 221.600 203.780,222.185 203.603,222.900 203.606 C 223.886 203.611,224.055 203.706,223.600 204.000 M188.400 209.800 C 188.400 215.470,187.684 215.612,187.525 209.973 C 187.456 207.529,187.470 205.461,187.556 205.376 C 188.134 204.803,188.400 206.196,188.400 209.800 M220.385 206.483 C 219.966 206.638,219.503 207.268,219.356 207.883 C 219.208 208.497,218.753 209.322,218.344 209.716 C 217.935 210.109,217.600 210.711,217.600 211.052 C 217.600 211.394,217.240 212.131,216.800 212.691 C 216.360 213.250,216.000 214.106,216.000 214.592 C 216.000 215.078,215.640 215.802,215.200 216.200 C 214.760 216.598,214.400 217.414,214.400 218.013 C 214.400 218.612,214.130 219.326,213.800 219.600 C 213.470 219.874,213.200 220.370,213.200 220.703 C 213.200 221.106,213.468 220.968,214.000 220.291 C 214.440 219.731,214.800 218.724,214.800 218.051 C 214.800 217.238,215.068 216.685,215.600 216.400 C 216.109 216.128,216.400 215.562,216.400 214.848 C 216.400 214.230,216.760 213.398,217.200 213.000 C 217.640 212.602,218.000 211.876,218.000 211.387 C 218.000 210.898,218.280 210.265,218.623 209.981 C 218.966 209.696,219.497 208.864,219.803 208.132 L 220.359 206.800 226.080 206.736 C 232.240 206.667,231.904 206.490,225.273 206.311 C 223.003 206.250,220.804 206.327,220.385 206.483 M182.700 208.612 C 182.210 209.269,182.022 210.187,182.072 211.675 L 182.144 213.800 182.298 211.803 C 182.383 210.704,182.729 209.500,183.067 209.126 C 183.405 208.752,183.619 208.273,183.541 208.060 C 183.463 207.848,183.085 208.096,182.700 208.612 M192.476 211.133 C 192.503 213.032,192.572 213.199,193.108 212.663 C 193.644 212.127,193.641 211.894,193.078 210.531 L 192.447 209.000 192.476 211.133 M192.150 217.800 C 192.151 220.220,192.216 221.158,192.296 219.885 C 192.376 218.612,192.375 216.632,192.294 215.485 C 192.214 214.338,192.149 215.380,192.150 217.800 M181.100 215.133 C 180.033 216.947,180.102 222.212,181.200 222.800 C 181.820 223.132,182.000 223.638,182.000 225.045 C 182.000 228.101,183.638 229.381,186.900 228.875 C 188.518 228.624,190.247 228.624,191.800 228.877 C 193.120 229.091,197.023 229.200,200.474 229.119 C 207.584 228.951,208.400 228.645,208.400 226.138 C 208.400 224.475,209.017 224.384,209.340 226.000 C 209.678 227.691,211.124 227.681,211.463 225.986 C 211.596 225.318,212.042 224.592,212.453 224.372 C 212.967 224.097,213.183 223.570,213.146 222.686 C 213.100 221.606,213.063 221.560,212.917 222.400 C 212.822 222.950,212.493 223.595,212.187 223.833 C 211.882 224.071,211.449 224.746,211.226 225.333 C 210.713 226.681,210.092 226.695,209.588 225.367 C 209.068 224.000,208.249 224.331,208.000 226.009 C 207.623 228.548,199.247 229.589,191.657 228.041 C 189.490 227.600,186.816 227.793,185.462 228.489 C 184.903 228.777,184.535 228.666,183.946 228.034 C 183.519 227.576,182.996 227.200,182.784 227.200 C 182.573 227.200,182.400 226.328,182.400 225.262 C 182.400 223.832,182.190 223.134,181.600 222.600 C 180.571 221.669,180.460 217.464,181.428 216.082 C 181.773 215.589,181.998 214.905,181.928 214.563 C 181.838 214.129,181.589 214.300,181.100 215.133 M185.609 230.589 C 185.333 230.922,185.217 233.044,185.288 236.455 L 185.400 241.800 188.800 241.800 L 192.200 241.800 192.200 236.000 L 192.200 230.200 191.000 230.142 C 189.860 230.087,189.855 230.093,190.900 230.269 L 192.000 230.453 192.000 236.043 L 192.000 241.634 188.929 241.517 L 185.858 241.400 185.882 236.080 C 185.908 230.356,185.954 230.146,187.066 230.703 C 187.549 230.946,188.128 230.900,188.760 230.569 C 189.657 230.100,189.599 230.067,187.881 230.067 C 186.857 230.067,185.851 230.298,185.609 230.589 " stroke="none" fill="#acacac" fill-rule="evenodd"></path></g></svg>