<?xml version="1.0" encoding="UTF-8" standalone="no"?>
<!-- Created with Inkscape (http://www.inkscape.org/) -->

<svg
   xmlns:dc="http://purl.org/dc/elements/1.1/"
   xmlns:cc="http://creativecommons.org/ns#"
   xmlns:rdf="http://www.w3.org/1999/02/22-rdf-syntax-ns#"
   xmlns:svg="http://www.w3.org/2000/svg"
   xmlns="http://www.w3.org/2000/svg"
   xmlns:sodipodi="http://sodipodi.sourceforge.net/DTD/sodipodi-0.dtd"
   xmlns:inkscape="http://www.inkscape.org/namespaces/inkscape"
   width="76.614479mm"
   height="12.277657mm"
   viewBox="0 0 76.614479 12.277657"
   version="1.1"
   id="svg279"
   inkscape:version="0.92.4 (5da689c313, 2019-01-14)"
   sodipodi:docname="Supers.svg">
  <defs
     id="defs273" />
  <sodipodi:namedview
     id="base"
     pagecolor="#ffffff"
     bordercolor="#666666"
     borderopacity="1.0"
     inkscape:pageopacity="0.0"
     inkscape:pageshadow="2"
     inkscape:zoom="1.979899"
     inkscape:cx="107.35396"
     inkscape:cy="-30.946684"
     inkscape:document-units="mm"
     inkscape:current-layer="layer1"
     showgrid="false"
     inkscape:window-width="1024"
     inkscape:window-height="664"
     inkscape:window-x="-8"
     inkscape:window-y="-8"
     inkscape:window-maximized="1" />
  <metadata
     id="metadata276">
    <rdf:RDF>
      <cc:Work
         rdf:about="">
        <dc:format>image/svg+xml</dc:format>
        <dc:type
           rdf:resource="http://purl.org/dc/dcmitype/StillImage" />
        <dc:title></dc:title>
      </cc:Work>
    </rdf:RDF>
  </metadata>
  <g
     inkscape:label="Layer 1"
     inkscape:groupmode="layer"
     id="layer1"
     transform="translate(-24.904473,-154.92337)">
    <g
       id="svgg-53"
       transform="matrix(0.26458333,0,0,0.26458333,10.774927,108.65177)">
      <path
         d="m 68.443,188.557 -10.952,10.957 10.837,10.843 c 5.96,5.964 11.07,10.842 11.354,10.84 0.59,-0.003 22.173,-21.463 21.898,-21.773 -1.278,-1.435 -21.79,-21.824 -21.957,-21.824 -0.126,0 -5.157,4.931 -11.18,10.957 m 155.766,-10.166 c -0.394,0.434 -0.917,0.676 -1.162,0.535 -0.246,-0.14 -0.306,-0.099 -0.133,0.091 0.402,0.441 -12.129,13.021 -12.649,12.699 -0.214,-0.132 -0.28,-0.064 -0.147,0.152 0.133,0.215 -1.189,1.813 -2.938,3.552 -1.749,1.739 -3.191,2.985 -3.205,2.771 -0.014,-0.215 -0.195,0.032 -0.402,0.549 -0.38,0.947 20.349,22.46 21.641,22.46 0.532,0 22.212,-21.502 21.956,-21.776 -2.29,-2.45 -21.812,-21.824 -21.991,-21.824 -0.14,0 -0.577,0.356 -0.97,0.791 m 1.843,6.502 c 0.271,4.108 0.551,5.064 1.273,4.342 0.612,-0.612 2.382,-0.559 2.178,0.065 -0.09,0.275 -0.881,0.984 -1.758,1.575 l -1.593,1.076 -0.092,7.324 c -0.05,4.029 -0.194,7.908 -0.319,8.621 -0.628,3.567 4.747,0.464 5.627,-3.248 0.413,-1.74 -1.506,-7.848 -2.466,-7.848 -0.276,0 -0.502,-0.27 -0.502,-0.6 0,-0.33 0.327,-0.6 0.726,-0.6 0.823,0 2.074,2.285 2.074,3.79 0,0.53 0.18,1.074 0.4,1.21 0.22,0.136 0.4,0.687 0.4,1.224 0,0.537 0.163,0.976 0.362,0.976 0.2,0 0.335,-1.162 0.3,-2.583 -0.068,-2.832 0.967,-4.918 1.583,-3.188 0.151,0.424 0.649,1.187 1.107,1.695 1.59,1.765 0.159,7.085 -1.823,6.779 -0.628,-0.096 -1.707,1.098 -3.429,3.794 -0.385,0.604 -0.99,1.099 -1.344,1.1 -0.354,0.002 -1.329,0.468 -2.166,1.036 -1.236,0.838 -1.581,0.927 -1.836,0.47 -0.173,-0.309 -1.024,-0.796 -1.891,-1.082 -1.605,-0.53 -4.104,-3.06 -4.616,-4.673 -0.189,-0.594 -0.521,-0.787 -1.156,-0.673 -1.327,0.239 -2.691,-1.991 -2.691,-4.4 0,-1.031 0.141,-1.875 0.314,-1.875 0.172,0 0.632,-0.54 1.022,-1.2 0.919,-1.555 1.323,-1.513 2.044,0.213 0.424,1.016 0.482,1.698 0.205,2.426 -0.528,1.39 -0.517,3.384 0.015,2.561 0.213,-0.33 0.391,-1.005 0.394,-1.5 0.003,-0.495 0.143,-0.9 0.311,-0.9 0.168,0 0.526,-0.929 0.796,-2.064 0.543,-2.288 1.479,-3.595 2.337,-3.266 0.793,0.304 0.698,0.969 -0.172,1.197 -2.097,0.548 -3.154,8.155 -1.445,10.396 2.092,2.742 4.87,3.264 4.434,0.833 -0.127,-0.713 -0.263,-4.637 -0.301,-8.72 l -0.069,-7.424 -1.542,-0.888 c -0.849,-0.488 -1.543,-1.153 -1.543,-1.476 0,-0.701 1.247,-0.781 1.907,-0.121 0.356,0.356 0.525,0.284 0.712,-0.3 0.136,-0.422 0.386,-1.127 0.558,-1.567 0.171,-0.44 0.255,-1.79 0.185,-3 -0.146,-2.547 0.111,-3.708 0.772,-3.49 0.287,0.095 0.563,1.628 0.718,3.983 m -142.308,3.12 c 11.035,4.129 9.864,19.734 -1.711,22.788 -4.248,1.12 -9.767,-2.253 -10.31,-6.302 -0.228,-1.698 0.445,-2.661 1.152,-1.65 0.298,0.426 0.432,0.438 0.589,0.051 0.111,-0.275 0.782,-0.5 1.49,-0.5 1.575,0 3.439,-0.818 3.443,-1.511 0.002,-0.281 1.545,-1.227 3.43,-2.101 3.098,-1.438 3.4,-1.677 3.157,-2.489 -0.529,-1.765 -1.19,-2.09 -2.45,-1.207 -1.438,1.008 -4.878,2.28 -7.789,2.881 -1.241,0.256 -2.539,0.778 -2.885,1.161 -0.792,0.874 -1.898,3.486 -1.762,4.159 0.062,0.308 -0.409,0.556 -1.198,0.632 -1.279,0.124 -1.779,-0.434 -0.8,-0.893 0.275,-0.129 -0.67,-0.139 -2.1,-0.023 l -2.6,0.211 1,-0.801 c 0.55,-0.441 1.246,-0.805 1.547,-0.81 0.348,-0.006 0.47,-0.299 0.337,-0.808 -0.262,-1.002 0.74,-4.908 1.74,-6.784 2.978,-5.586 9.835,-8.205 15.72,-6.004 m -8.544,2.56 c -0.55,0.329 -0.836,0.605 -0.635,0.613 0.201,0.008 -0.633,0.729 -1.853,1.602 -2.632,1.885 -3.847,4.009 -1.301,2.275 3.108,-2.117 5.741,-3.177 8.589,-3.457 1.65,-0.162 2.7,-0.319 2.333,-0.35 -0.366,-0.031 -0.727,-0.239 -0.802,-0.462 -0.24,-0.721 -5.206,-0.894 -6.331,-0.221 m 7.5,-0.308 c 0.275,0.111 0.5,0.344 0.5,0.518 0,0.174 0.647,1.014 1.437,1.867 0.791,0.852 1.633,2 1.872,2.55 0.422,0.972 0.438,0.976 0.586,0.131 0.268,-1.53 -3.053,-5.423 -4.52,-5.299 -0.206,0.017 -0.15,0.122 0.125,0.233 m 5.895,7.475 c -0.223,0.253 -0.616,0.91 -0.873,1.46 -0.257,0.55 -0.48,0.74 -0.495,0.422 -0.015,-0.318 -0.549,0.245 -1.187,1.251 -1.593,2.511 -4.323,3.815 -8.74,4.174 -3.667,0.298 -4.141,0.78 -2,2.037 2.686,1.576 4.768,1.875 7.359,1.058 L 85,207.404 82.6,207.28 c -2.784,-0.144 -4.054,-0.88 -1.518,-0.88 3.187,0 6.572,-2.727 7.726,-6.225 0.536,-1.624 0.404,-3.136 -0.213,-2.435 m 144.66,11.751 c -1.155,2.289 -2.829,4.35 -2.199,2.708 0.177,-0.462 0.025,-0.897 -0.429,-1.228 -0.659,-0.483 -0.646,-0.559 0.211,-1.243 0.502,-0.4 1.461,-1.323 2.13,-2.05 1.627,-1.766 1.739,-1.063 0.287,1.813 m -14.674,-0.837 c 1.715,1.578 1.89,1.874 1.3,2.204 -0.374,0.21 -0.681,0.679 -0.681,1.042 0,0.953 -0.552,0.271 -1.973,-2.441 -1.779,-3.393 -1.585,-3.509 1.354,-0.805 m 3.849,3.981 0.97,1.035 -1.2,-0.135 c -0.889,-0.1 -1.233,-0.369 -1.328,-1.035 -0.168,-1.185 0.365,-1.138 1.558,0.135 m 7.098,-0.135 c -0.095,0.666 -0.439,0.935 -1.328,1.035 l -1.2,0.135 0.97,-1.035 c 1.193,-1.273 1.726,-1.32 1.558,-0.135"
         id="path0-3"
         inkscape:connector-curvature="0"
         style="fill:#e38e5c;fill-rule:evenodd;stroke:none" />
      <path
         d="m 70.4,185.258 c -4.73,4.803 -8.915,8.735 -9.3,8.737 -0.411,0.003 -0.7,0.308 -0.7,0.741 0,0.404 -0.925,1.574 -2.055,2.6 -1.131,1.025 -1.851,1.864 -1.602,1.864 0.553,0 22.457,-21.858 22.457,-22.409 0,-0.516 0.885,-1.367 -8.8,8.467 m 9.632,-8.54 c -0.034,0.545 16.889,17.49 17.826,17.849 0.298,0.114 0.542,0.391 0.542,0.615 0,0.485 3.568,4.018 4.058,4.018 0.188,0 0.342,-0.178 0.342,-0.395 0,-0.519 -13.082,-13.605 -13.601,-13.605 -0.525,0 -4.799,-4.315 -4.799,-4.846 0,-0.623 -1.062,-1.554 -1.771,-1.554 -0.362,0 -0.629,-0.339 -0.629,-0.8 0,-0.522 -0.267,-0.8 -0.767,-0.8 -0.421,0 -0.857,-0.225 -0.968,-0.5 -0.157,-0.388 -0.209,-0.384 -0.233,0.018 m 48.768,0.249 c 0,0.311 0.135,0.642 0.3,0.734 0.165,0.092 0.052,0.104 -0.251,0.027 -0.303,-0.078 -0.831,0.086 -1.175,0.365 -0.528,0.429 -0.584,0.4 -0.361,-0.193 0.144,-0.385 0.103,-0.7 -0.092,-0.7 -0.195,0 -0.414,0.179 -0.488,0.398 -0.313,0.937 -16.174,16.402 -16.821,16.402 -0.428,0 -0.712,0.297 -0.712,0.745 0,0.41 -0.892,1.58 -1.983,2.6 -1.09,1.02 -1.756,1.855 -1.48,1.855 0.277,0 0.739,-0.225 1.028,-0.5 0.428,-0.408 0.476,-0.339 0.262,0.372 -0.206,0.683 0.129,1.263 1.555,2.689 2.004,2.004 2.069,2.123 1.257,2.31 -0.481,0.111 -0.481,0.202 0,0.645 0.462,0.424 0.561,0.407 0.561,-0.1 0,-1.021 0.119,-0.917 9.051,7.984 4.746,4.73 8.753,8.6 8.905,8.6 0.151,0 -4.593,-4.858 -10.541,-10.796 L 107,199.609 117.597,189.004 c 5.829,-5.832 10.78,-10.604 11.003,-10.604 0.223,0 5.174,4.776 11.003,10.613 l 10.597,10.613 -5.5,5.431 c -3.025,2.988 -5.5,5.53 -5.5,5.649 0,0.12 0.36,-0.108 0.8,-0.506 0.44,-0.398 0.8,-0.535 0.8,-0.305 0,0.392 -1.124,1.079 -1.625,0.994 -0.123,-0.021 -2.338,2.034 -4.922,4.568 -4.191,4.11 -5.453,5.726 -5.453,6.978 0,0.211 2.842,-2.467 6.316,-5.951 3.474,-3.484 6.624,-6.452 7,-6.597 0.376,-0.144 0.684,-0.46 0.684,-0.703 0,-0.56 0.794,-1.351 1.7,-1.694 0.385,-0.146 0.7,-0.497 0.7,-0.78 0,-0.283 0.511,-0.741 1.135,-1.017 0.624,-0.276 1.389,-0.995 1.7,-1.598 0.311,-0.602 1.255,-1.77 2.098,-2.595 1.01,-0.988 1.316,-1.5 0.9,-1.5 -0.348,0 -0.633,-0.18 -0.633,-0.4 0,-0.22 0.27,-0.4 0.6,-0.4 1.016,0 0.676,-0.745 -1.189,-2.611 -1.863,-1.862 -2.429,-2.131 -2.713,-1.289 -0.131,0.389 -0.316,0.377 -0.837,-0.053 -0.625,-0.515 -0.625,-0.585 -0.003,-1.04 0.584,-0.427 -0.408,-1.561 -7.994,-9.147 -8.374,-8.375 -9.464,-9.307 -9.464,-8.093 m 88.4,7.079 c -4.07,4.121 -7.631,7.507 -7.913,7.523 -0.281,0.017 -0.631,0.346 -0.777,0.731 -0.379,1.001 -1.153,1.7 -1.881,1.7 -0.346,0 -0.629,0.276 -0.629,0.613 0,0.7 -2.27,3.098 -3.309,3.497 -0.726,0.278 -0.96,1.09 -0.314,1.09 0.521,0 22.502,-21.982 22.348,-22.35 -0.069,-0.163 -3.455,3.075 -7.525,7.196 m 8.4,-7.305 c 0,0.532 16.881,17.451 17.741,17.781 0.362,0.139 0.659,0.435 0.659,0.657 0,0.405 3.373,3.703 4.044,3.954 0.196,0.074 0.356,-0.057 0.356,-0.289 0,-0.663 -9.124,-9.644 -9.798,-9.644 -0.331,0 -0.602,-0.252 -0.602,-0.56 0,-0.65 -6.319,-7.17 -7.323,-7.555 -0.372,-0.143 -0.677,-0.536 -0.677,-0.872 0,-0.337 -0.284,-0.613 -0.631,-0.613 -0.348,0 -1.338,-0.735 -2.2,-1.633 -0.863,-0.898 -1.569,-1.449 -1.569,-1.226 m 37.2,11.451 c -6.911,6.922 -10.711,10.457 -10.968,10.2 -0.716,-0.716 -1.032,-0.407 -1.032,1.01 0,1.363 21.093,23.398 22.398,23.398 0.577,0 0.497,-1.095 -0.098,-1.335 -0.275,-0.111 -0.139,-0.216 0.303,-0.233 1.244,-0.049 22.306,-21.283 21.972,-22.153 -0.3,-0.782 0.243,-0.901 0.938,-0.206 0.261,0.261 0.543,0.396 0.627,0.3 0.084,-0.095 -0.273,-0.584 -0.794,-1.087 -0.72,-0.696 -0.946,-0.768 -0.946,-0.3 0,0.889 -0.264,0.776 -1.813,-0.773 -1.549,-1.549 -1.662,-1.813 -0.773,-1.813 0.468,0 0.396,-0.226 -0.3,-0.946 -0.989,-1.025 -1.555,-1.067 -0.714,-0.054 0.283,0.341 0.412,0.721 0.287,0.846 -0.125,0.125 -4.198,-3.749 -9.05,-8.609 -4.853,-4.861 -8.967,-8.837 -9.142,-8.837 -0.176,0 -5.078,4.767 -10.895,10.592 m -135.976,-9.22 c -1.354,1.63 -15.277,15.279 -14.813,14.52 0.465,-0.76 14.627,-15.043 14.938,-15.066 0.192,-0.014 0.135,0.231 -0.125,0.546 m 4.629,0.855 c 0.785,0.784 1.352,1.501 1.261,1.592 -0.091,0.092 -0.866,-0.55 -1.721,-1.426 -0.856,-0.876 -1.423,-1.593 -1.261,-1.593 0.162,0 0.937,0.642 1.721,1.427 m 34.155,9.165 -10.586,10.592 10.691,10.608 c 5.88,5.834 10.832,10.608 11.005,10.608 0.172,0 5.114,-4.777 10.983,-10.617 l 10.67,-10.616 -10.584,-10.584 c -5.821,-5.82 -10.81,-10.583 -11.088,-10.583 -0.278,0 -5.269,4.766 -11.091,10.592 m 119.195,0.016 10.597,10.608 -10.704,10.592 c -5.887,5.826 -10.838,10.592 -11.003,10.592 -0.586,0 -21.451,-21.176 -21.17,-21.485 2.478,-2.72 20.988,-20.91 21.28,-20.912 0.221,-0.002 5.171,4.771 11,10.605 m 26.394,-0.005 -10.597,10.603 10.665,10.597 c 5.865,5.828 10.815,10.595 11,10.593 0.464,-0.005 21.335,-20.761 21.335,-21.217 0,-0.571 -20.723,-21.179 -21.297,-21.179 -0.28,0 -5.277,4.771 -11.106,10.603 m -133.84,-4.37 c 0.134,0.348 0.243,2.688 0.243,5.2 0,4.25 0.386,5.703 1,3.767 0.14,-0.44 0.407,-0.8 0.594,-0.8 0.187,0 0.625,-0.109 0.973,-0.243 0.486,-0.186 0.634,0.024 0.639,0.9 0.003,0.629 0.181,1.413 0.394,1.743 0.331,0.513 0.389,0.498 0.394,-0.1 0.003,-0.385 0.186,-0.7 0.406,-0.7 0.22,0 0.4,0.27 0.4,0.6 0,0.333 0.356,0.6 0.8,0.6 1.238,0 0.953,0.892 -0.8,2.504 -1.874,1.723 -1.845,1.608 -0.728,2.893 1.358,1.561 2.215,0.714 1.966,-1.942 -0.075,-0.797 0.036,-1.057 0.365,-0.853 0.311,0.192 0.385,0.856 0.218,1.945 -0.14,0.909 -0.273,2.148 -0.295,2.753 -0.04,1.083 -0.21,1.185 -2.126,1.274 -0.62,0.029 -0.827,0.359 -0.921,1.473 -0.109,1.3 -0.23,1.432 -1.276,1.395 -0.882,-0.032 -1.138,-0.221 -1.08,-0.798 0.042,-0.416 -0.148,-0.836 -0.423,-0.933 -0.383,-0.136 -0.5,1.036 -0.5,5.032 0,4.98 -0.301,6.326 -1.209,5.402 -0.187,-0.19 -0.369,-2.325 -0.405,-4.745 -0.08,-5.282 -0.223,-6.033 -1.025,-5.368 -0.382,0.317 -0.442,0.629 -0.182,0.942 0.283,0.342 0.013,0.479 -0.995,0.508 -1.306,0.037 -1.384,-0.035 -1.384,-1.277 0,-1.187 -0.137,-1.342 -1.4,-1.579 -1.832,-0.343 -1.778,-1.044 0.223,-2.896 l 1.623,-1.501 -1.623,-1.545 c -1.976,-1.88 -2.059,-2.591 -0.323,-2.759 1.114,-0.107 1.319,-0.296 1.431,-1.325 0.171,-1.57 0.674,-2.06 1.452,-1.414 0.419,0.347 0.617,0.368 0.617,0.063 0,-0.247 0.149,-0.449 0.332,-0.449 0.182,0 0.317,0.315 0.3,0.7 -0.018,0.385 0.148,0.74 0.368,0.79 0.22,0.049 0.416,-0.491 0.435,-1.2 0.019,-0.71 0.064,-2.955 0.1,-4.99 0.063,-3.608 0.693,-4.967 1.422,-3.067 m -51.957,3.339 c -2.852,0.69 -6.316,3.186 -7.484,5.395 -0.243,0.458 0.379,-0.067 1.382,-1.167 1.003,-1.1 1.947,-1.88 2.097,-1.732 0.151,0.147 -0.276,0.842 -0.947,1.545 -0.672,0.702 -1.451,1.797 -1.732,2.432 -0.281,0.635 -0.647,1.155 -0.814,1.155 -0.166,0 -0.302,0.349 -0.302,0.776 0,0.427 -0.18,0.888 -0.4,1.024 -0.22,0.136 -0.403,-0.078 -0.406,-0.476 -0.005,-0.614 -0.065,-0.633 -0.394,-0.124 -0.891,1.379 -0.485,4.8 0.571,4.8 0.602,0 1.026,0.266 1.116,0.7 0.08,0.385 0.15,-0.746 0.155,-2.514 0.012,-3.655 0.887,-5.776 3.336,-8.086 1.042,-0.982 1.207,-1.3 0.677,-1.3 -0.386,0 -0.606,-0.156 -0.488,-0.346 0.118,-0.191 0.695,-0.255 1.283,-0.142 0.588,0.112 0.969,0.043 0.848,-0.154 -0.248,-0.4 0.342,-0.49 4.102,-0.623 4.472,-0.159 8.466,2.293 10.495,6.443 1.02,2.087 0.98,1.941 1.083,3.922 0.064,1.224 0.142,1.353 0.422,0.7 0.323,-0.752 0.345,-0.755 0.372,-0.044 0.015,0.416 -0.22,0.956 -0.524,1.2 -0.304,0.244 -0.656,0.984 -0.784,1.644 -0.128,0.66 -0.132,0.967 -0.009,0.683 0.171,-0.396 0.353,-0.408 0.784,-0.051 0.371,0.308 0.561,0.322 0.561,0.041 0,-0.234 -0.18,-0.537 -0.4,-0.673 -0.605,-0.374 -0.479,-1 0.2,-1 0.656,0 0.75,-0.487 0.623,-3.2 -0.05,-1.046 -0.339,-1.997 -0.69,-2.271 -0.384,-0.298 -0.509,-0.774 -0.342,-1.3 0.193,-0.609 0.089,-0.829 -0.393,-0.829 -0.361,0 -1.318,-0.74 -2.127,-1.645 -2.227,-2.49 -4.389,-3.809 -6.658,-4.058 -1.093,-0.12 -2.053,-0.416 -2.133,-0.658 -0.162,-0.485 -1.251,-0.509 -3.08,-0.067 m 17.764,3.228 c 0.24,0 0.436,0.172 0.436,0.382 0,0.21 0.45,0.832 1,1.382 0.55,0.55 1,1.137 1,1.304 0,0.168 -0.99,-0.673 -2.2,-1.868 -1.21,-1.195 -2.194,-2.359 -2.187,-2.586 0.008,-0.228 0.351,-0.009 0.764,0.486 0.413,0.495 0.947,0.9 1.187,0.9 m -14.364,0.167 c 0,0.532 -0.101,1.231 -0.225,1.553 -0.207,0.54 2.085,1.753 2.51,1.328 0.086,-0.086 -0.365,-0.337 -1.002,-0.559 -1.008,-0.351 -1.133,-0.564 -0.975,-1.646 0.208,-1.414 0.386,-1.465 2.305,-0.663 1.694,0.707 1.828,0.468 0.207,-0.37 -1.796,-0.928 -2.82,-0.799 -2.82,0.357 m 143.453,0.405 c -0.963,0.425 -1.035,0.549 -0.449,0.774 0.383,0.147 0.951,0.058 1.26,-0.199 0.431,-0.358 0.786,-0.349 1.511,0.04 0.524,0.28 1.18,0.365 1.465,0.188 1.209,-0.747 -2.252,-1.481 -3.787,-0.803 m 43.971,0.462 c 1.092,0.61 2.205,0.95 2.714,0.829 1.065,-0.253 3.462,2.738 3.462,4.32 0,0.75 0.21,1.017 0.8,1.017 0.452,0 0.8,-0.267 0.8,-0.614 0,-0.505 0.354,-0.567 2,-0.348 1.868,0.247 2,0.208 2,-0.604 0,-0.757 0.191,-0.854 1.486,-0.751 1.821,0.144 2.187,-0.755 0.949,-2.33 -1.072,-1.363 -0.733,-1.84 0.838,-1.179 5.934,2.495 7.338,8.299 2.942,12.159 -2.949,2.589 -5.691,3.143 -3.826,0.772 1.432,-1.821 0.88,-2.837 -1.314,-2.417 -0.815,0.156 -1.075,0.046 -1.075,-0.454 0,-0.921 -0.969,-1.193 -2.434,-0.682 -1.101,0.384 -1.268,0.342 -1.452,-0.359 -0.316,-1.21 -1.714,-1.028 -1.714,0.224 0,1.451 -2.402,4.601 -3.305,4.334 -0.388,-0.114 -1.813,0.345 -3.166,1.021 -3.803,1.901 -3.764,1.032 0.071,-1.572 1.293,-0.878 2.477,-1.801 2.631,-2.051 0.155,-0.25 -0.416,0.02 -1.268,0.598 -1.999,1.359 -2.731,1.375 -2.399,0.053 0.246,-0.98 -0.276,-1.39 -0.764,-0.6 -0.307,0.496 -2.2,0.533 -2.2,0.043 0,-0.197 0.29,-0.469 0.645,-0.605 1.18,-0.453 -0.18,-1.437 -1.994,-1.444 -1.374,-0.005 -3.692,-0.756 -2.451,-0.794 0.806,-0.025 -0.828,-0.788 -1.7,-0.794 -0.495,-0.003 -0.9,-0.186 -0.9,-0.406 0,-0.22 0.405,-0.403 0.9,-0.406 0.901,-0.006 2.454,-0.751 1.7,-0.816 -1.04,-0.089 1.399,-0.725 2.876,-0.75 1.998,-0.033 2.463,-0.545 1.262,-1.387 -1.13,-0.791 0.106,-1.456 1.31,-0.704 1.171,0.731 1.592,0.56 1.316,-0.537 -0.292,-1.165 0.59,-1.389 1.579,-0.4 0.655,0.655 1.057,0.769 1.056,0.3 0,-0.165 -0.793,-0.8 -1.761,-1.412 -3.51,-2.218 -3.192,-3.252 0.386,-1.254 M 133.9,192.826 c 1.11,1.265 1.132,1.56 0.098,1.289 -0.441,-0.115 -1.043,-0.01 -1.337,0.234 -0.294,0.244 -0.609,0.401 -0.701,0.348 -0.091,-0.054 0.195,0.265 0.637,0.707 1.257,1.259 1.799,2.459 1.849,4.091 0.026,0.828 0.129,1.19 0.23,0.805 0.129,-0.495 0.584,-0.7 1.553,-0.7 1.5,0 1.66,0.383 0.946,2.274 -0.321,0.85 -0.312,1.014 0.036,0.67 1.069,-1.057 0.68,-3.135 -0.611,-3.266 -0.999,-0.102 -1.358,-0.454 -2.142,-2.1 -0.519,-1.088 -1.104,-1.978 -1.3,-1.978 -0.197,0 -0.358,-0.202 -0.358,-0.45 0,-0.287 0.436,-0.363 1.2,-0.21 1.549,0.31 1.592,-0.455 0.1,-1.77 l -1.1,-0.97 0.9,1.026 M 269.2,192.6 c -0.278,0.335 -0.321,0.6 -0.098,0.6 0.22,0 0.624,-0.27 0.898,-0.6 0.278,-0.335 0.321,-0.6 0.098,-0.6 -0.22,0 -0.624,0.27 -0.898,0.6 m 8.219,-0.1 c 0.147,0.385 0.619,0.7 1.05,0.7 0.432,0 1.407,0.475 2.169,1.056 0.761,0.58 1.484,0.955 1.607,0.832 0.123,-0.123 -0.197,-0.444 -0.711,-0.714 -0.514,-0.27 -1.078,-0.735 -1.254,-1.032 -0.176,-0.298 -0.725,-0.542 -1.22,-0.542 -0.495,0 -1.127,-0.225 -1.404,-0.5 -0.404,-0.401 -0.451,-0.361 -0.237,0.2 m -10.326,1.1 c -0.377,0.44 -0.535,0.8 -0.351,0.8 0.184,0 0.66,-0.36 1.058,-0.8 0.398,-0.44 0.556,-0.8 0.351,-0.8 -0.205,0 -0.681,0.36 -1.058,0.8 m -145.864,1.491 c -0.676,0.82 -1.229,1.67 -1.229,1.889 0,0.219 0.298,-0.047 0.662,-0.591 0.365,-0.544 1.026,-1.394 1.47,-1.889 0.444,-0.495 0.699,-0.9 0.567,-0.9 -0.132,0 -0.794,0.671 -1.47,1.491 M 125.2,194.4 c -0.55,0.43 -1.244,0.786 -1.543,0.791 -0.298,0.005 -0.447,0.258 -0.331,0.561 0.29,0.756 -0.747,3.658 -1.289,3.608 -0.24,-0.022 -0.899,-0.067 -1.464,-0.1 -0.862,-0.05 -0.987,-0.205 -0.781,-0.96 0.213,-0.78 0.187,-0.806 -0.195,-0.197 -0.539,0.861 -0.202,1.497 0.794,1.497 1.131,0 2.009,0.429 2.009,0.981 0,0.654 1.149,2.94 1.625,3.235 0.592,0.366 0.438,0.906 -0.325,1.14 -0.385,0.119 -0.16,0.147 0.5,0.063 2.403,-0.306 4.2,0.605 4.2,2.128 0,1.31 -0.042,1.345 -1.3,1.11 -1.023,-0.191 -1.148,-0.154 -0.587,0.177 1.23,0.725 2.071,0.27 2.287,-1.239 0.173,-1.209 0.373,-1.422 1.493,-1.595 0.712,-0.11 1.659,-0.515 2.105,-0.9 1.167,-1.007 1.662,-0.877 1.352,0.357 l -0.265,1.056 1.19,-0.703 c 0.655,-0.387 1.423,-1.087 1.708,-1.557 0.401,-0.662 0.255,-0.607 -0.655,0.247 -1.514,1.422 -1.53,1.415 -1.518,-0.668 0.005,-0.972 -0.13,-1.681 -0.3,-1.576 -0.171,0.105 -0.31,0.408 -0.31,0.673 0,2.541 -6.013,3.472 -8.501,1.315 -3.053,-2.647 -1.918,-9.44 1.577,-9.444 0.262,0 0.588,-0.18 0.724,-0.4 0.434,-0.702 -1.163,-0.412 -2.2,0.4 m -15.019,1.282 c -1.809,1.925 -2.721,2.712 -2.915,2.517 -0.167,-0.166 3.921,-4.199 4.256,-4.199 0.132,0 -0.471,0.757 -1.341,1.682 m 154.196,0.418 c -0.675,0.935 -1.621,1.817 -2.102,1.96 l -0.875,0.26 0.862,0.04 c 0.601,0.028 1.3,-0.568 2.3,-1.96 0.79,-1.1 1.348,-2 1.24,-2 -0.108,0 -0.749,0.765 -1.425,1.7 M 126.4,195.713 c -0.33,0.268 -0.863,0.847 -1.185,1.287 -0.369,0.505 -0.148,0.409 0.6,-0.261 0.652,-0.584 1.545,-1.148 1.985,-1.254 l 0.8,-0.192 -0.8,-0.034 c -0.44,-0.018 -1.07,0.186 -1.4,0.454 m 3.849,0.062 c 0.686,0.299 1.541,0.962 1.9,1.473 0.358,0.512 0.651,0.726 0.651,0.477 0,-0.653 -2.339,-2.528 -3.131,-2.509 -0.368,0.008 -0.107,0.26 0.58,0.559 m 152.757,0.737 c 0.386,0.612 0.803,1.012 0.926,0.889 0.123,-0.123 -0.193,-0.623 -0.702,-1.112 l -0.926,-0.889 0.702,1.112 m -154.063,0.299 c 1.648,0.494 2.657,1.553 2.657,2.789 0,1.236 -1.009,2.295 -2.657,2.789 -0.936,0.28 -0.985,0.348 -0.274,0.377 1.348,0.053 3.331,-1.832 3.331,-3.166 0,-1.334 -1.983,-3.219 -3.331,-3.166 -0.711,0.029 -0.662,0.097 0.274,0.377 m -2.468,0.805 c -1.392,1.297 -1.173,3.124 0.525,4.372 0.669,0.491 0.652,0.421 -0.1,-0.426 -1.136,-1.279 -1.147,-2.648 -0.03,-3.836 1.074,-1.144 0.797,-1.221 -0.395,-0.11 m 206.611,0.746 c -1.044,1.768 0.168,4.355 1.516,3.236 1.064,-0.883 0.588,-4.398 -0.596,-4.398 -0.128,0 -0.542,0.523 -0.92,1.162 M 285.2,198 c 1.368,0.438 2.419,0.438 1.4,0 -0.44,-0.189 -1.16,-0.338 -1.6,-0.332 -0.643,0.009 -0.604,0.075 0.2,0.332 m -160.968,1.015 c -0.14,0.558 -0.111,1.271 0.064,1.585 0.203,0.364 0.333,-0.003 0.36,-1.016 0.048,-1.837 -0.067,-1.991 -0.424,-0.569 m 45.626,0.774 c -0.057,0.985 -0.204,1.89 -0.326,2.013 -0.319,0.319 -0.733,-2.534 -0.468,-3.225 0.455,-1.186 0.895,-0.516 0.794,1.212 M 132.893,199.6 c 0,0.77 0.082,1.085 0.183,0.7 0.1,-0.385 0.1,-1.015 0,-1.4 -0.101,-0.385 -0.183,-0.07 -0.183,0.7 m 155.852,-0.377 c 0.74,0.451 1.432,0.734 1.537,0.628 0.202,-0.201 -2.009,-1.452 -2.562,-1.45 -0.176,10e-4 0.285,0.371 1.025,0.822 M 153.2,199.6 c 0,0.44 0.18,0.8 0.4,0.8 0.22,0 0.4,-0.36 0.4,-0.8 0,-0.44 -0.18,-0.8 -0.4,-0.8 -0.22,0 -0.4,0.36 -0.4,0.8 m 46,-0.183 c 0,0.672 -0.318,1.112 -2.34,3.231 -2.234,2.343 -1.079,1.989 1.311,-0.402 2.205,-2.205 2.792,-3.446 1.629,-3.446 -0.33,0 -0.6,0.278 -0.6,0.617 M 252,199.4 c 0,0.33 -0.18,0.6 -0.4,0.6 -0.22,0 -0.4,-0.27 -0.4,-0.6 0,-0.33 0.18,-0.6 0.4,-0.6 0.22,0 0.4,0.27 0.4,0.6 m 92.8,-0.039 c 0,0.509 -6.728,7.41 -18.146,18.612 -4.077,4 -4.737,4.827 -3.852,4.827 0.652,0 23.198,-22.74 23.198,-23.398 0,-0.331 -0.27,-0.602 -0.6,-0.602 -0.33,0 -0.6,0.253 -0.6,0.561 m -87.111,0.462 c -1.058,0.741 -1.132,1.478 -0.225,2.228 0.609,0.503 0.617,0.472 0.1,-0.369 -0.516,-0.839 -0.478,-0.984 0.436,-1.691 1.195,-0.924 0.954,-1.055 -0.311,-0.168 m 54.537,-0.265 c -0.386,0.625 0.657,0.729 5.312,0.53 2.728,-0.117 4.323,-0.33 4,-0.535 -0.719,-0.455 -9.03,-0.451 -9.312,0.005 m -221.33,11.556 c -5.997,6.084 -10.857,11.158 -10.8,11.274 0.057,0.117 5.146,-4.873 11.309,-11.088 6.163,-6.215 11.023,-11.288 10.8,-11.274 -0.223,0.014 -5.312,5.004 -11.309,11.088 m 115.761,-6.483 c 2.537,2.547 4.684,4.561 4.77,4.476 0.207,-0.207 -8.651,-9.107 -9.064,-9.107 -0.176,0 1.756,2.084 4.294,4.631 m 29.822,6.437 c -6.007,6.053 -10.867,11.124 -10.8,11.269 0.067,0.145 5.176,-4.822 11.354,-11.037 6.178,-6.215 11.038,-11.286 10.8,-11.268 -0.238,0.017 -5.347,4.984 -11.354,11.036 m 49.305,-10.641 c -0.145,0.234 -0.168,0.522 -0.051,0.64 0.287,0.286 1.067,-0.219 1.067,-0.691 0,-0.511 -0.691,-0.477 -1.016,0.051 M 150,200.587 c 0,0.321 -8.757,9.013 -9.081,9.013 -0.168,0 1.758,-2.07 4.281,-4.6 4.506,-4.519 4.8,-4.789 4.8,-4.413 m 110.803,0.211 c -0.456,0.282 -0.461,0.45 -0.028,0.972 0.535,0.644 1.635,0.87 1.612,0.33 -0.033,-0.773 -1.066,-1.622 -1.584,-1.302 m -128.739,1.248 c -0.278,0.446 -1.081,1.061 -1.785,1.366 -0.733,0.319 -0.983,0.563 -0.585,0.572 0.755,0.017 3.44,-2.183 3.091,-2.533 -0.119,-0.118 -0.443,0.15 -0.721,0.595 m -6.849,0.154 c 0.902,1.234 1.709,1.778 2.585,1.741 l 0.8,-0.034 -0.8,-0.192 c -0.44,-0.106 -1.333,-0.67 -1.985,-1.254 -0.748,-0.67 -0.969,-0.766 -0.6,-0.261 m -8.415,1.438 c 0,0.461 0.399,1.406 0.887,2.1 1.72,2.447 2.494,2.865 1.341,0.724 -0.314,-0.584 -0.808,-1.647 -1.097,-2.362 -0.6,-1.481 -1.131,-1.698 -1.131,-0.462 M 260.6,203.6 c 0.44,0.189 1.25,0.338 1.8,0.332 l 1,-0.012 -1,-0.32 c -0.55,-0.176 -1.36,-0.326 -1.8,-0.332 l -0.8,-0.012 0.8,0.344 m 23.2,0 c -1.019,0.438 0.032,0.438 1.4,0 0.804,-0.257 0.843,-0.323 0.2,-0.332 -0.44,-0.006 -1.16,0.143 -1.6,0.332 m -24.492,3.508 c 1.921,1.929 3.492,3.657 3.492,3.84 0,0.183 -1.398,-1.09 -3.107,-2.829 -1.709,-1.739 -3.419,-3.282 -3.8,-3.428 -0.687,-0.263 -0.978,-1.091 -0.385,-1.091 0.17,0 1.88,1.579 3.8,3.508 m 4.531,-3.172 c -0.577,0.934 10.884,1.298 16.761,0.533 1.674,-0.218 0.039,-0.306 -5.4,-0.291 -4.29,0.012 -8.547,-0.126 -9.459,-0.306 -1.022,-0.203 -1.752,-0.178 -1.902,0.064 m -124.8,1.843 c -0.867,1.61 -3.319,4.074 -3.688,3.705 -0.143,-0.143 0.304,-0.788 0.994,-1.433 0.69,-0.644 1.255,-1.37 1.255,-1.611 0,-0.242 0.18,-0.44 0.4,-0.44 0.22,0 0.4,-0.295 0.4,-0.656 0,-0.414 -0.596,0.021 -1.615,1.178 -4.425,5.027 -12.03,4.835 -16.356,-0.413 -0.676,-0.82 -1.229,-1.306 -1.229,-1.079 0,2.931 7.807,6.282 12.3,5.28 1.01,-0.225 1.3,-0.158 1.3,0.3 0,1.887 4.945,-1.649 6.638,-4.747 0.341,-0.626 0.555,-1.204 0.474,-1.284 -0.081,-0.081 -0.474,0.459 -0.873,1.2 m 54.761,-0.195 c -4.641,3.991 -17.39,17.216 -16.598,17.216 0.397,0 17.598,-17.005 17.598,-17.398 0,-0.305 -0.549,-0.206 -1,0.182 m -69.511,1.646 c 0.489,0.509 0.989,0.825 1.112,0.702 0.123,-0.123 -0.277,-0.54 -0.889,-0.926 l -1.112,-0.702 0.889,0.926 m 13.724,5.558 c -1.779,1.662 -2.079,1.531 -0.419,-0.182 0.743,-0.767 1.433,-1.312 1.534,-1.212 0.1,0.1 -0.402,0.728 -1.115,1.394 m 75.587,-1.511 c 0,0.11 0.36,0.616 0.8,1.123 0.44,0.507 0.8,0.743 0.8,0.523 0,-0.219 -0.36,-0.725 -0.8,-1.123 -0.44,-0.398 -0.8,-0.634 -0.8,-0.523 m 3.68,4.023 c 0.946,0.935 1.776,1.577 1.844,1.428 0.142,-0.313 -2.759,-3.101 -3.244,-3.117 -0.175,-0.006 0.455,0.754 1.4,1.689 m -84.237,2.47 c -1.667,1.666 -3.164,3.03 -3.327,3.03 -0.164,0 1.129,-1.435 2.872,-3.188 1.743,-1.753 3.24,-3.117 3.327,-3.03 0.087,0.087 -1.205,1.521 -2.872,3.188 M 271.6,219.4 c 0.746,0.77 1.226,1.4 1.065,1.4 -0.16,0 -0.922,-0.63 -1.692,-1.4 -0.77,-0.77 -1.249,-1.4 -1.065,-1.4 0.184,0 0.946,0.63 1.692,1.4 m -48.636,1.6 c 0.55,0.55 1.106,1 1.236,1 0.487,0 -1.221,-1.975 -1.718,-1.987 -0.29,-0.007 -0.077,0.429 0.482,0.987"
         id="path2-0"
         inkscape:connector-curvature="0"
         style="fill:#6f8b9e;fill-rule:evenodd;stroke:none"
         sodipodi:nodetypes="ccscsscccsssssssscccscccscsscsccsccscscccscccsssccsscscssccssscccccccccsscsccccscssscsscccssscccsccsssccsssccccccccsccccscccsccccscccccccssccscsccccssscccccccccccscccccscccccccsscccccccsccssssccscccsccccccccssccssscccscccccsssscscccscccccccccccccssscsccccccsccscccccccsccccsccccccscccccsccccsccccsscccccscsccscsscscccsssccscssccccccccsscccsccccccccccccsccccccsccccccsccccccccccscccsccccsccscccccccccsccccccccccccccccccccccsssccccsccssscccsssccccccccccccsscccsccssccccsccscccccccccccccccccccccccccsccccccccsscscccccccscsssccscsccccssccsccccccccsssccccccsssccsssccscc" />
      <path
         d="m 69.666,185.065 c -4.694,4.73 -8.428,8.706 -8.297,8.837 0.257,0.257 17.431,-16.684 17.431,-17.194 0,-0.747 -1.079,0.239 -9.134,8.357 M 118.5,185.03 c -4.675,4.711 -8.5,8.657 -8.5,8.768 0,0.69 1.452,-0.631 8.612,-7.835 9.224,-9.28 8.988,-9.035 8.988,-9.334 0,-0.659 -1.3,0.542 -9.1,8.401 m 97.965,-1.166 c -4.034,4.07 -7.243,7.491 -7.132,7.603 0.2,0.199 15.067,-14.469 15.067,-14.864 0,-0.624 -1.276,0.544 -7.935,7.261 M 226,176.613 c 0,0.409 2.855,3.065 3.067,2.854 0.117,-0.118 -0.429,-0.856 -1.214,-1.64 C 226.492,176.466 226,176.143 226,176.613 M 117.6,189 107.006,199.6 117.6,210.2 c 5.827,5.83 10.748,10.6 10.935,10.6 0.187,0 5.138,-4.767 11.003,-10.594 L 150.2,199.611 139.603,189.006 C 133.774,183.173 128.823,178.4 128.6,178.4 c -0.223,0 -5.173,4.77 -11,10.6 m 145.505,-0.297 c -5.662,5.663 -10.424,10.439 -10.582,10.612 -0.281,0.309 20.584,21.485 21.17,21.485 0.165,0 5.116,-4.766 11.003,-10.592 L 295.4,199.616 284.803,189.008 c -5.829,-5.834 -10.779,-10.607 -11,-10.605 -0.222,0.001 -5.036,4.636 -10.698,10.3 M 84.4,180.582 c 0,0.382 4.476,4.675 4.671,4.48 0.112,-0.112 -0.799,-1.207 -2.025,-2.433 -2.065,-2.065 -2.646,-2.515 -2.646,-2.047 m 44.08,7.457 c 0.08,0.242 1.04,0.538 2.133,0.658 2.269,0.249 4.431,1.568 6.658,4.058 0.809,0.905 1.766,1.645 2.127,1.645 0.482,0 0.586,0.22 0.393,0.829 -0.167,0.526 -0.042,1.002 0.342,1.3 0.351,0.274 0.64,1.225 0.69,2.271 0.127,2.713 0.033,3.2 -0.623,3.2 -0.707,0 -0.777,0.463 -0.162,1.078 0.97,0.97 -1.424,4.692 -4.406,6.853 -1.905,1.38 -2.832,1.602 -2.832,0.679 0,-0.458 -0.29,-0.525 -1.3,-0.3 -5.792,1.292 -13.5,-3.44 -13.5,-8.288 0,-0.232 -0.45,-0.422 -1,-0.422 -2.542,0 -0.597,-7.169 2.854,-10.521 2.576,-2.502 8.15,-4.466 8.626,-3.04 m 0.633,3.975 c -0.203,1.378 2.523,3.113 3.585,2.281 0.274,-0.214 0.859,-0.295 1.3,-0.18 1.899,0.497 -0.145,-1.716 -2.491,-2.696 -2.017,-0.843 -2.19,-0.8 -2.394,0.595 m 146.997,-0.121 c 0.83,0.118 1.606,0.371 1.723,0.561 0.118,0.19 0.659,0.346 1.203,0.346 0.544,0 1.09,0.263 1.214,0.585 0.123,0.321 0.534,0.683 0.913,0.803 0.379,0.12 1.217,0.921 1.863,1.78 0.847,1.127 1.564,1.628 2.574,1.8 13.196,2.244 -2.295,8.428 -17.6,7.026 -11.371,-1.042 -15.093,-4.952 -6.287,-6.604 1.095,-0.206 1.695,-0.632 2.326,-1.654 0.469,-0.757 1.326,-1.678 1.906,-2.047 0.58,-0.368 1.199,-0.899 1.375,-1.179 0.176,-0.281 0.66,-0.51 1.076,-0.51 0.416,0 0.868,-0.18 1.004,-0.4 0.136,-0.22 0.822,-0.403 1.524,-0.406 0.702,-0.003 1.546,-0.182 1.876,-0.396 0.33,-0.214 0.87,-0.284 1.2,-0.154 0.33,0.129 1.279,0.331 2.11,0.449 m -68.85,1.149 c -0.729,0.824 -0.26,1.215 0.521,0.434 0.34,-0.34 0.619,-0.722 0.619,-0.847 0,-0.42 -0.594,-0.205 -1.14,0.413 m 84.34,0.387 c 0,0.424 1.236,1.468 1.467,1.238 0.125,-0.126 -0.05,-0.507 -0.391,-0.848 -0.635,-0.635 -1.076,-0.795 -1.076,-0.39 m -169.763,1.397 c -1.08,1.282 -2.439,3.91 -2.16,4.18 1.75,1.697 4.068,-0.937 3.563,-4.048 l -0.245,-1.505 -1.158,1.373 m -63.775,1.832 c -0.956,0.99 -1.649,1.889 -1.54,1.998 0.24,0.24 3.878,-3.073 3.878,-3.532 0,-0.647 -0.634,-0.231 -2.338,1.534 m 48.8,0 c -0.956,0.99 -1.627,1.91 -1.492,2.046 0.268,0.267 3.83,-3.069 3.83,-3.587 0,-0.64 -0.64,-0.218 -2.338,1.541 m 97.199,-0.403 c -0.736,0.77 -1.243,1.496 -1.127,1.613 0.211,0.211 3.066,-2.447 3.066,-2.855 0,-0.505 -0.691,-0.063 -1.939,1.242 m -76.306,-0.78 c -4.062,0.799 -3.915,7.466 0.182,8.249 4.843,0.926 6.792,-6.057 2.224,-7.966 -0.735,-0.307 -1.386,-0.533 -1.448,-0.504 -0.062,0.03 -0.493,0.13 -0.958,0.221 m 3.014,1.961 c 2.956,2.487 -0.274,6.647 -3.624,4.668 -2.023,-1.195 -2.055,-3.762 -0.061,-4.993 1.531,-0.946 2.251,-0.883 3.685,0.325 M 295.6,197.429 c 0,0.424 1.236,1.468 1.467,1.238 0.125,-0.126 -0.05,-0.507 -0.391,-0.848 -0.635,-0.635 -1.076,-0.795 -1.076,-0.39 m -144,1.979 c 0,0.36 -0.742,1.368 -1.65,2.24 -0.907,0.872 -1.543,1.692 -1.412,1.823 0.257,0.257 3.862,-3.394 3.862,-3.911 0,-0.172 -0.18,-0.424 -0.4,-0.56 -0.22,-0.136 -0.4,0.048 -0.4,0.408 M 250,199.6 c 0,0.44 0.18,0.8 0.4,0.8 0.22,0 0.4,-0.36 0.4,-0.8 0,-0.44 -0.18,-0.8 -0.4,-0.8 -0.22,0 -0.4,0.36 -0.4,0.8 m -115.454,1.3 c -0.37,1.516 -0.448,4.299 -0.121,4.3 0.922,0.002 3.175,-3.565 3.175,-5.026 0,-1.333 -2.708,-0.689 -3.054,0.726 m -43.297,10.523 c -6.014,6.063 -10.841,11.119 -10.725,11.235 0.204,0.204 22.276,-21.65 22.276,-22.056 0,-0.698 -1.733,0.925 -11.551,10.821 M 202,200.602 c 0,0.43 16.477,16.655 16.693,16.438 0.195,-0.194 -0.889,-1.384 -5.59,-6.135 C 205.719,203.443 202,199.992 202,200.602 m 34.823,10.796 c -6.037,6.04 -10.866,11.092 -10.732,11.226 0.226,0.226 22.309,-21.573 22.309,-22.022 0,-0.673 -1.677,0.891 -11.577,10.796 M 117.931,204.1 c 0.289,0.715 0.783,1.778 1.097,2.362 1.153,2.141 0.379,1.723 -1.341,-0.724 -0.859,-1.222 -1.201,-2.938 -0.585,-2.938 0.167,0 0.539,0.585 0.829,1.3 m -57.838,0.3 c 0.469,0.751 1.107,1.08 1.107,0.571 0,-0.298 -1.075,-1.371 -1.375,-1.371 -0.127,0 -0.007,0.36 0.268,0.8 m 62.707,0.884 c -10e-4,0.86 3.591,3.116 4.96,3.116 1.39,0 0.808,-2.66 -0.66,-3.014 -1.68,-0.406 -4.299,-0.468 -4.3,-0.102 m 20.46,2.958 c -0.729,0.824 -0.26,1.215 0.521,0.434 0.34,-0.34 0.619,-0.722 0.619,-0.847 0,-0.42 -0.594,-0.205 -1.14,0.413 m -7.995,8.022 c -3.374,3.41 -6.043,6.291 -5.932,6.403 0.2,0.2 12.667,-12.067 12.667,-12.464 0,-0.616 -1.165,0.432 -6.735,6.061 m 84.335,1.965 c 0,0.424 1.236,1.468 1.467,1.238 0.125,-0.126 -0.05,-0.507 -0.391,-0.848 -0.635,-0.635 -1.076,-0.795 -1.076,-0.39 m 2.4,2.389 c 0,0.414 2.049,2.266 2.267,2.049 0.12,-0.12 -0.243,-0.679 -0.806,-1.243 -0.996,-0.996 -1.461,-1.252 -1.461,-0.806"
         id="path3-8"
         inkscape:connector-curvature="0"
         style="fill:#503c6e;fill-rule:evenodd;stroke:none"
         sodipodi:nodetypes="cssccscscccsccccccccscccscccsccccccssccccscccsscscsscccccccccscscccccccsssscccsscccscccccccsscccscccsccccccccccccscccsssccssscccsccssccccccssccccsccssccsccczscccscccsccccc" />
      <path
         d="m 79.632,176.822 c -0.018,0.341 0.598,1.232 1.368,1.978 0.77,0.746 1.4,1.214 1.4,1.039 0,-0.175 -0.51,-0.795 -1.134,-1.379 -0.624,-0.583 -1.239,-1.33 -1.368,-1.66 -0.204,-0.521 -0.239,-0.518 -0.266,0.022 m 47.974,0.072 c -0.003,0.382 -3.111,3.82 -6.906,7.639 -3.795,3.819 -7.345,7.467 -7.889,8.106 -1.419,1.665 4.445,-3.96 10.377,-9.955 2.884,-2.915 5.31,-5.051 5.637,-4.966 0.316,0.083 0.44,0.075 0.275,-0.017 -0.165,-0.092 -0.314,-0.468 -0.332,-0.834 -0.022,-0.483 -0.091,-0.516 -0.248,-0.122 -0.183,0.461 -0.271,0.461 -0.562,0 -0.271,-0.427 -0.347,-0.395 -0.352,0.149 m 48.221,0.03 c -1.392,0.857 -3.813,3.576 -3.555,3.992 0.138,0.224 0.057,0.287 -0.182,0.14 -0.501,-0.31 -13.69,12.803 -13.69,13.611 0,0.293 -0.225,0.538 -0.5,0.543 -1.099,0.022 -3.9,3.187 -3.9,4.406 0,1.018 21.194,23.184 22.167,23.184 0.094,0 3.74,-3.555 8.102,-7.9 8.683,-8.649 9.846,-9.7 10.734,-9.7 0.328,0 0.597,-0.276 0.597,-0.613 0,-0.338 0.585,-1.228 1.3,-1.979 3.605,-3.784 4.227,-2.648 -8.335,-15.225 -6.034,-6.041 -11.194,-10.972 -11.467,-10.959 -0.274,0.012 -0.846,0.237 -1.271,0.5 M 224.8,176.81 c 0,0.225 -4.68,5.077 -10.4,10.782 -5.72,5.705 -10.4,10.515 -10.4,10.688 0,0.173 4.734,-4.417 10.521,-10.201 6.201,-6.198 10.758,-10.452 11.1,-10.362 0.318,0.083 0.444,0.076 0.279,-0.016 -0.165,-0.092 -0.3,-0.423 -0.3,-0.734 0,-0.312 -0.18,-0.567 -0.4,-0.567 -0.22,0 -0.4,0.184 -0.4,0.41 m 37.269,10.252 c -6.798,6.84 -10.454,10.799 -10.313,11.168 0.12,0.313 0.045,0.57 -0.169,0.57 -0.213,0 -0.387,0.27 -0.387,0.6 0,0.78 0.703,0.78 0.871,-0.001 0.142,-0.659 21.11,-21.799 21.622,-21.799 0.402,0 21.907,21.506 21.907,21.908 0,0.7 -21.457,21.694 -22.203,21.724 -0.438,0.017 -0.572,0.122 -0.297,0.233 0.275,0.111 0.5,0.457 0.5,0.768 0,1.235 1.21,0.16 12.202,-10.831 12.243,-12.243 11.883,-11.807 10.398,-12.602 -0.55,-0.294 -1,-0.767 -1,-1.049 0,-0.658 -1.88,-2.551 -2.532,-2.551 -0.273,0 -0.834,-0.573 -1.248,-1.273 -0.9,-1.524 -5.375,-6.071 -6.339,-6.44 -0.374,-0.144 -0.681,-0.454 -0.681,-0.688 0,-0.552 -2.413,-2.965 -3.309,-3.309 -0.38,-0.146 -0.691,-0.454 -0.691,-0.685 0,-0.657 -5.113,-5.605 -5.793,-5.605 -0.334,0 -0.607,-0.18 -0.607,-0.4 0,-1.369 -2.562,0.835 -11.931,10.262 M 322,176.771 c 0,0.204 -0.267,0.429 -0.593,0.5 -0.692,0.151 -10.607,9.899 -10.607,10.429 0,0.485 -1.047,1.5 -1.549,1.5 -0.223,0 -0.717,0.527 -1.098,1.171 -0.38,0.645 -1.021,1.258 -1.422,1.363 -0.402,0.105 -0.731,0.457 -0.731,0.782 0,0.325 -0.373,0.688 -0.83,0.808 -0.456,0.119 -0.923,0.575 -1.037,1.012 -0.115,0.438 -0.642,0.905 -1.171,1.038 -0.611,0.153 -0.962,0.53 -0.962,1.034 0,0.435 -0.245,0.792 -0.545,0.792 -0.592,0 -2.655,1.899 -2.655,2.443 0,0.484 22.706,23.157 23.192,23.157 0.224,0 0.408,-0.147 0.408,-0.327 0,-0.18 1.914,-2.205 4.254,-4.5 11.585,-11.367 18.067,-18.029 18.26,-18.767 0.243,-0.927 -14.758,-16.406 -15.899,-16.406 -0.348,0 -0.615,-0.347 -0.615,-0.8 0,-0.725 -0.427,-0.994 -1.33,-0.837 -0.181,0.031 -0.222,-0.117 -0.091,-0.329 0.284,-0.46 -1.305,-2.034 -2.054,-2.034 -0.289,0 -0.525,-0.295 -0.525,-0.656 0,-0.712 -1.096,-1.711 -1.9,-1.731 -0.275,-0.007 -0.5,0.154 -0.5,0.358 M 68.099,188.262 c -5.996,6.016 -11.081,10.938 -11.3,10.938 -0.554,0 -0.479,0.461 0.23,1.398 0.51,0.675 0.658,0.708 0.966,0.211 0.235,-0.381 0.194,-0.694 -0.116,-0.889 -0.314,-0.197 3.31,-4.094 10.503,-11.295 6.04,-6.047 10.9,-11.063 10.8,-11.148 -0.1,-0.084 -5.088,4.769 -11.083,10.785 m 62.894,-8.269 c 0.855,0.876 1.63,1.518 1.721,1.426 0.205,-0.205 -2.574,-3.019 -2.982,-3.019 -0.162,0 0.405,0.717 1.261,1.593 m 56.794,8.99 10.584,10.584 -10.67,10.616 c -5.869,5.84 -10.811,10.617 -10.983,10.617 -0.173,0 -5.125,-4.774 -11.005,-10.608 l -10.691,-10.608 10.586,-10.592 c 5.822,-5.826 10.813,-10.592 11.091,-10.592 0.278,0 5.267,4.763 11.088,10.583 m 49.001,0.005 10.582,10.588 -10.848,10.812 c -11.651,11.614 -11.22,11.278 -12.645,9.852 -0.659,-0.658 -1.135,-0.848 -1.519,-0.606 -0.467,0.296 -0.46,0.355 0.042,0.363 0.33,0.004 1.028,0.637 1.552,1.406 0.922,1.354 1.648,1.8 1.648,1.012 0,-0.515 21.88,-22.415 22.395,-22.415 0.782,0 0.321,-0.616 -1.795,-2.4 -1.174,-0.99 -2.15,-2.031 -2.167,-2.313 -0.018,-0.281 -0.336,-0.629 -0.707,-0.771 -0.371,-0.142 -4.222,-3.827 -8.557,-8.187 -4.336,-4.361 -8.036,-7.929 -8.223,-7.929 -0.187,0 4.422,4.765 10.242,10.588 m 96.418,-0.182 c 5.717,5.723 10.394,10.571 10.394,10.773 0,0.456 -20.871,21.212 -21.335,21.217 -0.185,0.002 -5.135,-4.765 -11,-10.593 L 300.6,199.606 311.197,189.003 c 5.829,-5.832 10.826,-10.603 11.106,-10.603 0.279,0 5.186,4.683 10.903,10.406 M 91,188.8 c 3.955,3.96 7.239,7.2 7.296,7.2 0.386,0 -0.002,-1.266 -0.44,-1.434 -0.299,-0.115 -3.445,-3.079 -6.991,-6.587 -3.546,-3.509 -6.584,-6.379 -6.752,-6.379 -0.168,0 2.932,3.24 6.887,7.2 m 134.72,-4 c 0,1.21 0.075,1.705 0.167,1.1 0.091,-0.605 0.091,-1.595 0,-2.2 -0.092,-0.605 -0.167,-0.11 -0.167,1.1 m -49.801,3.3 c -0.159,4.172 0.02,5.583 0.701,5.53 0.209,-0.017 0.38,1.14 0.38,2.57 0,3.287 -0.732,3.433 -1,0.2 -0.11,-1.327 -0.38,-2.456 -0.6,-2.507 -0.22,-0.051 -0.386,-0.408 -0.368,-0.793 0.017,-0.385 -0.118,-0.7 -0.3,-0.7 -0.183,0 -0.332,0.202 -0.332,0.449 0,0.305 -0.198,0.284 -0.617,-0.063 -0.778,-0.646 -1.281,-0.156 -1.452,1.414 -0.112,1.029 -0.317,1.218 -1.431,1.325 -1.736,0.168 -1.653,0.879 0.323,2.759 l 1.623,1.545 -1.623,1.501 c -2.001,1.852 -2.055,2.553 -0.223,2.896 1.263,0.237 1.4,0.392 1.4,1.579 0,1.242 0.078,1.314 1.384,1.277 1.008,-0.029 1.278,-0.166 0.995,-0.508 -0.26,-0.313 -0.2,-0.625 0.182,-0.942 0.802,-0.665 0.945,0.086 1.025,5.368 0.036,2.42 0.218,4.555 0.405,4.745 0.908,0.924 1.209,-0.422 1.209,-5.402 0,-3.996 0.117,-5.168 0.5,-5.032 0.275,0.097 0.465,0.517 0.423,0.933 -0.058,0.577 0.198,0.766 1.08,0.798 1.046,0.037 1.167,-0.095 1.276,-1.395 0.094,-1.114 0.301,-1.444 0.921,-1.473 1.916,-0.089 2.086,-0.191 2.126,-1.274 0.022,-0.605 0.155,-1.844 0.295,-2.753 0.167,-1.089 0.093,-1.753 -0.218,-1.945 -0.329,-0.204 -0.44,0.056 -0.365,0.853 0.249,2.656 -0.608,3.503 -1.966,1.942 -1.117,-1.285 -1.146,-1.17 0.728,-2.893 1.753,-1.612 2.038,-2.504 0.8,-2.504 -0.444,0 -0.8,-0.267 -0.8,-0.6 0,-0.33 -0.18,-0.6 -0.4,-0.6 -0.22,0 -0.403,0.315 -0.406,0.7 -0.005,0.598 -0.063,0.613 -0.394,0.1 -0.213,-0.33 -0.391,-1.114 -0.394,-1.743 -0.005,-0.876 -0.153,-1.086 -0.639,-0.9 -0.348,0.134 -0.786,0.243 -0.973,0.243 -0.187,0 -0.454,0.36 -0.594,0.8 -0.614,1.936 -1,0.483 -1,-3.767 0,-4.844 -0.171,-5.833 -1.005,-5.833 -0.383,0 -0.561,1.084 -0.676,4.1 m -50.119,1.151 c -0.66,0.19 -1.434,0.258 -1.721,0.152 -0.312,-0.116 -0.408,-0.012 -0.24,0.26 0.192,0.31 -0.055,0.389 -0.785,0.249 -1.407,-0.268 -4.23,2.173 -5.406,4.675 -0.901,1.918 -1.109,3.222 -0.448,2.813 0.22,-0.136 0.4,-0.597 0.4,-1.024 0,-0.427 0.18,-0.776 0.4,-0.776 0.22,0 0.404,-0.225 0.409,-0.5 0.012,-0.662 1.571,-2.642 1.582,-2.01 0.005,0.27 -0.35,1.08 -0.79,1.8 -0.439,0.721 -0.793,1.58 -0.787,1.91 0.006,0.33 0.438,-0.272 0.961,-1.339 1.218,-2.486 2.703,-4.022 4.88,-5.045 2.16,-1.015 4.749,-1.123 4.388,-0.183 -0.134,0.348 -0.243,1.048 -0.243,1.556 0,0.667 -0.306,1.01 -1.1,1.232 -0.829,0.231 -0.926,0.348 -0.395,0.473 0.388,0.092 0.602,0.333 0.476,0.536 -0.127,0.206 0.535,0.356 1.495,0.338 1.656,-0.03 1.68,-0.047 0.597,-0.442 -0.749,-0.273 -1.05,-0.608 -0.9,-1.001 0.125,-0.325 0.227,-1.026 0.227,-1.558 0,-1.245 1.252,-1.293 3.2,-0.124 3.008,1.806 4.346,3.86 2.157,3.31 -0.69,-0.173 -1.158,-0.075 -1.383,0.29 -0.271,0.438 -0.442,0.449 -0.837,0.054 -0.594,-0.594 -1.288,-0.665 -0.937,-0.097 0.136,0.22 0.054,0.4 -0.183,0.4 -0.236,0 0.158,0.525 0.877,1.167 1.918,1.714 1.918,4.752 0,6.466 -0.719,0.642 -1.113,1.167 -0.877,1.167 0.237,0 0.319,0.18 0.183,0.4 -0.344,0.557 0.338,0.502 0.913,-0.073 0.261,-0.261 0.599,-0.349 0.751,-0.196 0.153,0.152 -0.069,0.555 -0.493,0.895 -0.731,0.586 -0.723,0.595 0.167,0.162 0.853,-0.415 0.914,-0.381 0.673,0.378 -0.349,1.099 0.805,1.117 2.189,0.034 1.238,-0.968 0.75,-1.048 -0.68,-0.111 l -1.051,0.689 0.273,-1.089 c 0.208,-0.827 0.127,-1.089 -0.334,-1.089 -0.335,0 -0.608,-0.18 -0.608,-0.4 0,-0.22 0.135,-0.401 0.3,-0.403 1.004,-0.011 1.815,-5.232 0.9,-5.797 -0.22,-0.136 -0.4,-0.027 -0.4,0.243 0,0.27 -0.094,0.396 -0.209,0.282 -0.114,-0.115 -0.043,-0.64 0.159,-1.167 l 0.368,-0.958 0.452,1.155 c 0.249,0.636 0.551,1.058 0.671,0.938 0.12,-0.12 -0.083,-0.802 -0.452,-1.514 -0.503,-0.972 -0.754,-1.159 -1.008,-0.749 -0.185,0.301 -0.477,0.407 -0.648,0.237 -0.515,-0.515 0.753,-1.03 1.948,-0.791 2.111,0.422 0.64,-1.961 -2.453,-3.975 -1.584,-1.032 -1.672,-1.155 -0.656,-0.92 7.507,1.733 9.68,12.967 3.377,17.455 -0.657,0.468 -1.091,0.955 -0.965,1.082 0.127,0.126 0.947,-0.47 1.823,-1.325 0.876,-0.856 1.593,-1.333 1.593,-1.061 0,0.598 -2.604,3.268 -3.187,3.268 -0.227,0 -0.413,0.185 -0.413,0.41 0,1.342 4.12,-2.336 5.409,-4.827 0.644,-1.247 0.413,-2.551 -0.271,-1.526 -0.233,0.349 -0.269,0.115 -0.102,-0.657 0.143,-0.66 0.508,-1.4 0.812,-1.644 0.304,-0.244 0.539,-0.784 0.524,-1.2 -0.027,-0.711 -0.049,-0.708 -0.372,0.044 -0.28,0.653 -0.358,0.524 -0.422,-0.7 -0.103,-1.981 -0.063,-1.835 -1.083,-3.922 -2.298,-4.701 -8.174,-7.629 -12.695,-6.327 m 15.413,0.56 c -0.03,0.947 5.6,6.01 5.994,5.389 0.609,-0.96 0.456,-1.31 -0.467,-1.068 -0.836,0.218 -3.14,-1.67 -3.14,-2.574 0,-0.197 -0.196,-0.358 -0.436,-0.358 -0.24,0 -0.774,-0.405 -1.187,-0.9 -0.413,-0.495 -0.756,-0.715 -0.764,-0.489 m -58.291,0.967 c -0.112,0.427 -0.548,0.856 -0.969,0.953 -0.616,0.141 -0.597,0.165 0.097,0.122 0.728,-0.045 1.996,-1.853 1.3,-1.853 -0.124,0 -0.316,0.35 -0.428,0.778 M 73.95,190.6 c -0.028,0.11 -0.075,0.335 -0.106,0.5 -0.031,0.165 -0.207,0.538 -0.392,0.83 -0.276,0.435 -0.191,0.438 0.48,0.019 0.449,-0.28 0.737,-0.638 0.64,-0.795 -0.098,-0.157 0.049,-0.377 0.326,-0.488 0.303,-0.122 0.224,-0.215 -0.198,-0.234 -0.385,-0.018 -0.722,0.058 -0.75,0.168 m 47.677,1.034 c -0.71,0.679 -1.385,1.141 -1.5,1.027 -0.309,-0.31 1.585,-2.208 2.232,-2.237 0.308,-0.013 -0.022,0.531 -0.732,1.21 M 177.2,191.6 c 0,0.22 -0.27,0.4 -0.6,0.4 -0.33,0 -0.6,-0.18 -0.6,-0.4 0,-0.22 0.27,-0.4 0.6,-0.4 0.33,0 0.6,0.18 0.6,0.4 m 137.185,0.816 c 1.362,1.164 2.301,1.57 1.815,0.784 -0.136,-0.22 -0.067,-0.4 0.153,-0.4 0.607,0 0.971,0.798 0.371,0.813 -0.325,0.008 -0.231,0.234 0.247,0.596 0.424,0.32 0.657,0.696 0.519,0.834 -0.139,0.139 -0.543,-0.039 -0.9,-0.395 -0.807,-0.808 -1.79,-0.841 -1.79,-0.061 0,0.324 0.227,0.501 0.504,0.394 0.452,-0.173 3.597,1.58 5.696,3.175 0.738,0.561 0.567,0.607 -2.2,0.597 -2.629,-0.011 -6.954,-0.507 -6.4,-0.735 0.11,-0.045 0.997,-0.293 1.97,-0.55 1.892,-0.5 2.25,-0.912 1.623,-1.868 -0.342,-0.523 -0.441,-0.525 -0.767,-0.018 -0.317,0.493 -0.525,0.5 -1.373,0.046 -1.434,-0.767 -2.735,-0.241 -1.515,0.613 1.201,0.842 0.736,1.354 -1.262,1.387 -1.477,0.025 -3.916,0.661 -2.876,0.75 0.754,0.065 -0.799,0.81 -1.7,0.816 -0.495,0.003 -0.9,0.186 -0.9,0.406 0,0.22 0.405,0.403 0.9,0.406 0.872,0.006 2.506,0.769 1.7,0.794 -1.241,0.038 1.077,0.789 2.451,0.794 1.814,0.007 3.174,0.991 1.994,1.444 -0.355,0.136 -0.645,0.408 -0.645,0.605 0,0.49 1.893,0.453 2.2,-0.043 0.503,-0.814 1.008,-0.372 0.75,0.658 -0.249,0.991 -0.197,1.04 0.826,0.784 0.714,-0.179 1.002,-0.13 0.834,0.142 -0.498,0.806 0.34,0.399 2.436,-1.184 2.306,-1.741 2.56,-1.851 2.541,-1.1 -0.019,0.759 -1.934,2.78 -2.376,2.507 -0.213,-0.132 -0.924,0.038 -1.579,0.377 -1.385,0.716 -1.778,0.775 -1.432,0.216 0.479,-0.775 -0.446,-0.387 -1.815,0.761 -1.981,1.661 -1.313,1.839 1.544,0.411 1.353,-0.676 2.778,-1.135 3.166,-1.021 0.903,0.267 3.305,-2.883 3.305,-4.334 0,-1.252 1.398,-1.434 1.714,-0.224 0.184,0.701 0.351,0.743 1.452,0.359 1.465,-0.511 2.434,-0.239 2.434,0.682 0,0.5 0.26,0.61 1.075,0.454 2.194,-0.42 2.746,0.596 1.314,2.417 -1.865,2.371 0.877,1.817 3.826,-0.772 4.396,-3.86 2.992,-9.664 -2.942,-12.159 -1.571,-0.661 -1.91,-0.184 -0.838,1.179 1.238,1.575 0.872,2.474 -0.949,2.33 -1.295,-0.103 -1.486,-0.006 -1.486,0.751 0,0.812 -0.132,0.851 -2,0.604 -1.646,-0.219 -2,-0.157 -2,0.348 0,0.347 -0.348,0.614 -0.8,0.614 -0.59,0 -0.8,-0.267 -0.8,-1.017 0,-1.582 -2.397,-4.573 -3.462,-4.32 -0.509,0.121 -1.622,-0.219 -2.714,-0.829 -2.594,-1.448 -3.627,-1.346 -1.839,0.182 m -44.4,0.202 c -0.282,0.34 -0.741,0.531 -1.02,0.424 -0.279,-0.107 -0.737,0.084 -1.019,0.423 -0.282,0.34 -0.91,0.769 -1.394,0.953 -0.485,0.185 -1.452,1.201 -2.15,2.259 l -1.268,1.923 1.222,-1.4 c 0.672,-0.77 1.227,-1.516 1.233,-1.657 0.026,-0.611 1.319,-0.669 2.854,-0.128 2.235,0.789 9.769,0.778 11.157,-0.015 1.39,-0.795 1.303,-0.835 3.294,1.5 2.185,2.561 2.567,3.582 1.672,4.477 -1.003,1.003 -0.432,1.155 1.291,0.343 1.782,-0.839 1.966,-1.666 0.543,-2.44 -0.977,-0.532 -0.968,-0.539 0.379,-0.306 0.759,0.131 1.827,0.531 2.374,0.889 l 0.994,0.652 -1.096,0.942 c -1.263,1.087 -1.075,1.24 0.363,0.297 1.822,-1.194 0.162,-2.718 -4.098,-3.763 -1.143,-0.28 -1.894,-0.763 -2.337,-1.502 -0.76,-1.265 -3.492,-3.289 -4.44,-3.289 -0.358,0 -0.876,-0.308 -1.152,-0.685 -0.428,-0.585 -0.596,-0.606 -1.157,-0.14 -0.544,0.452 -0.825,0.456 -1.63,0.025 -0.768,-0.411 -1.097,-0.418 -1.561,-0.033 -0.43,0.358 -0.802,0.374 -1.387,0.061 -1.025,-0.549 -1.057,-0.545 -1.667,0.19 m 1.653,0.428 c 0.464,0.559 0.435,0.627 -0.218,0.5 -0.414,-0.08 -0.829,-0.371 -0.92,-0.646 -0.238,-0.714 0.504,-0.618 1.138,0.146 m -149.616,0.797 c -0.682,0.574 -1.44,1.416 -1.684,1.872 -0.244,0.457 0.293,0.055 1.194,-0.891 1.054,-1.109 1.856,-1.637 2.252,-1.485 0.339,0.13 0.616,0.062 0.616,-0.152 0,-0.709 -1.124,-0.399 -2.378,0.656 M 277.2,193.2 c 0,0.22 -0.371,0.4 -0.824,0.4 -0.453,0 -0.712,-0.18 -0.576,-0.4 0.136,-0.22 0.507,-0.4 0.824,-0.4 0.317,0 0.576,0.18 0.576,0.4 m 57.909,2.778 c 2.276,2.984 1.213,7.199 -2.39,9.473 -1.728,1.091 -2.449,0.997 -1.383,-0.18 1.128,-1.247 -0.04,-3.199 -1.66,-2.775 -0.468,0.122 -0.937,-0.102 -1.246,-0.596 -0.408,-0.653 -0.769,-0.748 -2.062,-0.541 -0.862,0.138 -1.568,0.104 -1.568,-0.074 0,-0.909 1.175,-1.285 4.017,-1.285 h 3.057 l 0.76,1.411 c 0.937,1.741 1.713,1.652 2.766,-0.316 l 0.8,-1.495 -0.8,-1.495 c -1.064,-1.99 -1.873,-2.08 -2.72,-0.303 l -0.682,1.429 -3.499,-0.115 c -2.788,-0.093 -3.499,-0.238 -3.499,-0.715 0,-0.442 0.372,-0.566 1.431,-0.475 0.931,0.08 1.611,-0.095 1.949,-0.501 0.285,-0.344 1.03,-0.625 1.655,-0.625 1.54,0 2.243,-1.268 1.383,-2.496 -1.611,-2.299 1.861,-0.725 3.691,1.674 m -160.707,-1.884 c 0.674,0.723 0.81,1.314 0.715,3.1 -0.144,2.711 -1.48,2.974 -3.782,0.743 C 169.65,196.304 169.66,196 171.4,196 c 1.333,0 1.4,-0.067 1.4,-1.4 0,-1.622 0.434,-1.759 1.602,-0.506 m 6.073,0.406 c 0.11,1.143 0.282,1.315 1.425,1.425 0.715,0.069 1.3,0.259 1.3,0.422 0,0.392 -2.386,2.63 -3.4,3.188 -0.531,0.293 -0.604,0.445 -0.217,0.453 0.598,0.012 3.617,2.74 3.617,3.268 0,0.161 -0.585,0.35 -1.3,0.419 -1.143,0.11 -1.315,0.282 -1.425,1.425 -0.19,1.971 -2.172,0.883 -2.145,-1.177 0.007,-0.507 0.031,-2.804 0.052,-5.104 0.032,-3.259 0.184,-4.339 0.691,-4.9 0.933,-1.031 1.259,-0.896 1.402,0.581 m -55.482,-0.489 c -0.139,0.225 -0.536,0.36 -0.882,0.3 -0.345,-0.061 -0.707,0.114 -0.803,0.389 -0.096,0.275 0.065,0.496 0.359,0.491 0.674,-0.011 2.701,-1.57 2.057,-1.582 -0.262,-0.005 -0.591,0.176 -0.731,0.402 M 270.2,194 c 0.144,0.233 -0.263,0.4 -0.976,0.4 -0.673,0 -1.224,-0.18 -1.224,-0.4 0,-0.22 0.439,-0.4 0.976,-0.4 0.537,0 1.088,0.18 1.224,0.4 m 9.4,0 c 0,0.22 -0.345,0.4 -0.767,0.4 -0.422,0 -1.091,0.124 -1.487,0.276 -0.643,0.247 -0.657,0.206 -0.133,-0.385 0.641,-0.721 2.387,-0.934 2.387,-0.291 m 41.071,0.965 c 1.533,1.781 1.19,2.413 -0.562,1.035 -1.118,-0.879 -1.919,-1.063 -1.471,-0.338 0.178,0.288 0.11,0.353 -0.183,0.172 -0.257,-0.159 -0.357,-0.469 -0.221,-0.688 0.135,-0.22 -0.087,-0.654 -0.494,-0.964 -0.676,-0.517 -0.622,-0.554 0.631,-0.431 0.881,0.086 1.704,0.52 2.3,1.214 m -211.96,1.578 c -1.381,1.399 -2.781,2.645 -3.111,2.769 -0.366,0.137 -0.405,0.237 -0.1,0.256 0.275,0.018 0.5,0.316 0.5,0.663 0,0.773 3.047,3.769 3.833,3.769 0.312,0 0.567,0.262 0.567,0.581 0,0.639 17.377,18.219 18.008,18.219 0.216,0 0.392,-0.165 0.392,-0.367 0,-0.202 0.11,-0.654 0.245,-1.005 0.171,-0.446 0.069,-0.57 -0.34,-0.413 -0.605,0.232 -21.905,-20.609 -21.905,-21.433 0,-0.23 0.405,-0.837 0.9,-1.349 3.264,-3.376 4.032,-4.233 3.793,-4.233 -0.149,0 -1.4,1.144 -2.782,2.543 m 16.749,-1.557 c -0.407,0.308 -0.623,0.751 -0.479,0.983 0.151,0.245 0.03,0.333 -0.289,0.211 -0.328,-0.126 -0.739,0.206 -1.021,0.823 -0.574,1.261 -0.625,2.254 -0.071,1.397 0.322,-0.498 0.391,-0.464 0.41,0.2 0.024,0.892 1.322,-1.543 1.368,-2.567 0.014,-0.312 0.275,-0.651 0.579,-0.752 0.379,-0.126 0.453,-0.01 0.235,0.367 -0.176,0.304 -0.166,0.412 0.022,0.24 1.086,-0.988 0.417,-1.789 -0.754,-0.902 m 2.445,0.097 c 0.497,0.096 1.217,0.092 1.6,-0.008 0.382,-0.1 -0.025,-0.179 -0.905,-0.174 -0.88,0.004 -1.193,0.086 -0.695,0.182 m 4.81,1.239 c 0.79,1.191 0.434,1.106 -0.745,-0.177 -0.534,-0.58 -0.715,-0.975 -0.404,-0.878 0.311,0.097 0.828,0.572 1.149,1.055 m 88.302,-0.75 c -0.114,0.185 0.15,0.431 0.587,0.545 0.438,0.114 0.796,0.064 0.796,-0.112 0,-0.47 -1.139,-0.827 -1.383,-0.433 m -133.902,1.339 c 0.462,0.926 0.481,1.244 0.09,1.486 -0.362,0.223 -0.384,0.511 -0.083,1.05 0.378,0.676 0.44,0.644 0.69,-0.353 0.151,-0.602 0.448,-1.094 0.66,-1.094 0.212,0 0.102,-0.283 -0.243,-0.629 -0.346,-0.345 -0.629,-0.855 -0.629,-1.133 0,-0.278 -0.241,-0.505 -0.536,-0.505 -0.437,0 -0.427,0.219 0.051,1.178 M 228.4,196.2 c 0,0.33 0.191,0.6 0.424,0.6 0.233,0 0.32,-0.166 0.195,-0.37 -0.126,-0.203 0.088,-0.452 0.476,-0.553 0.537,-0.14 0.49,-0.195 -0.195,-0.231 -0.554,-0.028 -0.9,0.185 -0.9,0.554 m -139.572,0.276 c 0.068,1.268 0.714,2.178 0.744,1.048 0.015,-0.592 -0.152,-1.188 -0.372,-1.324 -0.22,-0.136 -0.387,-0.012 -0.372,0.276 m 9.972,-0.242 c 0,0.235 0.45,0.849 1,1.366 0.55,0.517 1,0.81 1,0.652 0,-0.158 -0.45,-0.772 -1,-1.365 -0.55,-0.594 -1,-0.887 -1,-0.653 m 28.07,1.492 c -1.323,1.407 -0.001,5.938 1.341,4.596 0.118,-0.117 -0.242,-0.512 -0.799,-0.877 -1.414,-0.927 -1.373,-2.709 0.088,-3.799 0.605,-0.451 0.906,-0.826 0.67,-0.833 -0.237,-0.007 -0.822,0.404 -1.3,0.913 m 3.23,-0.122 c 1.67,1.31 1.365,3.205 -0.7,4.334 -0.44,0.241 -0.599,0.443 -0.354,0.45 2.851,0.078 3.277,-4.039 0.554,-5.357 -0.33,-0.16 -0.105,0.098 0.5,0.573 m 100.312,-0.08 c -0.007,0.292 -0.216,0.397 -0.474,0.238 -0.288,-0.178 -0.353,-0.11 -0.172,0.183 0.159,0.257 0.457,0.364 0.662,0.238 0.204,-0.127 0.372,-0.01 0.372,0.26 0,0.27 0.106,0.384 0.237,0.254 0.13,-0.13 0.045,-0.565 -0.188,-0.967 -0.251,-0.432 -0.43,-0.516 -0.437,-0.206 m 104.308,0.156 c 0.678,0.678 0.599,3.324 -0.118,3.918 -1.348,1.119 -2.56,-1.468 -1.516,-3.236 0.766,-1.297 0.944,-1.372 1.634,-0.682 m -165.656,0.897 c -0.265,0.691 0.149,3.544 0.468,3.225 0.371,-0.372 0.455,-3.802 0.092,-3.802 -0.186,0 -0.438,0.26 -0.56,0.577 m -67.703,0.5 c 0.243,0.767 -20.666,22.123 -21.66,22.123 -0.261,0 -1.11,-0.636 -1.888,-1.413 -0.777,-0.778 -1.413,-1.259 -1.413,-1.07 0,0.189 0.444,0.761 0.988,1.271 0.543,0.511 0.891,1.084 0.774,1.273 -0.117,0.19 0.056,0.614 0.384,0.942 0.641,0.641 1.454,0.798 1.454,0.281 C 80,222 101.896,200 102.378,200 c 0.69,0 0.481,-0.57 -0.413,-1.129 -0.743,-0.464 -0.809,-0.441 -0.604,0.206 m 16.732,0.523 c 0,0.77 0.082,1.085 0.183,0.7 0.1,-0.385 0.1,-1.015 0,-1.4 -0.101,-0.385 -0.183,-0.07 -0.183,0.7 M 134,199.741 c 0,1.423 -1.397,3.865 -2.4,4.195 -0.33,0.108 -0.015,-0.469 0.7,-1.283 0.932,-1.061 1.3,-1.874 1.3,-2.867 0,-0.762 0.09,-1.386 0.2,-1.386 0.11,0 0.2,0.603 0.2,1.341 m 69.2,-0.941 c 0,0.22 -0.27,0.4 -0.6,0.4 -0.33,0 -0.6,0.18 -0.6,0.4 0,0.22 0.156,0.4 0.346,0.4 0.19,0 2.305,2 4.7,4.444 2.395,2.444 4.694,4.739 5.108,5.1 0.415,0.361 1.225,1.184 1.8,1.83 1.613,1.811 4.611,4.612 4.946,4.619 0.165,0.004 0.303,0.322 0.306,0.707 0.005,0.53 0.088,0.572 0.341,0.173 0.327,-0.516 -2.433,-3.673 -3.211,-3.673 -0.185,0 -0.336,-0.154 -0.336,-0.342 0,-0.187 -2.878,-3.238 -6.395,-6.779 -4.43,-4.459 -6.322,-6.629 -6.157,-7.059 0.13,-0.341 0.128,-0.62 -0.005,-0.62 -0.134,0 -0.243,0.18 -0.243,0.4 m 57.4,0 -0.8,0.344 h 0.8 c 0.44,0 1.16,-0.155 1.6,-0.344 l 0.8,-0.344 h -0.8 c -0.44,0 -1.16,0.155 -1.6,0.344 m -141.4,0.813 c 0,0.213 0.504,0.387 1.12,0.387 0.616,0 1.336,0.216 1.6,0.48 0.365,0.365 0.48,0.367 0.48,0.008 0,-0.26 -0.495,-0.581 -1.1,-0.714 -0.605,-0.132 -1.325,-0.31 -1.6,-0.395 -0.275,-0.085 -0.5,0.02 -0.5,0.234 M 128,199.6 c 0,0.22 0.36,0.4 0.8,0.4 0.44,0 0.8,-0.18 0.8,-0.4 0,-0.22 -0.36,-0.4 -0.8,-0.4 -0.44,0 -0.8,0.18 -0.8,0.4 m 9.77,1.012 c -0.019,0.865 0.094,1.213 0.293,0.899 0.41,-0.645 0.436,-2.311 0.037,-2.31 -0.165,0.001 -0.314,0.636 -0.33,1.411 M 150.4,199.6 c 0,0.22 0.27,0.4 0.6,0.4 0.33,0 0.6,-0.18 0.6,-0.4 0,-0.22 -0.27,-0.4 -0.6,-0.4 -0.33,0 -0.6,0.18 -0.6,0.4 m 171.138,-0.047 c 0.323,0.205 -1.272,0.418 -4,0.535 -4.655,0.199 -5.698,0.095 -5.312,-0.53 0.282,-0.456 8.593,-0.46 9.312,-0.005 m -146.415,2.797 c 0.174,3.06 -2.115,5.685 -2.398,2.75 -0.11,-1.149 -0.288,-1.323 -1.525,-1.5 l -1.4,-0.2 1.768,-1.719 c 2.458,-2.39 3.39,-2.214 3.555,0.669 m 82.22,-1.745 c -0.251,0.652 0.493,1.795 1.168,1.795 0.227,0 0.097,-0.349 -0.288,-0.775 -0.386,-0.426 -0.583,-0.966 -0.439,-1.2 0.145,-0.234 0.157,-0.425 0.027,-0.425 -0.13,0 -0.341,0.272 -0.468,0.605 m 3.118,-0.251 c -0.679,0.43 -0.458,1.715 0.339,1.978 0.524,0.173 0.527,0.11 0.026,-0.497 -0.488,-0.591 -0.491,-0.748 -0.019,-1.039 0.374,-0.231 0.737,-0.083 1.115,0.456 0.706,1.008 0.406,1.308 -1.309,1.308 -2.881,0 -0.266,0.853 3.987,1.301 0.66,0.069 4.17,0.196 7.8,0.281 l 6.6,0.154 -5.6,-0.282 c -3.08,-0.155 -6.163,-0.473 -6.851,-0.706 -2.705,-0.917 -4.149,-1.806 -4.149,-2.554 0,-0.797 -0.99,-1.002 -1.939,-0.4 m 26.339,0.022 c 0,0.472 -0.78,0.977 -1.067,0.691 -0.286,-0.287 0.219,-1.067 0.691,-1.067 0.207,0 0.376,0.169 0.376,0.376 m -162.799,0.348 c 0,0.288 -0.181,0.412 -0.401,0.276 -0.796,-0.492 0.015,1.472 1.024,2.481 0.9,0.901 1.025,-0.581 0.168,-1.988 -0.434,-0.711 -0.79,-1.057 -0.791,-0.769 M 143,207.2 c -3.735,3.74 -6.666,6.8 -6.514,6.8 0.313,0 13.514,-13.089 13.514,-13.399 0,-0.393 -0.286,-0.124 -7,6.599 m 178.2,-6.433 c 0,0.202 -0.639,0.763 -1.421,1.246 -0.782,0.483 -1.321,0.978 -1.199,1.1 0.295,0.296 -0.985,1.689 -1.542,1.678 -0.241,-0.005 0.012,-0.361 0.562,-0.791 0.55,-0.43 0.799,-0.786 0.554,-0.791 -0.245,-0.005 -0.896,0.345 -1.446,0.778 -1.105,0.868 -1.811,0.659 -0.889,-0.263 0.957,-0.957 0.691,-1.268 -1.719,-2.013 l -2.3,-0.711 3,-0.228 c 5.074,-0.385 6.4,-0.386 6.4,-0.005 m -143.959,2.832 c -0.115,2.821 -0.175,3.013 -0.814,2.617 -0.776,-0.479 -0.544,-5.497 0.247,-5.345 0.562,0.108 0.656,0.558 0.567,2.728 M 122.4,201.922 c 0,0.204 0.4,0.879 0.89,1.501 0.833,1.059 0.839,1.112 0.1,0.825 -1.305,-0.508 -1.536,-0.478 -1.689,0.216 -0.189,0.861 2.395,3.443 4.257,4.253 1.122,0.488 1.275,0.665 0.69,0.795 -0.414,0.092 -0.864,0.012 -1,-0.176 -0.136,-0.189 -0.943,-0.702 -1.792,-1.14 -1.699,-0.876 -3.841,-3.158 -4.812,-5.127 -0.344,-0.698 -0.63,-0.989 -0.635,-0.647 -0.056,3.821 7.259,8.536 11.791,7.6 l 1.6,-0.33 -1.5,-0.046 c -1.032,-0.032 -1.5,-0.229 -1.5,-0.633 0,-0.361 -0.234,-0.498 -0.607,-0.355 -1.278,0.49 -4.811,-1.659 -5.837,-3.55 -0.328,-0.605 -0.224,-0.662 0.834,-0.45 1.309,0.262 1.597,-0.239 0.61,-1.058 -0.33,-0.274 -0.6,-0.735 -0.6,-1.025 0,-0.29 -0.18,-0.639 -0.4,-0.775 -0.22,-0.136 -0.4,-0.081 -0.4,0.122 m -62.113,1.015 c -0.214,0.543 -0.079,0.792 0.511,0.947 0.441,0.115 0.805,0.503 0.808,0.863 0.005,0.556 0.061,0.566 0.377,0.066 0.403,-0.637 -0.232,-1.754 -0.798,-1.404 -0.178,0.111 -0.388,-0.116 -0.467,-0.504 -0.132,-0.658 -0.161,-0.656 -0.431,0.032 m 76.319,0.551 -0.702,1.112 0.926,-0.889 c 0.509,-0.489 0.825,-0.989 0.702,-1.112 -0.123,-0.123 -0.54,0.277 -0.926,0.889 m 82.287,0.112 c 0,0.77 0.082,1.085 0.183,0.7 0.1,-0.385 0.1,-1.015 0,-1.4 -0.101,-0.385 -0.183,-0.07 -0.183,0.7 m 66.907,-0.8 c -0.504,0.217 -0.578,0.344 -0.2,0.344 0.33,0 0.96,-0.155 1.4,-0.344 0.504,-0.217 0.578,-0.344 0.2,-0.344 -0.33,0 -0.96,0.155 -1.4,0.344 m -67.8,0.424 c 0,0.233 -0.18,0.312 -0.4,0.176 -0.611,-0.377 -0.452,1.098 0.213,1.976 0.546,0.723 0.587,0.66 0.587,-0.9 0,-0.922 -0.09,-1.676 -0.2,-1.676 -0.11,0 -0.2,0.191 -0.2,0.424 m 14.134,0.422 c 0.14,0.525 0.258,1.14 0.261,1.367 0.003,0.227 0.5,0.432 1.105,0.455 0.605,0.024 0.796,-0.038 0.424,-0.137 -0.372,-0.099 -0.732,-0.65 -0.8,-1.225 -0.068,-0.574 -0.376,-1.127 -0.685,-1.229 -0.418,-0.137 -0.495,0.058 -0.305,0.769 m 49.066,-0.046 -1.8,0.28 1.8,0.032 c 0.99,0.017 2.16,-0.123 2.6,-0.312 l 0.8,-0.344 -0.8,0.032 c -0.44,0.018 -1.61,0.158 -2.6,0.312 m -26,0.413 c 0,0.226 0.312,0.532 0.693,0.678 0.381,0.146 2.091,1.689 3.8,3.428 1.709,1.739 3.107,3.012 3.107,2.829 0,-0.42 -6.875,-7.348 -7.292,-7.348 -0.169,0 -0.308,0.186 -0.308,0.413 m -127.4,0.387 0.8,0.344 -0.8,0.053 c -0.741,0.05 -0.733,0.08 0.1,0.416 1.093,0.439 1.967,0.159 1.967,-0.63 0,-0.407 -0.432,-0.575 -1.434,-0.555 -1.165,0.023 -1.283,0.092 -0.633,0.372 m 96.693,2 c 0,0.77 0.082,1.085 0.183,0.7 0.1,-0.385 0.1,-1.015 0,-1.4 -0.101,-0.385 -0.183,-0.07 -0.183,0.7 m -95.509,-0.373 c -0.425,0.686 -0.066,0.736 1.216,0.169 l 1.2,-0.531 -1.076,-0.033 c -0.592,-0.017 -1.195,0.16 -1.34,0.395 m 104.378,1.266 c -0.467,0.547 -0.515,0.704 -0.125,0.404 0.35,-0.27 0.755,-0.372 0.9,-0.227 0.145,0.145 0.263,-0.037 0.263,-0.403 0,-0.871 -0.126,-0.843 -1.038,0.226 m -166.359,2.702 c -0.392,0.634 0.681,1.558 1.222,1.053 0.339,-0.317 0.324,-0.556 -0.056,-0.937 -0.615,-0.614 -0.844,-0.637 -1.166,-0.116 m 65.585,7.617 c -1.743,1.753 -3.036,3.188 -2.872,3.188 0.4,0 6.4,-6.018 6.199,-6.218 -0.087,-0.087 -1.584,1.277 -3.327,3.03 m -59.545,-1.843 c 0.213,0.555 1.357,1.22 1.357,0.79 0,-0.281 -1.078,-1.359 -1.359,-1.359 -0.119,0 -0.118,0.256 0.002,0.569 M 220.4,217.14 c 0,0.952 1.038,2.324 1.435,1.898 0.289,-0.309 0.135,-0.716 -0.511,-1.354 -0.508,-0.502 -0.924,-0.746 -0.924,-0.544 m 50.573,2.26 c 0.77,0.77 1.532,1.4 1.692,1.4 0.161,0 -0.319,-0.63 -1.065,-1.4 -0.746,-0.77 -1.508,-1.4 -1.692,-1.4 -0.184,0 0.295,0.63 1.065,1.4"
         id="path4-3"
         inkscape:connector-curvature="0"
         style="fill:#b4baca;fill-rule:evenodd;stroke:none"
         sodipodi:nodetypes="cssccccscccscccccccscsscsscccccssccssscccsscsscssccssccscssscccssccscccsssssccssccsscccsccccccccsccccscccsccccccccssccsssccsccccsccsccscccccccscscsscccccccscccccscccccccccccsssccccscsscccccccsscccscccsccccccscccscsccscsccccccccssccsccccscccccccccssscccsccccccccsssccccsccscccccccccccssscccsccscsccccccccccccsccccsccccccccccccsccsccccccscsssccccscccccscccscccccccccsccccccccccccccsccsssccccccsssccccccccsccscccccsscccsccsccccccccsccccsssccsccccccccccccccsssssccscsccccccccccccccccccscccscccccscssccsccccccsccsscccccccccccccccccscccccccccsccscsccssscccccccccssccsssscccccssccscccsccsccssscsccsssccccccsssccccccccccccsccsccccccscccccscccscccccccssccsccsscscccccccccccccscccccccsccccsscccccccccccsccccccscsccccssccscscccccccccccsssscccccscccccccccccccssccccccscccssccccccsssc" />
    </g>
  </g>
</svg>
