<?xml version="1.0" encoding="UTF-8" standalone="no"?>
<svg
   xmlns:dc="http://purl.org/dc/elements/1.1/"
   xmlns:cc="http://creativecommons.org/ns#"
   xmlns:rdf="http://www.w3.org/1999/02/22-rdf-syntax-ns#"
   xmlns:svg="http://www.w3.org/2000/svg"
   xmlns="http://www.w3.org/2000/svg"
   xmlns:sodipodi="http://sodipodi.sourceforge.net/DTD/sodipodi-0.dtd"
   xmlns:inkscape="http://www.inkscape.org/namespaces/inkscape"
   id="svg"
   version="1.1"
   width="400"
   height="400"
   viewBox="0, 0, 400,400"
   sodipodi:docname="sword.svg"
   inkscape:version="0.92.4 (5da689c313, 2019-01-14)">
  <metadata
     id="metadata356">
    <rdf:RDF>
      <cc:Work
         rdf:about="">
        <dc:format>image/svg+xml</dc:format>
        <dc:type
           rdf:resource="http://purl.org/dc/dcmitype/StillImage" />
      </cc:Work>
    </rdf:RDF>
  </metadata>
  <defs
     id="defs354" />
  <sodipodi:namedview
     pagecolor="#ffffff"
     bordercolor="#666666"
     borderopacity="1"
     objecttolerance="10"
     gridtolerance="10"
     guidetolerance="10"
     inkscape:pageopacity="0"
     inkscape:pageshadow="2"
     inkscape:window-width="640"
     inkscape:window-height="480"
     id="namedview352"
     showgrid="false"
     inkscape:zoom="0.59"
     inkscape:cx="200"
     inkscape:cy="200"
     inkscape:window-x="0"
     inkscape:window-y="0"
     inkscape:window-maximized="0"
     inkscape:current-layer="svg" />
  <g
     id="svgg">
    <path
       id="path0"
       d="m -428.81356,206.77966 v 200 h 200 200.000001 v -200 V 6.779661 h -200.000001 -200 V 206.77966 m 187.692,6.767 c 0.797,1.138 60.326,1.303 61.577,0.17 0.681,-0.616 1.612,-0.678 8.448,-0.564 4.226,0.07 15.513,0.184 25.083,0.252 9.57,0.068 18.8,0.212 20.51,0.32 2.234,0.142 3.417,0.037 4.2,-0.371 2.534,-1.322 3.984,-0.114 2.285,1.905 -1.054,1.253 -1.682,1.717 -3.795,2.804 -0.55,0.283 -1.711,1.19 -2.581,2.016 -0.869,0.825 -1.949,1.503 -2.4,1.505 -0.45,0.002 -1.449,0.72 -2.219,1.596 -0.861,0.979 -1.752,1.594 -2.315,1.596 -0.521,0.002 -1.635,0.695 -2.581,1.604 -0.916,0.88 -1.996,1.6 -2.4,1.6 -0.404,0 -1.484,0.72 -2.4,1.6 l -1.665,1.6 h -52.381 -52.381 l -1.438,-1.515 c -0.792,-0.833 -1.889,-1.74 -2.439,-2.015 -1.984,-0.995 -2.839,-1.571 -3.332,-2.244 -0.43,-0.589 -1.225,-0.681 -5.621,-0.654 -4.802,0.03 -5.134,-0.018 -5.331,-0.77 -0.268,-1.027 -0.764,-1.028 -1.032,-0.002 -0.153,0.585 -0.546,0.8 -1.459,0.8 -1.568,0 -1.539,-0.109 -1.776,6.56 -0.205,5.795 -0.347,6.221 -2.069,6.234 -1.25,0.009 -1.78,-0.782 -1.78,-2.66 0,-1.296 -0.192,-1.809 -0.8,-2.134 -0.532,-0.285 -0.8,-0.838 -0.8,-1.651 0,-0.673 -0.36,-1.68 -0.8,-2.24 -0.459,-0.583 -0.8,-1.623 -0.8,-2.437 0,-2.651 -1.089,-3.271 -5.77,-3.281 -2.216,-0.005 -6.64,-0.306 -9.83,-0.669 -3.19,-0.364 -8.68,-0.675 -12.2,-0.691 l -6.4,-0.031 -0.124,1.071 c -0.191,1.658 -0.907,1.977 -4.139,1.847 l -2.937,-0.118 -0.114,-4.142 c -0.122,-4.413 0.078,-5.036 1.84,-5.706 0.729,-0.277 1.283,-0.165 2.305,0.467 2.041,1.261 33.489,1.233 34.666,-0.031 0.707,-0.759 1.332,-0.788 16.874,-0.788 15.463,0 16.18,-0.033 17.085,-0.787 1.207,-1.006 2.55,-1.025 3.236,-0.046 m -33.692,4.766 c 0,1.866 0.355,2.31 1.051,1.316 0.416,-0.595 0.424,-0.958 0.036,-1.794 -0.688,-1.482 -1.087,-1.307 -1.087,0.478 m 11.354,-0.958 c -0.315,0.821 0.129,1.944 0.643,1.627 0.222,-0.137 0.403,-0.588 0.403,-1.002 0,-0.985 -0.738,-1.427 -1.046,-0.625 m -5.298,0.683 c -0.378,0.606 -0.389,0.941 -0.046,1.354 0.57,0.687 0.133,2.188 -0.637,2.188 -0.315,0 -0.573,0.18 -0.573,0.4 0,0.784 1.69,0.383 2.799,-0.664 1.214,-1.145 1.183,-1.682 -0.179,-3.153 -0.854,-0.92 -0.866,-0.921 -1.364,-0.125 m -42.538,1.257 c -0.384,2.01 0.565,2.57 1.211,0.716 0.327,-0.936 0.288,-1.216 -0.193,-1.4 -0.839,-0.322 -0.823,-0.333 -1.018,0.684 m 30.082,0.061 c 0,1.176 0.375,1.46 1.531,1.158 1.456,-0.381 1.184,-2.134 -0.331,-2.134 -1.006,0 -1.2,0.158 -1.2,0.976 m 23.962,-0.804 c -0.322,0.321 0.117,3.828 0.478,3.828 0.198,0 0.36,-0.9 0.36,-2 0,-1.761 -0.285,-2.382 -0.838,-1.828 m 3.504,2.297 c -0.359,1.373 0.112,1.635 1.158,0.643 1.217,-1.153 1.222,-1.512 0.023,-1.512 -0.643,0 -1.028,0.284 -1.181,0.869 m 108.693,-0.307 c -0.871,2.271 1.147,4.682 2.228,2.662 0.295,-0.551 0.839,-0.824 1.64,-0.824 1.153,0 2.188,-1.276 1.702,-2.1 -0.34,-0.577 -5.338,-0.342 -5.57,0.262 m -81.522,5.197 c -0.125,0.463 -0.229,0.976 -0.232,1.141 -0.008,0.452 14.706,0.368 14.986,-0.085 0.131,-0.212 -0.115,-0.739 -0.547,-1.171 -1.249,-1.249 -13.869,-1.146 -14.207,0.115 m 21.474,-0.017 c -1.391,1.482 -1.836,1.458 26.732,1.458 27.349,0 28.25,-0.05 26.645,-1.468 -0.86,-0.759 -1.69,-0.786 -26.688,-0.86 l -25.8,-0.077 -0.889,0.947"
       inkscape:connector-curvature="0"
       style="fill:#fbfbfb;fill-rule:evenodd;stroke:none" />
    <path
       id="path1"
       d="M222.700 208.303 C 205.096 208.370,195.600 208.545,195.600 208.803 C 195.600 209.021,195.863 209.200,196.185 209.200 C 196.507 209.200,197.902 210.213,199.285 211.450 C 200.668 212.688,202.209 213.889,202.710 214.119 C 203.210 214.349,203.990 215.136,204.442 215.869 L 205.265 217.200 211.153 217.200 C 217.468 217.200,218.000 217.355,218.000 219.200 C 218.000 221.107,217.590 221.200,209.196 221.200 C 200.524 221.200,199.076 220.884,200.505 219.305 C 201.686 218.000,199.178 213.200,197.316 213.200 C 197.036 213.200,194.830 210.775,193.881 209.423 C 192.393 207.304,189.842 207.919,187.000 211.081 C 185.680 212.550,184.195 214.144,183.700 214.622 C 183.205 215.100,182.800 215.660,182.800 215.865 C 182.800 216.070,182.080 216.941,181.200 217.800 C 179.228 219.726,179.217 219.554,181.432 221.768 L 183.263 223.600 234.668 223.600 C 285.468 223.600,286.086 223.591,287.091 222.800 C 287.650 222.360,288.334 222.000,288.611 222.000 C 288.888 222.000,289.216 221.736,289.340 221.413 C 289.464 221.090,290.158 220.553,290.883 220.221 C 292.722 219.376,293.701 218.715,294.317 217.900 C 294.607 217.515,295.279 217.200,295.809 217.200 C 296.362 217.200,296.954 216.860,297.200 216.400 C 297.435 215.960,297.849 215.600,298.118 215.600 C 298.387 215.600,298.809 215.285,299.055 214.900 C 299.302 214.515,300.355 213.750,301.396 213.200 C 302.437 212.650,304.033 211.525,304.944 210.700 C 305.862 209.868,307.015 209.200,307.533 209.200 C 308.047 209.200,308.405 209.016,308.331 208.792 C 308.182 208.345,269.637 208.125,222.700 208.303 M155.091 208.643 C 154.195 209.538,156.370 210.452,157.792 209.777 C 158.849 209.275,159.110 208.989,158.728 208.747 C 158.118 208.360,155.450 208.283,155.091 208.643 M160.600 208.800 C 160.464 209.020,160.633 209.200,160.976 209.200 C 161.319 209.200,161.600 209.381,161.600 209.603 C 161.600 209.824,162.050 210.397,162.600 210.875 C 163.187 211.385,163.600 212.174,163.600 212.783 C 163.600 213.355,163.960 214.130,164.400 214.507 C 164.840 214.884,165.200 215.644,165.200 216.196 C 165.200 217.032,165.390 217.200,166.333 217.200 C 167.857 217.200,168.194 216.770,167.098 216.226 C 166.565 215.962,166.149 215.338,166.073 214.691 C 166.004 214.091,165.599 213.413,165.173 213.186 C 164.649 212.905,164.400 212.347,164.400 211.456 C 164.400 209.375,161.498 207.347,160.600 208.800 M165.200 208.838 C 165.200 209.037,165.729 209.200,166.376 209.200 C 167.825 209.200,168.010 209.484,168.179 211.966 C 168.335 214.269,168.509 214.631,169.594 214.914 C 170.488 215.148,170.738 214.098,169.971 213.331 C 169.371 212.731,169.675 210.345,170.400 209.969 C 170.730 209.798,171.326 209.556,171.725 209.432 C 172.124 209.307,172.339 209.025,172.202 208.804 C 171.894 208.305,165.200 208.338,165.200 208.838 M175.026 208.758 C 174.904 208.955,175.074 209.219,175.402 209.346 C 175.731 209.472,176.003 209.896,176.006 210.287 C 176.021 212.055,176.689 212.175,178.112 210.666 C 178.872 209.860,179.799 209.200,180.171 209.200 C 180.543 209.200,180.736 209.020,180.600 208.800 C 180.293 208.304,175.330 208.266,175.026 208.758 M182.558 208.706 C 182.315 208.868,181.865 209.479,181.558 210.064 C 181.008 211.112,179.221 213.362,177.136 215.631 C 176.153 216.702,175.946 218.400,176.798 218.400 C 177.250 218.400,180.400 215.264,180.400 214.815 C 180.400 214.602,180.760 214.235,181.200 214.000 C 181.640 213.765,182.000 213.373,182.000 213.129 C 182.000 212.886,182.824 211.722,183.831 210.543 L 185.662 208.400 184.331 208.406 C 183.599 208.409,182.801 208.544,182.558 208.706 M112.900 209.847 C 112.554 209.999,112.400 211.168,112.400 213.654 L 112.400 217.242 114.500 217.121 L 116.600 217.000 116.458 213.600 C 116.380 211.730,116.268 210.147,116.208 210.083 C 115.969 209.826,113.369 209.640,112.900 209.847 M150.439 209.968 C 149.992 210.250,150.172 210.635,151.317 211.850 C 152.600 213.210,152.789 213.295,153.044 212.630 C 153.224 212.159,153.112 211.721,152.740 211.442 C 152.416 211.199,152.032 210.685,151.888 210.300 C 151.595 209.519,151.266 209.444,150.439 209.968 M120.286 210.300 C 120.197 210.465,120.203 211.337,120.298 212.237 L 120.472 213.874 132.687 214.121 C 142.881 214.327,145.014 214.470,145.582 214.984 C 145.963 215.328,146.988 215.600,147.908 215.600 C 149.881 215.600,150.657 214.813,148.724 214.772 C 146.307 214.721,145.800 214.303,145.800 212.369 C 145.800 210.646,145.778 210.619,144.200 210.334 C 142.062 209.949,120.491 209.918,120.286 210.300 M173.533 211.808 C 173.174 212.357,172.988 216.722,173.310 217.043 C 173.815 217.549,174.919 216.825,174.469 216.283 C 174.237 216.004,173.992 214.791,173.924 213.588 C 173.856 212.385,173.680 211.584,173.533 211.808 M290.567 212.643 C 291.951 213.174,289.854 216.400,288.125 216.400 C 287.632 216.400,287.048 216.736,286.828 217.147 C 286.339 218.061,284.097 218.579,283.343 217.952 C 282.662 217.387,282.614 213.546,283.280 212.880 C 283.780 212.380,289.404 212.197,290.567 212.643 M186.800 215.400 C 186.800 215.730,186.620 216.000,186.400 216.000 C 186.180 216.000,186.000 215.730,186.000 215.400 C 186.000 215.070,186.180 214.800,186.400 214.800 C 186.620 214.800,186.800 215.070,186.800 215.400 M218.800 215.800 C 218.800 216.350,218.620 216.800,218.400 216.800 C 218.180 216.800,218.000 216.350,218.000 215.800 C 218.000 215.250,218.180 214.800,218.400 214.800 C 218.620 214.800,218.800 215.250,218.800 215.800 M153.946 216.100 C 153.743 217.992,154.168 220.282,154.840 220.916 C 155.336 221.382,155.600 222.177,155.600 223.202 C 155.600 224.362,155.809 224.883,156.400 225.200 C 156.993 225.518,157.200 226.038,157.200 227.214 C 157.200 229.224,157.883 229.282,158.215 227.300 C 158.353 226.475,158.721 224.872,159.033 223.738 C 160.131 219.746,159.775 217.355,158.190 218.078 C 156.696 218.758,155.214 218.171,154.938 216.789 C 154.701 215.604,154.048 215.150,153.946 216.100 M161.698 216.266 C 161.067 216.520,161.450 217.200,162.224 217.200 C 162.541 217.200,162.800 216.930,162.800 216.600 C 162.800 215.983,162.571 215.914,161.698 216.266 M278.193 217.850 C 278.588 218.245,278.795 218.991,278.722 219.750 L 278.600 221.000 250.844 221.103 C 230.674 221.177,222.940 221.082,222.544 220.754 C 221.764 220.106,221.873 218.927,222.800 218.000 C 223.928 216.872,277.071 216.728,278.193 217.850 "
       stroke="none"
       fill="#060606"
       fill-rule="evenodd" />
    <path
       id="path2"
       d="M187.074 207.162 C 187.211 207.685,186.757 208.443,185.637 209.563 C 184.737 210.463,184.000 211.311,184.000 211.447 C 184.000 211.584,184.580 211.127,185.290 210.434 C 186.439 209.311,186.611 209.251,186.862 209.886 C 187.109 210.511,187.147 210.517,187.172 209.933 C 187.187 209.567,187.425 209.176,187.700 209.065 C 188.002 208.943,188.024 208.851,187.755 208.832 C 187.507 208.814,187.391 208.380,187.493 207.847 C 187.593 207.323,187.495 206.782,187.275 206.646 C 187.040 206.501,186.957 206.714,187.074 207.162 M309.600 206.813 C 310.123 207.163,310.111 207.267,309.500 207.627 C 309.115 207.854,308.800 208.218,308.800 208.435 C 308.800 208.653,309.179 208.478,309.643 208.046 C 310.479 207.267,310.390 206.394,309.476 206.406 C 309.187 206.410,309.236 206.570,309.600 206.813 M249.845 207.128 C 249.733 207.308,250.173 207.377,250.821 207.282 C 251.470 207.187,252.000 207.040,252.000 206.955 C 252.000 206.650,250.043 206.807,249.845 207.128 M253.300 207.487 C 253.905 207.578,254.895 207.578,255.500 207.487 C 256.105 207.395,255.610 207.320,254.400 207.320 C 253.190 207.320,252.695 207.395,253.300 207.487 M258.100 207.476 C 258.485 207.576,259.115 207.576,259.500 207.476 C 259.885 207.375,259.570 207.293,258.800 207.293 C 258.030 207.293,257.715 207.375,258.100 207.476 M262.700 207.482 C 263.195 207.578,264.005 207.578,264.500 207.482 C 264.995 207.387,264.590 207.309,263.600 207.309 C 262.610 207.309,262.205 207.387,262.700 207.482 M270.505 207.487 C 271.114 207.579,272.014 207.577,272.505 207.482 C 272.997 207.387,272.500 207.311,271.400 207.314 C 270.300 207.317,269.897 207.395,270.505 207.487 M279.100 207.482 C 279.595 207.578,280.405 207.578,280.900 207.482 C 281.395 207.387,280.990 207.309,280.000 207.309 C 279.010 207.309,278.605 207.387,279.100 207.482 M285.300 207.491 C 286.125 207.578,287.475 207.578,288.300 207.491 C 289.125 207.405,288.450 207.334,286.800 207.334 C 285.150 207.334,284.475 207.405,285.300 207.491 M293.100 207.493 C 294.035 207.577,295.565 207.577,296.500 207.493 C 297.435 207.409,296.670 207.340,294.800 207.340 C 292.930 207.340,292.165 207.409,293.100 207.493 M190.500 207.876 C 190.885 207.976,191.515 207.976,191.900 207.876 C 192.285 207.775,191.970 207.693,191.200 207.693 C 190.430 207.693,190.115 207.775,190.500 207.876 M301.300 207.876 C 301.685 207.976,302.315 207.976,302.700 207.876 C 303.085 207.775,302.770 207.693,302.000 207.693 C 301.230 207.693,300.915 207.775,301.300 207.876 M173.200 209.354 C 173.200 210.484,174.978 211.883,175.447 211.123 C 175.614 210.853,175.370 210.412,174.868 210.079 C 174.391 209.762,174.000 209.254,174.000 208.951 C 174.000 208.648,173.820 208.400,173.600 208.400 C 173.380 208.400,173.200 208.829,173.200 209.354 M153.225 209.576 C 152.760 209.870,152.742 210.117,153.127 210.870 C 153.572 211.737,153.589 211.741,153.385 210.930 C 153.238 210.348,153.403 209.921,153.882 209.642 C 154.277 209.412,154.420 209.222,154.200 209.218 C 153.980 209.215,153.541 209.376,153.225 209.576 M145.900 209.889 C 146.615 209.978,147.785 209.978,148.500 209.889 C 149.215 209.801,148.630 209.728,147.200 209.728 C 145.770 209.728,145.185 209.801,145.900 209.889 M159.513 210.259 C 159.151 210.621,158.167 211.050,157.327 211.213 L 155.800 211.508 157.251 211.554 C 158.144 211.582,158.908 211.352,159.237 210.955 C 159.531 210.601,160.138 210.162,160.586 209.981 C 161.132 209.759,161.198 209.642,160.786 209.625 C 160.448 209.611,159.875 209.896,159.513 210.259 M166.475 209.848 C 166.847 209.958,167.236 210.443,167.341 210.925 C 167.500 211.658,167.520 211.639,167.466 210.804 C 167.421 210.128,167.143 209.782,166.600 209.727 C 166.024 209.669,165.989 209.702,166.475 209.848 M118.000 210.304 C 118.000 210.471,118.364 210.835,118.809 211.113 C 119.559 211.581,119.581 211.559,119.113 210.809 C 118.609 210.003,118.000 209.726,118.000 210.304 M196.800 210.370 C 196.800 210.591,197.160 210.965,197.600 211.200 C 198.671 211.773,198.629 212.553,197.542 212.269 C 196.951 212.114,196.813 212.173,197.099 212.459 C 197.327 212.687,198.070 212.912,198.749 212.959 L 199.984 213.045 199.131 212.222 C 198.661 211.770,197.945 211.078,197.539 210.684 C 197.132 210.291,196.800 210.150,196.800 210.370 M147.149 211.500 C 146.671 212.109,146.678 212.140,147.200 211.738 C 147.530 211.484,148.250 211.194,148.800 211.093 L 149.800 210.909 148.749 210.854 C 148.170 210.824,147.452 211.114,147.149 211.500 M162.048 211.400 C 162.404 211.840,162.795 212.470,162.916 212.800 C 163.103 213.309,163.142 213.304,163.168 212.762 C 163.186 212.411,162.795 211.781,162.300 211.362 C 161.408 210.606,161.406 210.607,162.048 211.400 M170.386 211.417 C 169.969 211.919,169.971 212.124,170.396 212.517 C 170.810 212.900,170.851 212.884,170.598 212.439 C 170.392 212.079,170.541 211.686,171.015 211.339 C 171.421 211.043,171.561 210.800,171.325 210.800 C 171.090 210.800,170.668 211.078,170.386 211.417 M178.205 211.347 C 177.834 211.618,177.491 212.417,177.443 213.123 C 177.394 213.829,177.456 214.270,177.580 214.103 C 177.704 213.936,178.311 213.239,178.928 212.552 C 180.130 211.215,179.598 210.328,178.205 211.347 M116.909 213.200 C 116.909 214.190,116.987 214.595,117.082 214.100 C 117.178 213.605,117.178 212.795,117.082 212.300 C 116.987 211.805,116.909 212.210,116.909 213.200 M179.200 211.751 C 179.200 211.834,178.930 212.126,178.600 212.400 C 178.109 212.808,178.000 212.780,178.000 212.249 C 178.000 211.892,178.270 211.600,178.600 211.600 C 178.930 211.600,179.200 211.668,179.200 211.751 M183.012 212.542 C 182.427 212.969,182.471 213.023,183.370 212.984 C 184.609 212.930,185.047 212.580,184.256 212.277 C 183.938 212.155,183.378 212.274,183.012 212.542 M156.978 212.970 C 156.550 213.207,156.154 213.416,156.098 213.435 C 155.844 213.523,157.297 216.000,157.602 216.000 C 157.791 216.000,158.060 215.640,158.200 215.200 C 158.340 214.760,158.667 214.387,158.927 214.372 C 159.187 214.356,159.040 214.195,158.600 214.014 C 157.836 213.699,157.844 213.667,158.779 213.304 L 159.759 212.924 158.757 212.732 C 158.206 212.627,157.406 212.734,156.978 212.970 M150.928 213.300 C 151.128 213.866,150.929 214.011,149.887 214.060 C 148.678 214.116,148.666 214.130,149.700 214.287 C 150.383 214.390,150.800 214.701,150.800 215.107 C 150.800 215.615,150.907 215.653,151.280 215.280 C 151.907 214.653,153.079 214.665,153.335 215.300 C 153.461 215.612,153.549 215.549,153.568 215.133 C 153.586 214.767,153.825 214.361,154.100 214.231 C 154.375 214.101,154.113 214.088,153.518 214.201 C 152.739 214.349,152.192 214.154,151.559 213.503 C 150.888 212.812,150.740 212.764,150.928 213.300 M162.598 214.404 C 162.463 214.622,162.531 214.800,162.749 214.800 C 162.966 214.800,163.206 215.205,163.280 215.700 C 163.410 216.557,163.427 216.561,163.648 215.788 C 163.900 214.904,163.012 213.734,162.598 214.404 M131.300 214.676 C 131.685 214.776,132.315 214.776,132.700 214.676 C 133.085 214.575,132.770 214.493,132.000 214.493 C 131.230 214.493,130.915 214.575,131.300 214.676 M200.076 214.766 C 200.168 215.077,200.684 215.606,201.222 215.941 C 201.980 216.414,202.065 216.421,201.600 215.975 C 201.270 215.659,200.754 215.130,200.454 214.800 C 200.015 214.317,199.941 214.310,200.076 214.766 M142.300 215.482 C 142.795 215.578,143.605 215.578,144.100 215.482 C 144.595 215.387,144.190 215.309,143.200 215.309 C 142.210 215.309,141.805 215.387,142.300 215.482 M202.800 215.360 C 202.800 216.007,203.618 217.121,204.279 217.375 C 204.805 217.577,204.732 217.362,203.991 216.522 C 203.446 215.905,202.955 215.325,202.900 215.233 C 202.845 215.142,202.800 215.199,202.800 215.360 M179.772 216.120 C 179.068 216.514,179.012 218.000,179.701 218.000 C 179.977 218.000,180.670 217.505,181.241 216.900 L 182.279 215.800 181.311 215.800 C 180.779 215.800,180.086 215.944,179.772 216.120 M159.200 216.600 C 158.650 216.914,158.380 217.172,158.600 217.172 C 158.820 217.172,159.450 216.914,160.000 216.600 C 160.550 216.286,160.820 216.028,160.600 216.028 C 160.380 216.028,159.750 216.286,159.200 216.600 M171.200 216.600 C 171.200 216.930,171.365 217.200,171.567 217.200 C 171.769 217.200,172.264 217.318,172.667 217.462 C 173.218 217.660,173.161 217.510,172.439 216.862 C 171.297 215.838,171.200 215.817,171.200 216.600 M180.708 216.875 C 180.461 217.617,179.600 217.740,179.600 217.033 C 179.600 216.685,179.885 216.400,180.233 216.400 C 180.582 216.400,180.795 216.614,180.708 216.875 M207.305 217.887 C 207.914 217.979,208.814 217.977,209.305 217.882 C 209.797 217.787,209.300 217.711,208.200 217.714 C 207.100 217.717,206.697 217.795,207.305 217.887 M243.705 217.887 C 244.314 217.979,245.214 217.977,245.705 217.882 C 246.197 217.787,245.700 217.711,244.600 217.714 C 243.500 217.717,243.097 217.795,243.705 217.887 M265.682 217.896 C 267.158 217.973,269.678 217.973,271.282 217.897 C 272.887 217.821,271.680 217.758,268.600 217.758 C 265.520 217.757,264.207 217.819,265.682 217.896 M177.866 218.700 C 177.766 218.865,177.935 219.232,178.242 219.516 C 178.706 219.944,178.800 219.893,178.800 219.216 C 178.800 218.419,178.227 218.103,177.866 218.700 M158.884 228.317 C 158.948 229.242,159.143 229.999,159.318 229.999 C 159.493 230.000,159.514 229.325,159.365 228.500 C 158.987 226.406,158.747 226.315,158.884 228.317 "
       stroke="none"
       fill="#8c8c8c"
       fill-rule="evenodd" />
    <path
       id="path3"
       d="M185.512 206.945 C 184.553 207.904,182.340 208.302,179.111 208.094 C 174.424 207.794,172.665 208.616,174.868 210.079 C 175.370 210.412,175.614 210.853,175.447 211.123 C 174.990 211.863,173.200 210.487,173.200 209.397 C 173.200 208.896,172.915 208.376,172.567 208.243 C 171.418 207.802,164.983 207.977,164.497 208.463 C 164.146 208.814,163.893 208.809,163.453 208.444 C 162.531 207.679,153.423 208.102,151.400 209.004 C 149.961 209.646,148.264 209.722,134.535 209.759 C 118.586 209.802,118.351 209.824,119.315 211.200 C 119.643 211.668,119.829 212.368,119.728 212.754 C 119.383 214.072,120.510 214.291,129.000 214.559 C 140.655 214.927,144.398 215.171,145.230 215.616 C 146.029 216.044,149.186 216.134,150.167 215.757 C 151.419 215.277,150.861 214.400,149.300 214.394 C 147.305 214.386,146.709 213.945,146.868 212.597 C 147.145 210.252,149.695 210.228,150.950 212.559 C 152.729 215.863,154.250 214.382,153.009 210.555 C 152.820 209.971,152.931 209.635,153.368 209.468 C 154.256 209.127,155.127 209.540,155.412 210.437 C 155.741 211.474,157.971 211.453,159.309 210.400 C 160.617 209.371,160.601 209.368,161.994 210.900 C 163.188 212.213,163.695 214.800,162.758 214.800 C 162.515 214.800,161.786 215.245,161.140 215.789 C 158.505 218.006,155.847 218.066,155.291 215.919 C 154.872 214.304,153.796 213.965,153.451 215.341 C 153.080 216.819,153.608 220.041,154.452 221.447 C 154.863 222.133,155.200 223.140,155.200 223.685 C 155.200 224.230,155.560 225.002,156.000 225.400 C 156.440 225.798,156.802 226.591,156.805 227.162 C 156.816 229.161,157.250 230.050,158.152 229.920 C 158.797 229.827,158.972 229.558,158.882 228.799 C 158.817 228.249,158.964 227.076,159.208 226.190 C 159.453 225.305,159.776 222.965,159.927 220.990 L 160.200 217.400 161.600 217.400 C 162.887 217.400,163.010 217.295,163.125 216.100 C 163.290 214.395,163.895 214.451,164.642 216.240 C 165.226 217.637,165.294 217.673,166.922 217.442 C 167.845 217.311,169.203 217.210,169.940 217.217 L 171.279 217.230 170.995 215.115 C 170.838 213.952,170.529 212.775,170.306 212.500 C 169.730 211.788,170.657 210.800,171.900 210.800 C 172.902 210.800,172.903 210.801,172.717 214.009 C 172.535 217.156,173.426 218.707,174.691 217.442 C 174.830 217.303,175.453 217.676,176.075 218.272 C 176.951 219.111,177.313 219.247,177.683 218.877 C 178.426 218.134,178.800 218.309,178.800 219.400 C 178.800 219.950,178.987 220.400,179.215 220.400 C 179.443 220.400,180.419 221.212,181.384 222.204 L 183.137 224.009 235.079 223.904 C 280.554 223.813,287.110 223.725,287.748 223.200 C 288.148 222.870,288.863 222.223,289.338 221.762 C 289.812 221.301,290.663 220.811,291.228 220.673 C 291.793 220.534,292.909 219.786,293.708 219.010 C 294.507 218.235,295.484 217.599,295.880 217.598 C 296.276 217.597,297.320 216.931,298.200 216.119 C 299.080 215.306,300.604 214.212,301.586 213.686 C 302.569 213.161,303.741 212.333,304.192 211.847 C 304.642 211.361,305.863 210.550,306.905 210.046 C 307.947 209.541,308.800 208.884,308.800 208.584 C 308.800 208.285,309.114 207.864,309.497 207.650 C 310.740 206.954,309.677 206.683,308.117 207.297 C 307.074 207.708,305.476 207.860,303.000 207.785 C 298.556 207.651,258.932 207.696,222.634 207.876 C 203.015 207.974,195.315 208.138,194.917 208.469 C 194.503 208.812,194.251 208.811,193.903 208.463 C 192.787 207.347,187.200 208.411,187.200 209.740 C 187.200 210.079,185.444 212.090,183.300 214.204 C 182.805 214.692,182.400 215.222,182.400 215.382 C 182.400 215.888,180.223 218.000,179.701 218.000 C 178.687 218.000,179.252 216.561,180.800 215.200 C 181.676 214.430,182.394 213.639,182.396 213.442 C 182.398 213.245,182.762 212.705,183.206 212.242 C 186.494 208.804,187.234 207.873,187.125 207.309 C 186.952 206.420,186.206 206.251,185.512 206.945 M308.331 208.792 C 308.405 209.016,308.047 209.200,307.533 209.200 C 307.015 209.200,305.862 209.868,304.944 210.700 C 304.033 211.525,302.437 212.650,301.396 213.200 C 300.355 213.750,299.302 214.515,299.055 214.900 C 298.809 215.285,298.387 215.600,298.118 215.600 C 297.849 215.600,297.435 215.960,297.200 216.400 C 296.954 216.860,296.362 217.200,295.809 217.200 C 295.279 217.200,294.607 217.515,294.317 217.900 C 293.701 218.715,292.722 219.376,290.883 220.221 C 290.158 220.553,289.464 221.090,289.340 221.413 C 289.216 221.736,288.888 222.000,288.611 222.000 C 288.334 222.000,287.650 222.360,287.091 222.800 C 286.086 223.591,285.468 223.600,234.668 223.600 L 183.263 223.600 181.432 221.768 C 179.217 219.554,179.228 219.726,181.200 217.800 C 182.080 216.941,182.800 216.070,182.800 215.865 C 182.800 215.660,183.205 215.100,183.700 214.622 C 184.195 214.144,185.680 212.550,187.000 211.081 C 189.842 207.919,192.393 207.304,193.881 209.423 C 194.830 210.775,197.036 213.200,197.316 213.200 C 199.178 213.200,201.686 218.000,200.505 219.305 C 199.076 220.884,200.524 221.200,209.196 221.200 C 217.590 221.200,218.000 221.107,218.000 219.200 C 218.000 217.355,217.468 217.200,211.153 217.200 L 205.265 217.200 204.442 215.869 C 203.990 215.136,203.210 214.349,202.710 214.119 C 202.209 213.889,200.668 212.688,199.285 211.450 C 197.902 210.213,196.507 209.200,196.185 209.200 C 195.863 209.200,195.600 209.021,195.600 208.803 C 195.600 208.044,308.078 208.033,308.331 208.792 M158.728 208.747 C 159.110 208.989,158.849 209.275,157.792 209.777 C 156.370 210.452,154.195 209.538,155.091 208.643 C 155.450 208.283,158.118 208.360,158.728 208.747 M163.474 209.270 C 164.078 209.837,164.400 210.597,164.400 211.456 C 164.400 212.347,164.649 212.905,165.173 213.186 C 165.599 213.413,166.004 214.091,166.073 214.691 C 166.149 215.338,166.565 215.962,167.098 216.226 C 168.194 216.770,167.857 217.200,166.333 217.200 C 165.390 217.200,165.200 217.032,165.200 216.196 C 165.200 215.644,164.840 214.884,164.400 214.507 C 163.960 214.130,163.600 213.355,163.600 212.783 C 163.600 212.174,163.187 211.385,162.600 210.875 C 162.050 210.397,161.600 209.824,161.600 209.603 C 161.600 209.381,161.319 209.200,160.976 209.200 C 160.633 209.200,160.464 209.020,160.600 208.800 C 161.022 208.117,162.505 208.359,163.474 209.270 M172.202 208.804 C 172.339 209.025,172.124 209.307,171.725 209.432 C 171.326 209.556,170.730 209.798,170.400 209.969 C 169.675 210.345,169.371 212.731,169.971 213.331 C 170.738 214.098,170.488 215.148,169.594 214.914 C 168.509 214.631,168.335 214.269,168.179 211.966 C 168.010 209.484,167.825 209.200,166.376 209.200 C 165.729 209.200,165.200 209.037,165.200 208.838 C 165.200 208.338,171.894 208.305,172.202 208.804 M180.600 208.800 C 180.736 209.020,180.543 209.200,180.171 209.200 C 179.799 209.200,178.872 209.860,178.112 210.666 C 176.689 212.175,176.021 212.055,176.006 210.287 C 176.003 209.896,175.731 209.472,175.402 209.346 C 175.074 209.219,174.904 208.955,175.026 208.758 C 175.330 208.266,180.293 208.304,180.600 208.800 M183.831 210.543 C 182.824 211.722,182.000 212.886,182.000 213.129 C 182.000 213.373,181.640 213.765,181.200 214.000 C 180.760 214.235,180.400 214.602,180.400 214.815 C 180.400 215.264,177.250 218.400,176.798 218.400 C 175.946 218.400,176.153 216.702,177.136 215.631 C 179.221 213.362,181.008 211.112,181.558 210.064 C 182.286 208.676,182.726 208.414,184.331 208.406 L 185.662 208.400 183.831 210.543 M112.826 209.500 C 112.041 210.138,111.975 210.520,112.082 213.800 L 112.200 217.400 114.288 217.520 C 117.316 217.695,118.125 217.173,117.320 215.560 C 116.868 214.654,116.769 213.725,116.955 212.140 L 117.211 209.964 115.818 209.382 C 114.053 208.644,113.872 208.651,112.826 209.500 M116.208 210.083 C 116.268 210.147,116.380 211.730,116.458 213.600 L 116.600 217.000 114.500 217.121 L 112.400 217.242 112.400 213.654 C 112.400 211.168,112.554 209.999,112.900 209.847 C 113.369 209.640,115.969 209.826,116.208 210.083 M151.888 210.300 C 152.032 210.685,152.416 211.199,152.740 211.442 C 153.112 211.721,153.224 212.159,153.044 212.630 C 152.789 213.295,152.600 213.210,151.317 211.850 C 150.172 210.635,149.992 210.250,150.439 209.968 C 151.266 209.444,151.595 209.519,151.888 210.300 M167.439 211.200 C 167.460 211.970,167.615 213.275,167.783 214.100 C 168.031 215.314,167.972 215.600,167.476 215.600 C 167.120 215.600,166.753 215.096,166.599 214.397 C 166.454 213.735,165.990 213.009,165.567 212.783 C 164.806 212.375,164.489 210.445,165.085 209.848 C 165.948 208.985,167.401 209.819,167.439 211.200 M180.622 210.036 C 180.771 210.276,180.269 211.131,179.509 211.936 C 178.748 212.741,177.718 213.995,177.220 214.722 C 175.692 216.953,173.910 216.007,174.584 213.322 C 174.798 212.467,175.010 212.342,175.932 212.526 C 176.837 212.707,177.265 212.474,178.413 211.177 C 179.891 209.505,180.196 209.347,180.622 210.036 M198.884 211.995 C 200.268 213.313,201.595 214.393,201.833 214.395 C 202.071 214.398,202.845 215.120,203.552 216.000 L 204.838 217.600 210.590 217.600 C 216.791 217.600,217.784 217.908,217.521 219.750 C 217.403 220.580,217.213 220.602,209.600 220.699 C 200.916 220.808,200.475 220.715,201.385 218.969 C 202.241 217.329,200.933 214.400,199.346 214.400 C 198.808 214.400,195.166 210.378,195.384 210.025 C 195.844 209.282,196.311 209.545,198.884 211.995 M144.200 210.334 C 145.778 210.619,145.800 210.646,145.800 212.369 C 145.800 214.303,146.307 214.721,148.724 214.772 C 150.657 214.813,149.881 215.600,147.908 215.600 C 146.988 215.600,145.963 215.328,145.582 214.984 C 145.014 214.470,142.881 214.327,132.687 214.121 L 120.472 213.874 120.298 212.237 C 120.203 211.337,120.197 210.465,120.286 210.300 C 120.491 209.918,142.062 209.949,144.200 210.334 M174.469 216.283 C 174.776 216.653,174.711 216.859,174.228 217.045 C 173.226 217.429,173.045 216.999,173.161 214.502 C 173.303 211.431,173.770 210.871,173.924 213.588 C 173.992 214.791,174.237 216.004,174.469 216.283 M283.280 212.880 C 282.614 213.546,282.662 217.387,283.343 217.952 C 284.097 218.579,286.339 218.061,286.828 217.147 C 287.048 216.736,287.632 216.400,288.125 216.400 C 289.854 216.400,291.951 213.174,290.567 212.643 C 289.404 212.197,283.780 212.380,283.280 212.880 M290.655 213.322 C 290.832 213.499,290.784 213.769,290.548 213.922 C 290.313 214.075,289.906 214.605,289.646 215.100 C 289.319 215.721,288.808 216.000,288.000 216.000 C 287.226 216.000,286.678 216.280,286.387 216.823 C 285.028 219.363,282.284 216.163,283.378 213.313 C 283.627 212.665,290.006 212.672,290.655 213.322 M158.200 213.600 C 158.064 213.820,158.323 214.000,158.776 214.000 C 159.229 214.000,159.600 213.820,159.600 213.600 C 159.600 213.380,159.341 213.200,159.024 213.200 C 158.707 213.200,158.336 213.380,158.200 213.600 M186.000 215.400 C 186.000 215.730,186.180 216.000,186.400 216.000 C 186.620 216.000,186.800 215.730,186.800 215.400 C 186.800 215.070,186.620 214.800,186.400 214.800 C 186.180 214.800,186.000 215.070,186.000 215.400 M218.000 215.800 C 218.000 216.350,218.180 216.800,218.400 216.800 C 218.620 216.800,218.800 216.350,218.800 215.800 C 218.800 215.250,218.620 214.800,218.400 214.800 C 218.180 214.800,218.000 215.250,218.000 215.800 M154.938 216.789 C 155.214 218.171,156.696 218.758,158.190 218.078 C 159.775 217.355,160.131 219.746,159.033 223.738 C 158.721 224.872,158.353 226.475,158.215 227.300 C 157.883 229.282,157.200 229.224,157.200 227.214 C 157.200 226.038,156.993 225.518,156.400 225.200 C 155.809 224.883,155.600 224.362,155.600 223.202 C 155.600 222.177,155.336 221.382,154.840 220.916 C 154.168 220.282,153.743 217.992,153.946 216.100 C 154.048 215.150,154.701 215.604,154.938 216.789 M162.800 216.600 C 162.800 216.930,162.541 217.200,162.224 217.200 C 161.450 217.200,161.067 216.520,161.698 216.266 C 162.571 215.914,162.800 215.983,162.800 216.600 M222.800 218.000 C 221.873 218.927,221.764 220.106,222.544 220.754 C 222.940 221.082,230.674 221.177,250.844 221.103 L 278.600 221.000 278.722 219.750 C 278.983 217.066,280.464 217.200,250.571 217.200 C 224.133 217.200,223.584 217.216,222.800 218.000 M277.625 218.425 C 279.869 220.669,280.736 220.600,250.428 220.600 C 220.662 220.600,221.316 220.648,223.352 218.611 L 224.364 217.600 250.582 217.600 C 276.527 217.600,276.809 217.609,277.625 218.425 "
       stroke="none"
       fill="#747474"
       fill-rule="evenodd" />
    <path
       id="path4"
       d="M184.456 206.813 C 183.807 207.354,183.698 207.600,184.107 207.600 C 184.434 207.600,184.933 207.321,185.216 206.981 C 186.060 205.964,187.403 206.410,187.384 207.700 C 187.369 208.774,188.183 209.250,188.485 208.344 C 188.571 208.087,189.501 207.884,190.619 207.878 C 191.708 207.872,205.192 207.894,220.581 207.926 C 245.295 207.978,248.674 207.913,249.513 207.363 C 250.192 206.918,250.918 206.817,252.060 207.010 C 255.496 207.591,306.908 207.488,308.353 206.898 C 309.926 206.255,311.103 206.852,310.000 207.733 C 308.988 208.542,307.855 210.000,308.238 210.000 C 308.437 210.000,309.110 209.361,309.733 208.580 C 311.443 206.436,310.099 205.223,307.510 206.574 C 306.727 206.982,305.544 207.087,303.310 206.945 C 301.600 206.837,292.370 206.693,282.800 206.625 C 273.230 206.557,261.943 206.443,257.717 206.373 C 250.881 206.259,249.950 206.321,249.269 206.937 C 248.018 208.070,188.489 207.905,187.692 206.767 C 187.006 205.788,185.663 205.807,184.456 206.813 M113.386 207.981 C 111.773 208.635,111.566 209.325,111.686 213.658 L 111.800 217.800 114.737 217.918 C 117.969 218.048,118.685 217.729,118.876 216.071 L 119.000 215.000 125.000 214.790 L 131.000 214.579 125.400 214.390 L 119.800 214.200 119.675 212.905 C 119.601 212.142,119.201 211.366,118.699 211.014 C 117.130 209.915,118.398 209.801,134.372 209.600 C 147.716 209.432,150.395 209.303,151.000 208.800 C 151.610 208.293,154.138 208.186,167.320 208.108 C 175.899 208.057,183.011 207.922,183.126 207.808 C 183.240 207.693,176.110 207.600,167.282 207.600 C 151.829 207.600,151.204 207.629,150.497 208.388 C 149.324 209.647,117.873 209.681,115.841 208.425 C 115.107 207.971,114.437 207.611,114.353 207.625 C 114.269 207.639,113.834 207.799,113.386 207.981 M115.979 209.189 C 117.408 209.918,117.518 210.095,117.412 211.489 C 117.349 212.320,117.379 212.671,117.480 212.269 C 117.594 211.815,117.891 211.626,118.265 211.769 C 118.595 211.896,118.931 212.000,119.012 212.000 C 119.092 212.000,118.970 212.540,118.740 213.200 C 118.300 214.464,117.802 214.737,117.465 213.900 C 117.354 213.625,117.249 213.859,117.232 214.420 C 117.214 214.981,117.404 215.644,117.653 215.893 C 118.769 217.009,117.700 217.641,114.905 217.518 L 112.200 217.400 112.086 213.520 L 111.972 209.640 113.086 209.036 C 114.476 208.282,114.169 208.266,115.979 209.189 M185.276 210.447 C 183.879 211.813,183.676 212.400,184.600 212.400 C 184.933 212.400,185.200 212.044,185.200 211.600 C 185.200 211.067,185.467 210.800,186.000 210.800 C 186.533 210.800,186.800 210.533,186.800 210.000 C 186.800 208.969,186.783 208.974,185.276 210.447 M153.491 209.900 C 153.216 210.430,153.669 214.000,154.012 214.000 C 154.683 214.000,155.600 215.286,155.600 216.229 C 155.600 217.993,159.456 217.160,162.103 214.824 C 163.324 213.746,163.278 213.015,161.869 211.108 C 160.895 209.791,160.372 209.726,159.400 210.800 C 158.334 211.978,156.197 211.873,155.363 210.600 C 154.728 209.631,153.810 209.287,153.491 209.900 M165.182 210.222 C 164.528 211.010,164.872 212.141,165.902 212.595 C 166.514 212.864,166.800 213.334,166.800 214.071 C 166.800 214.666,167.008 215.282,167.263 215.439 C 167.602 215.648,167.655 215.211,167.463 213.807 C 167.318 212.752,167.200 211.484,167.200 210.991 C 167.200 209.929,165.851 209.415,165.182 210.222 M155.087 211.055 C 155.475 211.891,155.467 212.254,155.051 212.849 C 154.355 213.843,154.000 213.399,154.000 211.533 C 154.000 209.748,154.399 209.573,155.087 211.055 M166.400 211.200 C 166.400 212.185,165.662 212.627,165.354 211.825 C 165.039 211.004,165.483 209.881,165.997 210.198 C 166.219 210.335,166.400 210.786,166.400 211.200 M179.384 210.427 C 179.239 210.661,179.220 210.953,179.343 211.076 C 179.672 211.405,180.800 210.891,180.800 210.413 C 180.800 209.870,179.721 209.880,179.384 210.427 M195.200 210.437 C 195.200 210.678,195.548 210.966,195.972 211.077 C 196.397 211.188,196.841 211.531,196.960 211.839 C 197.170 212.387,198.400 212.649,198.400 212.146 C 198.400 212.006,197.941 211.466,197.379 210.946 C 196.308 209.953,195.200 209.695,195.200 210.437 M305.976 210.729 C 305.413 211.098,304.135 212.075,303.135 212.900 C 302.136 213.725,301.058 214.400,300.740 214.400 C 300.422 214.400,299.459 215.120,298.600 216.000 C 297.741 216.880,296.701 217.600,296.291 217.600 C 295.880 217.600,294.690 218.320,293.646 219.200 C 292.602 220.080,291.522 220.800,291.246 220.800 C 290.970 220.800,289.890 221.520,288.846 222.400 L 286.949 224.000 234.974 223.990 L 183.000 223.980 180.469 221.590 C 179.077 220.276,177.614 219.200,177.218 219.200 C 176.822 219.200,176.237 218.807,175.918 218.327 C 175.375 217.509,175.018 217.452,170.369 217.427 C 167.636 217.412,165.152 217.240,164.848 217.044 C 164.459 216.793,164.351 216.852,164.481 217.244 C 164.625 217.674,165.833 217.819,169.826 217.883 C 174.135 217.952,175.067 218.076,175.477 218.638 C 175.961 219.300,176.823 219.878,178.800 220.870 C 179.350 221.145,180.447 222.052,181.239 222.885 L 182.677 224.400 235.058 224.400 L 287.439 224.400 289.104 222.800 C 290.020 221.920,291.100 221.200,291.504 221.200 C 291.908 221.200,292.988 220.480,293.904 219.600 C 294.850 218.691,295.964 217.998,296.485 217.996 C 297.048 217.994,297.939 217.379,298.800 216.400 C 299.570 215.524,300.569 214.806,301.019 214.804 C 301.470 214.802,302.566 214.101,303.454 213.248 C 304.343 212.394,305.443 211.577,305.899 211.432 C 306.750 211.162,307.975 209.977,307.349 210.029 C 307.157 210.045,306.539 210.360,305.976 210.729 M162.503 212.893 C 162.793 213.648,160.725 215.600,159.636 215.600 C 159.176 215.600,158.800 215.420,158.800 215.200 C 158.800 214.980,159.058 214.800,159.373 214.800 C 160.143 214.800,160.580 213.299,160.010 212.612 C 159.667 212.199,159.678 211.864,160.056 211.258 C 160.588 210.407,161.881 211.270,162.503 212.893 M171.017 211.338 C 170.431 211.766,170.382 212.019,170.749 212.705 C 170.997 213.168,171.200 214.089,171.200 214.750 C 171.200 216.102,171.908 216.789,172.439 215.951 C 173.627 214.075,172.459 210.284,171.017 211.338 M147.280 211.680 C 145.894 213.066,147.304 214.469,149.669 214.057 L 151.137 213.800 150.588 212.500 C 149.999 211.106,148.280 210.680,147.280 211.680 M150.000 212.553 C 150.000 213.486,148.708 214.237,147.931 213.757 C 146.983 213.172,147.617 211.600,148.800 211.600 C 149.798 211.600,150.000 211.761,150.000 212.553 M172.400 213.600 C 172.400 214.700,172.238 215.600,172.040 215.600 C 171.679 215.600,171.240 212.093,171.562 211.772 C 172.115 211.218,172.400 211.839,172.400 213.600 M178.000 212.249 C 178.000 212.780,178.109 212.808,178.600 212.400 C 178.930 212.126,179.200 211.834,179.200 211.751 C 179.200 211.668,178.930 211.600,178.600 211.600 C 178.270 211.600,178.000 211.892,178.000 212.249 M159.600 213.459 C 159.600 213.770,159.337 214.126,159.015 214.250 C 158.694 214.373,158.321 214.817,158.188 215.237 C 158.055 215.657,157.791 216.000,157.602 216.000 C 157.297 216.000,155.844 213.523,156.098 213.435 C 156.154 213.416,156.550 213.207,156.978 212.970 C 157.974 212.420,159.600 212.723,159.600 213.459 M175.038 212.767 C 174.634 213.507,174.480 215.082,174.766 215.545 C 175.363 216.510,177.600 214.716,177.600 213.272 C 177.600 212.854,175.243 212.390,175.038 212.767 M182.600 213.200 C 182.168 213.900,182.809 214.491,183.436 213.970 C 183.746 213.713,184.000 213.344,184.000 213.151 C 184.000 212.669,182.905 212.707,182.600 213.200 M198.490 213.271 C 198.577 213.531,198.977 213.936,199.379 214.171 C 201.943 215.673,202.504 217.197,201.418 219.700 C 201.240 220.110,201.285 220.400,201.525 220.400 C 201.751 220.400,202.055 219.860,202.200 219.200 C 202.450 218.063,202.572 217.998,204.532 217.959 C 206.492 217.920,206.528 217.901,205.220 217.593 C 203.833 217.267,202.800 216.298,202.800 215.324 C 202.800 215.036,202.539 214.800,202.221 214.800 C 201.902 214.800,201.156 214.350,200.562 213.800 C 199.442 212.762,198.216 212.449,198.490 213.271 M283.680 213.280 C 283.172 213.788,283.036 215.906,283.443 216.967 C 283.782 217.851,285.334 217.757,286.200 216.800 C 286.598 216.360,287.334 216.000,287.835 216.000 C 288.384 216.000,289.074 215.538,289.573 214.838 C 290.564 213.446,290.595 213.200,289.776 213.200 C 289.433 213.200,289.232 213.335,289.329 213.500 C 289.815 214.324,288.780 215.600,287.627 215.600 C 286.826 215.600,286.282 215.873,285.987 216.424 C 285.133 218.020,283.800 217.273,283.800 215.200 L 283.800 213.400 286.400 213.169 L 289.000 212.938 286.580 212.869 C 285.142 212.828,283.965 212.995,283.680 213.280 M177.193 213.500 C 177.181 214.042,175.267 215.632,175.050 215.281 C 174.564 214.494,175.307 213.200,176.247 213.200 C 176.771 213.200,177.197 213.335,177.193 213.500 M181.192 215.010 C 180.914 215.345,180.794 215.727,180.926 215.859 C 181.335 216.269,182.400 215.657,182.400 215.013 C 182.400 214.229,181.841 214.228,181.192 215.010 M131.672 214.996 C 132.084 215.422,142.876 216.381,147.374 216.391 C 150.761 216.399,151.472 216.516,152.181 217.183 L 153.014 217.965 153.056 216.383 C 153.103 214.602,152.609 214.383,150.968 215.458 C 149.946 216.127,149.289 216.119,140.200 215.315 C 135.320 214.884,131.422 214.738,131.672 214.996 M163.322 216.400 C 162.955 217.374,162.639 217.600,161.642 217.600 C 160.692 217.600,160.373 217.803,160.228 218.500 C 159.979 219.701,159.516 225.731,159.495 228.065 C 159.480 229.686,159.358 229.953,158.559 230.106 C 157.316 230.343,156.800 229.721,156.800 227.982 C 156.800 227.046,156.522 226.272,156.023 225.820 C 155.595 225.433,155.172 224.641,155.082 224.058 C 154.937 223.113,154.913 223.138,154.860 224.286 C 154.817 225.202,155.030 225.695,155.600 226.000 C 156.208 226.325,156.400 226.838,156.400 228.134 C 156.400 230.012,156.930 230.803,158.180 230.794 C 159.902 230.781,160.044 230.355,160.249 224.560 C 160.486 217.891,160.457 218.000,162.025 218.000 C 162.938 218.000,163.331 217.785,163.484 217.200 C 163.599 216.760,163.852 216.400,164.047 216.400 C 164.241 216.400,164.400 216.130,164.400 215.800 C 164.400 214.796,163.802 215.129,163.322 216.400 M179.600 217.033 C 179.600 217.382,179.814 217.595,180.075 217.508 C 180.817 217.261,180.940 216.400,180.233 216.400 C 179.885 216.400,179.600 216.685,179.600 217.033 M212.933 217.966 C 216.003 218.195,217.602 219.026,216.964 220.059 C 216.848 220.247,213.478 220.441,209.476 220.490 L 202.200 220.580 209.348 220.700 C 216.829 220.824,217.697 220.656,217.304 219.155 C 217.008 218.022,215.603 217.589,212.474 217.666 L 209.800 217.732 212.933 217.966 M226.900 217.896 C 228.165 217.975,230.235 217.975,231.500 217.896 C 232.765 217.816,231.730 217.751,229.200 217.751 C 226.670 217.751,225.635 217.816,226.900 217.896 M237.113 217.895 C 238.276 217.976,240.076 217.976,241.113 217.893 C 242.151 217.811,241.200 217.745,239.000 217.746 C 236.800 217.747,235.951 217.814,237.113 217.895 M247.491 217.889 C 248.201 217.977,249.461 217.979,250.291 217.892 C 251.121 217.805,250.540 217.733,249.000 217.731 C 247.460 217.729,246.781 217.800,247.491 217.889 M254.882 217.896 C 256.358 217.973,258.878 217.973,260.482 217.897 C 262.087 217.821,260.880 217.758,257.800 217.758 C 254.720 217.757,253.407 217.819,254.882 217.896 M207.505 218.283 C 208.002 218.379,208.722 218.375,209.105 218.275 C 209.487 218.175,209.080 218.096,208.200 218.101 C 207.320 218.105,207.007 218.187,207.505 218.283 M243.905 218.283 C 244.402 218.379,245.122 218.375,245.505 218.275 C 245.887 218.175,245.480 218.096,244.600 218.101 C 243.720 218.105,243.407 218.187,243.905 218.283 M264.707 218.290 C 265.426 218.379,266.506 218.377,267.107 218.286 C 267.708 218.195,267.120 218.122,265.800 218.124 C 264.480 218.126,263.988 218.201,264.707 218.290 M270.505 218.287 C 271.114 218.379,272.014 218.377,272.505 218.282 C 272.997 218.187,272.500 218.111,271.400 218.114 C 270.300 218.117,269.897 218.195,270.505 218.287 M277.028 218.831 C 277.513 219.367,277.836 219.493,277.939 219.184 C 278.026 218.922,277.851 218.551,277.549 218.360 C 276.551 217.728,276.264 217.987,277.028 218.831 M153.264 219.656 C 153.223 220.591,153.481 221.449,153.987 222.056 C 154.599 222.790,154.776 222.855,154.787 222.349 C 154.794 221.991,154.540 221.483,154.223 221.219 C 153.906 220.956,153.575 220.169,153.487 219.470 C 153.330 218.219,153.327 218.222,153.264 219.656 M223.062 220.500 C 223.164 220.665,235.466 220.800,250.400 220.800 C 265.334 220.800,277.636 220.665,277.738 220.500 C 277.840 220.335,265.538 220.200,250.400 220.200 C 235.262 220.200,222.960 220.335,223.062 220.500 "
       stroke="none"
       fill="#a4a4a4"
       fill-rule="evenodd" />
  </g>
</svg>
