<?xml version="1.0" encoding="UTF-8" standalone="no"?>
<svg
   xmlns:dc="http://purl.org/dc/elements/1.1/"
   xmlns:cc="http://creativecommons.org/ns#"
   xmlns:rdf="http://www.w3.org/1999/02/22-rdf-syntax-ns#"
   xmlns:svg="http://www.w3.org/2000/svg"
   xmlns="http://www.w3.org/2000/svg"
   xmlns:sodipodi="http://sodipodi.sourceforge.net/DTD/sodipodi-0.dtd"
   xmlns:inkscape="http://www.inkscape.org/namespaces/inkscape"
   id="svg"
   version="1.1"
   width="198.83905"
   height="24.788376"
   viewBox="0 0 198.83905 24.788376"
   sodipodi:docname="sword.svg"
   inkscape:version="0.92.4 (5da689c313, 2019-01-14)">
  <metadata
     id="metadata356">
    <rdf:RDF>
      <cc:Work
         rdf:about="">
        <dc:format>image/svg+xml</dc:format>
        <dc:type
           rdf:resource="http://purl.org/dc/dcmitype/StillImage" />
      </cc:Work>
    </rdf:RDF>
  </metadata>
  <defs
     id="defs354" />
  <sodipodi:namedview
     pagecolor="#ffffff"
     bordercolor="#666666"
     borderopacity="1"
     objecttolerance="10"
     gridtolerance="10"
     guidetolerance="10"
     inkscape:pageopacity="0"
     inkscape:pageshadow="2"
     inkscape:window-width="640"
     inkscape:window-height="480"
     id="namedview352"
     showgrid="false"
     inkscape:zoom="0.59"
     inkscape:cx="88.342295"
     inkscape:cy="191.81103"
     inkscape:window-x="0"
     inkscape:window-y="0"
     inkscape:window-maximized="0"
     inkscape:current-layer="svg" />
  <g
     id="svgg"
     transform="translate(-111.65771,-206.0057)">
    <path
       id="path0"
       d="m -428.81356,206.77966 v 200 h 200 200.000001 v -200 V 6.779661 h -200.000001 -200 V 206.77966 m 187.692,6.767 c 0.797,1.138 60.326,1.303 61.577,0.17 0.681,-0.616 1.612,-0.678 8.448,-0.564 4.226,0.07 15.513,0.184 25.083,0.252 9.57,0.068 18.8,0.212 20.51,0.32 2.234,0.142 3.417,0.037 4.2,-0.371 2.534,-1.322 3.984,-0.114 2.285,1.905 -1.054,1.253 -1.682,1.717 -3.795,2.804 -0.55,0.283 -1.711,1.19 -2.581,2.016 -0.869,0.825 -1.949,1.503 -2.4,1.505 -0.45,0.002 -1.449,0.72 -2.219,1.596 -0.861,0.979 -1.752,1.594 -2.315,1.596 -0.521,0.002 -1.635,0.695 -2.581,1.604 -0.916,0.88 -1.996,1.6 -2.4,1.6 -0.404,0 -1.484,0.72 -2.4,1.6 l -1.665,1.6 h -52.381 -52.381 l -1.438,-1.515 c -0.792,-0.833 -1.889,-1.74 -2.439,-2.015 -1.984,-0.995 -2.839,-1.571 -3.332,-2.244 -0.43,-0.589 -1.225,-0.681 -5.621,-0.654 -4.802,0.03 -5.134,-0.018 -5.331,-0.77 -0.268,-1.027 -0.764,-1.028 -1.032,-0.002 -0.153,0.585 -0.546,0.8 -1.459,0.8 -1.568,0 -1.539,-0.109 -1.776,6.56 -0.205,5.795 -0.347,6.221 -2.069,6.234 -1.25,0.009 -1.78,-0.782 -1.78,-2.66 0,-1.296 -0.192,-1.809 -0.8,-2.134 -0.532,-0.285 -0.8,-0.838 -0.8,-1.651 0,-0.673 -0.36,-1.68 -0.8,-2.24 -0.459,-0.583 -0.8,-1.623 -0.8,-2.437 0,-2.651 -1.089,-3.271 -5.77,-3.281 -2.216,-0.005 -6.64,-0.306 -9.83,-0.669 -3.19,-0.364 -8.68,-0.675 -12.2,-0.691 l -6.4,-0.031 -0.124,1.071 c -0.191,1.658 -0.907,1.977 -4.139,1.847 l -2.937,-0.118 -0.114,-4.142 c -0.122,-4.413 0.078,-5.036 1.84,-5.706 0.729,-0.277 1.283,-0.165 2.305,0.467 2.041,1.261 33.489,1.233 34.666,-0.031 0.707,-0.759 1.332,-0.788 16.874,-0.788 15.463,0 16.18,-0.033 17.085,-0.787 1.207,-1.006 2.55,-1.025 3.236,-0.046 m -33.692,4.766 c 0,1.866 0.355,2.31 1.051,1.316 0.416,-0.595 0.424,-0.958 0.036,-1.794 -0.688,-1.482 -1.087,-1.307 -1.087,0.478 m 11.354,-0.958 c -0.315,0.821 0.129,1.944 0.643,1.627 0.222,-0.137 0.403,-0.588 0.403,-1.002 0,-0.985 -0.738,-1.427 -1.046,-0.625 m -5.298,0.683 c -0.378,0.606 -0.389,0.941 -0.046,1.354 0.57,0.687 0.133,2.188 -0.637,2.188 -0.315,0 -0.573,0.18 -0.573,0.4 0,0.784 1.69,0.383 2.799,-0.664 1.214,-1.145 1.183,-1.682 -0.179,-3.153 -0.854,-0.92 -0.866,-0.921 -1.364,-0.125 m -42.538,1.257 c -0.384,2.01 0.565,2.57 1.211,0.716 0.327,-0.936 0.288,-1.216 -0.193,-1.4 -0.839,-0.322 -0.823,-0.333 -1.018,0.684 m 30.082,0.061 c 0,1.176 0.375,1.46 1.531,1.158 1.456,-0.381 1.184,-2.134 -0.331,-2.134 -1.006,0 -1.2,0.158 -1.2,0.976 m 23.962,-0.804 c -0.322,0.321 0.117,3.828 0.478,3.828 0.198,0 0.36,-0.9 0.36,-2 0,-1.761 -0.285,-2.382 -0.838,-1.828 m 3.504,2.297 c -0.359,1.373 0.112,1.635 1.158,0.643 1.217,-1.153 1.222,-1.512 0.023,-1.512 -0.643,0 -1.028,0.284 -1.181,0.869 m 108.693,-0.307 c -0.871,2.271 1.147,4.682 2.228,2.662 0.295,-0.551 0.839,-0.824 1.64,-0.824 1.153,0 2.188,-1.276 1.702,-2.1 -0.34,-0.577 -5.338,-0.342 -5.57,0.262 m -81.522,5.197 c -0.125,0.463 -0.229,0.976 -0.232,1.141 -0.008,0.452 14.706,0.368 14.986,-0.085 0.131,-0.212 -0.115,-0.739 -0.547,-1.171 -1.249,-1.249 -13.869,-1.146 -14.207,0.115 m 21.474,-0.017 c -1.391,1.482 -1.836,1.458 26.732,1.458 27.349,0 28.25,-0.05 26.645,-1.468 -0.86,-0.759 -1.69,-0.786 -26.688,-0.86 l -25.8,-0.077 -0.889,0.947"
       inkscape:connector-curvature="0"
       style="fill:#fbfbfb;fill-rule:evenodd;stroke:none" />
    <path
       id="path1"
       d="m 222.7,208.303 c -17.604,0.067 -27.1,0.242 -27.1,0.5 0,0.218 0.263,0.397 0.585,0.397 0.322,0 1.717,1.013 3.1,2.25 1.383,1.238 2.924,2.439 3.425,2.669 0.5,0.23 1.28,1.017 1.732,1.75 l 0.823,1.331 h 5.888 c 6.315,0 6.847,0.155 6.847,2 0,1.907 -0.41,2 -8.804,2 -8.672,0 -10.12,-0.316 -8.691,-1.895 1.181,-1.305 -1.327,-6.105 -3.189,-6.105 -0.28,0 -2.486,-2.425 -3.435,-3.777 -1.488,-2.119 -4.039,-1.504 -6.881,1.658 -1.32,1.469 -2.805,3.063 -3.3,3.541 -0.495,0.478 -0.9,1.038 -0.9,1.243 0,0.205 -0.72,1.076 -1.6,1.935 -1.972,1.926 -1.983,1.754 0.232,3.968 l 1.831,1.832 h 51.405 c 50.8,0 51.418,-0.009 52.423,-0.8 0.559,-0.44 1.243,-0.8 1.52,-0.8 0.277,0 0.605,-0.264 0.729,-0.587 0.124,-0.323 0.818,-0.86 1.543,-1.192 1.839,-0.845 2.818,-1.506 3.434,-2.321 0.29,-0.385 0.962,-0.7 1.492,-0.7 0.553,0 1.145,-0.34 1.391,-0.8 0.235,-0.44 0.649,-0.8 0.918,-0.8 0.269,0 0.691,-0.315 0.937,-0.7 0.247,-0.385 1.3,-1.15 2.341,-1.7 1.041,-0.55 2.637,-1.675 3.548,-2.5 0.918,-0.832 2.071,-1.5 2.589,-1.5 0.514,0 0.872,-0.184 0.798,-0.408 -0.149,-0.447 -38.694,-0.667 -85.631,-0.489 m -67.609,0.34 c -0.896,0.895 1.279,1.809 2.701,1.134 1.057,-0.502 1.318,-0.788 0.936,-1.03 -0.61,-0.387 -3.278,-0.464 -3.637,-0.104 m 5.509,0.157 c -0.136,0.22 0.033,0.4 0.376,0.4 0.343,0 0.624,0.181 0.624,0.403 0,0.221 0.45,0.794 1,1.272 0.587,0.51 1,1.299 1,1.908 0,0.572 0.36,1.347 0.8,1.724 0.44,0.377 0.8,1.137 0.8,1.689 0,0.836 0.19,1.004 1.133,1.004 1.524,0 1.861,-0.43 0.765,-0.974 -0.533,-0.264 -0.949,-0.888 -1.025,-1.535 -0.069,-0.6 -0.474,-1.278 -0.9,-1.505 -0.524,-0.281 -0.773,-0.839 -0.773,-1.73 0,-2.081 -2.902,-4.109 -3.8,-2.656 m 4.6,0.038 c 0,0.199 0.529,0.362 1.176,0.362 1.449,0 1.634,0.284 1.803,2.766 0.156,2.303 0.33,2.665 1.415,2.948 0.894,0.234 1.144,-0.816 0.377,-1.583 -0.6,-0.6 -0.296,-2.986 0.429,-3.362 0.33,-0.171 0.926,-0.413 1.325,-0.537 0.399,-0.125 0.614,-0.407 0.477,-0.628 -0.308,-0.499 -7.002,-0.466 -7.002,0.034 m 9.826,-0.08 c -0.122,0.197 0.048,0.461 0.376,0.588 0.329,0.126 0.601,0.55 0.604,0.941 0.015,1.768 0.683,1.888 2.106,0.379 0.76,-0.806 1.687,-1.466 2.059,-1.466 0.372,0 0.565,-0.18 0.429,-0.4 -0.307,-0.496 -5.27,-0.534 -5.574,-0.042 m 7.532,-0.052 c -0.243,0.162 -0.693,0.773 -1,1.358 -0.55,1.048 -2.337,3.298 -4.422,5.567 -0.983,1.071 -1.19,2.769 -0.338,2.769 0.452,0 3.602,-3.136 3.602,-3.585 0,-0.213 0.36,-0.58 0.8,-0.815 0.44,-0.235 0.8,-0.627 0.8,-0.871 0,-0.243 0.824,-1.407 1.831,-2.586 l 1.831,-2.143 -1.331,0.006 c -0.732,0.003 -1.53,0.138 -1.773,0.3 m -69.658,1.141 c -0.346,0.152 -0.5,1.321 -0.5,3.807 v 3.588 l 2.1,-0.121 2.1,-0.121 -0.142,-3.4 c -0.078,-1.87 -0.19,-3.453 -0.25,-3.517 -0.239,-0.257 -2.839,-0.443 -3.308,-0.236 m 37.539,0.121 c -0.447,0.282 -0.267,0.667 0.878,1.882 1.283,1.36 1.472,1.445 1.727,0.78 0.18,-0.471 0.068,-0.909 -0.304,-1.188 -0.324,-0.243 -0.708,-0.757 -0.852,-1.142 -0.293,-0.781 -0.622,-0.856 -1.449,-0.332 m -30.153,0.332 c -0.089,0.165 -0.083,1.037 0.012,1.937 l 0.174,1.637 12.215,0.247 c 10.194,0.206 12.327,0.349 12.895,0.863 0.381,0.344 1.406,0.616 2.326,0.616 1.973,0 2.749,-0.787 0.816,-0.828 -2.417,-0.051 -2.924,-0.469 -2.924,-2.403 0,-1.723 -0.022,-1.75 -1.6,-2.035 -2.138,-0.385 -23.709,-0.416 -23.914,-0.034 m 53.247,1.508 c -0.359,0.549 -0.545,4.914 -0.223,5.235 0.505,0.506 1.609,-0.218 1.159,-0.76 -0.232,-0.279 -0.477,-1.492 -0.545,-2.695 -0.068,-1.203 -0.244,-2.004 -0.391,-1.78 m 117.034,0.835 c 1.384,0.531 -0.713,3.757 -2.442,3.757 -0.493,0 -1.077,0.336 -1.297,0.747 -0.489,0.914 -2.731,1.432 -3.485,0.805 -0.681,-0.565 -0.729,-4.406 -0.063,-5.072 0.5,-0.5 6.124,-0.683 7.287,-0.237 M 186.8,215.4 c 0,0.33 -0.18,0.6 -0.4,0.6 -0.22,0 -0.4,-0.27 -0.4,-0.6 0,-0.33 0.18,-0.6 0.4,-0.6 0.22,0 0.4,0.27 0.4,0.6 m 32,0.4 c 0,0.55 -0.18,1 -0.4,1 -0.22,0 -0.4,-0.45 -0.4,-1 0,-0.55 0.18,-1 0.4,-1 0.22,0 0.4,0.45 0.4,1 m -64.854,0.3 c -0.203,1.892 0.222,4.182 0.894,4.816 0.496,0.466 0.76,1.261 0.76,2.286 0,1.16 0.209,1.681 0.8,1.998 0.593,0.318 0.8,0.838 0.8,2.014 0,2.01 0.683,2.068 1.015,0.086 0.138,-0.825 0.506,-2.428 0.818,-3.562 1.098,-3.992 0.742,-6.383 -0.843,-5.66 -1.494,0.68 -2.976,0.093 -3.252,-1.289 -0.237,-1.185 -0.89,-1.639 -0.992,-0.689 m 7.752,0.166 c -0.631,0.254 -0.248,0.934 0.526,0.934 0.317,0 0.576,-0.27 0.576,-0.6 0,-0.617 -0.229,-0.686 -1.102,-0.334 m 116.495,1.584 c 0.395,0.395 0.602,1.141 0.529,1.9 l -0.122,1.25 -27.756,0.103 c -20.17,0.074 -27.904,-0.021 -28.3,-0.349 -0.78,-0.648 -0.671,-1.827 0.256,-2.754 1.128,-1.128 54.271,-1.272 55.393,-0.15"
       inkscape:connector-curvature="0"
       style="fill:#060606;fill-rule:evenodd;stroke:none" />
    <path
       id="path2"
       d="m 187.074,207.162 c 0.137,0.523 -0.317,1.281 -1.437,2.401 -0.9,0.9 -1.637,1.748 -1.637,1.884 0,0.137 0.58,-0.32 1.29,-1.013 1.149,-1.123 1.321,-1.183 1.572,-0.548 0.247,0.625 0.285,0.631 0.31,0.047 0.015,-0.366 0.253,-0.757 0.528,-0.868 0.302,-0.122 0.324,-0.214 0.055,-0.233 -0.248,-0.018 -0.364,-0.452 -0.262,-0.985 0.1,-0.524 0.002,-1.065 -0.218,-1.201 -0.235,-0.145 -0.318,0.068 -0.201,0.516 M 309.6,206.813 c 0.523,0.35 0.511,0.454 -0.1,0.814 -0.385,0.227 -0.7,0.591 -0.7,0.808 0,0.218 0.379,0.043 0.843,-0.389 0.836,-0.779 0.747,-1.652 -0.167,-1.64 -0.289,0.004 -0.24,0.164 0.124,0.407 m -59.755,0.315 c -0.112,0.18 0.328,0.249 0.976,0.154 0.649,-0.095 1.179,-0.242 1.179,-0.327 0,-0.305 -1.957,-0.148 -2.155,0.173 m 3.455,0.359 c 0.605,0.091 1.595,0.091 2.2,0 0.605,-0.092 0.11,-0.167 -1.1,-0.167 -1.21,0 -1.705,0.075 -1.1,0.167 m 4.8,-0.011 c 0.385,0.1 1.015,0.1 1.4,0 0.385,-0.101 0.07,-0.183 -0.7,-0.183 -0.77,0 -1.085,0.082 -0.7,0.183 m 4.6,0.006 c 0.495,0.096 1.305,0.096 1.8,0 0.495,-0.095 0.09,-0.173 -0.9,-0.173 -0.99,0 -1.395,0.078 -0.9,0.173 m 7.805,0.005 c 0.609,0.092 1.509,0.09 2,-0.005 0.492,-0.095 -0.005,-0.171 -1.105,-0.168 -1.1,0.003 -1.503,0.081 -0.895,0.173 m 8.595,-0.005 c 0.495,0.096 1.305,0.096 1.8,0 0.495,-0.095 0.09,-0.173 -0.9,-0.173 -0.99,0 -1.395,0.078 -0.9,0.173 m 6.2,0.009 c 0.825,0.087 2.175,0.087 3,0 0.825,-0.086 0.15,-0.157 -1.5,-0.157 -1.65,0 -2.325,0.071 -1.5,0.157 m 7.8,0.002 c 0.935,0.084 2.465,0.084 3.4,0 0.935,-0.084 0.17,-0.153 -1.7,-0.153 -1.87,0 -2.635,0.069 -1.7,0.153 m -102.6,0.383 c 0.385,0.1 1.015,0.1 1.4,0 0.385,-0.101 0.07,-0.183 -0.7,-0.183 -0.77,0 -1.085,0.082 -0.7,0.183 m 110.8,0 c 0.385,0.1 1.015,0.1 1.4,0 0.385,-0.101 0.07,-0.183 -0.7,-0.183 -0.77,0 -1.085,0.082 -0.7,0.183 m -128.1,1.478 c 0,1.13 1.778,2.529 2.247,1.769 0.167,-0.27 -0.077,-0.711 -0.579,-1.044 -0.477,-0.317 -0.868,-0.825 -0.868,-1.128 0,-0.303 -0.18,-0.551 -0.4,-0.551 -0.22,0 -0.4,0.429 -0.4,0.954 m -19.975,0.222 c -0.465,0.294 -0.483,0.541 -0.098,1.294 0.445,0.867 0.462,0.871 0.258,0.06 -0.147,-0.582 0.018,-1.009 0.497,-1.288 0.395,-0.23 0.538,-0.42 0.318,-0.424 -0.22,-0.003 -0.659,0.158 -0.975,0.358 m -7.325,0.313 c 0.715,0.089 1.885,0.089 2.6,0 0.715,-0.088 0.13,-0.161 -1.3,-0.161 -1.43,0 -2.015,0.073 -1.3,0.161 m 13.613,0.37 c -0.362,0.362 -1.346,0.791 -2.186,0.954 l -1.527,0.295 1.451,0.046 c 0.893,0.028 1.657,-0.202 1.986,-0.599 0.294,-0.354 0.901,-0.793 1.349,-0.974 0.546,-0.222 0.612,-0.339 0.2,-0.356 -0.338,-0.014 -0.911,0.271 -1.273,0.634 m 6.962,-0.411 c 0.372,0.11 0.761,0.595 0.866,1.077 0.159,0.733 0.179,0.714 0.125,-0.121 -0.045,-0.676 -0.323,-1.022 -0.866,-1.077 -0.576,-0.058 -0.611,-0.025 -0.125,0.121 M 118,210.304 c 0,0.167 0.364,0.531 0.809,0.809 0.75,0.468 0.772,0.446 0.304,-0.304 -0.504,-0.806 -1.113,-1.083 -1.113,-0.505 m 78.8,0.066 c 0,0.221 0.36,0.595 0.8,0.83 1.071,0.573 1.029,1.353 -0.058,1.069 -0.591,-0.155 -0.729,-0.096 -0.443,0.19 0.228,0.228 0.971,0.453 1.65,0.5 l 1.235,0.086 -0.853,-0.823 c -0.47,-0.452 -1.186,-1.144 -1.592,-1.538 -0.407,-0.393 -0.739,-0.534 -0.739,-0.314 m -49.651,1.13 c -0.478,0.609 -0.471,0.64 0.051,0.238 0.33,-0.254 1.05,-0.544 1.6,-0.645 l 1,-0.184 -1.051,-0.055 c -0.579,-0.03 -1.297,0.26 -1.6,0.646 m 14.899,-0.1 c 0.356,0.44 0.747,1.07 0.868,1.4 0.187,0.509 0.226,0.504 0.252,-0.038 0.018,-0.351 -0.373,-0.981 -0.868,-1.4 -0.892,-0.756 -0.894,-0.755 -0.252,0.038 m 8.338,0.017 c -0.417,0.502 -0.415,0.707 0.01,1.1 0.414,0.383 0.455,0.367 0.202,-0.078 -0.206,-0.36 -0.057,-0.753 0.417,-1.1 0.406,-0.296 0.546,-0.539 0.31,-0.539 -0.235,0 -0.657,0.278 -0.939,0.617 m 7.819,-0.07 c -0.371,0.271 -0.714,1.07 -0.762,1.776 -0.049,0.706 0.013,1.147 0.137,0.98 0.124,-0.167 0.731,-0.864 1.348,-1.551 1.202,-1.337 0.67,-2.224 -0.723,-1.205 m -61.296,1.853 c 0,0.99 0.078,1.395 0.173,0.9 0.096,-0.495 0.096,-1.305 0,-1.8 -0.095,-0.495 -0.173,-0.09 -0.173,0.9 m 62.291,-1.449 c 0,0.083 -0.27,0.375 -0.6,0.649 -0.491,0.408 -0.6,0.38 -0.6,-0.151 0,-0.357 0.27,-0.649 0.6,-0.649 0.33,0 0.6,0.068 0.6,0.151 m 3.812,0.791 c -0.585,0.427 -0.541,0.481 0.358,0.442 1.239,-0.054 1.677,-0.404 0.886,-0.707 -0.318,-0.122 -0.878,-0.003 -1.244,0.265 m -26.034,0.428 c -0.428,0.237 -0.824,0.446 -0.88,0.465 -0.254,0.088 1.199,2.565 1.504,2.565 0.189,0 0.458,-0.36 0.598,-0.8 0.14,-0.44 0.467,-0.813 0.727,-0.828 0.26,-0.016 0.113,-0.177 -0.327,-0.358 -0.764,-0.315 -0.756,-0.347 0.179,-0.71 l 0.98,-0.38 -1.002,-0.192 c -0.551,-0.105 -1.351,0.002 -1.779,0.238 m -6.05,0.33 c 0.2,0.566 0.001,0.711 -1.041,0.76 -1.209,0.056 -1.221,0.07 -0.187,0.227 0.683,0.103 1.1,0.414 1.1,0.82 0,0.508 0.107,0.546 0.48,0.173 0.627,-0.627 1.799,-0.615 2.055,0.02 0.126,0.312 0.214,0.249 0.233,-0.167 0.018,-0.366 0.257,-0.772 0.532,-0.902 0.275,-0.13 0.013,-0.143 -0.582,-0.03 -0.779,0.148 -1.326,-0.047 -1.959,-0.698 -0.671,-0.691 -0.819,-0.739 -0.631,-0.203 m 11.67,1.104 c -0.135,0.218 -0.067,0.396 0.151,0.396 0.217,0 0.457,0.405 0.531,0.9 0.13,0.857 0.147,0.861 0.368,0.088 0.252,-0.884 -0.636,-2.054 -1.05,-1.384 m -31.298,0.272 c 0.385,0.1 1.015,0.1 1.4,0 0.385,-0.101 0.07,-0.183 -0.7,-0.183 -0.77,0 -1.085,0.082 -0.7,0.183 m 68.776,0.09 c 0.092,0.311 0.608,0.84 1.146,1.175 0.758,0.473 0.843,0.48 0.378,0.034 -0.33,-0.316 -0.846,-0.845 -1.146,-1.175 -0.439,-0.483 -0.513,-0.49 -0.378,-0.034 m -57.776,0.716 c 0.495,0.096 1.305,0.096 1.8,0 0.495,-0.095 0.09,-0.173 -0.9,-0.173 -0.99,0 -1.395,0.078 -0.9,0.173 m 60.5,-0.122 c 0,0.647 0.818,1.761 1.479,2.015 0.526,0.202 0.453,-0.013 -0.288,-0.853 -0.545,-0.617 -1.036,-1.197 -1.091,-1.289 -0.055,-0.091 -0.1,-0.034 -0.1,0.127 m -23.028,0.76 c -0.704,0.394 -0.76,1.88 -0.071,1.88 0.276,0 0.969,-0.495 1.54,-1.1 l 1.038,-1.1 h -0.968 c -0.532,0 -1.225,0.144 -1.539,0.32 M 159.2,216.6 c -0.55,0.314 -0.82,0.572 -0.6,0.572 0.22,0 0.85,-0.258 1.4,-0.572 0.55,-0.314 0.82,-0.572 0.6,-0.572 -0.22,0 -0.85,0.258 -1.4,0.572 m 12,0 c 0,0.33 0.165,0.6 0.367,0.6 0.202,0 0.697,0.118 1.1,0.262 0.551,0.198 0.494,0.048 -0.228,-0.6 -1.142,-1.024 -1.239,-1.045 -1.239,-0.262 m 9.508,0.275 c -0.247,0.742 -1.108,0.865 -1.108,0.158 0,-0.348 0.285,-0.633 0.633,-0.633 0.349,0 0.562,0.214 0.475,0.475 m 26.597,1.012 c 0.609,0.092 1.509,0.09 2,-0.005 0.492,-0.095 -0.005,-0.171 -1.105,-0.168 -1.1,0.003 -1.503,0.081 -0.895,0.173 m 36.4,0 c 0.609,0.092 1.509,0.09 2,-0.005 0.492,-0.095 -0.005,-0.171 -1.105,-0.168 -1.1,0.003 -1.503,0.081 -0.895,0.173 m 21.977,0.009 c 1.476,0.077 3.996,0.077 5.6,0.001 1.605,-0.076 0.398,-0.139 -2.682,-0.139 -3.08,-0.001 -4.393,0.061 -2.918,0.138 m -87.816,0.804 c -0.1,0.165 0.069,0.532 0.376,0.816 0.464,0.428 0.558,0.377 0.558,-0.3 0,-0.797 -0.573,-1.113 -0.934,-0.516 m -18.982,9.617 c 0.064,0.925 0.259,1.682 0.434,1.682 0.175,0.001 0.196,-0.674 0.047,-1.499 -0.378,-2.094 -0.618,-2.185 -0.481,-0.183"
       inkscape:connector-curvature="0"
       style="fill:#8c8c8c;fill-rule:evenodd;stroke:none" />
    <path
       id="path3"
       d="m 185.512,206.945 c -0.959,0.959 -3.172,1.357 -6.401,1.149 -4.687,-0.3 -6.446,0.522 -4.243,1.985 0.502,0.333 0.746,0.774 0.579,1.044 -0.457,0.74 -2.247,-0.636 -2.247,-1.726 0,-0.501 -0.285,-1.021 -0.633,-1.154 -1.149,-0.441 -7.584,-0.266 -8.07,0.22 -0.351,0.351 -0.604,0.346 -1.044,-0.019 -0.922,-0.765 -10.03,-0.342 -12.053,0.56 -1.439,0.642 -3.136,0.718 -16.865,0.755 -15.949,0.043 -16.184,0.065 -15.22,1.441 0.328,0.468 0.514,1.168 0.413,1.554 -0.345,1.318 0.782,1.537 9.272,1.805 11.655,0.368 15.398,0.612 16.23,1.057 0.799,0.428 3.956,0.518 4.937,0.141 1.252,-0.48 0.694,-1.357 -0.867,-1.363 -1.995,-0.008 -2.591,-0.449 -2.432,-1.797 0.277,-2.345 2.827,-2.369 4.082,-0.038 1.779,3.304 3.3,1.823 2.059,-2.004 -0.189,-0.584 -0.078,-0.92 0.359,-1.087 0.888,-0.341 1.759,0.072 2.044,0.969 0.329,1.037 2.559,1.016 3.897,-0.037 1.308,-1.029 1.292,-1.032 2.685,0.5 1.194,1.313 1.701,3.9 0.764,3.9 -0.243,0 -0.972,0.445 -1.618,0.989 -2.635,2.217 -5.293,2.277 -5.849,0.13 -0.419,-1.615 -1.495,-1.954 -1.84,-0.578 -0.371,1.478 0.157,4.7 1.001,6.106 0.411,0.686 0.748,1.693 0.748,2.238 0,0.545 0.36,1.317 0.8,1.715 0.44,0.398 0.802,1.191 0.805,1.762 0.011,1.999 0.445,2.888 1.347,2.758 0.645,-0.093 0.82,-0.362 0.73,-1.121 -0.065,-0.55 0.082,-1.723 0.326,-2.609 0.245,-0.885 0.568,-3.225 0.719,-5.2 l 0.273,-3.59 h 1.4 c 1.287,0 1.41,-0.105 1.525,-1.3 0.165,-1.705 0.77,-1.649 1.517,0.14 0.584,1.397 0.652,1.433 2.28,1.202 0.923,-0.131 2.281,-0.232 3.018,-0.225 l 1.339,0.013 -0.284,-2.115 c -0.157,-1.163 -0.466,-2.34 -0.689,-2.615 -0.576,-0.712 0.351,-1.7 1.594,-1.7 1.002,0 1.003,10e-4 0.817,3.209 -0.182,3.147 0.709,4.698 1.974,3.433 0.139,-0.139 0.762,0.234 1.384,0.83 0.876,0.839 1.238,0.975 1.608,0.605 0.743,-0.743 1.117,-0.568 1.117,0.523 0,0.55 0.187,1 0.415,1 0.228,0 1.204,0.812 2.169,1.804 l 1.753,1.805 51.942,-0.105 c 45.475,-0.091 52.031,-0.179 52.669,-0.704 0.4,-0.33 1.115,-0.977 1.59,-1.438 0.474,-0.461 1.325,-0.951 1.89,-1.089 0.565,-0.139 1.681,-0.887 2.48,-1.663 0.799,-0.775 1.776,-1.411 2.172,-1.412 0.396,-0.001 1.44,-0.667 2.32,-1.479 0.88,-0.813 2.404,-1.907 3.386,-2.433 0.983,-0.525 2.155,-1.353 2.606,-1.839 0.45,-0.486 1.671,-1.297 2.713,-1.801 1.042,-0.505 1.895,-1.162 1.895,-1.462 0,-0.299 0.314,-0.72 0.697,-0.934 1.243,-0.696 0.18,-0.967 -1.38,-0.353 -1.043,0.411 -2.641,0.563 -5.117,0.488 -4.444,-0.134 -44.068,-0.089 -80.366,0.091 -19.619,0.098 -27.319,0.262 -27.717,0.593 -0.414,0.343 -0.666,0.342 -1.014,-0.006 -1.116,-1.116 -6.703,-0.052 -6.703,1.277 0,0.339 -1.756,2.35 -3.9,4.464 -0.495,0.488 -0.9,1.018 -0.9,1.178 0,0.506 -2.177,2.618 -2.699,2.618 -1.014,0 -0.449,-1.439 1.099,-2.8 0.876,-0.77 1.594,-1.561 1.596,-1.758 0.002,-0.197 0.366,-0.737 0.81,-1.2 3.288,-3.438 4.028,-4.369 3.919,-4.933 -0.173,-0.889 -0.919,-1.058 -1.613,-0.364 m 122.819,1.847 c 0.074,0.224 -0.284,0.408 -0.798,0.408 -0.518,0 -1.671,0.668 -2.589,1.5 -0.911,0.825 -2.507,1.95 -3.548,2.5 -1.041,0.55 -2.094,1.315 -2.341,1.7 -0.246,0.385 -0.668,0.7 -0.937,0.7 -0.269,0 -0.683,0.36 -0.918,0.8 -0.246,0.46 -0.838,0.8 -1.391,0.8 -0.53,0 -1.202,0.315 -1.492,0.7 -0.616,0.815 -1.595,1.476 -3.434,2.321 -0.725,0.332 -1.419,0.869 -1.543,1.192 -0.124,0.323 -0.452,0.587 -0.729,0.587 -0.277,0 -0.961,0.36 -1.52,0.8 -1.005,0.791 -1.623,0.8 -52.423,0.8 h -51.405 l -1.831,-1.832 c -2.215,-2.214 -2.204,-2.042 -0.232,-3.968 0.88,-0.859 1.6,-1.73 1.6,-1.935 0,-0.205 0.405,-0.765 0.9,-1.243 0.495,-0.478 1.98,-2.072 3.3,-3.541 2.842,-3.162 5.393,-3.777 6.881,-1.658 0.949,1.352 3.155,3.777 3.435,3.777 1.862,0 4.37,4.8 3.189,6.105 -1.429,1.579 0.019,1.895 8.691,1.895 8.394,0 8.804,-0.093 8.804,-2 0,-1.845 -0.532,-2 -6.847,-2 h -5.888 l -0.823,-1.331 c -0.452,-0.733 -1.232,-1.52 -1.732,-1.75 -0.501,-0.23 -2.042,-1.431 -3.425,-2.669 -1.383,-1.237 -2.778,-2.25 -3.1,-2.25 -0.322,0 -0.585,-0.179 -0.585,-0.397 0,-0.759 112.478,-0.77 112.731,-0.011 m -149.603,-0.045 c 0.382,0.242 0.121,0.528 -0.936,1.03 -1.422,0.675 -3.597,-0.239 -2.701,-1.134 0.359,-0.36 3.027,-0.283 3.637,0.104 m 4.746,0.523 c 0.604,0.567 0.926,1.327 0.926,2.186 0,0.891 0.249,1.449 0.773,1.73 0.426,0.227 0.831,0.905 0.9,1.505 0.076,0.647 0.492,1.271 1.025,1.535 1.096,0.544 0.759,0.974 -0.765,0.974 -0.943,0 -1.133,-0.168 -1.133,-1.004 0,-0.552 -0.36,-1.312 -0.8,-1.689 -0.44,-0.377 -0.8,-1.152 -0.8,-1.724 0,-0.609 -0.413,-1.398 -1,-1.908 -0.55,-0.478 -1,-1.051 -1,-1.272 0,-0.222 -0.281,-0.403 -0.624,-0.403 -0.343,0 -0.512,-0.18 -0.376,-0.4 0.422,-0.683 1.905,-0.441 2.874,0.47 m 8.728,-0.466 c 0.137,0.221 -0.078,0.503 -0.477,0.628 -0.399,0.124 -0.995,0.366 -1.325,0.537 -0.725,0.376 -1.029,2.762 -0.429,3.362 0.767,0.767 0.517,1.817 -0.377,1.583 -1.085,-0.283 -1.259,-0.645 -1.415,-2.948 -0.169,-2.482 -0.354,-2.766 -1.803,-2.766 -0.647,0 -1.176,-0.163 -1.176,-0.362 0,-0.5 6.694,-0.533 7.002,-0.034 M 180.6,208.8 c 0.136,0.22 -0.057,0.4 -0.429,0.4 -0.372,0 -1.299,0.66 -2.059,1.466 -1.423,1.509 -2.091,1.389 -2.106,-0.379 -0.003,-0.391 -0.275,-0.815 -0.604,-0.941 -0.328,-0.127 -0.498,-0.391 -0.376,-0.588 0.304,-0.492 5.267,-0.454 5.574,0.042 m 3.231,1.743 c -1.007,1.179 -1.831,2.343 -1.831,2.586 0,0.244 -0.36,0.636 -0.8,0.871 -0.44,0.235 -0.8,0.602 -0.8,0.815 0,0.449 -3.15,3.585 -3.602,3.585 -0.852,0 -0.645,-1.698 0.338,-2.769 2.085,-2.269 3.872,-4.519 4.422,-5.567 0.728,-1.388 1.168,-1.65 2.773,-1.658 l 1.331,-0.006 -1.831,2.143 M 112.826,209.5 c -0.785,0.638 -0.851,1.02 -0.744,4.3 l 0.118,3.6 2.088,0.12 c 3.028,0.175 3.837,-0.347 3.032,-1.96 -0.452,-0.906 -0.551,-1.835 -0.365,-3.42 l 0.256,-2.176 -1.393,-0.582 c -1.765,-0.738 -1.946,-0.731 -2.992,0.118 m 3.382,0.583 c 0.06,0.064 0.172,1.647 0.25,3.517 l 0.142,3.4 -2.1,0.121 -2.1,0.121 v -3.588 c 0,-2.486 0.154,-3.655 0.5,-3.807 0.469,-0.207 3.069,-0.021 3.308,0.236 m 35.68,0.217 c 0.144,0.385 0.528,0.899 0.852,1.142 0.372,0.279 0.484,0.717 0.304,1.188 -0.255,0.665 -0.444,0.58 -1.727,-0.78 -1.145,-1.215 -1.325,-1.6 -0.878,-1.882 0.827,-0.524 1.156,-0.449 1.449,0.332 m 15.551,0.9 c 0.021,0.77 0.176,2.075 0.344,2.9 0.248,1.214 0.189,1.5 -0.307,1.5 -0.356,0 -0.723,-0.504 -0.877,-1.203 -0.145,-0.662 -0.609,-1.388 -1.032,-1.614 -0.761,-0.408 -1.078,-2.338 -0.482,-2.935 0.863,-0.863 2.316,-0.029 2.354,1.352 m 13.183,-1.164 c 0.149,0.24 -0.353,1.095 -1.113,1.9 -0.761,0.805 -1.791,2.059 -2.289,2.786 -1.528,2.231 -3.31,1.285 -2.636,-1.4 0.214,-0.855 0.426,-0.98 1.348,-0.796 0.905,0.181 1.333,-0.052 2.481,-1.349 1.478,-1.672 1.783,-1.83 2.209,-1.141 m 18.262,1.959 c 1.384,1.318 2.711,2.398 2.949,2.4 0.238,0.003 1.012,0.725 1.719,1.605 l 1.286,1.6 h 5.752 c 6.201,0 7.194,0.308 6.931,2.15 -0.118,0.83 -0.308,0.852 -7.921,0.949 -8.684,0.109 -9.125,0.016 -8.215,-1.73 0.856,-1.64 -0.452,-4.569 -2.039,-4.569 -0.538,0 -4.18,-4.022 -3.962,-4.375 0.46,-0.743 0.927,-0.48 3.5,1.97 M 144.2,210.334 c 1.578,0.285 1.6,0.312 1.6,2.035 0,1.934 0.507,2.352 2.924,2.403 1.933,0.041 1.157,0.828 -0.816,0.828 -0.92,0 -1.945,-0.272 -2.326,-0.616 -0.568,-0.514 -2.701,-0.657 -12.895,-0.863 l -12.215,-0.247 -0.174,-1.637 c -0.095,-0.9 -0.101,-1.772 -0.012,-1.937 0.205,-0.382 21.776,-0.351 23.914,0.034 m 30.269,5.949 c 0.307,0.37 0.242,0.576 -0.241,0.762 -1.002,0.384 -1.183,-0.046 -1.067,-2.543 0.142,-3.071 0.609,-3.631 0.763,-0.914 0.068,1.203 0.313,2.416 0.545,2.695 M 283.28,212.88 c -0.666,0.666 -0.618,4.507 0.063,5.072 0.754,0.627 2.996,0.109 3.485,-0.805 0.22,-0.411 0.804,-0.747 1.297,-0.747 1.729,0 3.826,-3.226 2.442,-3.757 -1.163,-0.446 -6.787,-0.263 -7.287,0.237 m 7.375,0.442 c 0.177,0.177 0.129,0.447 -0.107,0.6 -0.235,0.153 -0.642,0.683 -0.902,1.178 -0.327,0.621 -0.838,0.9 -1.646,0.9 -0.774,0 -1.322,0.28 -1.613,0.823 -1.359,2.54 -4.103,-0.66 -3.009,-3.51 0.249,-0.648 6.628,-0.641 7.277,0.009 M 158.2,213.6 c -0.136,0.22 0.123,0.4 0.576,0.4 0.453,0 0.824,-0.18 0.824,-0.4 0,-0.22 -0.259,-0.4 -0.576,-0.4 -0.317,0 -0.688,0.18 -0.824,0.4 m 27.8,1.8 c 0,0.33 0.18,0.6 0.4,0.6 0.22,0 0.4,-0.27 0.4,-0.6 0,-0.33 -0.18,-0.6 -0.4,-0.6 -0.22,0 -0.4,0.27 -0.4,0.6 m 32,0.4 c 0,0.55 0.18,1 0.4,1 0.22,0 0.4,-0.45 0.4,-1 0,-0.55 -0.18,-1 -0.4,-1 -0.22,0 -0.4,0.45 -0.4,1 m -63.062,0.989 c 0.276,1.382 1.758,1.969 3.252,1.289 1.585,-0.723 1.941,1.668 0.843,5.66 -0.312,1.134 -0.68,2.737 -0.818,3.562 -0.332,1.982 -1.015,1.924 -1.015,-0.086 0,-1.176 -0.207,-1.696 -0.8,-2.014 -0.591,-0.317 -0.8,-0.838 -0.8,-1.998 0,-1.025 -0.264,-1.82 -0.76,-2.286 -0.672,-0.634 -1.097,-2.924 -0.894,-4.816 0.102,-0.95 0.755,-0.496 0.992,0.689 M 162.8,216.6 c 0,0.33 -0.259,0.6 -0.576,0.6 -0.774,0 -1.157,-0.68 -0.526,-0.934 0.873,-0.352 1.102,-0.283 1.102,0.334 m 60,1.4 c -0.927,0.927 -1.036,2.106 -0.256,2.754 0.396,0.328 8.13,0.423 28.3,0.349 L 278.6,221 l 0.122,-1.25 c 0.261,-2.684 1.742,-2.55 -28.151,-2.55 -26.438,0 -26.987,0.016 -27.771,0.8 m 54.825,0.425 c 2.244,2.244 3.111,2.175 -27.197,2.175 -29.766,0 -29.112,0.048 -27.076,-1.989 l 1.012,-1.011 h 26.218 c 25.945,0 26.227,0.009 27.043,0.825"
       inkscape:connector-curvature="0"
       style="fill:#747474;fill-rule:evenodd;stroke:none" />
    <path
       id="path4"
       d="m 184.456,206.813 c -0.649,0.541 -0.758,0.787 -0.349,0.787 0.327,0 0.826,-0.279 1.109,-0.619 0.844,-1.017 2.187,-0.571 2.168,0.719 -0.015,1.074 0.799,1.55 1.101,0.644 0.086,-0.257 1.016,-0.46 2.134,-0.466 1.089,-0.006 14.573,0.016 29.962,0.048 24.714,0.052 28.093,-0.013 28.932,-0.563 0.679,-0.445 1.405,-0.546 2.547,-0.353 3.436,0.581 54.848,0.478 56.293,-0.112 1.573,-0.643 2.75,-0.046 1.647,0.835 -1.012,0.809 -2.145,2.267 -1.762,2.267 0.199,0 0.872,-0.639 1.495,-1.42 1.71,-2.144 0.366,-3.357 -2.223,-2.006 -0.783,0.408 -1.966,0.513 -4.2,0.371 -1.71,-0.108 -10.94,-0.252 -20.51,-0.32 -9.57,-0.068 -20.857,-0.182 -25.083,-0.252 -6.836,-0.114 -7.767,-0.052 -8.448,0.564 -1.251,1.133 -60.78,0.968 -61.577,-0.17 -0.686,-0.979 -2.029,-0.96 -3.236,0.046 m -71.07,1.168 c -1.613,0.654 -1.82,1.344 -1.7,5.677 l 0.114,4.142 2.937,0.118 c 3.232,0.13 3.948,-0.189 4.139,-1.847 L 119,215 l 6,-0.21 6,-0.211 -5.6,-0.189 -5.6,-0.19 -0.125,-1.295 c -0.074,-0.763 -0.474,-1.539 -0.976,-1.891 -1.569,-1.099 -0.301,-1.213 15.673,-1.414 13.344,-0.168 16.023,-0.297 16.628,-0.8 0.61,-0.507 3.138,-0.614 16.32,-0.692 8.579,-0.051 15.691,-0.186 15.806,-0.3 0.114,-0.115 -7.016,-0.208 -15.844,-0.208 -15.453,0 -16.078,0.029 -16.785,0.788 -1.173,1.259 -32.624,1.293 -34.656,0.037 -0.734,-0.454 -1.404,-0.814 -1.488,-0.8 -0.084,0.014 -0.519,0.174 -0.967,0.356 m 2.593,1.208 c 1.429,0.729 1.539,0.906 1.433,2.3 -0.063,0.831 -0.033,1.182 0.068,0.78 0.114,-0.454 0.411,-0.643 0.785,-0.5 0.33,0.127 0.666,0.231 0.747,0.231 0.08,0 -0.042,0.54 -0.272,1.2 -0.44,1.264 -0.938,1.537 -1.275,0.7 -0.111,-0.275 -0.216,-0.041 -0.233,0.52 -0.018,0.561 0.172,1.224 0.421,1.473 1.116,1.116 0.047,1.748 -2.748,1.625 l -2.705,-0.118 -0.114,-3.88 -0.114,-3.88 1.114,-0.604 c 1.39,-0.754 1.083,-0.77 2.893,0.153 m 69.297,1.258 c -1.397,1.366 -1.6,1.953 -0.676,1.953 0.333,0 0.6,-0.356 0.6,-0.8 0,-0.533 0.267,-0.8 0.8,-0.8 0.533,0 0.8,-0.267 0.8,-0.8 0,-1.031 -0.017,-1.026 -1.524,0.447 M 153.491,209.9 c -0.275,0.53 0.178,4.1 0.521,4.1 0.671,0 1.588,1.286 1.588,2.229 0,1.764 3.856,0.931 6.503,-1.405 1.221,-1.078 1.175,-1.809 -0.234,-3.716 -0.974,-1.317 -1.497,-1.382 -2.469,-0.308 -1.066,1.178 -3.203,1.073 -4.037,-0.2 -0.635,-0.969 -1.553,-1.313 -1.872,-0.7 m 11.691,0.322 c -0.654,0.788 -0.31,1.919 0.72,2.373 0.612,0.269 0.898,0.739 0.898,1.476 0,0.595 0.208,1.211 0.463,1.368 0.339,0.209 0.392,-0.228 0.2,-1.632 -0.145,-1.055 -0.263,-2.323 -0.263,-2.816 0,-1.062 -1.349,-1.576 -2.018,-0.769 m -10.095,0.833 c 0.388,0.836 0.38,1.199 -0.036,1.794 -0.696,0.994 -1.051,0.55 -1.051,-1.316 0,-1.785 0.399,-1.96 1.087,-0.478 M 166.4,211.2 c 0,0.985 -0.738,1.427 -1.046,0.625 -0.315,-0.821 0.129,-1.944 0.643,-1.627 0.222,0.137 0.403,0.588 0.403,1.002 m 12.984,-0.773 c -0.145,0.234 -0.164,0.526 -0.041,0.649 0.329,0.329 1.457,-0.185 1.457,-0.663 0,-0.543 -1.079,-0.533 -1.416,0.014 m 15.816,0.01 c 0,0.241 0.348,0.529 0.772,0.64 0.425,0.111 0.869,0.454 0.988,0.762 0.21,0.548 1.44,0.81 1.44,0.307 0,-0.14 -0.459,-0.68 -1.021,-1.2 -1.071,-0.993 -2.179,-1.251 -2.179,-0.509 m 110.776,0.292 c -0.563,0.369 -1.841,1.346 -2.841,2.171 -0.999,0.825 -2.077,1.5 -2.395,1.5 -0.318,0 -1.281,0.72 -2.14,1.6 -0.859,0.88 -1.899,1.6 -2.309,1.6 -0.411,0 -1.601,0.72 -2.645,1.6 -1.044,0.88 -2.124,1.6 -2.4,1.6 -0.276,0 -1.356,0.72 -2.4,1.6 l -1.897,1.6 -51.975,-0.01 -51.974,-0.01 -2.531,-2.39 c -1.392,-1.314 -2.855,-2.39 -3.251,-2.39 -0.396,0 -0.981,-0.393 -1.3,-0.873 -0.543,-0.818 -0.9,-0.875 -5.549,-0.9 -2.733,-0.015 -5.217,-0.187 -5.521,-0.383 -0.389,-0.251 -0.497,-0.192 -0.367,0.2 0.144,0.43 1.352,0.575 5.345,0.639 4.309,0.069 5.241,0.193 5.651,0.755 0.484,0.662 1.346,1.24 3.323,2.232 0.55,0.275 1.647,1.182 2.439,2.015 l 1.438,1.515 h 52.381 52.381 l 1.665,-1.6 c 0.916,-0.88 1.996,-1.6 2.4,-1.6 0.404,0 1.484,-0.72 2.4,-1.6 0.946,-0.909 2.06,-1.602 2.581,-1.604 0.563,-0.002 1.454,-0.617 2.315,-1.596 0.77,-0.876 1.769,-1.594 2.219,-1.596 0.451,-0.002 1.547,-0.703 2.435,-1.556 0.889,-0.854 1.989,-1.671 2.445,-1.816 0.851,-0.27 2.076,-1.455 1.45,-1.403 -0.192,0.016 -0.81,0.331 -1.373,0.7 m -143.473,2.164 c 0.29,0.755 -1.778,2.707 -2.867,2.707 -0.46,0 -0.836,-0.18 -0.836,-0.4 0,-0.22 0.258,-0.4 0.573,-0.4 0.77,0 1.207,-1.501 0.637,-2.188 -0.343,-0.413 -0.332,-0.748 0.046,-1.354 0.532,-0.851 1.825,0.012 2.447,1.635 m 8.514,-1.555 c -0.586,0.428 -0.635,0.681 -0.268,1.367 0.248,0.463 0.451,1.384 0.451,2.045 0,1.352 0.708,2.039 1.239,1.201 1.188,-1.876 0.02,-5.667 -1.422,-4.613 m -23.737,0.342 c -1.386,1.386 0.024,2.789 2.389,2.377 l 1.468,-0.257 -0.549,-1.3 c -0.589,-1.394 -2.308,-1.82 -3.308,-0.82 m 2.72,0.873 c 0,0.933 -1.292,1.684 -2.069,1.204 -0.948,-0.585 -0.314,-2.157 0.869,-2.157 0.998,0 1.2,0.161 1.2,0.953 m 22.4,1.047 c 0,1.1 -0.162,2 -0.36,2 -0.361,0 -0.8,-3.507 -0.478,-3.828 0.553,-0.554 0.838,0.067 0.838,1.828 m 5.6,-1.351 c 0,0.531 0.109,0.559 0.6,0.151 0.33,-0.274 0.6,-0.566 0.6,-0.649 0,-0.083 -0.27,-0.151 -0.6,-0.151 -0.33,0 -0.6,0.292 -0.6,0.649 m -18.4,1.21 c 0,0.311 -0.263,0.667 -0.585,0.791 -0.321,0.123 -0.694,0.567 -0.827,0.987 -0.133,0.42 -0.397,0.763 -0.586,0.763 -0.305,0 -1.758,-2.477 -1.504,-2.565 0.056,-0.019 0.452,-0.228 0.88,-0.465 0.996,-0.55 2.622,-0.247 2.622,0.489 m 15.438,-0.692 c -0.404,0.74 -0.558,2.315 -0.272,2.778 0.597,0.965 2.834,-0.829 2.834,-2.273 0,-0.418 -2.357,-0.882 -2.562,-0.505 m 7.562,0.433 c -0.432,0.7 0.209,1.291 0.836,0.77 0.31,-0.257 0.564,-0.626 0.564,-0.819 0,-0.482 -1.095,-0.444 -1.4,0.049 m 15.89,0.071 c 0.087,0.26 0.487,0.665 0.889,0.9 2.564,1.502 3.125,3.026 2.039,5.529 -0.178,0.41 -0.133,0.7 0.107,0.7 0.226,0 0.53,-0.54 0.675,-1.2 0.25,-1.137 0.372,-1.202 2.332,-1.241 1.96,-0.039 1.996,-0.058 0.688,-0.366 -1.387,-0.326 -2.42,-1.295 -2.42,-2.269 0,-0.288 -0.261,-0.524 -0.579,-0.524 -0.319,0 -1.065,-0.45 -1.659,-1 -1.12,-1.038 -2.346,-1.351 -2.072,-0.529 m 85.19,0.009 c -0.508,0.508 -0.644,2.626 -0.237,3.687 0.339,0.884 1.891,0.79 2.757,-0.167 0.398,-0.44 1.134,-0.8 1.635,-0.8 0.549,0 1.239,-0.462 1.738,-1.162 0.991,-1.392 1.022,-1.638 0.203,-1.638 -0.343,0 -0.544,0.135 -0.447,0.3 0.486,0.824 -0.549,2.1 -1.702,2.1 -0.801,0 -1.345,0.273 -1.64,0.824 -0.854,1.596 -2.187,0.849 -2.187,-1.224 v -1.8 l 2.6,-0.231 2.6,-0.231 -2.42,-0.069 c -1.438,-0.041 -2.615,0.126 -2.9,0.411 m -106.487,0.22 c -0.012,0.542 -1.926,2.132 -2.143,1.781 -0.486,-0.787 0.257,-2.081 1.197,-2.081 0.524,0 0.95,0.135 0.946,0.3 m 3.999,1.51 c -0.278,0.335 -0.398,0.717 -0.266,0.849 0.409,0.41 1.474,-0.202 1.474,-0.846 0,-0.784 -0.559,-0.785 -1.208,-0.003 m -49.52,-0.014 c 0.412,0.426 11.204,1.385 15.702,1.395 3.387,0.008 4.098,0.125 4.807,0.792 l 0.833,0.782 0.042,-1.582 c 0.047,-1.781 -0.447,-2 -2.088,-0.925 -1.022,0.669 -1.679,0.661 -10.768,-0.143 -4.88,-0.431 -8.778,-0.577 -8.528,-0.319 m 31.65,1.404 c -0.367,0.974 -0.683,1.2 -1.68,1.2 -0.95,0 -1.269,0.203 -1.414,0.9 -0.249,1.201 -0.712,7.231 -0.733,9.565 -0.015,1.621 -0.137,1.888 -0.936,2.041 -1.243,0.237 -1.759,-0.385 -1.759,-2.124 0,-0.936 -0.278,-1.71 -0.777,-2.162 -0.428,-0.387 -0.851,-1.179 -0.941,-1.762 -0.145,-0.945 -0.169,-0.92 -0.222,0.228 -0.043,0.916 0.17,1.409 0.74,1.714 0.608,0.325 0.8,0.838 0.8,2.134 0,1.878 0.53,2.669 1.78,2.66 1.722,-0.013 1.864,-0.439 2.069,-6.234 0.237,-6.669 0.208,-6.56 1.776,-6.56 0.913,0 1.306,-0.215 1.459,-0.8 0.115,-0.44 0.368,-0.8 0.563,-0.8 0.194,0 0.353,-0.27 0.353,-0.6 0,-1.004 -0.598,-0.671 -1.078,0.6 m 16.278,0.633 c 0,0.349 0.214,0.562 0.475,0.475 0.742,-0.247 0.865,-1.108 0.158,-1.108 -0.348,0 -0.633,0.285 -0.633,0.633 m 33.333,0.933 c 3.07,0.229 4.669,1.06 4.031,2.093 -0.116,0.188 -3.486,0.382 -7.488,0.431 l -7.276,0.09 7.148,0.12 c 7.481,0.124 8.349,-0.044 7.956,-1.545 -0.296,-1.133 -1.701,-1.566 -4.83,-1.489 l -2.674,0.066 3.133,0.234 m 13.967,-0.07 c 1.265,0.079 3.335,0.079 4.6,0 1.265,-0.08 0.23,-0.145 -2.3,-0.145 -2.53,0 -3.565,0.065 -2.3,0.145 m 10.213,-10e-4 c 1.163,0.081 2.963,0.081 4,-0.002 1.038,-0.082 0.087,-0.148 -2.113,-0.147 -2.2,0.001 -3.049,0.068 -1.887,0.149 m 10.378,-0.006 c 0.71,0.088 1.97,0.09 2.8,0.003 0.83,-0.087 0.249,-0.159 -1.291,-0.161 -1.54,-0.002 -2.219,0.069 -1.509,0.158 m 7.391,0.007 c 1.476,0.077 3.996,0.077 5.6,0.001 1.605,-0.076 0.398,-0.139 -2.682,-0.139 -3.08,-0.001 -4.393,0.061 -2.918,0.138 m -47.377,0.387 c 0.497,0.096 1.217,0.092 1.6,-0.008 0.382,-0.1 -0.025,-0.179 -0.905,-0.174 -0.88,0.004 -1.193,0.086 -0.695,0.182 m 36.4,0 c 0.497,0.096 1.217,0.092 1.6,-0.008 0.382,-0.1 -0.025,-0.179 -0.905,-0.174 -0.88,0.004 -1.193,0.086 -0.695,0.182 m 20.802,0.007 c 0.719,0.089 1.799,0.087 2.4,-0.004 0.601,-0.091 0.013,-0.164 -1.307,-0.162 -1.32,0.002 -1.812,0.077 -1.093,0.166 m 5.798,-0.003 c 0.609,0.092 1.509,0.09 2,-0.005 0.492,-0.095 -0.005,-0.171 -1.105,-0.168 -1.1,0.003 -1.503,0.081 -0.895,0.173 m 6.523,0.544 c 0.485,0.536 0.808,0.662 0.911,0.353 0.087,-0.262 -0.088,-0.633 -0.39,-0.824 -0.998,-0.632 -1.285,-0.373 -0.521,0.471 m -123.764,0.825 c -0.041,0.935 0.217,1.793 0.723,2.4 0.612,0.734 0.789,0.799 0.8,0.293 0.007,-0.358 -0.247,-0.866 -0.564,-1.13 -0.317,-0.263 -0.648,-1.05 -0.736,-1.749 -0.157,-1.251 -0.16,-1.248 -0.223,0.186 m 69.798,0.844 c 0.102,0.165 12.404,0.3 27.338,0.3 14.934,0 27.236,-0.135 27.338,-0.3 0.102,-0.165 -12.2,-0.3 -27.338,-0.3 -15.138,0 -27.44,0.135 -27.338,0.3"
       inkscape:connector-curvature="0"
       style="fill:#a4a4a4;fill-rule:evenodd;stroke:none" />
  </g>
</svg>
