<?xml version="1.0" encoding="UTF-8" standalone="no"?>
<svg
   xmlns:dc="http://purl.org/dc/elements/1.1/"
   xmlns:cc="http://creativecommons.org/ns#"
   xmlns:rdf="http://www.w3.org/1999/02/22-rdf-syntax-ns#"
   xmlns:svg="http://www.w3.org/2000/svg"
   xmlns="http://www.w3.org/2000/svg"
   xmlns:sodipodi="http://sodipodi.sourceforge.net/DTD/sodipodi-0.dtd"
   xmlns:inkscape="http://www.inkscape.org/namespaces/inkscape"
   id="svg"
   version="1.1"
   width="400"
   height="400"
   viewBox="0, 0, 400,400"
   sodipodi:docname="Tracerifle.svg"
   inkscape:version="0.92.4 (5da689c313, 2019-01-14)">
  <metadata
     id="metadata382">
    <rdf:RDF>
      <cc:Work
         rdf:about="">
        <dc:format>image/svg+xml</dc:format>
        <dc:type
           rdf:resource="http://purl.org/dc/dcmitype/StillImage" />
      </cc:Work>
    </rdf:RDF>
  </metadata>
  <defs
     id="defs380" />
  <sodipodi:namedview
     pagecolor="#ffffff"
     bordercolor="#666666"
     borderopacity="1"
     objecttolerance="10"
     gridtolerance="10"
     guidetolerance="10"
     inkscape:pageopacity="0"
     inkscape:pageshadow="2"
     inkscape:window-width="640"
     inkscape:window-height="480"
     id="namedview378"
     showgrid="false"
     inkscape:zoom="0.59"
     inkscape:cx="200"
     inkscape:cy="200"
     inkscape:window-x="0"
     inkscape:window-y="0"
     inkscape:window-maximized="0"
     inkscape:current-layer="svg" />
  <g
     id="svgg">
    <path
       id="path0"
       d="M196.100 189.414 C 192.300 193.316,192.406 193.111,194.100 193.275 C 195.356 193.396,195.400 193.462,195.400 195.200 L 195.400 197.000 181.692 197.105 L 167.984 197.211 167.618 196.247 C 167.417 195.717,167.046 195.215,166.794 195.131 C 166.542 195.047,166.213 194.379,166.063 193.646 L 165.790 192.314 159.195 192.312 L 152.600 192.310 152.474 194.245 C 152.203 198.434,148.624 198.561,148.328 194.392 C 148.215 192.818,148.079 192.586,147.200 192.488 C 144.839 192.224,144.336 191.944,143.766 190.581 L 143.185 189.190 128.693 189.295 L 114.200 189.400 114.095 204.233 C 113.994 218.601,114.016 219.096,114.795 219.994 C 115.426 220.722,115.600 221.491,115.600 223.561 C 115.600 226.468,117.087 228.400,119.325 228.400 C 119.857 228.400,120.750 228.760,121.309 229.200 C 121.869 229.640,122.791 230.000,123.360 230.000 C 123.960 230.000,124.603 230.335,124.893 230.800 C 125.225 231.331,125.826 231.600,126.682 231.600 C 127.562 231.600,128.108 231.854,128.400 232.400 C 128.679 232.921,129.238 233.200,130.000 233.200 C 130.762 233.200,131.321 233.479,131.600 234.000 C 131.897 234.554,132.438 234.800,133.360 234.800 C 134.093 234.800,135.150 235.160,135.709 235.600 C 136.269 236.040,137.276 236.400,137.949 236.400 C 138.762 236.400,139.315 236.668,139.600 237.200 C 139.872 237.709,140.438 238.000,141.152 238.000 C 141.770 238.000,142.602 238.360,143.000 238.800 C 143.484 239.335,144.232 239.600,145.259 239.600 C 146.360 239.600,146.934 239.826,147.293 240.400 C 147.625 240.931,148.226 241.200,149.082 241.200 C 149.962 241.200,150.508 241.454,150.800 242.000 C 151.097 242.554,151.638 242.800,152.560 242.800 C 153.310 242.800,154.362 243.169,154.967 243.646 C 156.246 244.651,156.615 244.409,156.465 242.662 C 156.393 241.827,156.645 240.996,157.177 240.321 C 157.629 239.745,158.000 239.105,158.000 238.898 C 158.000 238.691,158.360 238.107,158.800 237.600 C 159.240 237.093,159.600 236.329,159.600 235.902 C 159.600 235.475,159.960 234.669,160.400 234.109 C 160.840 233.550,161.200 232.694,161.200 232.208 C 161.200 231.722,161.560 230.998,162.000 230.600 C 162.440 230.202,162.800 229.674,162.800 229.427 C 162.800 229.180,163.160 228.670,163.600 228.293 C 164.243 227.742,164.400 227.113,164.400 225.079 C 164.400 221.778,166.680 219.240,168.242 220.802 C 168.661 221.221,171.713 219.988,172.198 219.203 C 172.343 218.969,174.447 218.800,177.224 218.800 C 182.293 218.800,182.503 218.736,181.113 217.610 C 179.370 216.199,180.725 215.555,185.160 215.686 L 189.000 215.800 189.127 217.126 C 189.308 219.004,188.644 219.600,186.375 219.600 L 184.448 219.600 184.324 221.100 C 184.211 222.471,184.088 222.611,182.892 222.726 C 181.760 222.835,179.600 224.374,179.600 225.071 C 179.600 225.200,178.970 225.900,178.200 226.626 C 176.328 228.392,176.281 228.354,180.500 228.485 L 184.200 228.600 184.560 230.400 C 184.946 232.329,185.132 244.738,184.800 246.400 L 184.600 247.400 197.000 247.400 L 209.400 247.400 209.408 238.326 C 209.412 233.335,209.502 229.195,209.608 229.126 C 209.714 229.056,210.301 228.558,210.914 228.017 C 211.626 227.389,212.710 226.955,213.914 226.817 C 215.464 226.639,215.822 226.445,215.924 225.729 C 216.174 223.970,216.499 223.930,230.573 223.935 C 244.833 223.940,244.800 223.937,244.800 225.400 C 244.800 226.830,243.698 226.769,271.711 226.887 C 296.527 226.992,299.564 226.883,297.897 225.950 C 297.514 225.736,297.200 225.105,297.200 224.549 C 297.200 222.811,295.185 221.200,293.013 221.200 C 291.135 221.200,290.143 220.563,288.924 218.576 C 288.490 217.870,288.445 217.912,288.424 219.051 C 288.391 220.789,287.634 221.265,285.132 221.122 L 283.000 221.000 282.875 219.494 C 282.652 216.793,285.611 214.608,286.930 216.500 L 287.558 217.400 287.579 216.196 C 287.593 215.421,287.323 214.820,286.822 214.507 C 286.265 214.159,286.010 213.481,285.922 212.111 C 285.760 209.574,283.946 209.175,283.600 211.600 L 283.400 213.000 272.063 213.200 L 260.725 213.400 260.192 214.950 C 259.176 217.910,257.732 218.003,257.524 215.122 L 257.400 213.400 255.036 213.278 C 253.735 213.211,252.160 213.368,251.535 213.627 C 250.653 213.992,250.267 213.987,249.805 213.604 C 248.846 212.808,248.000 213.424,248.000 214.918 C 248.000 217.401,245.017 218.959,243.386 217.328 C 242.020 215.963,242.828 213.805,245.734 211.057 L 248.333 208.600 247.740 207.140 C 247.095 205.554,245.941 204.989,244.701 205.653 C 243.695 206.191,243.422 205.875,244.039 204.887 C 244.455 204.220,244.396 203.921,243.666 202.994 C 242.087 200.986,242.897 198.000,245.021 198.000 C 246.142 198.000,248.400 200.722,248.400 202.073 C 248.400 203.317,248.659 203.433,249.691 202.649 C 250.188 202.272,250.920 202.213,252.291 202.438 C 256.005 203.049,257.200 202.913,257.200 201.876 C 257.200 199.299,259.368 198.986,260.518 201.398 L 261.181 202.787 272.291 202.894 L 283.400 203.000 283.600 204.400 C 283.768 205.573,283.962 205.800,284.800 205.800 C 287.191 205.800,286.223 199.729,283.677 198.755 C 282.020 198.122,282.562 195.042,284.360 194.870 C 285.151 194.795,286.019 194.376,286.435 193.870 C 287.447 192.638,288.642 193.400,288.495 195.183 C 288.430 195.961,288.547 196.357,288.795 196.203 C 289.018 196.065,289.200 195.693,289.200 195.376 C 289.200 195.059,289.464 194.800,289.786 194.800 C 290.108 194.800,290.560 194.449,290.789 194.021 C 291.105 193.430,291.712 193.212,293.303 193.121 C 295.265 193.008,295.408 192.928,295.528 191.886 C 295.598 191.273,296.003 190.555,296.428 190.290 C 296.888 190.003,297.200 189.361,297.200 188.704 L 297.200 187.600 256.862 187.600 C 217.032 187.600,216.515 187.590,215.800 186.800 C 215.122 186.051,214.577 186.001,207.238 186.013 L 199.400 186.026 196.100 189.414 M286.917 198.000 C 286.667 198.577,286.632 199.158,286.835 199.373 C 287.376 199.948,287.677 199.394,287.505 198.137 L 287.350 197.000 286.917 198.000 M189.127 199.526 C 189.328 201.622,188.726 202.000,185.180 202.000 C 182.284 202.000,181.998 201.924,181.229 200.946 C 179.404 198.626,180.352 197.942,185.193 198.087 L 189.000 198.200 189.127 199.526 M249.737 206.937 C 249.330 208.718,249.765 210.992,250.434 210.579 C 250.893 210.295,250.920 205.721,250.464 205.439 C 250.279 205.325,249.952 205.999,249.737 206.937 M154.640 219.916 C 156.965 221.948,157.516 223.177,156.480 224.016 C 155.921 224.468,155.600 225.174,155.600 225.950 C 155.600 226.762,155.332 227.315,154.800 227.600 C 154.279 227.879,154.000 228.438,154.000 229.200 C 154.000 229.962,153.721 230.521,153.200 230.800 C 152.679 231.079,152.400 231.638,152.400 232.400 C 152.400 233.162,152.121 233.721,151.600 234.000 C 151.160 234.235,150.800 234.836,150.800 235.334 C 150.800 237.342,144.596 238.261,143.600 236.400 C 143.334 235.903,142.761 235.599,142.086 235.597 C 141.489 235.596,140.460 235.237,139.800 234.800 C 139.140 234.363,138.107 234.004,137.503 234.003 C 136.842 234.001,136.208 233.682,135.907 233.200 C 135.575 232.669,134.974 232.400,134.118 232.400 C 133.238 232.400,132.692 232.146,132.400 231.600 C 132.132 231.099,131.562 230.800,130.875 230.800 C 130.271 230.800,129.470 230.440,129.093 230.000 C 128.716 229.560,127.911 229.198,127.304 229.195 C 124.625 229.183,121.628 224.656,123.600 223.600 C 124.076 223.345,124.400 222.762,124.400 222.160 C 124.400 221.604,124.895 220.630,125.500 219.994 L 126.600 218.839 140.000 218.836 L 153.400 218.833 154.640 219.916 M217.529 220.521 C 218.266 222.066,217.565 222.882,215.638 222.720 C 214.090 222.590,213.726 221.947,214.178 220.144 C 214.544 218.687,216.774 218.938,217.529 220.521 "
       stroke="none"
       fill="#040404"
       fill-rule="evenodd" />
    <path
       id="path1"
       d="m -471.18644,194.91525 v 200 h 200 199.999999 v -200 -199.9999958 h -199.999999 -200 V 194.91525 m 216.507,-14 c 0.677,0.79 1.18,0.8 41.013,0.8 43.381,0 42.91,-0.022 41.175,1.895 -0.382,0.423 -0.695,1.06 -0.695,1.417 0,0.356 -0.244,0.792 -0.541,0.968 -0.298,0.176 -0.717,0.86 -0.932,1.52 -0.352,1.083 -0.575,1.212 -2.301,1.324 -2.199,0.142 -5.826,3.208 -5.826,4.925 0,0.489 -0.315,1.236 -0.7,1.66 -0.46,0.508 -0.769,1.686 -0.9,3.432 l -0.2,2.659 h -1.8 c -1.752,0 -1.805,-0.037 -2,-1.4 l -0.2,-1.4 -12,-0.2 c -14.994,-0.25 -21.198,-0.027 -19.9,0.714 1.299,0.742 1.384,6.834 0.1,7.17 -3.589,0.939 2.247,1.209 19.8,0.916 l 12,-0.2 0.2,-1.4 c 0.195,-1.362 0.248,-1.4 1.995,-1.4 h 1.795 l 0.282,1.971 c 0.161,1.128 0.549,2.121 0.905,2.32 0.345,0.193 0.623,0.877 0.623,1.534 0,2.067 3.311,5.175 5.513,5.175 2.074,0 4.087,1.653 4.087,3.355 0,0.607 0.322,1.189 0.8,1.445 0.817,0.437 1.168,2.925 0.474,3.354 -0.579,0.358 -81.402,0.571 -83.594,0.221 -4.587,-0.734 -4.787,-0.276 -4.482,10.225 0.145,5.005 0.093,8.604 -0.13,8.905 -0.292,0.394 -3.355,0.482 -13.821,0.4 l -13.447,-0.105 -0.2,-9.4 -0.2,-9.4 -3.796,-0.2 c -4.864,-0.256 -4.97,-0.602 -1.328,-4.343 1.976,-2.029 3.054,-2.833 3.924,-2.927 1.005,-0.109 1.219,-0.325 1.318,-1.33 l 0.119,-1.2 -4.919,0.132 c -4.183,0.112 -5.041,0.246 -5.744,0.9 -0.454,0.422 -1.162,0.768 -1.574,0.768 -0.412,0 -1.163,0.39 -1.67,0.866 -0.875,0.822 -0.96,0.831 -1.682,0.178 -1.439,-1.303 -2.848,0.62 -2.848,3.888 0,2.23 -0.124,2.706 -0.8,3.068 -0.44,0.235 -0.8,0.754 -0.8,1.152 0,0.398 -0.36,1.05 -0.8,1.448 -0.44,0.398 -0.8,1.208 -0.8,1.8 0,0.592 -0.36,1.402 -0.8,1.8 -0.44,0.398 -0.8,1.118 -0.8,1.6 0,0.482 -0.36,1.202 -0.8,1.6 -0.44,0.398 -0.8,1.049 -0.8,1.446 0,0.398 -0.405,1.102 -0.9,1.566 -0.864,0.81 -0.871,0.866 -0.165,1.386 0.404,0.298 0.673,0.87 0.597,1.272 -0.216,1.135 -3.524,1.244 -4.515,0.149 -0.462,-0.511 -1.239,-0.819 -2.065,-0.819 -0.914,0 -1.456,-0.247 -1.752,-0.8 -0.257,-0.48 -0.838,-0.8 -1.451,-0.8 -0.563,0 -1.48,-0.36 -2.04,-0.8 -0.615,-0.484 -1.623,-0.8 -2.549,-0.8 -1.122,0 -1.646,-0.214 -1.96,-0.8 -0.279,-0.521 -0.838,-0.8 -1.6,-0.8 -0.762,0 -1.321,-0.279 -1.6,-0.8 -0.318,-0.594 -0.838,-0.8 -2.018,-0.8 -1.095,0 -1.803,-0.249 -2.275,-0.8 -0.423,-0.495 -1.18,-0.8 -1.982,-0.8 -0.887,0 -1.432,-0.253 -1.725,-0.8 -0.279,-0.521 -0.838,-0.8 -1.6,-0.8 -0.762,0 -1.321,-0.279 -1.6,-0.8 -0.285,-0.532 -0.838,-0.8 -1.651,-0.8 -0.673,0 -1.68,-0.36 -2.24,-0.8 -0.559,-0.44 -1.444,-0.8 -1.967,-0.8 -0.522,0 -1.258,-0.36 -1.635,-0.8 -0.388,-0.453 -1.18,-0.8 -1.827,-0.8 -2.065,0 -3.414,-1.852 -3.623,-4.977 -0.124,-1.847 -0.409,-2.927 -0.919,-3.491 -0.771,-0.852 -1.184,-29.845 -0.451,-31.632 0.444,-1.081 30.599,-1.081 30.994,0 0.477,1.307 1.942,2.436 3.333,2.568 1.214,0.116 1.4,0.281 1.496,1.332 0.391,4.281 2.49,4.007 2.49,-0.325 0,-2.38 0.495,-2.714 3.418,-2.301 1.31,0.185 4.272,0.198 6.582,0.028 4.864,-0.356 4.69,-0.447 6.127,3.198 l 1.024,2.6 h 12.925 12.924 v -1 c 0,-0.837 -0.227,-1.033 -1.395,-1.2 -2.312,-0.331 -1.983,-1.237 1.869,-5.155 l 3.526,-3.586 8.611,-0.03 c 8.136,-0.027 8.649,0.015 9.296,0.771 m 70.073,9.169 c -0.209,0.203 -0.92,0.428 -1.58,0.5 -1.692,0.185 -1.775,2.065 -0.1,2.258 0.776,0.089 1.1,-0.054 1.1,-0.486 0,-0.337 0.36,-0.806 0.8,-1.041 0.44,-0.235 0.8,-0.692 0.8,-1.014 0,-0.665 -0.458,-0.763 -1.02,-0.217 m -104.074,3.948 c -0.382,0.25 -0.351,0.526 0.136,1.221 0.991,1.416 5.558,1.138 5.558,-0.338 0,-1.049 -4.398,-1.731 -5.694,-0.883 m 62.143,0.829 c -0.607,0.671 -0.615,0.86 -0.082,1.9 0.326,0.634 0.68,1.455 0.788,1.823 0.132,0.449 0.467,0.598 1.021,0.453 0.992,-0.259 0.985,-0.141 0.151,-2.787 -0.744,-2.359 -0.897,-2.473 -1.878,-1.389 m 0.426,13.512 c -0.425,0.426 -0.325,3.264 0.126,3.542 0.488,0.302 1.281,-1.643 1.117,-2.742 -0.125,-0.84 -0.781,-1.262 -1.243,-0.8 m -63.206,3.206 c -0.266,0.267 0.689,0.927 2.527,1.745 1.891,0.843 4.878,-0.601 3.694,-1.786 -0.316,-0.315 -5.901,-0.278 -6.221,0.041 m 102.597,1.152 c -0.514,0.512 -0.873,1.258 -0.797,1.658 0.206,1.085 2.098,1.159 3.135,0.122 l 0.852,-0.852 -1.049,-0.972 c -0.576,-0.535 -1.084,-0.953 -1.128,-0.93 -0.043,0.023 -0.499,0.462 -1.013,0.974 m -158.166,2.978 c -0.621,0.652 -1.1,1.607 -1.1,2.193 0,0.571 -0.27,1.142 -0.6,1.268 -1.348,0.518 2.034,4.145 3.865,4.145 0.697,0 1.265,0.296 1.535,0.8 0.279,0.521 0.838,0.8 1.6,0.8 0.762,0 1.321,0.279 1.6,0.8 0.285,0.532 0.838,0.8 1.651,0.8 0.673,0 1.68,0.36 2.24,0.8 0.559,0.44 1.505,0.8 2.101,0.8 0.596,0 1.41,0.36 1.808,0.8 0.398,0.44 1.23,0.8 1.848,0.8 0.714,0 1.28,0.291 1.552,0.8 0.941,1.758 5.6,0.605 5.6,-1.386 0,-0.322 0.36,-0.779 0.8,-1.014 0.521,-0.279 0.8,-0.838 0.8,-1.6 0,-0.762 0.279,-1.321 0.8,-1.6 0.512,-0.274 0.8,-0.838 0.8,-1.565 0,-0.654 0.321,-1.371 0.754,-1.686 1.496,-1.088 1.438,-4.089 -0.111,-5.731 l -1.337,-1.418 -12.553,0.019 -12.553,0.02 -1.1,1.155"
       inkscape:connector-curvature="0"
       style="fill:#fbfbfb;fill-rule:evenodd;stroke:none" />
    <path
       id="path2"
       d="M113.379 202.800 C 113.379 209.950,113.433 212.875,113.499 209.300 C 113.566 205.725,113.566 199.875,113.499 196.300 C 113.433 192.725,113.379 195.650,113.379 202.800 M153.000 191.197 C 153.764 191.528,156.714 191.755,156.367 191.456 C 156.275 191.377,155.300 191.209,154.200 191.082 C 152.913 190.933,152.485 190.974,153.000 191.197 M162.200 191.215 L 159.400 191.493 162.691 191.419 C 164.501 191.378,166.062 191.496,166.161 191.682 C 166.259 191.868,166.294 191.791,166.237 191.510 C 166.111 190.888,165.753 190.862,162.200 191.215 M151.508 195.510 C 151.234 196.555,149.374 196.771,149.070 195.792 C 148.938 195.366,148.900 195.395,148.944 195.892 C 148.983 196.334,149.395 196.645,150.038 196.720 C 151.138 196.849,152.185 195.955,151.908 195.124 C 151.816 194.847,151.636 195.021,151.508 195.510 M181.200 199.952 C 181.200 200.342,182.755 201.798,182.923 201.564 C 182.987 201.474,182.626 201.001,182.120 200.514 C 181.614 200.027,181.200 199.774,181.200 199.952 M258.000 201.067 C 258.000 201.433,258.112 201.621,258.250 201.484 C 258.387 201.346,258.846 201.631,259.269 202.117 C 260.039 202.999,260.039 202.999,259.410 201.700 C 258.734 200.307,258.000 199.977,258.000 201.067 M249.432 203.676 C 249.094 204.158,248.696 204.429,248.546 204.279 C 247.771 203.505,247.285 204.883,247.932 206.020 C 248.597 207.190,249.200 207.561,249.200 206.800 C 249.200 206.580,249.020 206.400,248.800 206.400 C 248.580 206.400,248.400 206.111,248.400 205.757 C 248.400 205.350,248.620 205.199,249.000 205.345 C 249.330 205.471,249.621 205.356,249.646 205.087 C 249.672 204.819,249.717 204.330,249.746 204.000 C 249.780 203.622,250.392 203.310,251.400 203.157 L 253.000 202.914 251.523 202.857 C 250.416 202.814,249.892 203.020,249.432 203.676 M247.269 210.928 C 246.036 212.201,246.012 212.287,246.704 212.913 C 247.378 213.523,247.463 213.512,247.936 212.754 C 248.313 212.151,248.578 212.050,248.958 212.365 C 249.358 212.697,249.455 212.524,249.399 211.579 C 249.283 209.631,248.700 209.453,247.269 210.928 M258.000 214.176 C 258.000 215.616,258.682 215.785,258.886 214.396 C 259.006 213.581,258.892 213.200,258.531 213.200 C 258.235 213.200,258.000 213.632,258.000 214.176 M287.632 219.313 C 287.614 219.705,287.195 220.189,286.700 220.388 C 286.091 220.632,286.010 220.757,286.451 220.775 C 287.274 220.807,288.141 219.790,287.869 219.113 C 287.742 218.796,287.651 218.872,287.632 219.313 M172.056 220.013 C 170.816 221.046,171.375 221.035,172.691 220.000 C 173.250 219.560,173.549 219.206,173.354 219.213 C 173.159 219.221,172.575 219.581,172.056 220.013 M214.976 220.038 C 214.811 220.305,214.841 220.422,215.043 220.297 C 215.486 220.023,216.573 220.774,216.928 221.600 C 217.114 222.033,217.160 221.990,217.093 221.448 C 216.967 220.424,215.387 219.373,214.976 220.038 M123.333 224.630 C 123.103 225.229,126.135 228.800,126.874 228.800 C 127.044 228.800,126.364 228.046,125.364 227.124 C 124.135 225.992,123.608 225.214,123.736 224.724 C 123.968 223.835,123.666 223.763,123.333 224.630 M217.722 224.676 C 217.460 224.773,217.041 225.470,216.791 226.226 C 216.433 227.313,216.115 227.610,215.269 227.646 C 214.453 227.681,214.579 227.769,215.800 228.018 C 217.257 228.315,290.827 228.104,291.131 227.802 C 291.203 227.731,280.781 227.650,267.971 227.623 C 242.372 227.569,244.000 227.693,244.000 225.791 L 244.000 224.429 231.100 224.465 C 224.005 224.484,217.985 224.579,217.722 224.676 M224.241 225.308 C 224.700 225.766,240.714 225.663,241.000 225.200 C 241.533 224.337,243.264 224.744,243.128 225.700 C 242.963 226.859,224.665 227.543,223.700 226.426 C 223.267 225.924,223.132 225.939,222.695 226.538 C 222.022 227.459,217.416 227.057,217.779 226.110 C 217.901 225.793,218.000 225.405,218.000 225.247 C 218.000 224.871,223.861 224.928,224.241 225.308 M219.900 227.876 C 219.515 227.976,218.885 227.976,218.500 227.876 C 218.115 227.775,218.430 227.693,219.200 227.693 C 219.970 227.693,220.285 227.775,219.900 227.876 M238.878 227.899 C 236.391 227.969,232.431 227.969,230.078 227.898 C 227.725 227.828,229.760 227.770,234.600 227.770 C 239.440 227.771,241.365 227.829,238.878 227.899 M292.701 228.042 C 293.195 228.225,294.005 228.225,294.499 228.042 C 295.204 227.781,295.010 227.709,293.600 227.709 C 292.190 227.709,291.996 227.781,292.701 228.042 M296.200 227.981 C 296.968 228.329,299.110 228.556,298.767 228.253 C 298.675 228.172,297.880 227.996,297.000 227.862 C 295.885 227.693,295.642 227.729,296.200 227.981 M123.200 230.684 C 123.530 230.805,124.160 231.196,124.600 231.552 C 125.393 232.194,125.394 232.192,124.638 231.300 C 124.219 230.805,123.589 230.414,123.238 230.432 C 122.696 230.458,122.691 230.497,123.200 230.684 M136.162 232.700 C 136.581 233.195,137.211 233.586,137.562 233.568 C 138.104 233.542,138.109 233.503,137.600 233.316 C 137.270 233.195,136.640 232.804,136.200 232.448 C 135.407 231.806,135.406 231.808,136.162 232.700 M210.165 238.800 C 210.165 242.650,210.225 244.225,210.298 242.300 C 210.371 240.375,210.371 237.225,210.298 235.300 C 210.225 233.375,210.165 234.950,210.165 238.800 M184.157 241.200 C 184.157 244.170,184.220 245.385,184.297 243.900 C 184.374 242.415,184.374 239.985,184.297 238.500 C 184.220 237.015,184.157 238.230,184.157 241.200 "
       stroke="none"
       fill="#848484"
       fill-rule="evenodd" />
    <path
       id="path3"
       d="M195.074 188.845 C 191.222 192.763,190.893 193.669,193.205 194.000 C 194.373 194.167,194.600 194.363,194.600 195.200 L 194.600 196.200 181.676 196.200 L 168.751 196.200 167.727 193.600 C 166.290 189.955,166.464 190.046,161.600 190.402 C 159.290 190.572,156.328 190.559,155.018 190.374 C 152.095 189.961,151.600 190.295,151.600 192.675 C 151.600 197.007,149.501 197.281,149.110 193.000 C 149.014 191.949,148.828 191.784,147.614 191.668 C 146.221 191.536,144.758 190.407,144.279 189.095 C 143.851 187.925,113.467 188.224,113.291 189.400 C 113.181 190.131,113.208 190.140,113.605 189.500 C 114.006 188.854,115.174 188.800,128.780 188.800 L 143.521 188.800 144.339 190.187 C 145.095 191.468,145.629 191.762,147.795 192.089 C 148.233 192.155,148.626 192.477,148.669 192.805 C 149.099 196.090,149.233 196.400,150.228 196.400 C 151.347 196.400,151.996 195.187,152.006 193.074 C 152.016 190.971,152.337 190.771,155.018 191.196 C 156.437 191.421,159.098 191.437,161.600 191.236 C 166.429 190.846,166.254 190.802,166.606 192.505 C 166.753 193.217,167.311 194.477,167.846 195.306 L 168.819 196.811 181.666 196.706 C 193.398 196.609,194.551 196.539,194.955 195.900 C 195.543 194.967,194.842 193.845,193.559 193.666 C 191.564 193.388,191.799 192.818,195.406 189.194 L 198.983 185.600 207.160 185.600 C 214.386 185.600,215.427 185.681,216.110 186.300 C 216.833 186.954,219.536 187.013,257.342 187.200 L 297.800 187.400 297.732 188.782 C 297.695 189.542,297.424 190.352,297.130 190.582 C 296.836 190.812,296.413 191.540,296.190 192.200 C 295.834 193.255,295.560 193.424,293.926 193.600 C 291.523 193.859,288.000 196.834,288.000 198.606 C 288.000 199.214,287.702 199.930,287.337 200.197 C 286.880 200.531,286.600 201.540,286.437 203.441 L 286.200 206.200 284.800 206.200 C 283.610 206.200,283.379 206.050,283.262 205.200 C 282.984 203.193,283.027 203.200,271.333 203.200 L 260.364 203.200 259.370 202.206 L 258.376 201.212 257.998 202.206 C 257.632 203.168,257.498 203.200,253.834 203.200 C 249.809 203.200,248.740 203.664,250.332 204.721 C 251.729 205.649,251.627 210.657,250.200 211.200 C 249.152 211.599,248.913 212.175,249.616 212.610 C 250.354 213.066,282.081 212.831,282.642 212.366 C 282.923 212.132,283.208 211.460,283.276 210.871 C 283.536 208.626,286.108 209.363,286.517 211.799 C 286.701 212.898,287.110 213.942,287.426 214.118 C 287.742 214.295,288.000 214.979,288.000 215.639 C 288.000 217.671,291.460 220.800,293.706 220.800 C 295.676 220.800,297.600 222.335,297.600 223.906 C 297.600 224.381,297.982 225.125,298.449 225.560 C 299.916 226.927,299.188 228.580,297.280 228.214 C 296.466 228.058,295.440 227.962,295.000 228.000 C 294.560 228.038,293.840 228.056,293.400 228.041 C 291.828 227.986,286.138 227.993,251.600 228.096 C 232.350 228.153,215.753 228.055,214.718 227.878 C 212.936 227.574,212.763 227.627,211.474 228.878 L 210.112 230.200 210.381 238.800 C 210.530 243.530,210.538 247.538,210.400 247.706 C 210.262 247.874,204.310 247.964,197.174 247.906 L 184.200 247.800 184.182 238.940 C 184.160 228.310,184.409 228.873,179.664 228.715 C 177.517 228.644,176.200 228.435,176.200 228.167 C 176.200 227.162,180.999 222.411,182.020 222.405 C 183.347 222.398,184.000 221.711,184.000 220.320 C 184.000 219.408,184.176 219.200,184.950 219.200 C 187.133 219.200,188.321 218.724,188.502 217.778 C 188.776 216.347,188.093 215.999,185.020 216.006 C 181.513 216.014,180.582 216.482,181.958 217.548 C 183.599 218.821,182.697 219.200,178.030 219.200 C 174.314 219.200,173.565 219.312,172.691 220.000 C 172.131 220.440,171.394 220.800,171.052 220.800 C 170.711 220.800,170.052 221.205,169.588 221.700 C 168.795 222.545,168.713 222.557,168.228 221.900 C 166.832 220.006,164.800 222.340,164.800 225.839 C 164.800 227.512,164.621 228.468,164.267 228.680 C 163.735 229.000,162.508 231.231,160.792 235.000 C 160.292 236.100,159.725 237.270,159.533 237.600 C 159.342 237.930,158.963 238.650,158.691 239.200 C 158.419 239.750,157.870 240.683,157.470 241.273 C 156.891 242.128,156.834 242.516,157.190 243.181 C 158.102 244.886,155.959 245.455,154.109 244.000 C 153.550 243.560,152.604 243.200,152.008 243.200 C 151.412 243.200,150.598 242.840,150.200 242.400 C 149.802 241.960,149.029 241.600,148.482 241.600 C 147.935 241.600,147.282 241.318,147.030 240.973 C 146.778 240.629,145.768 240.244,144.786 240.118 C 143.804 239.993,142.678 239.555,142.284 239.145 C 141.891 238.735,141.154 238.400,140.646 238.400 C 140.139 238.400,139.398 238.040,139.000 237.600 C 138.589 237.146,137.768 236.800,137.101 236.800 C 136.455 236.800,135.469 236.440,134.909 236.000 C 134.350 235.560,133.404 235.200,132.808 235.200 C 132.212 235.200,131.398 234.840,131.000 234.400 C 130.602 233.960,129.882 233.600,129.400 233.600 C 128.918 233.600,128.198 233.240,127.800 232.800 C 127.402 232.360,126.586 232.000,125.987 232.000 C 125.388 232.000,124.683 231.742,124.421 231.426 C 124.159 231.110,123.372 230.726,122.672 230.574 C 121.973 230.421,120.971 229.959,120.446 229.548 C 119.921 229.137,119.021 228.795,118.446 228.789 C 116.514 228.768,115.255 226.940,115.030 223.830 C 114.897 221.991,114.600 220.842,114.121 220.313 C 113.476 219.600,113.385 218.143,113.154 204.863 L 112.900 190.200 112.958 205.067 C 113.011 218.855,113.069 219.992,113.746 220.741 C 114.248 221.295,114.533 222.388,114.657 224.223 C 114.866 227.348,116.215 229.200,118.280 229.200 C 118.927 229.200,119.719 229.547,120.107 230.000 C 120.484 230.440,121.220 230.800,121.742 230.800 C 122.265 230.800,123.150 231.160,123.709 231.600 C 124.269 232.040,125.276 232.400,125.949 232.400 C 126.762 232.400,127.315 232.668,127.600 233.200 C 127.879 233.721,128.438 234.000,129.200 234.000 C 129.962 234.000,130.521 234.279,130.800 234.800 C 131.093 235.347,131.638 235.600,132.525 235.600 C 133.327 235.600,134.084 235.905,134.507 236.400 C 134.979 236.951,135.687 237.200,136.782 237.200 C 137.962 237.200,138.482 237.406,138.800 238.000 C 139.079 238.521,139.638 238.800,140.400 238.800 C 141.162 238.800,141.721 239.079,142.000 239.600 C 142.314 240.186,142.838 240.400,143.960 240.400 C 144.886 240.400,145.894 240.716,146.509 241.200 C 147.069 241.640,147.986 242.000,148.549 242.000 C 149.162 242.000,149.743 242.320,150.000 242.800 C 150.296 243.353,150.838 243.600,151.752 243.600 C 152.578 243.600,153.355 243.908,153.817 244.419 C 154.808 245.514,158.116 245.405,158.332 244.270 C 158.408 243.868,158.139 243.296,157.735 242.998 C 157.029 242.478,157.036 242.422,157.900 241.612 C 158.395 241.148,158.800 240.444,158.800 240.046 C 158.800 239.649,159.160 238.998,159.600 238.600 C 160.040 238.202,160.400 237.482,160.400 237.000 C 160.400 236.518,160.760 235.798,161.200 235.400 C 161.640 235.002,162.000 234.192,162.000 233.600 C 162.000 233.008,162.360 232.198,162.800 231.800 C 163.240 231.402,163.600 230.750,163.600 230.352 C 163.600 229.954,163.960 229.435,164.400 229.200 C 165.076 228.838,165.200 228.362,165.200 226.132 C 165.200 222.864,166.609 220.941,168.048 222.244 C 168.770 222.897,168.855 222.888,169.730 222.066 C 170.237 221.590,170.988 221.200,171.400 221.200 C 171.812 221.200,172.520 220.854,172.974 220.432 C 173.677 219.778,174.535 219.644,178.718 219.532 L 183.637 219.400 183.518 220.600 C 183.419 221.605,183.205 221.821,182.200 221.930 C 181.330 222.024,180.252 222.828,178.276 224.857 C 174.634 228.598,174.740 228.944,179.604 229.200 L 183.400 229.400 183.600 238.800 L 183.800 248.200 197.247 248.305 C 207.713 248.387,210.776 248.299,211.068 247.905 C 211.291 247.604,211.343 244.005,211.198 239.000 C 210.893 228.499,211.093 228.041,215.680 228.775 C 217.872 229.125,298.695 228.912,299.274 228.554 C 299.968 228.125,299.617 225.637,298.800 225.200 C 298.322 224.944,298.000 224.362,298.000 223.755 C 298.000 222.053,295.987 220.400,293.913 220.400 C 291.711 220.400,288.400 217.292,288.400 215.225 C 288.400 214.568,288.122 213.884,287.777 213.691 C 287.421 213.492,287.033 212.499,286.872 211.371 L 286.590 209.400 284.795 209.400 C 283.048 209.400,282.995 209.438,282.800 210.800 L 282.600 212.200 270.600 212.400 C 253.047 212.693,247.211 212.423,250.800 211.484 C 252.084 211.148,251.999 205.056,250.700 204.314 C 249.402 203.573,255.606 203.350,270.600 203.600 L 282.600 203.800 282.800 205.200 C 282.995 206.563,283.048 206.600,284.800 206.600 L 286.600 206.600 286.800 203.941 C 286.931 202.195,287.240 201.017,287.700 200.509 C 288.085 200.085,288.400 199.338,288.400 198.849 C 288.400 197.132,292.027 194.066,294.226 193.924 C 295.952 193.812,296.175 193.683,296.527 192.600 C 296.742 191.940,297.161 191.256,297.459 191.080 C 297.756 190.904,298.000 190.468,298.000 190.112 C 298.000 189.755,298.313 189.118,298.695 188.695 C 300.430 186.778,300.901 186.800,257.520 186.800 C 217.687 186.800,217.184 186.790,216.507 186.000 C 215.860 185.244,215.347 185.202,207.211 185.229 L 198.600 185.259 195.074 188.845 M286.557 194.567 C 286.417 194.934,285.848 195.200,285.206 195.200 C 282.960 195.200,282.532 197.373,284.585 198.357 C 285.554 198.822,285.791 198.827,285.937 198.388 C 286.035 198.095,286.553 197.449,287.089 196.953 C 287.694 196.392,288.013 195.712,287.931 195.157 C 287.772 194.070,286.893 193.693,286.557 194.567 M287.600 195.386 C 287.600 195.708,287.240 196.165,286.800 196.400 C 286.360 196.635,286.000 197.104,286.000 197.441 C 286.000 197.873,285.676 198.016,284.900 197.927 C 283.225 197.734,283.308 195.854,285.000 195.669 C 285.660 195.597,286.371 195.372,286.580 195.169 C 287.142 194.623,287.600 194.721,287.600 195.386 M182.100 198.674 C 180.938 198.908,180.964 199.400,182.201 200.637 C 184.210 202.646,189.905 201.448,188.556 199.300 C 188.114 198.596,184.315 198.228,182.100 198.674 M188.200 200.000 C 188.200 201.476,183.633 201.754,182.642 200.338 C 181.764 199.085,182.410 198.770,185.600 198.897 C 188.079 198.995,188.200 199.046,188.200 200.000 M244.095 199.265 C 243.479 199.881,243.449 201.689,244.046 202.286 C 244.292 202.532,244.702 203.153,244.958 203.666 C 245.787 205.329,247.834 204.977,247.673 203.200 C 247.395 200.151,245.402 197.958,244.095 199.265 M246.527 201.335 C 247.361 203.981,247.368 203.863,246.376 204.122 C 245.822 204.267,245.487 204.118,245.355 203.669 C 245.247 203.301,244.893 202.480,244.567 201.846 C 244.034 200.806,244.042 200.617,244.649 199.946 C 245.630 198.862,245.783 198.976,246.527 201.335 M248.400 205.800 C 248.400 206.130,248.580 206.400,248.800 206.400 C 249.020 206.400,249.200 206.130,249.200 205.800 C 249.200 205.470,249.020 205.200,248.800 205.200 C 248.580 205.200,248.400 205.470,248.400 205.800 M244.860 213.100 C 243.554 214.204,243.519 216.981,244.807 217.318 C 246.378 217.728,247.928 214.360,246.796 212.996 C 246.161 212.230,245.871 212.246,244.860 213.100 M246.318 214.258 C 246.482 215.357,245.689 217.302,245.201 217.000 C 244.750 216.722,244.650 213.884,245.075 213.458 C 245.537 212.996,246.193 213.418,246.318 214.258 M188.090 216.623 C 189.274 217.808,186.287 219.252,184.396 218.409 C 182.558 217.591,181.603 216.931,181.869 216.664 C 182.189 216.345,187.774 216.308,188.090 216.623 M284.275 217.522 C 282.406 219.473,283.218 221.111,285.814 220.624 C 287.915 220.230,288.461 218.606,286.917 217.343 C 285.506 216.188,285.556 216.185,284.275 217.522 M286.607 217.772 L 287.656 218.744 286.804 219.596 C 285.767 220.633,283.875 220.559,283.669 219.474 C 283.565 218.924,284.719 217.246,285.479 216.842 C 285.523 216.819,286.031 217.237,286.607 217.772 M126.078 220.519 C 125.375 221.245,124.800 222.212,124.800 222.670 C 124.800 223.128,124.530 223.726,124.200 224.000 C 122.972 225.019,126.046 228.800,128.102 228.800 C 128.608 228.800,129.330 229.160,129.707 229.600 C 130.084 230.040,130.816 230.400,131.334 230.400 C 131.852 230.400,132.602 230.760,133.000 231.200 C 133.398 231.640,134.214 232.000,134.813 232.000 C 135.412 232.000,136.122 232.265,136.391 232.589 C 136.660 232.914,137.537 233.300,138.340 233.447 C 139.143 233.595,140.229 234.050,140.754 234.458 C 141.279 234.866,142.106 235.200,142.592 235.200 C 143.078 235.200,143.802 235.560,144.200 236.000 C 145.388 237.313,150.000 236.868,150.000 235.441 C 150.000 235.122,150.450 234.327,151.000 233.673 C 151.550 233.019,152.000 232.133,152.000 231.704 C 152.000 231.275,152.360 230.598,152.800 230.200 C 153.240 229.802,153.600 229.082,153.600 228.600 C 153.600 228.118,153.960 227.398,154.400 227.000 C 154.840 226.602,155.200 225.823,155.200 225.270 C 155.200 224.716,155.482 223.951,155.828 223.570 C 156.406 222.930,156.312 222.733,154.617 221.038 L 152.779 219.200 140.068 219.200 L 127.357 219.200 126.078 220.519 M153.843 221.018 C 155.392 222.660,155.450 225.661,153.954 226.749 C 153.521 227.064,153.200 227.781,153.200 228.435 C 153.200 229.162,152.912 229.726,152.400 230.000 C 151.879 230.279,151.600 230.838,151.600 231.600 C 151.600 232.362,151.321 232.921,150.800 233.200 C 150.360 233.435,150.000 233.892,150.000 234.214 C 150.000 235.413,148.471 236.400,146.614 236.400 C 145.238 236.400,144.730 236.217,144.400 235.600 C 144.128 235.091,143.562 234.800,142.848 234.800 C 142.230 234.800,141.398 234.440,141.000 234.000 C 140.602 233.560,139.788 233.200,139.192 233.200 C 138.596 233.200,137.650 232.840,137.091 232.400 C 136.531 231.960,135.524 231.600,134.851 231.600 C 134.038 231.600,133.485 231.332,133.200 230.800 C 132.921 230.279,132.362 230.000,131.600 230.000 C 130.838 230.000,130.279 229.721,130.000 229.200 C 129.730 228.696,129.162 228.400,128.465 228.400 C 126.634 228.400,123.252 224.773,124.600 224.255 C 124.930 224.129,125.200 223.558,125.200 222.987 C 125.200 222.401,125.679 221.446,126.300 220.794 L 127.400 219.639 139.953 219.619 L 152.506 219.600 153.843 221.018 M214.831 220.743 C 214.335 221.669,214.967 222.386,216.034 222.107 C 217.022 221.849,217.013 221.125,216.012 220.500 C 215.348 220.086,215.162 220.124,214.831 220.743 M218.000 225.247 C 218.000 225.405,217.901 225.793,217.779 226.110 C 217.416 227.057,222.022 227.459,222.695 226.538 C 223.132 225.939,223.267 225.924,223.700 226.426 C 224.665 227.543,242.963 226.859,243.128 225.700 C 243.264 224.744,241.533 224.337,241.000 225.200 C 240.714 225.663,224.700 225.766,224.241 225.308 C 223.861 224.928,218.000 224.871,218.000 225.247 "
       stroke="none"
       fill="#a4a4a4"
       fill-rule="evenodd" />
    <path
       id="path4"
       d="M195.455 189.264 C 191.854 192.927,191.662 193.436,193.800 193.669 C 194.880 193.787,195.000 193.940,195.000 195.200 L 195.000 196.600 181.743 196.705 L 168.485 196.811 167.696 195.473 C 167.262 194.737,166.684 193.460,166.411 192.635 C 165.986 191.345,165.785 191.167,164.983 191.369 C 163.667 191.699,154.815 191.729,153.554 191.407 C 152.374 191.106,152.015 191.810,152.005 194.451 C 151.993 197.787,149.104 197.741,148.800 194.400 C 148.619 192.413,148.503 192.189,147.600 192.088 C 145.239 191.824,144.736 191.544,144.166 190.181 L 143.585 188.790 128.693 188.895 L 113.800 189.000 113.800 204.458 C 113.800 218.619,113.859 219.981,114.500 220.690 C 115.014 221.257,115.200 222.147,115.200 224.031 C 115.200 226.843,116.706 228.796,118.879 228.803 C 119.385 228.804,120.340 229.163,121.000 229.600 C 121.660 230.037,122.577 230.396,123.038 230.397 C 123.499 230.399,124.202 230.760,124.600 231.200 C 124.998 231.640,125.830 232.000,126.448 232.000 C 127.162 232.000,127.728 232.291,128.000 232.800 C 128.279 233.321,128.838 233.600,129.600 233.600 C 130.362 233.600,130.921 233.879,131.200 234.400 C 131.491 234.944,132.039 235.201,132.914 235.203 C 133.621 235.204,134.740 235.563,135.400 236.000 C 136.060 236.437,137.089 236.796,137.686 236.797 C 138.361 236.799,138.934 237.103,139.200 237.600 C 139.472 238.109,140.038 238.400,140.752 238.400 C 141.370 238.400,142.202 238.760,142.600 239.200 C 143.111 239.764,143.832 240.000,145.048 240.000 C 146.362 240.000,146.874 240.190,147.200 240.800 C 147.472 241.309,148.038 241.600,148.752 241.600 C 149.370 241.600,150.202 241.960,150.600 242.400 C 150.998 242.840,151.770 243.200,152.315 243.200 C 152.860 243.200,153.892 243.562,154.608 244.005 C 156.314 245.059,157.330 244.703,156.993 243.168 C 156.766 242.134,158.267 238.693,159.249 237.996 C 159.407 237.884,159.668 237.254,159.829 236.596 C 159.990 235.938,160.455 234.971,160.861 234.446 C 161.267 233.921,161.600 233.233,161.600 232.917 C 161.600 232.205,163.428 229.040,164.218 228.385 C 164.613 228.058,164.800 227.105,164.800 225.426 C 164.800 222.240,166.523 220.064,167.993 221.394 C 168.722 222.054,168.867 222.065,169.500 221.509 C 169.885 221.171,170.589 220.776,171.064 220.632 C 171.539 220.487,172.146 220.106,172.413 219.785 C 172.786 219.335,173.942 219.200,177.425 219.200 C 182.289 219.200,183.228 218.829,181.558 217.567 C 179.995 216.386,181.012 215.952,185.036 216.084 C 189.938 216.244,190.744 218.934,185.992 219.272 C 184.280 219.394,184.191 219.462,184.000 220.800 C 183.828 222.005,183.633 222.218,182.600 222.330 C 181.275 222.473,175.775 227.712,176.210 228.417 C 176.341 228.628,178.046 228.800,180.000 228.800 C 184.485 228.800,184.181 228.113,184.296 238.531 C 184.348 243.334,184.494 247.429,184.619 247.631 C 184.940 248.150,209.042 248.113,210.014 247.593 C 210.624 247.266,210.702 246.993,210.406 246.216 C 209.626 244.164,209.828 230.054,210.650 229.145 C 211.790 227.885,212.824 227.471,214.657 227.541 C 216.238 227.600,216.363 227.523,216.793 226.221 C 217.401 224.378,216.847 224.446,231.300 224.435 L 244.000 224.425 244.000 225.825 C 244.000 227.711,241.807 227.564,271.900 227.689 L 298.800 227.800 298.800 226.949 C 298.800 226.481,298.530 225.874,298.200 225.600 C 297.870 225.326,297.600 224.660,297.600 224.120 C 297.600 222.494,295.561 220.800,293.604 220.800 C 291.525 220.800,290.575 220.298,289.794 218.788 C 289.456 218.135,288.914 217.600,288.590 217.600 C 288.188 217.600,288.000 217.174,288.000 216.262 C 288.000 215.443,287.697 214.650,287.220 214.218 C 286.709 213.755,286.399 212.874,286.320 211.656 C 286.155 209.099,283.554 208.719,283.200 211.200 L 283.000 212.600 271.400 212.800 C 259.168 213.011,258.800 213.065,258.800 214.647 C 258.800 215.212,258.626 215.540,258.400 215.400 C 258.180 215.264,258.000 214.717,258.000 214.184 C 258.000 212.924,256.817 212.623,252.997 212.912 C 250.855 213.074,249.870 212.984,249.283 212.573 C 248.286 211.875,247.564 212.564,247.442 214.335 C 247.200 217.827,243.600 218.973,243.600 215.557 C 243.600 214.568,243.855 213.783,244.300 213.404 C 244.685 213.076,245.832 212.085,246.849 211.200 L 248.698 209.593 249.278 210.466 C 250.462 212.251,251.249 211.157,251.118 207.910 C 250.986 204.651,249.857 203.415,249.346 205.970 C 249.039 207.505,248.779 207.510,247.919 205.997 C 247.453 205.178,246.927 204.800,246.257 204.800 C 244.247 204.800,242.568 200.632,244.000 199.200 C 245.490 197.710,247.356 199.386,247.894 202.700 C 248.169 204.393,248.707 204.710,249.467 203.625 C 250.032 202.819,250.284 202.781,253.429 203.036 C 257.130 203.337,258.000 203.016,258.000 201.351 C 258.000 200.043,258.655 200.159,259.400 201.600 C 259.741 202.260,260.061 202.835,260.110 202.878 C 260.160 202.921,265.330 203.056,271.600 203.178 L 283.000 203.400 283.200 204.800 C 283.385 206.095,283.505 206.200,284.800 206.200 L 286.200 206.200 286.317 203.305 C 286.414 200.912,286.571 200.337,287.217 199.991 C 287.763 199.699,288.000 199.152,288.000 198.186 C 288.000 197.405,288.202 196.800,288.462 196.800 C 288.716 196.800,289.532 196.089,290.275 195.220 C 291.487 193.805,291.844 193.628,293.714 193.520 C 295.597 193.412,295.813 193.303,295.935 192.400 C 296.009 191.850,296.391 191.040,296.783 190.600 C 297.832 189.421,298.142 187.740,297.364 187.442 C 297.018 187.309,278.666 187.200,256.581 187.200 C 216.838 187.200,216.424 187.192,216.000 186.400 C 215.592 185.638,215.178 185.601,207.286 185.629 L 199.000 185.659 195.455 189.264 M215.800 186.800 C 216.515 187.590,217.032 187.600,256.862 187.600 L 297.200 187.600 297.200 188.704 C 297.200 189.361,296.888 190.003,296.428 190.290 C 296.003 190.555,295.598 191.273,295.528 191.886 C 295.408 192.928,295.265 193.008,293.303 193.121 C 291.712 193.212,291.105 193.430,290.789 194.021 C 290.560 194.449,290.108 194.800,289.786 194.800 C 289.464 194.800,289.200 195.059,289.200 195.376 C 289.200 195.693,289.018 196.065,288.795 196.203 C 288.547 196.357,288.430 195.961,288.495 195.183 C 288.642 193.400,287.447 192.638,286.435 193.870 C 286.019 194.376,285.151 194.795,284.360 194.870 C 282.562 195.042,282.020 198.122,283.677 198.755 C 286.223 199.729,287.191 205.800,284.800 205.800 C 283.962 205.800,283.768 205.573,283.600 204.400 L 283.400 203.000 272.291 202.894 L 261.181 202.787 260.518 201.398 C 259.368 198.986,257.200 199.299,257.200 201.876 C 257.200 202.913,256.005 203.049,252.291 202.438 C 250.920 202.213,250.188 202.272,249.691 202.649 C 248.659 203.433,248.400 203.317,248.400 202.073 C 248.400 200.722,246.142 198.000,245.021 198.000 C 242.897 198.000,242.087 200.986,243.666 202.994 C 244.396 203.921,244.455 204.220,244.039 204.887 C 243.422 205.875,243.695 206.191,244.701 205.653 C 245.941 204.989,247.095 205.554,247.740 207.140 L 248.333 208.600 245.734 211.057 C 242.828 213.805,242.020 215.963,243.386 217.328 C 245.017 218.959,248.000 217.401,248.000 214.918 C 248.000 213.424,248.846 212.808,249.805 213.604 C 250.267 213.987,250.653 213.992,251.535 213.627 C 252.160 213.368,253.735 213.211,255.036 213.278 L 257.400 213.400 257.524 215.122 C 257.732 218.003,259.176 217.910,260.192 214.950 L 260.725 213.400 272.063 213.200 L 283.400 213.000 283.600 211.600 C 283.946 209.175,285.760 209.574,285.922 212.111 C 286.010 213.481,286.265 214.159,286.822 214.507 C 287.323 214.820,287.593 215.421,287.579 216.196 L 287.558 217.400 286.930 216.500 C 285.611 214.608,282.652 216.793,282.875 219.494 L 283.000 221.000 285.132 221.122 C 287.634 221.265,288.391 220.789,288.424 219.051 C 288.445 217.912,288.490 217.870,288.924 218.576 C 290.143 220.563,291.135 221.200,293.013 221.200 C 295.185 221.200,297.200 222.811,297.200 224.549 C 297.200 225.105,297.514 225.736,297.897 225.950 C 299.564 226.883,296.527 226.992,271.711 226.887 C 243.698 226.769,244.800 226.830,244.800 225.400 C 244.800 223.937,244.833 223.940,230.573 223.935 C 216.499 223.930,216.174 223.970,215.924 225.729 C 215.822 226.445,215.464 226.639,213.914 226.817 C 212.710 226.955,211.626 227.389,210.914 228.017 C 210.301 228.558,209.714 229.056,209.608 229.126 C 209.502 229.195,209.412 233.335,209.408 238.326 L 209.400 247.400 197.000 247.400 L 184.600 247.400 184.800 246.400 C 185.132 244.738,184.946 232.329,184.560 230.400 L 184.200 228.600 180.500 228.485 C 176.281 228.354,176.328 228.392,178.200 226.626 C 178.970 225.900,179.600 225.200,179.600 225.071 C 179.600 224.374,181.760 222.835,182.892 222.726 C 184.088 222.611,184.211 222.471,184.324 221.100 L 184.448 219.600 186.375 219.600 C 188.644 219.600,189.308 219.004,189.127 217.126 L 189.000 215.800 185.160 215.686 C 180.725 215.555,179.370 216.199,181.113 217.610 C 182.503 218.736,182.293 218.800,177.224 218.800 C 174.447 218.800,172.343 218.969,172.198 219.203 C 171.713 219.988,168.661 221.221,168.242 220.802 C 166.680 219.240,164.400 221.778,164.400 225.079 C 164.400 227.113,164.243 227.742,163.600 228.293 C 163.160 228.670,162.800 229.180,162.800 229.427 C 162.800 229.674,162.440 230.202,162.000 230.600 C 161.560 230.998,161.200 231.722,161.200 232.208 C 161.200 232.694,160.840 233.550,160.400 234.109 C 159.960 234.669,159.600 235.475,159.600 235.902 C 159.600 236.329,159.240 237.093,158.800 237.600 C 158.360 238.107,158.000 238.691,158.000 238.898 C 158.000 239.105,157.629 239.745,157.177 240.321 C 156.645 240.996,156.393 241.827,156.465 242.662 C 156.615 244.409,156.246 244.651,154.967 243.646 C 154.362 243.169,153.310 242.800,152.560 242.800 C 151.638 242.800,151.097 242.554,150.800 242.000 C 150.508 241.454,149.962 241.200,149.082 241.200 C 148.226 241.200,147.625 240.931,147.293 240.400 C 146.934 239.826,146.360 239.600,145.259 239.600 C 144.232 239.600,143.484 239.335,143.000 238.800 C 142.602 238.360,141.770 238.000,141.152 238.000 C 140.438 238.000,139.872 237.709,139.600 237.200 C 139.315 236.668,138.762 236.400,137.949 236.400 C 137.276 236.400,136.269 236.040,135.709 235.600 C 135.150 235.160,134.093 234.800,133.360 234.800 C 132.438 234.800,131.897 234.554,131.600 234.000 C 131.321 233.479,130.762 233.200,130.000 233.200 C 129.238 233.200,128.679 232.921,128.400 232.400 C 128.108 231.854,127.562 231.600,126.682 231.600 C 125.826 231.600,125.225 231.331,124.893 230.800 C 124.603 230.335,123.960 230.000,123.360 230.000 C 122.791 230.000,121.869 229.640,121.309 229.200 C 120.750 228.760,119.857 228.400,119.325 228.400 C 117.087 228.400,115.600 226.468,115.600 223.561 C 115.600 221.491,115.426 220.722,114.795 219.994 C 114.016 219.096,113.994 218.601,114.095 204.233 L 114.200 189.400 128.693 189.295 L 143.185 189.190 143.766 190.581 C 144.336 191.944,144.839 192.224,147.200 192.488 C 148.079 192.586,148.215 192.818,148.328 194.392 C 148.624 198.561,152.203 198.434,152.474 194.245 L 152.600 192.310 159.195 192.312 L 165.790 192.314 166.063 193.646 C 166.213 194.379,166.542 195.047,166.794 195.131 C 167.046 195.215,167.417 195.717,167.618 196.247 L 167.984 197.211 181.692 197.105 L 195.400 197.000 195.400 195.200 C 195.400 193.462,195.356 193.396,194.100 193.275 C 192.406 193.111,192.300 193.316,196.100 189.414 L 199.400 186.026 207.238 186.013 C 214.577 186.001,215.122 186.051,215.800 186.800 M287.924 195.331 C 288.020 196.467,287.902 196.800,287.403 196.800 C 287.046 196.800,286.572 197.336,286.340 198.000 C 285.852 199.399,285.912 199.382,284.356 198.577 C 282.564 197.651,282.792 195.459,284.699 195.275 C 285.499 195.198,286.163 194.842,286.427 194.350 C 287.055 193.175,287.782 193.651,287.924 195.331 M287.423 199.510 C 286.883 200.050,286.510 198.939,286.917 198.000 L 287.350 197.000 287.505 198.137 C 287.590 198.762,287.554 199.380,287.423 199.510 M180.893 198.467 C 179.177 200.183,181.381 202.000,185.180 202.000 C 188.726 202.000,189.328 201.622,189.127 199.526 L 189.000 198.200 185.193 198.087 C 182.574 198.009,181.233 198.127,180.893 198.467 M188.600 200.000 L 188.600 201.400 185.652 201.518 C 182.532 201.644,181.200 201.071,181.200 199.605 C 181.200 198.486,181.626 198.367,185.181 198.486 L 188.600 198.600 188.600 200.000 M250.800 208.000 C 250.800 210.583,250.272 211.416,249.708 209.723 C 249.307 208.520,249.911 205.098,250.464 205.439 C 250.649 205.554,250.800 206.706,250.800 208.000 M286.400 216.800 C 286.635 217.240,287.092 217.600,287.414 217.600 C 288.185 217.600,288.197 219.738,287.430 220.375 C 286.271 221.337,283.416 220.737,283.274 219.501 C 283.050 217.555,285.617 215.337,286.400 216.800 M125.500 219.994 C 124.895 220.630,124.400 221.604,124.400 222.160 C 124.400 222.762,124.076 223.345,123.600 223.600 C 121.628 224.656,124.625 229.183,127.304 229.195 C 127.911 229.198,128.716 229.560,129.093 230.000 C 129.470 230.440,130.271 230.800,130.875 230.800 C 131.562 230.800,132.132 231.099,132.400 231.600 C 132.692 232.146,133.238 232.400,134.118 232.400 C 134.974 232.400,135.575 232.669,135.907 233.200 C 136.208 233.682,136.842 234.001,137.503 234.003 C 138.107 234.004,139.140 234.363,139.800 234.800 C 140.460 235.237,141.489 235.596,142.086 235.597 C 142.761 235.599,143.334 235.903,143.600 236.400 C 144.596 238.261,150.800 237.342,150.800 235.334 C 150.800 234.836,151.160 234.235,151.600 234.000 C 152.121 233.721,152.400 233.162,152.400 232.400 C 152.400 231.638,152.679 231.079,153.200 230.800 C 153.721 230.521,154.000 229.962,154.000 229.200 C 154.000 228.438,154.279 227.879,154.800 227.600 C 155.332 227.315,155.600 226.762,155.600 225.950 C 155.600 225.174,155.921 224.468,156.480 224.016 C 157.516 223.177,156.965 221.948,154.640 219.916 L 153.400 218.833 140.000 218.836 L 126.600 218.839 125.500 219.994 M154.719 220.815 C 156.521 222.546,156.748 223.214,155.800 224.000 C 155.470 224.274,155.200 225.010,155.200 225.635 C 155.200 226.362,154.912 226.926,154.400 227.200 C 153.879 227.479,153.600 228.038,153.600 228.800 C 153.600 229.562,153.321 230.121,152.800 230.400 C 152.279 230.679,152.000 231.238,152.000 232.000 C 152.000 232.762,151.721 233.321,151.200 233.600 C 150.760 233.835,150.400 234.369,150.400 234.786 C 150.400 236.818,144.987 237.845,144.000 236.000 C 143.734 235.503,143.161 235.199,142.486 235.197 C 141.889 235.196,140.860 234.837,140.200 234.400 C 139.540 233.963,138.533 233.604,137.962 233.603 C 137.391 233.601,136.598 233.240,136.200 232.800 C 135.802 232.360,134.970 232.000,134.352 232.000 C 133.638 232.000,133.072 231.709,132.800 231.200 C 132.528 230.691,131.962 230.400,131.248 230.400 C 130.630 230.400,129.798 230.040,129.400 229.600 C 129.002 229.160,128.201 228.800,127.621 228.800 C 125.429 228.800,122.438 224.836,124.000 224.000 C 124.476 223.745,124.800 223.162,124.800 222.560 C 124.800 222.004,125.295 221.030,125.900 220.394 L 127.000 219.239 140.019 219.219 L 153.039 219.200 154.719 220.815 M214.178 220.144 C 213.726 221.947,214.090 222.590,215.638 222.720 C 217.565 222.882,218.266 222.066,217.529 220.521 C 216.774 218.938,214.544 218.687,214.178 220.144 M217.127 221.334 C 217.208 221.743,216.876 222.066,216.197 222.236 C 214.727 222.605,214.127 221.918,214.741 220.569 C 215.269 219.410,216.845 219.916,217.127 221.334 M218.500 227.876 C 218.885 227.976,219.515 227.976,219.900 227.876 C 220.285 227.775,219.970 227.693,219.200 227.693 C 218.430 227.693,218.115 227.775,218.500 227.876 M230.078 227.898 C 232.431 227.969,236.391 227.969,238.878 227.899 C 241.365 227.829,239.440 227.771,234.600 227.770 C 229.760 227.770,227.725 227.828,230.078 227.898 "
       stroke="none"
       fill="#6c6c6c"
       fill-rule="evenodd" />
  </g>
</svg>
