<?xml version="1.0" encoding="UTF-8" standalone="no"?>
<svg
   xmlns:dc="http://purl.org/dc/elements/1.1/"
   xmlns:cc="http://creativecommons.org/ns#"
   xmlns:rdf="http://www.w3.org/1999/02/22-rdf-syntax-ns#"
   xmlns:svg="http://www.w3.org/2000/svg"
   xmlns="http://www.w3.org/2000/svg"
   xmlns:sodipodi="http://sodipodi.sourceforge.net/DTD/sodipodi-0.dtd"
   xmlns:inkscape="http://www.inkscape.org/namespaces/inkscape"
   id="svg"
   version="1.1"
   width="400"
   height="400"
   viewBox="0, 0, 400,400"
   sodipodi:docname="Tracerifle.svg"
   inkscape:version="0.92.4 (5da689c313, 2019-01-14)">
  <metadata
     id="metadata382">
    <rdf:RDF>
      <cc:Work
         rdf:about="">
        <dc:format>image/svg+xml</dc:format>
        <dc:type
           rdf:resource="http://purl.org/dc/dcmitype/StillImage" />
      </cc:Work>
    </rdf:RDF>
  </metadata>
  <defs
     id="defs380" />
  <sodipodi:namedview
     pagecolor="#ffffff"
     bordercolor="#666666"
     borderopacity="1"
     objecttolerance="10"
     gridtolerance="10"
     guidetolerance="10"
     inkscape:pageopacity="0"
     inkscape:pageshadow="2"
     inkscape:window-width="640"
     inkscape:window-height="480"
     id="namedview378"
     showgrid="false"
     inkscape:zoom="0.59"
     inkscape:cx="200"
     inkscape:cy="200"
     inkscape:window-x="0"
     inkscape:window-y="0"
     inkscape:window-maximized="0"
     inkscape:current-layer="svg" />
  <g
     id="svgg"
     transform="translate(0,145.76271)">
    <path
       id="path0"
       d="m 196.1,189.414 c -3.8,3.902 -3.694,3.697 -2,3.861 1.256,0.121 1.3,0.187 1.3,1.925 v 1.8 l -13.708,0.105 -13.708,0.106 -0.366,-0.964 c -0.201,-0.53 -0.572,-1.032 -0.824,-1.116 -0.252,-0.084 -0.581,-0.752 -0.731,-1.485 l -0.273,-1.332 -6.595,-0.002 -6.595,-0.002 -0.126,1.935 c -0.271,4.189 -3.85,4.316 -4.146,0.147 -0.113,-1.574 -0.249,-1.806 -1.128,-1.904 -2.361,-0.264 -2.864,-0.544 -3.434,-1.907 l -0.581,-1.391 -14.492,0.105 -14.493,0.105 -0.105,14.833 c -0.101,14.368 -0.079,14.863 0.7,15.761 0.631,0.728 0.805,1.497 0.805,3.567 0,2.907 1.487,4.839 3.725,4.839 0.532,0 1.425,0.36 1.984,0.8 0.56,0.44 1.482,0.8 2.051,0.8 0.6,0 1.243,0.335 1.533,0.8 0.332,0.531 0.933,0.8 1.789,0.8 0.88,0 1.426,0.254 1.718,0.8 0.279,0.521 0.838,0.8 1.6,0.8 0.762,0 1.321,0.279 1.6,0.8 0.297,0.554 0.838,0.8 1.76,0.8 0.733,0 1.79,0.36 2.349,0.8 0.56,0.44 1.567,0.8 2.24,0.8 0.813,0 1.366,0.268 1.651,0.8 0.272,0.509 0.838,0.8 1.552,0.8 0.618,0 1.45,0.36 1.848,0.8 0.484,0.535 1.232,0.8 2.259,0.8 1.101,0 1.675,0.226 2.034,0.8 0.332,0.531 0.933,0.8 1.789,0.8 0.88,0 1.426,0.254 1.718,0.8 0.297,0.554 0.838,0.8 1.76,0.8 0.75,0 1.802,0.369 2.407,0.846 1.279,1.005 1.648,0.763 1.498,-0.984 -0.072,-0.835 0.18,-1.666 0.712,-2.341 0.452,-0.576 0.823,-1.216 0.823,-1.423 0,-0.207 0.36,-0.791 0.8,-1.298 0.44,-0.507 0.8,-1.271 0.8,-1.698 0,-0.427 0.36,-1.233 0.8,-1.793 0.44,-0.559 0.8,-1.415 0.8,-1.901 0,-0.486 0.36,-1.21 0.8,-1.608 0.44,-0.398 0.8,-0.926 0.8,-1.173 0,-0.247 0.36,-0.757 0.8,-1.134 0.643,-0.551 0.8,-1.18 0.8,-3.214 0,-3.301 2.28,-5.839 3.842,-4.277 0.419,0.419 3.471,-0.814 3.956,-1.599 0.145,-0.234 2.249,-0.403 5.026,-0.403 5.069,0 5.279,-0.064 3.889,-1.19 -1.743,-1.411 -0.388,-2.055 4.047,-1.924 l 3.84,0.114 0.127,1.326 c 0.181,1.878 -0.483,2.474 -2.752,2.474 h -1.927 l -0.124,1.5 c -0.113,1.371 -0.236,1.511 -1.432,1.626 -1.132,0.109 -3.292,1.648 -3.292,2.345 0,0.129 -0.63,0.829 -1.4,1.555 -1.872,1.766 -1.919,1.728 2.3,1.859 l 3.7,0.115 0.36,1.8 c 0.386,1.929 0.572,14.338 0.24,16 l -0.2,1 h 12.4 12.4 l 0.008,-9.074 c 0.004,-4.991 0.094,-9.131 0.2,-9.2 0.106,-0.07 0.693,-0.568 1.306,-1.109 0.712,-0.628 1.796,-1.062 3,-1.2 1.55,-0.178 1.908,-0.372 2.01,-1.088 0.25,-1.759 0.575,-1.799 14.649,-1.794 14.26,0.005 14.227,0.002 14.227,1.465 0,1.43 -1.102,1.369 26.911,1.487 24.816,0.105 27.853,-0.004 26.186,-0.937 -0.383,-0.214 -0.697,-0.845 -0.697,-1.401 0,-1.738 -2.015,-3.349 -4.187,-3.349 -1.878,0 -2.87,-0.637 -4.089,-2.624 -0.434,-0.706 -0.479,-0.664 -0.5,0.475 -0.033,1.738 -0.79,2.214 -3.292,2.071 L 283,221 l -0.125,-1.506 c -0.223,-2.701 2.736,-4.886 4.055,-2.994 l 0.628,0.9 0.021,-1.204 c 0.014,-0.775 -0.256,-1.376 -0.757,-1.689 -0.557,-0.348 -0.812,-1.026 -0.9,-2.396 -0.162,-2.537 -1.976,-2.936 -2.322,-0.511 l -0.2,1.4 -11.337,0.2 -11.338,0.2 -0.533,1.55 c -1.016,2.96 -2.46,3.053 -2.668,0.172 l -0.124,-1.722 -2.364,-0.122 c -1.301,-0.067 -2.876,0.09 -3.501,0.349 -0.882,0.365 -1.268,0.36 -1.73,-0.023 -0.959,-0.796 -1.805,-0.18 -1.805,1.314 0,2.483 -2.983,4.041 -4.614,2.41 -1.366,-1.365 -0.558,-3.523 2.348,-6.271 l 2.599,-2.457 -0.593,-1.46 c -0.645,-1.586 -1.799,-2.151 -3.039,-1.487 -1.006,0.538 -1.279,0.222 -0.662,-0.766 0.416,-0.667 0.357,-0.966 -0.373,-1.893 -1.579,-2.008 -0.769,-4.994 1.355,-4.994 1.121,0 3.379,2.722 3.379,4.073 0,1.244 0.259,1.36 1.291,0.576 0.497,-0.377 1.229,-0.436 2.6,-0.211 3.714,0.611 4.909,0.475 4.909,-0.562 0,-2.577 2.168,-2.89 3.318,-0.478 l 0.663,1.389 11.11,0.107 11.109,0.106 0.2,1.4 c 0.168,1.173 0.362,1.4 1.2,1.4 2.391,0 1.423,-6.071 -1.123,-7.045 -1.657,-0.633 -1.115,-3.713 0.683,-3.885 0.791,-0.075 1.659,-0.494 2.075,-1 1.012,-1.232 2.207,-0.47 2.06,1.313 -0.065,0.778 0.052,1.174 0.3,1.02 0.223,-0.138 0.405,-0.51 0.405,-0.827 0,-0.317 0.264,-0.576 0.586,-0.576 0.322,0 0.774,-0.351 1.003,-0.779 0.316,-0.591 0.923,-0.809 2.514,-0.9 1.962,-0.113 2.105,-0.193 2.225,-1.235 0.07,-0.613 0.475,-1.331 0.9,-1.596 0.46,-0.287 0.772,-0.929 0.772,-1.586 V 187.6 h -40.338 c -39.83,0 -40.347,-0.01 -41.062,-0.8 -0.678,-0.749 -1.223,-0.799 -8.562,-0.787 l -7.838,0.013 -3.3,3.388 M 286.917,198 c -0.25,0.577 -0.285,1.158 -0.082,1.373 0.541,0.575 0.842,0.021 0.67,-1.236 L 287.35,197 l -0.433,1 m -97.79,1.526 c 0.201,2.096 -0.401,2.474 -3.947,2.474 -2.896,0 -3.182,-0.076 -3.951,-1.054 -1.825,-2.32 -0.877,-3.004 3.964,-2.859 l 3.807,0.113 0.127,1.326 m 60.61,7.411 c -0.407,1.781 0.028,4.055 0.697,3.642 0.459,-0.284 0.486,-4.858 0.03,-5.14 -0.185,-0.114 -0.512,0.56 -0.727,1.498 m -95.097,12.979 c 2.325,2.032 2.876,3.261 1.84,4.1 -0.559,0.452 -0.88,1.158 -0.88,1.934 0,0.812 -0.268,1.365 -0.8,1.65 -0.521,0.279 -0.8,0.838 -0.8,1.6 0,0.762 -0.279,1.321 -0.8,1.6 -0.521,0.279 -0.8,0.838 -0.8,1.6 0,0.762 -0.279,1.321 -0.8,1.6 -0.44,0.235 -0.8,0.836 -0.8,1.334 0,2.008 -6.204,2.927 -7.2,1.066 -0.266,-0.497 -0.839,-0.801 -1.514,-0.803 -0.597,-0.001 -1.626,-0.36 -2.286,-0.797 -0.66,-0.437 -1.693,-0.796 -2.297,-0.797 -0.661,-0.002 -1.295,-0.321 -1.596,-0.803 -0.332,-0.531 -0.933,-0.8 -1.789,-0.8 -0.88,0 -1.426,-0.254 -1.718,-0.8 -0.268,-0.501 -0.838,-0.8 -1.525,-0.8 -0.604,0 -1.405,-0.36 -1.782,-0.8 -0.377,-0.44 -1.182,-0.802 -1.789,-0.805 -2.679,-0.012 -5.676,-4.539 -3.704,-5.595 0.476,-0.255 0.8,-0.838 0.8,-1.44 0,-0.556 0.495,-1.53 1.1,-2.166 l 1.1,-1.155 13.4,-0.003 13.4,-0.003 1.24,1.083 m 62.889,0.605 c 0.737,1.545 0.036,2.361 -1.891,2.199 -1.548,-0.13 -1.912,-0.773 -1.46,-2.576 0.366,-1.457 2.596,-1.206 3.351,0.377"
       inkscape:connector-curvature="0"
       style="fill:#040404;fill-rule:evenodd;stroke:none" />
    <path
       id="path1"
       d="m -471.18644,194.91525 v 200 h 200 199.999999 v -200 -199.9999958 h -199.999999 -200 V 194.91525 m 216.507,-14 c 0.677,0.79 1.18,0.8 41.013,0.8 43.381,0 42.91,-0.022 41.175,1.895 -0.382,0.423 -0.695,1.06 -0.695,1.417 0,0.356 -0.244,0.792 -0.541,0.968 -0.298,0.176 -0.717,0.86 -0.932,1.52 -0.352,1.083 -0.575,1.212 -2.301,1.324 -2.199,0.142 -5.826,3.208 -5.826,4.925 0,0.489 -0.315,1.236 -0.7,1.66 -0.46,0.508 -0.769,1.686 -0.9,3.432 l -0.2,2.659 h -1.8 c -1.752,0 -1.805,-0.037 -2,-1.4 l -0.2,-1.4 -12,-0.2 c -14.994,-0.25 -21.198,-0.027 -19.9,0.714 1.299,0.742 1.384,6.834 0.1,7.17 -3.589,0.939 2.247,1.209 19.8,0.916 l 12,-0.2 0.2,-1.4 c 0.195,-1.362 0.248,-1.4 1.995,-1.4 h 1.795 l 0.282,1.971 c 0.161,1.128 0.549,2.121 0.905,2.32 0.345,0.193 0.623,0.877 0.623,1.534 0,2.067 3.311,5.175 5.513,5.175 2.074,0 4.087,1.653 4.087,3.355 0,0.607 0.322,1.189 0.8,1.445 0.817,0.437 1.168,2.925 0.474,3.354 -0.579,0.358 -81.402,0.571 -83.594,0.221 -4.587,-0.734 -4.787,-0.276 -4.482,10.225 0.145,5.005 0.093,8.604 -0.13,8.905 -0.292,0.394 -3.355,0.482 -13.821,0.4 l -13.447,-0.105 -0.2,-9.4 -0.2,-9.4 -3.796,-0.2 c -4.864,-0.256 -4.97,-0.602 -1.328,-4.343 1.976,-2.029 3.054,-2.833 3.924,-2.927 1.005,-0.109 1.219,-0.325 1.318,-1.33 l 0.119,-1.2 -4.919,0.132 c -4.183,0.112 -5.041,0.246 -5.744,0.9 -0.454,0.422 -1.162,0.768 -1.574,0.768 -0.412,0 -1.163,0.39 -1.67,0.866 -0.875,0.822 -0.96,0.831 -1.682,0.178 -1.439,-1.303 -2.848,0.62 -2.848,3.888 0,2.23 -0.124,2.706 -0.8,3.068 -0.44,0.235 -0.8,0.754 -0.8,1.152 0,0.398 -0.36,1.05 -0.8,1.448 -0.44,0.398 -0.8,1.208 -0.8,1.8 0,0.592 -0.36,1.402 -0.8,1.8 -0.44,0.398 -0.8,1.118 -0.8,1.6 0,0.482 -0.36,1.202 -0.8,1.6 -0.44,0.398 -0.8,1.049 -0.8,1.446 0,0.398 -0.405,1.102 -0.9,1.566 -0.864,0.81 -0.871,0.866 -0.165,1.386 0.404,0.298 0.673,0.87 0.597,1.272 -0.216,1.135 -3.524,1.244 -4.515,0.149 -0.462,-0.511 -1.239,-0.819 -2.065,-0.819 -0.914,0 -1.456,-0.247 -1.752,-0.8 -0.257,-0.48 -0.838,-0.8 -1.451,-0.8 -0.563,0 -1.48,-0.36 -2.04,-0.8 -0.615,-0.484 -1.623,-0.8 -2.549,-0.8 -1.122,0 -1.646,-0.214 -1.96,-0.8 -0.279,-0.521 -0.838,-0.8 -1.6,-0.8 -0.762,0 -1.321,-0.279 -1.6,-0.8 -0.318,-0.594 -0.838,-0.8 -2.018,-0.8 -1.095,0 -1.803,-0.249 -2.275,-0.8 -0.423,-0.495 -1.18,-0.8 -1.982,-0.8 -0.887,0 -1.432,-0.253 -1.725,-0.8 -0.279,-0.521 -0.838,-0.8 -1.6,-0.8 -0.762,0 -1.321,-0.279 -1.6,-0.8 -0.285,-0.532 -0.838,-0.8 -1.651,-0.8 -0.673,0 -1.68,-0.36 -2.24,-0.8 -0.559,-0.44 -1.444,-0.8 -1.967,-0.8 -0.522,0 -1.258,-0.36 -1.635,-0.8 -0.388,-0.453 -1.18,-0.8 -1.827,-0.8 -2.065,0 -3.414,-1.852 -3.623,-4.977 -0.124,-1.847 -0.409,-2.927 -0.919,-3.491 -0.771,-0.852 -1.184,-29.845 -0.451,-31.632 0.444,-1.081 30.599,-1.081 30.994,0 0.477,1.307 1.942,2.436 3.333,2.568 1.214,0.116 1.4,0.281 1.496,1.332 0.391,4.281 2.49,4.007 2.49,-0.325 0,-2.38 0.495,-2.714 3.418,-2.301 1.31,0.185 4.272,0.198 6.582,0.028 4.864,-0.356 4.69,-0.447 6.127,3.198 l 1.024,2.6 h 12.925 12.924 v -1 c 0,-0.837 -0.227,-1.033 -1.395,-1.2 -2.312,-0.331 -1.983,-1.237 1.869,-5.155 l 3.526,-3.586 8.611,-0.03 c 8.136,-0.027 8.649,0.015 9.296,0.771 m 70.073,9.169 c -0.209,0.203 -0.92,0.428 -1.58,0.5 -1.692,0.185 -1.775,2.065 -0.1,2.258 0.776,0.089 1.1,-0.054 1.1,-0.486 0,-0.337 0.36,-0.806 0.8,-1.041 0.44,-0.235 0.8,-0.692 0.8,-1.014 0,-0.665 -0.458,-0.763 -1.02,-0.217 m -104.074,3.948 c -0.382,0.25 -0.351,0.526 0.136,1.221 0.991,1.416 5.558,1.138 5.558,-0.338 0,-1.049 -4.398,-1.731 -5.694,-0.883 m 62.143,0.829 c -0.607,0.671 -0.615,0.86 -0.082,1.9 0.326,0.634 0.68,1.455 0.788,1.823 0.132,0.449 0.467,0.598 1.021,0.453 0.992,-0.259 0.985,-0.141 0.151,-2.787 -0.744,-2.359 -0.897,-2.473 -1.878,-1.389 m 0.426,13.512 c -0.425,0.426 -0.325,3.264 0.126,3.542 0.488,0.302 1.281,-1.643 1.117,-2.742 -0.125,-0.84 -0.781,-1.262 -1.243,-0.8 m -63.206,3.206 c -0.266,0.267 0.689,0.927 2.527,1.745 1.891,0.843 4.878,-0.601 3.694,-1.786 -0.316,-0.315 -5.901,-0.278 -6.221,0.041 m 102.597,1.152 c -0.514,0.512 -0.873,1.258 -0.797,1.658 0.206,1.085 2.098,1.159 3.135,0.122 l 0.852,-0.852 -1.049,-0.972 c -0.576,-0.535 -1.084,-0.953 -1.128,-0.93 -0.043,0.023 -0.499,0.462 -1.013,0.974 m -158.166,2.978 c -0.621,0.652 -1.1,1.607 -1.1,2.193 0,0.571 -0.27,1.142 -0.6,1.268 -1.348,0.518 2.034,4.145 3.865,4.145 0.697,0 1.265,0.296 1.535,0.8 0.279,0.521 0.838,0.8 1.6,0.8 0.762,0 1.321,0.279 1.6,0.8 0.285,0.532 0.838,0.8 1.651,0.8 0.673,0 1.68,0.36 2.24,0.8 0.559,0.44 1.505,0.8 2.101,0.8 0.596,0 1.41,0.36 1.808,0.8 0.398,0.44 1.23,0.8 1.848,0.8 0.714,0 1.28,0.291 1.552,0.8 0.941,1.758 5.6,0.605 5.6,-1.386 0,-0.322 0.36,-0.779 0.8,-1.014 0.521,-0.279 0.8,-0.838 0.8,-1.6 0,-0.762 0.279,-1.321 0.8,-1.6 0.512,-0.274 0.8,-0.838 0.8,-1.565 0,-0.654 0.321,-1.371 0.754,-1.686 1.496,-1.088 1.438,-4.089 -0.111,-5.731 l -1.337,-1.418 -12.553,0.019 -12.553,0.02 -1.1,1.155"
       inkscape:connector-curvature="0"
       style="fill:#fbfbfb;fill-rule:evenodd;stroke:none" />
    <path
       id="path2"
       d="m 113.379,202.8 c 0,7.15 0.054,10.075 0.12,6.5 0.067,-3.575 0.067,-9.425 0,-13 -0.066,-3.575 -0.12,-0.65 -0.12,6.5 M 153,191.197 c 0.764,0.331 3.714,0.558 3.367,0.259 -0.092,-0.079 -1.067,-0.247 -2.167,-0.374 -1.287,-0.149 -1.715,-0.108 -1.2,0.115 m 9.2,0.018 -2.8,0.278 3.291,-0.074 c 1.81,-0.041 3.371,0.077 3.47,0.263 0.098,0.186 0.133,0.109 0.076,-0.172 -0.126,-0.622 -0.484,-0.648 -4.037,-0.295 m -10.692,4.295 c -0.274,1.045 -2.134,1.261 -2.438,0.282 -0.132,-0.426 -0.17,-0.397 -0.126,0.1 0.039,0.442 0.451,0.753 1.094,0.828 1.1,0.129 2.147,-0.765 1.87,-1.596 -0.092,-0.277 -0.272,-0.103 -0.4,0.386 m 29.692,4.442 c 0,0.39 1.555,1.846 1.723,1.612 0.064,-0.09 -0.297,-0.563 -0.803,-1.05 -0.506,-0.487 -0.92,-0.74 -0.92,-0.562 m 76.8,1.115 c 0,0.366 0.112,0.554 0.25,0.417 0.137,-0.138 0.596,0.147 1.019,0.633 0.77,0.882 0.77,0.882 0.141,-0.417 -0.676,-1.393 -1.41,-1.723 -1.41,-0.633 m -8.568,2.609 c -0.338,0.482 -0.736,0.753 -0.886,0.603 -0.775,-0.774 -1.261,0.604 -0.614,1.741 0.665,1.17 1.268,1.541 1.268,0.78 0,-0.22 -0.18,-0.4 -0.4,-0.4 -0.22,0 -0.4,-0.289 -0.4,-0.643 0,-0.407 0.22,-0.558 0.6,-0.412 0.33,0.126 0.621,0.011 0.646,-0.258 0.026,-0.268 0.071,-0.757 0.1,-1.087 0.034,-0.378 0.646,-0.69 1.654,-0.843 l 1.6,-0.243 -1.477,-0.057 c -1.107,-0.043 -1.631,0.163 -2.091,0.819 m -2.163,7.252 c -1.233,1.273 -1.257,1.359 -0.565,1.985 0.674,0.61 0.759,0.599 1.232,-0.159 0.377,-0.603 0.642,-0.704 1.022,-0.389 0.4,0.332 0.497,0.159 0.441,-0.786 -0.116,-1.948 -0.699,-2.126 -2.13,-0.651 M 258,214.176 c 0,1.44 0.682,1.609 0.886,0.22 0.12,-0.815 0.006,-1.196 -0.355,-1.196 -0.296,0 -0.531,0.432 -0.531,0.976 m 29.632,5.137 c -0.018,0.392 -0.437,0.876 -0.932,1.075 -0.609,0.244 -0.69,0.369 -0.249,0.387 0.823,0.032 1.69,-0.985 1.418,-1.662 -0.127,-0.317 -0.218,-0.241 -0.237,0.2 m -115.576,0.7 c -1.24,1.033 -0.681,1.022 0.635,-0.013 0.559,-0.44 0.858,-0.794 0.663,-0.787 -0.195,0.008 -0.779,0.368 -1.298,0.8 m 42.92,0.025 c -0.165,0.267 -0.135,0.384 0.067,0.259 0.443,-0.274 1.53,0.477 1.885,1.303 0.186,0.433 0.232,0.39 0.165,-0.152 -0.126,-1.024 -1.706,-2.075 -2.117,-1.41 m -91.643,4.592 c -0.23,0.599 2.802,4.17 3.541,4.17 0.17,0 -0.51,-0.754 -1.51,-1.676 -1.229,-1.132 -1.756,-1.91 -1.628,-2.4 0.232,-0.889 -0.07,-0.961 -0.403,-0.094 m 94.389,0.046 c -0.262,0.097 -0.681,0.794 -0.931,1.55 -0.358,1.087 -0.676,1.384 -1.522,1.42 -0.816,0.035 -0.69,0.123 0.531,0.372 1.457,0.297 75.027,0.086 75.331,-0.216 0.072,-0.071 -10.35,-0.152 -23.16,-0.179 C 242.372,227.569 244,227.693 244,225.791 v -1.362 l -12.9,0.036 c -7.095,0.019 -13.115,0.114 -13.378,0.211 m 6.519,0.632 c 0.459,0.458 16.473,0.355 16.759,-0.108 0.533,-0.863 2.264,-0.456 2.128,0.5 -0.165,1.159 -18.463,1.843 -19.428,0.726 -0.433,-0.502 -0.568,-0.487 -1.005,0.112 -0.673,0.921 -5.279,0.519 -4.916,-0.428 0.122,-0.317 0.221,-0.705 0.221,-0.863 0,-0.376 5.861,-0.319 6.241,0.061 m -4.341,2.568 c -0.385,0.1 -1.015,0.1 -1.4,0 -0.385,-0.101 -0.07,-0.183 0.7,-0.183 0.77,0 1.085,0.082 0.7,0.183 m 18.978,0.023 c -2.487,0.07 -6.447,0.07 -8.8,-0.001 -2.353,-0.07 -0.318,-0.128 4.522,-0.128 4.84,10e-4 6.765,0.059 4.278,0.129 m 53.823,0.143 c 0.494,0.183 1.304,0.183 1.798,0 0.705,-0.261 0.511,-0.333 -0.899,-0.333 -1.41,0 -1.604,0.072 -0.899,0.333 m 3.499,-0.061 c 0.768,0.348 2.91,0.575 2.567,0.272 -0.092,-0.081 -0.887,-0.257 -1.767,-0.391 -1.115,-0.169 -1.358,-0.133 -0.8,0.119 m -173,2.703 c 0.33,0.121 0.96,0.512 1.4,0.868 0.793,0.642 0.794,0.64 0.038,-0.252 -0.419,-0.495 -1.049,-0.886 -1.4,-0.868 -0.542,0.026 -0.547,0.065 -0.038,0.252 m 12.962,2.016 c 0.419,0.495 1.049,0.886 1.4,0.868 0.542,-0.026 0.547,-0.065 0.038,-0.252 -0.33,-0.121 -0.96,-0.512 -1.4,-0.868 -0.793,-0.642 -0.794,-0.64 -0.038,0.252 m 74.003,6.1 c 0,3.85 0.06,5.425 0.133,3.5 0.073,-1.925 0.073,-5.075 0,-7 -0.073,-1.925 -0.133,-0.35 -0.133,3.5 m -26.008,2.4 c 0,2.97 0.063,4.185 0.14,2.7 0.077,-1.485 0.077,-3.915 0,-5.4 -0.077,-1.485 -0.14,-0.27 -0.14,2.7"
       inkscape:connector-curvature="0"
       style="fill:#848484;fill-rule:evenodd;stroke:none" />
    <path
       id="path3"
       d="m 195.074,188.845 c -3.852,3.918 -4.181,4.824 -1.869,5.155 1.168,0.167 1.395,0.363 1.395,1.2 v 1 h -12.924 -12.925 l -1.024,-2.6 c -1.437,-3.645 -1.263,-3.554 -6.127,-3.198 -2.31,0.17 -5.272,0.157 -6.582,-0.028 -2.923,-0.413 -3.418,-0.079 -3.418,2.301 0,4.332 -2.099,4.606 -2.49,0.325 -0.096,-1.051 -0.282,-1.216 -1.496,-1.332 -1.393,-0.132 -2.856,-1.261 -3.335,-2.573 -0.428,-1.17 -30.812,-0.871 -30.988,0.305 -0.11,0.731 -0.083,0.74 0.314,0.1 0.401,-0.646 1.569,-0.7 15.175,-0.7 h 14.741 l 0.818,1.387 c 0.756,1.281 1.29,1.575 3.456,1.902 0.438,0.066 0.831,0.388 0.874,0.716 0.43,3.285 0.564,3.595 1.559,3.595 1.119,0 1.768,-1.213 1.778,-3.326 0.01,-2.103 0.331,-2.303 3.012,-1.878 1.419,0.225 4.08,0.241 6.582,0.04 4.829,-0.39 4.654,-0.434 5.006,1.269 0.147,0.712 0.705,1.972 1.24,2.801 l 0.973,1.505 12.847,-0.105 c 11.732,-0.097 12.885,-0.167 13.289,-0.806 0.588,-0.933 -0.113,-2.055 -1.396,-2.234 -1.995,-0.278 -1.76,-0.848 1.847,-4.472 l 3.577,-3.594 h 8.177 c 7.226,0 8.267,0.081 8.95,0.7 0.723,0.654 3.426,0.713 41.232,0.9 l 40.458,0.2 -0.068,1.382 c -0.037,0.76 -0.308,1.57 -0.602,1.8 -0.294,0.23 -0.717,0.958 -0.94,1.618 -0.356,1.055 -0.63,1.224 -2.264,1.4 -2.403,0.259 -5.926,3.234 -5.926,5.006 0,0.608 -0.298,1.324 -0.663,1.591 -0.457,0.334 -0.737,1.343 -0.9,3.244 L 286.2,206.2 h -1.4 c -1.19,0 -1.421,-0.15 -1.538,-1 -0.278,-2.007 -0.235,-2 -11.929,-2 h -10.969 l -0.994,-0.994 -0.994,-0.994 -0.378,0.994 c -0.366,0.962 -0.5,0.994 -4.164,0.994 -4.025,0 -5.094,0.464 -3.502,1.521 1.397,0.928 1.295,5.936 -0.132,6.479 -1.048,0.399 -1.287,0.975 -0.584,1.41 0.738,0.456 32.465,0.221 33.026,-0.244 0.281,-0.234 0.566,-0.906 0.634,-1.495 0.26,-2.245 2.832,-1.508 3.241,0.928 0.184,1.099 0.593,2.143 0.909,2.319 0.316,0.177 0.574,0.861 0.574,1.521 0,2.032 3.46,5.161 5.706,5.161 1.97,0 3.894,1.535 3.894,3.106 0,0.475 0.382,1.219 0.849,1.654 1.467,1.367 0.739,3.02 -1.169,2.654 -0.814,-0.156 -1.84,-0.252 -2.28,-0.214 -0.44,0.038 -1.16,0.056 -1.6,0.041 -1.572,-0.055 -7.262,-0.048 -41.8,0.055 -19.25,0.057 -35.847,-0.041 -36.882,-0.218 -1.782,-0.304 -1.955,-0.251 -3.244,1 l -1.362,1.322 0.269,8.6 c 0.149,4.73 0.157,8.738 0.019,8.906 -0.138,0.168 -6.09,0.258 -13.226,0.2 L 184.2,247.8 l -0.018,-8.86 c -0.022,-10.63 0.227,-10.067 -4.518,-10.225 -2.147,-0.071 -3.464,-0.28 -3.464,-0.548 0,-1.005 4.799,-5.756 5.82,-5.762 1.327,-0.007 1.98,-0.694 1.98,-2.085 0,-0.912 0.176,-1.12 0.95,-1.12 2.183,0 3.371,-0.476 3.552,-1.422 0.274,-1.431 -0.409,-1.779 -3.482,-1.772 -3.507,0.008 -4.438,0.476 -3.062,1.542 1.641,1.273 0.739,1.652 -3.928,1.652 -3.716,0 -4.465,0.112 -5.339,0.8 -0.56,0.44 -1.297,0.8 -1.639,0.8 -0.341,0 -1,0.405 -1.464,0.9 -0.793,0.845 -0.875,0.857 -1.36,0.2 -1.396,-1.894 -3.428,0.44 -3.428,3.939 0,1.673 -0.179,2.629 -0.533,2.841 -0.532,0.32 -1.759,2.551 -3.475,6.32 -0.5,1.1 -1.067,2.27 -1.259,2.6 -0.191,0.33 -0.57,1.05 -0.842,1.6 -0.272,0.55 -0.821,1.483 -1.221,2.073 -0.579,0.855 -0.636,1.243 -0.28,1.908 0.912,1.705 -1.231,2.274 -3.081,0.819 -0.559,-0.44 -1.505,-0.8 -2.101,-0.8 -0.596,0 -1.41,-0.36 -1.808,-0.8 -0.398,-0.44 -1.171,-0.8 -1.718,-0.8 -0.547,0 -1.2,-0.282 -1.452,-0.627 -0.252,-0.344 -1.262,-0.729 -2.244,-0.855 -0.982,-0.125 -2.108,-0.563 -2.502,-0.973 -0.393,-0.41 -1.13,-0.745 -1.638,-0.745 -0.507,0 -1.248,-0.36 -1.646,-0.8 -0.411,-0.454 -1.232,-0.8 -1.899,-0.8 -0.646,0 -1.632,-0.36 -2.192,-0.8 -0.559,-0.44 -1.505,-0.8 -2.101,-0.8 -0.596,0 -1.41,-0.36 -1.808,-0.8 -0.398,-0.44 -1.118,-0.8 -1.6,-0.8 -0.482,0 -1.202,-0.36 -1.6,-0.8 -0.398,-0.44 -1.214,-0.8 -1.813,-0.8 -0.599,0 -1.304,-0.258 -1.566,-0.574 -0.262,-0.316 -1.049,-0.7 -1.749,-0.852 -0.699,-0.153 -1.701,-0.615 -2.226,-1.026 -0.525,-0.411 -1.425,-0.753 -2,-0.759 -1.932,-0.021 -3.191,-1.849 -3.416,-4.959 -0.133,-1.839 -0.43,-2.988 -0.909,-3.517 -0.645,-0.713 -0.736,-2.17 -0.967,-15.45 L 112.9,190.2 l 0.058,14.867 c 0.053,13.788 0.111,14.925 0.788,15.674 0.502,0.554 0.787,1.647 0.911,3.482 0.209,3.125 1.558,4.977 3.623,4.977 0.647,0 1.439,0.347 1.827,0.8 0.377,0.44 1.113,0.8 1.635,0.8 0.523,0 1.408,0.36 1.967,0.8 0.56,0.44 1.567,0.8 2.24,0.8 0.813,0 1.366,0.268 1.651,0.8 0.279,0.521 0.838,0.8 1.6,0.8 0.762,0 1.321,0.279 1.6,0.8 0.293,0.547 0.838,0.8 1.725,0.8 0.802,0 1.559,0.305 1.982,0.8 0.472,0.551 1.18,0.8 2.275,0.8 1.18,0 1.7,0.206 2.018,0.8 0.279,0.521 0.838,0.8 1.6,0.8 0.762,0 1.321,0.279 1.6,0.8 0.314,0.586 0.838,0.8 1.96,0.8 0.926,0 1.934,0.316 2.549,0.8 0.56,0.44 1.477,0.8 2.04,0.8 0.613,0 1.194,0.32 1.451,0.8 0.296,0.553 0.838,0.8 1.752,0.8 0.826,0 1.603,0.308 2.065,0.819 0.991,1.095 4.299,0.986 4.515,-0.149 0.076,-0.402 -0.193,-0.974 -0.597,-1.272 -0.706,-0.52 -0.699,-0.576 0.165,-1.386 0.495,-0.464 0.9,-1.168 0.9,-1.566 0,-0.397 0.36,-1.048 0.8,-1.446 0.44,-0.398 0.8,-1.118 0.8,-1.6 0,-0.482 0.36,-1.202 0.8,-1.6 0.44,-0.398 0.8,-1.208 0.8,-1.8 0,-0.592 0.36,-1.402 0.8,-1.8 0.44,-0.398 0.8,-1.05 0.8,-1.448 0,-0.398 0.36,-0.917 0.8,-1.152 0.676,-0.362 0.8,-0.838 0.8,-3.068 0,-3.268 1.409,-5.191 2.848,-3.888 0.722,0.653 0.807,0.644 1.682,-0.178 0.507,-0.476 1.258,-0.866 1.67,-0.866 0.412,0 1.12,-0.346 1.574,-0.768 0.703,-0.654 1.561,-0.788 5.744,-0.9 l 4.919,-0.132 -0.119,1.2 c -0.099,1.005 -0.313,1.221 -1.318,1.33 -0.87,0.094 -1.948,0.898 -3.924,2.927 -3.642,3.741 -3.536,4.087 1.328,4.343 l 3.796,0.2 0.2,9.4 0.2,9.4 13.447,0.105 c 10.466,0.082 13.529,-0.006 13.821,-0.4 0.223,-0.301 0.275,-3.9 0.13,-8.905 -0.305,-10.501 -0.105,-10.959 4.482,-10.225 2.192,0.35 83.015,0.137 83.594,-0.221 0.694,-0.429 0.343,-2.917 -0.474,-3.354 -0.478,-0.256 -0.8,-0.838 -0.8,-1.445 0,-1.702 -2.013,-3.355 -4.087,-3.355 -2.202,0 -5.513,-3.108 -5.513,-5.175 0,-0.657 -0.278,-1.341 -0.623,-1.534 -0.356,-0.199 -0.744,-1.192 -0.905,-2.32 L 286.59,209.4 h -1.795 c -1.747,0 -1.8,0.038 -1.995,1.4 l -0.2,1.4 -12,0.2 c -17.553,0.293 -23.389,0.023 -19.8,-0.916 1.284,-0.336 1.199,-6.428 -0.1,-7.17 -1.298,-0.741 4.906,-0.964 19.9,-0.714 l 12,0.2 0.2,1.4 c 0.195,1.363 0.248,1.4 2,1.4 h 1.8 l 0.2,-2.659 c 0.131,-1.746 0.44,-2.924 0.9,-3.432 0.385,-0.424 0.7,-1.171 0.7,-1.66 0,-1.717 3.627,-4.783 5.826,-4.925 1.726,-0.112 1.949,-0.241 2.301,-1.324 0.215,-0.66 0.634,-1.344 0.932,-1.52 0.297,-0.176 0.541,-0.612 0.541,-0.968 0,-0.357 0.313,-0.994 0.695,-1.417 1.735,-1.917 2.206,-1.895 -41.175,-1.895 -39.833,0 -40.336,-0.01 -41.013,-0.8 -0.647,-0.756 -1.16,-0.798 -9.296,-0.771 l -8.611,0.03 -3.526,3.586 m 91.483,5.722 c -0.14,0.367 -0.709,0.633 -1.351,0.633 -2.246,0 -2.674,2.173 -0.621,3.157 0.969,0.465 1.206,0.47 1.352,0.031 0.098,-0.293 0.616,-0.939 1.152,-1.435 0.605,-0.561 0.924,-1.241 0.842,-1.796 -0.159,-1.087 -1.038,-1.464 -1.374,-0.59 m 1.043,0.819 c 0,0.322 -0.36,0.779 -0.8,1.014 -0.44,0.235 -0.8,0.704 -0.8,1.041 0,0.432 -0.324,0.575 -1.1,0.486 -1.675,-0.193 -1.592,-2.073 0.1,-2.258 0.66,-0.072 1.371,-0.297 1.58,-0.5 0.562,-0.546 1.02,-0.448 1.02,0.217 m -105.5,3.288 c -1.162,0.234 -1.136,0.726 0.101,1.963 2.009,2.009 7.704,0.811 6.355,-1.337 -0.442,-0.704 -4.241,-1.072 -6.456,-0.626 m 6.1,1.326 c 0,1.476 -4.567,1.754 -5.558,0.338 -0.878,-1.253 -0.232,-1.568 2.958,-1.441 2.479,0.098 2.6,0.149 2.6,1.103 m 55.895,-0.735 c -0.616,0.616 -0.646,2.424 -0.049,3.021 0.246,0.246 0.656,0.867 0.912,1.38 0.829,1.663 2.876,1.311 2.715,-0.466 -0.278,-3.049 -2.271,-5.242 -3.578,-3.935 m 2.432,2.07 c 0.834,2.646 0.841,2.528 -0.151,2.787 -0.554,0.145 -0.889,-0.004 -1.021,-0.453 -0.108,-0.368 -0.462,-1.189 -0.788,-1.823 -0.533,-1.04 -0.525,-1.229 0.082,-1.9 0.981,-1.084 1.134,-0.97 1.878,1.389 m 1.873,4.465 c 0,0.33 0.18,0.6 0.4,0.6 0.22,0 0.4,-0.27 0.4,-0.6 0,-0.33 -0.18,-0.6 -0.4,-0.6 -0.22,0 -0.4,0.27 -0.4,0.6 m -3.54,7.3 c -1.306,1.104 -1.341,3.881 -0.053,4.218 1.571,0.41 3.121,-2.958 1.989,-4.322 -0.635,-0.766 -0.925,-0.75 -1.936,0.104 m 1.458,1.158 c 0.164,1.099 -0.629,3.044 -1.117,2.742 -0.451,-0.278 -0.551,-3.116 -0.126,-3.542 0.462,-0.462 1.118,-0.04 1.243,0.8 m -58.228,2.365 c 1.184,1.185 -1.803,2.629 -3.694,1.786 -1.838,-0.818 -2.793,-1.478 -2.527,-1.745 0.32,-0.319 5.905,-0.356 6.221,-0.041 m 96.185,0.899 c -1.869,1.951 -1.057,3.589 1.539,3.102 2.101,-0.394 2.647,-2.018 1.103,-3.281 -1.411,-1.155 -1.361,-1.158 -2.642,0.179 m 2.332,0.25 1.049,0.972 -0.852,0.852 c -1.037,1.037 -2.929,0.963 -3.135,-0.122 -0.104,-0.55 1.05,-2.228 1.81,-2.632 0.044,-0.023 0.552,0.395 1.128,0.93 m -160.529,2.747 c -0.703,0.726 -1.278,1.693 -1.278,2.151 0,0.458 -0.27,1.056 -0.6,1.33 -1.228,1.019 1.846,4.8 3.902,4.8 0.506,0 1.228,0.36 1.605,0.8 0.377,0.44 1.109,0.8 1.627,0.8 0.518,0 1.268,0.36 1.666,0.8 0.398,0.44 1.214,0.8 1.813,0.8 0.599,0 1.309,0.265 1.578,0.589 0.269,0.325 1.146,0.711 1.949,0.858 0.803,0.148 1.889,0.603 2.414,1.011 0.525,0.408 1.352,0.742 1.838,0.742 0.486,0 1.21,0.36 1.608,0.8 1.188,1.313 5.8,0.868 5.8,-0.559 0,-0.319 0.45,-1.114 1,-1.768 0.55,-0.654 1,-1.54 1,-1.969 0,-0.429 0.36,-1.106 0.8,-1.504 0.44,-0.398 0.8,-1.118 0.8,-1.6 0,-0.482 0.36,-1.202 0.8,-1.6 0.44,-0.398 0.8,-1.177 0.8,-1.73 0,-0.554 0.282,-1.319 0.628,-1.7 0.578,-0.64 0.484,-0.837 -1.211,-2.532 l -1.838,-1.838 h -12.711 -12.711 l -1.279,1.319 m 27.765,0.499 c 1.549,1.642 1.607,4.643 0.111,5.731 -0.433,0.315 -0.754,1.032 -0.754,1.686 0,0.727 -0.288,1.291 -0.8,1.565 -0.521,0.279 -0.8,0.838 -0.8,1.6 0,0.762 -0.279,1.321 -0.8,1.6 -0.44,0.235 -0.8,0.692 -0.8,1.014 0,1.199 -1.529,2.186 -3.386,2.186 -1.376,0 -1.884,-0.183 -2.214,-0.8 -0.272,-0.509 -0.838,-0.8 -1.552,-0.8 -0.618,0 -1.45,-0.36 -1.848,-0.8 -0.398,-0.44 -1.212,-0.8 -1.808,-0.8 -0.596,0 -1.542,-0.36 -2.101,-0.8 -0.56,-0.44 -1.567,-0.8 -2.24,-0.8 -0.813,0 -1.366,-0.268 -1.651,-0.8 -0.279,-0.521 -0.838,-0.8 -1.6,-0.8 -0.762,0 -1.321,-0.279 -1.6,-0.8 -0.27,-0.504 -0.838,-0.8 -1.535,-0.8 -1.831,0 -5.213,-3.627 -3.865,-4.145 0.33,-0.126 0.6,-0.697 0.6,-1.268 0,-0.586 0.479,-1.541 1.1,-2.193 l 1.1,-1.155 12.553,-0.02 12.553,-0.019 1.337,1.418 m 60.988,-0.275 c -0.496,0.926 0.136,1.643 1.203,1.364 0.988,-0.258 0.979,-0.982 -0.022,-1.607 -0.664,-0.414 -0.85,-0.376 -1.181,0.243 m 3.169,4.504 c 0,0.158 -0.099,0.546 -0.221,0.863 -0.363,0.947 4.243,1.349 4.916,0.428 0.437,-0.599 0.572,-0.614 1.005,-0.112 0.965,1.117 19.263,0.433 19.428,-0.726 0.136,-0.956 -1.595,-1.363 -2.128,-0.5 -0.286,0.463 -16.3,0.566 -16.759,0.108 -0.38,-0.38 -6.241,-0.437 -6.241,-0.061"
       inkscape:connector-curvature="0"
       style="fill:#a4a4a4;fill-rule:evenodd;stroke:none" />
    <path
       id="path4"
       d="m 195.455,189.264 c -3.601,3.663 -3.793,4.172 -1.655,4.405 1.08,0.118 1.2,0.271 1.2,1.531 v 1.4 l -13.257,0.105 -13.258,0.106 -0.789,-1.338 c -0.434,-0.736 -1.012,-2.013 -1.285,-2.838 -0.425,-1.29 -0.626,-1.468 -1.428,-1.266 -1.316,0.33 -10.168,0.36 -11.429,0.038 -1.18,-0.301 -1.539,0.403 -1.549,3.044 -0.012,3.336 -2.901,3.29 -3.205,-0.051 -0.181,-1.987 -0.297,-2.211 -1.2,-2.312 -2.361,-0.264 -2.864,-0.544 -3.434,-1.907 l -0.581,-1.391 -14.892,0.105 L 113.8,189 v 15.458 c 0,14.161 0.059,15.523 0.7,16.232 0.514,0.567 0.7,1.457 0.7,3.341 0,2.812 1.506,4.765 3.679,4.772 0.506,0.001 1.461,0.36 2.121,0.797 0.66,0.437 1.577,0.796 2.038,0.797 0.461,0.002 1.164,0.363 1.562,0.803 0.398,0.44 1.23,0.8 1.848,0.8 0.714,0 1.28,0.291 1.552,0.8 0.279,0.521 0.838,0.8 1.6,0.8 0.762,0 1.321,0.279 1.6,0.8 0.291,0.544 0.839,0.801 1.714,0.803 0.707,0.001 1.826,0.36 2.486,0.797 0.66,0.437 1.689,0.796 2.286,0.797 0.675,0.002 1.248,0.306 1.514,0.803 0.272,0.509 0.838,0.8 1.552,0.8 0.618,0 1.45,0.36 1.848,0.8 0.511,0.564 1.232,0.8 2.448,0.8 1.314,0 1.826,0.19 2.152,0.8 0.272,0.509 0.838,0.8 1.552,0.8 0.618,0 1.45,0.36 1.848,0.8 0.398,0.44 1.17,0.8 1.715,0.8 0.545,0 1.577,0.362 2.293,0.805 1.706,1.054 2.722,0.698 2.385,-0.837 -0.227,-1.034 1.274,-4.475 2.256,-5.172 0.158,-0.112 0.419,-0.742 0.58,-1.4 0.161,-0.658 0.626,-1.625 1.032,-2.15 0.406,-0.525 0.739,-1.213 0.739,-1.529 0,-0.712 1.828,-3.877 2.618,-4.532 0.395,-0.327 0.582,-1.28 0.582,-2.959 0,-3.186 1.723,-5.362 3.193,-4.032 0.729,0.66 0.874,0.671 1.507,0.115 0.385,-0.338 1.089,-0.733 1.564,-0.877 0.475,-0.145 1.082,-0.526 1.349,-0.847 0.373,-0.45 1.529,-0.585 5.012,-0.585 4.864,0 5.803,-0.371 4.133,-1.633 -1.563,-1.181 -0.546,-1.615 3.478,-1.483 4.902,0.16 5.708,2.85 0.956,3.188 -1.712,0.122 -1.801,0.19 -1.992,1.528 -0.172,1.205 -0.367,1.418 -1.4,1.53 -1.325,0.143 -6.825,5.382 -6.39,6.087 0.131,0.211 1.836,0.383 3.79,0.383 4.485,0 4.181,-0.687 4.296,9.731 0.052,4.803 0.198,8.898 0.323,9.1 0.321,0.519 24.423,0.482 25.395,-0.038 0.61,-0.327 0.688,-0.6 0.392,-1.377 -0.78,-2.052 -0.578,-16.162 0.244,-17.071 1.14,-1.26 2.174,-1.674 4.007,-1.604 1.581,0.059 1.706,-0.018 2.136,-1.32 0.608,-1.843 0.054,-1.775 14.507,-1.786 l 12.7,-0.01 v 1.4 c 0,1.886 -2.193,1.739 27.9,1.864 l 26.9,0.111 v -0.851 c 0,-0.468 -0.27,-1.075 -0.6,-1.349 -0.33,-0.274 -0.6,-0.94 -0.6,-1.48 0,-1.626 -2.039,-3.32 -3.996,-3.32 -2.079,0 -3.029,-0.502 -3.81,-2.012 -0.338,-0.653 -0.88,-1.188 -1.204,-1.188 -0.402,0 -0.59,-0.426 -0.59,-1.338 0,-0.819 -0.303,-1.612 -0.78,-2.044 -0.511,-0.463 -0.821,-1.344 -0.9,-2.562 -0.165,-2.557 -2.766,-2.937 -3.12,-0.456 l -0.2,1.4 -11.6,0.2 c -12.232,0.211 -12.6,0.265 -12.6,1.847 0,0.565 -0.174,0.893 -0.4,0.753 -0.22,-0.136 -0.4,-0.683 -0.4,-1.216 0,-1.26 -1.183,-1.561 -5.003,-1.272 -2.142,0.162 -3.127,0.072 -3.714,-0.339 -0.997,-0.698 -1.719,-0.009 -1.841,1.762 -0.242,3.492 -3.842,4.638 -3.842,1.222 0,-0.989 0.255,-1.774 0.7,-2.153 0.385,-0.328 1.532,-1.319 2.549,-2.204 l 1.849,-1.607 0.58,0.873 c 1.184,1.785 1.971,0.691 1.84,-2.556 -0.132,-3.259 -1.261,-4.495 -1.772,-1.94 -0.307,1.535 -0.567,1.54 -1.427,0.027 -0.466,-0.819 -0.992,-1.197 -1.662,-1.197 -2.01,0 -3.689,-4.168 -2.257,-5.6 1.49,-1.49 3.356,0.186 3.894,3.5 0.275,1.693 0.813,2.01 1.573,0.925 0.565,-0.806 0.817,-0.844 3.962,-0.589 3.701,0.301 4.571,-0.02 4.571,-1.685 0,-1.308 0.655,-1.192 1.4,0.249 0.341,0.66 0.661,1.235 0.71,1.278 0.05,0.043 5.22,0.178 11.49,0.3 l 11.4,0.222 0.2,1.4 c 0.185,1.295 0.305,1.4 1.6,1.4 h 1.4 l 0.117,-2.895 c 0.097,-2.393 0.254,-2.968 0.9,-3.314 0.546,-0.292 0.783,-0.839 0.783,-1.805 0,-0.781 0.202,-1.386 0.462,-1.386 0.254,0 1.07,-0.711 1.813,-1.58 1.212,-1.415 1.569,-1.592 3.439,-1.7 1.883,-0.108 2.099,-0.217 2.221,-1.12 0.074,-0.55 0.456,-1.36 0.848,-1.8 1.049,-1.179 1.359,-2.86 0.581,-3.158 -0.346,-0.133 -18.698,-0.242 -40.783,-0.242 -39.743,0 -40.157,-0.008 -40.581,-0.8 -0.408,-0.762 -0.822,-0.799 -8.714,-0.771 l -8.286,0.03 -3.545,3.605 M 215.8,186.8 c 0.715,0.79 1.232,0.8 41.062,0.8 H 297.2 v 1.104 c 0,0.657 -0.312,1.299 -0.772,1.586 -0.425,0.265 -0.83,0.983 -0.9,1.596 -0.12,1.042 -0.263,1.122 -2.225,1.235 -1.591,0.091 -2.198,0.309 -2.514,0.9 -0.229,0.428 -0.681,0.779 -1.003,0.779 -0.322,0 -0.586,0.259 -0.586,0.576 0,0.317 -0.182,0.689 -0.405,0.827 -0.248,0.154 -0.365,-0.242 -0.3,-1.02 0.147,-1.783 -1.048,-2.545 -2.06,-1.313 -0.416,0.506 -1.284,0.925 -2.075,1 -1.798,0.172 -2.34,3.252 -0.683,3.885 2.546,0.974 3.514,7.045 1.123,7.045 -0.838,0 -1.032,-0.227 -1.2,-1.4 l -0.2,-1.4 -11.109,-0.106 -11.11,-0.107 -0.663,-1.389 c -1.15,-2.412 -3.318,-2.099 -3.318,0.478 0,1.037 -1.195,1.173 -4.909,0.562 -1.371,-0.225 -2.103,-0.166 -2.6,0.211 -1.032,0.784 -1.291,0.668 -1.291,-0.576 0,-1.351 -2.258,-4.073 -3.379,-4.073 -2.124,0 -2.934,2.986 -1.355,4.994 0.73,0.927 0.789,1.226 0.373,1.893 -0.617,0.988 -0.344,1.304 0.662,0.766 1.24,-0.664 2.394,-0.099 3.039,1.487 l 0.593,1.46 -2.599,2.457 c -2.906,2.748 -3.714,4.906 -2.348,6.271 1.631,1.631 4.614,0.073 4.614,-2.41 0,-1.494 0.846,-2.11 1.805,-1.314 0.462,0.383 0.848,0.388 1.73,0.023 0.625,-0.259 2.2,-0.416 3.501,-0.349 l 2.364,0.122 0.124,1.722 c 0.208,2.881 1.652,2.788 2.668,-0.172 l 0.533,-1.55 11.338,-0.2 11.337,-0.2 0.2,-1.4 c 0.346,-2.425 2.16,-2.026 2.322,0.511 0.088,1.37 0.343,2.048 0.9,2.396 0.501,0.313 0.771,0.914 0.757,1.689 l -0.021,1.204 -0.628,-0.9 c -1.319,-1.892 -4.278,0.293 -4.055,2.994 L 283,221 l 2.132,0.122 c 2.502,0.143 3.259,-0.333 3.292,-2.071 0.021,-1.139 0.066,-1.181 0.5,-0.475 1.219,1.987 2.211,2.624 4.089,2.624 2.172,0 4.187,1.611 4.187,3.349 0,0.556 0.314,1.187 0.697,1.401 1.667,0.933 -1.37,1.042 -26.186,0.937 -28.013,-0.118 -26.911,-0.057 -26.911,-1.487 0,-1.463 0.033,-1.46 -14.227,-1.465 -14.074,-0.005 -14.399,0.035 -14.649,1.794 -0.102,0.716 -0.46,0.91 -2.01,1.088 -1.204,0.138 -2.288,0.572 -3,1.2 -0.613,0.541 -1.2,1.039 -1.306,1.109 -0.106,0.069 -0.196,4.209 -0.2,9.2 L 209.4,247.4 H 197 184.6 l 0.2,-1 c 0.332,-1.662 0.146,-14.071 -0.24,-16 l -0.36,-1.8 -3.7,-0.115 c -4.219,-0.131 -4.172,-0.093 -2.3,-1.859 0.77,-0.726 1.4,-1.426 1.4,-1.555 0,-0.697 2.16,-2.236 3.292,-2.345 1.196,-0.115 1.319,-0.255 1.432,-1.626 l 0.124,-1.5 h 1.927 c 2.269,0 2.933,-0.596 2.752,-2.474 L 189,215.8 l -3.84,-0.114 c -4.435,-0.131 -5.79,0.513 -4.047,1.924 1.39,1.126 1.18,1.19 -3.889,1.19 -2.777,0 -4.881,0.169 -5.026,0.403 -0.485,0.785 -3.537,2.018 -3.956,1.599 -1.562,-1.562 -3.842,0.976 -3.842,4.277 0,2.034 -0.157,2.663 -0.8,3.214 -0.44,0.377 -0.8,0.887 -0.8,1.134 0,0.247 -0.36,0.775 -0.8,1.173 -0.44,0.398 -0.8,1.122 -0.8,1.608 0,0.486 -0.36,1.342 -0.8,1.901 -0.44,0.56 -0.8,1.366 -0.8,1.793 0,0.427 -0.36,1.191 -0.8,1.698 -0.44,0.507 -0.8,1.091 -0.8,1.298 0,0.207 -0.371,0.847 -0.823,1.423 -0.532,0.675 -0.784,1.506 -0.712,2.341 0.15,1.747 -0.219,1.989 -1.498,0.984 -0.605,-0.477 -1.657,-0.846 -2.407,-0.846 -0.922,0 -1.463,-0.246 -1.76,-0.8 -0.292,-0.546 -0.838,-0.8 -1.718,-0.8 -0.856,0 -1.457,-0.269 -1.789,-0.8 -0.359,-0.574 -0.933,-0.8 -2.034,-0.8 -1.027,0 -1.775,-0.265 -2.259,-0.8 -0.398,-0.44 -1.23,-0.8 -1.848,-0.8 -0.714,0 -1.28,-0.291 -1.552,-0.8 -0.285,-0.532 -0.838,-0.8 -1.651,-0.8 -0.673,0 -1.68,-0.36 -2.24,-0.8 -0.559,-0.44 -1.616,-0.8 -2.349,-0.8 -0.922,0 -1.463,-0.246 -1.76,-0.8 -0.279,-0.521 -0.838,-0.8 -1.6,-0.8 -0.762,0 -1.321,-0.279 -1.6,-0.8 -0.292,-0.546 -0.838,-0.8 -1.718,-0.8 -0.856,0 -1.457,-0.269 -1.789,-0.8 -0.29,-0.465 -0.933,-0.8 -1.533,-0.8 -0.569,0 -1.491,-0.36 -2.051,-0.8 -0.559,-0.44 -1.452,-0.8 -1.984,-0.8 -2.238,0 -3.725,-1.932 -3.725,-4.839 0,-2.07 -0.174,-2.839 -0.805,-3.567 -0.779,-0.898 -0.801,-1.393 -0.7,-15.761 l 0.105,-14.833 14.493,-0.105 14.492,-0.105 0.581,1.391 c 0.57,1.363 1.073,1.643 3.434,1.907 0.879,0.098 1.015,0.33 1.128,1.904 0.296,4.169 3.875,4.042 4.146,-0.147 l 0.126,-1.935 6.595,0.002 6.595,0.002 0.273,1.332 c 0.15,0.733 0.479,1.401 0.731,1.485 0.252,0.084 0.623,0.586 0.824,1.116 l 0.366,0.964 13.708,-0.106 L 195.4,197 v -1.8 c 0,-1.738 -0.044,-1.804 -1.3,-1.925 -1.694,-0.164 -1.8,0.041 2,-3.861 l 3.3,-3.388 7.838,-0.013 c 7.339,-0.012 7.884,0.038 8.562,0.787 m 72.124,8.531 c 0.096,1.136 -0.022,1.469 -0.521,1.469 -0.357,0 -0.831,0.536 -1.063,1.2 -0.488,1.399 -0.428,1.382 -1.984,0.577 -1.792,-0.926 -1.564,-3.118 0.343,-3.302 0.8,-0.077 1.464,-0.433 1.728,-0.925 0.628,-1.175 1.355,-0.699 1.497,0.981 m -0.501,4.179 c -0.54,0.54 -0.913,-0.571 -0.506,-1.51 l 0.433,-1 0.155,1.137 c 0.085,0.625 0.049,1.243 -0.082,1.373 m -106.53,-1.043 c -1.716,1.716 0.488,3.533 4.287,3.533 3.546,0 4.148,-0.378 3.947,-2.474 L 189,198.2 l -3.807,-0.113 c -2.619,-0.078 -3.96,0.04 -4.3,0.38 M 188.6,200 v 1.4 l -2.948,0.118 c -3.12,0.126 -4.452,-0.447 -4.452,-1.913 0,-1.119 0.426,-1.238 3.981,-1.119 l 3.419,0.114 v 1.4 m 62.2,8 c 0,2.583 -0.528,3.416 -1.092,1.723 -0.401,-1.203 0.203,-4.625 0.756,-4.284 0.185,0.115 0.336,1.267 0.336,2.561 m 35.6,8.8 c 0.235,0.44 0.692,0.8 1.014,0.8 0.771,0 0.783,2.138 0.016,2.775 -1.159,0.962 -4.014,0.362 -4.156,-0.874 -0.224,-1.946 2.343,-4.164 3.126,-2.701 m -160.9,3.194 c -0.605,0.636 -1.1,1.61 -1.1,2.166 0,0.602 -0.324,1.185 -0.8,1.44 -1.972,1.056 1.025,5.583 3.704,5.595 0.607,0.003 1.412,0.365 1.789,0.805 0.377,0.44 1.178,0.8 1.782,0.8 0.687,0 1.257,0.299 1.525,0.8 0.292,0.546 0.838,0.8 1.718,0.8 0.856,0 1.457,0.269 1.789,0.8 0.301,0.482 0.935,0.801 1.596,0.803 0.604,0.001 1.637,0.36 2.297,0.797 0.66,0.437 1.689,0.796 2.286,0.797 0.675,0.002 1.248,0.306 1.514,0.803 0.996,1.861 7.2,0.942 7.2,-1.066 0,-0.498 0.36,-1.099 0.8,-1.334 0.521,-0.279 0.8,-0.838 0.8,-1.6 0,-0.762 0.279,-1.321 0.8,-1.6 0.521,-0.279 0.8,-0.838 0.8,-1.6 0,-0.762 0.279,-1.321 0.8,-1.6 0.532,-0.285 0.8,-0.838 0.8,-1.65 0,-0.776 0.321,-1.482 0.88,-1.934 1.036,-0.839 0.485,-2.068 -1.84,-4.1 l -1.24,-1.083 -13.4,0.003 -13.4,0.003 -1.1,1.155 m 29.219,0.821 c 1.802,1.731 2.029,2.399 1.081,3.185 -0.33,0.274 -0.6,1.01 -0.6,1.635 0,0.727 -0.288,1.291 -0.8,1.565 -0.521,0.279 -0.8,0.838 -0.8,1.6 0,0.762 -0.279,1.321 -0.8,1.6 -0.521,0.279 -0.8,0.838 -0.8,1.6 0,0.762 -0.279,1.321 -0.8,1.6 -0.44,0.235 -0.8,0.769 -0.8,1.186 0,2.032 -5.413,3.059 -6.4,1.214 -0.266,-0.497 -0.839,-0.801 -1.514,-0.803 -0.597,-0.001 -1.626,-0.36 -2.286,-0.797 -0.66,-0.437 -1.667,-0.796 -2.238,-0.797 -0.571,-0.002 -1.364,-0.363 -1.762,-0.803 -0.398,-0.44 -1.23,-0.8 -1.848,-0.8 -0.714,0 -1.28,-0.291 -1.552,-0.8 -0.272,-0.509 -0.838,-0.8 -1.552,-0.8 -0.618,0 -1.45,-0.36 -1.848,-0.8 -0.398,-0.44 -1.199,-0.8 -1.779,-0.8 -2.192,0 -5.183,-3.964 -3.621,-4.8 0.476,-0.255 0.8,-0.838 0.8,-1.44 0,-0.556 0.495,-1.53 1.1,-2.166 l 1.1,-1.155 13.019,-0.02 13.02,-0.019 1.68,1.615 m 59.459,-0.671 c -0.452,1.803 -0.088,2.446 1.46,2.576 1.927,0.162 2.628,-0.654 1.891,-2.199 -0.755,-1.583 -2.985,-1.834 -3.351,-0.377 m 2.949,1.19 c 0.081,0.409 -0.251,0.732 -0.93,0.902 -1.47,0.369 -2.07,-0.318 -1.456,-1.667 0.528,-1.159 2.104,-0.653 2.386,0.765 m 1.373,6.542 c 0.385,0.1 1.015,0.1 1.4,0 0.385,-0.101 0.07,-0.183 -0.7,-0.183 -0.77,0 -1.085,0.082 -0.7,0.183 m 11.578,0.022 c 2.353,0.071 6.313,0.071 8.8,0.001 2.487,-0.07 0.562,-0.128 -4.278,-0.129 -4.84,0 -6.875,0.058 -4.522,0.128"
       inkscape:connector-curvature="0"
       style="fill:#6c6c6c;fill-rule:evenodd;stroke:none" />
  </g>
</svg>
