<?xml version="1.0" encoding="UTF-8" standalone="no"?>
<svg
   xmlns:dc="http://purl.org/dc/elements/1.1/"
   xmlns:cc="http://creativecommons.org/ns#"
   xmlns:rdf="http://www.w3.org/1999/02/22-rdf-syntax-ns#"
   xmlns:svg="http://www.w3.org/2000/svg"
   xmlns="http://www.w3.org/2000/svg"
   xmlns:sodipodi="http://sodipodi.sourceforge.net/DTD/sodipodi-0.dtd"
   xmlns:inkscape="http://www.inkscape.org/namespaces/inkscape"
   id="svg"
   version="1.1"
   width="320.40488"
   height="429.19794"
   viewBox="0 0 320.40488 429.19794"
   sodipodi:docname="Vanguard.svg"
   inkscape:version="0.92.4 (5da689c313, 2019-01-14)">
  <metadata
     id="metadata9">
    <rdf:RDF>
      <cc:Work
         rdf:about="">
        <dc:format>image/svg+xml</dc:format>
        <dc:type
           rdf:resource="http://purl.org/dc/dcmitype/StillImage" />
        <dc:title></dc:title>
      </cc:Work>
    </rdf:RDF>
  </metadata>
  <defs
     id="defs7" />
  <sodipodi:namedview
     pagecolor="#ffffff"
     bordercolor="#666666"
     borderopacity="1"
     objecttolerance="10"
     gridtolerance="10"
     guidetolerance="10"
     inkscape:pageopacity="0"
     inkscape:pageshadow="2"
     inkscape:window-width="640"
     inkscape:window-height="480"
     id="namedview5"
     showgrid="false"
     inkscape:zoom="0.44641593"
     inkscape:cx="485.22805"
     inkscape:cy="243.72974"
     inkscape:window-x="0"
     inkscape:window-y="0"
     inkscape:window-maximized="0"
     inkscape:current-layer="svgg" />
  <g
     id="svgg"
     transform="translate(-42.998644,-53.478901)">
    <path
       id="path0"
       d="m 44.421928,55.109901 c -0.898,0.897 -1.531,74.688999 -1.408,163.980999 0.124,89.291 0.855,161.718 1.626,160.947 0.771,-0.771 3.598,2.189 6.281,6.578 6.844,11.197 28.43,33.472 36.457,37.623 3.697,1.911 7.477,4.698 8.401,6.193 1.115,1.804 2.033,1.256 0,0 -1.983,-1.226 0.98,1.198 2.02,2.881 0.883,1.429 -1.789,0.686 0,0 1.789,-0.687 5.440002,0.938 8.112002,3.611 2.673,2.672 5.649,4.972 6.614,5.11 3.592,0.513 20.295,9.769 23.608,13.081 1.888,1.889 5.639,4.388 8.334,5.554 2.695,1.165 7.487,3.972 10.648,6.237 3.162,2.264 4.937,2.793 3.945,1.175 -1.428,-2.329 -0.569,-0.003 4.12,2.13295 3.258,1.485 5.413,1.14905 4.789,2.15905 -0.624,1.009 -1.506,-0.931 0,0 1.794,1.108 14.49438,7.53316 13.30038,5.60016 11.51526,1.42899 -1.58894,1.7984 21.39275,4.70378 3.47348,-1.78286 14.22322,-4.26377 24.97631,-9.98584 11.48033,-4.06011 5.60927,-2.01799 8.82025,-3.08008 4.7121,-2.3661 19.5715,-9.39027 25.7567,-12.12434 -0.955,-1.055 -4.52439,3.06032 9.17861,-4.54468 29.726,-16.499 49.896,-29.953 62.968,-42.002 5.286,-4.873 8.51604,-7.06003 10.19752,-8.76148 0.459,-0.76549 -0.042,-1.89394 1.89447,-1.80496 0.60097,-0.802 0.99001,-2.28156 4.11101,-6.37356 13.267,-17.393 12.837,-11.283 12.837,-182.551 V 53.478901 h -158.675 c -87.271,0 -159.408002,0.734 -160.305002,1.631 M 352.19193,213.1279 c 0.849,183.726 2.865,175.072 -48.439,207.941 -11.579,7.418 -22.13,14.406 -23.447,15.528 -5.318,4.534 -71.673,35.595 -76.04,35.595 -2.582,0 -15.465,-5.184 -28.628,-11.521 -13.162,-6.337 -25.486,-11.863 -27.385,-12.281 -1.899,-0.417 -4.685,-1.891 -6.192,-3.275 -1.506,-1.384 -12.244,-8.096 -23.863,-14.915 -25.601002,-15.027 -52.042002,-38.598 -58.680002,-52.312 -4.803,-9.922 -4.888,-12.716 -4.888,-161.405 V 65.174901 h 148.439002 148.439 l 0.684,147.952999 m -203.41,-136.842999 -82.456002,0.645 V 220.8349 c 0,116.104 0.615,145.359 3.182,151.432 8.558,20.243 67.281002,60.301 122.653002,83.669 l 12.386,5.226 33.674,-16.784 c 52.957,-26.395 88.25,-51.73 98.243,-70.527 3.583,-6.739 6.259,-290.942999 2.791,-296.395999 -1.416,-2.226 -14.53,-2.791 -54.939,-2.37 -29.193,0.305 -90.183,0.845 -135.534,1.2 m 179.532,104.488999 v 92.208 l -62.254,61.826 c -52.903,52.539 -62.39,62.994 -63.16,69.603 -1.033,8.873 -6.789,13.998 80.786,-71.942 42.905,-42.104 43.468,-42.551 44.229,-35.169 0.722,7 -3.265,11.482 -62.573,70.343 -47.983,47.621 -63.344,64.233 -63.344,68.503 0,9.06 0.765,8.406 63.171,-54.001 32.8,-32.801 60.426,-59.643 61.391,-59.649 18.924,-0.12 -82.167,107.78 -111.296,118.792 l -13.635,5.155 -30.81,-15.588 c -54.968,-27.813 -85.301002,-50.78 -90.605002,-68.604 -1.431,-4.81 -2.145,-26.04 -1.729,-51.462 l 0.706,-43.275 h 61.989002 61.988 l 0.736,6.391 0.736,6.391 6.866,-5.077 c 8.602,-6.359 8.76,-9.431 0.434,-8.457 l -6.433,0.752 -0.612,-89.474 -0.613,-89.472999 h 62.016 62.016 V 180.7739 m -169.612,-42.5 c 21.218,12.113 21.165,10.761 0.882,22.505 -20.445,11.836 -19.771,11.835 -39.633,0.036 -19.759,-11.739 -19.803,-10.478 0.787,-22.419 20.723,-12.017 17.146,-12.006 37.964,-0.122 m 78.544,10.526 -9.567,13.451 6.458,0.765 c 9.174,1.086 11.033,3.867 5.95,8.903 -4.531,4.49 -12.358,16.092 -12.358,18.32 0,0.688 3.096,1.252 6.88,1.252 10.03,0 10.209,2.51 1.139,15.978 l -8.143,12.092 h 9.108 c 9.601,0 8.667,0.902 24.804,-23.972 l 4.17,-6.427 -6.999,1.4 c -10.541,2.108 -10.986,-2.236 -1.572,-15.34 l 8.479,-11.802 h -7.099 c -9.984,0 -10.186,-2.005 -1.464,-14.55 l 7.677,-11.042 4.07,6.363 c 2.238,3.5 6.023,8.247 8.41,10.549 6.108,5.887 5.42,8.271 -2.632,9.117 l -6.973,0.733 7.179,11.002 c 7.917,12.133 7.559,15.848 -1.364,14.143 -7.889,-1.509 -7.48,0.637 3.012,15.791 14.503,20.946 33.079,20.946 19.155,0 -8.691,-13.074 -8.691,-14.035 0,-14.035 3.859,0 7.017,-0.6 7.017,-1.333 0,-0.734 -3.158,-5.923 -7.017,-11.533 -3.86,-5.61 -7.018,-11.445 -7.018,-12.968 0,-1.745 2.594,-2.387 7.018,-1.738 8.807,1.293 8.781,1.006 -1.35,-15.192 l -8.368,-13.377 h -19.517 -19.518 l -9.567,13.45 m -119.677,14.081 c 18.464,10.751 18.464,11.368 -0.023,22.05 -21.015002,12.142 -20.811002,12.25 -20.811002,-10.984 0,-23.312 -0.103,-23.257 20.834002,-11.066 m 63.377,11.066 c 0,23.049 0.666,22.702 -20.209,10.504 -19.058,-11.137 -19.036,-10.094 -0.452,-21.168 20.871,-12.436 20.661,-12.545 20.661,10.664 m -21.926,13.029 c 20.887,11.529 20.861,10.432 0.526,22.643 -18.721,11.241 -21.031,11.675 -29.701,5.569 -3.415,-2.405 -10.752,-6.672 -16.304,-9.483 -12.568,-6.361 -12.106,-7.672 6.63,-18.829 18.998,-11.313 18.171,-11.315 38.849,0.1 m 62.03,96.572 c -13.976,14.07 -16.948,18.345 -16.316,23.468 0.728,5.897 2.142,4.889 24.121,-17.203 22.353,-22.469 23.048,-23.469 16.316,-23.469 -5.63,0 -10.439,3.43 -24.121,17.204 m 17.041,15.593 c -17.921,18.038 -32.924,34.354 -33.34,36.257 -2.695,12.33 3.412,7.922 40.496,-29.236 37.241,-37.313 39.291,-39.818 32.585,-39.818 -6.093,0 -12,4.875 -39.741,32.797 m 15.935,15.741 c -49.891,49.339 -52.491,52.444 -49.929,59.621 1.133,3.174 13.733,-8.225 57.531,-52.047 52.379,-52.409 55.597,-56.112 48.779,-56.112 -6.363,0 -13.603,6.234 -56.381,48.538 m -134.314,2.348 c -1.905,2.247 -7.87,11.19 -13.256,19.875 l -9.793002,15.789 h 6.779002 c 6.512,0 26.042,-24.028 26.042,-32.04 0,-5.535 -6.202,-7.834 -9.772,-3.624 m 16.962,0.253 c -1.684,3.148 -1.383,5.58 1.088,8.772 4.945,6.391 11.789,-1.666 7.393,-8.704 -3.474,-5.564 -5.53,-5.581 -8.481,-0.068 m 19.009,-1.548 c -6.666,6.665 12.462,36.959 23.336,36.959 4.89,0 6.369,-0.846 5.111,-2.924 -4.258,-7.035 -24.532,-36.842 -25.059,-36.842 -0.32,0 -1.845,1.263 -3.388,2.807 m -31.67,21.358 c -10.087,14.646 -10.276,15.601 -3.079,15.601 9.99,0 20.117,-15.937 14.879,-23.415 -3.075,-4.39 -3.664,-3.999 -11.8,7.814 m 21.831,-6.605 c -4.386,5.286 7.235,22.206 15.252,22.206 7.393,0 7.317,-0.758 -1.447,-14.415 -7.879,-12.279 -9.378,-13.125 -13.805,-7.791 m -10.14,15.188 -4.146,7.018 h 9.622 9.621 l -4.145,-7.018 c -2.28,-3.859 -4.745,-7.017 -5.476,-7.017 -0.732,0 -3.196,3.158 -5.476,7.017 m 192.61,12.982 c 0,10.876 -13.117,24.981 -39.765,42.761 -24.882,16.601 -23.441,13.394 8.265,-18.395 28.308,-28.381 31.5,-30.851 31.5,-24.366"
       inkscape:connector-curvature="0"
       style="fill:#000000;fill-rule:evenodd;stroke:none"
       sodipodi:nodetypes="ccscccccccccccccccccccccccccscsccccscccccsccccccsccccccccccccsccscccccccccccccccccccccccccccccssccscccccsccccccscccsscsccccccccscccccccccsccccsccccsccccsccccssccccccscsccssccscccccccsccccc" />
  </g>
</svg>
