<svg xmlns="http://www.w3.org/2000/svg" viewBox="0 0 720 720"{% if include.width %} width="{{include.width}}"{% endif %}{% if include.height %} height="{{include.height}}"{% endif %}><title>Exalted - Destiny 2 Clan</title><g id="Layer_2" data-name="Layer 2"><g id="Layer_1-2" data-name="Layer 1"><path class="roi-logo" d="M684,0H0V720H720V0Zm0,684H36V36H684Z"/><path class="roi-logo" d="M134.74,516v-316H312.58v33.29H176.23V340.39H283.85v32.83H176.23V516Z"/><path class="roi-logo" d="M463.05,520.06q-53.81,0-87.55-35.57t-33.74-93.94q0-58.37,34.2-93.71t88.69-35.34q54.48,0,87.55,33.52t33.06,85.5a156.64,156.64,0,0,1-1.82,24.62H384.17q1.81,37.41,23.48,59.06t55.4,21.66q25.54,0,43.1-11.4a67.77,67.77,0,0,0,25.76-30.1H576.6q-11.86,32.83-40.81,54.26T463.05,520.06Zm56.09-202.7q-22.35-21.64-55.4-21.66t-54.95,21.21q-21.89,21.19-24.17,58.14H541.94Q541.49,339,519.14,317.36Z"/></g></g></svg>
