<svg id="svg" version="1.1" xmlns="http://www.w3.org/2000/svg" xmlns:xlink="http://www.w3.org/1999/xlink" width="400" height="400" viewBox="0, 0, 400,400"><g id="svgg"><path id="path0" d="M186.333 2.367 C 61.623 12.138,-23.647 130.231,7.167 250.500 C 33.406 352.915,136.749 417.317,240.833 396.116 C 323.736 379.229,385.591 314.291,399.061 230.000 C 400.258 222.511,400.258 179.489,399.061 172.000 C 384.686 82.049,315.806 15.114,225.500 3.339 C 215.986 2.098,196.070 1.604,186.333 2.367 M206.393 41.665 C 272.070 44.601,328.526 86.613,349.845 148.417 L 351.081 152.000 359.541 152.000 L 368.000 152.000 368.000 200.000 L 368.000 248.000 359.544 248.000 L 351.088 248.000 349.522 252.523 C 331.456 304.711,286.251 344.129,231.667 355.292 C 154.166 371.142,75.818 326.552,50.319 252.083 L 48.921 248.000 40.461 248.000 L 32.000 248.000 32.000 200.000 L 32.000 152.000 40.454 152.000 L 48.908 152.000 50.507 147.417 C 71.596 86.944,128.634 44.468,192.490 41.684 C 195.612 41.548,198.392 41.415,198.667 41.389 C 198.942 41.363,202.419 41.487,206.393 41.665 M192.529 48.363 C 132.945 50.967,79.444 89.731,58.237 145.667 C 55.512 152.854,55.411 152.043,59.011 151.930 L 62.076 151.833 63.166 148.833 C 89.336 76.819,169.777 37.523,243.740 60.623 C 286.888 74.099,321.029 106.614,337.152 149.583 L 338.058 152.000 341.052 152.000 C 344.566 152.000,344.477 152.808,341.751 145.667 C 321.557 92.770,273.849 55.771,217.317 49.165 C 213.705 48.743,199.912 47.917,198.833 48.058 C 198.650 48.082,195.813 48.219,192.529 48.363 M190.500 56.039 C 138.749 59.625,93.211 90.159,70.500 136.500 C 67.839 141.928,63.811 151.589,64.091 151.869 C 64.165 151.942,82.380 151.965,104.569 151.918 L 144.913 151.833 136.753 121.500 C 127.819 88.292,127.842 88.403,129.290 85.167 C 131.241 80.806,131.177 80.832,155.422 74.347 C 167.015 71.246,180.977 67.499,186.450 66.021 C 202.528 61.678,205.653 62.633,208.483 72.750 L 209.019 74.667 210.926 74.672 C 222.252 74.704,243.794 76.009,245.440 76.763 C 248.336 78.089,250.565 80.942,251.129 84.046 C 251.316 85.077,249.441 137.043,248.811 148.250 L 248.601 152.000 292.336 152.000 C 333.857 152.000,336.059 151.970,335.835 151.417 C 335.705 151.096,335.334 150.083,335.010 149.167 C 314.602 91.293,253.158 51.696,190.500 56.039 M190.000 74.965 L 189.167 75.196 188.294 85.181 C 187.295 96.618,187.267 95.382,188.517 95.052 C 189.447 94.806,189.516 94.665,189.802 92.436 L 190.104 90.080 193.931 89.030 C 196.036 88.452,197.784 88.022,197.816 88.073 C 198.912 89.823,200.523 91.661,200.945 91.643 C 202.649 91.571,202.715 91.243,201.410 89.330 C 195.553 80.744,191.260 74.672,191.066 74.700 C 190.938 74.718,190.458 74.837,190.000 74.965 M193.810 82.008 C 195.198 84.030,196.333 85.811,196.333 85.968 C 196.333 86.199,191.263 87.667,190.464 87.667 C 190.233 87.667,190.541 81.841,190.891 79.583 C 191.141 77.974,190.903 77.776,193.810 82.008 M210.667 79.548 C 210.667 79.666,214.856 95.454,219.977 114.631 C 225.098 133.809,229.380 150.063,229.492 150.750 L 229.697 152.000 236.771 152.000 L 243.844 152.000 245.250 118.122 C 246.814 80.421,246.859 82.715,244.538 81.304 C 243.153 80.461,242.711 80.424,227.167 79.841 C 211.850 79.265,210.667 79.244,210.667 79.548 M234.148 85.636 C 234.417 86.072,240.000 104.230,240.000 104.671 C 240.000 104.894,239.504 104.999,238.750 104.937 C 237.527 104.836,237.485 104.787,236.812 102.667 L 236.123 100.500 232.305 100.407 L 228.486 100.313 227.493 102.407 C 226.558 104.377,225.066 105.177,224.109 104.220 C 224.037 104.148,226.822 97.247,231.566 85.750 C 231.763 85.273,233.866 85.180,234.148 85.636 M231.623 93.429 L 230.124 97.581 232.773 97.802 C 236.059 98.076,235.888 98.527,234.393 93.529 L 233.121 89.278 231.623 93.429 M172.891 106.819 C 167.662 114.677,166.088 120.316,168.145 123.827 C 170.001 126.994,174.846 127.552,178.121 124.977 C 179.195 124.131,179.191 124.090,178.504 128.833 C 177.806 133.652,177.771 133.449,179.250 133.180 C 181.246 132.817,186.103 131.364,186.437 131.030 C 186.622 130.845,186.026 129.826,184.927 128.446 C 183.928 127.192,182.705 125.620,182.209 124.951 L 181.307 123.736 183.258 123.755 C 190.661 123.824,193.031 116.688,187.319 111.526 C 185.606 109.979,181.203 107.101,178.389 105.688 C 174.560 103.767,174.979 103.681,172.891 106.819 M150.362 189.011 C 145.927 189.935,143.762 194.233,145.707 198.250 C 146.585 200.064,147.995 200.992,151.667 202.173 C 155.832 203.513,156.763 204.607,155.309 206.455 C 153.667 208.542,149.667 207.167,149.667 204.515 L 149.667 203.333 147.000 203.333 L 144.333 203.333 144.333 205.500 C 144.333 207.521,144.384 207.668,145.083 207.679 C 145.568 207.687,146.144 208.142,146.713 208.965 C 150.605 214.598,161.065 211.720,161.121 205.000 C 161.153 201.252,159.798 199.939,153.913 198.009 C 149.981 196.720,149.071 195.596,150.667 194.000 C 152.259 192.408,156.333 193.827,156.333 195.974 C 156.333 196.614,156.525 196.667,158.833 196.667 L 161.333 196.667 161.333 194.500 C 161.333 192.533,161.270 192.333,160.645 192.333 C 160.267 192.333,159.559 191.861,159.073 191.283 C 157.422 189.320,153.626 188.330,150.362 189.011 M241.245 189.346 C 232.834 191.440,229.913 202.354,236.066 208.695 C 240.693 213.463,248.965 212.659,252.207 207.127 C 253.241 205.363,253.273 205.412,250.584 204.666 L 248.471 204.080 247.767 205.154 C 244.759 209.743,238.062 206.988,237.725 201.022 C 237.376 194.862,243.708 191.143,247.469 195.299 C 247.996 195.881,248.490 196.000,250.385 196.000 L 252.667 196.000 252.667 193.500 L 252.667 191.000 250.976 191.000 C 249.789 191.000,248.871 190.758,247.893 190.189 C 246.295 189.258,243.182 188.863,241.245 189.346 M51.000 191.333 L 51.000 193.333 52.167 193.333 L 53.333 193.333 53.333 200.500 L 53.333 207.667 52.167 207.667 L 51.000 207.667 51.000 209.692 L 51.000 211.717 57.583 211.608 C 64.066 211.502,64.190 211.486,65.718 210.588 C 69.131 208.582,70.001 203.960,67.466 201.302 C 66.719 200.519,66.692 200.394,67.176 199.993 C 69.581 197.997,68.926 192.674,66.039 190.756 C 64.224 189.550,62.832 189.337,56.750 189.335 L 51.000 189.333 51.000 191.333 M74.667 191.500 L 74.667 193.667 75.833 193.667 L 77.000 193.667 77.000 200.667 L 77.000 207.667 75.833 207.667 L 74.667 207.667 74.667 209.667 L 74.667 211.667 83.500 211.667 L 92.333 211.667 92.333 207.667 L 92.333 203.667 90.000 203.667 L 87.667 203.667 87.667 205.667 L 87.667 207.667 84.833 207.667 L 82.000 207.667 82.000 205.000 L 82.000 202.333 84.167 202.333 L 86.333 202.333 86.333 200.333 L 86.333 198.333 84.167 198.333 L 82.000 198.333 82.000 196.000 L 82.000 193.667 84.815 193.667 L 87.630 193.667 87.732 195.250 L 87.833 196.833 90.083 196.932 L 92.333 197.030 92.333 193.182 L 92.333 189.333 83.500 189.333 L 74.667 189.333 74.667 191.500 M104.043 190.070 C 103.887 190.490,102.504 194.621,100.968 199.250 C 98.414 206.951,98.112 207.667,97.422 207.667 C 96.721 207.667,96.667 207.811,96.667 209.667 L 96.667 211.667 100.667 211.667 L 104.667 211.667 104.667 209.667 L 104.667 207.667 103.667 207.667 C 102.554 207.667,102.497 207.477,103.053 205.622 L 103.439 204.333 107.000 204.333 L 110.561 204.333 110.947 205.622 C 111.503 207.477,111.446 207.667,110.333 207.667 L 109.333 207.667 109.333 209.667 L 109.333 211.667 113.500 211.667 L 117.667 211.667 117.667 209.667 C 117.667 207.762,117.627 207.667,116.843 207.667 C 116.059 207.667,115.875 207.225,113.065 198.583 L 110.110 189.500 107.218 189.404 C 104.468 189.312,104.313 189.345,104.043 190.070 M120.667 192.667 L 120.667 196.000 123.000 196.000 L 125.333 196.000 125.333 194.667 L 125.333 193.333 126.833 193.333 L 128.333 193.333 128.333 200.500 L 128.333 207.667 127.167 207.667 L 126.000 207.667 126.000 209.667 L 126.000 211.667 130.667 211.667 L 135.333 211.667 135.333 209.667 L 135.333 207.667 134.167 207.667 L 133.000 207.667 133.000 200.500 L 133.000 193.333 134.667 193.333 L 136.333 193.333 136.333 194.667 L 136.333 196.000 138.667 196.000 L 141.000 196.000 141.000 192.667 L 141.000 189.333 130.833 189.333 L 120.667 189.333 120.667 192.667 M175.333 191.333 L 175.333 193.333 176.500 193.333 L 177.667 193.333 177.667 200.500 L 177.667 207.667 176.500 207.667 L 175.333 207.667 175.333 209.692 L 175.333 211.717 181.917 211.608 C 188.399 211.502,188.524 211.486,190.051 210.588 C 193.464 208.582,194.334 203.960,191.799 201.302 C 191.053 200.519,191.025 200.394,191.509 199.993 C 193.914 197.997,193.259 192.674,190.373 190.756 C 188.558 189.550,187.166 189.337,181.083 189.335 L 175.333 189.333 175.333 191.333 M198.000 191.312 L 198.000 193.291 199.076 193.396 C 200.038 193.489,200.480 193.961,203.231 197.833 L 206.310 202.167 206.322 204.917 L 206.333 207.667 205.167 207.667 L 204.000 207.667 204.000 209.667 L 204.000 211.667 208.833 211.667 L 213.667 211.667 213.667 209.667 L 213.667 207.667 212.333 207.667 L 211.000 207.667 211.000 204.994 L 211.000 202.322 214.374 197.827 C 217.050 194.264,217.913 193.333,218.541 193.333 C 219.287 193.333,219.333 193.217,219.333 191.333 L 219.333 189.333 214.667 189.333 L 210.000 189.333 210.000 191.333 L 210.000 193.333 211.012 193.333 C 212.175 193.333,212.188 193.288,210.017 196.721 L 208.760 198.709 207.222 196.105 L 205.684 193.500 206.676 193.396 C 207.652 193.293,207.667 193.261,207.667 191.312 L 207.667 189.333 202.833 189.333 L 198.000 189.333 198.000 191.312 M265.377 190.070 C 265.221 190.490,263.837 194.621,262.302 199.250 C 259.747 206.951,259.446 207.667,258.755 207.667 C 258.054 207.667,258.000 207.811,258.000 209.667 L 258.000 211.667 262.000 211.667 L 266.000 211.667 266.000 209.667 L 266.000 207.667 265.000 207.667 C 263.887 207.667,263.830 207.477,264.386 205.622 L 264.772 204.333 268.333 204.333 L 271.894 204.333 272.281 205.622 C 272.836 207.477,272.779 207.667,271.667 207.667 L 270.667 207.667 270.667 209.667 L 270.667 211.667 274.833 211.667 L 279.000 211.667 279.000 209.667 C 279.000 207.762,278.961 207.667,278.176 207.667 C 277.393 207.667,277.209 207.225,274.398 198.583 L 271.443 189.500 268.552 189.404 C 265.801 189.312,265.646 189.345,265.377 190.070 M282.000 191.312 L 282.000 193.291 283.076 193.396 C 284.038 193.489,284.480 193.961,287.231 197.833 L 290.310 202.167 290.322 204.917 L 290.333 207.667 289.167 207.667 L 288.000 207.667 288.000 209.667 L 288.000 211.667 292.833 211.667 L 297.667 211.667 297.667 209.667 L 297.667 207.667 296.333 207.667 L 295.000 207.667 295.000 204.994 L 295.000 202.322 298.374 197.827 C 301.050 194.264,301.913 193.333,302.541 193.333 C 303.287 193.333,303.333 193.217,303.333 191.333 L 303.333 189.333 298.667 189.333 L 294.000 189.333 294.000 191.333 L 294.000 193.333 295.012 193.333 C 296.175 193.333,296.188 193.288,294.017 196.721 L 292.760 198.709 291.222 196.105 L 289.684 193.500 290.676 193.396 C 291.652 193.293,291.667 193.261,291.667 191.312 L 291.667 189.333 286.833 189.333 L 282.000 189.333 282.000 191.312 M307.000 191.299 C 307.000 193.247,307.035 193.333,307.833 193.333 L 308.667 193.333 308.667 200.500 L 308.667 207.667 307.833 207.667 C 307.037 207.667,307.000 207.756,307.000 209.667 L 307.000 211.667 311.597 211.667 C 321.357 211.667,325.833 208.410,326.256 201.000 C 326.688 193.438,322.206 189.686,312.417 189.415 L 307.000 189.265 307.000 191.299 M332.000 191.500 L 332.000 193.667 333.167 193.667 L 334.333 193.667 334.333 200.667 L 334.333 207.667 333.167 207.667 L 332.000 207.667 332.000 209.667 L 332.000 211.667 340.833 211.667 L 349.667 211.667 349.667 207.667 L 349.667 203.667 347.333 203.667 L 345.000 203.667 345.000 205.667 L 345.000 207.667 342.167 207.667 L 339.333 207.667 339.333 205.000 L 339.333 202.333 341.500 202.333 L 343.667 202.333 343.667 200.333 L 343.667 198.333 341.500 198.333 L 339.333 198.333 339.333 196.000 L 339.333 193.667 342.148 193.667 L 344.963 193.667 345.065 195.250 L 345.167 196.833 347.417 196.932 L 349.667 197.030 349.667 193.182 L 349.667 189.333 340.833 189.333 L 332.000 189.333 332.000 191.500 M62.654 193.660 C 65.379 195.118,63.747 198.333,60.282 198.333 L 58.000 198.333 58.000 195.833 L 58.000 193.333 60.022 193.333 C 61.134 193.333,62.318 193.480,62.654 193.660 M186.987 193.660 C 189.712 195.118,188.080 198.333,184.615 198.333 L 182.333 198.333 182.333 195.833 L 182.333 193.333 184.355 193.333 C 185.467 193.333,186.652 193.480,186.987 193.660 M317.228 193.688 C 323.985 196.241,321.769 208.286,314.667 207.611 L 313.500 207.500 313.409 200.843 C 313.360 197.181,313.392 193.994,313.482 193.759 C 313.682 193.238,315.925 193.196,317.228 193.688 M108.069 196.583 C 108.557 198.188,109.058 199.762,109.181 200.083 C 109.381 200.606,109.153 200.667,107.000 200.667 C 105.144 200.667,104.634 200.566,104.764 200.226 C 104.857 199.984,105.347 198.409,105.852 196.726 C 106.975 192.983,106.973 192.983,108.069 196.583 M269.402 196.583 C 269.891 198.188,270.391 199.762,270.514 200.083 C 270.715 200.606,270.487 200.667,268.333 200.667 C 266.477 200.667,265.967 200.566,266.098 200.226 C 266.191 199.984,266.680 198.409,267.185 196.726 C 268.308 192.983,268.306 192.983,269.402 196.583 M63.333 203.000 C 65.378 205.044,63.659 207.667,60.275 207.667 L 58.000 207.667 58.000 205.000 L 58.000 202.333 60.333 202.333 C 62.222 202.333,62.794 202.460,63.333 203.000 M187.667 203.000 C 189.711 205.044,187.993 207.667,184.609 207.667 L 182.333 207.667 182.333 205.000 L 182.333 202.333 184.667 202.333 C 186.556 202.333,187.127 202.460,187.667 203.000 M56.000 248.126 C 56.000 248.516,58.772 255.879,60.119 259.065 C 78.492 302.541,116.184 335.142,161.742 346.963 C 236.586 366.383,314.228 326.430,341.751 254.333 C 344.492 247.152,344.590 247.957,340.989 248.070 L 337.924 248.167 336.830 251.167 C 311.718 319.997,236.299 359.752,164.875 341.809 C 118.023 330.039,79.740 295.998,63.312 251.500 L 62.082 248.167 59.041 248.071 C 57.368 248.018,56.000 248.043,56.000 248.126 M64.000 248.097 C 64.000 249.238,69.520 261.885,72.396 267.333 C 110.020 338.613,199.241 365.228,269.833 326.230 C 299.371 309.912,324.379 280.983,335.010 250.833 C 335.334 249.917,335.705 248.904,335.835 248.583 C 336.060 248.028,329.461 248.000,200.036 248.000 C 125.216 248.000,64.000 248.044,64.000 248.097 M137.667 272.500 C 137.667 275.056,137.796 276.667,138.000 276.667 C 138.183 276.667,138.333 276.903,138.333 277.192 C 138.333 277.578,138.045 277.698,137.250 277.644 C 136.654 277.604,135.770 277.679,135.286 277.812 C 133.981 278.171,132.472 277.264,132.002 275.839 C 131.197 273.399,133.052 270.994,135.379 271.459 C 136.283 271.640,136.333 271.588,136.333 270.492 C 136.333 269.684,136.182 269.333,135.833 269.333 C 135.558 269.333,135.333 269.108,135.333 268.833 C 135.333 268.484,135.685 268.333,136.500 268.333 L 137.667 268.333 137.667 272.500 M184.615 269.146 C 184.800 270.101,184.092 270.568,183.443 269.919 C 182.981 269.457,182.963 269.280,183.329 268.839 C 183.860 268.199,184.459 268.342,184.615 269.146 M195.139 268.536 C 196.062 268.890,195.722 269.619,194.583 269.729 C 193.253 269.857,192.688 271.667,193.978 271.667 C 194.368 271.667,194.667 271.884,194.667 272.167 C 194.667 272.444,194.370 272.667,194.000 272.667 C 193.407 272.667,193.333 272.889,193.333 274.667 C 193.333 276.222,193.444 276.667,193.833 276.667 C 194.108 276.667,194.333 276.892,194.333 277.167 C 194.333 277.544,193.926 277.667,192.667 277.667 C 191.407 277.667,191.000 277.544,191.000 277.167 C 191.000 276.892,191.225 276.667,191.500 276.667 C 191.889 276.667,192.000 276.222,192.000 274.667 C 192.000 273.111,191.889 272.667,191.500 272.667 C 191.225 272.667,191.000 272.442,191.000 272.167 C 191.000 271.892,191.225 271.667,191.500 271.667 C 191.783 271.667,192.000 271.368,192.000 270.978 C 192.000 269.063,193.491 267.903,195.139 268.536 M198.667 272.500 C 198.667 275.981,198.749 276.667,199.167 276.667 C 199.442 276.667,199.667 276.892,199.667 277.167 C 199.667 277.544,199.259 277.667,198.000 277.667 C 196.741 277.667,196.333 277.544,196.333 277.167 C 196.333 276.892,196.558 276.667,196.833 276.667 C 197.247 276.667,197.333 276.037,197.333 273.000 C 197.333 269.963,197.247 269.333,196.833 269.333 C 196.558 269.333,196.333 269.108,196.333 268.833 C 196.333 268.484,196.685 268.333,197.500 268.333 L 198.667 268.333 198.667 272.500 M221.667 271.167 C 221.667 273.110,221.789 274.000,222.057 274.000 C 222.684 274.000,223.667 272.951,223.667 272.282 C 223.667 271.786,223.926 271.667,225.000 271.667 C 225.963 271.667,226.333 271.806,226.333 272.167 C 226.333 272.442,226.154 272.667,225.935 272.667 C 225.716 272.667,225.125 273.061,224.622 273.543 L 223.707 274.419 224.603 275.543 C 225.097 276.161,225.688 276.667,225.917 276.667 C 226.146 276.667,226.333 276.892,226.333 277.167 C 226.333 278.186,224.754 277.708,223.577 276.333 C 222.265 274.801,221.667 274.644,221.667 275.833 C 221.667 276.292,221.817 276.667,222.000 276.667 C 222.183 276.667,222.333 276.892,222.333 277.167 C 222.333 277.537,221.944 277.667,220.833 277.667 C 219.722 277.667,219.333 277.537,219.333 277.167 C 219.333 276.892,219.558 276.667,219.833 276.667 C 220.247 276.667,220.333 276.037,220.333 273.000 C 220.333 269.963,220.247 269.333,219.833 269.333 C 219.558 269.333,219.333 269.108,219.333 268.833 C 219.333 268.484,219.685 268.333,220.500 268.333 L 221.667 268.333 221.667 271.167 M277.615 269.146 C 277.800 270.101,277.092 270.568,276.443 269.919 C 275.981 269.457,275.963 269.280,276.329 268.839 C 276.860 268.199,277.459 268.342,277.615 269.146 M300.948 269.146 C 301.133 270.101,300.425 270.568,299.776 269.919 C 299.315 269.457,299.296 269.280,299.662 268.839 C 300.193 268.199,300.792 268.342,300.948 269.146 M282.333 270.667 C 282.333 271.511,282.463 271.667,283.167 271.667 C 283.685 271.667,284.000 271.856,284.000 272.167 C 284.000 272.480,283.683 272.667,283.150 272.667 C 281.877 272.667,282.023 276.361,283.309 276.662 C 284.432 276.925,284.553 277.599,283.524 277.857 C 281.760 278.300,281.000 277.233,281.000 274.312 C 281.000 273.407,280.850 272.667,280.667 272.667 C 280.222 272.667,280.238 271.754,280.685 271.605 C 280.878 271.541,281.070 271.266,281.111 270.994 C 281.338 269.492,282.333 269.225,282.333 270.667 M295.333 270.667 C 295.333 271.511,295.463 271.667,296.167 271.667 C 296.685 271.667,297.000 271.856,297.000 272.167 C 297.000 272.480,296.683 272.667,296.150 272.667 C 294.877 272.667,295.023 276.361,296.309 276.662 C 297.432 276.925,297.553 277.599,296.524 277.857 C 294.760 278.300,294.000 277.233,294.000 274.312 C 294.000 273.407,293.850 272.667,293.667 272.667 C 293.222 272.667,293.238 271.754,293.685 271.605 C 293.878 271.541,294.070 271.266,294.111 270.994 C 294.338 269.492,295.333 269.225,295.333 270.667 M103.417 271.663 C 103.938 271.666,104.000 272.073,104.000 275.500 C 104.000 277.833,104.130 279.333,104.333 279.333 C 104.517 279.333,104.667 279.558,104.667 279.833 C 104.667 280.204,104.278 280.333,103.167 280.333 C 102.056 280.333,101.667 280.204,101.667 279.833 C 101.667 279.558,101.892 279.333,102.167 279.333 C 102.482 279.333,102.667 279.016,102.667 278.474 C 102.667 277.696,102.573 277.634,101.691 277.828 C 99.374 278.337,97.525 275.950,98.334 273.496 C 98.815 272.040,100.096 271.270,101.667 271.493 C 102.308 271.585,103.096 271.661,103.417 271.663 M119.582 272.223 C 119.812 272.537,120.000 273.665,120.000 274.730 C 120.000 275.799,120.149 276.667,120.333 276.667 C 120.517 276.667,120.667 276.898,120.667 277.180 C 120.667 277.557,120.333 277.686,119.417 277.664 C 118.729 277.648,117.769 277.732,117.283 277.850 C 116.632 278.008,116.214 277.880,115.699 277.366 C 114.218 275.885,115.282 274.000,117.599 274.000 C 118.484 274.000,118.692 273.879,118.600 273.417 C 118.513 272.971,118.152 272.833,117.079 272.833 C 115.494 272.833,114.921 272.154,116.089 271.659 C 117.124 271.222,119.081 271.537,119.582 272.223 M128.333 272.000 C 128.852 272.519,129.000 273.111,129.000 274.667 C 129.000 276.222,129.111 276.667,129.500 276.667 C 129.775 276.667,130.000 276.892,130.000 277.167 C 130.000 277.544,129.593 277.667,128.333 277.667 C 127.074 277.667,126.667 277.544,126.667 277.167 C 126.667 276.892,126.892 276.667,127.167 276.667 C 127.885 276.667,127.884 273.063,127.166 272.787 C 125.733 272.237,125.000 272.932,125.000 274.840 C 125.000 276.241,125.116 276.667,125.500 276.667 C 125.775 276.667,126.000 276.892,126.000 277.167 C 126.000 277.544,125.593 277.667,124.333 277.667 C 123.074 277.667,122.667 277.544,122.667 277.167 C 122.667 276.892,122.892 276.667,123.167 276.667 C 123.556 276.667,123.667 276.222,123.667 274.667 C 123.667 273.111,123.556 272.667,123.167 272.667 C 122.892 272.667,122.667 272.435,122.667 272.151 C 122.667 271.752,123.002 271.653,124.160 271.713 C 124.982 271.756,125.757 271.688,125.882 271.562 C 126.337 271.108,127.681 271.348,128.333 272.000 M145.583 272.507 C 147.122 274.278,146.194 277.351,143.974 277.839 C 141.239 278.440,139.096 275.507,140.465 273.037 C 141.500 271.169,144.180 270.892,145.583 272.507 M157.583 272.507 C 159.122 274.278,158.194 277.351,155.974 277.839 C 153.239 278.440,151.096 275.507,152.465 273.037 C 153.500 271.169,156.180 270.892,157.583 272.507 M165.851 271.800 C 166.422 272.200,166.609 272.200,167.156 271.800 C 169.024 270.434,170.667 271.776,170.667 274.667 C 170.667 276.222,170.778 276.667,171.167 276.667 C 171.442 276.667,171.667 276.892,171.667 277.167 C 171.667 277.544,171.259 277.667,170.000 277.667 C 168.741 277.667,168.333 277.544,168.333 277.167 C 168.333 276.892,168.566 276.667,168.850 276.667 C 169.268 276.667,169.348 276.302,169.267 274.750 L 169.167 272.833 168.000 272.833 L 166.833 272.833 166.733 274.750 C 166.652 276.302,166.732 276.667,167.150 276.667 C 167.434 276.667,167.667 276.892,167.667 277.167 C 167.667 277.544,167.259 277.667,166.000 277.667 C 164.741 277.667,164.333 277.544,164.333 277.167 C 164.333 276.892,164.558 276.667,164.833 276.667 C 165.551 276.667,165.551 273.063,164.833 272.787 C 163.400 272.237,162.667 272.932,162.667 274.840 C 162.667 276.241,162.783 276.667,163.167 276.667 C 163.442 276.667,163.667 276.892,163.667 277.167 C 163.667 277.544,163.259 277.667,162.000 277.667 C 160.741 277.667,160.333 277.544,160.333 277.167 C 160.333 276.892,160.558 276.667,160.833 276.667 C 161.222 276.667,161.333 276.222,161.333 274.667 C 161.333 273.111,161.222 272.667,160.833 272.667 C 160.558 272.667,160.333 272.435,160.333 272.151 C 160.333 271.752,160.668 271.653,161.827 271.713 C 162.648 271.756,163.423 271.688,163.549 271.562 C 163.931 271.180,165.145 271.306,165.851 271.800 M179.000 272.000 C 179.519 272.519,179.667 273.111,179.667 274.667 C 179.667 276.222,179.778 276.667,180.167 276.667 C 180.442 276.667,180.667 276.892,180.667 277.167 C 180.667 277.544,180.259 277.667,179.000 277.667 C 177.741 277.667,177.333 277.544,177.333 277.167 C 177.333 276.892,177.558 276.667,177.833 276.667 C 178.551 276.667,178.551 273.063,177.833 272.787 C 176.400 272.237,175.667 272.932,175.667 274.840 C 175.667 276.241,175.783 276.667,176.167 276.667 C 176.442 276.667,176.667 276.892,176.667 277.167 C 176.667 277.544,176.259 277.667,175.000 277.667 C 173.741 277.667,173.333 277.544,173.333 277.167 C 173.333 276.892,173.558 276.667,173.833 276.667 C 174.222 276.667,174.333 276.222,174.333 274.667 C 174.333 273.111,174.222 272.667,173.833 272.667 C 173.558 272.667,173.333 272.435,173.333 272.151 C 173.333 271.752,173.668 271.653,174.827 271.713 C 175.648 271.756,176.423 271.688,176.549 271.562 C 177.004 271.108,178.348 271.348,179.000 272.000 M216.000 272.000 C 216.519 272.519,216.667 273.111,216.667 274.667 C 216.667 276.222,216.778 276.667,217.167 276.667 C 217.442 276.667,217.667 276.892,217.667 277.167 C 217.667 277.544,217.259 277.667,216.000 277.667 C 214.741 277.667,214.333 277.544,214.333 277.167 C 214.333 276.892,214.558 276.667,214.833 276.667 C 215.551 276.667,215.551 273.063,214.833 272.787 C 213.400 272.237,212.667 272.932,212.667 274.840 C 212.667 276.241,212.783 276.667,213.167 276.667 C 213.442 276.667,213.667 276.892,213.667 277.167 C 213.667 277.544,213.259 277.667,212.000 277.667 C 210.741 277.667,210.333 277.544,210.333 277.167 C 210.333 276.892,210.558 276.667,210.833 276.667 C 211.222 276.667,211.333 276.222,211.333 274.667 C 211.333 273.111,211.222 272.667,210.833 272.667 C 210.558 272.667,210.333 272.435,210.333 272.151 C 210.333 271.752,210.668 271.653,211.827 271.713 C 212.648 271.756,213.423 271.688,213.549 271.562 C 214.004 271.108,215.348 271.348,216.000 272.000 M241.151 271.720 C 242.704 272.428,242.212 273.051,240.300 272.797 C 238.272 272.528,237.990 273.489,239.906 274.137 C 242.411 274.984,242.689 277.134,240.379 277.796 C 239.142 278.151,237.000 277.296,237.000 276.448 C 237.000 275.911,238.053 275.853,238.562 276.362 C 239.030 276.830,240.500 276.623,240.500 276.090 C 240.500 275.864,239.825 275.339,239.000 274.923 C 235.823 273.321,237.895 270.237,241.151 271.720 M252.851 271.800 C 253.422 272.200,253.609 272.200,254.156 271.800 C 256.024 270.434,257.667 271.776,257.667 274.667 C 257.667 276.222,257.778 276.667,258.167 276.667 C 258.442 276.667,258.667 276.892,258.667 277.167 C 258.667 277.544,258.259 277.667,257.000 277.667 C 255.741 277.667,255.333 277.544,255.333 277.167 C 255.333 276.892,255.566 276.667,255.850 276.667 C 256.268 276.667,256.348 276.302,256.267 274.750 L 256.167 272.833 255.000 272.833 L 253.833 272.833 253.733 274.750 C 253.652 276.302,253.732 276.667,254.150 276.667 C 254.434 276.667,254.667 276.892,254.667 277.167 C 254.667 277.544,254.259 277.667,253.000 277.667 C 251.741 277.667,251.333 277.544,251.333 277.167 C 251.333 276.892,251.558 276.667,251.833 276.667 C 252.551 276.667,252.551 273.063,251.833 272.787 C 250.400 272.237,249.667 272.932,249.667 274.840 C 249.667 276.241,249.783 276.667,250.167 276.667 C 250.442 276.667,250.667 276.892,250.667 277.167 C 250.667 277.544,250.259 277.667,249.000 277.667 C 247.741 277.667,247.333 277.544,247.333 277.167 C 247.333 276.892,247.558 276.667,247.833 276.667 C 248.222 276.667,248.333 276.222,248.333 274.667 C 248.333 273.111,248.222 272.667,247.833 272.667 C 247.558 272.667,247.333 272.435,247.333 272.151 C 247.333 271.752,247.668 271.653,248.827 271.713 C 249.648 271.756,250.423 271.688,250.549 271.562 C 250.931 271.180,252.145 271.306,252.851 271.800 M265.917 272.507 C 267.455 274.278,266.527 277.351,264.307 277.839 C 261.572 278.440,259.429 275.507,260.799 273.037 C 261.834 271.169,264.513 270.892,265.917 272.507 M290.249 272.223 C 290.479 272.537,290.667 273.665,290.667 274.730 C 290.667 275.799,290.816 276.667,291.000 276.667 C 291.183 276.667,291.333 276.898,291.333 277.180 C 291.333 277.557,290.999 277.686,290.083 277.664 C 289.396 277.648,288.436 277.732,287.949 277.850 C 287.299 278.008,286.880 277.880,286.366 277.366 C 284.885 275.885,285.948 274.000,288.265 274.000 C 289.151 274.000,289.358 273.879,289.267 273.417 C 289.179 272.971,288.819 272.833,287.746 272.833 C 286.161 272.833,285.587 272.154,286.756 271.659 C 287.791 271.222,289.748 271.537,290.249 272.223 M108.005 273.750 C 108.011 276.268,108.271 276.754,109.536 276.610 C 110.678 276.480,111.304 272.667,110.183 272.667 C 109.899 272.667,109.667 272.442,109.667 272.167 C 109.667 271.817,110.019 271.667,110.833 271.667 L 112.000 271.667 112.000 274.167 C 112.000 275.611,112.141 276.667,112.333 276.667 C 112.517 276.667,112.667 276.903,112.667 277.192 C 112.667 277.580,112.383 277.696,111.583 277.633 C 110.987 277.587,110.152 277.664,109.726 277.805 C 107.770 278.450,106.667 277.193,106.667 274.318 C 106.667 273.410,106.517 272.667,106.333 272.667 C 106.150 272.667,106.000 272.442,106.000 272.167 C 106.000 271.833,106.333 271.667,107.000 271.667 L 108.000 271.667 108.005 273.750 M184.667 274.167 C 184.667 276.167,184.767 276.667,185.167 276.667 C 185.442 276.667,185.667 276.892,185.667 277.167 C 185.667 277.544,185.259 277.667,184.000 277.667 C 182.741 277.667,182.333 277.544,182.333 277.167 C 182.333 276.892,182.558 276.667,182.833 276.667 C 183.222 276.667,183.333 276.222,183.333 274.667 C 183.333 273.111,183.222 272.667,182.833 272.667 C 182.558 272.667,182.333 272.442,182.333 272.167 C 182.333 271.817,182.685 271.667,183.500 271.667 L 184.667 271.667 184.667 274.167 M203.338 273.750 C 203.345 276.268,203.605 276.754,204.870 276.610 C 206.011 276.480,206.637 272.667,205.517 272.667 C 205.232 272.667,205.000 272.442,205.000 272.167 C 205.000 271.817,205.352 271.667,206.167 271.667 L 207.333 271.667 207.333 274.167 C 207.333 275.611,207.474 276.667,207.667 276.667 C 207.850 276.667,208.000 276.903,208.000 277.192 C 208.000 277.580,207.716 277.696,206.917 277.633 C 206.321 277.587,205.485 277.664,205.059 277.805 C 203.103 278.450,202.000 277.193,202.000 274.318 C 202.000 273.410,201.850 272.667,201.667 272.667 C 201.483 272.667,201.333 272.442,201.333 272.167 C 201.333 271.833,201.667 271.667,202.333 271.667 L 203.333 271.667 203.338 273.750 M230.005 273.750 C 230.011 276.268,230.271 276.754,231.536 276.610 C 232.678 276.480,233.304 272.667,232.183 272.667 C 231.899 272.667,231.667 272.442,231.667 272.167 C 231.667 271.817,232.019 271.667,232.833 271.667 L 234.000 271.667 234.000 274.167 C 234.000 275.611,234.141 276.667,234.333 276.667 C 234.517 276.667,234.667 276.903,234.667 277.192 C 234.667 277.580,234.383 277.696,233.583 277.633 C 232.987 277.587,232.152 277.664,231.726 277.805 C 229.770 278.450,228.667 277.193,228.667 274.318 C 228.667 273.410,228.517 272.667,228.333 272.667 C 228.150 272.667,228.000 272.442,228.000 272.167 C 228.000 271.833,228.333 271.667,229.000 271.667 L 230.000 271.667 230.005 273.750 M273.333 272.380 C 273.333 272.879,273.144 273.023,272.583 272.951 C 271.356 272.792,271.000 273.258,271.000 275.020 C 271.000 276.261,271.123 276.667,271.500 276.667 C 271.775 276.667,272.000 276.892,272.000 277.167 C 272.000 277.544,271.593 277.667,270.333 277.667 C 269.074 277.667,268.667 277.544,268.667 277.167 C 268.667 276.892,268.892 276.667,269.167 276.667 C 269.556 276.667,269.667 276.222,269.667 274.667 C 269.667 273.111,269.556 272.667,269.167 272.667 C 268.892 272.667,268.667 272.449,268.667 272.183 C 268.667 271.805,269.179 271.700,271.000 271.706 C 273.109 271.712,273.333 271.777,273.333 272.380 M277.667 274.167 C 277.667 276.167,277.767 276.667,278.167 276.667 C 278.442 276.667,278.667 276.892,278.667 277.167 C 278.667 277.544,278.259 277.667,277.000 277.667 C 275.741 277.667,275.333 277.544,275.333 277.167 C 275.333 276.892,275.558 276.667,275.833 276.667 C 276.222 276.667,276.333 276.222,276.333 274.667 C 276.333 273.111,276.222 272.667,275.833 272.667 C 275.558 272.667,275.333 272.442,275.333 272.167 C 275.333 271.817,275.685 271.667,276.500 271.667 L 277.667 271.667 277.667 274.167 M301.000 274.167 C 301.000 276.167,301.100 276.667,301.500 276.667 C 301.775 276.667,302.000 276.892,302.000 277.167 C 302.000 277.544,301.593 277.667,300.333 277.667 C 299.074 277.667,298.667 277.544,298.667 277.167 C 298.667 276.892,298.892 276.667,299.167 276.667 C 299.556 276.667,299.667 276.222,299.667 274.667 C 299.667 273.111,299.556 272.667,299.167 272.667 C 298.892 272.667,298.667 272.442,298.667 272.167 C 298.667 271.817,299.019 271.667,299.833 271.667 L 301.000 271.667 301.000 274.167 M99.865 273.389 C 98.784 274.932,99.691 276.773,101.449 276.602 C 103.100 276.442,103.100 272.892,101.449 272.731 C 100.661 272.655,100.264 272.820,99.865 273.389 M133.532 273.389 C 132.451 274.932,133.358 276.773,135.115 276.602 C 136.767 276.442,136.767 272.892,135.115 272.731 C 134.327 272.655,133.931 272.820,133.532 273.389 M141.799 273.506 C 140.762 275.088,142.000 276.990,143.777 276.544 C 144.805 276.286,145.255 275.028,144.792 273.703 C 144.343 272.417,142.588 272.302,141.799 273.506 M153.799 273.506 C 152.762 275.088,154.000 276.990,155.777 276.544 C 156.805 276.286,157.255 275.028,156.792 273.703 C 156.343 272.417,154.588 272.302,153.799 273.506 M262.132 273.506 C 261.095 275.088,262.333 276.990,264.110 276.544 C 265.138 276.286,265.588 275.028,265.125 273.703 C 264.676 272.417,262.921 272.302,262.132 273.506 M116.750 275.221 C 116.521 275.313,116.333 275.686,116.333 276.049 C 116.333 277.071,118.459 276.792,118.607 275.750 C 118.713 274.998,117.886 274.762,116.750 275.221 M287.417 275.221 C 287.188 275.313,287.000 275.686,287.000 276.049 C 287.000 277.071,289.125 276.792,289.273 275.750 C 289.380 274.998,288.552 274.762,287.417 275.221 M201.903 305.129 L 203.625 308.591 205.729 308.948 C 206.886 309.145,208.621 309.406,209.583 309.529 C 211.831 309.816,211.829 309.823,208.598 312.777 L 205.862 315.278 206.434 318.889 C 206.749 320.875,207.005 322.700,207.003 322.946 C 207.001 323.229,205.727 322.717,203.500 321.539 L 200.000 319.686 196.500 321.539 C 194.273 322.717,192.999 323.229,192.997 322.946 C 192.995 322.700,193.251 320.875,193.566 318.889 L 194.138 315.278 191.402 312.777 C 188.171 309.823,188.169 309.816,190.417 309.529 C 191.379 309.406,193.114 309.145,194.271 308.948 L 196.375 308.591 198.097 305.129 C 199.044 303.225,199.900 301.667,200.000 301.667 C 200.100 301.667,200.956 303.225,201.903 305.129 " stroke="none" fill="#fcfcfc" fill-rule="evenodd"></path><path id="path1" d="" stroke="none" fill="#100fcfc" fill-rule="evenodd"></path><path id="path2" d="" stroke="none" fill="#100fcfc" fill-rule="evenodd"></path><path id="path3" d="" stroke="none" fill="#100fcfc" fill-rule="evenodd"></path><path id="path4" d="" stroke="none" fill="#100fcfc" fill-rule="evenodd"></path></g></svg>