<svg version="1.1" xmlns="http://www.w3.org/2000/svg" width="1024" height="1024" viewBox="0 0 1024 1024">
<path d="M527.001 0.226c124.639 5.479 233.849 48.85 327.001 131.223 117.628 104.008 169.368 255.56 168.84 364.896-255.233 3.066-494.912-215.304-495.842-496.119z"></path>
<path d="M1.91 497.3c4.523-269.557 230.13-492.047 495.289-496.018 0.729 246.212-202.187 489.61-495.289 496.018z"></path>
<path d="M527.001 1023.774c1.658-252.394 206.207-488.102 496.998-495.365-5.88 121.372-47.192 228.672-127.052 319.689-97.399 110.919-222.039 166.931-369.946 175.675z"></path>
<path d="M0 528.284c252.343 6.684 484.057 196.005 498.581 492.223-47.745 16.409-216.107-40.759-288.178-95.766-130.821-99.812-198.618-232.165-210.404-396.458z"></path>
</svg>
